<?xml version="1.0" encoding="UTF-8" standalone="no"?>
<!DOCTYPE svg PUBLIC "-//W3C//DTD SVG 1.1//EN" "http://www.w3.org/Graphics/SVG/1.1/DTD/svg11.dtd">
<svg width="100%" height="100%" viewBox="0 0 2400 1600" version="1.1" xmlns="http://www.w3.org/2000/svg" xmlns:xlink="http://www.w3.org/1999/xlink" xml:space="preserve" xmlns:serif="http://www.serif.com/" style="fill-rule:evenodd;clip-rule:evenodd;stroke-linejoin:round;stroke-miterlimit:2;">
    <rect x="0" y="0" width="2400" height="1600" style="fill:white;"/>
    <g id="path5" transform="matrix(6.85432,0,0,6.85432,-132.831,-716.722)">
        <path d="M249.99,260.511C275.392,235.111 279.614,198.151 259.419,177.958C239.228,157.768 202.27,161.989 176.87,187.387C151.469,212.787 158.817,261.313 167.442,269.94C174.412,276.91 224.591,285.91 249.99,260.511Z" style="fill:rgb(248,153,57);fill-rule:nonzero;"/>
    </g>
    <g id="path7" transform="matrix(6.85432,0,0,6.85432,-132.831,-716.722)">
        <path d="M145.763,223.808C131.027,209.072 109.581,206.619 97.862,218.337C86.147,230.053 88.596,251.502 103.335,266.236C118.074,280.976 146.231,276.712 151.232,271.707C155.279,267.667 160.503,238.546 145.763,223.808Z" style="fill:rgb(52,153,205);fill-rule:nonzero;"/>
    </g>
    <g id="g11" transform="matrix(6.85432,0,0,6.85432,-132.831,-716.722)">
        <path id="path13" d="M196.607,254.285C194.004,256.681 191.72,258.45 189.758,259.586C187.795,260.726 185.923,261.295 184.142,261.295C182.093,261.295 180.44,260.501 179.186,258.912C177.931,257.321 177.305,255.188 177.305,252.505C177.305,248.484 178.177,243.657 179.92,238.029C181.66,232.396 183.779,227.206 186.267,222.458L193.564,219.757C193.793,219.68 193.967,219.641 194.082,219.641C194.636,219.641 195.093,220.049 195.444,220.861C195.799,221.677 195.977,222.774 195.977,224.152C195.977,228.059 195.078,231.841 193.276,235.499C191.474,239.158 188.66,243.064 184.831,247.219C184.677,249.211 184.601,250.579 184.601,251.327C184.601,252.994 184.907,254.314 185.519,255.291C186.133,256.27 186.946,256.756 187.961,256.756C188.997,256.756 190.097,256.385 191.266,255.638C192.432,254.89 194.213,253.34 196.607,250.983L196.607,254.285L196.607,254.285ZM185.606,243.055C188.038,240.352 190.013,237.319 191.525,233.965C193.037,230.608 193.792,227.722 193.792,225.303C193.792,224.598 193.688,224.025 193.478,223.594C193.268,223.163 192.998,222.946 192.673,222.946C191.967,222.946 190.936,224.71 189.585,228.239C188.234,231.767 186.908,236.707 185.606,243.055Z" style="fill:rgb(1,1,1);fill-rule:nonzero;"/>
        <path id="path15" d="M218.096,254.285C215.665,256.681 213.482,258.45 211.547,259.586C209.612,260.726 207.479,261.295 205.142,261.295C202.537,261.295 200.435,260.462 198.834,258.798C197.236,257.129 196.438,254.938 196.438,252.218C196.438,248.159 197.844,244.486 200.663,241.202C203.475,237.916 206.598,236.275 210.026,236.275C211.807,236.275 213.232,236.736 214.306,237.655C215.378,238.575 215.915,239.78 215.915,241.274C215.915,245.239 211.702,248.455 203.276,250.926C204.041,254.659 206.042,256.528 209.279,256.528C210.543,256.528 211.748,256.188 212.897,255.51C214.048,254.829 215.78,253.318 218.097,250.984L218.097,254.285L218.096,254.285ZM203.044,248.972C207.945,247.592 210.398,245.047 210.398,241.331C210.398,239.493 209.726,238.574 208.388,238.574C207.123,238.574 205.918,239.535 204.77,241.462C203.618,243.385 203.044,245.887 203.044,248.972Z" style="fill:rgb(1,1,1);fill-rule:nonzero;"/>
        <path id="path17" d="M248.776,254.285C245.711,257.196 243.518,259.094 242.198,259.976C240.877,260.857 239.613,261.296 238.406,261.296C235.379,261.296 233.954,258.625 234.125,253.282C232.211,256.019 230.443,258.04 228.824,259.345C227.207,260.647 225.537,261.296 223.811,261.296C222.128,261.296 220.697,260.508 219.518,258.928C218.338,257.347 217.752,255.409 217.752,253.109C217.752,250.238 218.54,247.499 220.119,244.893C221.701,242.288 223.726,240.184 226.196,238.575C228.665,236.966 230.851,236.161 232.745,236.161C235.139,236.161 236.816,237.262 237.773,239.464L243.644,236.219L245.255,236.219L242.72,244.635C241.418,248.869 240.764,251.77 240.764,253.34C240.764,254.986 241.347,255.81 242.516,255.81C243.26,255.81 244.084,255.413 244.985,254.617C245.885,253.822 247.147,252.61 248.774,250.983L248.774,254.285L248.776,254.285ZM227.748,255.867C229.663,255.867 231.467,254.235 233.165,250.97C234.86,247.704 235.707,244.69 235.707,241.933C235.707,240.862 235.466,240.023 234.989,239.421C234.509,238.816 233.867,238.516 233.065,238.516C231.149,238.516 229.332,240.143 227.621,243.4C225.908,246.656 225.049,249.653 225.049,252.389C225.049,253.425 225.304,254.263 225.811,254.905C226.318,255.547 226.961,255.867 227.748,255.867Z" style="fill:rgb(1,1,1);fill-rule:nonzero;"/>
        <path id="path19" d="M270.236,254.285C265.428,258.996 261.722,261.353 259.118,261.353C257.948,261.353 256.961,260.86 256.159,259.876C255.356,258.889 254.952,257.668 254.952,256.211C254.952,253.511 256.4,249.893 259.291,245.353C257.873,246.082 256.323,246.587 254.637,246.875C253.392,249.173 251.438,251.644 248.777,254.284L248.117,254.284L248.117,251.702C249.61,250.151 250.961,248.484 252.167,246.703C250.518,245.974 249.696,244.892 249.696,243.458C249.696,241.981 250.197,240.407 251.205,238.729C252.21,237.055 253.593,236.218 255.356,236.218C256.85,236.218 257.596,236.982 257.596,238.515C257.596,239.722 257.165,241.444 256.302,243.686C259.481,243.34 262.258,240.91 264.634,236.389L267.247,236.274L264.575,243.628C263.465,246.73 262.747,248.844 262.422,249.963C262.097,251.082 261.933,252.075 261.933,252.935C261.933,253.741 262.121,254.384 262.493,254.86C262.866,255.342 263.37,255.579 264.002,255.579C264.69,255.579 265.352,255.343 265.984,254.877C266.615,254.404 268.033,253.108 270.236,250.982L270.236,254.285L270.236,254.285Z" style="fill:rgb(1,1,1);fill-rule:nonzero;"/>
        <path id="path21" d="M298.446,254.285C294.023,258.961 290.228,261.296 287.07,261.296C285.787,261.296 284.753,260.846 283.967,259.945C283.181,259.046 282.788,257.84 282.788,256.327C282.788,254.278 283.632,251.146 285.318,246.935C286.217,244.675 286.669,243.236 286.669,242.626C286.669,242.012 286.427,241.705 285.951,241.705C285.683,241.705 285.327,241.84 284.888,242.107C284.483,242.374 284.015,242.751 283.478,243.229C283.001,243.668 282.463,244.204 281.87,244.834C281.351,245.375 280.796,245.987 280.205,246.674L278.594,248.543C277.887,249.404 277.446,250.312 277.274,251.271C276.986,252.898 276.795,254.394 276.698,255.755C276.64,256.768 276.612,258.136 276.612,259.863L270.263,261.354C270.054,258.769 269.947,256.843 269.947,255.581C269.947,252.498 270.306,249.577 271.025,246.82C271.743,244.06 272.896,240.959 274.487,237.511L281.495,236.161C280.021,240.127 279.054,243.247 278.594,245.524C281.735,242.02 284.225,239.595 286.071,238.243C287.914,236.892 289.555,236.22 290.989,236.22C291.963,236.22 292.778,236.587 293.426,237.323C294.078,238.06 294.402,238.984 294.402,240.09C294.402,241.927 293.579,244.953 291.934,249.168C290.803,252.058 290.237,253.934 290.237,254.8C290.237,255.953 290.708,256.529 291.648,256.529C293.048,256.529 295.316,254.68 298.446,250.984L298.446,254.285Z" style="fill:rgb(1,1,1);fill-rule:nonzero;"/>
    </g>
    <g id="text25" transform="matrix(6.85432,0,0,6.85432,1275.43,836.841)">
        <text x="0px" y="0px" style="font-family:'Helvetica';font-size:17.31px;fill:white;">scikit</text>
    </g>
</svg>
