<svg id="Layer_1" data-name="Layer 1" xmlns="http://www.w3.org/2000/svg" viewBox="0 0 500 400"><defs><style>.cls-1,.cls-2{fill:none;}.cls-2{stroke:#fff;stroke-miterlimit:10;stroke-width:20px;}.cls-3{fill:#fff;}</style></defs><title>Artboard 1</title><rect class="cls-1" width="500" height="400"/><rect class="cls-2" x="168.44" y="41.54" width="163.12" height="194.37" rx="12"/><rect class="cls-3" x="188.59" y="71.81" width="122.83" height="13.94" rx="6.56"/><rect class="cls-3" x="188.59" y="131.76" width="122.83" height="13.94" rx="6.56"/><rect class="cls-3" x="188.59" y="191.71" width="122.83" height="13.94" rx="6.56"/><path class="cls-3" d="M57.22,289.84a108.74,108.74,0,0,1,20-1.68c11.16,0,18.36,2,23.4,6.6,4.08,3.6,6.36,9.12,6.36,15.36,0,10.68-6.72,17.76-15.24,20.64v.36c6.24,2.16,10,7.92,11.88,16.32,2.64,11.28,4.56,19.08,6.24,22.2H99.1c-1.32-2.28-3.12-9.24-5.4-19.32C91.3,339.16,87,335,77.5,334.6H67.66v35H57.22Zm10.44,36.84H78.34c11.16,0,18.24-6.12,18.24-15.36,0-10.44-7.56-15-18.6-15.12a43,43,0,0,0-10.32,1Z"/><path class="cls-3" d="M127.78,342.52c.24,14.28,9.36,20.16,19.92,20.16,7.56,0,12.12-1.32,16.08-3l1.8,7.56c-3.72,1.68-10.08,3.6-19.32,3.6-17.88,0-28.56-11.76-28.56-29.28s10.32-31.32,27.24-31.32c19,0,24,16.68,24,27.36a39.83,39.83,0,0,1-.36,4.92Zm31-7.56c.12-6.72-2.76-17.16-14.64-17.16-10.68,0-15.36,9.84-16.2,17.16Z"/><path class="cls-3" d="M180.58,358.84A27.68,27.68,0,0,0,194.5,363c7.68,0,11.28-3.84,11.28-8.64,0-5-3-7.8-10.8-10.68-10.44-3.72-15.36-9.48-15.36-16.44,0-9.36,7.56-17,20-17a29,29,0,0,1,14.28,3.6l-2.64,7.68a22.6,22.6,0,0,0-11.88-3.36c-6.24,0-9.72,3.6-9.72,7.92,0,4.8,3.48,7,11,9.84,10.08,3.84,15.24,8.88,15.24,17.52,0,10.2-7.92,17.4-21.72,17.4a33.12,33.12,0,0,1-16.32-4Z"/><path class="cls-3" d="M278.14,353.8c0,6,.12,11.28.48,15.84h-9.36l-.6-9.48h-.24a21.85,21.85,0,0,1-19.2,10.8c-9.12,0-20-5-20-25.44v-34h10.56v32.16c0,11,3.36,18.48,13,18.48a15.27,15.27,0,0,0,13.92-9.6,15.44,15.44,0,0,0,1-5.4V311.56h10.56Z"/><path class="cls-3" d="M295.66,327.28c0-6-.12-10.92-.48-15.72h9.24l.48,9.36h.36c3.24-5.52,8.64-10.68,18.24-10.68a17.17,17.17,0,0,1,16.44,11.64h.24a23.93,23.93,0,0,1,6.48-7.56,19.82,19.82,0,0,1,12.84-4.08c7.68,0,19.08,5,19.08,25.2v34.2H368.26V336.76c0-11.16-4.08-17.88-12.6-17.88-6,0-10.68,4.44-12.48,9.6a17.39,17.39,0,0,0-.84,5.28v35.88H332v-34.8c0-9.24-4.08-16-12.12-16-6.6,0-11.4,5.28-13.08,10.56a14.56,14.56,0,0,0-.84,5.16v35H295.66Z"/><path class="cls-3" d="M401.62,342.52c.24,14.28,9.36,20.16,19.92,20.16,7.56,0,12.12-1.32,16.08-3l1.8,7.56c-3.72,1.68-10.08,3.6-19.32,3.6-17.88,0-28.56-11.76-28.56-29.28s10.32-31.32,27.24-31.32c19,0,24,16.68,24,27.36a39.83,39.83,0,0,1-.36,4.92Zm31-7.56c.12-6.72-2.76-17.16-14.64-17.16-10.68,0-15.36,9.84-16.2,17.16Z"/></svg>