<svg id="Layer_1" data-name="Layer 1" xmlns="http://www.w3.org/2000/svg" viewBox="0 0 500 400"><defs><style>.cls-1{fill:#fff;}</style></defs><title>Artboard 1</title><path class="cls-1" d="M58.12,288.88a121,121,0,0,1,20-1.56c10.32,0,17.88,2.4,22.68,6.72,4.44,3.84,7.08,9.72,7.08,16.92s-2.16,13.08-6.24,17.28c-5.52,5.88-14.52,8.88-24.72,8.88a35.93,35.93,0,0,1-8.4-.72v32.4H58.12Zm10.44,39a35,35,0,0,0,8.64.84c12.6,0,20.28-6.12,20.28-17.28,0-10.68-7.56-15.84-19.08-15.84a43.81,43.81,0,0,0-9.84.84Z"/><path class="cls-1" d="M119.68,328.84c0-6.84-.12-12.72-.48-18.12h9.24l.36,11.4h.48c2.64-7.8,9-12.72,16.08-12.72a11.42,11.42,0,0,1,3,.36v10a15.86,15.86,0,0,0-3.6-.36c-7.44,0-12.72,5.64-14.16,13.56a29.72,29.72,0,0,0-.48,4.92v31H119.68Z"/><path class="cls-1" d="M210.28,339.28c0,21.48-14.88,30.84-28.92,30.84-15.72,0-27.84-11.52-27.84-29.88,0-19.44,12.72-30.84,28.8-30.84C199,309.4,210.28,321.52,210.28,339.28Zm-46.08.6c0,12.72,7.32,22.32,17.64,22.32,10.08,0,17.64-9.48,17.64-22.56,0-9.84-4.92-22.32-17.4-22.32S164.2,328.84,164.2,339.88Z"/><path class="cls-1" d="M209.44,385.6c4.8-.36,9-1.68,11.52-4.44,2.88-3.36,4-7.92,4-21.84v-48.6h10.56V363.4c0,11.28-1.8,18.6-7,23.88-4.68,4.68-12.36,6.6-18,6.6Zm27.24-91.2c.12,3.48-2.4,6.48-6.6,6.48a6.3,6.3,0,0,1-6.48-6.48,6.46,6.46,0,0,1,6.72-6.6A6.24,6.24,0,0,1,236.68,294.4Z"/><path class="cls-1" d="M258.64,341.68c.24,14.28,9.36,20.16,19.92,20.16,7.56,0,12.12-1.32,16.08-3l1.8,7.56c-3.72,1.68-10.08,3.6-19.32,3.6-17.88,0-28.56-11.76-28.56-29.28s10.32-31.32,27.24-31.32c19,0,24,16.68,24,27.36a39.83,39.83,0,0,1-.36,4.92Zm31-7.56C289.72,327.4,286.84,317,275,317c-10.68,0-15.36,9.84-16.2,17.16Z"/><path class="cls-1" d="M354.28,366.64c-2.76,1.44-8.88,3.36-16.68,3.36-17.52,0-28.92-11.88-28.92-29.64s12.24-30.84,31.2-30.84a35.3,35.3,0,0,1,14.64,3l-2.4,8.16c-2.52-1.44-6.48-2.76-12.24-2.76-13.32,0-20.52,9.84-20.52,22,0,13.44,8.64,21.72,20.16,21.72a30,30,0,0,0,13-2.88Z"/><path class="cls-1" d="M380.92,294v16.68H396v8H380.92v31.32c0,7.2,2,11.28,7.92,11.28a23.49,23.49,0,0,0,6.12-.72l.48,7.92a25.85,25.85,0,0,1-9.36,1.44c-4.92,0-8.88-1.56-11.4-4.44-3-3.12-4.08-8.28-4.08-15.12V318.76h-9v-8h9V296.8Z"/><path class="cls-1" d="M406.48,358a27.68,27.68,0,0,0,13.92,4.2c7.68,0,11.28-3.84,11.28-8.64,0-5-3-7.8-10.8-10.68-10.44-3.72-15.36-9.48-15.36-16.44,0-9.36,7.56-17,20-17a29,29,0,0,1,14.28,3.6l-2.64,7.68a22.6,22.6,0,0,0-11.88-3.36c-6.24,0-9.72,3.6-9.72,7.92,0,4.8,3.48,7,11,9.84,10.08,3.84,15.24,8.88,15.24,17.52,0,10.2-7.92,17.4-21.72,17.4a33.12,33.12,0,0,1-16.32-4Z"/><path class="cls-1" d="M207.59,245.79H201q-22.71,0-36.14-10.65t-13.44-28.82V167.56q0-22.25-22.11-22.24V127.14q22.11,0,22.11-22.25V66.14q0-18.18,13.44-28.83T201,26.67h6.57V44.85h-4.48q-26.6,0-26.58,24.16v39.71q-.32,21.28-20.61,27v.95q20,5.27,20.61,26.32v40.43q0,24.15,26.58,24.16h4.48Z"/><path class="cls-1" d="M292.41,245.79V227.61h4.48q26.58,0,26.58-24.16V163q.6-21,20.61-26.32v-.95q-20.31-5.75-20.61-27V69q0-24.17-26.58-24.16h-4.48V26.67H299q22.69,0,36.14,10.64t13.44,28.83v38.75q0,22.24,22.11,22.25v18.18q-22.11,0-22.11,22.24v38.76q0,18.17-13.44,28.82T299,245.79Z"/></svg>