<svg id="Layer_1" data-name="Layer 1" xmlns="http://www.w3.org/2000/svg" viewBox="0 0 500 400"><defs><style>.cls-1{fill:#fff;}.cls-2{fill:none;stroke:#fff;stroke-miterlimit:10;stroke-width:20px;}</style></defs><title>Artboard 1</title><path class="cls-1" d="M115.72,344.2l-8.4,25.44H96.52L124,288.76h12.6l27.6,80.88H153L144.4,344.2ZM142.24,336l-7.92-23.28c-1.8-5.28-3-10.08-4.2-14.76h-.24c-1.2,4.8-2.52,9.72-4.08,14.64L117.88,336Z"/><path class="cls-1" d="M174.88,369.64c.24-4,.48-9.84.48-15v-70.2H185.8v36.48H186c3.72-6.48,10.44-10.68,19.8-10.68,14.4,0,24.6,12,24.48,29.64,0,20.76-13.08,31.08-26,31.08-8.4,0-15.12-3.24-19.44-10.92h-.36l-.48,9.6Zm10.92-23.28a19.77,19.77,0,0,0,.48,3.84c2,7.32,8.16,12.36,15.84,12.36,11,0,17.64-9,17.64-22.32,0-11.64-6-21.6-17.28-21.6-7.2,0-13.92,4.92-16.08,13a20.81,20.81,0,0,0-.6,4.32Z"/><path class="cls-1" d="M296.2,340.12c0,21.48-14.88,30.84-28.92,30.84-15.72,0-27.84-11.52-27.84-29.88,0-19.44,12.72-30.84,28.8-30.84C284.92,310.24,296.2,322.36,296.2,340.12Zm-46.08.6c0,12.72,7.32,22.32,17.64,22.32,10.08,0,17.64-9.48,17.64-22.56,0-9.84-4.92-22.32-17.4-22.32S250.12,329.68,250.12,340.72Z"/><path class="cls-1" d="M358.12,353.8c0,6,.12,11.28.48,15.84h-9.36l-.6-9.48h-.24A21.85,21.85,0,0,1,329.2,371c-9.12,0-20-5-20-25.44v-34h10.56v32.16c0,11,3.36,18.48,13,18.48a15.27,15.27,0,0,0,13.92-9.6,15.44,15.44,0,0,0,1-5.4V311.56h10.56Z"/><path class="cls-1" d="M388.36,294.88v16.68h15.12v8H388.36v31.32c0,7.2,2,11.28,7.92,11.28a23.49,23.49,0,0,0,6.12-.72l.48,7.92a25.85,25.85,0,0,1-9.36,1.44c-4.92,0-8.88-1.56-11.4-4.44-3-3.12-4.08-8.28-4.08-15.12V319.6h-9v-8h9V297.64Z"/><circle class="cls-2" cx="250" cy="70.4" r="28.86"/><rect class="cls-2" x="199.44" y="125.39" width="101.12" height="110.52" rx="12"/></svg>