<svg id="Layer_1" data-name="Layer 1" xmlns="http://www.w3.org/2000/svg" viewBox="0 0 500 400">
    <defs>
        <style>
            .cls-1,.cls-3{fill:none;}.cls-2,.cls-4{fill:#fff;}.cls-3,.cls-4{stroke:#fff;stroke-miterlimit:10;}.cls-3{stroke-width:20px;}.cls-4{stroke-width:7px;}
        </style>
    </defs>
    <title>Artboard 1</title>
    <rect class="cls-1" width="500" height="400"/>
    <path class="cls-2" d="M42.82,290.26H53.26v72.12H87.82v8.76h-45Z"/>
    <path class="cls-2"
          d="M110.86,296.74c.12,3.6-2.52,6.48-6.72,6.48a6.28,6.28,0,0,1-6.36-6.48,6.43,6.43,0,0,1,6.6-6.6A6.27,6.27,0,0,1,110.86,296.74ZM99.1,371.14V313.06h10.56v58.08Z"/>
    <path class="cls-2"
          d="M127.18,328.78c0-6-.12-10.92-.48-15.72h9.36l.6,9.6h.24c2.88-5.52,9.6-10.92,19.2-10.92,8,0,20.52,4.8,20.52,24.72v34.68H166.06V337.66c0-9.36-3.48-17.16-13.44-17.16a15,15,0,0,0-14.16,10.8,15.18,15.18,0,0,0-.72,4.92v34.92H127.18Z"/>
    <path class="cls-2"
          d="M204.22,339.7h.24c1.44-2,3.48-4.56,5.16-6.6l17-20h12.72l-22.44,23.88,25.56,34.2H229.66l-20-27.84-5.4,6v21.84H193.78v-85.2h10.44Z"/>
    <path class="cls-2"
          d="M255.94,344c.24,14.28,9.36,20.16,19.92,20.16,7.56,0,12.12-1.32,16.08-3l1.8,7.56c-3.72,1.68-10.08,3.6-19.32,3.6-17.88,0-28.56-11.76-28.56-29.28s10.32-31.32,27.24-31.32c19,0,24,16.68,24,27.36a39.83,39.83,0,0,1-.36,4.92Zm31-7.56c.12-6.72-2.76-17.16-14.64-17.16-10.68,0-15.36,9.84-16.2,17.16Z"/>
    <path class="cls-2"
          d="M360.34,285.94v70.2c0,5.16.12,11,.48,15h-9.48l-.48-10.08h-.24c-3.24,6.48-10.32,11.4-19.8,11.4-14,0-24.84-11.88-24.84-29.52-.12-19.32,11.88-31.2,26-31.2,8.88,0,14.88,4.2,17.52,8.88h.24V285.94ZM349.78,336.7a18.64,18.64,0,0,0-.48-4.44A15.53,15.53,0,0,0,334.06,320c-10.92,0-17.4,9.6-17.4,22.44,0,11.76,5.76,21.48,17.16,21.48,7.08,0,13.56-4.68,15.48-12.6a18.34,18.34,0,0,0,.48-4.56Z"/>
    <path class="cls-2" d="M388.66,290.26v80.88H378.22V290.26Z"/>
    <path class="cls-2"
          d="M407.74,328.78c0-6-.12-10.92-.48-15.72h9.36l.6,9.6h.24c2.88-5.52,9.6-10.92,19.2-10.92,8,0,20.52,4.8,20.52,24.72v34.68H446.62V337.66c0-9.36-3.48-17.16-13.44-17.16A15,15,0,0,0,419,331.3a15.18,15.18,0,0,0-.72,4.92v34.92H407.74Z"/>
    <rect class="cls-3" x="152.82" y="41.54" width="194.37" height="194.37" rx="12"/>
    <path class="cls-4"
          d="M211.59,89.29c.17,5.25-3.68,9.45-9.8,9.45a9.16,9.16,0,0,1-9.28-9.45,9.39,9.39,0,0,1,9.63-9.63C207.91,79.66,211.59,83.86,211.59,89.29Zm-17.15,108.5v-84.7h15.4v84.7Z"/>
    <path class="cls-4"
          d="M235.39,136c0-8.75-.18-15.92-.7-22.92h13.65l.87,14h.35c4.2-8,14-15.93,28-15.93,11.73,0,29.93,7,29.93,36.05v50.58h-15.4V149c0-13.65-5.08-25-19.6-25-10.15,0-18,7.17-20.65,15.75a22.11,22.11,0,0,0-1.05,7.17v50.93h-15.4Z"/>
</svg>