<svg id="Layer_1" data-name="Layer 1" xmlns="http://www.w3.org/2000/svg" viewBox="0 0 410.35 223.55"><defs><style>.cls-1{stroke:#000;}.cls-1,.cls-2{stroke-miterlimit:10;stroke-width:10px;}.cls-2{fill:#05f;stroke:#05f;}</style></defs><title>mobile_logo</title><path class="cls-1" d="M75.53,252.57H49.83V47.43h72.73q34.11,0,50.35,18.56t16.23,42.31q0,26.45-17.66,43.73t-46.21,17.28H75.53Zm0-104.6h47.18q18.18,0,29.31-10.89t11.12-28.78A41.8,41.8,0,0,0,153.22,81q-9.91-12-28.7-12h-49Z" transform="translate(-44.83 -38.23)"/><path class="cls-2" d="M263.83,47.43V190q0,37.31-16.83,52t-44.64,14.73a110.59,110.59,0,0,1-29.9-4.2v-21a128.83,128.83,0,0,0,26.75,3.15q17.13,0,25.24-5.11a25.13,25.13,0,0,0,10.9-13.24q2.78-8.12,2.78-26.32V47.43Z" transform="translate(-44.83 -38.23)"/><path class="cls-1" d="M290.58,198.31l23.14-5.25Q327.7,235,374.28,235q24.35,0,36.67-10.33T423.27,197q0-13.11-9.38-21.11a52.11,52.11,0,0,0-21.71-11l-41-10.12q-15.93-4.05-26.07-9.85t-17.21-17.84a53.36,53.36,0,0,1-7.07-27.54q0-25.73,19.39-41t49.74-15.27q55.9,0,73.49,50.64l-23.29,6.91q-4.06-18-19.09-27.27a60.1,60.1,0,0,0-32-9.24,52.27,52.27,0,0,0-30,8.9q-13.16,8.91-13.15,25.22,0,22.8,33.33,30.8l38.36,9q52.59,12.63,52.59,56.67,0,26.6-19.76,44.26t-55.68,17.66Q311,256.77,290.58,198.31Z" transform="translate(-44.83 -38.23)"/></svg>