<svg id="Layer_1" data-name="Layer 1" xmlns="http://www.w3.org/2000/svg" viewBox="0 0 2400 1600"><defs><style>.cls-1{fill:#3dabe2;}.cls-2{fill:#00549d;}.cls-2,.cls-3,.cls-4,.cls-5{fill-rule:evenodd;}.cls-3{fill:#0086d4;}.cls-4{fill:#fff;}.cls-5{fill:#0075c0;}</style></defs><title>Artboard 1</title><rect class="cls-1" width="2400" height="1600"/><g id="surface1"><path class="cls-2" d="M1173.86,306.77a53.87,53.87,0,0,1,52.27,0c79.81,44.83,320.24,179.79,400.13,224.62a50.57,50.57,0,0,1,26.14,44v449.24a50.57,50.57,0,0,1-26.14,44c-79.89,44.83-320.23,179.79-400.13,224.62a53.81,53.81,0,0,1-52.27,0c-79.89-44.83-320.23-179.79-400.13-224.62a50.58,50.58,0,0,1-26.13-44V575.38a50.58,50.58,0,0,1,26.13-44C853.54,486.56,1094.06,351.6,1173.86,306.77Z"/><path class="cls-3" d="M754.85,1047.69c-6.32-8.47-7.25-16.47-7.25-27.35V573.71a50.25,50.25,0,0,1,26-43.72c79.62-44.55,319.21-178.76,398.83-223.32,16.09-9,38-8.83,54,.19,79.61,44.55,318.37,177.56,398,222.11a49.93,49.93,0,0,1,15.72,13.76Z"/><path class="cls-4" d="M1200,466.65c184,0,333.35,149.38,333.35,333.35S1384,1133.35,1200,1133.35,866.65,984,866.65,800,1016,466.65,1200,466.65Zm0,166.68c92,0,166.67,74.68,166.67,166.67S1292,966.67,1200,966.67,1033.32,892,1033.32,800,1108,633.33,1200,633.33Z"/><path class="cls-5" d="M1640.12,542.92c12.28,11.53,12.09,28.83,12.09,42.51,0,90.4-.74,347.39.19,437.7a51.85,51.85,0,0,1-7.72,26.88L1190.33,800Z"/><path class="cls-4" d="M1366.67,728.57h47.62V871.43h-47.62Z"/><path class="cls-4" d="M1533.35,728.57H1581V871.43h-47.62Z"/><path class="cls-4" d="M1319.05,776.19h142.87v47.62H1319.05Z"/><path class="cls-4" d="M1485.73,776.19h142.86v47.62H1485.73Z"/></g></svg>