<svg id="Layer_1" data-name="Layer 1" xmlns="http://www.w3.org/2000/svg" viewBox="0 0 2400 1600"><defs><style>.cls-1{fill:#85b4d6;}.cls-2{fill:#3888e0;}</style></defs><title>Artboard 1</title><rect class="cls-1" width="2400" height="1600"/><path class="cls-2" d="M954.62,300,1013,358.37,940.13,561.62l203.67-72.41,57.5,57.57L945.65,802.45l-62.2-62.22L997.21,626.47,819.1,692.93l-10.21-10.22,67.32-179L761.59,618.36,699,555.73ZM757.76,590.67,897.51,450.91l38.7-101.05L726.58,559.49Zm272.69,2.56,64.78-64.76L932,587.68l-20,48.16Z"/><path class="cls-2" d="M1242.15,587.68l62.63,62.63L1049.2,906l-62.63-62.64ZM1045.37,878.37l91.19-91.19-31.11-31.11-91.21,91.1Z"/><path class="cls-2" d="M1345.76,691.31l107,107c52.39,52.42,44.31,121.86,1.26,164.91-47.71,47.71-117.6,46-164.91-1.29l-44.78-44.81-92,92-62.23-62.2ZM1148.47,981.57l231.82-232-30.64-30.68-231.84,231.8Zm188.28-79.42c16.19,16.19,40.06,10.21,55-4.69,14.06-14.06,18.32-35.37,1.7-52l-38.7-38.7-56.68,56.55Z"/><path class="cls-2" d="M1446.4,1153.13a37.68,37.68,0,0,0-.4,53.25c15.76,15.76,34.5,16.62,47.71,3.4,19.17-19.16-.43-49.84-14.07-78-27.69-58.38-31.52-102.28,12.37-146.21,45.15-45.15,121.43-43.88,169.59,4.3,56.66,56.68,47.31,119.74,3.4,170.46l-58.8-58.8c14.49-14.49,17.48-35.37,0-52.85-13.63-13.63-34.94-18.75-51.6-2.15-19.18,19.18.86,46,16.19,74.13,32,59.24,27.69,106.11-12.35,146.21-45.15,45.15-121,44.31-169.16-3.83-55.9-55.9-49.86-124.85-3.85-170.87Zm-45.15,98,32.81-32.81c-21.3-22.17-22.59-48.17-12.36-66L1388.35,1119C1357.26,1151.84,1360.68,1210.64,1401.25,1251.13Zm260.35-118c22.58-27.7,38.34-80.95-11.5-130.81l-33.24,33.24c26.4,26.4,19.59,51.13,12.77,65.62Z"/></svg>