<?xml version="1.0" encoding="UTF-8" standalone="no"?>
<!DOCTYPE svg PUBLIC "-//W3C//DTD SVG 1.1//EN" "http://www.w3.org/Graphics/SVG/1.1/DTD/svg11.dtd">
<svg width="100%" height="100%" viewBox="0 0 2400 1800" version="1.1" xmlns="http://www.w3.org/2000/svg" xmlns:xlink="http://www.w3.org/1999/xlink" xml:space="preserve" xmlns:serif="http://www.serif.com/" style="fill-rule:evenodd;clip-rule:evenodd;stroke-miterlimit:10;">
    <rect x="0" y="0" width="2400" height="1800" style="fill:url(#_Linear1);"/>
    <path d="M1200,405.56L485.9,405.56L1200,900L485.9,900L1200,405.56Z" style="fill:none;fill-rule:nonzero;stroke:rgb(134,180,209);stroke-width:30px;"/>
    <path d="M1200,900L485.9,1394.44L1200,1394.44" style="fill:none;fill-rule:nonzero;stroke:rgb(134,180,209);stroke-width:30px;"/>
    <path d="M485.9,900L1200,1394.44L485.9,405.56" style="fill:none;fill-rule:nonzero;stroke:rgb(134,180,209);stroke-width:30px;"/>
    <path d="M1200,405.56L485.9,1394.44" style="fill:none;fill-rule:nonzero;stroke:rgb(134,180,209);stroke-width:30px;"/>
    <path d="M1908.76,1147.22L1200,405.56L1908.76,652.78L1200,900L1908.76,1147.22Z" style="fill:none;fill-rule:nonzero;stroke:rgb(134,180,209);stroke-width:30px;"/>
    <path d="M1908.76,652.78L1200,1394.44L1908.76,1147.22" style="fill:none;fill-rule:nonzero;stroke:rgb(134,180,209);stroke-width:30px;"/>
    <circle cx="485.9" cy="405.56" r="174.89" style="fill:white;"/>
    <circle cx="485.9" cy="900" r="174.89" style="fill:white;"/>
    <circle cx="485.9" cy="1394.44" r="174.89" style="fill:white;"/>
    <circle cx="1200" cy="405.56" r="174.89" style="fill:white;"/>
    <circle cx="1200" cy="900" r="174.89" style="fill:white;"/>
    <circle cx="1200" cy="1394.44" r="174.89" style="fill:white;"/>
    <circle cx="1908.76" cy="652.78" r="174.89" style="fill:white;"/>
    <circle cx="1908.76" cy="1147.22" r="174.89" style="fill:white;"/>
    <defs>
        <linearGradient id="_Linear1" x1="0" y1="0" x2="1" y2="0" gradientUnits="userSpaceOnUse" gradientTransform="matrix(2100,2100,-2100,2100,150,-150)"><stop offset="0" style="stop-color:rgb(19,108,172);stop-opacity:1"/><stop offset="1" style="stop-color:rgb(147,0,211);stop-opacity:1"/></linearGradient>
    </defs>
</svg>
