<svg id="Layer_1" data-name="Layer 1" xmlns="http://www.w3.org/2000/svg" xmlns:xlink="http://www.w3.org/1999/xlink" viewBox="0 0 2400 1800"><defs><style>.cls-1{fill:url(#linear-gradient);}.cls-2{fill:none;stroke:#d3e8c3;}.cls-2,.cls-4{stroke-miterlimit:10;stroke-width:30px;}.cls-3{fill:#d3e8c3;}.cls-4,.cls-6{fill:#fff;}.cls-4{stroke:#1d4c25;}.cls-5{fill:#231f20;}</style><linearGradient id="linear-gradient" x1="150" y1="-150" x2="2250" y2="1950" gradientUnits="userSpaceOnUse"><stop offset="0" stop-color="#a4d071"/><stop offset="1" stop-color="#219546"/></linearGradient></defs><rect class="cls-1" width="2400" height="1800"/><line class="cls-2" x1="289.51" y1="900.08" x2="120.48" y2="900.08"/><polygon class="cls-3" points="272 840.24 375.63 900.08 272 959.91 272 840.24"/><path class="cls-2" d="M1466.46,720.83c-57.25-34.88-142-72.39-248.74-77.37-196.88-9.19-332.6,98.71-366.93,127.77"/><polygon class="cls-3" points="1485.9 662.7 1536.29 771.23 1417.1 760.62 1485.9 662.7"/><circle class="cls-4" cx="649.62" cy="900.08" r="247.26"/><path class="cls-5" d="M517,943A43.83,43.83,0,0,1,495,937.55a39.23,39.23,0,0,1-15.08-15.16,44.27,44.27,0,0,1-5.47-22.16A46.36,46.36,0,0,1,479.56,878a38.54,38.54,0,0,1,35.17-20.7,38.37,38.37,0,0,1,20.39,5.31,35.9,35.9,0,0,1,13.46,14.7,46.57,46.57,0,0,1,4.78,21.39,5.2,5.2,0,0,1-1.54,3.93,5.6,5.6,0,0,1-4,1.46H482.41v-9.85h66.64L542.43,899a35.35,35.35,0,0,0-3.23-16,26.47,26.47,0,0,0-9.62-11.08,27,27,0,0,0-14.85-4,28.32,28.32,0,0,0-15.39,4.16,27.71,27.71,0,0,0-10.24,11.46,37.21,37.21,0,0,0-3.62,16.7,33.23,33.23,0,0,0,4.08,16.62,30.07,30.07,0,0,0,11.16,11.39A31.63,31.63,0,0,0,517,932.4a34,34,0,0,0,11.16-1.93,26.85,26.85,0,0,0,9-4.85,6.27,6.27,0,0,1,3.84-1.46,5.44,5.44,0,0,1,3.7,1.16,5.74,5.74,0,0,1,2.08,4,4.43,4.43,0,0,1-1.77,3.69,41.83,41.83,0,0,1-12.93,7.16A44.15,44.15,0,0,1,517,943Z"/><path class="cls-5" d="M599.07,942.25c-2.47,0-4.31-1.34-5.54-4l-34.17-72.48a4.9,4.9,0,0,1-.15-4,5.61,5.61,0,0,1,3.07-3.08,5,5,0,0,1,4.16-.31,5.81,5.81,0,0,1,3.08,2.77l32.78,71H596l32.32-71a4.81,4.81,0,0,1,3.15-2.85,6.21,6.21,0,0,1,4.39.23,5.67,5.67,0,0,1,2.92,3.16,4.73,4.73,0,0,1-.15,3.92l-33.71,72.64Q603.06,942.24,599.07,942.25Z"/><path class="cls-5" d="M690.48,943a43.83,43.83,0,0,1-22.08-5.46,39.23,39.23,0,0,1-15.08-15.16,44.27,44.27,0,0,1-5.47-22.16A46.36,46.36,0,0,1,653,878a38.54,38.54,0,0,1,35.17-20.7,38.37,38.37,0,0,1,20.39,5.31A35.9,35.9,0,0,1,722,877.3a46.57,46.57,0,0,1,4.78,21.39,5.2,5.2,0,0,1-1.54,3.93,5.6,5.6,0,0,1-4,1.46H655.86v-9.85H722.5L715.88,899a35.35,35.35,0,0,0-3.23-16A26.47,26.47,0,0,0,703,871.91a27,27,0,0,0-14.85-4,28.32,28.32,0,0,0-15.39,4.16,27.71,27.71,0,0,0-10.24,11.46,37.21,37.21,0,0,0-3.62,16.7A33.23,33.23,0,0,0,663,916.85a30.07,30.07,0,0,0,11.16,11.39,31.63,31.63,0,0,0,16.31,4.16,34,34,0,0,0,11.16-1.93,26.85,26.85,0,0,0,9-4.85,6.27,6.27,0,0,1,3.84-1.46,5.44,5.44,0,0,1,3.7,1.16,5.69,5.69,0,0,1,2.07,4,4.37,4.37,0,0,1-1.77,3.69,41.66,41.66,0,0,1-12.92,7.16A44.15,44.15,0,0,1,690.48,943Z"/><path class="cls-5" d="M752.81,942.25a5.92,5.92,0,0,1-4.38-1.62,5.72,5.72,0,0,1-1.62-4.23V864.06a5.59,5.59,0,0,1,6-6,5.73,5.73,0,0,1,4.24,1.62,5.94,5.94,0,0,1,1.61,4.38V936.4a5.54,5.54,0,0,1-5.85,5.85Zm66.18,0a5.85,5.85,0,0,1-4.31-1.7A5.63,5.63,0,0,1,813,936.4v-40q0-9.54-3.62-15.69a23,23,0,0,0-9.85-9.24,31.39,31.39,0,0,0-14.08-3.08,31,31,0,0,0-13.62,2.93,24.25,24.25,0,0,0-9.62,8,19.7,19.7,0,0,0-3.54,11.54H750.2a33.18,33.18,0,0,1,5.23-17.31,35.09,35.09,0,0,1,13.08-12,37.77,37.77,0,0,1,18.16-4.38,41.27,41.27,0,0,1,19.55,4.54A33.41,33.41,0,0,1,819.84,875q5,8.78,5,21.39v40a5.79,5.79,0,0,1-5.85,5.85Z"/><path class="cls-2" d="M954.33,1078.4c57.25,34.88,142,72.39,248.74,77.37C1400,1165,1535.67,1057.06,1570,1028"/><polygon class="cls-3" points="934.89 1136.53 884.5 1028 1003.69 1038.61 934.89 1136.53"/><circle class="cls-6" cx="1756.59" cy="900" r="247.26"/><path class="cls-5" d="M1648.32,961.11a44.23,44.23,0,0,1-22.37-5.64A40.86,40.86,0,0,1,1610.46,940a47.57,47.57,0,0,1,0-44.9A40.86,40.86,0,0,1,1626,879.59a47.12,47.12,0,0,1,44.67,0A41.07,41.07,0,0,1,1686,895.08a45.77,45.77,0,0,1,5.79,22.53,43.87,43.87,0,0,1-5.71,22.37,41.64,41.64,0,0,1-15.49,15.49A43.82,43.82,0,0,1,1648.32,961.11Zm0-11a31.47,31.47,0,0,0,16.27-4.22,30.07,30.07,0,0,0,11.27-11.58,34,34,0,0,0,4.07-16.74,34.46,34.46,0,0,0-4.07-16.82,29.94,29.94,0,0,0-11.27-11.66,33.47,33.47,0,0,0-32.54,0,30.47,30.47,0,0,0-11.34,11.66,33.85,33.85,0,0,0-4.15,16.82,33.42,33.42,0,0,0,4.15,16.74,30.61,30.61,0,0,0,11.34,11.58A31.5,31.5,0,0,0,1648.32,950.15Z"/><path class="cls-5" d="M1754.25,961.11a43.46,43.46,0,0,1-22.22-5.72,42,42,0,0,1-15.57-15.56,43.81,43.81,0,0,1-5.71-22.38,44.52,44.52,0,0,1,5.55-22.22,41.62,41.62,0,0,1,15.1-15.56A41.2,41.2,0,0,1,1753,874a40,40,0,0,1,18.94,4.45,38.07,38.07,0,0,1,13.61,11.82v-46a5.85,5.85,0,0,1,1.72-4.46,6.67,6.67,0,0,1,8.76,0,5.85,5.85,0,0,1,1.72,4.46v73.85a45.24,45.24,0,0,1-6,22,41.79,41.79,0,0,1-15.49,15.41A43.2,43.2,0,0,1,1754.25,961.11Zm0-11a30.69,30.69,0,0,0,16.19-4.3,31.36,31.36,0,0,0,11.26-11.66,35.68,35.68,0,0,0,0-33.4,30.7,30.7,0,0,0-11.26-11.66,31.67,31.67,0,0,0-43.73,11.66,35.08,35.08,0,0,0,0,33.4,31.7,31.7,0,0,0,11.42,11.66A30.79,30.79,0,0,0,1754.25,950.15Z"/><path class="cls-5" d="M1864.86,961.11a43.51,43.51,0,0,1-22.22-5.72,41.94,41.94,0,0,1-15.56-15.56,43.81,43.81,0,0,1-5.71-22.38,44.52,44.52,0,0,1,5.55-22.22,41.62,41.62,0,0,1,15.1-15.56,41.2,41.2,0,0,1,21.59-5.71,39.94,39.94,0,0,1,18.93,4.45,38,38,0,0,1,13.61,11.82v-46a5.86,5.86,0,0,1,1.73-4.46,6.67,6.67,0,0,1,8.76,0,5.89,5.89,0,0,1,1.72,4.46v73.85a45.14,45.14,0,0,1-6,22,41.77,41.77,0,0,1-15.48,15.41A43.24,43.24,0,0,1,1864.86,961.11Zm0-11a30.7,30.7,0,0,0,16.2-4.3,31.36,31.36,0,0,0,11.26-11.66,35.68,35.68,0,0,0,0-33.4,30.7,30.7,0,0,0-11.26-11.66,31.69,31.69,0,0,0-43.74,11.66,35.15,35.15,0,0,0,0,33.4,31.8,31.8,0,0,0,11.43,11.66A30.76,30.76,0,0,0,1864.86,950.15Z"/><path class="cls-6" d="M1441.46,477.33a11.41,11.41,0,0,0-8.67-3.7,11.59,11.59,0,0,0-3,.45,21.43,21.43,0,0,0-2.42.8l-29.9,10.29a11,11,0,0,0-6.21,5,13.21,13.21,0,0,0-1.63,6.45,11.66,11.66,0,0,0,3.45,8.42,11.9,11.9,0,0,0,8.63,3.47,13.91,13.91,0,0,0,5.56-1.29l13.27-4.65v120a11.75,11.75,0,0,0,3.62,8.69,12,12,0,0,0,20.55-8.69V485.71A12.25,12.25,0,0,0,1441.46,477.33Z"/><path class="cls-6" d="M1008.65,1169.23h0A11.58,11.58,0,0,0,997,1166c-.83.23-1.64.5-2.42.8l-29.9,10.29a11,11,0,0,0-6.22,5,13.19,13.19,0,0,0-1.62,6.44,11.64,11.64,0,0,0,3.45,8.43,11.91,11.91,0,0,0,8.63,3.46,13.7,13.7,0,0,0,5.55-1.29l13.28-4.64v120a11.73,11.73,0,0,0,3.62,8.7,12,12,0,0,0,20.54-8.7V1177.61A12.22,12.22,0,0,0,1008.65,1169.23Z"/></svg>