<svg id="Layer_1" data-name="Layer 1" xmlns="http://www.w3.org/2000/svg" viewBox="0 0 4000 1000"><defs><style>.cls-1{fill:#fff;}</style></defs><title>Artboard 1</title><polygon class="cls-1" points="404.25 720.28 351.3 906.76 743.63 696.84 796.58 510.35 404.25 720.28"/><polygon class="cls-1" points="146.75 549.34 335.61 902.3 388.55 715.82 182.63 330.96 146.75 549.34"/><path class="cls-1" d="M395.38,302.3a40.08,40.08,0,0,0-54.18-16.41L260.71,329l37.77,70.6L379,356.49A40.07,40.07,0,0,0,395.38,302.3Z"/><circle class="cls-1" cx="536.14" cy="256.42" r="65.66" transform="translate(-24.29 454.22) rotate(-45)"/><path class="cls-1" d="M588.18,93.23,185.33,308.79,397.69,705.67,800.54,490.11ZM493.59,176.9a89.34,89.34,0,0,1,71.27-6l-13.37-25,21.63-11.57,85.1,159L636.59,305l-13.37-25a89.38,89.38,0,0,1-44.52,56,90.2,90.2,0,0,1-85.11-159Zm-266.08,142,3.17-1.71,98.95-52.94a64.57,64.57,0,0,1,60.92,113.86l-80.5,43.07,24.19,45.2L312.61,478Zm311,237.82A90.19,90.19,0,0,1,369.81,585.6l-42.55-79.53,21.63-11.57L391.44,574a65.66,65.66,0,0,0,115.79-61.95l-42.55-79.53L486.31,421l42.55,79.52A89.37,89.37,0,0,1,538.49,556.73Zm60.89,8.12-.09,0-85.06-159,20.18-10.79,74.4,139.05,138.88-74.31,10.79,20.17-159,85.06Z"/><path class="cls-1" d="M1133.46,314.49a97.46,97.46,0,0,1,51.5,14.25,106.51,106.51,0,0,1,37.5,38.5q14,24.25,14,54.75,0,30-14,54.75A107.26,107.26,0,0,1,1185,516a96.17,96.17,0,0,1-51.5,14.5H1045v134H991v-350Zm-1,164a41.53,41.53,0,0,0,24.5-7.75,57.45,57.45,0,0,0,17.75-20.5,59.41,59.41,0,0,0,6.75-28.25q0-23.49-14.5-39.5t-34.5-16H1045v112Z"/><path class="cls-1" d="M1534.46,402v262.5h-52V624q-12,16.5-35.5,31t-54.5,14.5a109.17,109.17,0,0,1-60.25-17.5Q1305,634.5,1289,603.49t-16-71q0-40,16.5-70.75t45.5-48q29-17.25,66-17.25,27.49,0,48.25,12t33.25,28V402Zm-130,220q24,0,42-11.75a79.25,79.25,0,0,0,28-32q10-20.25,10-45.75,0-25-10-45a79.72,79.72,0,0,0-28-31.75q-18-11.75-42-11.75-23,0-41,11.5a77.83,77.83,0,0,0-28,31.5q-10,20-10,45.5t10,45.75a79.18,79.18,0,0,0,28,32Q1381.46,622,1404.46,622Z"/><path class="cls-1" d="M1780.46,560V402H1832v262.5h-51.5v-42Q1769,641,1746.71,655.24t-53.25,14.25q-41,0-66.5-28t-25.5-77.5V402H1653V550a106.32,106.32,0,0,0,6.25,37,58,58,0,0,0,20,27.25q13.74,10.26,35.25,10.25,27,0,46.5-17T1780.46,560Z"/><path class="cls-1" d="M1904,664.49v-370h51.5v370Z"/><path class="cls-1" d="M2261,669.49q-24,0-42-7.5t-30.5-18.5a135.17,135.17,0,0,1-20-21.25A124,124,0,0,1,2158,606l34-35.5q8.49,11.5,17.5,22.25a73.93,73.93,0,0,0,21.25,17.5Q2243,617,2261,617q28,0,44-18.75T2321,553V364.49h-64v-50h172v50h-54V558a115.66,115.66,0,0,1-13.25,54q-13.26,25.5-38.75,41.5T2261,669.49Z"/><path class="cls-1" d="M2656,559q20.51,29.5,42.75,45.75T2756.45,621a96.38,96.38,0,0,0,32.5-5.5q15.5-5.49,25.5-16a35,35,0,0,0,10-25q0-25-21.25-39T2743.45,514q-49-10-78-34.75t-29-71.75q0-30,16.75-52t44.25-34a147.13,147.13,0,0,1,59.5-12q41.51,0,71.5,16a116.55,116.55,0,0,1,47,45.5l-38,37.5a115.35,115.35,0,0,0-34-36.5q-20.5-14-48-14t-46.25,12.75q-18.75,12.75-18.75,35.25,0,25.5,19.75,37.25T2762.45,462a245.54,245.54,0,0,1,56,18.5Q2845,493,2861.7,512.74t16.75,47.75q0,50-34,79.5t-93.5,29.5q-40.5,0-73.75-16t-58.25-52Z"/><path class="cls-1" d="M2975,533q0,26,11.75,46.25a89.12,89.12,0,0,0,31,32A77.74,77.74,0,0,0,3059,623q25,0,43.5-13t30-27l28.5,35q-9.51,13.5-26,25.25a146.46,146.46,0,0,1-37.5,19,134,134,0,0,1-44,7.25q-36,0-65-18a128.15,128.15,0,0,1-45.75-49q-16.75-31-16.75-69.5,0-39,16.75-69.75a128.66,128.66,0,0,1,45.75-48.75q29-18,65-18,36.5,0,65,14.75t42.5,38.25l-28.5,35q-11.5-17-32.75-29.25T3058.45,443a79.18,79.18,0,0,0-42.5,11.75,84,84,0,0,0-30,32Q2974.94,507,2975,533Z"/><path class="cls-1" d="M3460.94,533q0,40-17.75,70.75a129.39,129.39,0,0,1-48,48.25q-30.26,17.5-67.75,17.5t-68-17.5a128.88,128.88,0,0,1-48.25-48.25Q3193.45,573,3193.44,533t17.75-70.75A129,129,0,0,1,3259.44,414q30.49-17.49,68-17.5t67.75,17.5a129.46,129.46,0,0,1,48,48.25Q3460.94,493,3460.94,533Zm-52.5,0q.49-26.49-10.25-46.75a79.78,79.78,0,0,0-29.25-31.5q-18.49-11.25-41.5-11.25a78.85,78.85,0,0,0-71.25,42.75q-10.76,20.25-10.25,46.75-.49,26,10.25,46.25a80.92,80.92,0,0,0,29.5,31.75,78.25,78.25,0,0,0,41.75,11.5,77,77,0,0,0,41.5-11.5,81.57,81.57,0,0,0,29.25-31.75Q3408.95,559,3408.44,533Z"/><path class="cls-1" d="M3600.94,664.49h-51.5V452h-54.5V402h54.5V335h51.5v67h61v50h-61Z"/><path class="cls-1" d="M3792.93,664.49h-51.5V452h-54.5V402h54.5V335h51.5v67h61v50h-61Z"/></svg>