<svg id="Layer_1" data-name="Layer 1" xmlns="http://www.w3.org/2000/svg" viewBox="0 0 500 500"><defs><style>.cls-1{fill:#0b5bb2;}</style></defs><title>Artboard 1</title><path class="cls-1" d="M136.27,17l27.15,27.15-33.89,94.53L224.26,105,251,131.78,132.1,250.69l-28.93-28.94,52.91-52.91L73.24,199.75,68.49,195,99.8,111.76,46.49,165.07,17.36,135.94ZM44.71,152.19l65-65,18-47-97.5,97.5Zm126.83,1.19,30.13-30.12L125.76,150.8l-9.31,22.4Z"/><path class="cls-1" d="M270,150.8l29.13,29.13L180.26,298.84l-29.13-29.13ZM178.48,286l42.41-42.41-14.47-14.47L164,271.49Z"/><path class="cls-1" d="M318.19,199l49.75,49.74c24.37,24.38,20.61,56.68.59,76.7-22.19,22.19-54.7,21.4-76.7-.6L271,304,228.22,346.8l-28.94-28.93Zm-91.76,135L334.25,226.11,320,211.84,212.17,319.65ZM314,297.06c7.53,7.53,18.63,4.75,25.57-2.18,6.54-6.54,8.52-16.45.79-24.18l-18-18L296,279Z"/><path class="cls-1" d="M365,413.79a17.53,17.53,0,0,0-.19,24.77c7.33,7.33,16.05,7.73,22.19,1.58,8.92-8.91-.2-23.18-6.54-36.26-12.88-27.15-14.66-47.57,5.75-68,21-21,56.48-20.41,78.88,2,26.35,26.36,22,55.69,1.58,79.28l-27.35-27.35c6.74-6.74,8.13-16.45,0-24.58-6.34-6.34-16.25-8.72-24-1-8.92,8.92.4,21.4,7.53,34.48,14.87,27.55,12.88,49.35-5.74,68-21,21-56.29,20.61-78.68-1.78-26-26-23.19-58.07-1.79-79.47Zm-21,45.58,15.26-15.26c-9.91-10.31-10.51-22.4-5.75-30.72L338,397.93C323.54,413.19,325.13,440.54,344,459.37Zm121.09-54.9c10.5-12.88,17.83-37.65-5.35-60.84l-15.46,15.46c12.28,12.28,9.11,23.78,5.94,30.52Z"/></svg>