<svg xmlns="http://www.w3.org/2000/svg" xml:space="preserve"
  style="fill-rule:evenodd;clip-rule:evenodd;stroke-linejoin:round;stroke-miterlimit:2" viewBox="0 0 2526 1024">
  <path
    d="M640 1024h320.002c35.322 0 63.998-28.677 63.998-64V64c0-35.323-28.676-64-63.998-64H128v1024h128V0h64v1024h256V0h64zM64 0h.002zC28.679 0 .002 28.677.002 64v896c0 35.323 28.677 64 63.998 64h.002H64z"
    style="fill:#000" />
  <path
    d="M1055.62 246.547c4.87 0 8.61.925 11.23 2.775 2.61 1.85 3.92 4.609 3.92 8.275q0 3-1.08 5.125c-.71 1.417-1.75 2.567-3.09 3.45-1.35.884-3 1.525-4.93 1.925s-4.12.6-6.55.6h-3.85v12.85h-4.85v-34.15c1.37-.333 2.89-.558 4.58-.675q2.52-.175 4.62-.175m.4 4.25c-2.07 0-3.65.05-4.75.15v13.6h3.65q2.505 0 4.5-.325c1.33-.216 2.46-.583 3.38-1.1a5.45 5.45 0 0 0 2.12-2.125q.75-1.35.75-3.45 0-2-.78-3.3a5.8 5.8 0 0 0-2.09-2.075c-.89-.516-1.91-.875-3.08-1.075s-2.4-.3-3.7-.3m28.35 27.4c1.1 0 2.07-.025 2.93-.075.84-.05 1.55-.141 2.12-.275v-7.75q-.495-.25-1.62-.425t-2.73-.175q-1.05 0-2.22.15c-.79.1-1.5.309-2.16.625a4.65 4.65 0 0 0-1.62 1.3c-.43.55-.65 1.275-.65 2.175 0 1.667.53 2.825 1.6 3.475q1.605.975 4.35.975m-.4-23.3c1.87 0 3.44.242 4.72.725 1.29.484 2.32 1.167 3.11 2.05.78.884 1.34 1.934 1.67 3.15.33 1.217.5 2.559.5 4.025v16.25c-.4.067-.96.159-1.67.275q-1.08.175-2.43.325c-.9.1-1.87.192-2.93.275q-1.575.125-3.12.125-2.205 0-4.05-.45c-1.23-.3-2.3-.775-3.2-1.425q-1.35-.975-2.1-2.575t-.75-3.85c0-1.433.29-2.666.88-3.7a6.94 6.94 0 0 1 2.37-2.5c1-.633 2.17-1.1 3.5-1.4q1.995-.45 4.2-.45c.47 0 .95.025 1.45.075s.98.117 1.43.2q.675.126 1.17.225c.33.067.57.117.7.15v-1.3c0-.766-.08-1.525-.25-2.275a5.3 5.3 0 0 0-.9-2q-.645-.875-1.77-1.4c-.75-.35-1.73-.525-2.93-.525-1.53 0-2.88.109-4.02.325-1.16.217-2.01.442-2.58.675l-.55-3.85q.9-.4 3-.775c1.4-.25 2.92-.375 4.55-.375m38.4 25.9q-1.605.4-4.23.85c-1.75.3-3.77.45-6.07.45-2 0-3.68-.291-5.05-.875q-2.055-.875-3.3-2.475t-1.8-3.775c-.37-1.45-.55-3.058-.55-4.825v-14.6h4.65v13.6q0 4.75 1.5 6.8c1 1.367 2.68 2.05 5.05 2.05.5 0 1.02-.016 1.55-.05q.795-.05 1.5-.125c.47-.05.89-.1 1.27-.15.39-.05.66-.108.83-.175v-21.95h4.65zm15.8 1.25c-2.87-.066-4.9-.683-6.1-1.85q-1.8-1.75-1.8-5.45v-31.2l4.65-.8v31.25c0 .767.07 1.4.2 1.9s.35.9.65 1.2q.45.45 1.2.675c.5.15 1.12.275 1.85.375zm-83.7 47.45c5.07 0 7.6-1.733 7.6-5.2 0-1.066-.22-1.975-.68-2.725a6.5 6.5 0 0 0-1.82-1.95c-.77-.55-1.64-1.025-2.63-1.425q-1.47-.6-3.12-1.2a31 31 0 0 1-3.6-1.475c-1.13-.55-2.12-1.2-2.95-1.95a8.3 8.3 0 0 1-1.97-2.675c-.49-1.033-.73-2.283-.73-3.75 0-3.033 1.03-5.4 3.1-7.1q3.105-2.55 8.55-2.55c2.1 0 4.01.225 5.72.675q2.58.675 3.78 1.475l-1.55 3.95q-1.05-.65-3.12-1.275-2.085-.625-4.83-.625c-.93 0-1.8.1-2.6.3q-1.2.3-2.1.9c-.6.4-1.08.909-1.42 1.525-.35.617-.53 1.342-.53 2.175 0 .934.18 1.717.55 2.35.37.634.88 1.192 1.55 1.675s1.44.925 2.33 1.325c.88.4 1.85.8 2.92 1.2 1.5.6 2.88 1.2 4.13 1.8s2.33 1.317 3.25 2.15a8.7 8.7 0 0 1 2.12 2.975q.75 1.725.75 4.175c0 3.034-1.11 5.367-3.32 7-2.22 1.634-5.35 2.45-9.38 2.45-1.37 0-2.62-.091-3.78-.275-1.14-.183-2.17-.4-3.07-.65s-1.68-.516-2.32-.8c-.66-.283-1.16-.525-1.53-.725l1.45-4c.77.434 1.93.917 3.5 1.45 1.57.534 3.48.8 5.75.8m29.55 4.05q-3.15 0-5.52-1c-1.59-.666-2.92-1.6-4-2.8q-1.635-1.8-2.43-4.275c-.53-1.65-.8-3.475-.8-5.475q0-3 .87-5.5c.59-1.666 1.41-3.108 2.48-4.325q1.605-1.824 3.93-2.85c1.55-.683 3.27-1.025 5.17-1.025 1.17 0 2.33.1 3.5.3s2.28.517 3.35.95l-1.05 3.95c-.7-.333-1.51-.6-2.42-.8-.92-.2-1.9-.3-2.93-.3-2.6 0-4.59.817-5.98 2.45q-2.07 2.45-2.07 7.15 0 2.1.48 3.85.465 1.75 1.5 3c.68.834 1.55 1.475 2.62 1.925q1.605.675 3.9.675c1.23 0 2.35-.116 3.35-.35s1.78-.483 2.35-.75l.65 3.9c-.27.167-.65.325-1.15.475s-1.07.284-1.7.4-1.31.217-2.02.3c-.72.084-1.41.125-2.08.125m34.25-13.6q0 3.1-.9 5.6t-2.52 4.3a11.2 11.2 0 0 1-3.88 2.775c-1.5.65-3.13.975-4.9.975s-3.4-.325-4.9-.975q-2.25-.975-3.87-2.775c-1.09-1.2-1.93-2.633-2.53-4.3q-.9-2.5-.9-5.6 0-3.05.9-5.575c.6-1.683 1.44-3.125 2.53-4.325q1.62-1.8 3.87-2.775c1.5-.65 3.13-.975 4.9-.975s3.4.325 4.9.975 2.79 1.575 3.88 2.775q1.62 1.8 2.52 4.325t.9 5.575m-4.85 0q0-4.4-1.98-6.975-1.965-2.574-5.37-2.575c-2.27 0-4.06.859-5.38 2.575-1.31 1.717-1.97 4.042-1.97 6.975 0 2.934.66 5.259 1.97 6.975 1.32 1.717 3.11 2.575 5.38 2.575q3.405 0 5.37-2.575 1.98-2.574 1.98-6.975m15.75-13h9.85v3.9h-9.85v12q0 1.95.3 3.225t.9 2q.6.726 1.5 1.025.9.3 2.1.3c1.4 0 2.53-.158 3.38-.475.84-.316 1.44-.541 1.77-.675l.9 3.85c-.47.234-1.28.525-2.45.875s-2.5.525-4 .525c-1.77 0-3.22-.225-4.38-.675-1.14-.45-2.07-1.125-2.77-2.025s-1.19-2.008-1.48-3.325q-.42-1.974-.42-4.575v-23.2l4.65-.8zm20.1 0h9.85v3.9h-9.85v12q0 1.95.3 3.225t.9 2q.6.726 1.5 1.025.9.3 2.1.3c1.4 0 2.53-.158 3.37-.475.86-.316 1.45-.541 1.78-.675l.9 3.85c-.47.234-1.28.525-2.45.875s-2.5.525-4 .525c-1.77 0-3.23-.225-4.37-.675-1.16-.45-2.08-1.125-2.78-2.025q-1.05-1.35-1.47-3.325c-.29-1.316-.43-2.841-.43-4.575v-23.2l4.65-.8z"
    style="fill:#000;fill-rule:nonzero" transform="translate(-10535.7 -2733.07)scale(11.2589)" />
</svg>