<?xml version="1.0" encoding="UTF-8" standalone="no"?>
<!DOCTYPE svg PUBLIC "-//W3C//DTD SVG 1.1//EN" "http://www.w3.org/Graphics/SVG/1.1/DTD/svg11.dtd">
<svg width="100%" height="100%" viewBox="0 0 1280 768" version="1.1" xmlns="http://www.w3.org/2000/svg" xmlns:xlink="http://www.w3.org/1999/xlink" xml:space="preserve" xmlns:serif="http://www.serif.com/" style="fill-rule:evenodd;clip-rule:evenodd;stroke-linejoin:round;stroke-miterlimit:2;">
    <path d="M1280,76.8C1280,34.413 1245.59,-0 1203.2,-0L76.8,-0C34.413,-0 0,34.413 0,76.8L0,691.2C0,733.587 34.413,768 76.8,768L1203.2,768C1245.59,768 1280,733.587 1280,691.2L1280,76.8ZM83.82,643.566C107.001,643.566 125.82,662.386 125.82,685.566C125.82,708.747 107.001,727.566 83.82,727.566C60.64,727.566 41.82,708.747 41.82,685.566C41.82,662.386 60.64,643.566 83.82,643.566ZM1196.18,643.566C1219.36,643.566 1238.18,662.386 1238.18,685.566C1238.18,708.747 1219.36,727.566 1196.18,727.566C1173,727.566 1154.18,708.747 1154.18,685.566C1154.18,662.386 1173,643.566 1196.18,643.566ZM323.713,658.981C357.468,658.981 374.346,647.433 374.346,624.338C374.346,617.232 372.847,611.18 369.849,606.184C366.851,601.187 362.798,596.856 357.69,593.192C352.583,589.528 346.753,586.364 340.202,583.699C333.651,581.034 326.711,578.369 319.383,575.704C310.944,572.817 302.949,569.542 295.399,565.877C287.849,562.213 281.297,557.883 275.746,552.886C270.194,547.889 265.808,541.949 262.588,535.065C259.368,528.181 257.758,519.853 257.758,510.082C257.758,489.873 264.642,474.106 278.41,462.78C292.179,451.455 311.166,445.792 335.372,445.792C349.363,445.792 362.076,447.291 373.513,450.289C384.95,453.287 393.333,456.562 398.663,460.115L388.336,486.431C383.673,483.544 376.733,480.713 367.517,477.937C358.301,475.161 347.586,473.773 335.372,473.773C329.154,473.773 323.38,474.439 318.05,475.771C312.721,477.104 308.057,479.103 304.06,481.767C300.063,484.432 296.898,487.819 294.566,491.927C292.234,496.036 291.069,500.866 291.069,506.417C291.069,512.635 292.29,517.854 294.733,522.074C297.176,526.293 300.618,530.013 305.059,533.233C309.501,536.453 314.664,539.395 320.549,542.06C326.434,544.725 332.929,547.39 340.036,550.055C350.029,554.052 359.189,558.049 367.517,562.047C375.845,566.044 383.062,570.818 389.169,576.37C395.276,581.922 399.995,588.529 403.326,596.19C406.657,603.852 408.323,613.123 408.323,624.005C408.323,644.213 400.939,659.759 386.171,670.64C371.403,681.522 350.584,686.962 323.713,686.962C314.608,686.962 306.225,686.352 298.564,685.13C290.902,683.909 284.073,682.465 278.077,680.8C272.081,679.134 266.918,677.358 262.588,675.47C258.257,673.583 254.871,671.972 252.428,670.64L262.088,643.991C267.196,646.878 274.968,650.098 285.406,653.652C295.843,657.205 308.612,658.981 323.713,658.981ZM748.76,595.357C748.76,609.126 746.761,621.562 742.764,632.666C738.767,643.769 733.159,653.318 725.942,661.313C718.725,669.308 710.119,675.47 700.126,679.801C690.133,684.131 679.251,686.296 667.481,686.296C655.712,686.296 644.83,684.131 634.837,679.801C624.844,675.47 616.238,669.308 609.021,661.313C601.804,653.318 596.196,643.769 592.199,632.666C588.202,621.562 586.203,609.126 586.203,595.357C586.203,581.811 588.202,569.431 592.199,558.216C596.196,547.001 601.804,537.397 609.021,529.402C616.238,521.407 624.844,515.245 634.837,510.914C644.83,506.584 655.712,504.419 667.481,504.419C679.251,504.419 690.133,506.584 700.126,510.914C710.119,515.245 718.725,521.407 725.942,529.402C733.159,537.397 738.767,547.001 742.764,558.216C746.761,569.431 748.76,581.811 748.76,595.357ZM520.581,685.963C506.59,685.963 494.32,683.742 483.772,679.301C473.224,674.859 464.341,668.641 457.123,660.647C449.906,652.652 444.521,643.159 440.968,632.166C437.414,621.173 435.638,609.015 435.638,595.691C435.638,582.366 437.581,570.152 441.467,559.049C445.353,547.945 450.85,538.34 457.956,530.235C465.062,522.129 473.779,515.8 484.105,511.248C494.431,506.695 505.924,504.419 518.582,504.419C526.354,504.419 534.127,505.085 541.899,506.417C549.672,507.75 557.111,509.86 564.218,512.747L557.222,539.062C552.559,536.841 547.174,535.065 541.067,533.732C534.96,532.4 528.464,531.734 521.58,531.734C504.258,531.734 490.989,537.174 481.773,548.056C472.557,558.938 467.949,574.816 467.949,595.691C467.949,605.018 469.004,613.567 471.114,621.34C473.224,629.113 476.555,635.775 481.107,641.326C485.66,646.878 491.489,651.153 498.595,654.151C505.702,657.149 514.362,658.648 524.578,658.648C532.795,658.648 540.234,657.871 546.896,656.316C553.558,654.762 558.777,653.096 562.552,651.32L566.883,677.302C565.106,678.413 562.552,679.467 559.221,680.467C555.89,681.466 552.115,682.354 547.895,683.132C543.676,683.909 539.179,684.575 534.405,685.13C529.63,685.685 525.022,685.963 520.581,685.963ZM821.378,508.749L887,508.749L887,534.732L821.378,534.732L821.378,614.678C821.378,623.339 822.044,630.5 823.376,636.163C824.709,641.826 826.707,646.268 829.372,649.488C832.037,652.708 835.368,654.984 839.366,656.316C843.363,657.649 848.026,658.315 853.356,658.315C862.683,658.315 870.178,657.26 875.841,655.151C881.504,653.041 885.446,651.542 887.666,650.654L893.662,676.303C890.553,677.857 885.113,679.801 877.34,682.132C869.567,684.464 860.685,685.63 850.691,685.63C838.921,685.63 829.206,684.131 821.544,681.133C813.883,678.135 807.72,673.638 803.057,667.642C798.393,661.646 795.118,654.262 793.23,645.49C791.342,636.718 790.399,626.559 790.399,615.011L790.399,460.448L821.378,455.119L821.378,508.749ZM955.287,508.749L1020.91,508.749L1020.91,534.732L955.287,534.732L955.287,614.678C955.287,623.339 955.954,630.5 957.286,636.163C958.618,641.826 960.617,646.268 963.282,649.488C965.947,652.708 969.278,654.984 973.275,656.316C977.273,657.649 981.936,658.315 987.266,658.315C996.593,658.315 1004.09,657.26 1009.75,655.151C1015.41,653.041 1019.36,651.542 1021.58,650.654L1027.57,676.303C1024.46,677.857 1019.02,679.801 1011.25,682.132C1003.48,684.464 994.594,685.63 984.601,685.63C972.831,685.63 963.115,684.131 955.454,681.133C947.792,678.135 941.63,673.638 936.966,667.642C932.303,661.646 929.027,654.262 927.14,645.49C925.252,636.718 924.308,626.559 924.308,615.011L924.308,460.448L955.287,455.119L955.287,508.749ZM716.448,595.357C716.448,575.815 712.063,560.326 703.291,548.889C694.519,537.452 682.582,531.734 667.481,531.734C652.381,531.734 640.444,537.452 631.672,548.889C622.9,560.326 618.514,575.815 618.514,595.357C618.514,614.9 622.9,630.389 631.672,641.826C640.444,653.263 652.381,658.981 667.481,658.981C682.582,658.981 694.519,653.263 703.291,641.826C712.063,630.389 716.448,614.9 716.448,595.357ZM590.2,161.983C602.636,161.983 613.129,163.593 621.679,166.813C630.229,170.033 637.113,174.586 642.332,180.471C647.55,186.355 651.27,193.351 653.491,201.456C655.712,209.562 656.822,218.5 656.822,228.272L656.822,336.532C654.157,336.976 650.437,337.587 645.663,338.364C640.888,339.141 635.503,339.863 629.507,340.529C623.511,341.196 617.015,341.806 610.02,342.361C603.025,342.917 596.085,343.194 589.201,343.194C579.43,343.194 570.436,342.195 562.219,340.196C554.002,338.198 546.896,335.033 540.9,330.703C534.904,326.372 530.241,320.654 526.91,313.548C523.578,306.441 521.913,297.891 521.913,287.898C521.913,278.349 523.856,270.132 527.742,263.248C531.629,256.364 536.903,250.812 543.565,246.593C550.227,242.373 558,239.264 566.883,237.266C575.766,235.267 585.093,234.268 594.864,234.268C597.973,234.268 601.193,234.434 604.524,234.767C607.855,235.1 611.02,235.545 614.018,236.1C617.015,236.655 619.625,237.155 621.846,237.599C624.066,238.043 625.621,238.376 626.509,238.598L626.509,229.937C626.509,224.83 625.954,219.777 624.844,214.781C623.733,209.784 621.735,205.343 618.848,201.456C615.961,197.57 612.019,194.461 607.022,192.129C602.026,189.798 595.53,188.632 587.535,188.632C577.32,188.632 568.382,189.353 560.72,190.797C553.059,192.24 547.34,193.739 543.565,195.294L539.901,169.645C543.898,167.868 550.56,166.147 559.887,164.481C569.214,162.816 579.319,161.983 590.2,161.983ZM846.028,334.533C838.921,336.31 829.539,338.198 817.88,340.196C806.221,342.195 792.73,343.194 777.407,343.194C764.083,343.194 752.868,341.251 743.763,337.365C734.658,333.479 727.33,327.982 721.778,320.876C716.226,313.77 712.229,305.386 709.786,295.726C707.343,286.066 706.122,275.351 706.122,263.581L706.122,166.313L737.101,166.313L737.101,256.919C737.101,278.016 740.432,293.117 747.094,302.222C753.757,311.327 764.971,315.879 780.738,315.879C784.07,315.879 787.512,315.768 791.065,315.546C794.618,315.324 797.949,315.046 801.058,314.713C804.167,314.38 806.999,314.047 809.552,313.714C812.106,313.381 813.938,312.992 815.049,312.548L815.049,166.313L846.028,166.313L846.028,334.533ZM951.29,342.861C932.192,342.417 918.645,338.309 910.651,330.536C902.656,322.764 898.659,310.661 898.659,294.227L898.659,86.367L929.638,81.038L929.638,289.231C929.638,294.338 930.082,298.558 930.97,301.889C931.859,305.22 933.302,307.885 935.301,309.883C937.3,311.882 939.964,313.381 943.295,314.38C946.627,315.38 950.735,316.212 955.621,316.879L951.29,342.861ZM401.328,106.354C433.75,106.354 458.678,112.516 476.111,124.841C493.543,137.166 502.26,155.543 502.26,179.971C502.26,193.295 499.872,204.676 495.098,214.115C490.323,223.553 483.439,231.214 474.445,237.099C465.451,242.984 454.514,247.259 441.634,249.924C428.754,252.589 414.208,253.921 397.997,253.921L372.347,253.921L372.347,339.53L340.036,339.53L340.036,112.017C349.141,109.796 359.3,108.297 370.515,107.52C381.73,106.743 392.001,106.354 401.328,106.354ZM592.865,317.212C600.194,317.212 606.689,317.045 612.352,316.712C618.015,316.379 622.734,315.768 626.509,314.88L626.509,263.248C624.288,262.138 620.68,261.194 615.683,260.417C610.686,259.639 604.635,259.251 597.529,259.251C592.865,259.251 587.924,259.584 582.705,260.25C577.487,260.916 572.712,262.304 568.382,264.414C564.051,266.524 560.443,269.411 557.556,273.075C554.669,276.739 553.225,281.569 553.225,287.565C553.225,298.669 556.778,306.386 563.885,310.716C570.991,315.046 580.651,317.212 592.865,317.212ZM403.992,134.668C390.224,134.668 379.676,135.001 372.347,135.667L372.347,226.273L396.664,226.273C407.768,226.273 417.761,225.551 426.644,224.108C435.527,222.664 443.022,220.222 449.129,216.779C455.236,213.337 459.955,208.618 463.286,202.622C466.617,196.626 468.282,188.965 468.282,179.638C468.282,170.755 466.561,163.427 463.119,157.653C459.677,151.879 455.014,147.271 449.129,143.829C443.244,140.386 436.415,137.999 428.643,136.667C420.87,135.334 412.653,134.668 403.992,134.668ZM83.82,40.434C107.001,40.434 125.82,59.253 125.82,82.434C125.82,105.614 107.001,124.434 83.82,124.434C60.64,124.434 41.82,105.614 41.82,82.434C41.82,59.253 60.64,40.434 83.82,40.434ZM1196.18,40.434C1219.36,40.434 1238.18,59.253 1238.18,82.434C1238.18,105.614 1219.36,124.434 1196.18,124.434C1173,124.434 1154.18,105.614 1154.18,82.434C1154.18,59.253 1173,40.434 1196.18,40.434Z" style="fill:white;"/>
</svg>
