<svg id="Layer_1" data-name="Layer 1" xmlns="http://www.w3.org/2000/svg" viewBox="0 0 500 500">
  <defs>
    <style>
      .cls-1 {
        fill: #ffffff;
      }
    </style>
  </defs>
  <path class="cls-1"
    d="M234.77.46C108.83,8,8,108.83.46,234.77-8.3,380.58,106.12,500,252.19,500H420a80,80,0,0,0,80-80V252.19C500,106.12,380.58-8.3,234.77.46ZM110.7,278a71.49,71.49,0,0,0,14.44,22.9,67.26,67.26,0,0,0,21.5,15.39,64.44,64.44,0,0,0,48.74,1.41,87.69,87.69,0,0,0,20.55-11.39,12.35,12.35,0,0,1,8.34-2.71,10.63,10.63,0,0,1,6.93,3.29Q234,309.78,234,315a11.66,11.66,0,0,1-.94,4.58,12.92,12.92,0,0,1-2.8,4.1l0,0a94.35,94.35,0,0,1-27.11,15.25,89.51,89.51,0,0,1-30.42,5.17,88.5,88.5,0,0,1-64.48-27.13A92.69,92.69,0,0,1,89,287,98.06,98.06,0,0,1,82,249.88,96.63,96.63,0,0,1,89,213.12a93.24,93.24,0,0,1,19.26-29.83A90.42,90.42,0,0,1,137,163.21a87.19,87.19,0,0,1,35.7-7.28q18.07,0,31.12,4.69T230,176.13a13.36,13.36,0,0,1,2.94,2.93,9.12,9.12,0,0,1,1.41,3.06,16.7,16.7,0,0,1,.35,3.64,9.68,9.68,0,0,1-3.17,7.4,12.21,12.21,0,0,1-16.33.35,69.51,69.51,0,0,0-18-11.51q-9.27-4-24.54-4a61.56,61.56,0,0,0-26.07,5.63,68.87,68.87,0,0,0-21.5,15.51,71.49,71.49,0,0,0-14.44,22.9,78.14,78.14,0,0,0,0,55.9ZM416.52,174.48,347,334a13.78,13.78,0,0,1-4.34,5.76,11,11,0,0,1-6.7,2q-7.51,0-11-7.75L256.09,176.6q-3.28-8-.7-13.16t9.86-5.16q8.22,0,11.28,7.28L335.42,307a.21.21,0,0,0,.39,0l60-141.39q1.88-4.23,4.35-5.76a12.7,12.7,0,0,1,6.69-1.52q7,0,9.75,5.05T416.52,174.48Z" />
</svg>