<?xml version="1.0" encoding="UTF-8" standalone="no"?>
<!DOCTYPE svg PUBLIC "-//W3C//DTD SVG 1.1//EN" "http://www.w3.org/Graphics/SVG/1.1/DTD/svg11.dtd">
<svg width="100%" height="100%" viewBox="0 0 512 512" version="1.1" xmlns="http://www.w3.org/2000/svg" xmlns:xlink="http://www.w3.org/1999/xlink" xml:space="preserve" xmlns:serif="http://www.serif.com/" style="fill-rule:evenodd;clip-rule:evenodd;stroke-linejoin:round;stroke-miterlimit:2;">
    <path d="M475.663,387.388C453.677,424.075 422.764,454.803 385.902,476.527L385.456,476.791C347.494,499.181 303.232,512 256,512C208.583,512 164.16,499.081 126.098,476.527L125.664,476.271C88.857,454.461 57.982,423.688 36.079,386.957L35.811,386.508C13.057,348.311 0,303.668 0,256C0,208.145 13.159,163.339 36.079,125.043L36.337,124.612C58.323,87.925 89.236,57.197 126.098,35.473L126.544,35.209C164.506,12.819 208.768,0 256,0C303.417,0 347.84,12.919 385.902,35.473L386.336,35.729C423.143,57.539 454.018,88.312 475.921,125.043L476.189,125.492C498.943,163.689 512,208.332 512,256C512,303.855 498.841,348.661 475.921,386.957L475.663,387.388ZM232.719,173.784C225.991,161.673 216.057,151.656 204.017,144.84C191.836,137.897 177.807,134.382 162.215,134.382L103.996,134.382C103.857,134.379 103.718,134.377 103.579,134.377C93.513,134.377 85.229,142.684 85.229,152.777C85.229,152.917 85.231,153.056 85.234,153.196L85.234,358.398C85.232,358.533 85.23,358.667 85.23,358.801C85.23,369.127 93.703,377.623 104.001,377.623C114.298,377.623 122.771,369.127 122.771,358.801C122.771,358.667 122.77,358.533 122.767,358.398L122.767,296.651L162.215,296.651C177.816,296.651 191.879,293.127 204.017,286.193C216.024,279.409 225.949,269.453 232.71,257.412C239.523,245.352 243.019,231.388 243.019,215.951C242.985,200.144 239.531,185.956 232.719,173.784ZM407.321,257.535C394.796,245.389 375.708,237.395 350.623,233.768C338.175,231.985 328.287,229.289 321.106,225.748C314.499,222.475 309.783,218.667 307.111,214.412C304.455,210.255 303.066,205.41 303.117,200.474C303.117,190.748 306.553,183.607 313.658,178.636C321.466,173.175 332.188,170.41 345.537,170.392C353.175,170.573 359.712,171.667 364.961,173.64C369.805,175.385 374.273,178.043 378.122,181.471C381.658,184.687 384.782,188.329 387.426,192.316C392.406,200.789 403.128,204.107 412.003,199.922L412.527,199.655C416.801,197.301 419.873,193.223 420.963,188.457C421.728,185.166 421.865,180.015 418.223,174.157C413.622,166.799 407.901,160.209 401.265,154.628C385.762,141.574 366.08,134.539 345.838,134.815C330.89,134.815 317.403,137.4 305.737,142.396C293.762,147.564 284.183,155.033 277.285,164.621C270.249,174.398 266.675,185.993 266.675,199.078C266.675,217.323 273.814,232.907 287.877,245.415C301.45,257.475 320.281,265.03 343.802,267.812C360.305,269.88 372.383,274.574 379.72,281.759C386.859,288.771 390.329,296.86 390.329,306.499C390.329,314.166 388.611,320.403 384.96,325.563C381.137,330.967 375.843,335.154 369.712,337.623C362.882,340.543 354.85,342.025 345.838,342.025C338.104,342.104 330.402,341.008 322.996,338.777C316.741,336.909 310.884,333.898 305.72,329.896C301.363,326.549 297.763,322.312 295.162,317.465C293.235,313.536 290.095,310.333 286.21,308.334C282.209,306.195 277.533,305.692 273.17,306.93C266.529,308.782 263.179,312.71 261.538,315.673C258.961,320.291 258.961,325.64 261.486,330.757C266.009,340.347 272.551,348.841 280.661,355.653C289.277,362.896 299.19,368.431 309.869,371.96C321.481,375.807 333.644,377.719 345.873,377.619C356.39,377.681 366.855,376.124 376.902,373.002C386.336,370.114 395.15,365.483 402.889,359.348C410.454,353.258 416.504,345.487 420.56,336.649C424.683,327.742 426.771,317.5 426.771,306.224C426.728,286.411 420.199,270.026 407.321,257.535ZM162.215,259.928L122.767,259.928L122.767,171.2L162.215,171.2C170.875,171.2 178.331,173.069 185.006,176.92C191.498,180.584 196.852,185.981 200.469,192.512C204.189,199.136 206.071,207.044 206.071,216.012C206.194,223.994 204.249,231.872 200.427,238.874C196.857,245.357 191.531,250.697 185.066,254.277C178.064,258.104 170.188,260.04 162.215,259.893L162.215,259.928Z" style="fill:#5b6b7a;"/>
</svg>
