<?xml version="1.0" encoding="utf-8"?>
<!-- Generator: Adobe Illustrator 24.2.3, SVG Export Plug-In . SVG Version: 6.00 Build 0)  -->
<svg version="1.1" id="Layer_1" xmlns="http://www.w3.org/2000/svg" xmlns:xlink="http://www.w3.org/1999/xlink" x="0px" y="0px"
	 viewBox="0 0 512 512" style="enable-background:new 0 0 512 512;" xml:space="preserve">
<style type="text/css">
	.st0{fill:#FFFFFF;}
</style>
<g>
	<path class="st0" d="M462,0H256H50C22.4,0,0,22.4,0,50v206v206c0,27.6,22.4,50,50,50h140.8h1.8c0-6.1-0.2-51.7-0.3-73.1
		C121,454.4,106,408.7,106,408.7c-11.7-29.6-28.4-37.5-28.4-37.5c-23.2-15.9,1.8-15.6,1.8-15.6c25.7,1.8,39.2,26.4,39.2,26.4
		c22.8,39.1,59.9,27.8,74.5,21.3c2.3-16.5,8.9-27.8,16.3-34.2c-56.9-6.5-116.6-28.4-116.6-126.5c0-27.9,10-50.8,26.4-68.7
		c-2.7-6.5-11.4-32.5,2.5-67.8c0,0,21.5-6.9,70.4,26.3c42-11.5,86.2-11.5,128.2,0c48.9-33.1,70.3-26.3,70.3-26.3
		c13.9,35.3,5.2,61.3,2.5,67.8c16.4,17.9,26.4,40.8,26.4,68.7c0,98.3-59.9,120-116.9,126.3c9.2,8,17.4,23.5,17.4,47.4
		c0,34.3-0.3,87.2-0.3,95.7h1.8H462c27.6,0,50-22.4,50-50V256V50C512,22.4,489.6,0,462,0z"/>
</g>
</svg>
