<svg id="Layer_1" data-name="Layer 1" xmlns="http://www.w3.org/2000/svg" viewBox="0 0 500 500">
  <defs>
    <style>
      .cls-1 {
        fill: #304657;
      }
    </style>
  </defs>
  <path class="cls-1" d="M124.26,466.09c2.14,1.25,4.29,2.47,6.47,3.65-2.17-1.18-4.31-2.39-6.44-3.63Z" />
  <path class="cls-1"
    d="M34.72,122.89a2,2,0,0,0,.14-.25c-.6,1-1.19,2-1.78,3l.05-.09C33.65,124.69,34.19,123.79,34.72,122.89Z" />
  <path class="cls-1"
    d="M37.66,118.05l.16-.26c-.64,1-1.29,2.06-1.92,3.1l.06-.09C36.52,119.88,37.09,119,37.66,118.05Z" />
  <path class="cls-1"
    d="M31.88,127.81l.14-.24c-.56,1-1.12,2-1.66,3a.56.56,0,0,1,.05-.08C30.89,129.58,31.39,128.7,31.88,127.81Z" />
  <path class="cls-1"
    d="M40.71,113.27l.17-.26c-.69,1-1.38,2.1-2.05,3.16l.06-.09C39.49,115.14,40.1,114.21,40.71,113.27Z" />
  <path class="cls-1"
    d="M50.46,99.41c.08-.09.15-.19.22-.28-.83,1.09-1.66,2.19-2.47,3.3l.07-.1C49,101.35,49.73,100.38,50.46,99.41Z" />
  <path class="cls-1"
    d="M29.16,132.8l.12-.23c-.52,1-1,1.93-1.53,2.9a.25.25,0,0,1,0-.07C28.24,134.53,28.7,133.67,29.16,132.8Z" />
  <path class="cls-1"
    d="M43.86,108.58l.18-.28c-.73,1.07-1.46,2.14-2.18,3.22l.06-.1C42.56,110.47,43.21,109.52,43.86,108.58Z" />
  <path class="cls-1"
    d="M47.11,104a2.83,2.83,0,0,0,.2-.28c-.78,1.09-1.56,2.17-2.33,3.27l.08-.1C45.73,105.87,46.42,104.91,47.11,104Z" />
  <path class="cls-1" d="M53.92,95l.22-.29c-.88,1.11-1.75,2.22-2.61,3.34l.08-.1C52.37,96.91,53.14,95.93,53.92,95Z" />
  <path class="cls-1" d="M61.11,86.27l.25-.29q-1.47,1.68-2.91,3.4l.1-.12C59.39,88.26,60.25,87.26,61.11,86.27Z" />
  <path class="cls-1" d="M15.2,164.06l.05-.15c-.3.82-.6,1.64-.89,2.46l0-.05C14.64,165.57,14.92,164.82,15.2,164.06Z" />
  <path class="cls-1" d="M13.29,169.48l0-.13c-.27.79-.54,1.58-.8,2.37v0C12.78,171,13,170.21,13.29,169.48Z" />
  <path class="cls-1"
    d="M17.23,158.7a1.22,1.22,0,0,0,.07-.17c-.33.85-.67,1.69-1,2.54l0,0C16.62,160.24,16.93,159.47,17.23,158.7Z" />
  <path class="cls-1" d="M11.5,175l0-.11-.72,2.3v0C11,176.38,11.27,175.67,11.5,175Z" />
  <path class="cls-1" d="M19.39,153.4l.07-.18c-.36.87-.73,1.73-1.09,2.61l0-.06C18.72,155,19.06,154.19,19.39,153.4Z" />
  <path class="cls-1" d="M9.83,180.48l0-.11c-.21.75-.43,1.49-.64,2.23v0C9.42,181.87,9.63,181.18,9.83,180.48Z" />
  <path class="cls-1" d="M24,143l.1-.21c-.44.92-.87,1.84-1.3,2.76l0-.06C23.25,144.63,23.65,143.8,24,143Z" />
  <path class="cls-1"
    d="M21.66,148.15c0-.06.05-.12.08-.19-.4.9-.8,1.79-1.19,2.68l0,0C20.93,149.77,21.29,149,21.66,148.15Z" />
  <path class="cls-1" d="M26.54,137.85a1.51,1.51,0,0,0,.11-.22c-.47,1-.95,1.89-1.41,2.84l0-.07Z" />
  <path class="cls-1"
    d="M64.85,82.06c.09-.1.17-.2.26-.29-1,1.13-2,2.26-3.06,3.41l.1-.11C63,84.06,63.94,83.05,64.85,82.06Z" />
  <path class="cls-1"
    d="M116.33,38.72l.38-.23c1.46-.93,2.93-1.83,4.41-2.73l.32-.19q2.25-1.35,4.53-2.66l.28-.16c1.54-.88,3.08-1.74,4.64-2.58l.23-.13c1.58-.85,3.16-1.69,4.76-2.51l.19-.09q2.4-1.25,4.85-2.43l.16-.07q2.46-1.2,4.95-2.34l.12-.05c1.67-.77,3.35-1.51,5-2.24l.09,0c1.7-.73,3.41-1.45,5.14-2.14l.06,0q2.6-1.05,5.22-2h0c1.76-.66,3.53-1.31,5.3-1.93h0q2.67-.93,5.37-1.82h0a249.19,249.19,0,0,1,33.33-8.37h0c1.9-.34,3.79-.65,5.7-.95h0q2.85-.45,5.71-.82h0A248.47,248.47,0,0,0,111.91,41.59l.13-.09C113.46,40.56,114.89,39.64,116.33,38.72Z" />
  <path class="cls-1" d="M223,1.46h0c-1.92.21-3.84.43-5.76.68h0C219.17,1.89,221.08,1.67,223,1.46Z" />
  <path class="cls-1" d="M107,45l.29-.21q-2.25,1.57-4.47,3.19l.14-.1Q104.94,46.38,107,45Z" />
  <path class="cls-1" d="M111.62,41.79l.28-.19q-2.31,1.53-4.59,3.12l.14-.1C108.83,43.67,110.22,42.72,111.62,41.79Z" />
  <path class="cls-1" d="M237.14.33l-2.29.14h0Z" />
  <path class="cls-1" d="M234.68.48h0c-1.92.12-3.83.25-5.73.41h0C230.85.73,232.76.6,234.68.48Z" />
  <path class="cls-1" d="M228.82.9h0c-1.93.16-3.84.35-5.75.55h0C225,1.25,226.9,1.06,228.82.9Z" />
  <path class="cls-1" d="M102.4,48.23l.29-.22q-2.18,1.6-4.34,3.25l.14-.11C99.78,50.17,101.09,49.19,102.4,48.23Z" />
  <path class="cls-1"
    d="M76.61,69.94l.28-.27c-1.18,1.13-2.34,2.27-3.5,3.42l.12-.12C74.53,72,75.57,70.94,76.61,69.94Z" />
  <path class="cls-1"
    d="M80.7,66.08l.29-.27c-1.23,1.13-2.44,2.27-3.65,3.42l.12-.12C78.53,68.09,79.62,67.08,80.7,66.08Z" />
  <path class="cls-1" d="M72.6,73.89l.27-.28c-1.13,1.13-2.24,2.27-3.35,3.43l.11-.12Q71.1,75.39,72.6,73.89Z" />
  <path class="cls-1"
    d="M68.68,77.93l.27-.28c-1.08,1.13-2.15,2.26-3.21,3.42l.11-.12C66.78,79.93,67.73,78.93,68.68,77.93Z" />
  <path class="cls-1" d="M93.49,55.08l.29-.24q-2.06,1.63-4.07,3.33l.13-.1Q91.64,56.56,93.49,55.08Z" />
  <path class="cls-1" d="M97.9,51.61l.3-.23Q96.07,53,94,54.67l.13-.11Q96,53.06,97.9,51.61Z" />
  <path class="cls-1" d="M89.15,58.65l.28-.25q-2,1.66-3.93,3.37l.13-.11C86.79,60.64,88,59.64,89.15,58.65Z" />
  <path class="cls-1"
    d="M84.89,62.32l.28-.26c-1.27,1.12-2.54,2.25-3.79,3.39l.13-.11C82.62,64.32,83.75,63.32,84.89,62.32Z" />
  <path class="cls-1"
    d="M57.47,90.57c.08-.1.15-.2.23-.29Q56.31,92,54.94,93.65l.09-.11C55.83,92.54,56.65,91.55,57.47,90.57Z" />
  <path class="cls-1" d="M6.88,191.66l0-.07-.51,2.1v0C6.55,193,6.72,192.33,6.88,191.66Z" />
  <path class="cls-1" d="M.66,232.19c0,.48-.08,1-.11,1.46,0-.49.08-1,.11-1.46Z" />
  <path class="cls-1" d="M5.59,197.33l0-.06c-.15.68-.3,1.36-.44,2h0Z" />
  <path class="cls-1" d="M3.42,208.79v0c-.11.65-.22,1.29-.32,1.94h0C3.2,210.06,3.31,209.43,3.42,208.79Z" />
  <path class="cls-1" d="M1.77,220.43v0c-.07.62-.15,1.23-.22,1.85h0C1.62,221.65,1.69,221,1.77,220.43Z" />
  <path class="cls-1" d="M2.52,214.6v0c-.09.63-.19,1.26-.27,1.88h0C2.34,215.83,2.44,215.22,2.52,214.6Z" />
  <path class="cls-1" d="M4.44,203v0c-.13.66-.26,1.33-.38,2h0C4.19,204.33,4.32,203.68,4.44,203Z" />
  <path class="cls-1" d="M8.29,186.05l0-.09c-.2.72-.39,1.44-.58,2.16v0Z" />
  <path class="cls-1" d="M1.14,226.29h0c-.06.61-.13,1.22-.18,1.83H1C1,227.5,1.09,226.9,1.14,226.29Z" />
  <path class="cls-1" d="M247,0h0c-1.39,0-2.78,0-4.17.09h0C244.26.08,245.65.06,247,0Z" />
  <path class="cls-1" d="M250,0h0Z" />
  <path class="cls-1" d="M240.43.21l-1.2,0,1.2,0Z" />
  <path class="cls-1" d="M499.53,234.65q.23,3.81.35,7.65Q499.76,238.46,499.53,234.65Z" />
  <path class="cls-1" d="M499,227.07c.23,2.52.42,5,.58,7.58C499.37,232.11,499.18,229.59,499,227.07Z" />
  <path class="cls-1" d="M498,218.16a248.34,248.34,0,0,0-32.36-94.7h0A248.34,248.34,0,0,1,498,218.16Z" />
  <path class="cls-1" d="M1.14,226.29c0,.61-.12,1.21-.17,1.82C1,227.5,1.09,226.9,1.14,226.29Z" />
  <path class="cls-1" d="M50.46,99.41c-.73,1-1.46,1.94-2.18,2.92C49,101.35,49.73,100.38,50.46,99.41Z" />
  <path class="cls-1" d="M64.85,82.06c-.91,1-1.81,2-2.7,3C63,84.06,63.94,83.05,64.85,82.06Z" />
  <path class="cls-1" d="M68.68,77.93c-1,1-1.9,2-2.83,3C66.78,79.93,67.73,78.93,68.68,77.93Z" />
  <path class="cls-1" d="M140.92,25q-2.44,1.18-4.85,2.43Q138.47,26.2,140.92,25Z" />
  <path class="cls-1" d="M53.92,95c-.78,1-1.55,2-2.31,3C52.37,96.91,53.14,95.93,53.92,95Z" />
  <path class="cls-1" d="M151.19,20.31c-1.69.73-3.37,1.47-5,2.24C147.82,21.78,149.5,21,151.19,20.31Z" />
  <path class="cls-1" d="M57.47,90.57c-.82,1-1.64,2-2.44,3C55.83,92.54,56.65,91.55,57.47,90.57Z" />
  <path class="cls-1" d="M240.43.21l-1.2,0c-.7,0-1.4,0-2.09.08l-2.29.14C236.71.36,238.57.28,240.43.21Z" />
  <path class="cls-1" d="M156.42,18.13c-1.73.69-3.44,1.41-5.14,2.14C153,19.54,154.69,18.82,156.42,18.13Z" />
  <path class="cls-1" d="M146,22.6q-2.49,1.14-4.95,2.34Q143.54,23.74,146,22.6Z" />
  <path class="cls-1" d="M161.7,16.06q-2.62,1-5.22,2Q159.08,17,161.7,16.06Z" />
  <path class="cls-1" d="M1.77,220.43c-.08.61-.15,1.22-.22,1.83C1.62,221.65,1.69,221,1.77,220.43Z" />
  <path class="cls-1" d="M61.11,86.27c-.86,1-1.72,2-2.56,3C59.39,88.26,60.25,87.26,61.11,86.27Z" />
  <path class="cls-1" d="M0,250c0,.72,0,1.44,0,2.16,0-1.12,0-2.23,0-3.35C0,249.21,0,249.6,0,250Z" />
  <path class="cls-1" d="M116.33,38.72c-1.44.92-2.87,1.84-4.29,2.78C113.46,40.56,114.89,39.64,116.33,38.72Z" />
  <path class="cls-1" d="M97.9,51.61q-1.91,1.45-3.78,3C95.37,53.57,96.63,52.58,97.9,51.61Z" />
  <path class="cls-1" d="M93.49,55.08q-1.84,1.47-3.65,3Q91.64,56.56,93.49,55.08Z" />
  <path class="cls-1" d="M121.12,35.76c-1.48.9-3,1.8-4.41,2.73C118.17,37.56,119.64,36.66,121.12,35.76Z" />
  <path class="cls-1" d="M111.62,41.79c-1.4.93-2.79,1.88-4.17,2.83C108.83,43.67,110.22,42.72,111.62,41.79Z" />
  <path class="cls-1" d="M107,45q-2,1.42-4,2.88Q104.94,46.38,107,45Z" />
  <path class="cls-1" d="M102.4,48.23c-1.31,1-2.62,1.94-3.91,2.92C99.78,50.17,101.09,49.19,102.4,48.23Z" />
  <path class="cls-1" d="M72.6,73.89q-1.5,1.5-3,3Q71.1,75.39,72.6,73.89Z" />
  <path class="cls-1"
    d="M108.23,456.51a5.59,5.59,0,0,0,5.41,3.2.61.61,0,0,1,.25.06c-2.15-1.39-4.29-2.81-6.4-4.26A3.07,3.07,0,0,1,108.23,456.51Z" />
  <path class="cls-1" d="M73.51,73c1-1,2.06-2,3.1-3C75.57,70.94,74.53,72,73.51,73Z" />
  <path class="cls-1" d="M80.7,66.08c-1.08,1-2.17,2-3.24,3C78.53,68.09,79.62,67.08,80.7,66.08Z" />
  <path class="cls-1" d="M135.88,27.53c-1.6.82-3.18,1.66-4.76,2.51C132.7,29.19,134.28,28.35,135.88,27.53Z" />
  <path class="cls-1" d="M130.89,30.17c-1.56.84-3.1,1.7-4.64,2.58C127.79,31.87,129.33,31,130.89,30.17Z" />
  <path class="cls-1" d="M89.15,58.65c-1.18,1-2.36,2-3.52,3C86.79,60.64,88,59.64,89.15,58.65Z" />
  <path class="cls-1" d="M0,247.88q.06-6,.41-12.13Q.09,241.78,0,247.88Z" />
  <path class="cls-1" d="M126,32.91q-2.28,1.31-4.53,2.66Q123.69,34.22,126,32.91Z" />
  <path class="cls-1" d="M84.89,62.32c-1.14,1-2.27,2-3.38,3C82.62,64.32,83.75,63.32,84.89,62.32Z" />
  <path class="cls-1" d="M.55,233.65l0,.45c0-.64.09-1.27.14-1.91C.63,232.68.58,233.16.55,233.65Z" />
  <path class="cls-1" d="M5.59,197.33l-.42,2Z" />
  <path class="cls-1" d="M26.54,137.85l-1.27,2.55Z" />
  <path class="cls-1" d="M17.23,158.7c-.3.77-.61,1.54-.9,2.32C16.62,160.24,16.93,159.47,17.23,158.7Z" />
  <path class="cls-1" d="M228.82.9c-1.92.16-3.83.35-5.73.55C225,1.25,226.9,1.06,228.82.9Z" />
  <path class="cls-1" d="M247,0c-1.39,0-2.78,0-4.17.09C244.26.09,245.66.06,247,0Z" />
  <path class="cls-1" d="M24,143c-.39.83-.79,1.66-1.17,2.49C23.25,144.63,23.65,143.8,24,143Z" />
  <path class="cls-1" d="M4.44,203c-.12.64-.25,1.29-.37,1.93C4.19,204.33,4.32,203.68,4.44,203Z" />
  <path class="cls-1" d="M223,1.46c-1.91.21-3.82.43-5.72.68C219.17,1.89,221.08,1.67,223,1.46Z" />
  <path class="cls-1" d="M47.11,104c-.69,1-1.38,1.92-2,2.89C45.73,105.87,46.42,104.91,47.11,104Z" />
  <path class="cls-1" d="M19.39,153.4c-.33.79-.67,1.58-1,2.37C18.72,155,19.06,154.19,19.39,153.4Z" />
  <path class="cls-1" d="M9.83,180.48c-.2.7-.41,1.39-.6,2.09C9.42,181.87,9.63,181.18,9.83,180.48Z" />
  <path class="cls-1" d="M11.5,175c-.23.72-.46,1.43-.68,2.15C11,176.38,11.27,175.67,11.5,175Z" />
  <path class="cls-1" d="M234.68.48c-1.92.12-3.83.25-5.73.41C230.85.73,232.76.6,234.68.48Z" />
  <path class="cls-1"
    d="M499.88,242.3q-.12-3.84-.35-7.65c-.16-2.54-.35-5.06-.58-7.58s-.5-5-.8-7.52c-.06-.46-.1-.93-.16-1.39a248.34,248.34,0,0,0-32.35-94.69A254.84,254.84,0,0,1,500,252.2V250C500,247.42,500,244.86,499.88,242.3Z" />
  <path class="cls-1" d="M8.29,186.05l-.54,2Z" />
  <path class="cls-1" d="M13.29,169.48c-.25.73-.51,1.47-.75,2.21C12.78,171,13,170.21,13.29,169.48Z" />
  <path class="cls-1" d="M15.2,164.06c-.28.76-.56,1.51-.82,2.26C14.64,165.57,14.92,164.82,15.2,164.06Z" />
  <path class="cls-1" d="M6.88,191.66c-.16.67-.33,1.34-.48,2C6.55,193,6.72,192.33,6.88,191.66Z" />
  <path class="cls-1" d="M21.66,148.15c-.37.81-.73,1.62-1.08,2.44C20.93,149.77,21.29,149,21.66,148.15Z" />
  <path class="cls-1"
    d="M130.73,469.74c2.8,1.52,5.63,3,8.49,4.41l.33.17c1.39.68,2.78,1.36,4.19,2l.15.07A246.78,246.78,0,0,0,171,487.22c.41.08.81.14,1.2.2a251.27,251.27,0,0,1-47.88-21.31C126.42,467.35,128.56,468.56,130.73,469.74Z" />
  <path class="cls-1" d="M3.42,208.79c-.11.64-.22,1.27-.32,1.9C3.2,210.06,3.31,209.43,3.42,208.79Z" />
  <path class="cls-1" d="M37.66,118.05c-.57.91-1.14,1.83-1.7,2.75C36.52,119.88,37.09,119,37.66,118.05Z" />
  <path class="cls-1" d="M205.75,3.92a249.19,249.19,0,0,0-33.33,8.37A249.19,249.19,0,0,1,205.75,3.92Z" />
  <path class="cls-1" d="M31.88,127.81c-.49.89-1,1.77-1.47,2.66C30.89,129.58,31.39,128.69,31.88,127.81Z" />
  <path class="cls-1" d="M172.42,12.29q-2.7.89-5.37,1.82Q169.72,13.18,172.42,12.29Z" />
  <path class="cls-1" d="M34.72,122.89c-.53.9-1.07,1.8-1.59,2.71C33.65,124.69,34.18,123.79,34.72,122.89Z" />
  <path class="cls-1" d="M40.71,113.27c-.61.94-1.22,1.87-1.82,2.81C39.49,115.14,40.1,114.21,40.71,113.27Z" />
  <path class="cls-1" d="M253.87,0c-1.29,0-2.58,0-3.87,0h-.95C250.66,0,252.27,0,253.87,0Z" />
  <path class="cls-1" d="M211.46,3c-1.91.3-3.8.61-5.7.95C207.66,3.58,209.55,3.27,211.46,3Z" />
  <path class="cls-1" d="M217.2,2.15q-2.87.38-5.71.82Q214.34,2.52,217.2,2.15Z" />
  <path class="cls-1" d="M43.86,108.58c-.65.94-1.3,1.89-1.94,2.84C42.56,110.47,43.21,109.52,43.86,108.58Z" />
  <path class="cls-1" d="M2.52,214.6c-.08.62-.18,1.23-.26,1.85C2.34,215.83,2.44,215.22,2.52,214.6Z" />
  <path class="cls-1" d="M29.16,132.8c-.46.87-.92,1.73-1.37,2.6C28.24,134.53,28.7,133.67,29.16,132.8Z" />
  <path class="cls-1" d="M167,14.12c-1.77.62-3.54,1.27-5.3,1.93C163.49,15.39,165.26,14.74,167,14.12Z" />
  <path class="cls-1" d="M139.22,474.15c-2.86-1.41-5.69-2.89-8.49-4.41C133.52,471.26,136.36,472.74,139.22,474.15Z" />
  <path class="cls-1" d="M111.9,41.6h0Z" />
  <path class="cls-1" d="M107.26,44.75l0,0Z" />
  <path class="cls-1" d="M217.24,2.15h0Z" />
  <path class="cls-1" d="M240.43.21l2.44-.08Z" />
  <path class="cls-1" d="M228.83.9h0Z" />
  <path class="cls-1" d="M234.78.47h0Z" />
  <path class="cls-1" d="M247,0l2,0Z" />
  <path class="cls-1"
    d="M122.1,464.83c-1.15-.68-2.29-1.38-3.42-2.08l-1-.63c-1.14-.71-2.29-1.43-3.42-2.17a1.52,1.52,0,0,0-.36-.18q5.1,3.27,10.37,6.32l-1.3-.75Z" />
  <path class="cls-1"
    d="M271.9,1A248.66,248.66,0,0,1,400.6,50.46q4,3,7.83,6.15l.59.48q4,3.31,7.9,6.82c.39.34.78.68,1.17,1l1.29,1.19a251.19,251.19,0,0,1,46.25,57.32A247.75,247.75,0,0,0,253.87,0c1.23,0,2.46,0,3.68.09C262.37.27,267.15.56,271.9,1Z" />
  <path class="cls-1" d="M223,1.46h0Z" />
  <path class="cls-1" d="M9.86,180.37c.31-1.08.63-2.16,1-3.23C10.49,178.21,10.17,179.29,9.86,180.37Z" />
  <path class="cls-1" d="M29.28,132.57l1.08-2Z" />
  <path class="cls-1" d="M32,127.57c.35-.63.7-1.26,1.06-1.88C32.72,126.31,32.37,126.94,32,127.57Z" />
  <path class="cls-1" d="M2.53,214.57c.18-1.29.37-2.59.57-3.87C2.9,212,2.71,213.28,2.53,214.57Z" />
  <path class="cls-1" d="M24.14,142.76c.36-.76.73-1.53,1.1-2.29C24.87,141.23,24.51,142,24.14,142.76Z" />
  <path class="cls-1" d="M26.65,137.63l1.1-2.16Z" />
  <path class="cls-1" d="M1.77,220.41c.15-1.32.31-2.64.49-4C2.08,217.77,1.92,219.09,1.77,220.41Z" />
  <path class="cls-1" d="M34.86,122.64l1-1.75Z" />
  <path class="cls-1" d="M37.82,117.79l1-1.62Z" />
  <path class="cls-1" d="M40.88,113c.33-.5.65-1,1-1.49C41.53,112,41.21,112.51,40.88,113Z" />
  <path class="cls-1" d="M21.74,148c.37-.81.73-1.63,1.1-2.44C22.47,146.33,22.11,147.15,21.74,148Z" />
  <path class="cls-1" d="M11.53,174.84c.33-1,.66-2.08,1-3.12C12.19,172.76,11.86,173.8,11.53,174.84Z" />
  <path class="cls-1" d="M102.69,48l.1-.07Z" />
  <path class="cls-1" d="M13.33,169.35c.34-1,.68-2,1-3C14,167.36,13.67,168.35,13.33,169.35Z" />
  <path class="cls-1" d="M5.61,197.27c.25-1.19.51-2.39.78-3.58C6.12,194.88,5.86,196.08,5.61,197.27Z" />
  <path class="cls-1" d="M8.32,186q.43-1.68.9-3.36Q8.75,184.28,8.32,186Z" />
  <path class="cls-1" d="M6.9,191.59c.27-1.16.55-2.32.84-3.47C7.45,189.27,7.17,190.43,6.9,191.59Z" />
  <path class="cls-1" d="M4.45,203c.23-1.23.47-2.45.72-3.68C4.92,200.54,4.68,201.76,4.45,203Z" />
  <path class="cls-1" d="M3.42,208.76c.21-1.26.42-2.52.65-3.78C3.84,206.24,3.63,207.5,3.42,208.76Z" />
  <path class="cls-1" d="M19.46,153.22c.36-.86.72-1.72,1.09-2.58C20.18,151.5,19.82,152.36,19.46,153.22Z" />
  <path class="cls-1" d="M17.3,158.53c.35-.9.71-1.8,1.07-2.7C18,156.73,17.65,157.63,17.3,158.53Z" />
  <path class="cls-1" d="M15.25,163.91c.35-.95.7-1.9,1.06-2.84C16,162,15.6,163,15.25,163.91Z" />
  <path class="cls-1" d="M44,108.3c.32-.45.63-.91.94-1.36C44.67,107.39,44.36,107.85,44,108.3Z" />
  <path class="cls-1" d="M85.17,62.06l.33-.29Z" />
  <path class="cls-1" d="M81,65.81l.39-.36Z" />
  <path class="cls-1" d="M72.87,73.61l.52-.52Z" />
  <path class="cls-1" d="M0,248.81c0-.31,0-.62,0-.93C0,248.19,0,248.5,0,248.81Z" />
  <path class="cls-1" d="M76.89,69.67l.45-.44Z" />
  <path class="cls-1" d="M98.2,51.38l.15-.12Z" />
  <path class="cls-1"
    d="M106.19,454.5c-1-.7-2-1.41-3-2.13l-1.4-1-2.76-2.06-1.51-1.16c-.9-.69-1.79-1.38-2.68-2.09l-1.37-1.1q-2.44-2-4.85-4l-1.55-1.31c-.77-.66-1.54-1.34-2.3-2L83,436c-.73-.66-1.47-1.32-2.19-2L79,432.33c-.7-.65-1.4-1.3-2.08-2s-1.42-1.38-2.12-2.07c-1-1-2-2-3-3-.75-.76-1.51-1.52-2.25-2.3-.6-.62-1.18-1.25-1.77-1.87s-1.33-1.42-2-2.13-1.16-1.27-1.73-1.91-1.35-1.5-2-2.26c-.53-.6-1.07-1.21-1.59-1.82-.87-1-1.72-2-2.57-3-.53-.63-1.06-1.27-1.58-1.91q-1.32-1.61-2.61-3.24c-.46-.57-.9-1.16-1.35-1.74-.68-.87-1.36-1.75-2-2.63L49,398.66q-1-1.37-2-2.76c-.41-.56-.82-1.12-1.22-1.69q-1.37-1.93-2.7-3.9l-.69-1q-1.35-2-2.67-4.06c-.35-.55-.7-1.1-1-1.65-.65-1-1.29-2-1.92-3.07-.37-.59-.73-1.19-1.08-1.78-.64-1.05-1.26-2.11-1.88-3.18L32.85,374q-1.3-2.28-2.57-4.59l-.19-.36c-.85-1.56-1.67-3.13-2.49-4.71-.27-.53-.54-1.07-.8-1.6q-.87-1.71-1.71-3.42l-.85-1.77c-.55-1.17-1.1-2.33-1.63-3.51-.25-.53-.49-1.06-.73-1.59q-2.28-5.07-4.34-10.26c-.21-.53-.42-1.06-.62-1.59q-.72-1.85-1.41-3.69l-.66-1.81c-.45-1.24-.88-2.49-1.31-3.74-.19-.54-.38-1.07-.56-1.62q-1.79-5.32-3.35-10.76c-.15-.55-.3-1.1-.46-1.65-.36-1.28-.71-2.57-1-3.87-.17-.62-.33-1.25-.49-1.87-.33-1.3-.64-2.6-.95-3.91-.13-.56-.27-1.12-.4-1.68Q5,300.41,4,294.77c-.11-.57-.2-1.15-.3-1.73-.23-1.32-.46-2.65-.66-4-.11-.65-.21-1.31-.3-2-.2-1.33-.39-2.67-.57-4-.07-.59-.16-1.18-.23-1.77q-.72-5.73-1.17-11.54c-.05-.59-.09-1.19-.13-1.79-.1-1.37-.18-2.73-.26-4.1,0-.68-.07-1.35-.1-2-.06-1.37-.12-2.74-.16-4.11,0-.62,0-1.23,0-1.84,0-1.24,0-2.49,0-3.74A247.65,247.65,0,0,0,107.49,455.51,10.53,10.53,0,0,0,106.19,454.5Z" />
  <path class="cls-1" d="M.47,234.78c0,.33,0,.65,0,1l.09-1.65C.51,234.33.49,234.55.47,234.78Z" />
  <path class="cls-1" d="M89.43,58.4l.28-.23Z" />
  <path class="cls-1" d="M93.78,54.84l.21-.17Z" />
  <path class="cls-1" d="M50.68,99.13,51.53,98Z" />
  <path class="cls-1" d="M57.7,90.28l.75-.9Z" />
  <path class="cls-1" d="M54.14,94.66l.8-1Z" />
  <path class="cls-1" d="M1.15,226.28c.12-1.34.25-2.68.4-4C1.4,223.6,1.27,224.94,1.15,226.28Z" />
  <path class="cls-1" d="M47.31,103.67l.9-1.24Z" />
  <path class="cls-1" d="M69,77.65l.57-.61Z" />
  <path class="cls-1" d="M65.11,81.77l.63-.7Z" />
  <path class="cls-1" d="M61.36,86l.69-.8Z" />
  <path class="cls-1" d="M.66,232.19c.1-1.36.19-2.73.31-4.08C.85,229.46.76,230.83.66,232.19Z" />
  <path class="cls-1" d="M123,465.34l1.3.75,0,0Z" />
  <path class="cls-1" d="M400.6,50.46A248.66,248.66,0,0,0,271.9,1,248.66,248.66,0,0,1,400.6,50.46Z" />
  <path class="cls-1" d="M167.05,14.11h0Z" />
  <path class="cls-1" d="M48.28,102.33l-.07.1-.9,1.24a2.83,2.83,0,0,1-.2.28Z" />
  <path class="cls-1" d="M45.06,106.84l-.08.1c-.31.45-.62.91-.94,1.36l-.18.28C44.26,108,44.65,107.41,45.06,106.84Z" />
  <path class="cls-1" d="M51.61,97.9l-.08.1-.85,1.13c-.07.09-.14.19-.22.28C50.85,98.91,51.23,98.4,51.61,97.9Z" />
  <path class="cls-1" d="M41.92,111.42l-.06.1c-.33.49-.65,1-1,1.49l-.17.26Z" />
  <path class="cls-1" d="M55,93.54l-.09.11-.8,1-.22.29Z" />
  <path class="cls-1" d="M36,120.8l-.06.09-1,1.75a2,2,0,0,1-.14.25Z" />
  <path class="cls-1" d="M38.89,116.08l-.06.09-1,1.62-.16.26Z" />
  <path class="cls-1" d="M77.46,69.11l-.12.12-.45.44-.28.27Z" />
  <path class="cls-1" d="M73.51,73l-.12.12-.52.52-.27.28Z" />
  <path class="cls-1" d="M69.63,76.92l-.11.12-.57.61-.27.28Z" />
  <path class="cls-1"
    d="M33.13,125.6l-.05.09c-.36.62-.71,1.25-1.06,1.88l-.14.24C32.3,127.07,32.71,126.33,33.13,125.6Z" />
  <path class="cls-1" d="M65.85,81l-.11.12-.63.7c-.09.09-.17.19-.26.29Z" />
  <path class="cls-1" d="M58.55,89.26l-.1.12-.75.9c-.08.09-.15.19-.23.29Z" />
  <path class="cls-1" d="M62.15,85.07l-.1.11-.69.8-.25.29Z" />
  <path class="cls-1" d="M81.51,65.34l-.13.11-.39.36-.29.27Z" />
  <path class="cls-1" d="M10.82,177.1v0c-.32,1.07-.64,2.15-1,3.23l0,.11C10.16,179.35,10.48,178.22,10.82,177.1Z" />
  <path class="cls-1" d="M12.54,171.69v0c-.34,1-.67,2.08-1,3.12l0,.11C11.84,173.86,12.18,172.77,12.54,171.69Z" />
  <path class="cls-1" d="M9.23,182.57v0q-.47,1.68-.9,3.36l0,.09C8.6,184.89,8.9,183.73,9.23,182.57Z" />
  <path class="cls-1" d="M14.38,166.32l0,.05c-.35,1-.69,2-1,3l0,.13C13.65,168.42,14,167.37,14.38,166.32Z" />
  <path class="cls-1" d="M5.17,199.3h0c-.25,1.23-.49,2.45-.72,3.68v0C4.68,201.79,4.92,200.54,5.17,199.3Z" />
  <path class="cls-1" d="M7.75,188.1v0c-.29,1.15-.57,2.31-.84,3.47l0,.07C7.16,190.47,7.45,189.28,7.75,188.1Z" />
  <path class="cls-1" d="M6.4,193.67v0c-.27,1.19-.53,2.39-.78,3.58l0,.06C5.86,196.11,6.12,194.89,6.4,193.67Z" />
  <path class="cls-1"
    d="M27.79,135.4a.25.25,0,0,0,0,.07l-1.1,2.16a1.51,1.51,0,0,1-.11.22C27,137,27.37,136.21,27.79,135.4Z" />
  <path class="cls-1" d="M16.33,161l0,0c-.36.94-.71,1.89-1.06,2.84l-.05.15C15.57,163.05,15.94,162,16.33,161Z" />
  <path class="cls-1" d="M25.27,140.4l0,.07c-.37.76-.74,1.53-1.1,2.29L24,143Z" />
  <path class="cls-1" d="M30.41,130.47a.56.56,0,0,0-.05.08l-1.08,2-.12.23C29.57,132,30,131.24,30.41,130.47Z" />
  <path class="cls-1"
    d="M22.87,145.46l0,.06c-.37.81-.73,1.63-1.1,2.44,0,.07-.06.13-.08.19C22.06,147.25,22.46,146.35,22.87,145.46Z" />
  <path class="cls-1"
    d="M20.58,150.59l0,0c-.37.86-.73,1.72-1.09,2.58l-.07.18C19.78,152.46,20.17,151.52,20.58,150.59Z" />
  <path class="cls-1"
    d="M18.4,155.77l0,.06c-.36.9-.72,1.8-1.07,2.7a1.22,1.22,0,0,1-.07.17C17.62,157.72,18,156.74,18.4,155.77Z" />
  <path class="cls-1" d="M94.12,54.56l-.13.11-.21.17-.29.24Z" />
  <path class="cls-1" d="M2.26,216.45h0c-.18,1.32-.34,2.64-.49,4v0C1.92,219.1,2.08,217.77,2.26,216.45Z" />
  <path class="cls-1" d="M151.28,20.27l-.09,0Z" />
  <path class="cls-1" d="M172.42,12.29Z" />
  <path class="cls-1" d="M205.76,3.92h0Z" />
  <path class="cls-1" d="M156.48,18.1l-.06,0Z" />
  <path class="cls-1" d="M161.73,16.05h0Z" />
  <path class="cls-1" d="M3.1,210.69h0c-.2,1.28-.39,2.58-.57,3.87v0C2.71,213.29,2.89,212,3.1,210.69Z" />
  <path class="cls-1" d="M1.55,222.26h0c-.15,1.34-.28,2.68-.4,4h0C1.27,224.94,1.4,223.6,1.55,222.26Z" />
  <path class="cls-1" d="M223.09,1.45h0Z" />
  <path class="cls-1" d="M229,.89Z" />
  <path class="cls-1" d="M1,228.11H1c-.12,1.35-.21,2.72-.31,4.08h0C.76,230.83.85,229.46,1,228.11Z" />
  <path class="cls-1" d="M217.27,2.14h0Z" />
  <path class="cls-1" d="M211.49,3h0Z" />
  <path class="cls-1" d="M234.85.47Z" />
  <path class="cls-1" d="M146.15,22.55l-.12.05Z" />
  <path class="cls-1" d="M102.93,47.84l-.14.1-.1.07-.29.22Z" />
  <path class="cls-1" d="M107.45,44.62l-.14.1,0,0L107,45Z" />
  <path class="cls-1" d="M98.49,51.15l-.14.11-.15.12-.3.23Z" />
  <path class="cls-1" d="M89.84,58.07l-.13.1-.28.23-.28.25Z" />
  <path class="cls-1" d="M4.07,205h0c-.23,1.26-.44,2.52-.65,3.78v0C3.63,207.52,3.84,206.24,4.07,205Z" />
  <path class="cls-1" d="M112,41.5l-.13.09h0l-.28.19Z" />
  <path class="cls-1" d="M141.08,24.94l-.16.07Z" />
  <path class="cls-1" d="M136.07,27.44l-.19.09Z" />
  <path class="cls-1" d="M131.12,30l-.23.13Z" />
  <path class="cls-1" d="M85.63,61.66l-.13.11-.33.29-.28.26Z" />
  <path class="cls-1" d="M116.71,38.49l-.38.23Z" />
  <path class="cls-1" d="M121.44,35.57l-.32.19Z" />
  <path class="cls-1" d="M126.25,32.75l-.28.16Z" />
  <path class="cls-1" d="M249.05,0h0l-2,0h0Z" />
  <path class="cls-1" d="M242.87.13h0l-2.44.08h0Z" />
  <path class="cls-1" d="M.78,269.77q.45,5.81,1.17,11.54Q1.23,275.58.78,269.77Z" />
  <path class="cls-1" d="M419.38,66.14a251.5,251.5,0,0,1,46.26,57.33h0A251.19,251.19,0,0,0,419.38,66.14Z" />
  <path class="cls-1" d="M9.63,318.93q1.56,5.44,3.35,10.76Q11.19,324.37,9.63,318.93Z" />
  <path class="cls-1"
    d="M114.13,459.87q-3.76-2.43-7.42-5c-.18-.12-.35-.23-.52-.36a10.53,10.53,0,0,1,1.3,1c2.11,1.45,4.25,2.87,6.4,4.26a1.52,1.52,0,0,1,.36.18Z" />
  <path class="cls-1" d="M94.87,446,93.56,445c-1.66-1.33-3.29-2.68-4.91-4.05q2.4,2,4.85,4Z" />
  <path class="cls-1"
    d="M419.38,66.14l-1.29-1.2c-.38-.35-.78-.69-1.17-1-2.59-2.32-5.21-4.6-7.9-6.82l-.59-.47c-2.56-2.11-5.18-4.16-7.83-6.16A248.75,248.75,0,0,0,271.9,1c-4.75-.41-9.53-.7-14.35-.84-1.22,0-2.45-.06-3.68-.09-1.6,0-3.21,0-4.82,0l-2,0c-1.38,0-2.78.05-4.17.09L240.43.2c-1.86.07-3.72.15-5.58.27h-.17Q231.8.65,229,.89h-.14q-2.87.24-5.72.55H223q-2.87.3-5.72.68h-.07q-2.87.38-5.71.81h0q-2.86.43-5.7.95h0a247.67,247.67,0,0,0-33.33,8.37h0c-1.8.59-3.59,1.19-5.38,1.82h0c-1.77.63-3.54,1.27-5.3,1.94h0q-2.62,1-5.22,2l-.07,0q-2.58,1.05-5.13,2.14l-.09,0q-2.53,1.1-5.05,2.24l-.11.06q-2.49,1.14-5,2.33l-.15.08q-2.44,1.18-4.86,2.42l-.19.1q-2.38,1.23-4.75,2.51l-.23.12q-2.34,1.28-4.64,2.59l-.28.16q-2.28,1.31-4.53,2.65l-.32.2c-1.48.89-3,1.8-4.42,2.72l-.37.24q-2.16,1.37-4.29,2.78l-.43.29q-2.1,1.4-4.16,2.83L107,45c-1.36.95-2.7,1.91-4,2.89l-.53.39c-1.31,1-2.62,1.93-3.91,2.92l-.59.45c-1.27,1-2.53,2-3.78,3l-.64.51c-1.22,1-2.44,2-3.65,3l-.69.58c-1.18,1-2.35,2-3.51,3l-.75.65q-1.69,1.5-3.38,3l-.8.74q-1.64,1.5-3.24,3l-.86.83q-1.56,1.5-3.1,3l-.9.92q-1.5,1.5-3,3l-.95,1c-1,1-1.9,2-2.83,3l-1,1.1c-.91,1-1.81,2-2.7,3l-1,1.21c-.86,1-1.72,2-2.57,3l-1.08,1.31c-.81,1-1.63,2-2.43,3-.38.46-.74.94-1.11,1.4-.78,1-1.55,2-2.31,3l-1.15,1.52c-.73,1-1.46,1.94-2.18,2.92L47.11,104c-.69,1-1.38,1.92-2.06,2.89l-1.2,1.73c-.65,1-1.29,1.89-1.93,2.85-.41.61-.81,1.23-1.22,1.85-.61.93-1.22,1.87-1.81,2.8-.42.66-.82,1.32-1.23,2-.57.92-1.15,1.84-1.7,2.76-.42.69-.83,1.39-1.25,2.09-.53.9-1.06,1.8-1.58,2.71-.43.73-.84,1.47-1.25,2.21s-1,1.76-1.48,2.65l-1.25,2.34c-.46.86-.92,1.73-1.37,2.6S27,137,26.54,137.85s-.85,1.69-1.27,2.55S24.45,142.11,24,143s-.79,1.65-1.17,2.49-.82,1.79-1.22,2.69l-1.08,2.44c-.4.93-.79,1.87-1.19,2.8l-1,2.38c-.39,1-.78,1.95-1.16,2.93-.3.77-.61,1.54-.91,2.32-.38,1-.75,2-1.12,3-.28.75-.56,1.51-.83,2.26-.37,1.05-.73,2.1-1.09,3.16-.25.73-.5,1.47-.74,2.21-.36,1.08-.7,2.17-1,3.26-.22.72-.45,1.43-.67,2.15-.34,1.12-.67,2.25-1,3.38-.21.7-.41,1.39-.61,2.09q-.48,1.74-.93,3.48c-.18.68-.37,1.36-.54,2-.31,1.18-.59,2.37-.88,3.56l-.48,2c-.28,1.22-.54,2.44-.8,3.66-.14.66-.29,1.31-.42,2-.26,1.24-.5,2.49-.73,3.74-.13.64-.26,1.28-.37,1.93-.23,1.27-.45,2.55-.66,3.82-.1.63-.21,1.26-.31,1.9-.21,1.3-.4,2.6-.58,3.91l-.27,1.85c-.17,1.32-.33,2.65-.49,4-.07.61-.15,1.22-.22,1.83-.14,1.34-.27,2.68-.4,4-.06.61-.12,1.21-.17,1.82-.12,1.35-.22,2.72-.31,4.08-.05.64-.1,1.27-.14,1.91s-.07,1.1-.1,1.65q-.34,6.09-.4,12.13c0,.31,0,.62,0,.93,0,1.12,0,2.23,0,3.35s0,2.5,0,3.74l.06,1.84q.06,2.06.15,4.11c0,.68.07,1.36.11,2,.07,1.37.16,2.73.26,4.1l.12,1.79q.47,5.81,1.18,11.54c.07.59.15,1.18.23,1.77.18,1.34.36,2.68.56,4l.3,2q.31,2,.66,4l.3,1.73Q5,300.41,6.29,306c.13.57.26,1.12.4,1.68.3,1.31.62,2.61.95,3.91l.48,1.87q.51,1.95,1.05,3.87c.15.55.3,1.11.46,1.65,1,3.63,2.15,7.21,3.35,10.77.18.54.37,1.07.55,1.61.43,1.25.87,2.5,1.32,3.74l.66,1.81c.46,1.24.93,2.46,1.4,3.69.21.53.41,1.07.62,1.6q2.07,5.18,4.34,10.25c.24.54.49,1.07.73,1.6.54,1.17,1.08,2.34,1.64,3.5.28.59.56,1.18.85,1.77.56,1.15,1.13,2.29,1.7,3.42l.81,1.6q1.21,2.37,2.49,4.72l.19.35q1.26,2.31,2.57,4.59c.31.54.62,1.08.94,1.62.61,1.06,1.24,2.12,1.87,3.17l1.08,1.78,1.92,3.08c.35.54.69,1.09,1.05,1.64q1.3,2,2.67,4.06c.22.34.45.67.68,1q1.34,2,2.71,3.9c.4.57.81,1.13,1.22,1.7.66.92,1.33,1.84,2,2.75l1.37,1.83c.67.88,1.34,1.76,2,2.63.45.59.9,1.17,1.36,1.75.86,1.08,1.73,2.16,2.6,3.23L57.92,410c.85,1,1.71,2,2.58,3,.52.61,1,1.21,1.58,1.81l2,2.27,1.73,1.9,2,2.13c.59.62,1.18,1.25,1.78,1.87.74.78,1.49,1.54,2.25,2.31,1,1,2,2,3,2.95.71.7,1.41,1.39,2.12,2.07l2.08,2,1.84,1.71,2.2,2,1.77,1.58,2.31,2L88.65,441c1.62,1.37,3.25,2.71,4.9,4l1.31,1.06,2.69,2.09,1.51,1.15c.91.7,1.83,1.38,2.76,2.07l1.4,1c1,.71,2,1.43,3,2.13l.52.36q3.66,2.56,7.42,5l.11.07c1.14.74,2.28,1.46,3.43,2.18l1,.62c1.13.71,2.27,1.4,3.42,2.08l.86.51,1.33.77a251.27,251.27,0,0,0,47.88,21.31c11.58,1.62,15.88-5.84,15.88-12.22,0-6-.24-25.66-.35-46.55-69.54,15.13-84.19-29.5-84.19-29.5-11.37-28.89-27.76-36.57-27.76-36.57-22.69-15.52,1.71-15.21,1.71-15.21,25.11,1.77,38.32,25.78,38.32,25.78,22.3,38.21,58.49,27.16,72.75,20.78,2.25-16.17,8.73-27.19,15.88-33.44-55.53-6.32-113.9-27.75-113.9-123.55,0-27.29,9.76-49.6,25.76-67.11-2.6-6.3-11.15-31.72,2.42-66.16,0,0,21-6.71,68.76,25.64a236.88,236.88,0,0,1,125.21,0c47.71-32.35,68.68-25.64,68.68-25.64,13.61,34.44,5.05,59.86,2.45,66.16,16,17.51,25.73,39.82,25.73,67.11,0,96-58.48,117.19-114.15,123.35,9,7.77,16.95,23,16.95,46.3,0,33.45-.29,60.37-.29,68.61v10.62A14.18,14.18,0,0,0,326.22,500H420a80,80,0,0,0,80-80V252.2a254.84,254.84,0,0,0-34.36-128.73A251.28,251.28,0,0,0,419.38,66.14Z" />
  <path class="cls-1" d="M408.43,56.61q-3.85-3.15-7.83-6.15Q404.58,53.46,408.43,56.61Z" />
  <path class="cls-1" d="M271.9,1c-4.75-.41-9.53-.7-14.35-.84C262.37.27,267.15.56,271.9,1Z" />
</svg>