<svg id="Layer_1" data-name="Layer 1" xmlns="http://www.w3.org/2000/svg" viewBox="0 0 512 512">
  <defs>
    <style>
      .cls-1 {
        fill: none;
      }

      .cls-2 {
        fill: #e0f0ff;
      }
    </style>
  </defs>
  <path class="cls-1"
    d="M167.36,237.4,60.12,344.64a75.84,75.84,0,0,0,0,107.24h0a75.84,75.84,0,0,0,107.24,0L264.21,355,210.6,301.41l64-64h0A75.84,75.84,0,0,0,167.36,237.4Z" />
  <path class="cls-2"
    d="M167.36,451.88a75.84,75.84,0,0,1-107.24,0h0a75.84,75.84,0,0,1,0-107.24L167.36,237.4a75.84,75.84,0,0,1,107.24,0h0l26.81-26.8h0a113.75,113.75,0,0,0-160.85,0L33.31,317.83a113.76,113.76,0,0,0,0,160.86h0a113.76,113.76,0,0,0,160.86,0L291,381.83,264.21,355Z" />
  <path class="cls-1"
    d="M237.4,274.6h0a75.84,75.84,0,0,0,107.24,0L451.88,167.36a75.84,75.84,0,0,0,0-107.24h0a75.84,75.84,0,0,0-107.24,0L247.79,157l53.61,53.61Z" />
  <path class="cls-2"
    d="M478.69,33.31h0a113.76,113.76,0,0,0-160.86,0L221,130.17,247.79,157l96.85-96.86a75.84,75.84,0,0,1,107.24,0h0a75.84,75.84,0,0,1,0,107.24L344.64,274.6a75.84,75.84,0,0,1-107.24,0h0l-26.81,26.8h0a113.75,113.75,0,0,0,160.85,0L478.69,194.17A113.76,113.76,0,0,0,478.69,33.31Z" />
</svg>