<svg id="Layer_1" data-name="Layer 1" xmlns="http://www.w3.org/2000/svg" viewBox="0 0 500 500"><defs><style>.cls-1{fill:#fff;}</style></defs><path class="cls-1" d="M268.88,225.52v-.77l-.51.77Z"/><path class="cls-1" d="M463.05,0H37C16.54,0,0,16,0,35.82V464.18C0,484,16.54,500,37,500h426.1c20.41,0,36.95-16,36.95-35.82V35.82C500,16,483.46,0,463.05,0ZM151.57,418.55H76V192.77h75.53ZM113.8,162h-.49c-25.34,0-41.73-17.34-41.73-39,0-22.15,16.89-39,42.72-39s41.74,16.86,42.23,39C156.53,144.61,140.14,162,113.8,162Zm310.08,256.6H348.36V297.77c0-30.36-10.93-51.06-38.25-51.06-20.87,0-33.29,14-38.75,27.45-2,4.82-2.49,11.56-2.49,18.31V418.55H193.36s1-204.59,0-225.78h75.52v32c10-15.38,28-37.27,68.05-37.27,49.69,0,86.95,32.27,86.95,101.61Z"/></svg>