<svg id="Layer_1" data-name="Layer 1" xmlns="http://www.w3.org/2000/svg" viewBox="0 0 2400 1600"><defs><style>.cls-1{fill:#444;}.cls-2{fill:#f6bd3a;}.cls-3{fill:#eb8c23;}.cls-4{fill:#e35a2b;}.cls-5{fill:#ef6639;}.cls-6{fill:#a6a7a9;}</style></defs><rect class="cls-1" width="2400" height="1600"/><path class="cls-2" d="M1167,674.63l88.33-51.1,87.07,51.1-87.07,50.27L1167,675.83Z"/><path class="cls-2" d="M901.87,523.18l353.41-200.73,263,149.49-87.42,151.59L1255.28,523.18l-265,150.43Z"/><path class="cls-3" d="M1167,875.36V775.29l87.12-50.39,88.28-50.27V775.29l-87.07,50V925.43L1167,976.73Zm0-200.73-88.3-50-88.39,49V573.34l265-150.54V623.52Zm262.67-101.28V523.18l88.62-51.24.89,100.35-88.31,51.24Z"/><path class="cls-4" d="M1078.65,923.58v-299l87.09-49,1.21,99L1255.28,724V825.3l-88.33-47V976.73ZM945.43,647.51l-43.56-26.08V523.18l88.39,50.17V673.61Zm309.85-124.33V422.8l174.34,100.38,1.2,100.35Z"/><path class="cls-5" d="M593.69,1082.4v191.36H560V1082.4H494.57v-33H659.15v33Z"/><path class="cls-5" d="M770.6,1152.05c2.94,10.13,3,23.91,2.72,25.26l-108.7,32.43c.93,8.07.57,4.8,3.2,10.43,2.63,5.89,5.75,10.9,9.64,14.49a44.56,44.56,0,0,0,12.86,8.37,40.32,40.32,0,0,0,14.7,2.72,47.43,47.43,0,0,0,19.35-3.66,70.58,70.58,0,0,0,17.17-9.7l19.67,20.83a81.38,81.38,0,0,1-25.13,16.43c-9,4.11-20,5.74-33,5.74a65.73,65.73,0,0,1-28-5.74,68.64,68.64,0,0,1-23.2-16.78,82.24,82.24,0,0,1-15.71-27.61c-4-10.86-5.85-23.27-5.85-37.23,0-14.55,1.72-27.25,5.44-38.13a83.18,83.18,0,0,1,15-27.34A63.51,63.51,0,0,1,674,1105.83a75.17,75.17,0,0,1,30.09-5.89c11.92,0,22.27,2.33,31.21,6.78a61.65,61.65,0,0,1,22.09,18.34A75,75,0,0,1,770.6,1152.05ZM739,1159.44c-.32-5.53-4.38-12.5-7.76-17a26.65,26.65,0,0,0-11.88-9.2,45.18,45.18,0,0,0-17.59-2.47c-11,.43-23.27,4.11-29.47,12.73s-8,22.79-7.72,38.18Zm153.72,112.68v-95.4c0-17.29-3.11-29.15-9.23-36S869,1130.48,858,1130.48s-19.56,3.86-25.53,11.06c-6.12,7.73-9,18.13-9,31.79v98.79H790.44V1103.51h33.07v16.13c4.13-6.21,10.21-11,17.81-14.43a59.14,59.14,0,0,1,24.44-5.27q29.63,0,44.76,19.07c10.14,12.52,15.27,31.35,15.27,56.47v96.64Zm168.78-44.37c0,9.32-1.72,17.1-5.2,23.65a47.21,47.21,0,0,1-14,15.28,66.12,66.12,0,0,1-20.09,8.37,124.29,124.29,0,0,1-23.81,2.5,102.74,102.74,0,0,1-34.51-6.35,115.11,115.11,0,0,1-30.16-15.32l15.16-24.8a93.13,93.13,0,0,0,24.62,12.37,78.94,78.94,0,0,0,24.44,4.16q30.81,0,30.85-18.61c0-6.23-3.42-11.7-10.32-15.51a245.54,245.54,0,0,0-28.9-12.72,163.15,163.15,0,0,1-22.78-10.47,60,60,0,0,1-15.47-11.55,36.49,36.49,0,0,1-8.6-13.57,56.88,56.88,0,0,1-2.49-17.31c0-7.72,1.4-14.26,4.19-19.86a36.32,36.32,0,0,1,11.93-14.43,50.25,50.25,0,0,1,18.17-8.82,91.39,91.39,0,0,1,23.25-2.87,96,96,0,0,1,31,5.18,98.48,98.48,0,0,1,26.14,13.43l-14.42,25.22a89.7,89.7,0,0,0-20.94-10.84,76.6,76.6,0,0,0-22.8-3.34c-8.07,0-14,1.4-17.54,4.34A13.32,13.32,0,0,0,973.7,1147a11,11,0,0,0,1.29,5.6,12.21,12.21,0,0,0,4.81,5.66c2.18,2.16,5.5,3.92,9.38,6.11,3.89,1.91,9.23,4.41,15.53,6.91,9.52,3.43,17.74,7.2,24.8,10.19,6.91,3.54,13,7.12,17.84,11.3a40.12,40.12,0,0,1,10.64,14.85c2.45,5.51,3.54,12.35,3.54,20.12Zm153.74-38.93c0,14-1.87,26.45-5.89,37.46a81.56,81.56,0,0,1-15.92,28.06,71.16,71.16,0,0,1-24.13,17.08,76.74,76.74,0,0,1-30.22,6.12,69.71,69.71,0,0,1-29.47-6.54,64.51,64.51,0,0,1-23.43-17.79,78.81,78.81,0,0,1-15.45-27.61c-3.86-10.57-5.65-22.37-5.65-35.86,0-13.77,1.87-26,5.72-36.9a83.35,83.35,0,0,1,15.83-27.56,67.85,67.85,0,0,1,23.83-17.37,73.59,73.59,0,0,1,29.7-6,72.43,72.43,0,0,1,29.85,6.22,75,75,0,0,1,23.9,17.58,81.43,81.43,0,0,1,15.67,27.38,107.29,107.29,0,0,1,5.66,35.76Zm-33.5.92c0-17.21-3.66-30.94-11.26-41.31-7.6-9.81-18.21-15.1-31.57-15.1-12.71,0-22.64,5.29-29.7,15.1-7.28,10.37-10.85,23.65-10.85,40.39,0,18.81,3.95,32.66,11.69,42.44s17.85,14.93,30.32,14.93a33.2,33.2,0,0,0,17.16-4.63,48.89,48.89,0,0,0,13.15-11.9,66.94,66.94,0,0,0,8.27-17.88A78.33,78.33,0,0,0,1181.77,1189.74Zm140.12-49.46a120,120,0,0,0-11.32-4.28,49.7,49.7,0,0,0-14.17-1.64c-10.54,0-18.61,3.58-24.41,11-5.69,7.16-8.63,18.15-8.63,32.14v96.25h-33V1105.37h33v16.13c3.79-5.59,9.22-10.17,15.89-14a47.13,47.13,0,0,1,22.58-5.57,69.27,69.27,0,0,1,17,1.84,34.74,34.74,0,0,1,11.47,5.2Z"/><path class="cls-6" d="M1377.08,1082.4v58.78h64.7v33h-64.7v99.54H1343.7V1049.35h144.73v33.05Zm116.8,191.36V1057.28l33-17.37v233.85Zm201.53-84.94c0,14-1.59,26.45-5.63,37.46a87.42,87.42,0,0,1-16.09,28.06,70.4,70.4,0,0,1-23.83,17.08,78.3,78.3,0,0,1-30.31,6.12,68,68,0,0,1-29.48-6.54,62.56,62.56,0,0,1-23.43-17.79,83.41,83.41,0,0,1-15.73-27.61,110.57,110.57,0,0,1-5.65-35.86,112.92,112.92,0,0,1,5.87-36.9,78.13,78.13,0,0,1,16.06-27.56,68.12,68.12,0,0,1,23.44-17.37,76.19,76.19,0,0,1,30-6,70.78,70.78,0,0,1,29.65,6.22,72.22,72.22,0,0,1,24.1,17.58,78.69,78.69,0,0,1,15.42,27.38c4.12,10.72,5.63,22.9,5.63,35.76Zm-33.18.92c0-17.21-4-30.94-11.29-41.31-7.88-9.81-18.21-15.1-31.56-15.1-12.72,0-22.72,5.29-30,15.1-7.08,10.37-10.65,23.65-10.65,40.39,0,18.81,3.74,32.66,11.78,42.44a36.79,36.79,0,0,0,30.37,14.93,31.6,31.6,0,0,0,16.82-4.63,51.19,51.19,0,0,0,13.46-11.9,70.23,70.23,0,0,0,8.3-17.88A93.63,93.63,0,0,0,1662.23,1189.74Zm196.36,84h-28.27l-22.77-84.94c-1.9-6.41-3.37-12.87-4.79-19.77-1.66-6.82-2.83-12.18-4-16.21q-1.63,8.17-3.51,16.3c-1.63,6.82-3.41,13.65-4.82,20.14l-22.56,84.48h-28.45l-46-168.39H1726l20.13,81.76c1.55,6.72,3.07,13.63,4.53,20.5s2.64,12.42,3.85,16.53l4.18-16.53c1.42-6.87,3.13-13.78,5-20.5l22.59-81.76h26.3l23.08,82.21c1.63,6.57,3.07,13.19,4.75,20s3,12.43,4,16.54c1.19-4.11,2.53-9.69,3.94-16.67,1.34-6.73,2.76-13.64,4.44-20.37l20.14-81.76h32.58Z"/></svg>