<svg xmlns="http://www.w3.org/2000/svg" id="Layer_1" data-name="Layer 1" viewBox="0 0 500 500"><defs><style>.cls-1{fill:#fff}</style></defs><path d="m29.23 132.63-.9 1.7-.25.5c.45-.87.91-1.74 1.37-2.61ZM6.52 193.08l-.27 1.17c.35-1.5.71-3 1.08-4.49-.28 1.1-.55 2.24-.81 3.32m-5.14 30.61c0 .34-.08.68-.11 1-.1 1-.17 1.92-.26 2.88.13-1.42.26-2.84.41-4.25-.01.14-.03.26-.04.37m10.25-49.22c-.23.74-.47 1.48-.69 2.22-.07.2-.12.41-.18.61.4-1.34.82-2.68 1.25-4-.13.38-.26.77-.38 1.17M.78 230.18c0 .45-.06.91-.1 1.36l-.12 2c.09-1.36.18-2.73.29-4.09-.02.21-.04.47-.07.73m20.41-81.01c-.2.45-.39.9-.59 1.34l1.09-2.46c-.16.38-.34.75-.5 1.12m-1.05 2.4-1.08 2.57-.6 1.45c.57-1.37 1.13-2.74 1.72-4.11Zm12.44-25.03c-.1.18-.2.37-.31.55s-.26.49-.4.73c.24-.42.47-.85.71-1.28m-15.91 33.57-.29.75c.34-.89.69-1.77 1-2.65-.21.64-.47 1.27-.71 1.9M5.32 198.53 5 200.24q-.5 2.49-1 5c-.09.5-.17 1-.26 1.5-.24 1.4-.48 2.81-.7 4.22l-.06.42q1.31-8.38 3.16-16.64c-.28 1.26-.56 2.52-.82 3.79m-2.5 13.84c-.22 1.45-.41 2.9-.61 4.35.24-1.74.48-3.47.74-5.19-.04.28-.09.56-.13.84m-.73 5.25L1.91 219c-.12 1-.22 1.9-.32 2.85.17-1.52.34-3 .54-4.57-.01.14-.03.24-.04.34m11.61-49.4c-.36 1-.71 2.09-1.06 3.14l-.12.37c.43-1.32.88-2.64 1.34-4Zm1.92-5.36c-.3.81-.59 1.61-.88 2.42-.12.32-.23.65-.34 1 .47-1.33.95-2.64 1.44-4ZM127.3 467.84c-1.18-.65-2.33-1.33-3.49-2 1.19.68 2.32 1.34 3.49 2M0 250v1.15-1.64zm.11-7.09v3.05c0-1.2 0-2.4.07-3.6-.05.18-.07.37-.07.55m26.02-104.26-1 1.93a1.2 1.2 0 0 1-.1.2c.48-1 1-1.94 1.46-2.91Zm-2.24 4.6-.9 1.93-.06.15c.56-1.22 1.13-2.44 1.71-3.64ZM9.74 180.7c-.21.73-.41 1.47-.62 2.2.39-1.38.79-2.75 1.19-4.12-.19.67-.39 1.29-.57 1.92M250 500h1.59a255.1 255.1 0 0 1-124.24-32.13A248.76 248.76 0 0 0 250 500m217.42-373.46.28.47ZM8.19 186.36c-.17.66-.35 1.32-.52 2 0 .09 0 .19-.07.29.36-1.44.75-2.87 1.13-4.3ZM.36 236.71v.55c0 1-.07 1.94-.11 2.91.07-1.57.14-3.14.23-4.72-.07.42-.1.84-.12 1.26M500 250c0-1.9 0-3.79-.08-5.68v-1.4c-.05-1.87-.12-3.74-.21-5.6v-.64c-.09-1.69-.2-3.38-.32-5.07 0-.47-.07-.94-.11-1.41q-.21-2.72-.48-5.43c0-.36-.08-.72-.12-1.09-.16-1.52-.33-3-.52-4.56l-.18-1.49c-.23-1.74-.47-3.47-.73-5.2-.07-.49-.15-1-.23-1.46-.22-1.38-.45-2.76-.68-4.13-.1-.53-.18-1.05-.28-1.58-.3-1.66-.62-3.31-.95-4.95-.12-.6-.24-1.19-.37-1.78-.26-1.25-.53-2.5-.81-3.74-.13-.56-.25-1.13-.38-1.69-.37-1.57-.75-3.13-1.15-4.69-.17-.68-.35-1.37-.53-2.05-.29-1.12-.6-2.24-.91-3.36-.22-.8-.44-1.6-.67-2.4-.38-1.28-.76-2.57-1.15-3.84-.23-.77-.47-1.53-.71-2.29-.32-1-.64-2-1-3s-.74-2.21-1.12-3.31c-.33-.94-.66-1.88-1-2.82s-.6-1.65-.9-2.48-.66-1.74-1-2.61c-.49-1.28-1-2.56-1.51-3.83-.3-.74-.6-1.48-.91-2.22s-.73-1.76-1.1-2.63l-1-2.2c-.63-1.41-1.26-2.81-1.91-4.21-.28-.62-.57-1.23-.86-1.84-.43-.91-.86-1.83-1.3-2.73L474 139q-1.17-2.35-2.38-4.68l-.86-1.63c-.78-1.45-1.58-2.88-2.38-4.32A255.1 255.1 0 0 1 500 251.61ZM111 42.18l-1.5 1-1.58 1.1q1.83-1.26 3.67-2.49Zm5.15-3.35-1.27.8-2.32 1.53q1.91-1.26 3.85-2.49Zm4.59-2.83-1.24.76-2.36 1.47q2.07-1.3 4.17-2.57Zm-14.99 9.8-1.39 1-1 .76c1.18-.86 2.36-1.7 3.55-2.54ZM54 94.81c-.46.57-.91 1.15-1.36 1.72l-.92 1.2c.9-1.16 1.8-2.32 2.72-3.47Zm4-4.9c-.44.53-.88 1-1.31 1.58s-1 1.23-1.48 1.84c.94-1.17 1.9-2.35 2.87-3.5a.6.6 0 0 0-.08.08m3.68-4.32L60 87.49l-1.32 1.61c1-1.22 2.06-2.43 3.11-3.63Zm6.85-7.53q-1.47 1.56-2.92 3.13l-1.44 1.59-2.07 2.34q3.5-4 7.16-7.82c-.26.25-.49.5-.73.76M101.34 49l-1.5 1.12c-.37.27-.72.55-1.08.83 1.15-.88 2.32-1.75 3.49-2.61ZM50.06 99.91l.94-1.16c-.35.39-.65.77-.94 1.16m92.16-75.53-1.36.65q-2.22 1.08-4.41 2.19l-1 .53c-1.26.65-2.51 1.31-3.76 2l-1.27.68q-2.08 1.14-4.15 2.33l-1.44.83c-1.13.65-2.24 1.31-3.35 2a248 248 0 0 1 24.38-12.87c-1.23.52-2.44 1.08-3.64 1.66M72.28 74.19c-.78.79-1.55 1.59-2.32 2.39-.17.16-.33.33-.49.5 1.15-1.19 2.3-2.37 3.47-3.54Zm19.26-17.55-1.47 1.22-.24.2c1.16-1 2.33-1.92 3.5-2.86-.6.48-1.2.95-1.79 1.44m4.97-3.97L95 53.85l-.74.6c1.15-.91 2.3-1.82 3.47-2.72Zm-13.7 11.48c-.5.45-1 .89-1.49 1.35q-1.605 1.5-3.18 3l-.83.8q3.82-3.66 7.81-7.15Zm4.5-3.96-1.78 1.54-.06.06q1.8-1.57 3.62-3.1Zm-10.65 9.69c-.87.83-1.73 1.67-2.58 2.51l-.58.61c1.19-1.18 2.38-2.35 3.59-3.51ZM153 19.52l-.82.35-.72.31c1.37-.59 2.76-1.16 4.14-1.72Zm29.22-10.21-1.2.34c-.74.21-1.47.44-2.21.66 1.38-.41 2.75-.81 4.14-1.2ZM188 7.75l-.7.18c-1 .26-2 .54-3 .81 1.44-.39 2.88-.77 4.33-1.14ZM218.69 2l-1.13.15h-.25c1.53-.2 3.07-.38 4.61-.55ZM237.6.31l-1.08.06-1.08.07c1.58-.09 3.17-.16 4.75-.23Zm-12.6.93-.92.09-.79.09c1.43-.15 2.86-.28 4.29-.41ZM250 0h1.15Zm-37.88 2.86-.68.11c-1.72.26-3.42.54-5.13.84l-.82.15q-2.66.46-5.28 1l-1.21.25c-1.45.3-2.9.62-4.35.94q10.92-2.45 22.13-3.95c-1.55.21-3.11.42-4.66.66M244.17.08h-1.8c1.21 0 2.42 0 3.63-.08-.62.07-1.23.06-1.83.08m-50.33 6.26-.92.22-3.18.77c1.55-.38 3.11-.76 4.68-1.11ZM230.86.73h-.39c-.36 0-.72.07-1.08.09 1.37-.11 2.75-.2 4.13-.29-.89.08-1.78.13-2.66.2m-72.03 16.42-1.24.5-.74.3c1.34-.54 2.68-1.06 4-1.57Zm-10.92 4.59-1.26.57-.5.23c1.46-.67 2.92-1.31 4.39-1.95Zm16.85-6.82-1.23.45-1.24.47c1.31-.49 2.64-1 4-1.45Zm5.49-1.92-.56.18-1.92.68c1.32-.46 2.64-.91 4-1.35Zm5.81-1.87-1.1.34-1.68.55c1.34-.43 2.68-.86 4-1.27ZM.47 234.78v.67c0-.65.08-1.31.12-2-.06.47-.1.9-.12 1.33m21.22-86.73c.41-.91.82-1.82 1.24-2.72-.42.9-.83 1.81-1.24 2.72M.13 242.36c0-.73.06-1.46.08-2.19-.02.73-.06 1.46-.08 2.19m26.4-104.49c.51-1 1-2 1.55-3-.52.97-1.08 1.98-1.55 3M0 249.51v-3.55zm24.64-107.82c.15-.3.29-.61.43-.91-.14.3-.28.61-.43.91m-4.46 9.79.42-1ZM.85 229.4c.05-.6.11-1.2.16-1.81-.01.61-.11 1.21-.16 1.81M3 211.53v-.14Zm4.33-21.77.27-1.12Zm6.53-21.99.54-1.52Zm-3.56 11.05c.15-.5.3-1 .46-1.52-.16.51-.31 1.02-.46 1.52m1.7-5.53.51-1.56Zm-3.27 11.05c.13-.46.25-.93.38-1.4-.11.47-.25.94-.38 1.4m-6.6 32.98c0-.2.06-.4.08-.6-.02.2-.05.4-.08.6m-.71 6.02c.05-.48.11-1 .17-1.45-.06.49-.12.97-.17 1.45m14.42-61.05.54-1.43Zm150.41-147.9 1.52-.53ZM216.78 2.2l.53-.07ZM227.62 1l1.77-.16Zm-38.97 6.6 1.09-.27Zm33.27-6.02 1.41-.16Zm-66.31 16.88 1.24-.51Zm5.26-2.08 1.42-.54ZM183 9.11l1.37-.37Zm-11.26 3.4 1.54-.49Zm5.57-1.76 1.5-.44Zm17.11-4.53.27-.07ZM0 251.15a247.78 247.78 0 0 0 123.81 214.69A249.87 249.87 0 0 1 0 251.15m6.25-56.9c0 .17-.07.33-.11.49.05-.19.08-.34.11-.49M234.78.47l-1.26.09 1.92-.12ZM18.46 155.59c-.35.88-.7 1.75-1 2.62l.69-1.75c.08-.29.2-.58.31-.87M246 .05h3.52c-1.19-.05-2.37-.05-3.52 0M29.45 132.22q1.18-2.21 2.42-4.4-1.23 2.18-2.42 4.4M240.19.21l2.16-.08ZM467.69 127l.72 1.32ZM72.94 73.54l.56-.54Zm-3.68 3.76.21-.22Zm7.83-7.84.22-.21Zm8.03-7.36.35-.31ZM54.45 94.26l.75-.93Zm96.09-73.67.93-.41Zm-61.45 38.1.74-.63ZM58.07 89.83c.2-.25.41-.49.61-.73-.2.24-.41.48-.61.73m3.72-4.36.31-.35ZM51 98.75l.78-1Zm70.31-63.11.16-.09ZM93.33 55.2l.93-.75Zm18.27-13.4c.31-.22.64-.42 1-.64-.36.22-.69.42-1 .64m34.25-19.12.3-.14Zm-29.44 15.99.73-.46ZM106.87 45l1.06-.73Zm-4.62 3.34 1.07-.78Zm-4.52 3.39 1-.78Z" class="cls-1"/><path d="m468.41 128.34-.72-1.32-.28-.47-196.32 194.12a30 30 0 0 1-42.18 0L32.58 126.54c-.24.43-.47.86-.71 1.28q-1.23 2.19-2.42 4.4c-.46.87-.92 1.74-1.37 2.61s-1 2-1.55 3-1 1.94-1.46 2.91c-.14.3-.28.61-.43.91-.58 1.2-1.15 2.42-1.71 3.64-.42.9-.83 1.81-1.24 2.72l-1.09 2.46-.42 1c-.59 1.37-1.15 2.74-1.72 4.11-.11.29-.23.58-.35.87l-.69 1.75c-.35.88-.7 1.76-1 2.65l-.54 1.43c-.49 1.32-1 2.63-1.44 4l-.54 1.52c-.46 1.32-.91 2.64-1.34 4l-.56 1.49c-.43 1.33-.85 2.67-1.25 4-.16.51-.31 1-.46 1.52-.4 1.37-.8 2.74-1.19 4.12-.13.47-.25.94-.38 1.4-.38 1.43-.77 2.86-1.13 4.3l-.27 1.12c-.37 1.49-.73 3-1.08 4.49 0 .15-.06.3-.1.45Q4.3 203 3 211.39v.14c-.26 1.72-.5 3.45-.74 5.19 0 .2 0 .4-.08.6-.2 1.52-.37 3.05-.54 4.57-.06.49-.12 1-.17 1.45-.15 1.41-.28 2.83-.41 4.25-.06.61-.16 1.21-.21 1.81-.11 1.36-.2 2.73-.29 4.09 0 .65-.09 1.31-.12 2-.09 1.51-.16 3.11-.23 4.68 0 .73-.06 1.46-.08 2.19 0 1.2 0 2.4-.07 3.6s0 2.36 0 3.55v1.64a249.87 249.87 0 0 0 123.75 214.69c1.16.67 2.31 1.35 3.49 2A255.1 255.1 0 0 0 251.59 500h168.72A80 80 0 0 0 500 420.3V251.61a255.1 255.1 0 0 0-31.59-123.27" class="cls-1"/><path d="M257 290.66 449.94 99.91c-.84-1.11-1.69-2.21-2.54-3.31l-1.4-1.81c-.87-1.1-1.75-2.2-2.65-3.28-.44-.55-.9-1.09-1.35-1.63-.66-.79-1.33-1.58-2-2.36s-1.13-1.33-1.71-2c-.8-.92-1.61-1.83-2.43-2.74q-.72-.81-1.47-1.62c-.95-1-1.91-2.08-2.89-3.11-.48-.51-1-1-1.46-1.52-.75-.78-1.51-1.55-2.27-2.32l-1.87-1.88c-.84-.83-1.68-1.64-2.52-2.46l-1.51-1.45q-1.58-1.47-3.16-2.93l-1.52-1.38-2.67-2.37-1.85-1.6Q411.32 59 410 57.88l-1.5-1.25c-1.14-.93-2.28-1.85-3.44-2.77l-1.53-1.2c-1.08-.84-2.17-1.68-3.27-2.51L398.63 49c-1-.73-2-1.45-3-2.17l-1.42-1c-1.24-.87-2.49-1.74-3.74-2.59l-1.52-1c-1.28-.86-2.56-1.71-3.86-2.54-.42-.28-.85-.55-1.28-.82-1.1-.7-2.21-1.39-3.32-2.07l-1.24-.81c-1.34-.81-2.7-1.61-4.06-2.4l-1.46-.84c-1.37-.78-2.75-1.56-4.14-2.31-.42-.24-.86-.47-1.29-.7-1.23-.66-2.48-1.32-3.73-2l-1-.54q-2.19-1.11-4.4-2.18l-1.38-.67q-2.19-1.05-4.41-2.06l-1.28-.57c-1.41-.63-2.82-1.26-4.25-1.86l-.86-.37c-1.51-.64-3-1.25-4.55-1.86l-1.26-.5c-1.55-.61-3.12-1.2-4.69-1.78l-1.24-.45c-1.63-.59-3.27-1.18-4.91-1.73l-.59-.2c-1.55-.52-3.11-1-4.68-1.52l-1.11-.35q-2.46-.75-4.95-1.47l-1.21-.34q-2.55-.72-5.11-1.38l-.69-.17c-1.62-.42-3.24-.81-4.87-1.19l-.93-.22c-1.73-.4-3.46-.77-5.2-1.13L299.79 5c-1.76-.36-3.51-.69-5.28-1l-.83-.15c-1.7-.3-3.4-.58-5.11-.84l-.69-.11q-2.72-.42-5.44-.76L281.31 2q-2.7-.33-5.42-.62l-.89-.14c-1.81-.18-3.61-.34-5.43-.48h-.39C267.3.61 265.41.5 263.52.4L262.4.31q-2.76-.13-5.55-.21h-1c-1.56 0-3.12 0-4.68-.06h-5.19c-1.17 0-2.42 0-3.63.08l-2.16.08c-1.58.07-3.17.14-4.75.23l-1.92.12c-1.38.09-2.76.18-4.13.29l-1.77.16c-1.43.13-2.86.26-4.29.41l-1.41.16c-1.54.17-3.08.35-4.61.55l-.53.07q-11.21 1.5-22.09 4l-.27.07c-1.57.35-3.13.73-4.68 1.11l-1.09.27c-1.45.37-2.89.75-4.33 1.14l-1.32.33c-1.39.39-2.76.79-4.14 1.2l-1.5.44c-1.35.41-2.69.84-4 1.27l-1.54.49c-1.33.44-2.65.89-4 1.35l-1.52.53c-1.32.48-2.65 1-4 1.45l-1.42.54c-1.34.51-2.68 1-4 1.57l-1.24.51c-1.38.56-2.77 1.13-4.14 1.72l-.93.41c-1.47.64-2.93 1.28-4.39 1.95l-.3.14a248 248 0 0 0-24.38 12.87l-.16.09q-2.1 1.26-4.17 2.57l-.73.46q-1.95 1.23-3.85 2.49c-.32.22-.65.42-1 .64q-1.84 1.23-3.67 2.49l-1.06.73c-1.19.84-2.37 1.68-3.55 2.54l-1.07.78c-1.17.86-2.34 1.73-3.49 2.61l-1 .78c-1.17.9-2.32 1.81-3.47 2.72l-.93.75c-1.17.94-2.34 1.9-3.5 2.86l-.74.63q-1.82 1.53-3.62 3.1l-.35.31q-4 3.5-7.81 7.15l-.22.21c-1.21 1.16-2.4 2.33-3.59 3.51l-.56.57a290 290 0 0 0-3.47 3.54l-.21.22q-3.66 3.83-7.16 7.82l-.31.35c-1 1.2-2.08 2.41-3.11 3.63-.2.24-.41.48-.61.73-1 1.15-1.93 2.33-2.87 3.5l-.75.93c-.92 1.15-1.82 2.31-2.72 3.47l-.78 1-.87 1.17L243 290.66a10 10 0 0 0 14 0" class="cls-1"/></svg>