<svg xmlns="http://www.w3.org/2000/svg" id="Layer_1" data-name="Layer 1" viewBox="0 0 500 500"><defs><style>.cls-1{fill:#fff}</style></defs><path d="m124.26 466.09.03.02Zm-89.54-343.2a2 2 0 0 0 .14-.25c-.6 1-1.19 2-1.78 3l.05-.09c.52-.86 1.06-1.76 1.59-2.66m2.94-4.84.16-.26c-.64 1-1.29 2.06-1.92 3.1l.06-.09c.56-.92 1.13-1.8 1.7-2.75m-5.78 9.76.14-.24c-.56 1-1.12 2-1.66 3a1 1 0 0 1 .05-.08c.48-.91.98-1.79 1.47-2.68m8.83-14.54.17-.26c-.69 1-1.38 2.1-2.05 3.16l.06-.09c.6-.94 1.21-1.87 1.82-2.81m9.75-13.86c.08-.09.15-.19.22-.28-.83 1.09-1.66 2.19-2.47 3.3l.07-.1c.72-.98 1.45-1.95 2.18-2.92m-21.3 33.39.12-.23c-.52 1-1 1.93-1.53 2.9a.3.3 0 0 1 0-.07c.49-.87.95-1.73 1.41-2.6m14.7-24.22.18-.28c-.73 1.07-1.46 2.14-2.18 3.22l.06-.1c.64-.95 1.29-1.9 1.94-2.84m3.25-4.58a3 3 0 0 0 .2-.28c-.78 1.09-1.56 2.17-2.33 3.27l.08-.1c.67-1.02 1.36-1.98 2.05-2.89m6.81-9 .22-.29c-.88 1.11-1.75 2.22-2.61 3.34l.08-.1c.76-1.04 1.53-2.02 2.31-2.95m7.19-8.73.25-.29q-1.47 1.68-2.91 3.4l.1-.12c.84-1 1.7-2 2.56-2.99M15.2 164.06l.05-.15c-.3.82-.6 1.64-.89 2.46v-.05c.28-.75.56-1.5.84-2.26m-1.91 5.42v-.13c-.27.79-.54 1.58-.8 2.37.29-.72.51-1.51.8-2.24m3.94-10.78a1 1 0 0 0 .07-.17c-.33.85-.67 1.69-1 2.54.32-.83.63-1.6.93-2.37M11.5 175v-.11l-.72 2.3c.22-.81.49-1.52.72-2.19m7.89-21.6.07-.18c-.36.87-.73 1.73-1.09 2.61v-.06c.35-.77.69-1.58 1.02-2.37m-9.56 27.08v-.11c-.21.75-.43 1.49-.64 2.23.23-.73.44-1.42.64-2.12M24 143l.1-.21c-.44.92-.87 1.84-1.3 2.76v-.06q.675-1.29 1.2-2.49m-2.34 5.15c0-.06.05-.12.08-.19-.4.9-.8 1.79-1.19 2.68.38-.87.74-1.64 1.11-2.49m4.88-10.3a1.5 1.5 0 0 0 .11-.22c-.47 1-.95 1.89-1.41 2.84v-.07Zm38.31-55.79c.09-.1.17-.2.26-.29-1 1.13-2 2.26-3.06 3.41l.1-.11c.85-1.01 1.79-2.02 2.7-3.01m51.48-43.34.38-.23c1.46-.93 2.93-1.83 4.41-2.73l.32-.19q2.25-1.35 4.53-2.66l.28-.16c1.54-.88 3.08-1.74 4.64-2.58l.23-.13c1.58-.85 3.16-1.69 4.76-2.51l.19-.09q2.4-1.25 4.85-2.43l.16-.07q2.46-1.2 4.95-2.34l.12-.05c1.67-.77 3.35-1.51 5-2.24h.09c1.7-.73 3.41-1.45 5.14-2.14h.06q2.6-1.05 5.22-2c1.76-.66 3.53-1.31 5.3-1.93q2.67-.93 5.37-1.82a249 249 0 0 1 33.33-8.37c1.9-.34 3.79-.65 5.7-.95q2.85-.45 5.71-.82a248.5 248.5 0 0 0-105.16 39.31l.13-.09c1.42-.94 2.85-1.86 4.29-2.78M107 45l.29-.21q-2.25 1.57-4.47 3.19l.14-.1q1.98-1.5 4.04-2.88m4.62-3.21.28-.19q-2.31 1.53-4.59 3.12l.14-.1c1.38-.95 2.77-1.9 4.17-2.83M237.14.33l-2.29.14ZM102.4 48.23l.29-.22q-2.18 1.6-4.34 3.25l.14-.11c1.29-.98 2.6-1.96 3.91-2.92M76.61 69.94l.28-.27c-1.18 1.13-2.34 2.27-3.5 3.42l.12-.12c1.02-.97 2.06-2.03 3.1-3.03m4.09-3.86.29-.27c-1.23 1.13-2.44 2.27-3.65 3.42l.12-.12c1.07-1.02 2.16-2.03 3.24-3.03m-8.1 7.81.27-.28c-1.13 1.13-2.24 2.27-3.35 3.43l.11-.12q1.47-1.53 2.97-3.03m-3.92 4.04.27-.28c-1.08 1.13-2.15 2.26-3.21 3.42l.11-.12c.93-1.02 1.88-2.02 2.83-3.02m24.81-22.85.29-.24q-2.06 1.63-4.07 3.33l.13-.1q1.8-1.51 3.65-2.99m4.41-3.47.3-.23Q96.07 53 94 54.67l.13-.11q1.87-1.5 3.77-2.95m-8.75 7.04.28-.25q-2 1.66-3.93 3.37l.13-.11c1.16-1.02 2.37-2.02 3.52-3.01m-4.26 3.67.28-.26c-1.27 1.12-2.54 2.25-3.79 3.39l.13-.11c1.11-1.02 2.24-2.02 3.38-3.02M57.47 90.57c.08-.1.15-.2.23-.29q-1.39 1.72-2.76 3.37l.09-.11c.8-1 1.62-1.99 2.44-2.97M6.88 191.66v-.07l-.51 2.1c.18-.69.35-1.36.51-2.03M.66 232.19c0 .48-.08 1-.11 1.46 0-.49.08-1 .11-1.46m4.93-34.86v-.06l-.44 2Zm-2.17 11.46c-.11.65-.22 1.29-.32 1.94.1-.67.21-1.3.32-1.94m-1.65 11.64c-.07.62-.15 1.23-.22 1.85.07-.63.14-1.28.22-1.85m.75-5.83c-.09.63-.19 1.26-.27 1.88.09-.65.19-1.26.27-1.88M4.44 203c-.13.66-.26 1.33-.38 2 .13-.67.26-1.32.38-2m3.85-16.95v-.09c-.2.72-.39 1.44-.58 2.16Zm-7.15 40.24c-.06.61-.13 1.22-.18 1.83H1c0-.62.09-1.22.14-1.83M247 0c-1.39 0-2.78 0-4.17.09C244.26.08 245.65.06 247 0m-6.57.21h-1.2zm259.1 234.44q.23 3.81.35 7.65-.12-3.84-.35-7.65m-.53-7.58c.23 2.52.42 5 .58 7.58-.21-2.54-.4-5.06-.58-7.58m-1-8.91a248.3 248.3 0 0 0-32.36-94.7 248.3 248.3 0 0 1 32.36 94.7" class="cls-1"/><path d="M1.14 226.29c0 .61-.12 1.21-.17 1.82.03-.61.12-1.21.17-1.82M50.46 99.41c-.73 1-1.46 1.94-2.18 2.92.72-.98 1.45-1.95 2.18-2.92m14.39-17.35q-1.365 1.5-2.7 3c.85-1 1.79-2.01 2.7-3m3.83-4.13c-1 1-1.9 2-2.83 3 .93-1 1.88-2 2.83-3M140.92 25q-2.44 1.18-4.85 2.43 2.4-1.23 4.85-2.43m-87 70q-1.17 1.5-2.31 3c.76-1.09 1.53-2.07 2.31-3m97.27-74.69c-1.69.73-3.37 1.47-5 2.24 1.63-.77 3.31-1.55 5-2.24M57.47 90.57c-.82 1-1.64 2-2.44 3 .8-1.03 1.62-2.02 2.44-3M240.43.21h-1.2c-.7 0-1.4 0-2.09.08l-2.29.14c1.86-.07 3.72-.15 5.58-.22m-84.01 17.92c-1.73.69-3.44 1.41-5.14 2.14 1.72-.73 3.41-1.45 5.14-2.14M146 22.6q-2.49 1.14-4.95 2.34 2.49-1.2 4.95-2.34m15.7-6.54q-2.62 1-5.22 2 2.6-1.06 5.22-2M1.77 220.43c-.08.61-.15 1.22-.22 1.83.07-.61.14-1.26.22-1.83M61.11 86.27c-.86 1-1.72 2-2.56 3 .84-1.01 1.7-2.01 2.56-3M0 250v2.16-3.35zM97.9 51.61q-1.91 1.45-3.78 3c1.25-1.04 2.51-2.03 3.78-3m-4.41 3.47q-1.84 1.47-3.65 3 1.8-1.52 3.65-3m27.63-19.32c-1.48.9-3 1.8-4.41 2.73 1.46-.93 2.93-1.83 4.41-2.73M107 45q-2 1.42-4 2.88 1.94-1.5 4-2.88m-4.6 3.23c-1.31 1-2.62 1.94-3.91 2.92 1.29-.98 2.6-1.96 3.91-2.92M72.6 73.89l-3 3zm35.63 382.62a5.59 5.59 0 0 0 5.41 3.2.6.6 0 0 1 .25.06c-2.15-1.39-4.29-2.81-6.4-4.26a3.1 3.1 0 0 1 .74 1M73.51 73c1-1 2.06-2 3.1-3-1.04.94-2.08 2-3.1 3m7.19-6.92c-1.08 1-2.17 2-3.24 3zm50.19-35.91c-1.56.84-3.1 1.7-4.64 2.58 1.54-.88 3.08-1.75 4.64-2.58M89.15 58.65c-1.18 1-2.36 2-3.52 3 1.16-1.01 2.37-2.01 3.52-3M0 247.88q.06-6 .41-12.13-.32 6.03-.41 12.13M126 32.91q-2.28 1.31-4.53 2.66 2.22-1.35 4.53-2.66M.55 233.65v.45c0-.64.09-1.27.14-1.91-.06.49-.11.97-.14 1.46m5.04-36.32-.42 2Zm20.95-59.48-1.27 2.55Zm-9.31 20.85c-.3.77-.61 1.54-.9 2.32.29-.78.6-1.55.9-2.32M247 0c-1.39 0-2.78 0-4.17.09 1.43 0 2.83-.03 4.17-.09M24 143c-.39.83-.79 1.66-1.17 2.49.42-.86.82-1.69 1.17-2.49M4.44 203c-.12.64-.25 1.29-.37 1.93.12-.6.25-1.25.37-1.93m42.67-99c-.69 1-1.38 1.92-2 2.89.62-1.02 1.31-1.98 2-2.89m-27.72 49.4c-.33.79-.67 1.58-1 2.37.33-.77.67-1.58 1-2.37m-9.56 27.08c-.2.7-.41 1.39-.6 2.09.19-.7.4-1.39.6-2.09M11.5 175c-.23.72-.46 1.43-.68 2.15.18-.77.45-1.48.68-2.15m488.38 67.3q-.12-3.84-.35-7.65c-.16-2.54-.35-5.06-.58-7.58s-.5-5-.8-7.52c-.06-.46-.1-.93-.16-1.39a248.3 248.3 0 0 0-32.35-94.69A254.84 254.84 0 0 1 500 252.2V250c0-2.58 0-5.14-.12-7.7M8.29 186.05l-.54 2Zm5-16.57c-.25.73-.51 1.47-.75 2.21.24-.69.46-1.48.75-2.21m1.91-5.42c-.28.76-.56 1.51-.82 2.26.26-.75.54-1.5.82-2.26m-8.32 27.6c-.16.67-.33 1.34-.48 2 .15-.66.32-1.33.48-2m14.78-43.51c-.37.81-.73 1.62-1.08 2.44.35-.82.71-1.59 1.08-2.44m109.07 321.59c2.8 1.52 5.63 3 8.49 4.41l.33.17c1.39.68 2.78 1.36 4.19 2l.15.07A247 247 0 0 0 171 487.22c.41.08.81.14 1.2.2a251.3 251.3 0 0 1-47.88-21.31c2.1 1.24 4.24 2.45 6.41 3.63M3.42 208.79c-.11.64-.22 1.27-.32 1.9.1-.63.21-1.26.32-1.9m34.24-90.74c-.57.91-1.14 1.83-1.7 2.75.56-.92 1.13-1.8 1.7-2.75M205.75 3.92a249 249 0 0 0-33.33 8.37 249 249 0 0 1 33.33-8.37M31.88 127.81c-.49.89-1 1.77-1.47 2.66.48-.89.98-1.78 1.47-2.66M172.42 12.29q-2.7.89-5.37 1.82 2.67-.93 5.37-1.82m-137.7 110.6c-.53.9-1.07 1.8-1.59 2.71.52-.91 1.05-1.81 1.59-2.71m5.99-9.62c-.61.94-1.22 1.87-1.82 2.81.6-.94 1.21-1.87 1.82-2.81M253.87 0h-4.82zm-42.41 3c-1.91.3-3.8.61-5.7.95 1.9-.37 3.79-.68 5.7-.95m5.74-.85q-2.87.38-5.71.82 2.85-.45 5.71-.82M2.52 214.6c-.08.62-.18 1.23-.26 1.85.08-.62.18-1.23.26-1.85m26.64-81.8c-.46.87-.92 1.73-1.37 2.6.45-.87.91-1.73 1.37-2.6M167 14.12c-1.77.62-3.54 1.27-5.3 1.93 1.79-.66 3.56-1.31 5.3-1.93M240.43.21l2.44-.08ZM247 0h2ZM122.1 464.83c-1.15-.68-2.29-1.38-3.42-2.08l-1-.63c-1.14-.71-2.29-1.43-3.42-2.17a1.5 1.5 0 0 0-.36-.18q5.1 3.27 10.37 6.32l-1.3-.75ZM271.9 1a248.66 248.66 0 0 1 128.7 49.46q4 3 7.83 6.15l.59.48q4 3.31 7.9 6.82c.39.34.78.68 1.17 1l1.29 1.19a251.2 251.2 0 0 1 46.25 57.32A247.75 247.75 0 0 0 253.87 0c1.23 0 2.46 0 3.68.09 4.82.18 9.6.47 14.35.91M29.28 132.57l1.08-2Zm2.72-5c.35-.63.7-1.26 1.06-1.88-.34.62-.69 1.25-1.06 1.88m-7.86 15.19c.36-.76.73-1.53 1.1-2.29-.37.76-.73 1.53-1.1 2.29m2.51-5.13 1.1-2.16Zm8.21-14.99 1-1.75Zm2.96-4.85 1-1.62Zm3.06-4.79c.33-.5.65-1 1-1.49-.35.49-.67 1-1 1.49m-19.14 35c.37-.81.73-1.63 1.1-2.44-.37.77-.73 1.59-1.1 2.44m-10.21 26.84c.33-1 .66-2.08 1-3.12-.34 1.04-.67 2.08-1 3.12M102.69 48l.1-.07ZM13.33 169.35c.34-1 .68-2 1-3-.33 1.01-.66 2-1 3M8.32 186q.43-1.68.9-3.36-.47 1.64-.9 3.36m-4.9 22.76c.21-1.26.42-2.52.65-3.78-.23 1.26-.44 2.52-.65 3.78m16.04-55.54c.36-.86.72-1.72 1.09-2.58-.37.86-.73 1.72-1.09 2.58m-2.16 5.31c.35-.9.71-1.8 1.07-2.7-.37.9-.72 1.8-1.07 2.7m-2.05 5.38c.35-.95.7-1.9 1.06-2.84-.31.93-.71 1.93-1.06 2.84M44 108.3c.32-.45.63-.91.94-1.36-.27.45-.58.91-.94 1.36m41.17-46.24.33-.29ZM81 65.81l.39-.36Zm-8.13 7.8.52-.52ZM0 248.81v-.93zM76.89 69.67l.45-.44ZM98.2 51.38l.15-.12Zm7.99 403.12q-1.5-1.05-3-2.13l-1.4-1-2.76-2.06-1.51-1.16c-.9-.69-1.79-1.38-2.68-2.09l-1.37-1.1q-2.44-2-4.85-4l-1.55-1.31c-.77-.66-1.54-1.34-2.3-2L83 436c-.73-.66-1.47-1.32-2.19-2L79 432.33c-.7-.65-1.4-1.3-2.08-2s-1.42-1.38-2.12-2.07l-3-3c-.75-.76-1.51-1.52-2.25-2.3-.6-.62-1.18-1.25-1.77-1.87s-1.33-1.42-2-2.13-1.16-1.27-1.73-1.91-1.35-1.5-2-2.26c-.53-.6-1.07-1.21-1.59-1.82-.87-1-1.72-2-2.57-3-.53-.63-1.06-1.27-1.58-1.91q-1.32-1.61-2.61-3.24c-.46-.57-.9-1.16-1.35-1.74a96 96 0 0 1-2-2.63L49 398.66q-1-1.37-2-2.76c-.41-.56-.82-1.12-1.22-1.69q-1.37-1.93-2.7-3.9l-.69-1q-1.35-2-2.67-4.06c-.35-.55-.7-1.1-1-1.65-.65-1-1.29-2-1.92-3.07-.37-.59-.73-1.19-1.08-1.78-.64-1.05-1.26-2.11-1.88-3.18l-.99-1.57q-1.3-2.28-2.57-4.59l-.19-.36c-.85-1.56-1.67-3.13-2.49-4.71-.27-.53-.54-1.07-.8-1.6q-.87-1.71-1.71-3.42l-.85-1.77c-.55-1.17-1.1-2.33-1.63-3.51-.25-.53-.49-1.06-.73-1.59q-2.28-5.07-4.34-10.26c-.21-.53-.42-1.06-.62-1.59q-.72-1.85-1.41-3.69l-.66-1.81c-.45-1.24-.88-2.49-1.31-3.74-.19-.54-.38-1.07-.56-1.62q-1.79-5.32-3.35-10.76c-.15-.55-.3-1.1-.46-1.65a73 73 0 0 1-1-3.87c-.17-.62-.33-1.25-.49-1.87-.33-1.3-.64-2.6-.95-3.91-.13-.56-.27-1.12-.4-1.68Q5 300.41 4 294.77c-.11-.57-.2-1.15-.3-1.73-.23-1.32-.46-2.65-.66-4-.11-.65-.21-1.31-.3-2-.2-1.33-.39-2.67-.57-4-.07-.59-.16-1.18-.23-1.77q-.72-5.73-1.17-11.54c-.05-.59-.09-1.19-.13-1.79-.1-1.37-.18-2.73-.26-4.1 0-.68-.07-1.35-.1-2-.06-1.37-.12-2.74-.16-4.11v-5.58a247.65 247.65 0 0 0 107.37 203.36 10.5 10.5 0 0 0-1.3-1.01M.47 234.78v1l.09-1.65c-.05.2-.07.42-.09.65M89.43 58.4l.28-.23Zm4.35-3.56.21-.17Zm-43.1 44.29.85-1.13Zm7.02-8.85.75-.9Zm-3.56 4.38.8-1Zm-6.83 9.01.9-1.24ZM69 77.65l.57-.61Zm-3.89 4.12.63-.7ZM61.36 86l.69-.8ZM.66 232.19c.1-1.36.19-2.73.31-4.08-.12 1.35-.21 2.72-.31 4.08M123 465.34l1.3.75Z" class="cls-1"/><path d="M400.6 50.46A248.66 248.66 0 0 0 271.9 1a248.66 248.66 0 0 1 128.7 49.46M48.28 102.33l-.07.1-.9 1.24a3 3 0 0 1-.2.28Zm-3.22 4.51-.08.1c-.31.45-.62.91-.94 1.36l-.18.28c.4-.58.79-1.17 1.2-1.74m6.55-8.94-.08.1-.85 1.13c-.07.09-.14.19-.22.28.39-.5.77-1.01 1.15-1.51m-9.69 13.52-.06.1c-.33.49-.65 1-1 1.49l-.17.26ZM55 93.54l-.09.11-.8 1-.22.29ZM36 120.8l-.06.09-1 1.75a2 2 0 0 1-.14.25Zm2.89-4.72-.06.09-1 1.62-.16.26Zm38.57-46.97-.12.12-.45.44-.28.27ZM73.51 73l-.12.12-.52.52-.27.28Zm-3.88 3.92-.11.12-.57.61-.27.28Zm-36.5 48.68-.05.09c-.36.62-.71 1.25-1.06 1.88l-.14.24c.42-.74.83-1.48 1.25-2.21M65.85 81l-.11.12-.63.7c-.09.09-.17.19-.26.29Zm-7.3 8.26-.1.12-.75.9c-.08.09-.15.19-.23.29Zm3.6-4.19-.1.11-.69.8-.25.29Zm19.36-19.73-.13.11-.39.36-.29.27ZM10.82 177.1c-.32 1.07-.64 2.15-1 3.23v.11c.34-1.09.66-2.22 1-3.34m1.72-5.41c-.34 1-.67 2.08-1 3.12v.11c.3-1.06.64-2.15 1-3.23m-3.31 10.88q-.47 1.68-.9 3.36v.09c.27-1.13.57-2.29.9-3.45m5.15-16.25v.05c-.35 1-.69 2-1 3v.13c.27-1.08.62-2.13 1-3.18M5.17 199.3c-.25 1.23-.49 2.45-.72 3.68.23-1.19.47-2.44.72-3.68m2.58-11.2c-.29 1.15-.57 2.31-.84 3.47v.07c.25-1.17.54-2.36.84-3.54m-1.35 5.57a229 229 0 0 0-.78 3.58v.06c.24-1.2.5-2.42.78-3.64m21.39-58.27a.3.3 0 0 0 0 .07l-1.1 2.16a1.5 1.5 0 0 1-.11.22c.42-.85.79-1.64 1.21-2.45M16.33 161c-.36.94-.71 1.89-1.06 2.84l-.05.15c.35-.94.72-1.99 1.11-2.99m8.94-20.6v.07c-.37.76-.74 1.53-1.1 2.29L24 143Zm5.14-9.93a1 1 0 0 0-.05.08l-1.08 2-.12.23c.41-.78.84-1.54 1.25-2.31m-7.54 14.99v.06c-.37.81-.73 1.63-1.1 2.44 0 .07-.06.13-.08.19.37-.9.77-1.8 1.18-2.69m-2.29 5.13c-.37.86-.73 1.72-1.09 2.58l-.07.18c.36-.89.75-1.83 1.16-2.76m-2.18 5.18v.06c-.36.9-.72 1.8-1.07 2.7a1 1 0 0 1-.07.17c.36-.98.74-1.96 1.14-2.93M94.12 54.56l-.13.11-.21.17-.29.24Zm57.16-34.29h-.09Zm5.2-2.17h-.06ZM3.1 210.69c-.2 1.28-.39 2.58-.57 3.87.18-1.27.36-2.56.57-3.87M1 228.11c-.12 1.35-.21 2.72-.31 4.08.07-1.36.16-2.73.31-4.08M146.15 22.55l-.12.05Zm-43.22 25.29-.14.1-.1.07-.29.22Zm4.52-3.22-.14.1-.31.28Zm-8.96 6.53-.14.11-.15.12-.3.23Zm-8.65 6.92-.13.1-.28.23-.28.25ZM4.07 205c-.23 1.26-.44 2.52-.65 3.78.21-1.26.42-2.54.65-3.78M112 41.5l-.13.09-.28.19Zm29.08-16.56-.16.07Zm-5.01 2.5-.19.09ZM131.12 30l-.23.13ZM85.63 61.66l-.13.11-.33.29-.28.26Zm31.08-23.17-.38.23Zm4.73-2.92-.32.19Zm4.81-2.82-.28.16ZM249.05 0h-2Zm-6.18.13-2.44.08ZM.78 269.77q.45 5.81 1.17 11.54-.72-5.73-1.17-11.54m418.6-203.63a251.5 251.5 0 0 1 46.26 57.33 251.2 251.2 0 0 0-46.26-57.33M9.63 318.93q1.56 5.44 3.35 10.76-1.79-5.32-3.35-10.76m104.5 140.94q-3.76-2.43-7.42-5c-.18-.12-.35-.23-.52-.36a10.5 10.5 0 0 1 1.3 1c2.11 1.45 4.25 2.87 6.4 4.26a1.5 1.5 0 0 1 .36.18ZM94.87 446l-1.31-1c-1.66-1.33-3.29-2.68-4.91-4.05q2.4 2 4.85 4Z" class="cls-1"/><path d="m419.38 66.14-1.29-1.2c-.38-.35-.78-.69-1.17-1-2.59-2.32-5.21-4.6-7.9-6.82l-.59-.47c-2.56-2.11-5.18-4.16-7.83-6.16A248.75 248.75 0 0 0 271.9 1c-4.75-.41-9.53-.7-14.35-.84-1.22 0-2.45-.06-3.68-.09h-6.82c-1.38 0-2.78.05-4.17.09l-2.45.04c-1.86.07-3.72.15-5.58.27h-.17q-2.88.18-5.68.42h-.14q-2.87.24-5.72.55H223q-2.87.3-5.72.68h-.07q-2.87.38-5.71.81-2.86.43-5.7.95a248 248 0 0 0-33.33 8.37c-1.8.59-3.59 1.19-5.38 1.82-1.77.63-3.54 1.27-5.3 1.94q-2.62 1-5.22 2h-.07q-2.58 1.05-5.13 2.14h-.09q-2.53 1.1-5.05 2.24l-.11.06q-2.49 1.14-5 2.33l-.15.08q-2.44 1.18-4.86 2.42l-.19.1q-2.38 1.23-4.75 2.51l-.23.12q-2.34 1.28-4.64 2.59l-.28.16q-2.28 1.31-4.53 2.65l-.32.2c-1.48.89-3 1.8-4.42 2.72l-.37.24q-2.16 1.37-4.29 2.78l-.43.29q-2.1 1.4-4.16 2.83l-.5.53c-1.36.95-2.7 1.91-4 2.89l-.53.39c-1.31 1-2.62 1.93-3.91 2.92l-.59.45q-1.905 1.5-3.78 3l-.64.51c-1.22 1-2.44 2-3.65 3l-.69.58q-1.77 1.5-3.51 3l-.75.65-3.38 3-.8.74q-1.64 1.5-3.24 3l-.86.83q-1.56 1.5-3.1 3l-.9.92-3 3-.95 1c-1 1-1.9 2-2.83 3l-1 1.1q-1.365 1.5-2.7 3l-1 1.21c-.86 1-1.72 2-2.57 3l-1.08 1.31c-.81 1-1.63 2-2.43 3-.38.46-.74.94-1.11 1.4q-1.17 1.5-2.31 3l-1.15 1.52c-.73 1-1.46 1.94-2.18 2.92L47.11 104c-.69 1-1.38 1.92-2.06 2.89l-1.2 1.73c-.65 1-1.29 1.89-1.93 2.85-.41.61-.81 1.23-1.22 1.85-.61.93-1.22 1.87-1.81 2.8-.42.66-.82 1.32-1.23 2-.57.92-1.15 1.84-1.7 2.76-.42.69-.83 1.39-1.25 2.09-.53.9-1.06 1.8-1.58 2.71-.43.73-.84 1.47-1.25 2.21s-1 1.76-1.48 2.65l-1.25 2.34c-.46.86-.92 1.73-1.37 2.6s-.78 1.52-1.24 2.37-.85 1.69-1.27 2.55-.82 1.71-1.27 2.6-.79 1.65-1.17 2.49-.82 1.79-1.22 2.69l-1.08 2.44c-.4.93-.79 1.87-1.19 2.8l-1 2.38c-.39 1-.78 1.95-1.16 2.93-.3.77-.61 1.54-.91 2.32-.38 1-.75 2-1.12 3-.28.75-.56 1.51-.83 2.26-.37 1.05-.73 2.1-1.09 3.16-.25.73-.5 1.47-.74 2.21-.36 1.08-.7 2.17-1 3.26-.22.72-.45 1.43-.67 2.15-.34 1.12-.67 2.25-1 3.38-.21.7-.41 1.39-.61 2.09q-.48 1.74-.93 3.48c-.18.68-.37 1.36-.54 2-.31 1.18-.59 2.37-.88 3.56l-.48 2c-.28 1.22-.54 2.44-.8 3.66-.14.66-.29 1.31-.42 2-.26 1.24-.5 2.49-.73 3.74-.13.64-.26 1.28-.37 1.93-.23 1.27-.45 2.55-.66 3.82-.1.63-.21 1.26-.31 1.9-.21 1.3-.4 2.6-.58 3.91l-.27 1.85c-.17 1.32-.33 2.65-.49 4-.07.61-.15 1.22-.22 1.83-.14 1.34-.27 2.68-.4 4-.06.61-.12 1.21-.17 1.82-.12 1.35-.22 2.72-.31 4.08-.05.64-.1 1.27-.14 1.91s-.07 1.1-.1 1.65q-.34 6.09-.4 12.13v8.02l.06 1.84q.06 2.06.15 4.11c0 .68.07 1.36.11 2 .07 1.37.16 2.73.26 4.1l.12 1.79q.47 5.81 1.18 11.54c.07.59.15 1.18.23 1.77.18 1.34.36 2.68.56 4l.3 2q.31 2 .66 4l.3 1.73Q5 300.41 6.29 306c.13.57.26 1.12.4 1.68.3 1.31.62 2.61.95 3.91l.48 1.87q.51 1.95 1.05 3.87c.15.55.3 1.11.46 1.65 1 3.63 2.15 7.21 3.35 10.77.18.54.37 1.07.55 1.61.43 1.25.87 2.5 1.32 3.74l.66 1.81c.46 1.24.93 2.46 1.4 3.69.21.53.41 1.07.62 1.6q2.07 5.18 4.34 10.25c.24.54.49 1.07.73 1.6.54 1.17 1.08 2.34 1.64 3.5.28.59.56 1.18.85 1.77.56 1.15 1.13 2.29 1.7 3.42l.81 1.6q1.21 2.37 2.49 4.72l.19.35q1.26 2.31 2.57 4.59c.31.54.62 1.08.94 1.62.61 1.06 1.24 2.12 1.87 3.17l1.08 1.78 1.92 3.08c.35.54.69 1.09 1.05 1.64q1.3 2 2.67 4.06c.22.34.45.67.68 1q1.34 2 2.71 3.9c.4.57.81 1.13 1.22 1.7.66.92 1.33 1.84 2 2.75l1.37 1.83c.67.88 1.34 1.76 2 2.63.45.59.9 1.17 1.36 1.75.86 1.08 1.73 2.16 2.6 3.23l1.6 1.86q1.275 1.5 2.58 3c.52.61 1 1.21 1.58 1.81l2 2.27 1.73 1.9 2 2.13c.59.62 1.18 1.25 1.78 1.87.74.78 1.49 1.54 2.25 2.31 1 1 2 2 3 2.95.71.7 1.41 1.39 2.12 2.07l2.08 2 1.84 1.71 2.2 2 1.77 1.58 2.31 2 1.49 1.4c1.62 1.37 3.25 2.71 4.9 4l1.31 1.06 2.69 2.09 1.51 1.15c.91.7 1.83 1.38 2.76 2.07l1.4 1c1 .71 2 1.43 3 2.13l.52.36q3.66 2.56 7.42 5l.11.07c1.14.74 2.28 1.46 3.43 2.18l1 .62c1.13.71 2.27 1.4 3.42 2.08l.86.51 1.33.77a251.3 251.3 0 0 0 47.88 21.31c11.58 1.62 15.88-5.84 15.88-12.22 0-6-.24-25.66-.35-46.55-69.54 15.13-84.19-29.5-84.19-29.5-11.37-28.89-27.76-36.57-27.76-36.57-22.69-15.52 1.71-15.21 1.71-15.21 25.11 1.77 38.32 25.78 38.32 25.78 22.3 38.21 58.49 27.16 72.75 20.78 2.25-16.17 8.73-27.19 15.88-33.44-55.53-6.32-113.9-27.75-113.9-123.55 0-27.29 9.76-49.6 25.76-67.11-2.6-6.3-11.15-31.72 2.42-66.16 0 0 21-6.71 68.76 25.64a236.9 236.9 0 0 1 125.21 0c47.71-32.35 68.68-25.64 68.68-25.64 13.61 34.44 5.05 59.86 2.45 66.16 16 17.51 25.73 39.82 25.73 67.11 0 96-58.48 117.19-114.15 123.35 9 7.77 16.95 23 16.95 46.3 0 33.45-.29 60.37-.29 68.61v10.62a14.18 14.18 0 0 0 14.17 14.2H420a80 80 0 0 0 80-80V252.2a254.84 254.84 0 0 0-34.36-128.73 251.3 251.3 0 0 0-46.26-57.33" class="cls-1"/><path d="M408.43 56.61q-3.85-3.15-7.83-6.15 3.98 3 7.83 6.15M271.9 1c-4.75-.41-9.53-.7-14.35-.84 4.82.11 9.6.4 14.35.84" class="cls-1"/></svg>