<svg xmlns="http://www.w3.org/2000/svg" id="Layer_1" data-name="Layer 1" viewBox="0 0 500 500"><defs><style>.cls-1{fill:#fff}</style></defs><path d="m23.19 144.75-.21.47-.08.16.59-1.25Zm29.16-47.82c-.06.09-.14.18-.21.27l-.11.15.5-.64ZM231.52.68 230 .8h-.59c1.37-.11 2.75-.2 4.13-.29Zm-6.66.58-.66.06-.87.1c1.43-.15 2.86-.28 4.3-.41Zm-5.86.66-1.63.2q2.28-.29 4.56-.54Zm-80.31 24.2 1.11-.55ZM250 0h1.15Zm-37.28 2.77-1.41.23c-1.54.24-3.07.49-4.6.76l-.64.11c3.54-.62 7.12-1.18 10.71-1.66-1.35.17-2.71.36-4.06.56M134.21 28.4l-.13.07c-.24.12-.48.26-.72.39l1.31-.7ZM237.27.32h-.16l-1.67.11c1.58-.09 3.17-.16 4.75-.23Zm7-.24h-1.92c1.21 0 2.42 0 3.63-.08-.57.06-1.14.06-1.71.08M21.38 148.73l-.09.2c-.08.18-.15.37-.23.55.29-.67.59-1.34.89-2ZM182.81 9.15l-2.66.76-1.35.4c1.38-.41 2.76-.81 4.15-1.2Zm-22.96 7.62-2.22.88c1.08-.43 2.16-.86 3.24-1.27ZM500 250c0-1.92 0-3.83-.08-5.73v-1.45c-.06-1.86-.12-3.71-.21-5.55a1 1 0 0 1 0-.16c-.1-1.87-.22-3.73-.35-5.59l-.16-1.52c-.14-1.71-.29-3.42-.46-5.12l-.06-.66c-.18-1.74-.38-3.47-.6-5.2-.07-.58-.14-1.16-.22-1.74-.2-1.52-.41-3-.63-4.54-.07-.47-.14-.94-.22-1.41-.24-1.54-.49-3.07-.76-4.6l-.36-2c-.24-1.29-.48-2.58-.74-3.86l-.48-2.36q-.41-1.92-.84-3.84c-.17-.78-.35-1.55-.53-2.32-.25-1-.51-2.08-.76-3.12s-.59-2.3-.89-3.45c-.26-1-.53-2-.8-2.94s-.5-1.78-.76-2.66-.46-1.57-.7-2.35c-.46-1.54-.94-3.08-1.43-4.6-.22-.67-.43-1.33-.65-2-.33-1-.67-2-1-3-.19-.54-.38-1.09-.58-1.63q-1-2.86-2.09-5.69c-.13-.35-.26-.7-.4-1.05-.42-1.1-.86-2.2-1.3-3.29-.13-.33-.27-.65-.4-1q-1.36-3.35-2.82-6.65l-.09-.2c-.53-1.18-1.06-2.35-1.6-3.51l-.21-.47q-2.49-5.34-5.21-10.54a1 1 0 0 0-.07-.13c-.83-1.59-1.69-3.17-2.55-4.74-.25-.45-.51-.9-.76-1.36A255.1 255.1 0 0 1 500 251.59ZM155.58 18.47h.08Zm15.63-5.78-3 1-.46.16q2-.69 4-1.35ZM31 129.34l.14-.25ZM148.93 21.29l-.2.09-1.25.57 2-.89ZM28.47 134.08a1 1 0 0 0-.07.13l-.24.46.7-1.31c-.13.24-.27.48-.39.72M198.48 5.33c-1.26.26-2.53.54-3.78.82 1.6-.36 3.21-.7 4.83-1ZM34.5 123.25c-.07.11-.14.22-.2.33l-.39.68.66-1.13ZM204.7 4.11c-1.29.24-2.58.48-3.86.74l-.33.07c1.63-.33 3.27-.64 4.91-.94Zm-18.95 4.24-1.43.39c1-.28 2.05-.54 3.08-.81ZM25.57 139.79c.18-.36.36-.73.55-1.09-.19.36-.37.73-.55 1.09M192.32 6.7l-2.6.64c1.43-.35 2.85-.7 4.28-1ZM145.22 23l-.48.22-.62.29 1.26-.59Zm-35.54 20.1-.12.08.45-.31ZM.33 237.11a1 1 0 0 1 0 .16c0 1-.07 1.95-.11 2.92.07-1.58.14-3.16.23-4.75-.05.56-.09 1.11-.12 1.67M91.07 57l-.31.26.6-.49ZM.8 230l-.12 1.54-.12 2c.09-1.38.18-2.76.29-4.13-.01.18-.03.37-.05.59m-.69 12.82v3.16c0-1.21 0-2.42.08-3.63-.06.16-.07.31-.08.47M123.58 34.3l-.45.27 1.13-.66ZM1.32 224.2l-.06.66c-.09.91-.17 1.84-.25 2.76.13-1.43.26-2.87.41-4.29-.03.29-.07.58-.1.87M67.28 79.42l.09-.1Zm12.09-12.1-.62.58-.17.16.84-.78Zm54.71 404.21.13.07q5.21 2.73 10.53 5.2l.48.22c1.16.54 2.33 1.07 3.51 1.6l.2.09q3.3 1.46 6.65 2.82l1 .4c1.09.44 2.19.88 3.29 1.3l1 .4q2.84 1.08 5.7 2.09l1.63.58 3 1 2 .65q2.3.74 4.6 1.43l2.35.7 2.66.76 2.94.8 3.46.89 3.11.76 2.32.53 3.84.84 2.36.48c1.28.26 2.57.5 3.86.74l2 .36c1.53.27 3.06.52 4.6.76l1.41.22c1.51.22 3 .43 4.54.63l1.74.22c1.73.22 3.46.42 5.2.6l.66.06c1.7.17 3.41.32 5.12.46l1.54.12c1.86.13 3.72.25 5.59.35h.16c1.85.09 3.69.15 5.55.21h1.45c1.9.05 3.81.08 5.73.08h1.59A255.1 255.1 0 0 1 128 468.2q3 1.71 6.08 3.33M84.81 62.37l-.06.06.1-.09ZM0 250v1.15-1.64zM57.29 90.77l-.39.47-.09.12.58-.71ZM5.33 198.48l-.21 1.05c.33-1.62.67-3.24 1-4.85-.25 1.32-.52 2.53-.79 3.8m1.37-6.16L6.31 194c.33-1.43.67-2.86 1-4.28-.19.87-.4 1.73-.61 2.6m11.77-36.74v-.08ZM8.35 185.75l-.42 1.65c.26-1 .53-2.06.81-3.08Zm8.42-25.9-.39 1c.41-1.09.84-2.17 1.27-3.25-.3.77-.59 1.5-.88 2.25m-3.07 8.37c-.34 1-.68 2-1 3l-.18.53c.44-1.33.89-2.66 1.35-4-.06.16-.11.32-.17.47m-3.79 11.93c-.26.88-.51 1.77-.76 2.66a1 1 0 0 1 0 .14q.59-2.08 1.2-4.14c-.18.44-.35.89-.44 1.34M1.92 219c-.12 1-.23 2-.34 2.94.17-1.52.35-3.05.54-4.56-.07.54-.12 1.08-.2 1.62m1.83-12.29c-.27 1.53-.52 3.06-.76 4.6-.08.47-.15.94-.22 1.41-.2 1.35-.38 2.7-.56 4.05.47-3.59 1-7.16 1.65-10.71-.03.22-.07.43-.11.65m124.36-175 1.26-.7ZM4.85 200.84c-.26 1.28-.5 2.57-.74 3.86 0 .24-.09.48-.13.72.3-1.64.61-3.28.94-4.91-.03.11-.05.22-.07.33m3.89-16.52c.12-.46.25-.92.37-1.37-.11.45-.24.91-.37 1.37M.13 242.35c0-.72.06-1.44.08-2.16-.03.72-.06 1.44-.08 2.16m.34-7.57v.66c0-.64.08-1.28.12-1.92q-.09.63-.12 1.26m.38-5.39c.05-.59.11-1.18.16-1.77-.01.59-.11 1.18-.16 1.77M0 249.51v-3.53zm28.86-116.15q1-2 2.15-4-1.09 1.99-2.15 4M1.42 223.33c.05-.47.11-.93.16-1.39-.05.46-.11.92-.16 1.39M22 147.48c.32-.7.63-1.41.95-2.1-.37.69-.68 1.4-.95 2.1m4.12-8.78 2-4zM3.86 206.06l.12-.64Zm14.62-50.52q1.26-3 2.58-6.06-1.32 3.02-2.58 6.06M4.92 200.51c.06-.33.13-.65.2-1-.07.35-.12.67-.2 1M166.59 14.28l1.17-.42q-3.47 1.21-6.89 2.52 2.86-1.09 5.72-2.1M38.77 116.27q1.84-2.91 3.78-5.78l.66-1c1.32-1.93 2.65-3.84 4-5.73l.55-.75q2.09-2.88 4.25-5.68a252 252 0 0 0-17.46 25.78c1.16-2 2.35-3.91 3.56-5.83.23-.28.44-.67.66-1.01m23.84-31.72q2.3-2.6 4.67-5.13-5.12 5.47-9.89 11.23 2.23-2.69 4.54-5.32Zm-28.8 39.88.1-.17c-.94 1.6-1.86 3.23-2.76 4.86l.63-1.14c.67-1.19 1.35-2.37 2.03-3.55m63.66-72.49c1.83-1.41 3.69-2.8 5.56-4.16l1-.7c1.84-1.32 3.69-2.62 5.57-3.9q-9.42 6.41-18.2 13.63c1.74-1.43 3.49-2.83 5.27-4.21Zm60.16-34.29-2 .8.94-.38Zm-41.1 20.95.66-.41q2.94-1.84 5.94-3.62-6.7 4-13.12 8.3l.58-.39c1.97-1.32 3.94-2.62 5.94-3.88M90.54 57.49l.22-.19q-3 2.48-5.91 5l.1-.08q2.76-2.39 5.59-4.73m-72.09 98.13c-.27.66-.54 1.34-.8 2l.42-1.07c.13-.3.26-.62.38-.93M72.9 73.59l.8-.8c1.61-1.6 3.23-3.18 4.88-4.73q-5.77 5.44-11.21 11.26l.72-.77q2.37-2.55 4.81-4.96m50.68 392.11c-2.31-1.35-4.58-2.74-6.84-4.16a251.46 251.46 0 0 1-78.28-78.28c-1.42-2.26-2.81-4.53-4.16-6.84q-3-5.18-5.83-10.5a1 1 0 0 1-.07-.13q-2.73-5.21-5.2-10.53c-.08-.16-.15-.32-.22-.48-.54-1.16-1.07-2.33-1.6-3.51l-.09-.2q-1.45-3.3-2.82-6.65c-.13-.33-.27-.65-.4-1-.44-1.09-.88-2.19-1.3-3.29-.14-.34-.27-.69-.4-1q-1.08-2.83-2.09-5.7c-.2-.54-.39-1.09-.58-1.63-.34-1-.68-2-1-3-.22-.66-.43-1.32-.65-2q-.73-2.3-1.43-4.6c-.24-.78-.47-1.56-.7-2.35s-.51-1.77-.76-2.66-.54-2-.8-2.94c-.3-1.15-.6-2.3-.89-3.46s-.51-2.07-.76-3.11c-.18-.77-.36-1.54-.53-2.32q-.44-1.92-.84-3.84l-.48-2.36c-.26-1.28-.5-2.57-.74-3.86l-.36-2c-.27-1.53-.52-3.06-.76-4.6-.08-.47-.15-.94-.22-1.41-.22-1.51-.43-3-.63-4.54-.08-.58-.15-1.16-.22-1.74-.22-1.73-.42-3.46-.6-5.2l-.06-.66c-.17-1.7-.32-3.41-.46-5.12l-.12-1.54c-.13-1.86-.25-3.72-.35-5.59a1 1 0 0 0 0-.16c-.09-1.85-.15-3.69-.21-5.55v-1.45c0-1.52 0-3-.06-4.58A247.82 247.82 0 0 0 128 468.2q-2.2-1.23-4.38-2.5ZM16.37 160.9q-1.3 3.42-2.52 6.88l.42-1.17q1.02-2.88 2.1-5.71M2.21 216.77l-.09.61v-.12c.04-.16.06-.33.09-.49m5.72-29.37c-.2.77-.4 1.55-.59 2.33l.12-.53c.16-.6.31-1.2.47-1.8M12 173.2c.16-.49.32-1 .47-1.46q-1.15 3.51-2.2 7.07l.3-1c.5-1.55.98-3.09 1.43-4.61M6.31 194l-.15.67c.05-.24.1-.45.15-.67M134.67 28.16l4-2q-1.99.97-4 2M183 9.11l1.37-.37Zm-33.52 11.95q3-1.32 6.06-2.58-3.04 1.26-6.06 2.58m50.05-15.94 1-.2ZM145.38 22.9l2.1-.95ZM205.42 4l.65-.12Zm-76.05 27c1.33-.73 2.65-1.45 4-2.15-1.37.71-2.67 1.43-4 2.15m48.43-20.39 1-.3q-3.56 1-7.05 2.2l1.45-.51q2.3-.69 4.6-1.39M79.42 67.28q2.63-2.46 5.33-4.85-2.7 2.39-5.33 4.85m60.38-41.71q2.14-1.07 4.32-2.08-2.17 1.02-4.32 2.08m54.9-19.42-.7.16.64-.14Zm27.23-4.57 1.4-.16Zm-4.56.54-.59.08.48-.06Zm-27.65 5.22-2.32.59 1.81-.47ZM257.18.11c1.86.06 3.7.12 5.55.21h.16c1.87.1 3.73.22 5.59.35L270 .8c1.71.14 3.42.29 5.12.46l.66.06c1.74.18 3.47.38 5.2.6l1.74.22c1.52.2 3 .41 4.54.63l1.41.22c1.54.24 3.07.49 4.6.76l2 .36c1.29.24 2.58.48 3.86.74l2.36.48q1.92.4 3.84.84l2.32.53 3.11.76 3.46.89 2.94.8 2.66.76 2.35.7q2.31.69 4.6 1.43l2 .65 3 1 1.63.58q2.86 1 5.7 2.09l1 .4c1.1.42 2.2.86 3.29 1.3l1 .4q3.34 1.37 6.65 2.82l.2.09c1.18.53 2.35 1.06 3.51 1.6l.48.22q5.33 2.48 10.53 5.2l.13.07q5.32 2.79 10.5 5.83 3.22 1.89 6.39 3.89l.66.41c2 1.26 4 2.56 5.94 3.88l.91.62c1.92 1.3 3.81 2.63 5.69 4l1 .7c1.87 1.36 3.73 2.75 5.56 4.16l.84.66c1.88 1.46 3.73 2.93 5.56 4.44l.53.45q2.84 2.34 5.59 4.77l.14.11q2.74 2.43 5.44 4.95l.62.58c1.71 1.6 3.39 3.24 5.05 4.89l.8.8q2.44 2.44 4.81 5l.81.87q2.37 2.53 4.67 5.13l.68.78c1.57 1.8 3.12 3.6 4.64 5.44l.39.47c1.54 1.88 3.06 3.77 4.55 5.69.06.09.14.18.21.27q2.22 2.88 4.36 5.83l.55.75c1.37 1.89 2.7 3.8 4 5.73l.66 1q1.94 2.87 3.78 5.78c.22.34.43.68.64 1q1.86 3 3.63 6c.07.11.14.22.2.33.17.28.32.57.49.85.68 1.17 1.35 2.34 2 3.53A247.81 247.81 0 0 0 251.15 0c1.53 0 3.06 0 4.58.06Zm-22.4.36-1.26.09 1.92-.12Zm-7.15.53 1.76-.16ZM246 .05h3.52c-1.19-.05-2.36-.05-3.52 0m-5.81.16 2.16-.08Z" class="cls-1"/><path d="M468.2 128c-.66-1.19-1.33-2.36-2-3.53-.17-.28-.32-.57-.49-.85-.06-.11-.13-.22-.2-.33q-1.77-3-3.63-6c-.21-.35-.42-.69-.64-1q-1.85-2.91-3.78-5.78l-.66-1c-1.32-1.93-2.65-3.84-4-5.73l-.55-.75q-2.14-3-4.36-5.83c-.07-.09-.15-.18-.21-.27-1.49-1.92-3-3.81-4.55-5.69l-.39-.47a266 266 0 0 0-4.64-5.44l-.68-.78q-2.29-2.6-4.67-5.13l-.81-.87q-2.37-2.52-4.81-5l-.8-.8c-1.66-1.65-3.34-3.29-5.05-4.89l-.62-.58q-2.7-2.52-5.44-4.95l-.14-.11q-2.76-2.43-5.59-4.77l-.53-.45c-1.83-1.51-3.68-3-5.56-4.44l-.84-.66c-1.83-1.41-3.69-2.8-5.56-4.16l-1-.7c-1.88-1.35-3.77-2.68-5.69-4l-.91-.62c-2-1.32-3.94-2.62-5.94-3.88l-.66-.41q-3.17-2-6.39-3.89-5.18-3-10.5-5.83l-.13-.07q-5.21-2.73-10.53-5.2l-.48-.22c-1.16-.54-2.33-1.07-3.51-1.6l-.2-.09q-3.3-1.45-6.65-2.82l-1-.4c-1.09-.44-2.19-.88-3.29-1.3l-1-.4q-2.83-1.08-5.7-2.09l-1.63-.58-3-1-2-.65q-2.3-.73-4.6-1.43l-2.35-.7-2.66-.76-2.94-.8-3.46-.89-3.11-.76-2.32-.53q-1.92-.44-3.84-.84l-2.36-.48c-1.28-.26-2.57-.5-3.86-.74l-2-.36c-1.53-.27-3.06-.52-4.6-.76l-1.41-.22c-1.51-.22-3-.43-4.54-.63L281 1.92c-1.73-.22-3.46-.42-5.2-.6l-.66-.06c-1.7-.17-3.41-.32-5.12-.46l-1.54-.12c-1.86-.13-3.72-.25-5.59-.35h-.16c-1.85-.1-3.73-.16-5.55-.22h-1.45c-1.52 0-3 0-4.58-.06h-5.17c-1.17 0-2.42 0-3.63.08l-2.16.08c-1.58.07-3.17.14-4.75.23l-1.92.12c-1.38.09-2.76.18-4.13.29l-1.76.15c-1.44.13-2.87.26-4.3.41l-1.4.16q-2.28.25-4.56.54h-.11l-.48.06c-3.59.48-7.17 1-10.71 1.66l-.65.12c-1.64.3-3.28.61-4.91.94l-1 .2c-1.62.33-3.23.67-4.83 1h-.06l-.64.14c-1.43.33-2.85.68-4.28 1l-.51.12-1.81.47c-1 .27-2.06.53-3.08.81l-1.3.48c-1.39.39-2.77.79-4.15 1.2l-1 .3q-2.31.69-4.6 1.43l-1.45.47q-2 .66-4 1.35l-1.17.42q-2.86 1-5.7 2.09c-1.08.41-2.16.84-3.24 1.27l-1.07.42-.94.38h-.08q-3 1.26-6.06 2.58l-2 .89-2.1.95-1.26.59q-2.18 1-4.32 2.08l-1.11.55-4 2-1.31.7c-1.34.7-2.66 1.42-4 2.15l-1.26.7c-1.29.72-2.58 1.46-3.85 2.2l-1.13.66q-3 1.77-5.94 3.62l-.66.41c-2 1.26-4 2.56-5.94 3.88l-.58.39-.45.31c-1.88 1.28-3.73 2.58-5.57 3.9l-1 .7c-1.87 1.36-3.73 2.75-5.56 4.16l-.84.66a237 237 0 0 0-5.27 4.21l-.6.49-.22.19q-2.86 2.42-5.57 4.85l-.1.08-.1.09q-2.7 2.38-5.33 4.85l-.84.78c-1.65 1.55-3.27 3.13-4.88 4.73l-.8.8q-2.45 2.44-4.81 5l-.72.77-.09.1q-2.42 2.54-4.72 5.09l-.68.78q-2.31 2.67-4.54 5.32l-.58.71c-1.45 1.76-2.88 3.55-4.28 5.35l-.5.64q-2.16 2.81-4.25 5.68l-.55.75c-1.37 1.89-2.7 3.8-4 5.73l-.66 1q-1.94 2.87-3.78 5.78c-.22.34-.43.68-.64 1-1.21 1.92-2.4 3.87-3.56 5.83l-.66 1.13-.1.17c-.68 1.18-1.36 2.36-2 3.55l-.63 1.14-.14.25q-1.1 2-2.15 4l-.7 1.31-2 4c-.19.36-.37.73-.55 1.09-.71 1.44-1.4 2.88-2.08 4.34l-.59 1.25c-.32.69-.63 1.4-.95 2.1s-.6 1.33-.89 2q-1.32 3-2.58 6.06v.08c-.12.31-.25.63-.38.94l-.42 1.07c-.43 1.08-.86 2.16-1.27 3.25q-1.08 2.82-2.09 5.69l-.42 1.17c-.46 1.32-.91 2.65-1.35 4-.15.49-.31 1-.47 1.46-.49 1.52-1 3.06-1.43 4.6l-.3 1q-.62 2.06-1.2 4.14c-.12.45-.25.91-.37 1.37-.28 1-.55 2.05-.81 3.08-.16.6-.31 1.2-.47 1.8l-.12.53c-.36 1.42-.7 2.85-1 4.28 0 .21-.1.42-.14.63-.37 1.61-.71 3.23-1 4.85-.07.33-.14.65-.2 1-.33 1.63-.64 3.27-.94 4.91l-.12.64c-.62 3.55-1.18 7.12-1.65 10.71 0 .16 0 .33-.07.49v.12c-.19 1.51-.37 3-.54 4.56-.05.46-.11.92-.16 1.39-.15 1.42-.28 2.86-.41 4.29-.05.59-.11 1.18-.16 1.77-.11 1.37-.2 2.75-.29 4.13 0 .64-.09 1.28-.12 1.92-.09 1.59-.16 3.17-.23 4.75 0 .72-.06 1.44-.08 2.16 0 1.21 0 2.42-.08 3.63s0 2.35 0 3.53v1.64c0 1.53 0 3.06.06 4.58v1.45c.06 1.86.12 3.7.21 5.55a1 1 0 0 1 0 .16c.1 1.87.22 3.73.35 5.59L.8 270c.14 1.71.29 3.42.46 5.12l.06.66c.18 1.74.38 3.47.6 5.2.07.58.14 1.16.22 1.74.2 1.52.41 3 .63 4.54.07.47.14.94.22 1.41.24 1.54.49 3.07.76 4.6l.36 2c.24 1.29.48 2.58.74 3.86l.48 2.36q.4 1.92.84 3.84c.17.78.35 1.55.53 2.32.25 1 .5 2.08.76 3.11s.59 2.31.89 3.46c.26 1 .53 2 .8 2.94s.5 1.78.76 2.66.46 1.57.7 2.35q.69 2.31 1.43 4.6c.22.67.43 1.33.65 2 .33 1 .67 2 1 3 .19.54.38 1.09.58 1.63q1 2.86 2.09 5.7c.13.35.26.7.4 1 .42 1.1.86 2.2 1.3 3.29.13.33.27.65.4 1q1.37 3.34 2.82 6.65l.09.2c.53 1.18 1.06 2.35 1.6 3.51.07.16.14.32.22.48q2.48 5.33 5.2 10.53a1 1 0 0 0 .07.13q2.79 5.32 5.83 10.5c1.35 2.31 2.74 4.58 4.16 6.84a251.46 251.46 0 0 0 78.28 78.28c2.26 1.42 4.53 2.81 6.84 4.16q2.17 1.28 4.38 2.5A255.1 255.1 0 0 0 251.59 500h168.72A80 80 0 0 0 500 420.31V251.59A255.1 255.1 0 0 0 468.2 128M165.07 395.43H99.91v-194.8h65.16ZM132.49 174h-.42c-21.87 0-36-15-36-33.65 0-19.12 14.57-33.66 36.86-33.66s36 14.54 36.44 33.66c-.01 18.72-14.16 33.65-36.88 33.65M400 395.43h-65.13V291.21c0-26.18-9.43-44-33-44-18 0-28.72 12-33.43 23.68-1.72 4.16-2.15 10-2.15 15.8v108.74h-65.16s.85-176.53 0-194.8h65.16v27.59c8.65-13.28 24.13-32.17 58.72-32.17 42.87 0 75 27.85 75 87.68Z" class="cls-1"/></svg>