<svg xmlns="http://www.w3.org/2000/svg" id="Layer_1" data-name="Layer 1" viewBox="0 0 512 512">
  <defs>
    <style>
      .cls-1 {
        fill: none
      }

      .cls-2 {
        fill: #000
      }
    </style>
  </defs>
  <path
    d="M167.36 237.4 60.12 344.64a75.84 75.84 0 0 0 0 107.24 75.84 75.84 0 0 0 107.24 0L264.21 355l-53.61-53.59 64-64a75.84 75.84 0 0 0-107.24-.01"
    class="cls-1" />
  <path
    d="M167.36 451.88a75.84 75.84 0 0 1-107.24 0 75.84 75.84 0 0 1 0-107.24L167.36 237.4a75.84 75.84 0 0 1 107.24 0l26.81-26.8a113.75 113.75 0 0 0-160.85 0L33.31 317.83a113.76 113.76 0 0 0 0 160.86 113.76 113.76 0 0 0 160.86 0L291 381.83 264.21 355Z"
    class="cls-2" />
  <path
    d="M237.4 274.6a75.84 75.84 0 0 0 107.24 0l107.24-107.24a75.84 75.84 0 0 0 0-107.24 75.84 75.84 0 0 0-107.24 0L247.79 157l53.61 53.61Z"
    class="cls-1" />
  <path
    d="M478.69 33.31a113.76 113.76 0 0 0-160.86 0L221 130.17 247.79 157l96.85-96.86a75.84 75.84 0 0 1 107.24 0 75.84 75.84 0 0 1 0 107.24L344.64 274.6a75.84 75.84 0 0 1-107.24 0l-26.81 26.8a113.75 113.75 0 0 0 160.85 0l107.25-107.23a113.76 113.76 0 0 0 0-160.86"
    class="cls-2" />
</svg>