<svg xmlns="http://www.w3.org/2000/svg" data-name="Layer 1" viewBox="0 0 500 500"><path d="M234.77.46C108.83 8 8 108.83.46 234.77-8.3 380.58 106.12 500 252.19 500H420a80 80 0 0 0 80-80V252.19C500 106.12 380.58-8.3 234.77.46M110.7 278a71.5 71.5 0 0 0 14.44 22.9 67.3 67.3 0 0 0 21.5 15.39 64.44 64.44 0 0 0 48.74 1.41 87.7 87.7 0 0 0 20.55-11.39 12.35 12.35 0 0 1 8.34-2.71 10.63 10.63 0 0 1 6.93 3.29q2.8 2.89 2.8 8.11a11.7 11.7 0 0 1-.94 4.58 12.9 12.9 0 0 1-2.8 4.1 94.4 94.4 0 0 1-27.11 15.25 89.5 89.5 0 0 1-30.42 5.17 88.5 88.5 0 0 1-64.48-27.13A92.7 92.7 0 0 1 89 287a98.1 98.1 0 0 1-7-37.12 96.6 96.6 0 0 1 7-36.76 93.2 93.2 0 0 1 19.26-29.83A90.4 90.4 0 0 1 137 163.21a87.2 87.2 0 0 1 35.7-7.28q18.07 0 31.12 4.69T230 176.13a13.4 13.4 0 0 1 2.94 2.93 9.1 9.1 0 0 1 1.41 3.06 16.7 16.7 0 0 1 .35 3.64 9.68 9.68 0 0 1-3.17 7.4 12.21 12.21 0 0 1-16.33.35 69.5 69.5 0 0 0-18-11.51q-9.27-4-24.54-4a61.6 61.6 0 0 0-26.07 5.63 68.9 68.9 0 0 0-21.5 15.51 71.5 71.5 0 0 0-14.44 22.9 78.14 78.14 0 0 0 0 55.9Zm305.82-103.52L347 334a13.8 13.8 0 0 1-4.34 5.76 11 11 0 0 1-6.7 2q-7.51 0-11-7.75L256.09 176.6q-3.28-8-.7-13.16t9.86-5.16q8.22 0 11.28 7.28L335.42 307a.21.21 0 0 0 .39 0l60-141.39q1.88-4.23 4.35-5.76a12.7 12.7 0 0 1 6.69-1.52q7 0 9.75 5.05t-.08 11.1" style="fill:#fff"/></svg>