<?xml version="1.0" encoding="UTF-8" standalone="no"?>
<svg
   width="100%"
   height="100%"
   viewBox="0 0 2400 1800"
   version="1.1"
   xml:space="preserve"
   style="fill-rule:evenodd;clip-rule:evenodd;stroke-linecap:round;stroke-linejoin:round;stroke-miterlimit:1.5;"
   id="svg18285"
   sodipodi:docname="computer_graphics.svg"
   inkscape:version="1.2.2 (b0a8486541, 2022-12-01, custom)"
   xmlns:inkscape="http://www.inkscape.org/namespaces/inkscape"
   xmlns:sodipodi="http://sodipodi.sourceforge.net/DTD/sodipodi-0.dtd"
   xmlns:xlink="http://www.w3.org/1999/xlink"
   xmlns="http://www.w3.org/2000/svg"
   xmlns:svg="http://www.w3.org/2000/svg"><sodipodi:namedview
   id="namedview18287"
   pagecolor="#ffffff"
   bordercolor="#000000"
   borderopacity="0.25"
   inkscape:showpageshadow="2"
   inkscape:pageopacity="0.0"
   inkscape:pagecheckerboard="0"
   inkscape:deskcolor="#d1d1d1"
   showgrid="false"
   inkscape:zoom="0.25"
   inkscape:cx="842"
   inkscape:cy="942"
   inkscape:window-width="2048"
   inkscape:window-height="1088"
   inkscape:window-x="0"
   inkscape:window-y="27"
   inkscape:window-maximized="1"
   inkscape:current-layer="svg18285" />
    <rect
   x="0"
   y="0"
   width="2400"
   height="1800"
   style="fill:url(#_Linear1);"
   id="rect18260" /><rect
   style="clip-rule:evenodd;fill:#008033;fill-rule:evenodd;stroke-width:0.752967;stroke-linecap:round;stroke-linejoin:round;stroke-miterlimit:1.5"
   id="rect18406-31"
   width="279.33905"
   height="279.33905"
   x="1710.5175"
   y="966.36157"
   transform="matrix(0.92108932,0.38935135,-0.92108932,0.38935135,0,0)" /><path
   id="path18462-9"
   style="clip-rule:evenodd;fill:#005522;fill-rule:evenodd;stroke-width:0.980823;stroke-linecap:round;stroke-linejoin:round;stroke-miterlimit:1.5"
   d="m 428.13801,1151.0068 v 39.2544 28.5741 l 257.29671,108.7626 v -28.5741 0 l 0.0179,-39.2542 z" /><path
   id="path18518-4"
   style="clip-rule:evenodd;fill:#002b11;fill-rule:evenodd;stroke-width:0.980823;stroke-linecap:round;stroke-linejoin:round;stroke-miterlimit:1.5"
   d="m 942.72938,1151.0068 -257.29287,108.7609 -0.0179,39.2561 0.0179,28.5741 257.29475,-108.7626 v -28.5741 0 z" /><path
   style="clip-rule:evenodd;fill:#784421;fill-rule:evenodd;stroke-width:0.980823;stroke-linecap:round;stroke-linejoin:round;stroke-miterlimit:1.5"
   d="m 428.1343,1218.8353 8.9e-4,243.9804 257.29622,108.761 v -243.9795 z"
   id="path18581-78" /><path
   style="clip-rule:evenodd;fill:#502d16;fill-rule:evenodd;stroke-width:0.980823;stroke-linecap:round;stroke-linejoin:round;stroke-miterlimit:1.5"
   d="m 942.73126,1218.8353 v 243.9804 l -257.29617,108.761 0.0179,-243.9788 z"
   id="path18637-4" /><rect
   style="clip-rule:evenodd;fill:#008033;fill-rule:evenodd;stroke-width:0.752967;stroke-linecap:round;stroke-linejoin:round;stroke-miterlimit:1.5"
   id="rect18406-0"
   width="279.33905"
   height="279.33905"
   x="2269.1921"
   y="407.68646"
   transform="matrix(0.92108932,0.38935135,-0.92108932,0.38935135,0,0)" /><path
   id="path18462-23"
   style="clip-rule:evenodd;fill:#005522;fill-rule:evenodd;stroke-width:0.980823;stroke-linecap:round;stroke-linejoin:round;stroke-miterlimit:1.5"
   d="m 1457.3174,1151.0068 v 39.2544 28.5741 l 257.2965,108.7626 v -28.5741 0 l 0.018,-39.2542 z" /><path
   id="path18518-75"
   style="clip-rule:evenodd;fill:#002b11;fill-rule:evenodd;stroke-width:0.980823;stroke-linecap:round;stroke-linejoin:round;stroke-miterlimit:1.5"
   d="m 1971.9085,1151.0068 -257.2928,108.7609 -0.018,39.2561 0.018,28.5741 257.2948,-108.7626 v -28.5741 0 z" /><path
   style="clip-rule:evenodd;fill:#784421;fill-rule:evenodd;stroke-width:0.980823;stroke-linecap:round;stroke-linejoin:round;stroke-miterlimit:1.5"
   d="m 1457.3135,1218.8353 v 243.9804 l 257.297,108.761 v -243.9795 z"
   id="path18581-9" /><path
   style="clip-rule:evenodd;fill:#502d16;fill-rule:evenodd;stroke-width:0.980823;stroke-linecap:round;stroke-linejoin:round;stroke-miterlimit:1.5"
   d="m 1971.9105,1218.8353 v 243.9804 l -257.2962,108.761 0.018,-243.9788 z"
   id="path18637-22" /><rect
   style="clip-rule:evenodd;fill:#008033;fill-rule:evenodd;stroke-width:0.752967;stroke-linecap:round;stroke-linejoin:round;stroke-miterlimit:1.5"
   id="rect18406-6"
   width="279.33905"
   height="279.33905"
   x="1989.8514"
   y="687.02777"
   transform="matrix(0.92108932,0.38935135,-0.92108932,0.38935135,0,0)" /><path
   id="path18462-1"
   style="clip-rule:evenodd;fill:#005522;fill-rule:evenodd;stroke-width:0.980823;stroke-linecap:round;stroke-linejoin:round;stroke-miterlimit:1.5"
   d="m 942.72089,1151.0069 v 39.2542 28.5742 l 257.29651,108.7628 v -28.5743 0 l 0.018,-39.2542 z" /><path
   id="path18518-8"
   style="clip-rule:evenodd;fill:#002b11;fill-rule:evenodd;stroke-width:0.980823;stroke-linecap:round;stroke-linejoin:round;stroke-miterlimit:1.5"
   d="m 1457.3122,1151.0069 -257.2928,108.7608 -0.018,39.2561 0.018,28.5743 257.2948,-108.7628 v -28.5742 0 z" /><path
   style="clip-rule:evenodd;fill:#784421;fill-rule:evenodd;stroke-width:0.980823;stroke-linecap:round;stroke-linejoin:round;stroke-miterlimit:1.5"
   d="m 942.71721,1218.8353 v 243.9804 l 257.29699,108.761 v -243.9795 z"
   id="path18581-7" /><path
   style="clip-rule:evenodd;fill:#502d16;fill-rule:evenodd;stroke-width:0.980823;stroke-linecap:round;stroke-linejoin:round;stroke-miterlimit:1.5"
   d="m 1457.314,1218.8353 v 243.9804 l -257.2962,108.761 0.018,-243.9786 z"
   id="path18637-92" /><rect
   style="clip-rule:evenodd;fill:#008033;fill-rule:evenodd;stroke-width:0.752967;stroke-linecap:round;stroke-linejoin:round;stroke-miterlimit:1.5"
   id="rect18406-3"
   width="279.33905"
   height="279.33905"
   x="909.67102"
   y="-393.1506"
   transform="matrix(0.92108932,0.38935135,-0.92108932,0.38935135,0,0)" /><path
   id="path18462-6"
   style="clip-rule:evenodd;fill:#005522;fill-rule:evenodd;stroke-width:0.980823;stroke-linecap:round;stroke-linejoin:round;stroke-miterlimit:1.5"
   d="m 942.71928,309.86847 v 39.25414 28.57433 l 257.29652,108.7626 v -28.57432 -0.002 l 0.018,-39.25413 z" /><path
   id="path18518-0"
   style="clip-rule:evenodd;fill:#002b11;fill-rule:evenodd;stroke-width:0.980823;stroke-linecap:round;stroke-linejoin:round;stroke-miterlimit:1.5"
   d="m 1457.3105,309.86847 -257.2929,108.76068 -0.018,39.25607 0.018,28.57432 257.2948,-108.7626 v -28.57433 0 z" /><path
   style="clip-rule:evenodd;fill:#784421;fill-rule:evenodd;stroke-width:0.980823;stroke-linecap:round;stroke-linejoin:round;stroke-miterlimit:1.5"
   d="M 942.71542,377.69694 V 621.67706 L 1200.0115,730.43825 V 486.45866 Z"
   id="path18581-6" /><path
   style="clip-rule:evenodd;fill:#502d16;fill-rule:evenodd;stroke-width:0.980823;stroke-linecap:round;stroke-linejoin:round;stroke-miterlimit:1.5"
   d="m 1457.3124,377.69694 v 243.98012 l -257.2962,108.76119 0.018,-243.97871 z"
   id="path18637-2" />
    
    
    
    
    <defs
   id="defs18283">
        <linearGradient
   id="_Linear1"
   x1="0"
   y1="0"
   x2="1"
   y2="0"
   gradientUnits="userSpaceOnUse"
   gradientTransform="matrix(2400,0,0,1800,0,900)"><stop
     offset="0"
     style="stop-color:rgb(0,142,118);stop-opacity:1"
     id="stop18277" /><stop
     offset="1"
     style="stop-color:rgb(131,176,87);stop-opacity:1"
     id="stop18279" /></linearGradient>
    </defs>
<rect
   style="fill:#008033;stroke-width:0.752967"
   id="rect18406"
   width="279.33905"
   height="279.33905"
   x="1310.0897"
   y="286.6098"
   transform="matrix(0.92108932,0.38935135,-0.92108932,0.38935135,0,0)" /><path
   id="path18462"
   style="fill:#005522;stroke-width:0.980823"
   d="m 685.42066,730.43764 v 39.25418 28.57424 l 257.29655,108.76267 v -28.57429 0 l 0.0179,-39.25416 z" /><path
   id="path18518"
   style="fill:#002b11;stroke-width:0.980823"
   d="m 1200.0118,730.43764 -257.29289,108.76075 -0.0179,39.25605 0.0179,28.57429 257.29489,-108.76267 v -28.57424 0 z" /><path
   style="fill:#784421;stroke-width:0.980823"
   d="m 685.4167,798.26606 v 243.98024 l 257.29598,108.7611 V 907.02778 Z"
   id="path18581" /><path
   style="fill:#502d16;stroke-width:0.980823"
   d="m 1200.0138,798.26606 v 243.98024 l -257.29631,108.7611 0.0179,-243.97867 z"
   id="path18637" /><rect
   style="clip-rule:evenodd;fill:#008033;fill-rule:evenodd;stroke-width:0.752967;stroke-linecap:round;stroke-linejoin:round;stroke-miterlimit:1.5"
   id="rect18406-1"
   width="279.33905"
   height="279.33905"
   x="1589.4238"
   y="7.2757597"
   transform="matrix(0.92108932,0.38935135,-0.92108932,0.38935135,0,0)" /><path
   id="path18462-2"
   style="clip-rule:evenodd;fill:#005522;fill-rule:evenodd;stroke-width:0.980823;stroke-linecap:round;stroke-linejoin:round;stroke-miterlimit:1.5"
   d="m 1200.0037,730.43766 v 39.25417 28.57424 l 257.2965,108.76266 v -28.57429 0 l 0.018,-39.25406 z" /><path
   id="path18518-7"
   style="clip-rule:evenodd;fill:#002b11;fill-rule:evenodd;stroke-width:0.980823;stroke-linecap:round;stroke-linejoin:round;stroke-miterlimit:1.5"
   d="m 1714.5951,730.43766 -257.2929,108.76073 -0.018,39.25605 0.018,28.57429 257.2947,-108.76266 v -28.57424 0 z" /><path
   style="clip-rule:evenodd;fill:#784421;fill-rule:evenodd;stroke-width:0.980823;stroke-linecap:round;stroke-linejoin:round;stroke-miterlimit:1.5"
   d="m 1200,798.26607 8e-4,243.98023 257.2962,108.761 V 907.02788 Z"
   id="path18581-0" /><path
   style="clip-rule:evenodd;fill:#502d16;fill-rule:evenodd;stroke-width:0.980823;stroke-linecap:round;stroke-linejoin:round;stroke-miterlimit:1.5"
   d="m 1714.5969,798.26607 v 243.98023 l -257.2961,108.761 0.018,-243.97857 z"
   id="path18637-9" /></svg>
