<?xml version="1.0" encoding="UTF-8" standalone="no"?>
<svg
   width="100%"
   height="100%"
   viewBox="0 0 2400 1800"
   version="1.1"
   xml:space="preserve"
   style="fill-rule:evenodd;clip-rule:evenodd;stroke-linecap:round;stroke-linejoin:round;stroke-miterlimit:1.5;"
   id="svg347"
   sodipodi:docname="operating_systems.svg"
   inkscape:version="1.2.2 (b0a8486541, 2022-12-01, custom)"
   xmlns:inkscape="http://www.inkscape.org/namespaces/inkscape"
   xmlns:sodipodi="http://sodipodi.sourceforge.net/DTD/sodipodi-0.dtd"
   xmlns="http://www.w3.org/2000/svg"
   xmlns:svg="http://www.w3.org/2000/svg"><sodipodi:namedview
   id="namedview349"
   pagecolor="#ffffff"
   bordercolor="#000000"
   borderopacity="0.25"
   inkscape:showpageshadow="2"
   inkscape:pageopacity="0.0"
   inkscape:pagecheckerboard="0"
   inkscape:deskcolor="#d1d1d1"
   showgrid="false"
   inkscape:zoom="0.18109791"
   inkscape:cx="1427.4047"
   inkscape:cy="1775.2828"
   inkscape:window-width="2048"
   inkscape:window-height="1088"
   inkscape:window-x="0"
   inkscape:window-y="27"
   inkscape:window-maximized="1"
   inkscape:current-layer="svg347" />
    <rect
   x="0"
   y="0"
   width="2400"
   height="1800"
   style="fill:url(#_Linear1);"
   id="rect292" />
    
    
    
    
    <g
   transform="matrix(8.18951,0,0,8.18951,-7247.694,-502.98318)"
   id="g312">
        <g
   aria-label="Code"
   id="text310"
   style="font-style:italic;font-size:12px;font-family:DankMono-Italic, 'Dank Mono', monospace;fill:#ffffff"><path
     d="m 937.93109,174.44246 q -0.45117,0.24023 -0.92578,0.35742 -0.47461,0.12305 -1.00781,0.12305 -1.68164,0 -2.61328,-1.18946 -0.92578,-1.18945 -0.92578,-3.3457 0,-2.14453 0.93164,-3.33984 0.9375,-1.20117 2.60742,-1.20117 0.5332,0 1.00781,0.12304 0.47461,0.11719 0.92578,0.35742 v 1.2129 q -0.43359,-0.35743 -0.93164,-0.54493 -0.49805,-0.1875 -1.00195,-0.1875 -1.1543,0 -1.72852,0.89063 -0.57422,0.89062 -0.57422,2.68945 0,1.79297 0.57422,2.6836 0.57422,0.89062 1.72852,0.89062 0.51562,0 1.00781,-0.1875 0.49805,-0.1875 0.92578,-0.54492 z"
     style="font-family:monospace;-inkscape-font-specification:'monospace Italic'"
     id="path331" /><path
     d="m 942.47797,168.94637 q -0.82032,0 -1.24219,0.63867 -0.42188,0.63867 -0.42188,1.89258 0,1.24804 0.42188,1.89257 0.42187,0.63868 1.24219,0.63868 0.82617,0 1.24804,-0.63868 0.42188,-0.64453 0.42188,-1.89257 0,-1.25391 -0.42188,-1.89258 -0.42187,-0.63867 -1.24804,-0.63867 z m 0,-0.91407 q 1.36523,0 2.08593,0.88477 0.72657,0.88476 0.72657,2.56055 0,1.68164 -0.72071,2.5664 -0.7207,0.87891 -2.09179,0.87891 -1.36524,0 -2.08594,-0.87891 -0.7207,-0.88476 -0.7207,-2.5664 0,-1.67579 0.7207,-2.56055 0.7207,-0.88477 2.08594,-0.88477 z"
     style="font-family:monospace;-inkscape-font-specification:'monospace Italic'"
     id="path333" /><path
     d="m 951.12054,169.0284 v -3.39258 h 1.07813 v 9.11719 h -1.07813 v -0.82618 q -0.26953,0.48633 -0.7207,0.74414 -0.44531,0.25196 -1.03125,0.25196 -1.18945,0 -1.875,-0.91992 -0.67969,-0.92579 -0.67969,-2.54883 0,-1.59961 0.68555,-2.50781 0.68555,-0.91407 1.86914,-0.91407 0.5918,0 1.04297,0.25782 0.45117,0.25195 0.70898,0.73828 z m -3.16992,2.44922 q 0,1.2539 0.39844,1.89257 0.39844,0.63868 1.17773,0.63868 0.7793,0 1.1836,-0.64454 0.41015,-0.64453 0.41015,-1.88671 0,-1.24805 -0.41015,-1.88672 -0.4043,-0.64453 -1.1836,-0.64453 -0.77929,0 -1.17773,0.63867 -0.39844,0.63867 -0.39844,1.89258 z"
     style="font-family:monospace;-inkscape-font-specification:'monospace Italic'"
     id="path335" /><path
     d="m 959.83344,171.20222 v 0.52735 h -4.66993 v 0.0352 q 0,1.07227 0.55664,1.65821 0.5625,0.58594 1.58204,0.58594 0.51562,0 1.07812,-0.16407 0.5625,-0.16406 1.20117,-0.49804 v 1.07226 q -0.61523,0.25195 -1.18945,0.375 -0.56836,0.12891 -1.10156,0.12891 -1.5293,0 -2.39063,-0.91406 -0.86133,-0.91993 -0.86133,-2.53125 0,-1.57032 0.84375,-2.50782 0.84375,-0.9375 2.25,-0.9375 1.25391,0 1.97461,0.84961 0.72657,0.84961 0.72657,2.32031 z m -1.07813,-0.3164 q -0.0234,-0.94922 -0.45117,-1.44141 -0.42188,-0.49804 -1.21875,-0.49804 -0.7793,0 -1.2832,0.51562 -0.50391,0.51563 -0.59766,1.42969 z"
     style="font-family:monospace;-inkscape-font-specification:'monospace Italic'"
     id="path337" /></g>
    </g>
    <g
   transform="matrix(8.18951,0,0,8.18951,-6920.7704,-507.64178)"
   id="g316">
        <g
   aria-label="Heap"
   id="text314"
   style="font-style:italic;font-size:12px;font-family:DankMono-Italic, 'Dank Mono', monospace;fill:#ffffff"><path
     d="m 931.24042,166.26053 h 1.18945 v 3.58594 h 3.24023 v -3.58594 h 1.18946 v 8.74805 h -1.18946 v -4.16602 h -3.24023 v 4.16602 h -1.18945 z"
     style="font-family:monospace;-inkscape-font-specification:'monospace Italic'"
     id="path471" /><path
     d="m 944.17792,171.45779 v 0.52735 H 939.508 v 0.0351 q 0,1.07227 0.55664,1.65821 0.5625,0.58593 1.58203,0.58593 0.51562,0 1.07812,-0.16406 0.5625,-0.16406 1.20117,-0.49804 v 1.07226 q -0.61523,0.25195 -1.18945,0.375 -0.56836,0.12891 -1.10156,0.12891 -1.5293,0 -2.39063,-0.91407 -0.86132,-0.91992 -0.86132,-2.53125 0,-1.57031 0.84375,-2.50781 0.84375,-0.9375 2.25,-0.9375 1.2539,0 1.9746,0.84961 0.72657,0.84961 0.72657,2.32031 z m -1.07813,-0.3164 q -0.0234,-0.94922 -0.45117,-1.44141 -0.42187,-0.49805 -1.21875,-0.49805 -0.7793,0 -1.2832,0.51563 -0.50391,0.51562 -0.59766,1.42969 z"
     style="font-family:monospace;-inkscape-font-specification:'monospace Italic'"
     id="path473" /><path
     d="m 949.00018,171.70975 h -0.35742 q -0.94336,0 -1.42383,0.33398 -0.47461,0.32813 -0.47461,0.98438 0,0.59179 0.35743,0.91992 0.35742,0.32812 0.99023,0.32812 0.89062,0 1.40039,-0.61523 0.50977,-0.62109 0.51563,-1.71094 v -0.24023 z m 2.0918,-0.44532 v 3.74415 H 950.008 v -0.97266 q -0.34571,0.58594 -0.87305,0.86719 -0.52149,0.27539 -1.27149,0.27539 -1.00195,0 -1.59961,-0.5625 -0.59765,-0.56836 -0.59765,-1.51758 0,-1.0957 0.73242,-1.66406 0.73828,-0.56836 2.16211,-0.56836 h 1.44727 v -0.16992 q -0.006,-0.78516 -0.39844,-1.13672 -0.39258,-0.35743 -1.25391,-0.35743 -0.55078,0 -1.11328,0.15821 -0.5625,0.1582 -1.0957,0.46289 v -1.07813 q 0.59765,-0.22851 1.14258,-0.33984 0.55078,-0.11719 1.0664,-0.11719 0.81445,0 1.38867,0.24024 0.58008,0.24023 0.9375,0.7207 0.22266,0.29297 0.31641,0.72656 0.0937,0.42774 0.0937,1.28906 z"
     style="font-family:monospace;-inkscape-font-specification:'monospace Italic'"
     id="path475" /><path
     d="m 954.30878,174.1824 v 3.32227 h -1.08399 v -9.05859 h 1.08399 v 0.83789 q 0.26953,-0.48633 0.71484,-0.73829 0.45117,-0.25781 1.03711,-0.25781 1.18945,0 1.86328,0.91992 0.67969,0.91993 0.67969,2.54883 0,1.59961 -0.67969,2.51367 -0.67969,0.90821 -1.86328,0.90821 -0.59766,0 -1.04883,-0.25196 -0.44531,-0.25781 -0.70312,-0.74414 z m 3.16406,-2.44922 q 0,-1.2539 -0.39844,-1.89257 -0.39258,-0.63868 -1.17187,-0.63868 -0.78516,0 -1.18946,0.64454 -0.40429,0.63867 -0.40429,1.88671 0,1.24219 0.40429,1.88672 0.4043,0.64453 1.18946,0.64453 0.77929,0 1.17187,-0.63867 0.39844,-0.63867 0.39844,-1.89258 z"
     style="font-family:monospace;-inkscape-font-specification:'monospace Italic'"
     id="path477" /></g>
    </g>
    <g
   transform="matrix(8.18951,0,0,8.18951,-6456.2885,-564.50578)"
   id="g322">
        <g
   aria-label="Free"
   id="text318"
   style="font-style:italic;font-size:12px;font-family:DankMono-Italic, 'Dank Mono', monospace;fill:#ffffff"><path
     d="m 936.3092,166.00496 h 5.15039 v 0.99609 h -3.96093 v 2.57813 h 3.59179 v 0.99609 h -3.59179 v 4.17774 h -1.18946 z"
     style="font-family:monospace;-inkscape-font-specification:'monospace Italic'"
     id="path480" /><path
     d="m 948.93616,169.54402 q -0.34571,-0.26953 -0.70313,-0.39258 -0.35742,-0.12304 -0.78515,-0.12304 -1.00782,0 -1.54102,0.63281 -0.5332,0.63281 -0.5332,1.82812 v 3.26368 h -1.08399 v -6.5625 h 1.08399 v 1.2832 q 0.26953,-0.69727 0.82617,-1.06641 0.5625,-0.375 1.33008,-0.375 0.39843,0 0.74414,0.0996 0.3457,0.0996 0.66211,0.31055 z"
     style="font-family:monospace;-inkscape-font-specification:'monospace Italic'"
     id="path482" /><path
     d="m 955.90881,171.20222 v 0.52735 h -4.66992 v 0.0352 q 0,1.07227 0.55664,1.65821 0.5625,0.58594 1.58203,0.58594 0.51563,0 1.07813,-0.16407 0.5625,-0.16406 1.20117,-0.49804 v 1.07226 q -0.61523,0.25195 -1.18945,0.375 -0.56836,0.12891 -1.10157,0.12891 -1.52929,0 -2.39062,-0.91406 -0.86133,-0.91993 -0.86133,-2.53125 0,-1.57032 0.84375,-2.50782 0.84375,-0.9375 2.25,-0.9375 1.25391,0 1.97461,0.84961 0.72656,0.84961 0.72656,2.32031 z m -1.07812,-0.3164 q -0.0234,-0.94922 -0.45117,-1.44141 -0.42188,-0.49804 -1.21875,-0.49804 -0.7793,0 -1.28321,0.51562 -0.5039,0.51563 -0.59765,1.42969 z"
     style="font-family:monospace;-inkscape-font-specification:'monospace Italic'"
     id="path484" /><path
     d="m 963.13342,171.20222 v 0.52735 h -4.66992 v 0.0352 q 0,1.07227 0.55664,1.65821 0.5625,0.58594 1.58203,0.58594 0.51563,0 1.07813,-0.16407 0.5625,-0.16406 1.20117,-0.49804 v 1.07226 q -0.61523,0.25195 -1.18945,0.375 -0.56836,0.12891 -1.10157,0.12891 -1.52929,0 -2.39062,-0.91406 -0.86133,-0.91993 -0.86133,-2.53125 0,-1.57032 0.84375,-2.50782 0.84375,-0.9375 2.25,-0.9375 1.25391,0 1.97461,0.84961 0.72656,0.84961 0.72656,2.32031 z m -1.07812,-0.3164 q -0.0234,-0.94922 -0.45117,-1.44141 -0.42188,-0.49804 -1.21875,-0.49804 -0.7793,0 -1.28321,0.51562 -0.5039,0.51563 -0.59765,1.42969 z"
     style="font-family:monospace;-inkscape-font-specification:'monospace Italic'"
     id="path486" /></g>
        <g
   aria-label="Space"
   id="text320"
   style="font-style:italic;font-size:12px;font-family:DankMono-Italic, 'Dank Mono', monospace;fill:#ffffff"><path
     d="m 937.57367,180.70378 v 1.20117 q -0.53906,-0.3457 -1.08398,-0.52148 -0.53907,-0.17578 -1.08985,-0.17578 -0.83789,0 -1.32422,0.39258 -0.48633,0.38671 -0.48633,1.04882 0,0.58008 0.31641,0.88477 0.32227,0.30469 1.19531,0.50976 l 0.6211,0.14063 q 1.23047,0.28711 1.79297,0.90234 0.5625,0.61524 0.5625,1.67578 0,1.24805 -0.77344,1.9043 -0.77344,0.65625 -2.25,0.65625 -0.61524,0 -1.23633,-0.13476 -0.62109,-0.12891 -1.24805,-0.39258 v -1.25977 q 0.67383,0.42774 1.27149,0.62696 0.60351,0.19921 1.21289,0.19921 0.89648,0 1.39453,-0.39843 0.49805,-0.4043 0.49805,-1.125 0,-0.65625 -0.34571,-1.00196 -0.33984,-0.3457 -1.18945,-0.5332 l -0.63281,-0.14648 q -1.21875,-0.27539 -1.76953,-0.83204 -0.55078,-0.55664 -0.55078,-1.49414 0,-1.17187 0.78515,-1.875 0.79102,-0.70898 2.09766,-0.70898 0.5039,0 1.06054,0.11719 0.55665,0.11133 1.17188,0.33984 z"
     style="font-family:monospace;-inkscape-font-specification:'monospace Italic'"
     id="path489" /><path
     d="m 941.06586,188.32683 v 3.32226 h -1.08399 v -9.05859 h 1.08399 v 0.83789 q 0.26953,-0.48633 0.71484,-0.73828 0.45117,-0.25781 1.03711,-0.25781 1.18945,0 1.86328,0.91992 0.67969,0.91992 0.67969,2.54883 0,1.59961 -0.67969,2.51367 -0.67969,0.9082 -1.86328,0.9082 -0.59766,0 -1.04883,-0.25195 -0.44531,-0.25781 -0.70312,-0.74414 z m 3.16406,-2.44922 q 0,-1.25391 -0.39844,-1.89258 -0.39258,-0.63867 -1.17187,-0.63867 -0.78516,0 -1.18946,0.64453 -0.40429,0.63867 -0.40429,1.88672 0,1.24219 0.40429,1.88672 0.4043,0.64453 1.18946,0.64453 0.77929,0 1.17187,-0.63867 0.39844,-0.63867 0.39844,-1.89258 z"
     style="font-family:monospace;-inkscape-font-specification:'monospace Italic'"
     id="path491" /><path
     d="m 950.20648,185.85417 h -0.35742 q -0.94336,0 -1.42383,0.33399 -0.47461,0.32812 -0.47461,0.98437 0,0.5918 0.35742,0.91992 0.35743,0.32813 0.99024,0.32813 0.89062,0 1.40039,-0.61524 0.50977,-0.62109 0.51562,-1.71093 v -0.24024 z m 2.0918,-0.44531 v 3.74414 h -1.08399 v -0.97266 q -0.3457,0.58594 -0.87304,0.86719 -0.52149,0.27539 -1.27149,0.27539 -1.00195,0 -1.59961,-0.5625 -0.59765,-0.56836 -0.59765,-1.51758 0,-1.0957 0.73242,-1.66406 0.73828,-0.56836 2.16211,-0.56836 h 1.44726 v -0.16992 q -0.006,-0.78516 -0.39843,-1.13672 -0.39258,-0.35742 -1.25391,-0.35742 -0.55078,0 -1.11328,0.1582 -0.5625,0.15821 -1.0957,0.46289 v -1.07812 q 0.59765,-0.22852 1.14257,-0.33985 0.55079,-0.11718 1.06641,-0.11718 0.81445,0 1.38867,0.24023 0.58008,0.24024 0.9375,0.7207 0.22266,0.29297 0.31641,0.72657 0.0937,0.42773 0.0937,1.28906 z"
     style="font-family:monospace;-inkscape-font-specification:'monospace Italic'"
     id="path493" /><path
     d="m 959.53461,188.81902 q -0.4336,0.25195 -0.89649,0.375 -0.45703,0.1289 -0.9375,0.1289 -1.52343,0 -2.38476,-0.91406 -0.85547,-0.91406 -0.85547,-2.53125 0,-1.61719 0.85547,-2.53125 0.86133,-0.91406 2.38476,-0.91406 0.47461,0 0.92578,0.12304 0.45118,0.12305 0.90821,0.38086 v 1.13086 q -0.42774,-0.38086 -0.86133,-0.55078 -0.42774,-0.16992 -0.97266,-0.16992 -1.01367,0 -1.55859,0.65625 -0.54492,0.65625 -0.54492,1.875 0,1.21289 0.54492,1.875 0.55078,0.65625 1.55859,0.65625 0.5625,0 1.00782,-0.16992 0.44531,-0.17578 0.82617,-0.53907 z"
     style="font-family:monospace;-inkscape-font-specification:'monospace Italic'"
     id="path495" /><path
     d="m 967.05804,185.60222 v 0.52734 h -4.66992 v 0.0352 q 0,1.07226 0.55664,1.6582 0.5625,0.58594 1.58203,0.58594 0.51563,0 1.07813,-0.16406 0.5625,-0.16407 1.20117,-0.49805 v 1.07227 q -0.61523,0.25195 -1.18945,0.375 -0.56836,0.1289 -1.10156,0.1289 -1.5293,0 -2.39063,-0.91406 -0.86133,-0.91992 -0.86133,-2.53125 0,-1.57031 0.84375,-2.50781 0.84375,-0.9375 2.25,-0.9375 1.25391,0 1.97461,0.84961 0.72656,0.84961 0.72656,2.32031 z m -1.07812,-0.31641 q -0.0234,-0.94922 -0.45117,-1.4414 -0.42188,-0.49805 -1.21875,-0.49805 -0.7793,0 -1.28321,0.51562 -0.5039,0.51563 -0.59765,1.42969 z"
     style="font-family:monospace;-inkscape-font-specification:'monospace Italic'"
     id="path497" /></g>
    </g>
    <g
   transform="matrix(8.18951,0,0,8.18951,-5910.5566,-494.50458)"
   id="g326">
        <g
   aria-label="Stack"
   id="text324"
   style="font-style:italic;font-size:12px;font-family:DankMono-Italic, 'Dank Mono', monospace;fill:#ffffff"><path
     d="m 937.57367,166.30379 v 1.20117 q -0.53906,-0.3457 -1.08398,-0.52149 -0.53907,-0.17578 -1.08985,-0.17578 -0.83789,0 -1.32422,0.39258 -0.48633,0.38672 -0.48633,1.04883 0,0.58008 0.31641,0.88477 0.32227,0.30468 1.19531,0.50976 l 0.6211,0.14063 q 1.23047,0.28711 1.79297,0.90234 0.5625,0.61523 0.5625,1.67578 0,1.24805 -0.77344,1.9043 -0.77344,0.65625 -2.25,0.65625 -0.61524,0 -1.23633,-0.13477 -0.62109,-0.1289 -1.24805,-0.39258 v -1.25976 q 0.67383,0.42773 1.27149,0.62695 0.60351,0.19922 1.21289,0.19922 0.89648,0 1.39453,-0.39844 0.49805,-0.40429 0.49805,-1.125 0,-0.65625 -0.34571,-1.00195 -0.33984,-0.3457 -1.18945,-0.5332 l -0.63281,-0.14649 q -1.21875,-0.27539 -1.76953,-0.83203 -0.55078,-0.55664 -0.55078,-1.49414 0,-1.17187 0.78515,-1.875 0.79102,-0.70898 2.09766,-0.70898 0.5039,0 1.06054,0.11718 0.55665,0.11133 1.17188,0.33985 z"
     style="font-family:monospace;-inkscape-font-specification:'monospace Italic'"
     id="path500" /><path
     d="m 942.46625,166.32722 v 1.86329 h 2.44922 v 0.83789 h -2.44922 v 3.5625 q 0,0.72656 0.27539,1.01367 0.27539,0.28711 0.96094,0.28711 h 1.21289 v 0.86133 h -1.31836 q -1.21289,0 -1.71094,-0.48633 -0.49805,-0.48633 -0.49805,-1.67578 v -3.5625 h -1.75195 v -0.83789 h 1.75195 v -1.86329 z"
     style="font-family:monospace;-inkscape-font-specification:'monospace Italic'"
     id="path502" /><path
     d="m 950.20648,171.45418 h -0.35742 q -0.94336,0 -1.42383,0.33398 -0.47461,0.32813 -0.47461,0.98438 0,0.59179 0.35742,0.91992 0.35743,0.32812 0.99024,0.32812 0.89062,0 1.40039,-0.61523 0.50977,-0.62109 0.51562,-1.71094 v -0.24023 z m 2.0918,-0.44531 v 3.74414 h -1.08399 v -0.97266 q -0.3457,0.58594 -0.87304,0.86719 -0.52149,0.27539 -1.27149,0.27539 -1.00195,0 -1.59961,-0.5625 -0.59765,-0.56836 -0.59765,-1.51758 0,-1.0957 0.73242,-1.66406 0.73828,-0.56836 2.16211,-0.56836 h 1.44726 v -0.16992 q -0.006,-0.78516 -0.39843,-1.13672 -0.39258,-0.35742 -1.25391,-0.35742 -0.55078,0 -1.11328,0.1582 -0.5625,0.1582 -1.0957,0.46289 v -1.07813 q 0.59765,-0.22851 1.14257,-0.33984 0.55079,-0.11719 1.06641,-0.11719 0.81445,0 1.38867,0.24024 0.58008,0.24023 0.9375,0.7207 0.22266,0.29297 0.31641,0.72656 0.0937,0.42774 0.0937,1.28907 z"
     style="font-family:monospace;-inkscape-font-specification:'monospace Italic'"
     id="path504" /><path
     d="m 959.53461,174.41902 q -0.4336,0.25195 -0.89649,0.375 -0.45703,0.12891 -0.9375,0.12891 -1.52343,0 -2.38476,-0.91406 -0.85547,-0.91407 -0.85547,-2.53125 0,-1.61719 0.85547,-2.53125 0.86133,-0.91407 2.38476,-0.91407 0.47461,0 0.92578,0.12305 0.45118,0.12305 0.90821,0.38086 v 1.13086 q -0.42774,-0.38086 -0.86133,-0.55078 -0.42774,-0.16992 -0.97266,-0.16992 -1.01367,0 -1.55859,0.65625 -0.54492,0.65625 -0.54492,1.875 0,1.21289 0.54492,1.875 0.55078,0.65625 1.55859,0.65625 0.5625,0 1.00782,-0.16993 0.44531,-0.17578 0.82617,-0.53906 z"
     style="font-family:monospace;-inkscape-font-specification:'monospace Italic'"
     id="path506" /><path
     d="m 961.92523,165.63582 h 1.11328 v 5.2793 l 2.83008,-2.72461 h 1.3125 l -2.58398,2.47265 2.98828,4.08985 h -1.31836 l -2.42578,-3.38672 -0.80274,0.75586 v 2.63086 h -1.11328 z"
     style="font-family:monospace;-inkscape-font-specification:'monospace Italic'"
     id="path508" /></g>
    </g>
    <g
   transform="matrix(0.464171,0,0,3.8981,541.80487,-2552.3988)"
   id="g330">
        <path
   d="m 906.765,894.312 v -17.304 h 145.095 v -16.067 l 207.59,24.719 -207.59,24.719 v -16.067 z"
   style="fill:#ffffff"
   id="path328" />
    </g>
    <g
   transform="matrix(0.464171,0,0,3.8981,541.80487,-2552.3988)"
   id="g334">
        <path
   d="m 906.765,894.312 v -17.304 h 145.095 v -16.067 l 207.59,24.719 -207.59,24.719 v -16.067 z"
   style="fill:#ffffff"
   id="path332" />
    </g>
    <g
   transform="matrix(-0.464171,0,0,-3.8981,2101.7273,4352.3912)"
   id="g338">
        <path
   d="m 906.765,894.312 v -17.304 h 145.095 v -16.067 l 207.59,24.719 -207.59,24.719 v -16.067 z"
   style="fill:#ffffff"
   id="path336" />
    </g>
    <defs
   id="defs345"><inkscape:path-effect
   effect="fillet_chamfer"
   id="path-effect2111"
   is_visible="true"
   lpeversion="1"
   nodesatellites_param="F,0,0,1,0,100,0,1 @ F,0,0,1,0,100,0,1 @ F,0,0,1,0,100,0,1 @ F,0,0,1,0,100,0,1"
   unit="px"
   method="auto"
   mode="F"
   radius="100"
   chamfer_steps="1"
   flexible="false"
   use_knot_distance="true"
   apply_no_radius="true"
   apply_with_radius="true"
   only_selected="false"
   hide_knots="false" />
        <linearGradient
   id="_Linear1"
   x1="0"
   y1="0"
   x2="1"
   y2="0"
   gradientUnits="userSpaceOnUse"
   gradientTransform="matrix(2192.6,2179.84,-2179.84,2192.6,179.943,-185.92)"><stop
     offset="0"
     style="stop-color:rgb(0,100,254);stop-opacity:1"
     id="stop340" /><stop
     offset="1"
     style="stop-color:rgb(249,255,96);stop-opacity:1"
     id="stop342" /></linearGradient>
    </defs>
<path
   id="rect515"
   style="fill:#ffffff;stroke-width:1.06507"
   d="m 642.65765,464.17596 h 30 V 1335.809 h -30 z" /><path
   id="rect515-7"
   style="fill:#ffffff;stroke-width:1.06507"
   d="m 962.69885,464.17596 h 30 V 1335.809 h -30 z" /><path
   id="rect515-7-5"
   style="fill:#ffffff;stroke-width:1.06507"
   d="m 1654.8754,464.18347 h 30 v 871.63303 h -30 z" /><path
   id="rect683"
   d="M 427.94763,455.21463 H 1972.0524 a 100,100 45 0 1 100,100 v 689.57077 a 100,100 135 0 1 -100,100 H 427.94763 a 100,100 45 0 1 -100,-100 V 555.21463 a 100,100 135 0 1 100,-100 z"
   style="fill:none;stroke:#ffffff;stroke-width:30;stroke-linejoin:round;stroke-dasharray:none;stroke-opacity:1" /></svg>
