<?xml version="1.0" encoding="UTF-8" standalone="no"?>
<!DOCTYPE svg PUBLIC "-//W3C//DTD SVG 1.1//EN" "http://www.w3.org/Graphics/SVG/1.1/DTD/svg11.dtd">
<svg width="100%" height="100%" viewBox="0 0 2400 1600" version="1.1" xmlns="http://www.w3.org/2000/svg" xmlns:xlink="http://www.w3.org/1999/xlink" xml:space="preserve" xmlns:serif="http://www.serif.com/" style="fill-rule:evenodd;clip-rule:evenodd;stroke-linejoin:round;stroke-miterlimit:2;">
    <rect x="0" y="0" width="2400" height="1600" style="fill:rgb(0,68,57);"/>
    <g id="Layer_1" transform="matrix(2.42335,0,0,2.42335,325.376,406.52)">
        <g transform="matrix(0.412652,0,0,0.412652,-134.267,-167.751)">
            <path d="M1671.51,918.829C1671.51,925.307 1671.36,931.753 1671.05,938.165L1670.73,945.541C1670.4,950.045 1670.07,954.55 1669.74,959.055L1668.37,972.455C1641.39,1206.57 1441.84,1388.59 1200,1388.59C939.764,1388.59 728.486,1177.82 728.486,918.202L1549.42,918.202L1549.42,0L1671.51,0L1671.51,918.202L1671.51,918.829Z" style="fill:rgb(140,140,140);"/>
        </g>
        <g transform="matrix(7.95859e-17,1.29663,-0.611143,3.73322e-17,1121.98,-1543.52)">
            <path d="M1370.52,929.073L1370.52,1009.39L1370.52,929.073Z" style="fill:rgb(140,140,140);"/>
        </g>
    </g>
    <g transform="matrix(0.980147,0,0,1.95204,-37.2251,-595.307)">
        <ellipse cx="1200" cy="776.808" rx="418.779" ry="40.657" style="fill:rgb(77,77,77);"/>
    </g>
</svg>
