<svg xmlns="http://www.w3.org/2000/svg" xml:space="preserve" style="fill-rule:evenodd;clip-rule:evenodd;stroke-linecap:round;stroke-linejoin:round;stroke-miterlimit:1.5" viewBox="0 0 2400 1800"><path d="M0 0h2400v1800H0z" style="fill:#003380"/><path d="M1332.674 957.648a52.5 52.5 0 0 0-4.278-21.126 56.2 56.2 0 0 0-11.672-17.376 55.4 55.4 0 0 0-17.377-11.831 54.77 54.77 0 0 0-42.833 0 54.66 54.66 0 0 0-28.89 29.101 54.5 54.5 0 0 0 0 42.253 54.66 54.66 0 0 0 28.89 29.101 54.77 54.77 0 0 0 42.833 0 55.4 55.4 0 0 0 17.377-11.83 56.2 56.2 0 0 0 11.672-17.377 52.5 52.5 0 0 0 4.278-20.915m-54.717-87.198a84.5 84.5 0 0 1 54.717 19.013v-77.586a15.845 15.845 0 0 1 16.214-16.214 15.85 15.85 0 0 1 11.62 4.595 15.48 15.48 0 0 1 4.753 11.619v145.771a83.34 83.34 0 0 1-25.563 61.689 87.199 87.199 0 1 1-61.688-148.887zm279.923 87.198a83.34 83.34 0 0 1-25.563 61.689 86.565 86.565 0 1 1 19.066-95.068 89.8 89.8 0 0 1 6.708 33.38zm-87.199-54.664a52.8 52.8 0 0 0-21.496 4.384 54.66 54.66 0 0 0-28.89 29.101 54.5 54.5 0 0 0 0 42.253 54.66 54.66 0 0 0 28.89 29.101 54.77 54.77 0 0 0 42.834 0 55.4 55.4 0 0 0 17.376-11.83 56.2 56.2 0 0 0 11.672-17.377 54.14 54.14 0 0 0 0-42.252 56.2 56.2 0 0 0-11.672-17.377 55.4 55.4 0 0 0-17.376-11.83 52.8 52.8 0 0 0-21.127-4.173zm238.41 92.48a15.845 15.845 0 0 1 16.214 16.215 16.43 16.43 0 0 1-5.281 11.989 87.199 87.199 0 1 1 0-132.04 15.85 15.85 0 0 1 5.598 12.307 15.85 15.85 0 0 1-4.595 11.672 15.85 15.85 0 0 1-11.62 4.648 16.48 16.48 0 0 1-10.562-3.75 59.8 59.8 0 0 0-16.637-10.14 51.5 51.5 0 0 0-19.014-3.434 53.45 53.45 0 0 0-21.126 4.278 55.9 55.9 0 0 0-17.43 11.673 54.4 54.4 0 0 0-11.777 17.376 55.3 55.3 0 0 0 0 42.675 54.4 54.4 0 0 0 11.778 17.376 55.9 55.9 0 0 0 17.429 11.673 53.45 53.45 0 0 0 21.126 4.278 52.8 52.8 0 0 0 19.014-3.328 56.2 56.2 0 0 0 16.531-10.035 17.43 17.43 0 0 1 10.563-3.433zm35.07 33.01V811.93a16.214 16.214 0 0 1 16.372-16.373 15.85 15.85 0 0 1 11.461 4.753 15.85 15.85 0 0 1 4.754 11.62v121.476l93.114-60.58a15.85 15.85 0 0 1 8.714-2.482 16.3 16.3 0 0 1 6.39 1.268 15.3 15.3 0 0 1 5.283 3.485 18 18 0 0 1 3.485 5.282 15.1 15.1 0 0 1 1.32 6.232 14.52 14.52 0 0 1-6.231 12.94l-65.228 42.253 66.97 75.368a16.48 16.48 0 0 1 4.543 11.355 15.1 15.1 0 0 1-1.32 6.232 18 18 0 0 1-3.487 5.282 15.3 15.3 0 0 1-5.281 3.485 16.3 16.3 0 0 1-6.39 1.268 15.1 15.1 0 0 1-10.881-4.225l-71.935-80.808-19.013 12.464v56.196a15.85 15.85 0 0 1-4.754 11.514 15.48 15.48 0 0 1-11.46 4.806 15.85 15.85 0 0 1-11.62-4.806 15.85 15.85 0 0 1-4.595-11.461zm308.02-87.04a52.2 52.2 0 0 0-7.87-15.845 55.67 55.67 0 0 0-27.41-20.017 53.6 53.6 0 0 0-17.219-2.8 54.3 54.3 0 0 0-17.27 2.8 56.9 56.9 0 0 0-15.422 7.87 54 54 0 0 0-12.148 12.147 50.4 50.4 0 0 0-7.605 15.845zm-7.024 54.347a15.845 15.845 0 0 1 16.373 16.215 16.16 16.16 0 0 1-4.648 11.672 87.199 87.199 0 1 1-56.988-153.166 88.52 88.52 0 0 1 80.808 53.661 87.2 87.2 0 0 1 6.39 33.538 15.48 15.48 0 0 1-4.753 11.62 15.85 15.85 0 0 1-11.62 4.594h-123.271a53.2 53.2 0 0 0 7.764 15.845 54.7 54.7 0 0 0 12.095 12.148 56 56 0 0 0 15.263 7.87 54.1 54.1 0 0 0 17.377 2.799 54.8 54.8 0 0 0 18.855-3.117 51.6 51.6 0 0 0 15.844-9.348 17 17 0 0 1 10.722-4.33zm92.216-109.17v3.116a89.3 89.3 0 0 1 25.404-14.313 85 85 0 0 1 29.26-4.964 125 125 0 0 1 14.736.95 64.3 64.3 0 0 1 14.471 3.328 30.7 30.7 0 0 1 10.986 6.602 14.47 14.47 0 0 1 4.383 10.88 15.5 15.5 0 0 1-1.32 6.39 18 18 0 0 1-3.486 5.282 15.3 15.3 0 0 1-5.281 3.486 16.3 16.3 0 0 1-6.391 1.267 17.4 17.4 0 0 1-6.866-1.69 57.3 57.3 0 0 0-21.126-3.908 53.45 53.45 0 0 0-21.127 4.278 54.45 54.45 0 0 0-29.048 29.049 53.45 53.45 0 0 0-4.278 21.126v70.984a16.214 16.214 0 0 1-16.215 16.215 15.85 15.85 0 0 1-11.62-4.754 15.85 15.85 0 0 1-4.752-11.461V886.611a15.85 15.85 0 0 1 4.753-11.46 15.85 15.85 0 0 1 11.62-4.754 16.214 16.214 0 0 1 16.214 16.214zm-1022.669-38.133c-13.574-9.454-44.735-12.94-69.083-8.239-2.852-23.556-15.845-44.207-38.503-62.48l-13.045-9.455-9.084 13.574a111.7 111.7 0 0 0-15.264 66.02 78.75 78.75 0 0 0 11.883 35.967 94.4 94.4 0 0 1-45.844 10.563H526.39l-1.109 4.7c-3.96 23.556-3.96 97.234 42.253 153.8 35.122 43.045 87.198 64.805 155.7 64.805 148.36 0 258.216-71.302 309.711-200.383 20.387.58 63.96 0 86.09-44.207.58-1.162 1.69-3.538 5.65-12.359l2.272-4.7-12.465-7.658zm-261.068-166.21h-62.27v58.942h62.27zm0 70.72h-62.27v58.942h62.27zm-73.625 0h-62.27v58.942h62.27zm-73.625 0H644.17v58.942h62.27v-58.942zm-73.625 70.72h-62.217v58.942h62.27v-58.942zm73.625 0H644.17v58.942h62.27v-58.942zm73.625 0h-62.27v58.942h62.27zm73.625 0h-62.27v58.942h62.27zm73.625 0h-62.27v58.942h62.27z" style="fill:#2496ed;stroke-width:5.28156" transform="translate(-180.156)"/></svg>