<?xml version="1.0" encoding="UTF-8" standalone="no"?>
<svg
   width="100%"
   height="100%"
   viewBox="0 0 2400 1800"
   version="1.1"
   xml:space="preserve"
   style="fill-rule:evenodd;clip-rule:evenodd;stroke-linecap:round;stroke-linejoin:round;stroke-miterlimit:1.5;"
   id="svg347"
   sodipodi:docname="docker.svg"
   inkscape:version="1.2.2 (b0a8486541, 2022-12-01, custom)"
   xmlns:inkscape="http://www.inkscape.org/namespaces/inkscape"
   xmlns:sodipodi="http://sodipodi.sourceforge.net/DTD/sodipodi-0.dtd"
   xmlns="http://www.w3.org/2000/svg"
   xmlns:svg="http://www.w3.org/2000/svg"><sodipodi:namedview
   id="namedview349"
   pagecolor="#ffffff"
   bordercolor="#000000"
   borderopacity="0.25"
   inkscape:showpageshadow="2"
   inkscape:pageopacity="0.0"
   inkscape:pagecheckerboard="0"
   inkscape:deskcolor="#d1d1d1"
   showgrid="false"
   inkscape:zoom="0.36219581"
   inkscape:cx="567.37266"
   inkscape:cy="987.03516"
   inkscape:window-width="2048"
   inkscape:window-height="1088"
   inkscape:window-x="0"
   inkscape:window-y="27"
   inkscape:window-maximized="1"
   inkscape:current-layer="svg347" />
    <rect
   x="0"
   y="0"
   width="2400"
   height="1800"
   style="fill:#003380"
   id="rect292" />
    
    
    
    
    
    
    
    
    
    
    
    <defs
   id="defs345"><inkscape:path-effect
   effect="fillet_chamfer"
   id="path-effect2111"
   is_visible="true"
   lpeversion="1"
   nodesatellites_param="F,0,0,1,0,100,0,1 @ F,0,0,1,0,100,0,1 @ F,0,0,1,0,100,0,1 @ F,0,0,1,0,100,0,1"
   unit="px"
   method="auto"
   mode="F"
   radius="100"
   chamfer_steps="1"
   flexible="false"
   use_knot_distance="true"
   apply_no_radius="true"
   apply_with_radius="true"
   only_selected="false"
   hide_knots="false" />
        <linearGradient
   id="_Linear1"
   x1="0"
   y1="0"
   x2="1"
   y2="0"
   gradientUnits="userSpaceOnUse"
   gradientTransform="matrix(2192.6,2179.84,-2179.84,2192.6,179.943,-185.92)"><stop
     offset="0"
     style="stop-color:rgb(0,100,254);stop-opacity:1"
     id="stop340" /><stop
     offset="1"
     style="stop-color:rgb(249,255,96);stop-opacity:1"
     id="stop342" /></linearGradient>
    </defs>
<g
   id="g770"
   transform="translate(-180.1561)"><path
     d="m 1332.6739,957.64822 a 52.498736,52.498736 0 0 0 -4.2781,-21.1263 56.195831,56.195831 0 0 0 -11.6723,-17.3763 55.403596,55.403596 0 0 0 -17.3763,-11.8307 54.769808,54.769808 0 0 0 -42.8335,0 54.664178,54.664178 0 0 0 -28.8901,29.1014 54.505731,54.505731 0 0 0 0,42.2525 54.664178,54.664178 0 0 0 28.8901,29.10148 54.769808,54.769808 0 0 0 42.8335,0 55.403596,55.403596 0 0 0 17.3763,-11.83078 56.195831,56.195831 0 0 0 11.6723,-17.3763 52.498736,52.498736 0 0 0 4.2781,-20.915 z m -54.7171,-87.1986 a 84.505009,84.505009 0 0 1 54.7171,19.0136 v -77.5862 a 15.844688,15.844688 0 0 1 16.2144,-16.21429 15.844688,15.844688 0 0 1 11.6194,4.5949 15.47498,15.47498 0 0 1 4.7534,11.6194 v 145.7712 a 83.343066,83.343066 0 0 1 -25.5628,61.68867 87.198604,87.198604 0 1 1 -61.6886,-148.88727 z m 279.923,87.1986 a 83.343066,83.343066 0 0 1 -25.5628,61.68868 86.564819,86.564819 0 1 1 19.0664,-95.06818 89.786572,89.786572 0 0 1 6.7075,33.3795 z m -87.1987,-54.6642 a 52.815631,52.815631 0 0 0 -21.496,4.3837 54.664178,54.664178 0 0 0 -28.8902,29.1014 54.505731,54.505731 0 0 0 0,42.2526 54.664178,54.664178 0 0 0 28.8902,29.10148 54.769808,54.769808 0 0 0 42.8336,0 55.403596,55.403596 0 0 0 17.3763,-11.83078 56.195831,56.195831 0 0 0 11.6722,-17.3765 54.136021,54.136021 0 0 0 0,-42.2524 56.195831,56.195831 0 0 0 -11.6722,-17.3763 55.403596,55.403596 0 0 0 -17.3763,-11.8307 52.815631,52.815631 0 0 0 -21.1264,-4.1725 z m 238.4097,92.4802 a 15.844688,15.844688 0 0 1 16.2145,16.21448 16.425661,16.425661 0 0 1 -5.2817,11.9892 87.198604,87.198604 0 1 1 0,-132.03928 15.844688,15.844688 0 0 1 5.5986,12.3061 15.844688,15.844688 0 0 1 -4.595,11.6722 15.844688,15.844688 0 0 1 -11.6194,4.6478 16.478477,16.478477 0 0 1 -10.5631,-3.7499 59.787294,59.787294 0 0 0 -16.6369,-10.1406 51.495239,51.495239 0 0 0 -19.0137,-3.433 53.449418,53.449418 0 0 0 -21.1262,4.2781 55.931753,55.931753 0 0 0 -17.4293,11.6722 54.347284,54.347284 0 0 0 -11.7778,17.3764 55.297964,55.297964 0 0 0 0,42.675 54.347284,54.347284 0 0 0 11.7778,17.3764 55.931753,55.931753 0 0 0 17.4293,11.67228 53.449418,53.449418 0 0 0 21.1262,4.2781 52.815631,52.815631 0 0 0 19.0137,-3.3274 56.195831,56.195831 0 0 0 16.5312,-10.03508 17.429158,17.429158 0 0 1 10.5631,-3.433 z m 35.0696,33.00988 V 811.92992 a 16.214398,16.214398 0 0 1 16.3729,-16.3729 15.844688,15.844688 0 0 1 11.461,4.7534 15.844688,15.844688 0 0 1 4.7534,11.61951 v 121.4759 l 93.1139,-60.57951 a 15.844688,15.844688 0 0 1 8.7147,-2.48239 16.267215,16.267215 0 0 1 6.3906,1.2676 15.316533,15.316533 0 0 1 5.2816,3.4859 18.062945,18.062945 0 0 1 3.4858,5.2816 15.105271,15.105271 0 0 1 1.3204,6.2322 14.524299,14.524299 0 0 1 -6.2322,12.9398 l -65.2274,42.2525 66.9703,75.36797 a 16.478477,16.478477 0 0 1 4.5422,11.3553 15.105271,15.105271 0 0 1 -1.3205,6.2323 18.062945,18.062945 0 0 1 -3.4859,5.2815 15.316533,15.316533 0 0 1 -5.2814,3.4858 16.267215,16.267215 0 0 1 -6.3907,1.2675 15.105271,15.105271 0 0 1 -10.8801,-4.2252 l -71.9349,-80.80788 -19.0136,12.4644 v 56.19588 a 15.844688,15.844688 0 0 1 -4.7534,11.5139 15.47498,15.47498 0 0 1 -11.461,4.8062 15.844688,15.844688 0 0 1 -11.6195,-4.8062 15.844688,15.844688 0 0 1 -4.5949,-11.4611 z m 308.0208,-87.04028 a 52.181842,52.181842 0 0 0 -7.8695,-15.8447 55.667674,55.667674 0 0 0 -27.4114,-20.0171 53.607865,53.607865 0 0 0 -17.2178,-2.7992 54.294468,54.294468 0 0 0 -17.2707,2.7992 56.882434,56.882434 0 0 0 -15.4222,7.8695 53.924758,53.924758 0 0 0 -12.1476,12.1476 50.438926,50.438926 0 0 0 -7.6054,15.8447 z m -7.0245,54.3473 a 15.844688,15.844688 0 0 1 16.3729,16.21448 16.161583,16.161583 0 0 1 -4.6477,11.6723 87.198604,87.198604 0 1 1 -56.9882,-153.16548 88.518995,88.518995 0 0 1 80.808,53.6607 87.198604,87.198604 0 0 1 6.3907,33.5379 15.47498,15.47498 0 0 1 -4.7534,11.6195 15.844688,15.844688 0 0 1 -11.6195,4.59491 h -123.2717 a 53.238155,53.238155 0 0 0 7.7639,15.8447 54.664178,54.664178 0 0 0 12.0948,12.14767 55.931753,55.931753 0 0 0 15.2637,7.8696 54.083205,54.083205 0 0 0 17.3763,2.7992 54.769808,54.769808 0 0 0 18.8553,-3.1161 51.600871,51.600871 0 0 0 15.8446,-9.3484 17.006633,17.006633 0 0 1 10.7216,-4.33097 z m 92.2161,-109.1699 v 3.1161 a 89.258415,89.258415 0 0 1 25.4043,-14.313 84.980352,84.980352 0 0 1 29.2599,-4.9647 125.12023,125.12023 0 0 1 14.7356,0.9507 64.329438,64.329438 0 0 1 14.4714,3.3273 30.738697,30.738697 0 0 1 10.9857,6.602 14.471482,14.471482 0 0 1 4.3837,10.88 15.47498,15.47498 0 0 1 -1.3204,6.3907 18.062945,18.062945 0 0 1 -3.4858,5.2816 15.316533,15.316533 0 0 1 -5.2816,3.4858 16.267215,16.267215 0 0 1 -6.3907,1.2676 17.429158,17.429158 0 0 1 -6.8661,-1.6901 57.304959,57.304959 0 0 0 -21.1262,-3.9084 53.449418,53.449418 0 0 0 -21.1262,4.2781 54.452915,54.452915 0 0 0 -29.0486,29.0486 53.449418,53.449418 0 0 0 -4.2781,21.1262 v 70.98428 a 16.214398,16.214398 0 0 1 -16.2144,16.2145 15.844688,15.844688 0 0 1 -11.6194,-4.7534 15.844688,15.844688 0 0 1 -4.7534,-11.4611 V 886.61122 a 15.844688,15.844688 0 0 1 4.7534,-11.4611 15.844688,15.844688 0 0 1 11.6194,-4.75329 16.214398,16.214398 0 0 1 16.2144,16.21439 z"
     style="fill:#2496ed;stroke-width:5.28156"
     id="path582" /><path
     d="m 1114.7038,848.47832 c -13.5736,-9.454 -44.7349,-12.9398 -69.0829,-8.2393 -2.852,-23.5558 -15.8447,-44.2066 -38.5026,-62.4808 l -13.04538,-9.4541 -9.0843,13.5737 a 111.70506,111.70506 0 0 0 -15.2637,66.0195 78.748107,78.748107 0 0 0 11.8835,35.9674 94.381534,94.381534 0 0 1 -45.844,10.5632 h -409.374 l -1.1091,4.7005 c -3.9612,23.5558 -3.9612,97.2337 42.2525,153.79928 35.1224,43.0448 87.1986,64.8048 155.7005,64.8048 148.3591,0 258.2156,-71.3011 309.71088,-200.38258 20.3868,0.58091 63.9597,0 86.0894,-44.20669 0.581,-1.16201 1.6901,-3.5386 5.6513,-12.3589 l 2.2711,-4.7006 -12.4645,-7.6582 z M 853.63612,682.26752 h -62.2696 v 58.9422 h 62.2696 z m 0,70.7201 h -62.2696 v 58.94231 h 62.2696 z m -73.625,0 h -62.2696 v 58.94231 h 62.2696 z m -73.625,0 h -62.2168 v 58.94231 h 62.2696 v -58.94231 z m -73.625,70.7201 h -62.2168 v 58.94231 h 62.2696 v -58.94231 z m 73.625,0 h -62.2168 v 58.94231 h 62.2696 v -58.94231 z m 73.625,0 h -62.2696 v 58.94231 h 62.2696 z m 73.625,0 h -62.2696 v 58.94231 h 62.2696 z m 73.625,0 h -62.2696 v 58.94231 h 62.2696 z"
     style="fill:#2496ed;stroke-width:5.28156"
     id="path584" /></g></svg>
