<svg xmlns="http://www.w3.org/2000/svg" xml:space="preserve" style="fill-rule:evenodd;clip-rule:evenodd;stroke-linejoin:round;stroke-miterlimit:2" viewBox="0 0 2400 1600"><path d="M0 0h2400v1600H0z" style="fill:#c8c8c8"/><path d="M1.745 5.475c0 1.558-.125 2.066-.445 2.44-.357.321-.82.499-1.3.498l.125.891a3.05 3.05 0 0 0 2.03-.739 3.57 3.57 0 0 0 .783-2.671V0H1.745z" style="fill:#4e4e4e;fill-rule:nonzero" transform="translate(749.581 708.552)scale(21.1056)"/><path d="M5.502 4.763c0 .668 0 1.264.053 1.781H4.496l-.071-1.06a2.46 2.46 0 0 1-2.164 1.211C1.229 6.695 0 6.134 0 3.846V.045h1.193v3.561c0 1.237.383 2.065 1.46 2.065a1.65 1.65 0 0 0 1.195-.487 1.68 1.68 0 0 0 .488-1.195V0h1.193v4.727z" style="fill:#4e4e4e;fill-rule:nonzero" transform="translate(858.064 708.763)scale(21.1056)"/><path d="M.053 2.273c0-.828 0-1.505-.053-2.119h1.068l.054 1.113A2.58 2.58 0 0 1 3.454.002c1.585 0 2.778 1.327 2.778 3.303 0 2.333-1.433 3.49-2.982 3.49a2.3 2.3 0 0 1-2.021-1.023v3.561H.053zm1.176 1.736q.005.242.053.48a1.835 1.835 0 0 0 1.781 1.38c1.255 0 1.994-1.023 1.994-2.51 0-1.3-.695-2.413-1.95-2.413a2.045 2.045 0 0 0-1.878 1.95z" style="fill:#4e4e4e;fill-rule:nonzero" transform="translate(1020.788 706.442)scale(21.1056)"/><path d="m1.318.018 1.433 3.837c.151.427.312.944.418 1.327.125-.392.259-.891.419-1.354l1.3-3.81h1.255L4.362 4.647c-.89 2.226-1.433 3.375-2.252 4.069a3.24 3.24 0 0 1-1.46.766l-.294-.997a3.2 3.2 0 0 0 1.042-.579 3.6 3.6 0 0 0 1.006-1.318.9.9 0 0 0 .098-.285 1 1 0 0 0-.08-.311L0 0h1.3z" style="fill:#4e4e4e;fill-rule:nonzero" transform="translate(1169.371 709.186)scale(21.1056)"/><path d="M2.19 0v1.87H3.9v.89H2.19v3.508c0 .801.232 1.264.89 1.264q.353.006.695-.08l.053.89c-.34.118-.699.172-1.059.16a1.65 1.65 0 0 1-1.291-.498 2.4 2.4 0 0 1-.463-1.692V2.751H0v-.89h1.033V.276z" style="fill:#4e4e4e;fill-rule:nonzero" transform="translate(1319.643 670.14)scale(21.1056)"/><path d="M1.177 3.579a2.1 2.1 0 0 0 1.363 2.13c.284.105.588.147.89.122a4.3 4.3 0 0 0 1.78-.338l.205.89a5.3 5.3 0 0 1-2.181.401A3.02 3.02 0 0 1 .18 4.791a3 3 0 0 1-.169-1.283C.011 1.549 1.177 0 3.082 0c2.137 0 2.671 1.87 2.671 3.063q.018.275 0 .552H1.15zm3.49-.89a1.7 1.7 0 0 0-.39-1.339A1.68 1.68 0 0 0 3.011.766a1.965 1.965 0 0 0-1.825 1.923z" style="fill:#4e4e4e;fill-rule:nonzero" transform="translate(1423.483 707.075)scale(21.1056)"/><path d="M.053 2.192c0-.765 0-1.424-.053-2.03h1.068v1.274h.054A1.97 1.97 0 0 1 2.902.011q.17-.022.339 0v1.113a1.8 1.8 0 0 0-.41 0 1.666 1.666 0 0 0-1.593 1.513 3 3 0 0 0-.054.552v3.464H.009V2.201z" style="fill:#4e4e4e;fill-rule:nonzero" transform="translate(1581.986 706.02)scale(21.1056)"/><path d="M6.031 2.836a3.022 3.022 0 0 1-3.44 3.172A3.02 3.02 0 0 1 .178 1.999 3.02 3.02 0 0 1 2.888.005a2.97 2.97 0 0 1 2.16.762 3 3 0 0 1 .983 2.069" style="fill:#767677;fill-rule:nonzero" transform="translate(1444.8 272.3)scale(21.1056)"/><path d="M18.696 7.122C10.684 7.122 3.641 4.247 0 0a19.936 19.936 0 0 0 30.088 9.444A19.94 19.94 0 0 0 37.393 0C33.76 4.247 26.744 7.122 18.696 7.122" style="fill:#f37726;fill-rule:nonzero" transform="translate(805.933 917.709)scale(21.1056)"/><path d="M18.696 5.897c8.013 0 15.055 2.876 18.697 7.123A19.933 19.933 0 0 0 0 13.02c3.641-4.256 10.648-7.123 18.696-7.123" style="fill:#f37726;fill-rule:nonzero" transform="translate(805.933 360.732)scale(21.1056)"/><path d="M7.596 3.567A3.802 3.802 0 1 1 3.634.005a3.77 3.77 0 0 1 3.962 3.562" style="fill:#9e9e9e;fill-rule:nonzero" transform="translate(807.41 1167.177)scale(21.1056)"/><path d="M2.251 4.379A2.19 2.19 0 0 1 .194 3.091 2.19 2.19 0 0 1 .589.696 2.189 2.189 0 0 1 4.378 2.1a2.217 2.217 0 0 1-2.127 2.279" style="fill:#616262;fill-rule:nonzero" transform="translate(777.651 372.34)scale(21.1056)"/></svg>