<svg xmlns="http://www.w3.org/2000/svg" xml:space="preserve" style="fill-rule:evenodd;clip-rule:evenodd;stroke-linejoin:round;stroke-miterlimit:2" viewBox="0 0 2400 1600"><path d="M0 0h2400v1600H0z" style="fill:#93d6ff"/><path d="M182 212c3.85-11.8 9.63-22.2 17.3-31.3 7.7-9.07 17.3-16.3 28.8-21.7s24.8-8.11 40-8.11 28.6 2.71 40 8.11c11.5 5.4 21.1 12.6 28.8 21.7s13.5 19.5 17.3 31.3c3.85 11.8 5.78 24 5.78 36.7s-1.93 25-5.78 36.8-9.63 22.2-17.3 31.3c-7.7 9.07-17.3 16.3-28.8 21.6-11.5 5.31-24.8 7.98-40 7.98s-28.6-2.66-40-7.98c-11.5-5.32-21.1-12.5-28.8-21.6-7.7-9.07-13.5-19.5-17.3-31.3-3.85-11.8-5.78-24-5.78-36.8s1.93-25 5.78-36.7m23.4 64.7c2.51 9.16 6.46 17.4 11.8 24.7 5.38 7.33 12.3 13.2 20.7 17.7 8.43 4.45 18.5 6.67 30.1 6.67 11.7 0 21.7-2.22 30.1-6.67 8.43-4.45 15.3-10.3 20.7-17.7 5.38-7.33 9.32-15.6 11.8-24.7 2.51-9.17 3.77-18.5 3.77-27.9s-1.26-18.7-3.77-27.9-6.46-17.4-11.8-24.7c-5.38-7.33-12.3-13.2-20.7-17.7-8.43-4.45-18.5-6.68-30.1-6.68-11.7 0-21.7 2.23-30.1 6.68-8.43 4.45-15.3 10.3-20.7 17.7-5.38 7.34-9.33 15.6-11.8 24.7-2.51 9.16-3.76 18.5-3.76 27.9s1.25 18.7 3.76 27.9M398 223v16.1h.404c3.3-6.61 8.48-11.4 15.5-14.4 7.07-3 14.8-4.5 23.3-4.5 9.42 0 17.6 1.69 24.6 5.07 6.99 3.38 12.8 7.94 17.4 13.7 4.63 5.76 8.12 12.4 10.5 19.9 2.36 7.52 3.54 15.5 3.54 23.9 0 8.44-1.14 16.4-3.42 24-2.28 7.52-5.73 14.1-10.4 19.7-4.63 5.6-10.4 10-17.4 13.2-7 3.22-15.1 4.84-24.4 4.84-2.99 0-6.32-.307-10-.919a58 58 0 0 1-11-3c-3.61-1.38-7.03-3.27-10.3-5.65-3.22-2.38-5.93-5.34-8.12-8.88h-.404v61.5h-20.2v-165zm71.7 42.3c-1.49-5.29-3.76-10-6.81-14.2-3.06-4.14-6.98-7.44-11.8-9.9-4.78-2.46-10.4-3.68-16.8-3.68-6.74 0-12.5 1.31-17.2 3.92s-8.54 6.02-11.5 10.2c-2.98 4.22-5.13 9.02-6.46 14.4-1.33 5.37-2 10.8-2 16.3 0 5.84.7 11.5 2.12 16.9 1.41 5.45 3.64 10.2 6.7 14.4 3.05 4.14 7.01 7.48 11.9 10 4.86 2.53 10.7 3.8 17.6 3.8 6.89 0 12.6-1.3 17.3-3.91s8.35-6.06 11.2-10.4c2.82-4.29 4.85-9.2 6.11-14.7a77 77 0 0 0 1.88-17 59.4 59.4 0 0 0-2.24-16.2zM596 335c-9.13 6.75-20.6 10.1-34.5 10.1-9.76 0-18.2-1.53-25.4-4.6-7.16-3.07-13.2-7.37-18.1-12.9-4.88-5.53-8.54-12.1-11-19.8-2.44-7.68-3.81-16-4.13-25.1 0-9.06 1.41-17.3 4.25-24.9 2.83-7.52 6.81-14 11.9-19.6 5.12-5.53 11.2-9.82 18.2-12.9 7.01-3.07 14.7-4.61 23-4.61 10.9 0 19.9 2.2 27.1 6.58 7.17 4.38 12.9 9.96 17.3 16.7 4.33 6.77 7.33 14.2 8.98 22.1q2.475 12 2.01 22.8h-91.3c-.158 5.21.467 10.2 1.88 14.8s3.69 8.81 6.83 12.4c3.14 3.6 7.15 6.47 12 8.62 4.87 2.15 10.6 3.22 17.2 3.22 8.48 0 15.4-1.92 20.8-5.76 5.42-3.84 8.99-9.68 10.7-17.5h19.8c-2.68 13.3-8.58 23.4-17.7 30.1zm-4.89-76.4c-1.8-4.13-4.23-7.7-7.29-10.7-3.06-2.98-6.67-5.36-10.8-7.12-4.16-1.76-8.75-2.65-13.8-2.65-5.18 0-9.85.882-14 2.65-4.16 1.76-7.73 4.18-10.7 7.24-2.98 3.06-5.33 6.63-7.06 10.7-1.73 4.06-2.75 8.39-3.06 13h69.9c-.317-4.6-1.38-8.96-3.18-13.1zM648 223v18.9h.379c8.37-14.4 21.6-21.7 39.8-21.7 8.06 0 14.8 1.08 20.1 3.23 5.37 2.15 9.72 5.15 13 8.99 3.32 3.84 5.65 8.41 6.99 13.7 1.34 5.3 2.01 11.2 2.01 17.6v78.4h-20.2v-80.6c0-7.37-2.21-13.2-6.62-17.5-4.42-4.3-10.5-6.45-18.2-6.45-6.15 0-11.5.926-16 2.77-4.49 1.84-8.24 4.45-11.2 7.83-2.99 3.38-5.24 7.33-6.73 11.9-1.5 4.53-2.25 9.49-2.25 14.9v67.3h-20.2v-119zm222 118c-9.12 3.76-18.3 5.64-27.6 5.64-14.7 0-27.9-2.5-39.6-7.48-11.7-4.99-21.6-11.9-29.6-20.6-8.05-8.75-14.2-19-18.5-30.9-4.29-11.8-6.44-24.6-6.44-38.2q0-21 6.42-39c4.28-12 10.4-22.5 18.5-31.4 8.03-8.93 17.9-15.9 29.6-21q17.55-7.62 39.6-7.62c9.83 0 19.4 1.45 28.6 4.34 9.21 2.9 17.5 7.15 24.9 12.8 7.42 5.61 13.5 12.5 18.4 20.8 4.83 8.23 7.78 17.7 8.86 28.3h-40.2c-2.51-10.5-7.34-18.3-14.5-23.6-7.16-5.24-15.8-7.86-26-7.86-9.48 0-17.5 1.79-24.1 5.38s-12 8.41-16.1 14.4c-4.12 6.04-7.11 12.9-8.98 20.6-1.88 7.7-2.82 15.7-2.82 23.9 0 7.88.939 15.5 2.82 23 1.88 7.44 4.88 14.1 9 20.1 4.12 5.95 9.49 10.7 16.1 14.3 6.62 3.59 14.7 5.38 24.2 5.38 14 0 24.7-3.44 32.4-10.3 7.61-6.88 12-16.9 13.3-29.9h-42.4v-30.8h80.4v101h-26.7l-4.28-21.2c-7.51 9.44-15.8 16-25 19.8zm125-185v152h93.4v34.7h-135v-187z" style="fill:#5586a4;fill-rule:nonzero" transform="matrix(1.83055 0 0 1.83791 101.513 341.259)"/><path d="M796 366c-64.3 38.2-161 60-268 60-194 0-350-78.8-350-176S335 74 528 74c108 0 204 22.1 269 60.6-70.2-64.4-196-110-340-110-220-.035-399 101-399 225-.019 124 179 225 399 225 143 .024 269-45.1 339-109z" style="fill:#5586a4;fill-rule:nonzero" transform="matrix(1.83055 0 0 1.83791 101.513 341.259)"/><path d="M1144 325c0 3.14-.79 6.07-2.36 8.78s-3.71 4.85-6.42 6.41-5.64 2.34-8.78 2.34c-3.13 0-6.04-.781-8.76-2.34-2.71-1.56-4.85-3.7-6.42-6.41a17.23 17.23 0 0 1-2.36-8.78c0-3.13.78-6.05 2.36-8.77q2.355-4.08 6.42-6.42t8.76-2.34c3.14 0 6.07.781 8.78 2.34q4.065 2.34 6.42 6.42c1.57 2.72 2.36 5.64 2.36 8.77m-3.4 0c0-3.91-1.38-7.24-4.15-10-2.77-2.77-6.1-4.15-10-4.15-3.91 0-7.24 1.38-10 4.15-2.77 2.77-4.15 6.1-4.15 10s1.38 7.24 4.15 10c2.77 2.77 6.1 4.15 10 4.15 3.91 0 7.24-1.38 10-4.15s4.15-6.1 4.15-10m-22.1-9.38h8.39c2.37 0 4.1.478 5.16 1.44 1.06.957 1.6 2.24 1.6 3.85 0 1.26-.41 2.34-1.22 3.26s-2.09 1.59-3.84 2q1.08.414 1.59.873c.47.43.97 1.06 1.49 1.91q.045.093 3.03 5.42h-5.52c-1.79-3.57-3-5.7-3.61-6.4-.61-.696-1.23-1.05-1.84-1.05q-.21 0-.57.069v7.38h-4.67zm4.67 7.95h2.02q2.025 0 2.85-.654c.55-.438.83-1 .83-1.69 0-.689-.27-1.25-.8-1.69-.52-.437-1.43-.654-2.7-.654h-2.21z" style="fill:#5586a4;fill-rule:nonzero" transform="translate(89.75 341.259)scale(1.83791)"/></svg>