<svg xmlns="http://www.w3.org/2000/svg" xml:space="preserve" style="fill-rule:evenodd;clip-rule:evenodd;stroke-linecap:round;stroke-linejoin:round;stroke-miterlimit:1.5" viewBox="0 0 2400 1600"><path d="M0 0h2400v1600H0z" style="fill:#ffbc89"/><text x="753.193" y="243.424" style="font-family:&quot;ArialMT&quot;,&quot;Arial&quot;,sans-serif;font-size:79.962px;fill:#ff6953" transform="translate(568.203 257.734)scale(1.57931)">GET</text><text x="699.859" y="326.002" style="font-family:&quot;ArialMT&quot;,&quot;Arial&quot;,sans-serif;font-size:79.962px;fill:#ff6953" transform="translate(568.203 257.734)scale(1.57931)">POST</text><text x="757.644" y="408.58" style="font-family:&quot;ArialMT&quot;,&quot;Arial&quot;,sans-serif;font-size:79.962px;fill:#ff6953" transform="translate(568.203 257.734)scale(1.57931)">PUT</text><text x="606.506" y="491.157" style="font-family:&quot;ArialMT&quot;,&quot;Arial&quot;,sans-serif;font-size:79.962px;fill:#ff6953" transform="translate(568.203 257.734)scale(1.57931)">DELETE</text><text x="544.114" y="243.424" style="font-family:&quot;Courier&quot;;font-size:90.967px;fill:#ff6953" transform="translate(-384.402 308.376)scale(1.38824)">/v1/api/get</text><text x="544.114" y="334.392" style="font-family:&quot;Courier&quot;;font-size:90.967px;fill:#ff6953" transform="translate(-384.402 308.376)scale(1.38824)">/v1/api/pst</text><text x="544.114" y="425.359" style="font-family:&quot;Courier&quot;;font-size:90.967px;fill:#ff6953" transform="translate(-384.402 308.376)scale(1.38824)">/v1/api/put</text><text x="544.114" y="516.326" style="font-family:&quot;Courier&quot;;font-size:90.967px;fill:#ff6953" transform="translate(-384.402 308.376)scale(1.38824)">/v1/api/del</text><path d="M1269.16 537.922v-28.19h557.81v-26.177l40.27 40.272-40.27 40.272v-26.177z" style="fill:#ff6953" transform="translate(242.795 176.35)scale(.78928)"/><path d="M1269.16 537.922v-28.19h549.12v-26.177l48.96 40.272-48.96 40.272v-26.177z" style="fill:#ff6953" transform="matrix(.64916 0 0 .78928 420.623 318.908)"/><path d="M1269.16 537.922v-28.19h517.54v-26.177l80.54 40.272-80.54 40.272v-26.177z" style="fill:#ff6953" transform="matrix(.39464 0 0 .78928 743.654 573.489)"/><path d="M1269.16 537.922v-28.19h557.81v-26.177l40.27 40.272-40.27 40.272v-26.177z" style="fill:#ff6953" transform="translate(242.795 447.577)scale(.78928)"/><path d="M2211.27 611.781c0-75.394-64.3-136.604-143.51-136.604H351.756c-79.201 0-143.502 61.21-143.502 136.604V1021.6c0 75.39 64.301 136.6 143.502 136.6H2067.76c79.21 0 143.51-61.21 143.51-136.6z" style="fill:none;stroke:#ff6953;stroke-width:26.1px" transform="matrix(.8966 0 0 .94188 115.33 30.782)"/></svg>