<svg xmlns="http://www.w3.org/2000/svg" width="2400" height="1600" viewBox="0 0 635 423.333"><path d="M0 0h635v423.333H0z" style="clip-rule:evenodd;fill:#00305b;fill-opacity:1;fill-rule:evenodd;stroke-width:.264583;stroke-linejoin:round;stroke-miterlimit:2"/><path fill="#27aae1" stroke="#414042" stroke-miterlimit="10" stroke-width="4.459" d="M372.475 350.716c.243 10.212-27.732 14.002-56.93 13.556-29.2-.45-48.563-4.975-48.806-15.187l.104-.678 51.654-97.501 53.993 98.893zM251.89 309.799c-1.62 3.939 1.451 8.086 6.862 9.265s11.109-1.06 12.729-4.994" style="clip-rule:evenodd;fill-rule:evenodd;stroke-linejoin:round;stroke-miterlimit:2"/><path fill="#1c75bc" stroke="#414042" stroke-miterlimit="10" stroke-width="4.459" d="m286.033 282.75-12.322 31.092-24.21-5.079 23.932-31.091z" style="clip-rule:evenodd;fill-rule:evenodd;stroke-linejoin:round;stroke-miterlimit:2"/><path fill="#27aae1" stroke="#414042" stroke-miterlimit="10" stroke-width="4.459" d="M385.58 308.664c1.62 3.94-1.451 8.086-6.862 9.266s-11.109-1.06-12.729-4.995" style="clip-rule:evenodd;fill-rule:evenodd;stroke-linejoin:round;stroke-miterlimit:2"/><path fill="#1c75bc" stroke="#414042" stroke-miterlimit="10" stroke-width="4.459" d="m351.437 281.62 12.328 31.087 24.209-5.078-26.518-31.092z" style="clip-rule:evenodd;fill-rule:evenodd;stroke-linejoin:round;stroke-miterlimit:2"/><path fill="none" stroke="#414042" stroke-miterlimit="10" stroke-width="4.459" d="M311.377 284.42v80.125m13.16-78.812v80.125" style="clip-rule:evenodd;fill-rule:evenodd;stroke-linejoin:round;stroke-miterlimit:2"/><path fill="#1c75bc" stroke="#414042" stroke-miterlimit="10" stroke-width="4.459" d="M243.793 278.98c14.201-2.924 30.314-.342 41.507 6.659 4.925 3.077 8.874 6.897 12.417 10.856 5.173 5.782 9.577 11.97 12.357 18.566 3.86-13.879 5.584-28.07 5.123-42.22-.084-2.597-.287-5.307-2.066-7.556-1.442-1.819-3.78-3.161-6.144-4.366-13.328-6.798-24.586-10.588-39.346-4.588-6.164 2.507-11.55 5.535-15.826 9.667-1.461 1.412-7.486 12.868-8.022 12.982zm148.462 0c-14.2-2.924-30.314-.342-41.507 6.659-4.925 3.077-8.874 6.897-12.417 10.856-5.172 5.782-9.577 11.97-12.357 18.566-3.86-13.879-5.584-28.07-5.123-42.22.084-2.597.287-5.307 2.066-7.556 1.442-1.819 3.78-3.161 6.144-4.366 13.328-6.798 24.586-10.588 39.346-4.588 6.164 2.507 11.55 5.535 15.826 9.667 1.462 1.412 7.492 12.868 8.022 12.982z" style="clip-rule:evenodd;fill-rule:evenodd;stroke-linejoin:round;stroke-miterlimit:2"/><path fill="#27aae1" stroke="#414042" stroke-miterlimit="10" stroke-width="3.468" d="M270.163 204.846c-3.047-10.054-5.049-20.543-5.95-31.21-7.051 11.039-17.7 19.437-29.418 23.208 3.613 1.833 7.948 2.1 11.907.728-9.806 8.899-13.988 24.457-9.925 36.899 1.353-5.158 3.736-10.054 6.937-14.24-2.76 14.631-.54 29.991 6.14 42.413 1.882-7.61 6.683-14.503 12.976-18.625m102.173-40.016c3.047-10.053 5.05-20.542 5.951-31.21 7.05 11.04 17.699 19.438 29.417 23.208-3.612 1.834-7.948 2.101-11.907.729 9.806 8.899 13.988 24.457 9.925 36.898-1.353-5.158-3.736-10.053-6.937-14.24 2.76 14.632.54 29.992-6.139 42.413-1.883-7.61-6.684-14.502-12.977-18.625" style="clip-rule:evenodd;fill-rule:evenodd;stroke-linejoin:round;stroke-miterlimit:2"/><path fill="#fff" stroke="#414042" stroke-miterlimit="10" stroke-width="2.477" d="M307.87 292.952c2.546 3.588 9.096 4.623 14.08 3.152 4.985-1.472 8.597-4.826 11.332-8.334 4.623-5.926 7.398-12.685 8.037-19.562-.04 5.163 1.343 10.326 4.043 15.063 10.841-7.452 17.045-18.675 16.475-29.799a61 61 0 0 0 5.787 11.862c.446.714.972 1.467 1.908 1.804 2.205.797 4.316-1.224 5.212-2.958 6.07-11.763 4.782-25.602-3.408-36.592 2.16 1.73 4.885 3.038 7.863 3.771-1.432-7.214-6.184-14.017-13.23-18.947 4.638 1.125 9.276 2.244 13.914 3.37-6.377-9.227-18.834-15.846-32.38-17.209h-59.26c-13.551 1.367-26.008 7.987-32.38 17.208 4.638-1.125 9.276-2.244 13.914-3.37-7.046 4.93-11.798 11.734-13.23 18.948 2.973-.738 5.703-2.046 7.864-3.77-8.19 10.99-9.48 24.828-3.41 36.59.897 1.735 3.003 3.756 5.213 2.959.932-.337 1.462-1.095 1.908-1.804a61.3 61.3 0 0 0 5.787-11.862c-.57 11.124 5.634 22.347 16.475 29.799 2.695-4.732 4.082-9.9 4.043-15.063.639 6.877 3.414 13.636 8.037 19.562 2.735 3.503 6.347 6.862 11.331 8.334 4.985 1.471 11.535.436 14.082-3.152" style="clip-rule:evenodd;fill-rule:evenodd;stroke-linejoin:round;stroke-miterlimit:2"/><path fill="#1c75bc" stroke="#414042" stroke-miterlimit="10" stroke-width="3.468" d="M317.323 221.98c4.509 1.065 9.79-2.195 8.929-5.505.361 1.977 3.88 3.28 6.371 2.358 2.166-.798 3.018-2.78 2.602-4.484-.421-1.704-1.838-3.19-3.27-4.593-1.442-1.417-2.973-2.83-5.005-3.82-2.031-.991-4.677-2.14-7.006-1.566h-2.958c-2.329-.57-4.975.58-7.006 1.566s-3.563 2.403-5.004 3.82c-1.432 1.402-2.85 2.889-3.27 4.593-.422 1.705.435 3.686 2.6 4.484 2.493.922 6.016-.386 6.373-2.358-.863 3.314 4.42 6.57 8.928 5.505" style="clip-rule:evenodd;fill-rule:evenodd;stroke-linejoin:round;stroke-miterlimit:2"/><path fill="#fff" stroke="#414042" stroke-miterlimit="10" stroke-width="2.477" d="M303.598 238.107c-.728 7.274 2.349 14.82 7.948 19.513.728-2.413 1.451-4.831 2.18-7.244-1.57 4.88-.09 10.613 3.652 14.12a19.14 19.14 0 0 0 1.996-10.637c-.436 3.865.996 7.898 3.766 10.628 2.16-3.478 2.923-7.799 2.096-11.812a11.57 11.57 0 0 0 2.225 6.114c6.426-6.02 8.472-16.247 4.845-24.269" style="clip-rule:evenodd;fill-rule:evenodd;stroke-linejoin:round;stroke-miterlimit:2"/><path fill="#fff" stroke="#414042" stroke-miterlimit="10" stroke-width="2.477" d="M297.187 249.117a16.9 16.9 0 0 1 .763-8.725c-.753 2.333-1.517 4.736-1.343 7.18.173 2.442 1.506 4.974 3.805 5.821a65 65 0 0 1 .367-10.048c-.352 2.086-.704 4.221-.352 6.307s1.541 4.157 3.488 4.99c-.287-4.143-.356-8.89 2.676-11.733 5.366-5.034 13.427-5.6 11.287-15.539-1.12-5.217-5.862-8.344-11.094-8.126-6.377.263-10.915 5.659-13.403 11.09-1.526 3.324-2.363 6.98-1.62 10.622.644 3.172 5.054 6.075 5.426 8.161z" style="clip-rule:evenodd;fill-rule:evenodd;stroke-linejoin:round;stroke-miterlimit:2"/><path fill="#fff" stroke="#414042" stroke-miterlimit="10" stroke-width="2.477" d="M339.526 249.83c.52-2.908.252-5.95-.763-8.725.753 2.334 1.516 4.737 1.342 7.18s-1.506 4.974-3.805 5.822a65 65 0 0 0-.367-10.049c.352 2.086.704 4.222.352 6.308s-1.54 4.157-3.488 4.99c.287-4.143.357-8.89-2.676-11.734-5.366-5.034-13.427-5.599-11.287-15.538 1.12-5.218 5.862-8.344 11.094-8.126 6.377.263 10.916 5.658 13.403 11.089 1.526 3.325 2.363 6.981 1.62 10.623-.644 3.166-5.054 6.075-5.425 8.16z" style="clip-rule:evenodd;fill-rule:evenodd;stroke-linejoin:round;stroke-miterlimit:2"/><path fill="#1c75bc" stroke="#262262" stroke-miterlimit="10" stroke-width="3.468" d="M429.56 184.818c-19.017 12.234-48.642 22.43-110.067 22.43s-99.116-13.982-112.37-22.43c-13.73-8.75 49.79-17.04 111.216-17.04s124.836 8.28 111.22 17.04z" style="clip-rule:evenodd;fill-rule:evenodd;stroke-linejoin:round;stroke-miterlimit:2"/><path fill="#1c75bc" stroke="#262262" stroke-miterlimit="10" stroke-width="3.468" d="M367.03 166.476c-.154 11.97-22.089 21.954-49.003 22.296s-48.602-9.082-48.454-21.053l.12-.797 46.892-115.795 50.49 114.268z" style="clip-rule:evenodd;fill-rule:evenodd;stroke-linejoin:round;stroke-miterlimit:2"/></svg>