<svg xmlns="http://www.w3.org/2000/svg" xml:space="preserve" style="fill-rule:evenodd;clip-rule:evenodd;stroke-linejoin:round;stroke-miterlimit:2" viewBox="0 0 2400 1600"><path d="M0 0h2400v1600H0z" style="fill:#e45505"/><path d="m5.181 6.127 2.973 9.504 2.922-9.504a.65.65 0 0 1 .619-.456h3.821a.64.64 0 0 1 .311.06.64.64 0 0 1 .37.491.64.64 0 0 1-.029.316l-4.799 13.591a.65.65 0 0 1-.613.437H5.468a.66.66 0 0 1-.613-.437L.037 6.538a.65.65 0 0 1 .612-.867h3.913a.66.66 0 0 1 .619.456M21.676 5.664h-3.717a.65.65 0 0 0-.652.652v13.591c0 .36.292.652.652.652h3.717c.36 0 .652-.292.652-.652V6.316a.65.65 0 0 0-.652-.652M29.619 16.869a3.27 3.27 0 0 0 1.839.489 4.1 4.1 0 0 0 1.786-.313 1.05 1.05 0 0 0 .652-.984.71.71 0 0 0-.274-.606 2 2 0 0 0-.867-.3 63 63 0 0 0-2.067-.307 12.7 12.7 0 0 1-4.694-1.303 3.27 3.27 0 0 1-1.23-1.289 3.27 3.27 0 0 1-.368-1.743 4.382 4.382 0 0 1 1.832-3.696 7.9 7.9 0 0 1 4.891-1.388 9.53 9.53 0 0 1 5.288 1.304 4.4 4.4 0 0 1 2.04 2.816.64.64 0 0 1-.152.525.652.652 0 0 1-.5.224h-3.481a.66.66 0 0 1-.587-.417 1.6 1.6 0 0 0-.652-.652 3.4 3.4 0 0 0-1.787-.423 3.35 3.35 0 0 0-1.591.319 1.01 1.01 0 0 0-.58.926.7.7 0 0 0 .58.652c.691.175 1.396.286 2.106.332l.581.059c1.627.108 3.214.552 4.661 1.303q1.663.972 1.663 3.305a4.12 4.12 0 0 1-.9 2.653 5.7 5.7 0 0 1-2.523 1.747 10.6 10.6 0 0 1-3.795.652 9.07 9.07 0 0 1-5.262-1.395 4.77 4.77 0 0 1-2.06-3.011.65.65 0 0 1 .354-.689.7.7 0 0 1 .265-.068h3.463a.66.66 0 0 1 .58.398c.166.368.441.675.789.88M39.163 9.146V6.323a.65.65 0 0 1 .652-.652h1.688V2.138a.654.654 0 0 1 .652-.652h3.691a.654.654 0 0 1 .652.652v3.533h2.549a.65.65 0 0 1 .652.652v2.823a.65.65 0 0 1-.652.651h-2.549v5.28a1.15 1.15 0 0 0 .316 1.042 1.168 1.168 0 0 0 1.04.321h1.193a.65.65 0 0 1 .652.652v2.822a.65.65 0 0 1-.652.652h-3.071a4.57 4.57 0 0 1-3.306-1.141 4.47 4.47 0 0 1-1.167-3.337V9.797h-1.688a.65.65 0 0 1-.652-.651M65.681 20.565h-3.514a.65.65 0 0 1-.652-.652V18.61a5.9 5.9 0 0 1-1.878 1.518 5.4 5.4 0 0 1-2.484.561 6.35 6.35 0 0 1-5.868-3.637 8.75 8.75 0 0 1-.868-3.983 8.9 8.9 0 0 1 .868-4.029 6.35 6.35 0 0 1 2.405-2.685 6.57 6.57 0 0 1 3.482-.939 5.3 5.3 0 0 1 2.417.516 5.3 5.3 0 0 1 1.913 1.563V6.302a.648.648 0 0 1 .652-.651h3.547a.65.65 0 0 1 .652.651v13.592a.64.64 0 0 1-.191.48.6.6 0 0 1-.221.145.6.6 0 0 1-.26.046m-4.284-7.418a4.27 4.27 0 0 0-.775-2.66 2.61 2.61 0 0 0-2.165-1.01 2.65 2.65 0 0 0-2.171 1.01 4.77 4.77 0 0 0 0 5.3 2.61 2.61 0 0 0 2.184.997 2.6 2.6 0 0 0 2.165-.997c.543-.77.812-1.699.762-2.64M78.552 9.425a.65.65 0 0 1-.652.652h-1.226q-3.032 0-3.032 3.325v7.17H69.3a.65.65 0 0 1-.652-.652V6.323a.65.65 0 0 1 .652-.652h3.69a.65.65 0 0 1 .652.652v1.538a4.292 4.292 0 0 1 3.821-2.19h.437a.65.65 0 0 1 .652.652zM44.412 31.816v7.347a.65.65 0 0 1-.652.651h-3.69a.65.65 0 0 1-.652-.651v-7.634a3.7 3.7 0 0 0-.496-2.125 1.8 1.8 0 0 0-1.584-.704 2.23 2.23 0 0 0-1.735.737 3.02 3.02 0 0 0-.652 2.092v7.634a.648.648 0 0 1-.652.651h-3.69a.65.65 0 0 1-.652-.651v-7.634a3.8 3.8 0 0 0-.476-2.138 1.81 1.81 0 0 0-1.604-.691 2.21 2.21 0 0 0-1.748.737 3.07 3.07 0 0 0-.652 2.092v7.634a.648.648 0 0 1-.652.651h-3.69a.65.65 0 0 1-.652-.651V25.539a.65.65 0 0 1 .652-.652h3.456a.654.654 0 0 1 .652.652v1.141a5.2 5.2 0 0 1 1.832-1.448 6.4 6.4 0 0 1 2.608-.515c2.06 0 3.508.789 4.329 2.367a5.4 5.4 0 0 1 2.152-1.76 6.9 6.9 0 0 1 2.934-.607 5 5 0 0 1 2.087.384c.66.275 1.254.689 1.74 1.213q1.487 1.604 1.487 5.502M49.503 25.658a8.5 8.5 0 0 1 4.062-.939 9.24 9.24 0 0 1 4.173.893 6.76 6.76 0 0 1 2.817 2.523 7 7 0 0 1 1.011 3.767 8 8 0 0 1-.144 1.617h-10.4v.059q.372 2.77 2.889 2.77c1.252 0 2.067-.424 2.445-1.304a.658.658 0 0 1 .58-.365h3.619a.66.66 0 0 1 .533.247.64.64 0 0 1 .119.575 5.6 5.6 0 0 1-.932 1.818 6.25 6.25 0 0 1-2.452 1.904 8.4 8.4 0 0 1-3.567.71 10.24 10.24 0 0 1-4.564-.925 6.52 6.52 0 0 1-2.901-2.608 7.8 7.8 0 0 1-.998-4.009 8.2 8.2 0 0 1 .965-4.074 6.64 6.64 0 0 1 2.745-2.659m6.181 3.174a2.96 2.96 0 0 0-1.865-.567 2.88 2.88 0 0 0-1.858.567c-.49.411-.805.994-.88 1.63h5.562a2.55 2.55 0 0 0-.959-1.63" style="fill:#fff;fill-rule:nonzero" transform="translate(1140.235 608.919)scale(9.55674)"/><path d="M77.946 39.782h-3.514a.652.652 0 0 1-.652-.652v-1.304a5.219 5.219 0 0 1-4.362 2.112 6.32 6.32 0 0 1-5.869-3.65 9.7 9.7 0 0 1 0-8.012 6.3 6.3 0 0 1 2.406-2.659 6.7 6.7 0 0 1 3.482-.919 5.3 5.3 0 0 1 4.186 1.812v-5.971h4.343a.656.656 0 0 1 .652.652V39.11a.67.67 0 0 1-.191.481.65.65 0 0 1-.481.191m-4.284-7.444a4.23 4.23 0 0 0-.782-2.66 2.6 2.6 0 0 0-.96-.767 2.6 2.6 0 0 0-1.205-.243 2.64 2.64 0 0 0-2.165 1.01 4.78 4.78 0 0 0 0 5.313 2.654 2.654 0 0 0 2.165 1.01 2.61 2.61 0 0 0 2.165-1.01 4.2 4.2 0 0 0 .782-2.653M85.255 24.889h-3.69a.65.65 0 0 0-.652.652v13.591c0 .36.291.651.652.651h3.69c.36 0 .652-.291.652-.651V25.541a.65.65 0 0 0-.652-.652M102.892 39.782h-3.514a.65.65 0 0 1-.652-.652v-1.304a5.8 5.8 0 0 1-1.878 1.519 5.3 5.3 0 0 1-2.484.561 6.35 6.35 0 0 1-5.869-3.638 8.76 8.76 0 0 1-.867-3.983 8.9 8.9 0 0 1 .867-4.028 6.35 6.35 0 0 1 2.413-2.679 6.5 6.5 0 0 1 3.475-.939 5.23 5.23 0 0 1 4.33 2.08v-1.2a.65.65 0 0 1 .652-.652h3.547a.654.654 0 0 1 .652.652V39.11a.66.66 0 0 1-.412.626.7.7 0 0 1-.26.046m-4.284-7.418a4.24 4.24 0 0 0-.776-2.653 2.61 2.61 0 0 0-2.164-1.011 2.61 2.61 0 0 0-2.171 1.011 4.76 4.76 0 0 0 0 5.293 2.61 2.61 0 0 0 2.184.997 2.61 2.61 0 0 0 2.164-.997c.544-.77.813-1.7.763-2.64M21.676 0h-3.717a.65.65 0 0 0-.652.652V3.95c0 .36.292.652.652.652h3.717c.36 0 .652-.292.652-.652V.652A.65.65 0 0 0 21.676 0M85.268 19.217h-3.716a.65.65 0 0 0-.652.652v3.298c0 .36.292.652.652.652h3.716c.36 0 .652-.292.652-.652v-3.298a.65.65 0 0 0-.652-.652" style="fill:#fff;fill-rule:nonzero" transform="translate(1140.235 608.919)scale(9.55674)"/><path d="M38.348 36.938h15.678a1.386 1.386 0 0 0 1.385-1.385V27.5c0-5.57 3.833-9.057 9.063-9.057h5.369a4.04 4.04 0 0 0 4.04-4.041V1.385A1.39 1.39 0 0 0 72.498 0H56.797a1.385 1.385 0 0 0-1.386 1.385v7.672c0 5.588-3.856 9.427-9.103 9.404-5.247-.024-9.357-3.464-9.357-9.56V1.397A1.387 1.387 0 0 0 35.565.012H19.876a1.38 1.38 0 0 0-1.386 1.385v13.034a4.04 4.04 0 0 0 4.041 4.041h5.374c6.125 0 9.057 4.041 9.057 9.057v8.053a1.39 1.39 0 0 0 1.386 1.356M1.408 18.472h13.023a4.04 4.04 0 0 1 4.041 4.041v13.04a1.385 1.385 0 0 1-1.385 1.386H1.408a1.4 1.4 0 0 1-.994-.398A1.4 1.4 0 0 1 0 35.553V19.852a1.39 1.39 0 0 1 1.408-1.38M77.929 18.472h13.046a1.387 1.387 0 0 1 1.385 1.386v15.695a1.386 1.386 0 0 1-1.385 1.385H75.279a1.383 1.383 0 0 1-1.385-1.385v-13.04a4.04 4.04 0 0 1 4.035-4.041" style="fill:#fff;fill-rule:nonzero" transform="translate(270.033 638.067)scale(9.55674)"/></svg>