<?xml version="1.0" encoding="UTF-8" standalone="no"?>
<!-- Created with Inkscape (http://www.inkscape.org/) -->

<svg
   width="2400"
   height="1600"
   viewBox="0 0 634.99999 423.33333"
   version="1.1"
   id="svg650"
   xmlns="http://www.w3.org/2000/svg"
   xmlns:svg="http://www.w3.org/2000/svg">
  <defs
     id="defs647" />
  <g
     id="layer1">
    <rect
       x="-1.1368684e-13"
       y="2.8421709e-14"
       width="635"
       height="423.33331"
       style="clip-rule:evenodd;fill:#00305b;fill-opacity:1;fill-rule:evenodd;stroke-width:0.264583;stroke-linejoin:round;stroke-miterlimit:2"
       id="rect241" />
    <path
       d="m 372.47512,350.71564 c 0.24278,10.21189 -27.73214,14.00234 -56.9309,13.55638 -29.19875,-0.45088 -48.56218,-4.97464 -48.80496,-15.18653 l 0.10403,-0.67878 51.654,-97.50093 53.9927,98.89322 z"
       fill="#27aae1"
       stroke="#414042"
       stroke-width="4.45934"
       stroke-miterlimit="10"
       data-darkreader-inline-stroke=""
       data-darkreader-inline-fill=""
       id="path416"
       style="clip-rule:evenodd;fill-rule:evenodd;stroke-linejoin:round;stroke-miterlimit:2" />
    <path
       d="m 251.88966,309.79873 c -1.62023,3.93909 1.45179,8.08628 6.86244,9.26553 5.41065,1.17924 11.10869,-1.06035 12.72892,-4.99446"
       fill="#27aae1"
       stroke="#414042"
       stroke-width="4.45934"
       stroke-miterlimit="10"
       data-darkreader-inline-stroke=""
       data-darkreader-inline-fill=""
       id="path418"
       style="clip-rule:evenodd;fill-rule:evenodd;stroke-linejoin:round;stroke-miterlimit:2" />
    <path
       fill="#1c75bc"
       stroke="#414042"
       stroke-width="4.45934"
       stroke-miterlimit="10"
       d="m 286.03331,282.7504 -12.32262,31.09148 -24.20924,-5.0787 23.93177,-31.09148 z"
       data-darkreader-inline-stroke=""
       data-darkreader-inline-fill=""
       id="path420"
       style="clip-rule:evenodd;fill-rule:evenodd;stroke-linejoin:round;stroke-miterlimit:2" />
    <path
       d="m 385.58062,308.66409 c 1.62023,3.93907 -1.45177,8.08625 -6.86244,9.26553 -5.41065,1.17922 -11.10869,-1.06037 -12.72892,-4.99446"
       fill="#27aae1"
       stroke="#414042"
       stroke-width="4.45934"
       stroke-miterlimit="10"
       data-darkreader-inline-stroke=""
       data-darkreader-inline-fill=""
       id="path422"
       style="clip-rule:evenodd;fill-rule:evenodd;stroke-linejoin:round;stroke-miterlimit:2" />
    <path
       fill="#1c75bc"
       stroke="#414042"
       stroke-width="4.45934"
       stroke-miterlimit="10"
       d="m 351.43693,281.62071 12.3276,31.08651 24.20925,-5.07868 -26.51819,-31.09148 z"
       data-darkreader-inline-stroke=""
       data-darkreader-inline-fill=""
       id="path424"
       style="clip-rule:evenodd;fill-rule:evenodd;stroke-linejoin:round;stroke-miterlimit:2" />
    <path
       fill="none"
       stroke="#414042"
       stroke-width="4.45934"
       stroke-miterlimit="10"
       d="m 311.37722,284.42016 v 80.12438"
       data-darkreader-inline-stroke=""
       id="path434"
       style="clip-rule:evenodd;fill-rule:evenodd;stroke-linejoin:round;stroke-miterlimit:2" />
    <path
       fill="none"
       stroke="#414042"
       stroke-width="4.45934"
       stroke-miterlimit="10"
       d="m 324.53722,285.73321 v 80.12435"
       data-darkreader-inline-stroke=""
       id="path444"
       style="clip-rule:evenodd;fill-rule:evenodd;stroke-linejoin:round;stroke-miterlimit:2" />
    <path
       d="m 243.79343,278.97977 c 14.20056,-2.92332 30.31366,-0.34186 41.50659,6.65928 4.92509,3.07697 8.87407,6.8971 12.41676,10.85601 5.17282,5.78226 9.57768,11.97083 12.35731,18.56568 3.85982,-13.87846 5.58411,-28.06904 5.12332,-42.21999 -0.0842,-2.59633 -0.28739,-5.30661 -2.06619,-7.55607 -1.44184,-1.81843 -3.78052,-3.16118 -6.14397,-4.36522 -13.32846,-6.79801 -24.58582,-10.58845 -39.34624,-4.58816 -6.16375,2.50713 -11.54967,5.53454 -15.82565,9.66685 -1.46169,1.41211 -7.48681,12.86767 -8.02193,12.98162 z"
       fill="#1c75bc"
       stroke="#414042"
       stroke-width="4.45934"
       stroke-miterlimit="10"
       data-darkreader-inline-stroke=""
       data-darkreader-inline-fill=""
       id="path446"
       style="clip-rule:evenodd;fill-rule:evenodd;stroke-linejoin:round;stroke-miterlimit:2" />
    <path
       d="m 392.25476,278.97977 c -14.20053,-2.92332 -30.3136,-0.34186 -41.50654,6.65928 -4.92508,3.07697 -8.87407,6.8971 -12.41679,10.85601 -5.17281,5.78226 -9.57765,11.97083 -12.35731,18.56568 -3.85982,-13.87846 -5.58408,-28.06904 -5.12328,-42.21999 0.0842,-2.59633 0.28736,-5.30661 2.06616,-7.55607 1.44187,-1.81843 3.78052,-3.16118 6.14399,-4.36522 13.32847,-6.79801 24.5858,-10.58845 39.34621,-4.58816 6.16382,2.50713 11.5497,5.53454 15.82571,9.66685 1.46167,1.41211 7.49168,12.86767 8.02185,12.98162 z"
       fill="#1c75bc"
       stroke="#414042"
       stroke-width="4.45934"
       stroke-miterlimit="10"
       data-darkreader-inline-stroke=""
       data-darkreader-inline-fill=""
       id="path448"
       style="clip-rule:evenodd;fill-rule:evenodd;stroke-linejoin:round;stroke-miterlimit:2" />
    <path
       d="m 270.16302,204.84575 c -3.0472,-10.05333 -5.04893,-20.54269 -5.95071,-31.21042 -7.05073,11.03936 -17.69862,19.43777 -29.41681,23.20839 3.61205,1.83329 7.94754,2.10085 11.90647,0.72836 -9.80562,8.89885 -13.9875,24.45698 -9.92457,36.89853 1.35268,-5.15796 3.73597,-10.05331 6.93676,-14.24013 -2.75981,14.63158 -0.54006,29.99152 6.13908,42.41329 1.88283,-7.61064 6.68406,-14.5028 12.97667,-18.62519"
       fill="#27aae1"
       stroke-width="3.46837"
       stroke="#414042"
       stroke-miterlimit="10"
       data-darkreader-inline-stroke=""
       data-darkreader-inline-fill=""
       id="path450"
       style="clip-rule:evenodd;fill-rule:evenodd;stroke-linejoin:round;stroke-miterlimit:2" />
    <path
       d="m 365.00323,204.00344 c 3.04724,-10.05333 5.04899,-20.54269 5.95075,-31.21041 7.05069,11.03933 17.69864,19.43774 29.4168,23.20836 -3.6121,1.83329 -7.94756,2.10085 -11.90647,0.72836 9.80562,8.89887 13.98749,24.457 9.92452,36.89856 -1.35268,-5.15797 -3.73594,-10.05334 -6.93676,-14.24016 2.75984,14.63158 0.54007,29.99154 -6.13902,42.41327 -1.88283,-7.61059 -6.68407,-14.50276 -12.97668,-18.62518"
       fill="#27aae1"
       stroke-width="3.46837"
       stroke="#414042"
       stroke-miterlimit="10"
       data-darkreader-inline-stroke=""
       data-darkreader-inline-fill=""
       id="path452"
       style="clip-rule:evenodd;fill-rule:evenodd;stroke-linejoin:round;stroke-miterlimit:2" />
    <path
       d="m 307.86922,292.95234 c 2.54677,3.58727 9.09703,4.62285 14.0816,3.15127 4.98453,-1.47159 8.5966,-4.826 11.33168,-8.33398 4.62285,-5.92595 7.39754,-12.68434 8.03672,-19.56162 -0.0397,5.16292 1.34273,10.32584 4.04312,15.06265 10.84114,-7.45207 17.04459,-18.67472 16.47476,-29.7983 1.45671,4.07288 3.39407,8.05159 5.78723,11.86185 0.44595,0.7135 0.97118,1.46664 1.90762,1.80356 2.2049,0.79771 4.31564,-1.22386 5.21247,-2.95802 6.06965,-11.76276 4.7814,-25.60158 -3.40891,-36.59138 2.16029,1.72924 4.88545,3.03731 7.86331,3.77063 -1.43195,-7.21422 -6.18363,-14.01718 -13.22938,-18.94723 4.63772,1.12473 9.27542,2.24454 13.91314,3.36928 -6.37686,-9.22588 -18.83328,-15.84553 -32.37976,-17.20809 h -59.25966 c -13.55145,1.36752 -26.00785,7.98716 -32.37973,17.20809 4.6377,-1.12474 9.27542,-2.24455 13.91311,-3.36928 -7.04574,4.93005 -11.79739,11.73301 -13.22934,18.94723 2.97291,-0.73828 5.70298,-2.04635 7.86331,-3.77063 -8.19034,10.9898 -9.4786,24.82862 -3.40895,36.59138 0.89683,1.73416 3.00263,3.75573 5.21248,2.95802 0.93149,-0.33692 1.46169,-1.09504 1.90759,-1.80356 2.38823,-3.81026 4.32557,-7.78403 5.78723,-11.86185 -0.56981,11.12358 5.63364,22.34623 16.47478,29.7983 2.69545,-4.73184 4.08279,-9.89973 4.04315,-15.06265 0.63916,6.87728 3.41387,13.63567 8.03672,19.56162 2.73505,3.50303 6.34712,6.86239 11.33166,8.33398 4.98456,1.47158 11.53483,0.436 14.08162,-3.15127"
       fill="#ffffff"
       stroke-width="2.47741"
       stroke="#414042"
       stroke-miterlimit="10"
       data-darkreader-inline-stroke=""
       data-darkreader-inline-fill=""
       id="path454"
       style="clip-rule:evenodd;fill-rule:evenodd;stroke-linejoin:round;stroke-miterlimit:2" />
    <path
       d="m 317.32302,221.97953 c 4.50887,1.06529 9.79072,-2.195 8.92857,-5.50482 0.36171,1.97697 3.87961,3.28011 6.37188,2.3585 2.16527,-0.79773 3.0175,-2.77964 2.60131,-4.48412 -0.42117,-1.70446 -1.83825,-3.19089 -3.27017,-4.59311 -1.44188,-1.41709 -2.97292,-2.82921 -5.00439,-3.82016 -2.03147,-0.99098 -4.67735,-2.14048 -7.00611,-1.56573 h -2.95801 c -2.32879,-0.56981 -4.97465,0.57971 -7.00612,1.56573 -2.0315,0.98599 -3.56253,2.40307 -5.00438,3.82016 -1.43195,1.40222 -2.84903,2.88865 -3.2702,4.59311 -0.42113,1.70448 0.43604,3.68639 2.60128,4.48412 2.49227,0.92161 6.01517,-0.38647 6.37191,-2.3585 -0.86215,3.31478 4.4197,6.57011 8.9286,5.50482"
       fill="#1c75bc"
       stroke-width="3.46837"
       stroke="#414042"
       stroke-miterlimit="10"
       data-darkreader-inline-stroke=""
       data-darkreader-inline-fill=""
       id="path456"
       style="clip-rule:evenodd;fill-rule:evenodd;stroke-linejoin:round;stroke-miterlimit:2" />
    <path
       d="m 303.59815,238.10747 c -0.72837,7.27367 2.34858,14.81986 7.94753,19.51209 0.72837,-2.413 1.45177,-4.83096 2.18014,-7.24396 -1.5707,4.88052 -0.0892,10.61323 3.6517,14.12123 a 19.142454,19.142454 0 0 0 1.99678,-10.63798 c -0.43603,3.86476 0.99592,7.89798 3.76566,10.62808 2.1603,-3.47828 2.92335,-7.79887 2.0959,-11.81228 0.13874,2.19498 0.91662,4.34538 2.22472,6.11425 6.42641,-6.02012 8.47272,-16.24686 4.84582,-24.26873"
       fill="#ffffff"
       stroke-width="2.47741"
       stroke="#414042"
       stroke-miterlimit="10"
       data-darkreader-inline-stroke=""
       data-darkreader-inline-fill=""
       id="path458"
       style="clip-rule:evenodd;fill-rule:evenodd;stroke-linejoin:round;stroke-miterlimit:2" />
    <path
       d="m 297.18661,249.11709 a 16.874632,16.874632 0 0 1 0.76306,-8.72545 c -0.75314,2.33372 -1.51617,4.73681 -1.34276,7.17954 0.17341,2.44272 1.50627,4.97464 3.80529,5.82191 -0.13872,-3.35442 -0.0148,-6.71873 0.36666,-10.04838 -0.35179,2.08599 -0.70358,4.22151 -0.35179,6.3075 0.35179,2.08598 1.54096,4.15709 3.48819,4.9895 -0.28737,-4.14224 -0.35674,-8.88896 2.67559,-11.73303 5.3661,-5.03409 13.42758,-5.59894 11.2871,-15.53831 -1.11979,-5.21744 -5.86155,-8.34391 -11.09384,-8.12591 -6.37686,0.26262 -10.91547,5.6584 -13.40279,11.08888 -1.52609,3.32468 -2.36344,6.98136 -1.62023,10.62315 0.64413,3.17108 5.05391,6.07462 5.42552,8.1606 z"
       fill="#ffffff"
       stroke-width="2.47741"
       stroke="#414042"
       stroke-miterlimit="10"
       data-darkreader-inline-stroke=""
       data-darkreader-inline-fill=""
       id="path460"
       style="clip-rule:evenodd;fill-rule:evenodd;stroke-linejoin:round;stroke-miterlimit:2" />
    <path
       d="m 339.52558,249.83057 c 0.52025,-2.90847 0.25268,-5.95074 -0.76306,-8.72543 0.75314,2.3337 1.5162,4.73681 1.34276,7.17954 -0.17343,2.44271 -1.50627,4.97465 -3.80529,5.82191 0.13872,-3.35442 0.0148,-6.71873 -0.36669,-10.04837 0.35179,2.08596 0.70361,4.2215 0.35179,6.30749 -0.35179,2.08596 -1.54096,4.15709 -3.48818,4.9895 0.28739,-4.14224 0.35676,-8.88896 -2.6756,-11.73302 -5.36607,-5.0341 -13.42755,-5.59895 -11.28707,-15.53834 1.11977,-5.21742 5.86152,-8.34391 11.09384,-8.12589 6.37683,0.26259 10.91544,5.6584 13.40279,11.08888 1.52606,3.32468 2.36344,6.98134 1.62023,10.62313 -0.64413,3.16614 -5.05391,6.07464 -5.42552,8.1606 z"
       fill="#ffffff"
       stroke-width="2.47741"
       stroke="#414042"
       stroke-miterlimit="10"
       data-darkreader-inline-stroke=""
       data-darkreader-inline-fill=""
       id="path462"
       style="clip-rule:evenodd;fill-rule:evenodd;stroke-linejoin:round;stroke-miterlimit:2" />
    <path
       d="m 429.55961,184.81838 c -19.01661,12.23344 -48.64148,22.43047 -110.0664,22.43047 -61.4249,0 -99.11624,-13.98251 -112.37038,-22.43047 -13.7298,-8.75023 49.79103,-17.03962 111.21592,-17.03962 61.4249,0 124.83671,8.27949 111.22086,17.03962 z"
       stroke="#262262"
       fill="#1c75bc"
       stroke-width="3.46837"
       stroke-miterlimit="10"
       data-darkreader-inline-stroke=""
       data-darkreader-inline-fill=""
       id="path464"
       style="clip-rule:evenodd;fill-rule:evenodd;stroke-linejoin:round;stroke-miterlimit:2" />
    <path
       d="m 367.02978,166.47561 c -0.15361,11.97086 -22.0886,21.95482 -49.00318,22.29671 -26.91461,0.34187 -48.60185,-9.08219 -48.4532,-21.05304 l 0.11893,-0.79772 46.89242,-115.79415 50.48962,114.26806 z"
       stroke="#262262"
       fill="#1c75bc"
       stroke-width="3.46837"
       stroke-miterlimit="10"
       data-darkreader-inline-stroke=""
       data-darkreader-inline-fill=""
       id="path466"
       style="clip-rule:evenodd;fill-rule:evenodd;stroke-linejoin:round;stroke-miterlimit:2" />
  </g>
</svg>
