<svg xmlns="http://www.w3.org/2000/svg" xml:space="preserve" style="fill-rule:evenodd;clip-rule:evenodd;stroke-linecap:round;stroke-linejoin:round;stroke-miterlimit:1.5" viewBox="0 0 2400 1800"><defs><linearGradient id="a" x1="19.346" x2="14.23" y1="9.019" y2="14.45" gradientUnits="userSpaceOnUse"><stop offset=".176" stop-color="#0052CC"/><stop offset="1" stop-color="#2684FF"/></linearGradient><linearGradient id="b" x1="13.56" x2="7.636" y1="15.053" y2="20.987" gradientUnits="userSpaceOnUse"><stop offset=".176" stop-color="#0052CC"/><stop offset="1" stop-color="#2684FF"/></linearGradient></defs><path d="M0 0h2400v1800H0z" style="fill:#95c3ff;fill-opacity:1"/><path fill="#253858" d="M1222.633 658.665h72.971v360.658c0 95.1-43.414 161.49-144.097 161.49-37.871 0-67.43-6.28-87.752-13.459v-69.08c22.169 8.972 48.956 13.458 75.743 13.458 61.888 0 83.135-35.887 83.135-87.923zm206.913-27.812c28.634 0 48.956 17.046 48.956 47.55 0 29.606-20.322 47.549-48.956 47.549-28.637 0-48.956-17.046-48.956-47.55 0-29.606 20.319-47.55 48.956-47.55m-36.024 151.62h70.2v394.753h-70.2zm243.851 394.754h-68.356V782.473h68.356v69.082c24.015-46.653 64.659-79.848 144.097-75.362v66.39c-89.598-8.972-144.097 17.045-144.097 101.378zm472.011-70.876c-25.861 52.035-74.818 78.948-137.631 78.948-108.073 0-162.571-88.817-162.571-205.449 0-111.25 57.268-205.449 170.886-205.449 59.116 0 105.302 26.016 129.316 77.155v-69.082h70.204v394.753h-70.204zm-119.157 16.147c62.814 0 118.235-38.577 118.235-126.5v-31.4c0-87.922-50.804-126.5-110.845-126.5-78.516 0-119.157 50.242-119.157 141.752.922 95.099 39.719 142.648 111.767 142.648"/><path fill="#2684ff" d="M855.917 577.92h-319.6c0 77.156 64.659 139.958 144.097 139.958h59.116v54.726c0 77.155 64.66 139.958 144.099 139.958V604.835c0-15.252-12.007-26.915-27.712-26.915"/><path fill="url(#a)" d="M18.534 8.989H6.13c0 2.994 2.51 5.432 5.593 5.432h2.294v2.158c0 2.995 2.51 5.432 5.592 5.432V10.033c0-.557-.466-1.044-1.075-1.044" style="fill:url(#a)" transform="translate(220.412 500.62)scale(25.76649)"/><path fill="url(#b)" d="M12.404 15.013H0c0 2.994 2.51 5.431 5.592 5.431h2.295v2.124c0 2.995 2.51 5.432 5.592 5.432V16.057c0-.592-.502-1.044-1.075-1.044" style="fill:url(#b)" transform="translate(220.412 500.62)scale(25.76649)"/></svg>