<svg xmlns="http://www.w3.org/2000/svg" xml:space="preserve" style="fill-rule:evenodd;clip-rule:evenodd;stroke-linejoin:round;stroke-miterlimit:2" viewBox="0 0 2400 1600"><path d="M0 0h2400v1600H0z" style="fill:#ccc"/><path d="M93.14 80.94h-13V21.13l13-3.58z" style="fill:#1a1a1a;fill-rule:nonzero" transform="translate(544.342 377.544)scale(8.56288)"/><path d="M22.17 36.33c-4.882 0-8.9-4.018-8.9-8.9s4.018-8.9 8.9-8.9 8.9 4.018 8.9 8.9c-.005 4.88-4.02 8.895-8.9 8.9" style="fill:#4d64ae;fill-rule:nonzero" transform="translate(544.342 377.544)scale(8.56288)"/><path d="M29.14 80.83A26.5 26.5 0 0 1 27.83 90a12.1 12.1 0 0 1-3.62 5.4 12.3 12.3 0 0 1-5.64 2.6 36.6 36.6 0 0 1-7.32.67 22.5 22.5 0 0 1-4.81-.47 13 13 0 0 1-3.54-1.27 6 6 0 0 1-2.14-1.86A3.62 3.62 0 0 1 0 92.88a4.26 4.26 0 0 1 1.59-3.38 6.48 6.48 0 0 1 4.33-1.35 5 5 0 0 1 1.87.32c.51.197.992.463 1.43.79q.615.497 1.16 1.07c.31.4.59.77.83 1.12A7.6 7.6 0 0 0 12.72 93c.34.234.738.372 1.15.4.353.004.7-.093 1-.28.335-.251.584-.601.71-1a7.2 7.2 0 0 0 .4-1.91c.121-1.015.174-2.038.16-3.06V40.48l13-3.58zm19-42.89V68c-.005.82.155 1.633.47 2.39A6.5 6.5 0 0 0 50 72.24a7 7 0 0 0 2 1.27c.759.32 1.576.483 2.4.48a4.2 4.2 0 0 0 1.61-.4 8.4 8.4 0 0 0 1.8-1.12 13.3 13.3 0 0 0 1.81-1.66 13 13 0 0 0 1.61-2.11V37.94h13v43h-13v-4a22.5 22.5 0 0 1-5.43 3.53 13.6 13.6 0 0 1-5.59 1.28 16.5 16.5 0 0 1-5.9-1 15.6 15.6 0 0 1-4.76-2.89 13.6 13.6 0 0 1-3.17-4.28 12.4 12.4 0 0 1-1.15-5.29V37.94z" style="fill:#1a1a1a;fill-rule:nonzero" transform="translate(544.342 377.544)scale(8.56288)"/><path d="M105.79 36.33c-4.879-.005-8.89-4.021-8.89-8.9 0-4.882 4.018-8.9 8.9-8.9s8.9 4.018 8.9 8.9c-.005 4.884-4.026 8.9-8.91 8.9" style="fill:#ca3c32;fill-rule:nonzero" transform="translate(544.342 377.544)scale(8.56288)"/><path d="M127.18 36.33c-4.879-.005-8.89-4.021-8.89-8.9 0-4.882 4.018-8.9 8.9-8.9s8.9 4.018 8.9 8.9c-.005 4.884-4.026 8.9-8.91 8.9" style="fill:#9259a3;fill-rule:nonzero" transform="translate(544.342 377.544)scale(8.56288)"/><path d="M116.49 17.8c-4.882 0-8.9-4.018-8.9-8.9s4.018-8.9 8.9-8.9 8.9 4.018 8.9 8.9v.01c0 4.877-4.013 8.89-8.89 8.89z" style="fill:#399746;fill-rule:nonzero" transform="translate(544.342 377.544)scale(8.56288)"/><path d="m100.14 40.6 13-3.58v43.92h-13zm40 18.17a38 38 0 0 0-3.77 1.87 22 22 0 0 0-3.46 2.3 12.8 12.8 0 0 0-2.55 2.67 5.1 5.1 0 0 0-1 2.94 8.5 8.5 0 0 0 .32 2.34c.192.677.486 1.321.87 1.91.334.491.75.921 1.23 1.27.443.309.97.476 1.51.48a6.3 6.3 0 0 0 3.18-1 41 41 0 0 0 3.62-2.47zm13 22.17h-13v-3.42c-.71.61-1.42 1.17-2.11 1.67-.723.521-1.493.973-2.3 1.35-.905.395-1.851.69-2.82.88a20 20 0 0 1-3.78.31 16 16 0 0 1-5.33-.83 12.2 12.2 0 0 1-4-2.31 10.2 10.2 0 0 1-2.51-3.53 11 11 0 0 1-.87-4.37 10.3 10.3 0 0 1 .91-4.42 13.1 13.1 0 0 1 2.55-3.57 19.4 19.4 0 0 1 3.77-2.86 40 40 0 0 1 4.65-2.31c1.67-.69 3.4-1.32 5.17-1.91l5.25-1.71 1.43-.31v-4.26a11.9 11.9 0 0 0-.44-3.45 5.8 5.8 0 0 0-1.15-2.31 4 4 0 0 0-1.79-1.31 6.6 6.6 0 0 0-2.34-.4 7.4 7.4 0 0 0-2.59.4 4.4 4.4 0 0 0-1.67 1.11 3.94 3.94 0 0 0-.91 1.59 6.5 6.5 0 0 0-.28 2 9.5 9.5 0 0 1-.28 2.35 4.85 4.85 0 0 1-.91 2A4.5 4.5 0 0 1 126 52.6a6.8 6.8 0 0 1-2.9.52 7.5 7.5 0 0 1-2.51-.4 6.2 6.2 0 0 1-1.91-1.15 6 6 0 0 1-1.27-1.75 5.6 5.6 0 0 1-.44-2.18 6.42 6.42 0 0 1 1.51-4.1 13.15 13.15 0 0 1 4.06-3.3 23.5 23.5 0 0 1 5.92-2.14 31 31 0 0 1 7.12-.8 32.2 32.2 0 0 1 7.87.84 16.4 16.4 0 0 1 5.49 2.34 9.55 9.55 0 0 1 3.18 3.66 10.9 10.9 0 0 1 1 4.81z" style="fill:#1a1a1a;fill-rule:nonzero" transform="translate(544.342 377.544)scale(8.56288)"/></svg>