<svg xmlns="http://www.w3.org/2000/svg" xml:space="preserve" style="fill-rule:evenodd;clip-rule:evenodd;stroke-linejoin:round;stroke-miterlimit:2" viewBox="0 0 2400 1600"><path d="M0 0h2400v1600H0z" style="fill:#5586a4;fill-opacity:1"/><path d="M557.937 735.58c6.57-20.216 16.432-38.034 29.52-53.625 13.14-15.54 29.521-27.926 49.145-37.178s42.32-13.894 68.257-13.894 48.803 4.643 68.256 13.894c19.624 9.252 36.006 21.588 49.145 37.178 13.14 15.591 23.037 33.41 29.521 53.626 6.57 20.217 9.863 41.118 9.863 62.877s-3.293 42.832-9.863 63.049-16.433 38.034-29.52 53.625c-13.14 15.54-29.522 27.926-49.146 37.007-19.623 9.097-42.319 13.672-68.256 13.672-25.938 0-48.804-4.558-68.257-13.672-19.624-9.115-36.005-21.416-49.144-37.007-13.14-15.54-23.037-33.409-29.521-53.625-6.57-20.217-9.864-41.119-9.864-63.049s3.294-42.832 9.864-62.877m39.93 110.849c4.283 15.693 11.023 29.81 20.135 42.318 9.18 12.558 20.99 22.615 35.323 30.325 14.385 7.624 31.569 11.427 51.363 11.427 19.965 0 37.03-3.803 51.363-11.427 14.385-7.624 26.108-17.647 35.323-30.325 9.18-12.559 15.904-26.727 20.136-42.318 4.283-15.711 6.433-31.696 6.433-47.8 0-16.105-2.15-32.039-6.433-47.801s-11.024-29.811-20.136-42.318c-9.18-12.558-20.989-22.615-35.323-30.325-14.385-7.624-31.568-11.445-51.363-11.445-19.965 0-37.029 3.821-51.363 11.445-14.385 7.624-26.108 17.647-35.323 30.325-9.18 12.576-15.92 26.727-20.135 42.318a181 181 0 0 0-6.416 47.8c0 16.105 2.133 32.039 6.416 47.8m328.655-92.002v27.584h.69c5.63-11.325 14.47-19.532 26.449-24.672 12.064-5.14 25.255-7.71 39.76-7.71 16.074 0 30.032 2.896 41.977 8.687 11.928 5.79 21.842 13.603 29.692 23.472 7.9 9.868 13.856 21.244 17.917 34.094 4.027 12.884 6.04 26.556 6.04 40.947 0 14.46-1.945 28.098-5.835 41.119-3.89 12.884-9.778 24.157-17.747 33.751-7.9 9.595-17.747 17.133-29.691 22.616-11.945 5.516-25.767 8.292-41.637 8.292-5.102 0-10.785-.526-17.064-1.575a98.972 99.37 0 0 1-18.77-5.14c-6.16-2.364-11.997-5.602-17.577-9.68-5.494-4.077-10.119-9.148-13.856-15.213h-.69v105.366h-34.469v-282.69Zm122.35 72.471c-2.543-9.063-6.416-17.132-11.62-24.328-5.222-7.093-11.912-12.747-20.136-16.962-8.157-4.214-17.747-6.304-28.668-6.304-11.501 0-21.33 2.244-29.35 6.716s-14.573 10.314-19.624 17.475c-5.085 7.23-8.754 15.454-11.024 24.671a116.2 116.2 0 0 0-3.413 27.927c0 10.005 1.195 19.702 3.618 28.954 2.406 9.337 6.211 17.475 11.433 24.671 5.205 7.093 11.962 12.815 20.306 17.133 8.294 4.334 18.259 6.51 30.033 6.51 11.757 0 21.501-2.227 29.521-6.699s14.249-10.382 19.112-17.818c4.812-7.35 8.276-15.762 10.426-25.185a131.394 131.922 0 0 0 3.208-29.125 101.361 101.769 0 0 0-3.822-27.756zm215.52 119.416c-15.58 11.564-35.152 17.304-58.871 17.304-16.655 0-31.057-2.622-43.343-7.881-12.218-5.26-22.525-12.627-30.886-22.102-8.328-9.474-14.573-20.73-18.77-33.922-4.165-13.158-6.502-27.413-7.048-43.004 0-15.522 2.406-29.64 7.252-42.66 4.83-12.884 11.62-23.986 20.306-33.58 8.737-9.475 19.112-16.825 31.057-22.102 11.962-5.26 25.084-7.898 39.248-7.898 18.6 0 33.957 3.77 46.243 11.274 12.235 7.504 22.013 17.064 29.521 28.611 7.39 11.6 12.508 24.329 15.324 37.864q4.223 20.559 3.43 39.062h-155.796c-.27 8.926.797 17.476 3.208 25.357 2.411 7.88 6.297 15.094 11.655 21.244 5.358 6.168 12.201 11.085 20.477 14.769 8.31 3.683 18.088 5.517 29.35 5.517 14.47 0 26.28-3.29 35.494-9.869 9.249-6.579 15.34-16.584 18.258-29.982h33.787c-4.573 22.786-14.64 40.09-30.203 51.57zm-8.344-130.895c-3.072-7.075-7.218-13.192-12.44-18.332-5.222-5.105-11.382-9.183-18.43-12.198-7.098-3.015-14.93-4.54-23.548-4.54-8.84 0-16.808 1.51-23.89 4.54-7.098 3.015-13.19 7.161-18.258 12.404-5.085 5.243-9.096 11.359-12.048 18.332-2.952 6.956-4.692 14.374-5.221 22.273h119.278c-.54-7.881-2.355-15.351-5.426-22.444zm97.078-60.992v32.38h.646c14.283-24.67 36.859-37.177 67.916-37.177 13.753 0 25.255 1.85 34.299 5.534 9.163 3.683 16.586 8.823 22.183 15.402 5.665 6.579 9.641 14.409 11.928 23.472 2.286 9.08 3.43 19.188 3.43 30.153v134.321h-34.47v-138.09c0-12.627-3.771-22.615-11.296-29.982-7.543-7.367-17.918-11.05-31.057-11.05-10.495 0-19.624 1.586-27.303 4.745-7.662 3.153-14.06 7.624-19.112 13.415-5.102 5.79-8.941 12.558-11.484 20.388-2.56 7.761-3.84 16.259-3.84 25.528v115.303h-34.469V754.89Zm378.824 202.166c-15.563 6.442-31.228 9.663-47.098 9.663-25.084 0-47.608-4.283-67.574-12.815-19.965-8.55-36.858-20.388-50.51-35.294-13.736-14.99-24.23-32.552-31.568-52.94-7.32-20.216-10.99-42.146-10.99-65.447q0-35.979 10.956-66.818c7.303-20.559 17.747-38.548 31.569-53.796 13.702-15.3 30.544-27.241 50.51-35.98q29.947-13.054 67.573-13.054c16.775 0 33.105 2.484 48.804 7.435 15.716 4.969 29.862 12.25 42.49 21.93 12.661 9.612 23.036 21.416 31.398 35.636 8.242 14.1 13.276 30.325 15.118 48.486h-68.597c-4.283-17.99-12.525-31.353-24.743-40.433-12.218-8.978-26.962-13.467-44.367-13.467-16.177 0-29.862 3.067-41.125 9.218-11.262 6.15-20.477 14.408-27.473 24.67-7.03 10.35-12.133 22.102-15.324 35.294-3.208 13.193-4.812 26.899-4.812 40.948 0 13.5 1.603 26.555 4.812 39.405 3.208 12.747 8.328 24.157 15.358 34.437 7.03 10.194 16.194 18.332 27.473 24.5 11.297 6.15 25.085 9.217 41.296 9.217 23.89 0 42.148-5.894 55.287-17.647 12.986-11.787 20.477-28.954 22.696-51.227h-72.352v-52.768h137.195v173.04h-45.56l-7.304-36.321c-12.815 16.173-26.962 27.412-42.66 33.923zm213.301-316.956v260.418h159.38v59.45h-230.366V639.124Z" style="fill:#fff;fill-rule:nonzero;stroke-width:1.70984" transform="translate(-71.366)"/><path d="M1605.675 999.425c-109.722 65.447-274.733 102.797-457.32 102.797-331.043 0-597.244-135.006-597.244-301.537S819.018 499.15 1148.356 499.15c184.293 0 348.108 37.863 459.025 103.824-119.79-110.335-334.457-188.46-580.18-188.46-375.412-.06-680.86 173.04-680.86 385.487-.032 212.446 305.448 385.487 680.86 385.487 244.017.04 459.025-77.269 578.474-186.747z" style="fill:#fff;fill-rule:nonzero;stroke-width:1.70984" transform="translate(-71.366)"/><path d="M2196.39 929.181c0 5.38-1.353 10.4-4.043 15.043s-6.356 8.309-10.999 10.982-9.663 4.009-15.042 4.009c-5.363 0-10.349-1.338-15.009-4.01-4.643-2.672-8.31-6.339-10.999-10.982a29.5 29.5 0 0 1-4.043-15.042c0-5.363 1.336-10.365 4.043-15.025q4.035-6.99 11-11t15.008-4.009c5.38 0 10.4 1.338 15.042 4.01q6.965 4.008 11 10.999c2.69 4.66 4.043 9.662 4.043 15.025m-5.825 0c0-6.699-2.365-12.404-7.11-17.133-4.746-4.746-10.452-7.11-17.133-7.11-6.7 0-12.404 2.364-17.133 7.11-4.746 4.746-7.11 10.451-7.11 17.133s2.364 12.404 7.11 17.133c4.746 4.745 10.45 7.11 17.133 7.11 6.699 0 12.404-2.365 17.132-7.11 4.729-4.746 7.11-10.451 7.11-17.133m-37.863-16.07h14.374c4.061 0 7.025.818 8.841 2.467 1.816 1.64 2.741 3.837 2.741 6.596 0 2.158-.702 4.009-2.09 5.585s-3.58 2.724-6.579 3.426q1.85.71 2.724 1.496c.805.737 1.662 1.816 2.553 3.273q.077.159 5.191 9.285H2171c-3.067-6.116-5.14-9.765-6.185-10.964-1.045-1.193-2.107-1.8-3.153-1.8q-.36 0-.976.119v12.644h-8.001zm8.001 13.62h3.46q3.47 0 4.884-1.12c.942-.75 1.422-1.714 1.422-2.896 0-1.18-.463-2.142-1.37-2.895-.892-.75-2.45-1.12-4.627-1.12h-3.786z" style="fill:#fff;fill-rule:nonzero;stroke-width:1.71328" transform="translate(-71.366)"/></svg>