<svg xmlns="http://www.w3.org/2000/svg" id="Layer_1" data-name="Layer 1" viewBox="0 0 2400 1600"><defs><clipPath id="clip-path"><path d="M488.22 800c0 206.79 318.68 374.42 711.78 374.42s711.78-167.63 711.78-374.42c0-206.78-318.68-374.42-711.78-374.42S488.22 593.22 488.22 800" class="cls-1"/></clipPath><clipPath id="clip-path-2"><path d="M458.56 382.94h1482.88v834.12H458.56z" class="cls-1"/></clipPath><radialGradient id="radial-gradient" cx="944.46" cy="1057.14" r="2.06" gradientTransform="matrix(453.82 0 0 -453.82 -427699.63 480309.15)" gradientUnits="userSpaceOnUse"><stop offset="0" stop-color="#aeb2d5"/><stop offset=".3" stop-color="#aeb2d5"/><stop offset=".75" stop-color="#484c89"/><stop offset="1" stop-color="#484c89"/></radialGradient><style>.cls-1{fill:none}.cls-5{clip-path:url(#clip-path-2)}.cls-7{fill:#fff}</style></defs><path d="M0 0h2400v1600H0z" style="fill:#9195b7"/><g id="g3438"><g id="g3440" style="clip-path:url(#clip-path)"><g id="g3442"><g id="g3448"><g id="g3450"><path id="path3462" d="M488.22 800c0 206.79 318.68 374.42 711.78 374.42s711.78-167.63 711.78-374.42c0-206.78-318.68-374.42-711.78-374.42S488.22 593.22 488.22 800" style="fill:url(#radial-gradient)"/></g></g></g></g><g id="g3464" class="cls-5"><g id="g3466"><g id="g3472"><path id="path3474" d="M1200 1146.62c377.75 0 684-155.19 684-346.62s-306.23-346.63-684-346.63S516 608.57 516 800s306.23 346.62 684 346.62" style="fill:#777bb3"/></g></g></g><g id="g3476" class="cls-5"><g id="g3478"><g id="g3484"><path id="path3486" d="M874.94 843c31.06 0 54.25-5.73 68.92-17 14.51-11.18 24.54-30.54 29.79-57.55 4.9-25.24 3-42.87-5.54-52.38-8.78-9.72-27.74-14.65-56.37-14.65h-49.63L834.59 843Zm-162.36 174.39a7.72 7.72 0 0 1-7.57-9.19L777.93 633a7.73 7.73 0 0 1 7.59-6.25H942.7c49.39 0 86.16 13.42 109.27 39.87s30.41 63.78 21.33 110.5a170.75 170.75 0 0 1-53.69 96.13c-17 15.94-36.3 27.5-57.24 34.3-20.6 6.71-47.06 10.12-78.64 10.12h-63.65l-18.18 93.5a7.71 7.71 0 0 1-7.57 6.25Z"/></g><g id="g3488"><path id="path3490" d="M868.47 709.1h43.27c34.56 0 46.56 7.59 50.64 12.1 6.76 7.51 8 23.32 3.69 45.74-4.89 25.1-13.94 42.9-26.92 52.9-13.29 10.23-34.9 15.41-64.21 15.41H844ZM942.7 619H785.51a15.45 15.45 0 0 0-15.16 12.5l-72.93 375.22a15.46 15.46 0 0 0 15.16 18.4h81.74a15.45 15.45 0 0 0 15.17-12.5l17-87.26h57.28c32.39 0 59.66-3.54 81-10.5 22-7.14 42.22-19.26 60.12-36a178.47 178.47 0 0 0 56-100.3c9.56-49.18 1.79-88.56-23.09-117C1033.15 633.3 994.42 619 942.7 619M825.22 850.7h49.72q49.42 0 73.63-18.63t32.66-62.19q8.12-41.82-7.39-59t-62.1-17.19h-56l-30.52 157M942.7 634.45q70.92 0 103.46 37.22t19.56 104a163 163 0 0 1-51.33 91.91q-24.48 22.87-54.39 32.59t-76.25 9.74h-70l-19.39 99.76h-81.78l72.93-375.22z" class="cls-7"/></g><g id="g3492"><path id="path3494" d="M1260.71 917.64a7.75 7.75 0 0 1-7.58-9.2l32.26-166c3.07-15.79 2.31-27.13-2.13-31.91-2.72-2.93-10.88-7.84-35-7.84h-58.44l-40.56 208.71a7.74 7.74 0 0 1-7.58 6.26h-81.1a7.73 7.73 0 0 1-7.58-9.2l72.93-375.23a7.71 7.71 0 0 1 7.58-6.25h81.09a7.73 7.73 0 0 1 7.59 9.2l-17.6 90.56h62.87c47.9 0 80.38 8.45 99.29 25.82 19.29 17.72 25.3 46.06 17.89 84.23l-33.93 174.61a7.74 7.74 0 0 1-7.58 6.26Z"/></g><g id="g3496"><path id="path3498" d="M1214.57 519.24h-81.09a15.44 15.44 0 0 0-15.16 12.5L1045.39 907a15.44 15.44 0 0 0 15.16 18.39h81.1a15.45 15.45 0 0 0 15.16-12.5l39.34-202.47h52.08c24.11 0 29.17 5.15 29.37 5.37 1.46 1.57 3.38 8.86.21 25.18l-32.26 166a15.44 15.44 0 0 0 15.16 18.39h82.39a15.45 15.45 0 0 0 15.16-12.5l33.93-174.61c8-41 1.15-71.74-20.24-91.4-20.41-18.74-54.6-27.85-104.52-27.85h-53.51l15.82-81.37a15.45 15.45 0 0 0-15.17-18.39m0 15.45-19.38 99.76h72.24q68.19 0 94.07 23.78t15.5 77.07l-33.9 174.61h-82.39l32.26-166q5.51-28.33-4-38.64t-40.69-10.31h-64.81l-41.77 215h-81.1l72.93-375.22h81.09" class="cls-7"/></g><g id="g3500"><path id="path3502" d="M1512.92 843c31.06 0 54.25-5.73 68.92-17s24.54-30.54 29.8-57.55c4.9-25.24 3-42.87-5.55-52.38-8.77-9.72-27.73-14.65-56.36-14.65h-49.64L1472.57 843Zm-162.35 174.41a7.73 7.73 0 0 1-7.58-9.19L1415.92 633a7.73 7.73 0 0 1 7.58-6.25h157.18c49.4 0 86.17 13.42 109.28 39.87s30.41 63.77 21.33 110.5a170.9 170.9 0 0 1-53.69 96.13 152.6 152.6 0 0 1-57.24 34.3c-20.61 6.71-47.07 10.12-78.65 10.12h-63.65l-18.16 93.5a7.73 7.73 0 0 1-7.59 6.25Z"/></g><g id="g3504"><path id="path3506" d="M1506.46 709.1h43.27c34.55 0 46.55 7.59 50.63 12.1 6.77 7.51 8.05 23.32 3.7 45.74-4.89 25.1-14 42.9-26.93 52.9-13.29 10.23-34.89 15.41-64.21 15.41h-31Zm74.22-90.1H1423.5a15.45 15.45 0 0 0-15.16 12.5l-72.93 375.22a15.44 15.44 0 0 0 15.16 18.4h81.74a15.45 15.45 0 0 0 15.17-12.5l17-87.26h57.28c32.39 0 59.66-3.54 81-10.5 22-7.14 42.23-19.26 60.13-36a178.4 178.4 0 0 0 56-100.29c9.56-49.18 1.79-88.57-23.09-117-24.65-28.21-63.37-42.51-115.1-42.51M1463.21 850.7h49.71q49.44 0 73.64-18.63t32.66-62.19q8.12-41.82-7.39-59t-62.1-17.19h-56l-30.52 157m117.47-216.25q70.93 0 103.46 37.22t19.56 104a163 163 0 0 1-51.32 91.91q-24.5 22.92-54.41 32.64t-76.26 9.74h-70l-19.39 99.76h-81.74l72.93-375.22h157.18" class="cls-7"/></g></g></g></g></svg>