<svg xmlns="http://www.w3.org/2000/svg" data-name="Layer 1" viewBox="0 0 2400 1600"><path d="M0 0h2400v1600H0z" style="fill:#336791;fill-opacity:1"/><g style="clip-rule:nonzero;fill:none;fill-rule:nonzero;stroke:#fff;stroke-width:12.4651;stroke-linecap:round;stroke-linejoin:round;stroke-miterlimit:4"><path d="M323.205 324.227c2.833-23.601 1.984-27.062 19.563-23.239l4.463.392c13.517.615 31.199-2.174 41.587-7 22.362-10.376 35.622-27.7 13.572-23.148-50.297 10.376-53.755-6.655-53.755-6.655 53.111-78.803 75.313-178.836 56.149-203.322-52.27-66.789-142.748-35.206-144.262-34.386l-.482.089c-9.938-2.062-21.06-3.294-33.554-3.496-22.761-.374-40.032 5.967-53.133 15.904 0 0-161.408-66.498-153.899 83.628 1.597 31.936 45.777 241.655 98.47 178.31 19.259-23.163 37.871-42.748 37.871-42.748 9.242 6.14 20.307 9.272 31.912 8.147l.897-.765c-.281 2.876-.157 5.689.359 9.019-13.572 15.167-9.584 17.83-36.723 23.416-27.457 5.659-11.326 15.734-.797 18.367 12.768 3.193 42.305 7.716 62.268-20.224l-.795 3.188c5.325 4.26 4.965 30.619 5.72 49.452.756 18.834 2.017 36.409 5.856 46.771 3.839 10.36 8.369 37.05 44.036 29.406 29.809-6.388 52.6-15.582 54.677-101.107" style="fill:#000;stroke:#000;stroke-width:37.3953;stroke-linecap:butt;stroke-linejoin:miter" transform="translate(695.366 280.472)scale(2.33435)"/><path stroke="none" d="M402.395 271.23c-50.302 10.376-53.76-6.655-53.76-6.655 53.111-78.808 75.313-178.843 56.153-203.326-52.27-66.785-142.752-35.2-144.262-34.38l-.486.087c-9.938-2.063-21.06-3.292-33.56-3.496-22.761-.373-40.026 5.967-53.127 15.902 0 0-161.411-66.495-153.904 83.63 1.597 31.938 45.776 241.657 98.471 178.312 19.26-23.163 37.869-42.748 37.869-42.748 9.243 6.14 20.308 9.272 31.908 8.147l.901-.765c-.28 2.876-.152 5.689.361 9.019-13.575 15.167-9.586 17.83-36.723 23.416-27.459 5.659-11.328 15.734-.796 18.367 12.768 3.193 42.307 7.716 62.266-20.224l-.796 3.188c5.319 4.26 9.054 27.711 8.428 48.969s-1.044 35.854 3.147 47.254 8.368 37.05 44.042 29.406c29.809-6.388 45.256-22.942 47.405-50.555 1.525-19.631 4.976-16.729 5.194-34.28l2.768-8.309c3.192-26.611.507-35.196 18.872-31.203l4.463.392c13.517.615 31.208-2.174 41.591-7 22.358-10.376 35.618-27.7 13.573-23.148z" style="fill:#336791;stroke:none" transform="translate(695.366 280.472)scale(2.33435)"/><path stroke-width="29.098" d="M1199.273 949.226c-3.233 115.588.813 231.981 12.122 260.269 11.317 28.288 35.536 83.308 118.819 65.467 69.578-14.917 94.894-43.783 105.88-107.5 8.09-46.878 23.688-177.07 25.689-203.744m-362.331-593.943S722.405 215.67 739.933 566.115c3.728 74.554 106.865 564.129 229.871 416.252 44.95-54.078 85.603-96.49 85.603-96.49m247.705-544.229c-13.051 4.092 209.737-81.443 336.35 80.341 44.724 57.155-7.103 290.672-131.08 474.642"/><path d="M348.282 263.953s3.461 17.036 53.764 6.653c22.04-4.552 8.776 12.774-13.577 23.155-18.345 8.514-59.474 10.696-60.146-1.069-1.729-30.355 21.647-21.133 19.96-28.739-1.525-6.85-11.979-13.573-18.894-30.338-6.037-14.633-82.796-126.849 21.287-110.183 3.813-.789-27.146-99.002-124.553-100.599-97.385-1.597-94.19 119.762-94.19 119.762" style="stroke-linejoin:bevel" transform="translate(695.366 280.472)scale(2.33435)"/><path stroke-width="29.098" d="M1135.634 920.864c-31.693 35.403-22.372 41.619-85.724 54.663-64.1 13.213-26.44 36.727-1.86 42.87 29.804 7.459 98.759 18.017 145.35-47.22 14.188-19.864-.084-51.557-19.574-59.637-9.416-3.9-22.008-8.788-38.192 9.324"/><path stroke-width="29.098" d="M1133.559 920.245c-3.194-20.815 6.84-45.585 17.591-74.564 16.159-43.48 53.44-86.966 23.617-224.889-22.23-102.779-171.332-21.39-171.425-7.453-.091 13.931 6.744 70.637-2.491 136.671-12.05 86.168 54.83 159.044 131.842 151.588"/><path d="M172.517 141.7c-.288 2.039 3.733 7.48 8.976 8.207 5.234.73 9.714-3.522 9.998-5.559.284-2.039-3.732-4.285-8.977-5.015-5.237-.731-9.719.333-9.996 2.367z" style="fill:#fff;stroke-width:4.155;stroke-linecap:butt;stroke-linejoin:miter" transform="translate(695.366 280.472)scale(2.33435)"/><path d="M331.941 137.543c.284 2.039-3.732 7.48-8.976 8.207-5.238.73-9.718-3.522-10.005-5.559-.277-2.039 3.74-4.285 8.979-5.015s9.718.333 10.002 2.368z" style="fill:#fff;stroke-width:2.0775;stroke-linecap:butt;stroke-linejoin:miter" transform="translate(695.366 280.472)scale(2.33435)"/><path stroke-width="29.098" d="M1513.967 568.605c2.015 37.336-8.042 62.766-9.31 102.511-1.876 57.77 27.544 123.894-16.786 190.098"/></g></svg>