<svg id="Layer_1" data-name="Layer 1" xmlns="http://www.w3.org/2000/svg" viewBox="0 0 4800 1000"><defs><style>.cls-1{fill:#fff;}</style></defs><title>Artboard 1</title><polygon class="cls-1" points="436.75 720.28 383.8 906.76 776.13 696.84 829.08 510.35 436.75 720.28"/><polygon class="cls-1" points="179.25 549.34 368.11 902.3 421.05 715.82 215.13 330.96 179.25 549.34"/><path class="cls-1" d="M427.88,302.3a40.08,40.08,0,0,0-54.18-16.41L293.21,329,331,399.56l80.49-43.07A40.07,40.07,0,0,0,427.88,302.3Z"/><circle class="cls-1" cx="568.64" cy="256.42" r="65.66" transform="translate(-14.77 477.2) rotate(-45)"/><path class="cls-1" d="M620.68,93.23,217.83,308.79,430.19,705.67,833,490.11ZM526.09,176.9a89.34,89.34,0,0,1,71.27-6l-13.37-25,21.63-11.57,85.1,159L669.09,305l-13.37-25a89.38,89.38,0,0,1-44.52,56,90.2,90.2,0,0,1-85.11-159ZM260,318.91l3.17-1.71,98.95-52.94a64.57,64.57,0,0,1,60.92,113.86l-80.5,43.07,24.19,45.2L345.11,478ZM571,556.73A90.19,90.19,0,0,1,402.31,585.6l-42.55-79.53,21.63-11.57L423.94,574a65.66,65.66,0,0,0,115.79-61.95l-42.55-79.53L518.81,421l42.55,79.52A89.37,89.37,0,0,1,571,556.73Zm60.89,8.12-.09,0-85.06-159,20.18-10.79,74.4,139.05,138.88-74.31L791,480.06,632,565.12Z"/><path class="cls-1" d="M1165.63,342.7a97.51,97.51,0,0,1,51.5,14.25,106.59,106.59,0,0,1,37.5,38.5q14,24.26,14,54.75,0,30-14,54.75a107.49,107.49,0,0,1-37.5,39.25,96.22,96.22,0,0,1-51.5,14.5h-88.5v134h-54v-350Zm-1,164a41.55,41.55,0,0,0,24.5-7.75,57.64,57.64,0,0,0,17.75-20.5,59.44,59.44,0,0,0,6.75-28.25q0-23.51-14.5-39.5t-34.5-16h-87.5v112Z"/><path class="cls-1" d="M1566.62,430.2V692.7h-52V652.2q-12,16.5-35.5,31t-54.5,14.5a109.19,109.19,0,0,1-60.25-17.5q-27.25-17.51-43.25-48.5t-16-71q0-40,16.5-70.75t45.5-48q29-17.25,66-17.25,27.5,0,48.25,12t33.25,28V430.2Zm-130,220q24,0,42-11.75a79.25,79.25,0,0,0,28-32q10-20.25,10-45.75,0-25-10-45a79.66,79.66,0,0,0-28-31.75q-18-11.74-42-11.75-23,0-41,11.5a77.9,77.9,0,0,0-28,31.5q-10,20-10,45.5t10,45.75a79.25,79.25,0,0,0,28,32Q1413.62,650.19,1436.62,650.2Z"/><path class="cls-1" d="M1812.62,588.2v-158h51.5V692.7h-51.5v-42q-11.5,18.49-33.75,32.75t-53.25,14.25q-41,0-66.5-28t-25.5-77.5v-162h51.5v148a106.36,106.36,0,0,0,6.25,37,58.14,58.14,0,0,0,20,27.25q13.76,10.24,35.25,10.25,27,0,46.5-17T1812.62,588.2Z"/><path class="cls-1" d="M1936.12,692.7v-370h51.5v370Z"/><path class="cls-1" d="M2293.12,697.7q-24,0-42-7.5a109.44,109.44,0,0,1-30.5-18.5,135.61,135.61,0,0,1-20-21.25,124,124,0,0,1-10.5-16.25l34-35.5q8.49,11.5,17.5,22.25a74.07,74.07,0,0,0,21.25,17.5q12.24,6.75,30.25,6.75,28,0,44-18.75t16-45.25V392.7h-64v-50h172v50h-54V586.2a115.54,115.54,0,0,1-13.25,54q-13.26,25.5-38.75,41.5T2293.12,697.7Z"/><path class="cls-1" d="M2688.12,587.2q20.49,29.5,42.75,45.75t57.75,16.25a96.42,96.42,0,0,0,32.5-5.5q15.49-5.51,25.5-16a35,35,0,0,0,10-25q0-25-21.25-39t-59.75-21.5q-49-10-78-34.75t-29-71.75q0-30,16.75-52t44.25-34a147.1,147.1,0,0,1,59.5-12q41.49,0,71.5,16a116.55,116.55,0,0,1,47,45.5l-38,37.5a115.36,115.36,0,0,0-34-36.5q-20.51-14-48-14T2741.37,399q-18.75,12.75-18.75,35.25,0,25.5,19.75,37.25t52.25,18.75a245.7,245.7,0,0,1,56,18.5q26.49,12.49,43.25,32.25t16.75,47.75q0,50-34,79.5t-93.5,29.5q-40.5,0-73.75-16t-58.25-52Z"/><path class="cls-1" d="M3007.12,561.2q0,26,11.75,46.25a89,89,0,0,0,31,32,77.77,77.77,0,0,0,41.25,11.75q25,0,43.5-13t30-27l28.5,35q-9.51,13.5-26,25.25a146.78,146.78,0,0,1-37.5,19,134.28,134.28,0,0,1-44,7.25q-36,0-65-18a128.15,128.15,0,0,1-45.75-49q-16.77-31-16.75-69.5,0-39,16.75-69.75a128.66,128.66,0,0,1,45.75-48.75q29-18,65-18,36.48,0,65,14.75t42.5,38.25l-28.5,35q-11.52-17-32.75-29.25t-41.25-12.25a79.15,79.15,0,0,0-42.5,11.75,83.8,83.8,0,0,0-30,32Q3007.11,535.2,3007.12,561.2Z"/><path class="cls-1" d="M3493.11,561.2q0,40-17.75,70.75a129.6,129.6,0,0,1-48,48.25q-30.26,17.5-67.75,17.5t-68-17.5A128.88,128.88,0,0,1,3243.36,632q-17.76-30.75-17.75-70.75t17.75-70.75a128.88,128.88,0,0,1,48.25-48.25q30.49-17.51,68-17.5t67.75,17.5a129.6,129.6,0,0,1,48,48.25Q3493.11,521.2,3493.11,561.2Zm-52.5,0q.49-26.51-10.25-46.75a79.78,79.78,0,0,0-29.25-31.5,78.32,78.32,0,0,0-41.5-11.25,78.85,78.85,0,0,0-71.25,42.75q-10.76,20.25-10.25,46.75-.51,26,10.25,46.25a80.92,80.92,0,0,0,29.5,31.75,78.23,78.23,0,0,0,41.75,11.5,77,77,0,0,0,41.5-11.5,81.64,81.64,0,0,0,29.25-31.75Q3441.1,587.2,3440.61,561.2Z"/><path class="cls-1" d="M3633.1,692.7h-51.5V480.2h-54.5v-50h54.5v-67h51.5v67h61v50h-61Z"/><path class="cls-1" d="M3825.1,692.7h-51.5V480.2h-54.5v-50h54.5v-67h51.5v67h61v50h-61Z"/><path class="cls-1" d="M4240.09,692.7h-167v-50h56.5v-250h-56.5v-50h167v50h-56.5v250h56.5Z"/><path class="cls-1" d="M4621.59,342.7l-141,350h-52.5l-140-350h61.5l83.5,212.5q6.49,17,12.75,33.5t11.75,33.5q5.49-17,11.5-33.75t12-33.25l77.5-212.5Z"/></svg>