<svg id="Layer_1" data-name="Layer 1" xmlns="http://www.w3.org/2000/svg" viewBox="0 0 500 500">
    <defs>
        <style>.cls-1{fill:none;stroke:#EEE;stroke-miterlimit:10;stroke-width:14px;}</style>
    </defs>
    <title>Artboard 1</title>
    <path class="cls-1"
          d="M51.87,455.57c-3-3.24-5.83-6.6-8.63-10-9.81-11.94-19-24.68-23.45-39.67-5.51-18.5-4.6-40.72,10.77-54.06,10.48-9.11,23.61-14.55,36.72-19.14,18.78-6.57,39.85-11.73,53.35-27.5,4.6-5.38,8-11.68,11.2-18,6.37-12.32,12.52-24.79,20.15-36.37a116.81,116.81,0,0,1,15.81-19.32c3.53-3.45,7.47-6.49,11.29-9.62,4.42-3.63,12.63-8.25,17.12-1.94a9,9,0,0,1,1.16,6.89,26.05,26.05,0,0,1-2.63,6.65l-11,21.89c-3.47,6.9-7,13.9-8.63,21.46-2,9.08.18,16.29,3.23,24.7l225.25-219c3-2.92,6.13-6.17,7.93-10a42.66,42.66,0,0,0,1.78-4.64c1.44-4.23,1.36-7.52.89-11.87,2.36-1.83,20.82-13.63,21.66-14.24,4.83-3.5,32.77-29.6,32.77-29.6,2.94,3.54,6.68,6.15,9.32,10,2,2.9,5.75,9.4,4.19,12.81-.93,2-4.17,4.24-5.73,5.83-3.71,3.78-18.54,21.45-19,22-3.46,4.27-15.46,25-15.87,25.8-3.42,0-6.67-.7-10.08.16-9.28,2.34-16.48,12.66-22.75,19.25Q395.48,122,382.24,135.94l-37.43,39.41-42.89,45.16L259,265.66,221.66,305l-26.41,27.81c-3.68,3.87-10,8.67-10.05,14.17a19.32,19.32,0,0,0,.93,7.27,12.58,12.58,0,0,0,6.59,6.35,32.23,32.23,0,0,0,9.06,2.27,68.33,68.33,0,0,0,16,.67c3.25-.33,6.5-1,9.75-.66s6.61,2.06,7.81,5.1a8.27,8.27,0,0,1-.77,7c-4.4,7.74-16.23,11.5-24.13,14.12-8.45,2.8-17.3,5.6-23.7,11.79-24,23.3-10.89,61.33-44.27,81.18C110,501.4,74.28,480.09,51.87,455.57Z"/>
</svg>