<svg id="Layer_1" data-name="Layer 1" xmlns="http://www.w3.org/2000/svg" viewBox="0 0 500 500">
    <defs>
        <style>.cls-1{fill:none;stroke:#EEE;stroke-miterlimit:10;stroke-width:14px;}</style>
    </defs>
    <title>Artboard 1</title>
    <circle class="cls-1" cx="250" cy="250" r="217.73"/>
    <path class="cls-1"
          d="M237.62,385.38V344.25c-26.06-3.26-44.39-12.63-59.05-28.51-13.85-15.48-22.81-39.1-22.81-68.83,0-52.54,32.17-92.46,81.86-100.6V105.58h25.26v39.91c18.32,0,35,5.3,44.39,10.18L299.12,183c-8.14-4.89-22-10.18-42.35-10.18-40.33,0-65.17,32.58-65.17,72.5,0,45.2,27.7,71.68,63.54,71.68,22.4,0,36.65-5.7,46.43-10.18l6.51,25.66c-8.14,4.48-25.25,11-45.2,11.81v41.13Z"/>
</svg>