<svg id="Layer_1" data-name="Layer 1" xmlns="http://www.w3.org/2000/svg" viewBox="0 0 500 500"><defs><style>.cls-1{fill:none;stroke:#000;stroke-miterlimit:10;stroke-width:14px;}</style></defs><title>Artboard 1</title><path class="cls-1" d="M39.88,454.71c-5.13-5.89-9.92-12.09-14.44-18.31A93.48,93.48,0,0,1,10,400.29a78.4,78.4,0,0,1-1.31-10.13,90.39,90.39,0,0,1,53.81-88.79c8.17-3.58,16.77-5.75,25.48-7.58,8.39-1.77,17.77-1,25.61-4.86,5.74-2.85,10-8.13,12.88-13.83s4.71-11.92,6.83-18c2.49-7.13,5.55-14.24,10.59-19.87,7.76-8.66,19.76-13,31.38-12.44s24.64,5.61,32.68,14.07c6.05-6.17,12.47-12.12,18.69-18.15l44.17-42.84,52.41-50.82L366.66,85c5.68-5.51,11.32-11.07,17.12-16.46,2.51-2.34,5.8-4.48,7.64-7.38a13.73,13.73,0,0,0,2-9.43c-.39-2.37-.61-3.68,1.53-5.08,9.54-6.28,19.06-12.55,28.77-18.59,9.55-5.93,19.11-11.87,28.87-17.44,1.57-.89,4.92-3.62,6.86-3.48,3.08.23,23,28.63,23,28.63S431.86,78.92,431.81,79c-.71.86-11.13-.13-12.85.19-9.19,1.75-15.18,7.12-21.44,13.62l-21.85,22.67L316.2,177.19c-18.11,18.8-36.38,37.46-54.4,56.34-8,8.42-15.51,17.9-18.9,29.21-1.24,4.14-2.27,7.52-5.3,10.67s-6,6.09-8.63,9.46c-5.65,7.22-8.87,15.68-5.59,24.7a12.62,12.62,0,0,0,4.82,6.61c3.86,2.39,8.54,1.28,12.8,1.32a20.5,20.5,0,0,1,12.12,4.2,11.69,11.69,0,0,1,4.1,4.81c3.5,8.68-10.77,19.31-16.87,22.92-10.56,6.24-25,7.85-34,16.57-5.39,5.28-6.95,13.27-7.77,20.77-1.35,12.29-1.46,24.75-3.92,36.86-4.55,22.46-17.56,43.27-36.34,56.4s-43.23,18.18-65.46,12.6C71.24,485.19,54.2,471.14,39.88,454.71Z"/></svg>