<svg id="Layer_1" data-name="Layer 1" xmlns="http://www.w3.org/2000/svg" viewBox="0 0 500 500"><defs><style>.cls-1{fill:none;stroke:#000;stroke-miterlimit:10;stroke-width:14px;}</style></defs><title>Artboard 1</title><path class="cls-1" d="M377.46,82.37c-30.2,24.62-55.81,55.59-83,83l-7.82,7.88L255.33,160l16.18-16.31-18.92-18-23.11,23.3-155.2-63L58.87,101.44,197,187.57l38.82,37-37.91,38.23C173,287.87,152,315.88,133.36,346.34l-75.3-28.46L46.89,329.14,112,380.59l7.11,5.52,52.58,66,11.94-12-31.11-74c-.68-1.59,22.64-16,25.2-17.95a290.07,290.07,0,0,0,25.91-21.2c8.87-8.31,17-17.53,25.32-26.34l40.53-42.67,40.48,40.15L397.55,431.2l13.68-13.79-64-150.12,25-25.25L351,222.5l-15.59,17.67-13.78-32.93,89.63-91.35a97.11,97.11,0,0,0,19-27.42c1.18-2.54,12.06-28.94,5.19-31.07-8.38-2.59-18.4.63-25.23,3.35-7.27,2.91-13.62,7.28-19.83,11.73Q383.77,77.22,377.46,82.37Z"/></svg>