<svg id="Layer_1" data-name="Layer 1" xmlns="http://www.w3.org/2000/svg" viewBox="0 0 500 500">
    <defs>
        <style>.cls-1{fill:none;stroke:#EEE;stroke-miterlimit:10;stroke-width:14px;}</style>
    </defs>
    <title>Artboard 1</title>
    <path class="cls-1"
          d="M75.82,427.85C102.48,452.5,139.7,474,173,448.76a76.33,76.33,0,0,0,24.34-31.51c4.26-10.3,6.16-20.41,8.09-31.34,1.72-9.72,4.68-19.86,12.05-26.42,4.57-4.06,10.39-6.35,15.79-9.22,11.8-6.3,22.17-16.15,26.75-28.72,5.79-15.91.34-29.47-11-40.6l76-82.29L349.53,172c7.76-8.42,14.66-18.63,26-22.56l10.56-3.65,54.62-50.09L429.63,81.35C425.92,73.31,424,71,416,66.8c-6-3.12-10.86-8.06-16-12.35l-49.24,56.74c-3.45,4-2.64,10.64-4.91,15.29-2.59,5.3-7.35,10.17-11.3,14.48-9,9.83-19.28,18.34-28.89,27.54l-55.14,52.77c-2,1.91-28.12,29.47-29.8,28.52-14-7.89-24.07-12.13-40.38-7.91-7.66,2-14.54,5.66-19.78,11.68-9.37,10.79-12.72,26.54-24.21,35-8.17,6-18.82,7.15-28.77,9.17-20.25,4.1-34.17,13.2-48.33,27.67-13.73,14-21.39,33.33-16.22,52.91a75.52,75.52,0,0,0,7.62,17.73A130.06,130.06,0,0,0,75.82,427.85Z"/>
</svg>