<?xml version="1.0" encoding="UTF-8" standalone="no"?>
<!DOCTYPE svg PUBLIC "-//W3C//DTD SVG 1.1//EN" "http://www.w3.org/Graphics/SVG/1.1/DTD/svg11.dtd">
<svg width="100%" height="100%" viewBox="0 0 2400 1600" version="1.1" xmlns="http://www.w3.org/2000/svg" xmlns:xlink="http://www.w3.org/1999/xlink" xml:space="preserve" xmlns:serif="http://www.serif.com/" style="fill-rule:evenodd;clip-rule:evenodd;stroke-linejoin:round;stroke-miterlimit:2;">
    <rect x="0" y="0" width="2400" height="1600" style="fill:rgb(107,209,255);"/>
    <g transform="matrix(0.923648,0,0,0.923648,123.784,31.8468)">
        <path d="M1904.79,367.904C1904.79,308.566 1856.62,260.392 1797.28,260.392L533.08,260.392C473.743,260.392 425.568,308.566 425.568,367.904L425.568,1207.97C425.568,1267.31 473.743,1315.48 533.08,1315.48L1797.28,1315.48C1856.62,1315.48 1904.79,1267.31 1904.79,1207.97L1904.79,367.904Z" style="fill:rgb(90,134,255);"/>
    </g>
    <g transform="matrix(0.897508,0,0,0.765645,154.242,220.621)">
        <path d="M1904.79,367.904C1904.79,308.566 1863.69,260.392 1813.08,260.392L517.284,260.392C466.665,260.392 425.568,308.566 425.568,367.904L425.568,1207.97C425.568,1267.31 466.665,1315.48 517.284,1315.48L1813.08,1315.48C1863.69,1315.48 1904.79,1267.31 1904.79,1207.97L1904.79,367.904Z" style="fill:white;"/>
    </g>
    <g transform="matrix(0.637614,0.830535,-0.483264,0.371009,1099.57,-276.917)">
        <path d="M1626.56,823.045C1626.56,796.781 1614.15,775.458 1598.87,775.458L1292.74,775.458C1277.45,775.458 1265.05,796.781 1265.05,823.045L1265.05,918.22C1265.05,944.484 1277.45,965.807 1292.74,965.807L1598.87,965.807C1614.15,965.807 1626.56,944.484 1626.56,918.22L1626.56,823.045Z" style="fill:rgb(90,134,255);"/>
    </g>
    <g transform="matrix(0.607352,0,0,0.607352,1301.75,160.772)">
        <circle cx="782.1" cy="315.085" r="78.684" style="fill:white;"/>
    </g>
    <g transform="matrix(0.412144,0.412144,-0.314552,0.314552,1934.36,8.08408)">
        <path d="M290.571,797.416C290.571,786.39 283.739,777.438 275.324,777.438L177.074,777.438C168.659,777.438 161.827,786.39 161.827,797.416C161.827,808.443 168.659,817.395 177.074,817.395L275.324,817.395C283.739,817.395 290.571,808.443 290.571,797.416Z" style="fill:rgb(90,134,255);"/>
    </g>
    <g transform="matrix(-0.412144,0.412144,-0.314552,-0.314552,2120.82,509.742)">
        <path d="M290.571,797.416C290.571,786.39 283.739,777.438 275.324,777.438L177.074,777.438C168.659,777.438 161.827,786.39 161.827,797.416C161.827,808.443 168.659,817.395 177.074,817.395L275.324,817.395C283.739,817.395 290.571,808.443 290.571,797.416Z" style="fill:rgb(90,134,255);"/>
    </g>
    <g transform="matrix(0.607352,0,0,0.607352,1179.77,160.772)">
        <circle cx="782.1" cy="315.085" r="78.684" style="fill:white;"/>
    </g>
    <g transform="matrix(0.607352,0,0,0.607352,1059.04,160.772)">
        <circle cx="782.1" cy="315.085" r="78.684" style="fill:white;"/>
    </g>
    <g transform="matrix(0.58286,5.12728e-17,0,0.444844,1402.21,-2.58624)">
        <path d="M290.571,797.416C290.571,786.39 283.739,777.438 275.324,777.438L177.074,777.438C168.659,777.438 161.827,786.39 161.827,797.416C161.827,808.443 168.659,817.395 177.074,817.395L275.324,817.395C283.739,817.395 290.571,808.443 290.571,797.416Z" style="fill:rgb(90,134,255);"/>
    </g>
    <g transform="matrix(0.58286,0,2.56364e-17,0.444844,1522.94,-2.58624)">
        <path d="M290.571,797.416C290.571,786.39 283.739,777.438 275.324,777.438L177.074,777.438C168.659,777.438 161.827,786.39 161.827,797.416C161.827,808.443 168.659,817.395 177.074,817.395L275.324,817.395C283.739,817.395 290.571,808.443 290.571,797.416Z" style="fill:rgb(90,134,255);"/>
    </g>
    <g transform="matrix(0,0.58286,-0.444844,0,2009.51,220.298)">
        <path d="M290.571,797.416C290.571,786.39 283.739,777.438 275.324,777.438L177.074,777.438C168.659,777.438 161.827,786.39 161.827,797.416C161.827,808.443 168.659,817.395 177.074,817.395L275.324,817.395C283.739,817.395 290.571,808.443 290.571,797.416Z" style="fill:rgb(90,134,255);"/>
    </g>
    <g transform="matrix(0.923648,0,0,0.923648,-93.3655,30.7379)">
        <text x="739.014px" y="598.759px" style="font-family:'Courier';font-size:96px;fill:rgb(90,134,255);">&lt;!DOCTYPE html&gt;</text>
        <text x="739.014px" y="694.759px" style="font-family:'Courier';font-size:96px;fill:rgb(90,134,255);">&lt;html lang=&quot;en&quot;&gt;</text>
        <text x="854.233px" y="790.759px" style="font-family:'Courier';font-size:96px;fill:rgb(90,134,255);">&lt;head&gt;&lt;/head&gt;</text>
        <text x="854.233px" y="886.759px" style="font-family:'Courier';font-size:96px;fill:rgb(90,134,255);">&lt;body&gt;</text>
        <text x="969.452px" y="982.759px" style="font-family:'Courier';font-size:96px;fill:rgb(90,134,255);">&lt;p&gt;Hello World!&lt;/p&gt;</text>
        <text x="854.233px" y="1078.76px" style="font-family:'Courier';font-size:96px;fill:rgb(90,134,255);">&lt;/body&gt;</text>
        <text x="739.014px" y="1174.76px" style="font-family:'Courier';font-size:96px;fill:rgb(90,134,255);">&lt;/html&gt;</text>
    </g>
    <g transform="matrix(-0.397664,0.305293,-0.486843,-0.634145,2200.25,1256.19)">
        <path d="M1248.87,1003.55L633.096,1003.55L822.558,639.041L1053.18,639.041L1248.87,1003.55Z" style="fill:rgb(107,209,255);"/>
    </g>
</svg>
