<?xml version="1.0" encoding="UTF-8" standalone="no"?>
<!DOCTYPE svg PUBLIC "-//W3C//DTD SVG 1.1//EN" "http://www.w3.org/Graphics/SVG/1.1/DTD/svg11.dtd">
<svg width="100%" height="100%" viewBox="0 0 1024 1024" version="1.1" xmlns="http://www.w3.org/2000/svg" xmlns:xlink="http://www.w3.org/1999/xlink" xml:space="preserve" xmlns:serif="http://www.serif.com/" style="fill-rule:evenodd;clip-rule:evenodd;stroke-linejoin:round;stroke-miterlimit:2;">
    <g>
        <g transform="matrix(0.381212,0,0,1,0,0)">
            <path d="M149.232,28.444C149.232,12.746 115.797,0 74.616,0C33.434,0 0,12.746 0,28.444L0,995.556C0,1011.25 33.434,1024 74.616,1024C115.797,1024 149.232,1011.25 149.232,995.556L149.232,28.444Z" style="fill:rgb(0,162,162);"/>
        </g>
        <g transform="matrix(0.762425,0,0,1,113.778,0)">
            <path d="M149.232,32C149.232,14.339 130.425,0 107.26,0L41.971,0C18.807,0 0,14.339 0,32L0,992C0,1009.66 18.807,1024 41.971,1024L107.26,1024C130.425,1024 149.232,1009.66 149.232,992L149.232,32Z" style="fill:rgb(0,162,162);"/>
        </g>
        <g transform="matrix(1.52485,0,0,1,284.444,-5.68434e-14)">
            <path d="M149.232,32C149.232,14.339 139.828,0 128.246,0L20.986,0C9.403,0 0,14.339 0,32L0,992C0,1009.66 9.403,1024 20.986,1024L128.246,1024C139.828,1024 149.232,1009.66 149.232,992L149.232,32Z" style="fill:rgb(0,162,162);"/>
        </g>
        <g transform="matrix(3.0497,0,0,1,568.889,-5.68434e-14)">
            <path d="M149.232,32C149.232,14.339 144.53,0 138.739,0L10.493,0C4.702,0 0,14.339 0,32L0,992C0,1009.66 4.702,1024 10.493,1024L138.739,1024C144.53,1024 149.232,1009.66 149.232,992L149.232,32Z" style="fill:rgb(0,162,162);"/>
        </g>
    </g>
</svg>
