<svg id="Layer_1" data-name="Layer 1" xmlns="http://www.w3.org/2000/svg" viewBox="0 0 2400 1600"><defs><style>.cls-1{fill:#e2816d;}.cls-2{fill:#e44d26;}.cls-3{fill:#f16529;}.cls-4{fill:#ebebeb;}.cls-5{fill:#fff;}</style></defs><title>Artboard 1</title><rect class="cls-1" width="2400" height="1600"/><path d="M911.72,300h44.92v44.53h41.41V300H1043V434.77H998.05V389.84H957v44.93H911.72m190.62-89.85H1062.7V300h124.41v44.92h-39.84v89.85h-44.93M1206.84,300h47.07l28.9,47.46L1311.72,300h47.07V434.77h-44.92V368l-31.45,48.44L1251,368v66.8h-44.14M1381.05,300H1426v90.23h63.67v44.54h-108.6"/><path class="cls-2" d="M910.16,1219.92,845.7,496.48h708.6l-64.46,723.05L1199.41,1300"/><path class="cls-3" d="M1200,1238.48V555.86h289.65l-55.27,617.19"/><path class="cls-4" d="M977.34,644.34H1200V733H1074.61l8.2,90.82H1200V912.3H1001.56m3.91,44.54h89.06l6.25,70.89L1200,1054.3v92.57l-182-50.78"/><path class="cls-5" d="M1421.88,644.34H1199.61V733h214.06m-8,90.82H1199.61V912.5H1309l-10.35,115.23-99,26.57v92.18l181.64-50.39"/></svg>