<svg id="Layer_1" data-name="Layer 1" xmlns="http://www.w3.org/2000/svg" viewBox="0 0 2400 1600"><defs><style>.cls-1{fill:#efe19a;}.cls-2{fill:#f7df1e;}</style></defs><title>Artboard 1</title><rect class="cls-1" width="2400" height="1600"/><rect class="cls-2" x="700" y="300" width="1000" height="1000"/><path d="M1371.75,1081.25c20.14,32.89,46.35,57.07,92.69,57.07,38.94,0,63.81-19.46,63.81-46.35,0-32.22-25.55-43.64-68.41-62.38l-23.49-10.08c-67.81-28.89-112.86-65.08-112.86-141.59,0-70.48,53.7-124.13,137.62-124.13,59.75,0,102.7,20.8,133.65,75.24l-73.17,47c-16.11-28.89-33.49-40.27-60.48-40.27-27.52,0-45,17.46-45,40.27,0,28.19,17.46,39.6,57.78,57.06l23.49,10.06c79.84,34.24,124.92,69.15,124.92,147.62,0,84.61-66.46,131-155.71,131-87.27,0-143.65-41.58-171.24-96.09Zm-332,8.15c14.77,26.19,28.19,48.33,60.48,48.33,30.87,0,50.35-12.08,50.35-59V759.16h94V1080c0,97.3-57,141.59-140.32,141.59-75.24,0-118.81-38.94-141-85.83Z"/></svg>