<svg id="Layer_1" data-name="Layer 1" xmlns="http://www.w3.org/2000/svg" viewBox="0 0 1200 800"><defs><style>.cls-1{fill:#898989;stroke:#7f7f7f;}.cls-1,.cls-2,.cls-3,.cls-4{stroke-miterlimit:10;}.cls-2{fill:#3f3f3f;}.cls-2,.cls-3,.cls-4{stroke:#3f3f3f;}.cls-3{fill:none;}.cls-3,.cls-4{stroke-width:15px;}.cls-4{fill:#7c7c7c;}</style></defs><title>Artboard 1</title><rect class="cls-1" width="1200" height="800"/><path class="cls-2" d="M497.68,449.9a25.17,25.17,0,0,0,24.95,25.36c14.9,0,24.15-8.45,24.15-20.93,0-18.11-23.74-23.34-43.46-30.18-40.65-14.49-63.19-33.41-63.19-74.86,0-42.66,36.63-78.07,82.1-78.07,53.53,0,78.88,34.2,82.1,78.88H548.79c0-13.69-8.45-25-24.95-25-12.88,0-25.35,7.65-25.35,23.35,0,18.11,22.13,21.33,42.66,27.36,43.06,12.88,63.18,37,63.18,74.86,0,42.66-36.22,78.07-81.7,78.07-52.72,0-82.5-35.41-82.5-78.88Zm24.95,67.62c37.43,0,68-30.19,68-66.81,0-40.65-24.15-55.54-61.17-66-23.75-6.84-44.27-12.48-44.27-36.22,0-20.93,15.69-34.61,37.42-34.61,25,0,33.41,14.89,37,24.95h30.18c-2.41-23.75-20.12-56.35-67.21-56.35-37.42,0-68.81,30.19-68.81,66.81,0,29.78,11.26,48.7,55.53,64.39,22.94,8.45,50.71,14.49,50.71,40.65,0,21.33-18.51,32.2-37.43,32.2-20.52-.41-33.4-12.08-37-25.36H454.22C455,491.36,484.4,517.52,522.63,517.52ZM457.84,344.86h23.34v2H457.84Zm0,8.05h23.34l.4,2H457.84Zm1.61-16.5h23.34l-.8,2.42H458.65Zm-.8,24.95h24.14l.81,2H459.05Zm2,8.05h27l-.4-.4,2.41,2.42H461.06Zm.8-41.05H486l-1.21,2H461.06Zm4-8.45h27.77l-2.82,2.42H464.28Zm-.81,58h32.6l3.22,2H465.89Zm6-66h35.41l-4.42,2h-32.6Zm.4,74.05H517.4l7.65,2H473.13Zm7.25-82.1h44.26v2H476Zm2,90.15h63.18l6,2.42H484.8Zm10.06-98.6h32.19v2H487.22Zm70.43,107.06,2.41,2h-64l-3.22-2ZM514.18,287.31h8.45v2H504.52Zm57.55,123.15,2,2.42H518.61l-6-2.42ZM522.63,493h45.88l-2,2H522.63Zm0,8h36.22L556,503H522.63Zm0,8.45h20.53l-7.65,2H522.63Zm56-90.55.8,2h-39l-4.42-2Zm-31.4,65.59h28.58l-1.21,1.61-.4.81h-31.8Zm35-57.55.8,2H553.62l-2.41-2Zm-25.76,49.51h23.75l-1.21,2H554.43Zm2-41.05H585l.81,2H559.66ZM561.67,468h22.14l-.81,2.42H560.46Zm.81-24.55h23.74v2H562.88Zm1.2,16.5h22.14l-.4,2H563.28Zm.41-8h22.53l-.4,2H564.09Z"/><path class="cls-2" d="M776.58,271.22c76.06,0,130,57.95,130,129.18,0,33.81-12.07,64-32.6,86.93l40.65,37.43H839.36l-7.65-7.24a136.36,136.36,0,0,1-55.13,11.26c-76.06,0-130-57.14-130-128.38S700.52,271.22,776.58,271.22Zm0,246.3c28.17,0,44.67-6.85,57.15-14.09l13.68,12.48h41.05l-32.2-29.38c22.94-25.36,35.42-54.74,35.42-86.13a114.51,114.51,0,0,0-2.82-26.56c-11.27-51.92-54.33-89.75-112.28-89.75s-101.42,37.83-112.69,89.75c-2,8.45-2.41,17.31-2.41,26.56C661.48,465.2,709.37,517.52,776.58,517.52ZM665.9,389.94h21.33l-.4,2H665.5Zm-.4,8.05h21.33v2H665.5Zm0,8.05h21.33l.4,2H665.9Zm1.61-24.15h21.73l-.8,2H666.31Zm-.8,32.2h21.33l.4,2H666.71Zm.8,8h22.14l.8,2H667.92Zm1.21-48.29h22.13l-.8,2H667.92Zm.8,56.34h22.14l.8,2H669.53Zm2.42,8.05h22.94l.8,2H671.94Zm2.81,8H698.5l1.21,2H675.56Zm3.63,8.05h25.75l2,2H679.19Zm4.83,8.05H711l2,2H684Zm36.62,8.05,2.41,2H689.65l-1.61-2Zm-24.55-96.59c10.46-34.21,40.25-60,81.7-60s71.23,25.75,81.69,60a96.2,96.2,0,0,1,4,26.56c0,25.36-10.46,50.31-27.77,65.6l-34.61-32.19H761.28l48.3,46.68c-4.43,1.61-16.5,3.22-33,3.22-51.52,0-85.72-37-85.72-83.31A96.57,96.57,0,0,1,694.88,373.84Zm37.43,104.64,4.42,2H696.89l-2-2Zm22.13,8,22.14,1.61,24.15-1.61h49.09l2,2H705.75l-2.42-2Zm22.14-13.28a58.33,58.33,0,0,0,8.45-.41l-50.71-48.69h72l25.35,23.74c10.06-12.88,15.7-29.38,15.7-47.49,0-40.65-28.17-73.65-70.83-73.65s-70.83,33-70.83,73.65C705.75,440.65,733.92,473.25,776.58,473.25Zm81.69,21.33,2,2H717l-2.82-2Zm-33,8-4.42,2H732.71l-4.83-2Zm-29.37,8.05-19.32,2.42-25.36-2.42Zm2.41-72.44,2,2h-27l-2-2Zm8.45,8,2,2h-27l-2.41-2Zm8.86,8.05,2,2H790.26l-2.41-2Zm8.85,8.05,2,2H798.71l-2.41-2Zm39,8.05-1.61,2H807.16l-2.41-2Zm-6,8.05-1.61,2H815.62l-2.42-2Zm9.66,24.14-.4-.4,3.22,2.42H841.37l-2.41-2Zm-23.75-40.24h25.36l-1.61,2H841.37Zm6-8.05h23.75l-1.21,2H847.81ZM876,510.27l-.4-.4,3.22,2.41H850.23l-2.42-2Zm-21.73-64h23.34l-1.2,2H853Zm4-8h22.54l-1.21,2H857.47Zm2.82-8.05h22.14l-.81,2H860.69Zm1.21-56.34h22.14l.8,2H863.1Zm1.21,48.29h21.73l-.4,2H863.1Zm.8-40.24H886l.41,2H865.12Zm.81,32.2h21.73l-.81,2H864.71Zm.4-24.15h21.33l.4,2H865.92Zm.8,16.1h21.33l-.4,2H865.92Zm0-8.05h21.33v2H866.32Z"/><path class="cls-2" d="M947.61,279.27h59.16V470h105v50.71H947.61Zm149.31,230.2V481.29h-105V290.53H962.51V509.47Zm-127.17-6.85H1092.9v2H967.74Zm8.45-8h114.7v2H976.19Zm8.45-8.05H1092.9v2H984.24Z"/><rect class="cls-3" x="88.19" y="222" width="273" height="356" rx="38.12"/><line class="cls-4" x1="88.19" y1="400" x2="361.19" y2="400"/><line class="cls-4" x1="91.06" y1="311" x2="361.19" y2="311"/><line class="cls-4" x1="91.06" y1="489" x2="361.19" y2="489"/></svg>