<svg id="Layer_1" data-name="Layer 1" xmlns="http://www.w3.org/2000/svg" viewBox="0 0 4196 814"><defs><style>.cls-1{fill:#101010;}</style></defs><polygon class="cls-1" points="257.75 627.28 204.8 813.76 597.13 603.84 650.08 417.35 257.75 627.28"/><polygon class="cls-1" points="0.24 456.34 189.11 809.3 242.05 622.82 36.13 237.96 0.24 456.34"/><path class="cls-1" d="M248.88,209.3a40.08,40.08,0,0,0-54.18-16.41L114.21,236,152,306.56l80.49-43.07A40.07,40.07,0,0,0,248.88,209.3Z"/><circle class="cls-1" cx="389.64" cy="163.42" r="65.66" transform="translate(-1.43 323.39) rotate(-45)"/><path class="cls-1" d="M441.68.23,38.83,215.79,251.19,612.67,654,397.11ZM347.09,83.9a89.34,89.34,0,0,1,71.27-6L405,52.92l21.63-11.57,85.1,159.05L490.09,212l-13.37-25a89.38,89.38,0,0,1-44.52,56,90.2,90.2,0,0,1-85.11-159ZM81,225.91l3.17-1.71,98.95-52.94a64.57,64.57,0,0,1,60.92,113.86l-80.5,43.07,24.19,45.2L166.11,385ZM392,463.73A90.19,90.19,0,0,1,223.31,492.6l-42.55-79.53,21.63-11.57L244.94,481a65.66,65.66,0,0,0,115.79-61.95l-42.55-79.53L339.81,328l42.55,79.52A89.37,89.37,0,0,1,392,463.73Zm60.89,8.12-.09,0-85.06-159,20.18-10.79,74.4,139.05,138.88-74.31L612,387.06,453,472.12Z"/><path class="cls-1" d="M887.71,581.33a22.9,22.9,0,0,1-23.24-23.24V255.47q0-10.28,6.71-16.77a22.91,22.91,0,0,1,16.53-6.48h89.4q33.54,0,59.46,14.75a104.77,104.77,0,0,1,40.45,40.9Q1091.54,314,1091.55,348q0,32.63-14.53,58.11a102.89,102.89,0,0,1-40.45,39.78q-25.93,14.31-59.46,14.3H911v97.9a22.92,22.92,0,0,1-6.48,16.54Q898,581.34,887.71,581.33ZM911,417.28h66.15q20.57,0,36.21-8.94a65,65,0,0,0,24.59-24.58q8.92-15.64,8.94-35.76,0-21.47-8.94-37.78a67,67,0,0,0-24.59-25.7q-15.65-9.39-36.21-9.39H911Z"/><path class="cls-1" d="M1231.46,583.12q-32.64,0-58.56-16.32a115.78,115.78,0,0,1-40.9-44.25q-15-27.93-15-63.25t16.31-63.47a120.73,120.73,0,0,1,44.25-44.48Q1205.52,335,1240.4,335T1303,351.35a121.27,121.27,0,0,1,44,44.48q16.31,28.16,16.31,63.47h-17.43q0,35.31-15,63.25A116,116,0,0,1,1290,566.8Q1264.09,583.14,1231.46,583.12Zm8.94-40.23q22.8,0,40.67-10.95a77.89,77.89,0,0,0,28.17-30q10.27-19,10.28-42.69,0-24.14-10.28-43.14a78,78,0,0,0-28.17-30q-17.88-10.93-40.67-10.95a76.73,76.73,0,0,0-40.46,10.95,79,79,0,0,0-28.6,30q-10.52,19-10.51,43.14,0,23.7,10.51,42.69a78.81,78.81,0,0,0,28.6,30A76.64,76.64,0,0,0,1240.4,542.89Zm100.13,38.89a22.16,22.16,0,0,1-22.8-22.8V490.59l8.49-47.38,37.1,16.09V559a22.16,22.16,0,0,1-22.79,22.8Z"/><path class="cls-1" d="M1534.07,583.57q-30.84,0-55.2-13.19t-38.44-38.67q-14.09-25.47-14.09-62.58v-110a22.8,22.8,0,1,1,45.6,0v110q0,25,9.39,41.35a58.4,58.4,0,0,0,25.48,24.14q16.08,7.83,36.2,7.82,19.21,0,34.2-7.6a63,63,0,0,0,23.91-20.56,50,50,0,0,0,8.94-29h28.16q0,27.72-13.63,50.06a98.31,98.31,0,0,1-37.1,35.31Q1564,583.58,1534.07,583.57Zm98.79-2.24a22.16,22.16,0,0,1-22.8-22.8V359.17q0-10.28,6.48-16.54a22.56,22.56,0,0,1,16.32-6.26q10.28,0,16.54,6.26t6.26,16.54V558.53a22.56,22.56,0,0,1-6.26,16.32Q1643.13,581.33,1632.86,581.33Z"/><path class="cls-1" d="M1794.22,581.33a58.93,58.93,0,0,1-34.86-10.73q-15.21-10.73-23.69-29.28t-8.5-42.68V254.57q0-9.82,6.26-16.09t16.09-6.26q9.82,0,16.1,6.26t6.25,16.09V498.64q0,16.53,6.26,27.26t16.09,10.73h11.18a18.58,18.58,0,0,1,14.53,6.26q5.58,6.27,5.58,16.09T1817,575.07q-8.49,6.27-21.9,6.26Z"/><path class="cls-1" d="M2088.34,585.8q-31.29,0-55.65-13.63a96.94,96.94,0,0,1-38-38q-13.65-24.36-13.64-55.65,0-10.27,6.71-16.76a22.88,22.88,0,0,1,16.54-6.48q10.28,0,16.76,6.48t6.48,16.76q0,19.23,7.82,34a58.09,58.09,0,0,0,21.46,23q13.64,8.28,31.51,8.27t31.74-8.27a57.64,57.64,0,0,0,21.68-23q7.81-14.75,7.82-34v-223q0-10.28,6.48-16.77a22.17,22.17,0,0,1,16.32-6.48q10.27,0,17,6.48t6.7,16.77V478.52q0,31.29-13.86,55.65a99,99,0,0,1-38,38Q2120.09,585.81,2088.34,585.8Z"/><path class="cls-1" d="M2527.3,585.8a166.09,166.09,0,0,1-54.54-8.94,141.09,141.09,0,0,1-45.14-25q-19.23-16.1-28.17-37.1-4.47-9.39.23-17.44T2415.55,487a22.28,22.28,0,0,1,15.86,2.46,27.45,27.45,0,0,1,11.85,12.74q5.37,11.18,17.66,20.56a101.17,101.17,0,0,0,29.72,15.2,115,115,0,0,0,36.66,5.81,113.09,113.09,0,0,0,39.56-6.7q18.1-6.71,29.27-19.45t11.18-31.51q0-23.69-18.55-42.47t-61-23.24q-55.42-5.37-87.16-32.63t-31.74-67.5q0-29.5,16.54-50.06t44.92-31.29q28.38-10.73,63.25-10.73,27.27,0,47.61,7.6a112.94,112.94,0,0,1,35.54,21,137.53,137.53,0,0,1,26.37,31.74q6.25,9.82,5.14,18.55a18.38,18.38,0,0,1-8.72,13.63,20.9,20.9,0,0,1-18.32,2.23,25.11,25.11,0,0,1-14.75-11.62,79.83,79.83,0,0,0-17.44-21.9,77.52,77.52,0,0,0-24.14-14.08q-13.86-5.13-32.63-5.14-33.08-.45-55.43,12.29t-22.34,39.11a51.64,51.64,0,0,0,6.92,25.71q6.93,12.3,25.48,21.23t53.42,12.51q53.19,5.37,82.92,32.41t29.72,71.3q0,25.47-10.5,44.25a96.78,96.78,0,0,1-28.16,31.52,125.46,125.46,0,0,1-40.23,19A174.12,174.12,0,0,1,2527.3,585.8Z"/><path class="cls-1" d="M2830.36,583.12q-35.78,0-63.7-16.32a117.7,117.7,0,0,1-43.81-44.25Q2707,494.62,2707,459.3q0-36.21,15.65-64.37a113.94,113.94,0,0,1,42.91-44Q2792.81,335,2828.12,335q26.37,0,48.28,10.06t39.34,30.17q6.24,7.15,4.46,14.75t-9.83,13.41a16.94,16.94,0,0,1-13.86,2.91,27.18,27.18,0,0,1-13.85-7.82q-21.91-23.24-54.54-23.25-22.8,0-40.23,10.51a72.79,72.79,0,0,0-27.26,29.28q-9.84,18.76-9.84,44.25,0,24.13,10.06,42.91a76.5,76.5,0,0,0,27.94,29.73q17.86,10.95,41.57,10.95a90.22,90.22,0,0,0,27.49-3.8,65.6,65.6,0,0,0,21.68-11.85q7.14-5.81,14.75-6.48a17.63,17.63,0,0,1,13.41,4.25q7.59,6.27,8.49,14.08t-5.36,14.08Q2878.63,583.13,2830.36,583.12Z"/><path class="cls-1" d="M3099,583.12q-36.2,0-63.92-15.87a114.91,114.91,0,0,1-43.58-43.81q-15.87-27.93-15.87-64.14,0-36.65,15.87-64.59a115,115,0,0,1,43.58-43.81Q3062.8,335,3099,335q35.76,0,63.48,15.87a115.11,115.11,0,0,1,43.58,43.81q15.87,27.94,15.87,64.59,0,36.21-15.64,64.14a113.45,113.45,0,0,1-43.36,43.81Q3135.21,583.12,3099,583.12Zm0-40.23q23.25,0,41.13-10.73a75.15,75.15,0,0,0,27.94-29.5q10-18.78,10-43.36t-10-43.58A74.71,74.71,0,0,0,3140.13,386q-17.88-10.73-41.13-10.73T3057.88,386a76.15,76.15,0,0,0-28.16,29.73q-10.29,19-10.28,43.58t10.28,43.36a76.62,76.62,0,0,0,28.16,29.5Q3075.76,542.89,3099,542.89Z"/><path class="cls-1" d="M3279.59,384.2q-9.39,0-15.2-5.36a17.48,17.48,0,0,1-5.81-13.41q0-8.94,5.81-14.3t15.2-5.37h103.26q9.38,0,15.19,5.37t5.81,14.3a17.52,17.52,0,0,1-5.81,13.41q-5.8,5.37-15.19,5.36Zm99.23,197.13a73.24,73.24,0,0,1-40.23-11.4,80,80,0,0,1-28.16-31.06q-10.29-19.67-10.28-44.26V281.39q0-9.83,6.26-16.09T3322.5,259q9.83,0,16.09,6.26t6.26,16.09V494.61q0,17.89,9.83,29.95t24.14,12.07H3394a17.61,17.61,0,0,1,13.63,6.26q5.59,6.27,5.59,16.09a20.15,20.15,0,0,1-7.37,16.09q-7.38,6.27-19,6.26Z"/><path class="cls-1" d="M3458.83,384.2q-9.39,0-15.2-5.36a17.48,17.48,0,0,1-5.81-13.41q0-8.94,5.81-14.3t15.2-5.37h103.26q9.38,0,15.2,5.37c3.86,3.57,5.81,8.34,5.81,14.3a17.55,17.55,0,0,1-5.81,13.41q-5.82,5.37-15.2,5.36Zm99.23,197.13a73.24,73.24,0,0,1-40.23-11.4,80,80,0,0,1-28.16-31.06q-10.29-19.67-10.28-44.26V281.39q0-9.83,6.26-16.09t16.09-6.26q9.83,0,16.09,6.26t6.26,16.09V494.61q0,17.89,9.84,29.95t24.13,12.07h15.2a17.6,17.6,0,0,1,13.63,6.26q5.59,6.27,5.59,16.09a20.15,20.15,0,0,1-7.37,16.09q-7.38,6.27-19,6.26Z"/><path class="cls-1" d="M3807,581.33a22.9,22.9,0,0,1-23.25-23.24V255.47q0-10.28,6.71-16.77a22.92,22.92,0,0,1,16.54-6.48q10.27,0,16.76,6.48t6.48,16.77V558.09a22.88,22.88,0,0,1-6.48,16.54Q3817.32,581.34,3807,581.33Z"/><path class="cls-1" d="M4039.47,581.33q-14.31,0-21-14.75l-131-299.49q-6.27-15.19-1.34-25t18.77-9.84q15.64,0,21.46,13.86l114.88,275.8h-4.92l117.12-275.8q3.57-8,8.27-11t12.74-2.91q13.41,0,18.55,9.61t-.23,21.24L4060.48,566.58a26.41,26.41,0,0,1-8.27,10.95A20.8,20.8,0,0,1,4039.47,581.33Z"/></svg>