<svg id="Layer_1" data-name="Layer 1" xmlns="http://www.w3.org/2000/svg" viewBox="0 0 2400 1600"><defs><style>.cls-1{fill:#8fc1d1;}.cls-2,.cls-4{fill:#00618a;}.cls-3,.cls-5{fill:#e48e00;}.cls-4,.cls-5{fill-rule:evenodd;}</style></defs><rect class="cls-1" width="2400" height="1600"/><path class="cls-2" d="M416.05,1132.65h51.66v-204l80,177.81c9.44,21.53,22.35,29.14,47.68,29.14s37.75-7.61,47.19-29.14l80-177.81v204h51.66V929c0-19.87-7.95-29.47-24.34-34.44-39.23-12.25-65.56-1.65-77.48,24.84L593.86,1094.9l-76-175.49c-11.42-26.49-38.24-37.09-77.48-24.84-16.39,5-24.34,14.57-24.34,34.44Z"/><path class="cls-2" d="M817.11,966.63h51.64V1079c-.48,6.11,2,20.43,30.25,20.88,14.44.23,111.42,0,112.33,0V966.08h51.76c.23,0-.06,182.47,0,183.24.28,45-55.84,54.78-81.71,55.54H818.23v-34.75c.29,0,163,0,163.39,0,33.25-3.51,29.32-20,29.32-25.6V1131H901.15c-51.08-.47-83.61-22.76-84-48.4C817.1,1080.17,818.24,967.75,817.11,966.63Z"/><path class="cls-3" d="M1102.89,1132.65H1251.4c17.38,0,34.27-3.64,47.68-9.93,22.35-10.26,33.28-24.17,33.28-42.39v-37.74c0-14.91-12.42-28.81-36.76-38.08-12.91-5-28.8-7.62-44.2-7.62h-62.58c-20.86,0-30.8-6.29-33.28-20.2a14.63,14.63,0,0,1-.5-4.63V948.55a13.71,13.71,0,0,1,.5-4.31c2.48-10.59,8-13.58,26.32-15.23,1.5,0,3.48-.33,5-.33h147.52V894.24h-145c-20.86,0-31.78,1.33-41.72,4.3-30.79,9.61-44.2,24.84-44.2,51.33V980c0,23.19,26.33,43,70.53,47.68,5,.33,9.93.66,14.9.66h53.64a26.84,26.84,0,0,1,5.46.34c16.39,1.33,23.34,4.3,28.32,10.26a12.34,12.34,0,0,1,4,9.27v30.14c0,3.64-2.49,8.28-7.45,12.25-4.47,4-11.92,6.62-21.86,7.29-2,0-3.47.33-5.46.33H1102.89Z"/><path class="cls-3" d="M1654.6,1072.72c0,35.43,26.32,55.3,79.46,59.27,5,.33,9.94.66,14.9.66h134.61v-34.43H1748c-30.3,0-41.72-7.62-41.72-25.83V894.24H1654.6Z"/><path class="cls-3" d="M1365.33,1074.52V951.76c0-31.19,21.9-50.11,65.19-56.08a99.13,99.13,0,0,1,13.94-1h98a106.19,106.19,0,0,1,14.44,1c43.3,6,65.19,24.89,65.19,56.08v122.76c0,25.31-9.3,38.85-30.73,47.68l50.88,45.92h-60L1541.15,1131l-41.44,2.62h-55.25a114.68,114.68,0,0,1-30.36-4.31C1381.25,1120.32,1365.33,1103.06,1365.33,1074.52Zm55.75-3a22.57,22.57,0,0,0,1,5.31c3,14.27,16.43,22.23,36.83,22.23h46.93l-43.11-38.91h60l37.6,33.94c6.92-3.7,11.48-9.34,13.08-16.6a17.14,17.14,0,0,0,.49-5V954.74a16.19,16.19,0,0,0-.49-4.65c-3-13.27-16.43-20.9-36.34-20.9H1458.9c-22.89,0-37.82,10-37.82,25.55Z"/><path class="cls-2" d="M1929,837.12c-31.75-.86-56,2.09-76.74,10.83-5.89,2.49-15.29,2.55-16.25,9.94,3.24,3.39,3.74,8.46,6.31,12.64,5,8,13.31,18.74,20.77,24.38,8.15,6.15,16.55,12.73,25.28,18.05,15.54,9.48,32.89,14.89,47.85,24.38,8.82,5.6,17.58,12.64,26.19,19,4.25,3.12,7.11,8,12.63,9.93v-.9c-2.9-3.7-3.65-8.78-6.32-12.64L1957,941c-11.48-15.23-26-28.61-41.53-39.72-12.35-8.87-40-20.84-45.15-35.22l-.9-.9c8.76-1,19-4.16,27.09-6.32,13.57-3.64,25.71-2.7,39.72-6.32l19-5.42v-3.61c-7.09-7.27-12.14-16.89-19.87-23.47-20.22-17.22-42.28-34.42-65-48.76-12.6-8-28.17-13.12-41.53-19.86-4.49-2.27-12.38-3.45-15.35-7.23-7-8.94-10.84-20.28-16.25-30.7-11.33-21.82-22.46-45.66-32.5-68.62-6.85-15.65-11.32-31.09-19.86-45.14-41-67.4-85.13-108.08-153.49-148.07-14.54-8.51-32-11.86-50.56-16.25L1511,433.53c-6.06-2.53-12.37-9.95-18.06-13.54-22.65-14.31-80.73-45.43-97.5-4.52-10.6,25.83,15.82,51,25.27,64.11,6.63,9.18,15.13,19.47,19.86,29.79,3.12,6.79,3.66,13.59,6.33,20.77,6.56,17.69,12.27,36.92,20.76,53.27,4.29,8.27,9,17,14.45,24.38,3.32,4.53,9,6.53,9.93,13.54-5.58,7.8-5.9,19.91-9,29.8-14.11,44.49-8.79,99.79,11.74,132.72,6.3,10.11,21.13,31.79,41.53,23.47,17.84-7.26,13.85-29.79,19-49.65,1.15-4.51.44-7.82,2.71-10.84v.91q8.11,16.25,16.25,32.49c12,19.38,33.37,39.62,51.46,53.28,9.38,7.08,16.77,19.33,28.89,23.47v-.9h-.9c-2.35-3.67-6-5.18-9-8.13a206.27,206.27,0,0,1-20.77-23.47c-16.45-22.34-31-46.78-44.23-72.23-6.33-12.15-11.83-25.56-17.16-37.92-2.06-4.77-2-12-6.32-14.45-5.84,9.06-14.44,16.39-19,27.09-7.22,17.1-8.16,38-10.83,59.59-1.58.56-.88.17-1.81.9-12.57-3-17-16-21.66-27.08-11.83-28.09-14-73.31-3.62-105.64,2.69-8.36,14.85-34.71,9.93-42.44-2.35-7.71-10.1-12.16-14.44-18.06A141.55,141.55,0,0,1,1480.29,569c-9.68-21.9-14.19-46.48-24.38-68.61-4.86-10.59-13.1-21.29-19.86-30.7-7.48-10.42-15.87-18.1-21.67-30.7-2.06-4.48-4.86-11.65-1.8-16.25,1-3.11,2.34-4.41,5.41-5.42,5.24-4,19.83,1.34,25.28,3.61,14.48,6,26.56,11.74,38.83,19.86,5.89,3.91,11.84,11.46,19,13.55h8.12c12.71,2.92,27,.91,38.82,4.51,21,6.38,39.8,16.3,56.88,27.09,52,32.86,94.59,79.63,123.7,135.43,4.68,9,6.71,17.56,10.83,27.09,8.32,19.21,18.8,39,27.08,57.78s16.32,37.67,28,53.27c6.15,8.2,29.86,12.6,40.63,17.16,7.56,3.19,19.93,6.52,27.09,10.83,13.67,8.24,26.91,18.06,39.73,27.09C1908.34,819.06,1928,829,1929,837.12Z"/><path class="cls-4" d="M1525.43,493.12a64.64,64.64,0,0,0-16.25,1.81v.9h.91c3.15,6.49,8.73,10.66,12.63,16.25l9,19,.9-.9c5.6-3.94,8.16-10.24,8.13-19.86-2.24-2.36-2.57-5.32-4.51-8.13C1533.68,498.4,1528.69,496.27,1525.43,493.12Z"/><path class="cls-5" d="M1907.81,1097.23c0,22.75,18,38.07,38.07,38.07S1984,1120,1984,1097.23s-18-38.06-38.07-38.06S1907.81,1074.5,1907.81,1097.23Zm67.61,0c0,17.26-13.19,30.16-29.54,30.16-16.54,0-29.54-12.9-29.54-30.16s13-30.15,29.54-30.15C1962.23,1067.08,1975.42,1080,1975.42,1097.23ZM1956.14,1119h8.52l-12.48-19.08c6.7-.71,11.77-4,11.77-11.88,0-8.83-5.58-12.49-16.34-12.49h-17V1119H1938v-18.78h6.81ZM1938,1094.09V1081.6h8.43c4.36,0,9.64.82,9.64,5.89,0,6.09-4.77,6.6-10.25,6.6Z"/></svg>