<svg xmlns="http://www.w3.org/2000/svg" data-name="Layer 1" viewBox="0 0 2400 1600"><path d="M0 0h2400v1600H0z" style="fill:#8394c6"/><path d="M1173.86 306.77a53.87 53.87 0 0 1 52.27 0c79.81 44.83 320.24 179.79 400.13 224.62a50.57 50.57 0 0 1 26.14 44v449.24a50.57 50.57 0 0 1-26.14 44c-79.89 44.83-320.23 179.79-400.13 224.62a53.81 53.81 0 0 1-52.27 0c-79.89-44.83-320.23-179.79-400.13-224.62a50.58 50.58 0 0 1-26.13-44V575.38a50.58 50.58 0 0 1 26.13-44c79.81-44.82 320.33-179.78 400.13-224.61" style="fill:#283593;fill-rule:evenodd"/><path d="M754.85 1047.69c-6.32-8.47-7.25-16.47-7.25-27.35V573.71a50.25 50.25 0 0 1 26-43.72c79.62-44.55 319.21-178.76 398.83-223.32 16.09-9 38-8.83 54 .19 79.61 44.55 318.37 177.56 398 222.11a49.9 49.9 0 0 1 15.72 13.76Z" style="fill-rule:evenodd;fill:#5c6bc0"/><path d="M1200 466.65c184 0 333.35 149.38 333.35 333.35S1384 1133.35 1200 1133.35 866.65 984 866.65 800 1016 466.65 1200 466.65m0 166.68c92 0 166.67 74.68 166.67 166.67S1292 966.67 1200 966.67 1033.32 892 1033.32 800 1108 633.33 1200 633.33" style="fill-rule:evenodd;fill:#fff"/><path d="M1640.12 542.92c12.28 11.53 12.09 28.83 12.09 42.51 0 90.4-.74 347.39.19 437.7a51.85 51.85 0 0 1-7.72 26.88L1190.33 800Z" style="fill-rule:evenodd;fill:#3949ab"/></svg>