<svg xmlns="http://www.w3.org/2000/svg" width="2400" height="1800" viewBox="0 0 635 476.25"><defs><linearGradient id="a" x1="0" x2="1" y1="0" y2="0" gradientTransform="rotate(44.833 83.44 32.721)scale(818.03746)" gradientUnits="userSpaceOnUse"><stop offset="0" style="stop-color:#e764fe;stop-opacity:1"/><stop offset="1" style="stop-color:#fffa5f;stop-opacity:1"/></linearGradient></defs><path d="M0 0h635v476.25H0z" style="clip-rule:evenodd;fill:url(#a);fill-rule:evenodd;stroke-width:.264583;stroke-linecap:round;stroke-linejoin:round;stroke-miterlimit:1.5"/><g style="clip-rule:evenodd;fill-rule:evenodd;stroke-linecap:round;stroke-linejoin:round;stroke-miterlimit:1.5"><path d="m272.03 78.994.618-3.375h-11.502l2.329-11.787h13.831l.666-3.375h-17.254l-5.989 30.895h3.422l2.377-12.358zm24.669 12.358h3.28l-2.758-30.895h-4.753l-14.021 30.895h3.422l4.04-8.698h9.934zm-9.507-11.503 6.56-14.116h.523l1.33 14.116zm24.098-19.392-.522 2.757h8.222l-5.418 28.138h3.327l5.466-28.138h8.508l.523-2.757zm40.354 28.138h-6.75l3.945-28.138h-3.327c-1.853 2.472-4.753 4.278-8.175 5.038l-.285 3.28c3.422-.333 6.274-1.616 7.7-3.232l-3.232 23.052h-6.845l-.38 2.757h17.158c-.237-.808 0-1.759.143-2.614zm26.379-24.668 2.234-2.472c-1.521-.998-3.898-1.616-6.322-1.616-6.654 0-12.025 5.038-13.023 12.406l-1.236 8.793c-.903 6.654 2.424 10.932 8.746 10.932 6.131 0 10.742-4.04 11.597-10.22.856-6.178-2.471-10.028-8.65-10.028-3.042 0-5.847.903-7.415 2.519l.285-1.806c.856-5.656 4.658-9.554 9.459-9.554 1.473 0 3.28.38 4.325 1.046m-9.459 24.81c-3.85 0-6.084-3.041-5.56-7.51l.427-2.851c1.616-2.139 4.848-3.755 7.843-3.755 3.802 0 6.084 2.804 5.56 6.702-.617 4.23-4.23 7.415-8.27 7.415" aria-label="FAT16" style="font-style:italic;font-size:12px;font-family:DankMono-Italic,&quot;Dank Mono&quot;,monospace;fill:#fff"/></g><g style="clip-rule:evenodd;fill-rule:evenodd;stroke-linecap:round;stroke-linejoin:round;stroke-miterlimit:1.5"><path d="m722.031 340.055.48.528c.288-.48.948-.636 1.392-.636.936 0 1.416.492 1.296 1.308-.144.996-.864 1.548-1.992 1.548h-.42l-.108.696h.468c1.176 0 1.776.576 1.632 1.62-.132.924-.756 1.416-1.764 1.416-.84 0-1.236-.204-1.596-.912l-.636.36c.336.888 1.008 1.32 2.1 1.32 1.572 0 2.592-.768 2.772-2.1.132-.96-.228-1.74-.876-2.04.744-.372 1.176-.996 1.296-1.8.192-1.32-.72-2.172-2.028-2.172-.744 0-1.668.276-2.016.864" aria-label="3" style="font-style:italic;font-size:12px;font-family:DankMono-Italic,&quot;Dank Mono&quot;,monospace;fill:#fff" transform="translate(-4083.235 -1648.119)scale(5.9019)"/></g><g style="clip-rule:evenodd;fill-rule:evenodd;stroke-linecap:round;stroke-linejoin:round;stroke-miterlimit:1.5"><path d="M1200 193.525V1606.48" style="fill:none;stroke:#fff;stroke-width:30.06px" transform="translate(-39.395 62.975)scale(.22002)"/></g><g style="clip-rule:evenodd;fill-rule:evenodd;stroke-linecap:round;stroke-linejoin:round;stroke-miterlimit:1.5"><path d="M435.487 520.765H1964.51" style="fill:none;stroke:#fff;stroke-width:30.06px" transform="translate(53.48 68.352)scale(.22002)"/></g><g style="clip-rule:evenodd;fill-rule:evenodd;stroke-linecap:round;stroke-linejoin:round;stroke-miterlimit:1.5"><path d="M435.487 520.765H1964.51" style="fill:none;stroke:#fff;stroke-width:30.06px" transform="translate(53.48 226.338)scale(.22002)"/></g><g style="clip-rule:evenodd;fill-rule:evenodd;stroke-linecap:round;stroke-linejoin:round;stroke-miterlimit:1.5"><path d="M435.487 520.765H1964.51" style="fill:none;stroke:#fff;stroke-width:30.06px" transform="translate(53.48 146.413)scale(.22002)"/></g><g style="clip-rule:evenodd;fill-rule:evenodd;stroke-linecap:round;stroke-linejoin:round;stroke-miterlimit:1.5"><path d="M110.103 178.801h1051.34v1412.95H110.103z" style="fill:none;stroke:#fff;stroke-width:24.09px" transform="matrix(.31998 0 0 .22002 114.063 66.214)"/></g><g style="clip-rule:evenodd;fill-rule:evenodd;stroke-linecap:round;stroke-linejoin:round;stroke-miterlimit:1.5"><path d="M724.083 339.191c-1.536 0-2.892 1.68-3.228 4.104-.324 2.268.576 4.008 2.172 4.008 1.56 0 2.904-1.704 3.216-3.924.336-2.448-.576-4.188-2.16-4.188m-2.244 4.188c.3-2.148 1.2-3.54 2.232-3.552.408 0 .744.228.96.648l-3.18 4.764c-.096-.516-.108-1.14-.012-1.86m3.444-.084c-.264 1.908-1.152 3.252-2.232 3.252a1 1 0 0 1-.864-.48l3.12-4.764c.084.54.084 1.212-.024 1.992" aria-label="0" style="font-style:italic;font-size:12px;font-family:DankMono-Italic,&quot;Dank Mono&quot;,monospace;fill:#fff" transform="translate(-4085.431 -1881.46)scale(5.9019)"/></g><g style="clip-rule:evenodd;fill-rule:evenodd;stroke-linecap:round;stroke-linejoin:round;stroke-miterlimit:1.5"><path d="M262.41 120.05c-9.066 0-17.069 9.915-19.052 24.22-1.912 13.386 3.4 23.656 12.82 23.656 9.206 0 17.138-10.057 18.98-23.16 1.983-14.447-3.4-24.717-12.748-24.717m-13.244 24.717c1.77-12.678 7.082-20.893 13.173-20.964 2.408 0 4.391 1.346 5.666 3.824l-18.768 28.117c-.567-3.045-.638-6.728-.071-10.977m20.326-.496c-1.558 11.26-6.799 19.193-13.173 19.193-2.125 0-3.895-.992-5.1-2.833l18.415-28.117c.495 3.187.495 7.153-.142 11.757m44.193-10.906h-5.382l-10.34 12.96-6.658-12.96h-5.24l8.64 16.998-13.315 16.643h5.524l9.916-12.465 6.303 12.465h5.24l-8.356-16.431zm33.712-2.974c-1.416 9.631-17.493 21.317-27.763 31.87l-.566 4.745h30.17l.638-4.745-23.23.141c10.198-10.552 24.292-21.671 25.638-31.516.92-6.515-3.966-10.977-11.97-10.977-5.948 0-10.693 2.479-14.093 7.861l3.258 2.62c3.4-4.461 7.011-5.949 11.048-5.949 4.958 0 7.437 2.267 6.87 5.95m31.87-10.34c-9.065 0-17.068 9.915-19.051 24.22-1.912 13.386 3.4 23.656 12.819 23.656 9.207 0 17.139-10.057 18.98-23.16 1.983-14.447-3.4-24.717-12.748-24.717m-13.244 24.717c1.771-12.678 7.083-20.893 13.173-20.964 2.408 0 4.391 1.346 5.666 3.824l-18.768 28.117c-.566-3.045-.637-6.728-.07-10.977m20.327-.496c-1.559 11.26-6.8 19.193-13.174 19.193-2.124 0-3.895-.992-5.099-2.833l18.414-28.117c.496 3.187.496 7.153-.141 11.757m31.869-24.22c-9.066 0-17.069 9.915-19.052 24.22-1.912 13.386 3.4 23.656 12.82 23.656 9.206 0 17.138-10.057 18.98-23.16 1.983-14.447-3.4-24.717-12.748-24.717m-13.244 24.717c1.77-12.678 7.082-20.893 13.173-20.964 2.408 0 4.39 1.346 5.666 3.824l-18.768 28.117c-.567-3.045-.638-6.728-.071-10.977m20.326-.496c-1.558 11.26-6.799 19.193-13.173 19.193-2.125 0-3.895-.992-5.1-2.833l18.415-28.117c.495 3.187.495 7.153-.142 11.757m41.502 5.1h-6.445l.638-4.603c.212-1.275.566-2.692.92-3.825h-5.382l-1.204 8.428h-10.34l18.768-28.4h-5.383l-18.768 28.4-.637 4.745h15.722l-1.841 12.89h5.028l1.842-12.89h6.445z" aria-label="0x2004" style="font-style:italic;font-size:12px;font-family:DankMono-Italic,&quot;Dank Mono&quot;,monospace;fill:#fff"/></g><g style="clip-rule:evenodd;fill-rule:evenodd;stroke-linecap:round;stroke-linejoin:round;stroke-miterlimit:1.5"><path d="M262.41 198.284c-9.066 0-17.069 9.915-19.052 24.221-1.912 13.386 3.4 23.655 12.82 23.655 9.206 0 17.138-10.057 18.98-23.159 1.983-14.448-3.4-24.717-12.748-24.717m-13.244 24.717c1.77-12.677 7.082-20.893 13.173-20.963 2.408 0 4.391 1.345 5.666 3.824l-18.768 28.117c-.567-3.046-.638-6.728-.071-10.978m20.326-.496c-1.558 11.261-6.799 19.193-13.173 19.193-2.125 0-3.895-.991-5.1-2.833l18.415-28.116c.495 3.187.495 7.153-.142 11.756m44.193-10.906h-5.382l-10.34 12.96-6.658-12.96h-5.24l8.64 16.997-13.315 16.644h5.524l9.916-12.465 6.303 12.465h5.24l-8.356-16.431zm32.862 15.227.92-5.029H330.33l3.47-17.564h20.61l.991-5.028h-25.709l-8.923 46.035h5.099l3.541-18.414zm38.953 0 .92-5.029h-17.139l3.47-17.564h20.61l.992-5.028h-25.71l-8.923 46.035h5.1l3.54-18.414zm38.952 0 .92-5.029h-17.138l3.47-17.564h20.61l.991-5.028h-25.709l-8.923 46.035h5.099l3.541-18.414zm38.953 0 .92-5.029h-17.139l3.47-17.564h20.61l.991-5.028H446.55l-8.924 46.035h5.1l3.54-18.414z" aria-label="0xFFFF" style="font-style:italic;font-size:12px;font-family:DankMono-Italic,&quot;Dank Mono&quot;,monospace;fill:#fff"/></g><g style="clip-rule:evenodd;fill-rule:evenodd;stroke-linecap:round;stroke-linejoin:round;stroke-miterlimit:1.5"><path d="M262.41 276.302c-9.066 0-17.069 9.915-19.052 24.221-1.912 13.386 3.4 23.655 12.82 23.655 9.206 0 17.138-10.057 18.98-23.16 1.983-14.447-3.4-24.716-12.748-24.716m-13.244 24.717c1.77-12.677 7.082-20.893 13.173-20.964 2.408 0 4.391 1.346 5.666 3.825l-18.768 28.116c-.567-3.045-.638-6.728-.071-10.977m20.326-.496c-1.558 11.26-6.799 19.193-13.173 19.193-2.125 0-3.895-.991-5.1-2.833l18.415-28.116c.495 3.187.495 7.153-.142 11.756m44.193-10.907h-5.382l-10.34 12.961-6.658-12.96h-5.24l8.64 16.997-13.315 16.643h5.524l9.916-12.465 6.303 12.465h5.24l-8.356-16.43zm26.63-13.314c-9.066 0-17.069 9.915-19.052 24.221-1.912 13.386 3.4 23.655 12.82 23.655 9.206 0 17.138-10.057 18.98-23.16 1.983-14.447-3.4-24.716-12.748-24.716m-13.244 24.717c1.77-12.677 7.082-20.893 13.173-20.964 2.408 0 4.391 1.346 5.666 3.825l-18.768 28.116c-.567-3.045-.638-6.728-.071-10.977m20.326-.496c-1.558 11.26-6.799 19.193-13.173 19.193-2.125 0-3.895-.991-5.1-2.833l18.415-28.116c.495 3.187.495 7.153-.142 11.756m31.87-24.221c-9.065 0-17.068 9.915-19.051 24.221-1.912 13.386 3.4 23.655 12.819 23.655 9.207 0 17.139-10.057 18.98-23.16 1.983-14.447-3.4-24.716-12.748-24.716m-13.244 24.717c1.771-12.677 7.083-20.893 13.173-20.964 2.408 0 4.391 1.346 5.666 3.825l-18.768 28.116c-.566-3.045-.637-6.728-.07-10.977m20.327-.496c-1.559 11.26-6.8 19.193-13.174 19.193-2.124 0-3.895-.991-5.099-2.833l18.414-28.116c.496 3.187.496 7.153-.141 11.756m31.869-24.221c-9.066 0-17.069 9.915-19.052 24.221-1.912 13.386 3.4 23.655 12.82 23.655 9.206 0 17.138-10.057 18.98-23.16 1.983-14.447-3.4-24.716-12.748-24.716m-13.244 24.717c1.77-12.677 7.082-20.893 13.173-20.964 2.408 0 4.39 1.346 5.666 3.825l-18.768 28.116c-.567-3.045-.638-6.728-.071-10.977m20.326-.496c-1.558 11.26-6.799 19.193-13.173 19.193-2.125 0-3.895-.991-5.1-2.833l18.415-28.116c.495 3.187.495 7.153-.142 11.756m19.76-19.123 2.832 3.117c1.7-2.833 5.595-3.753 8.216-3.753 5.524 0 8.357 2.903 7.649 7.72-.85 5.878-5.1 9.135-11.757 9.135h-2.479l-.637 4.108h2.762c6.94 0 10.482 3.4 9.632 9.561-.78 5.454-4.462 8.357-10.411 8.357-4.958 0-7.295-1.204-9.42-5.382l-3.753 2.124c1.983 5.241 5.95 7.79 12.394 7.79 9.278 0 15.298-4.532 16.36-12.393.78-5.666-1.346-10.27-5.17-12.04 4.391-2.195 6.94-5.878 7.649-10.623 1.133-7.79-4.25-12.82-11.97-12.82-4.39 0-9.844 1.63-11.897 5.1" aria-label="0x0003" style="font-style:italic;font-size:12px;font-family:DankMono-Italic,&quot;Dank Mono&quot;,monospace;fill:#fff"/></g><g style="clip-rule:evenodd;fill-rule:evenodd;stroke-linecap:round;stroke-linejoin:round;stroke-miterlimit:1.5"><path d="M262.41 353.753c-9.066 0-17.069 9.915-19.052 24.222-1.912 13.385 3.4 23.654 12.82 23.654 9.206 0 17.138-10.056 18.98-23.159 1.983-14.447-3.4-24.717-12.748-24.717m-13.244 24.717c1.77-12.677 7.082-20.892 13.173-20.963 2.408 0 4.391 1.345 5.666 3.824l-18.768 28.117c-.567-3.045-.638-6.728-.071-10.978m20.326-.495c-1.558 11.26-6.799 19.193-13.173 19.193-2.125 0-3.895-.992-5.1-2.833l18.415-28.117c.495 3.187.495 7.153-.142 11.757m44.193-10.907h-5.382l-10.34 12.96-6.658-12.96h-5.24l8.64 16.997-13.315 16.644h5.524l9.916-12.465 6.303 12.465h5.24l-8.356-16.431zm32.862 15.227.92-5.029H330.33l3.47-17.564h20.61l.991-5.028h-25.709l-8.923 46.035h5.099l3.541-18.414zm38.953 0 .92-5.029h-17.139l3.47-17.564h20.61l.992-5.028h-25.71l-8.923 46.035h5.1l3.54-18.414zm38.952 0 .92-5.029h-17.138l3.47-17.564h20.61l.991-5.028h-25.709l-8.923 46.035h5.099l3.541-18.414zm38.953 0 .92-5.029h-17.139l3.47-17.564h20.61l.991-5.028H446.55l-8.924 46.035h5.1l3.54-18.414z" aria-label="0xFFFF" style="font-style:italic;font-size:12px;font-family:DankMono-Italic,&quot;Dank Mono&quot;,monospace;fill:#fff"/></g><g style="clip-rule:evenodd;fill-rule:evenodd;stroke-linecap:round;stroke-linejoin:round;stroke-miterlimit:1.5"><path d="M725.439 346.451h-1.704l.996-7.104h-.84c-.468.624-1.2 1.08-2.064 1.272l-.072.828c.864-.084 1.584-.408 1.944-.816l-.816 5.82h-1.728l-.096.696h4.332c-.06-.204 0-.444.036-.66z" aria-label="1" style="font-style:italic;font-size:12px;font-family:DankMono-Italic,&quot;Dank Mono&quot;,monospace;fill:#fff" transform="translate(-4083.606 -1805.04)scale(5.9019)"/></g><g style="clip-rule:evenodd;fill-rule:evenodd;stroke-linecap:round;stroke-linejoin:round;stroke-miterlimit:1.5"><path d="M725.283 340.943c-.24 1.632-2.964 3.612-4.704 5.4l-.096.804h5.112l.108-.804-3.936.024c1.728-1.788 4.116-3.672 4.344-5.34.156-1.104-.672-1.86-2.028-1.86-1.008 0-1.812.42-2.388 1.332l.552.444c.576-.756 1.188-1.008 1.872-1.008.84 0 1.26.384 1.164 1.008" aria-label="2" style="font-style:italic;font-size:12px;font-family:DankMono-Italic,&quot;Dank Mono&quot;,monospace;fill:#fff" transform="translate(-4082.441 -1724.83)scale(5.9019)"/></g></svg>