<?xml version="1.0" encoding="UTF-8" standalone="no"?>
<!-- Created with Inkscape (http://www.inkscape.org/) -->

<svg
   width="2400"
   height="1800"
   viewBox="0 0 634.99999 476.25"
   version="1.1"
   id="svg1707"
   xmlns="http://www.w3.org/2000/svg"
   xmlns:svg="http://www.w3.org/2000/svg">
  <defs
     id="defs1704">
    <linearGradient
       id="_Linear1"
       x1="0"
       y1="0"
       x2="1"
       y2="0"
       gradientUnits="userSpaceOnUse"
       gradientTransform="matrix(580.12541,576.74933,-576.74933,580.12541,47.609915,-49.191333)">
      <stop
         offset="0"
         style="stop-color:rgb(231,100,254);stop-opacity:1"
         id="stop1094" />
      <stop
         offset="1"
         style="stop-color:rgb(255,250,95);stop-opacity:1"
         id="stop1096" />
    </linearGradient>
  </defs>
  <g
     id="layer1">
    <rect
       x="-1.2989609e-13"
       y="-9.9475983e-14"
       width="635"
       height="476.25"
       style="clip-rule:evenodd;fill:url(#_Linear1);fill-rule:evenodd;stroke-width:0.264583;stroke-linecap:round;stroke-linejoin:round;stroke-miterlimit:1.5"
       id="rect1036" />
    <g
       transform="matrix(3.9608654,0,0,3.9608654,-2776.8815,-731.83484)"
       id="g1040"
       style="clip-rule:evenodd;fill-rule:evenodd;stroke-linecap:round;stroke-linejoin:round;stroke-miterlimit:1.5">
        <g
   aria-label="FAT16"
   id="text1038"
   style="font-style:italic;font-size:12px;font-family:DankMono-Italic, 'Dank Mono', monospace;fill:#ffffff">
  <path
     d="m 769.759,204.71 0.156,-0.852 h -2.904 l 0.588,-2.976 h 3.492 l 0.168,-0.852 h -4.356 l -1.512,7.8 h 0.864 l 0.6,-3.12 z"
     id="path1258" />
  <path
     d="m 775.987,207.83 h 0.828 l -0.696,-7.8 h -1.2 l -3.54,7.8 h 0.864 l 1.02,-2.196 h 2.508 z m -2.4,-2.904 1.656,-3.564 h 0.132 l 0.336,3.564 z"
     id="path1260" />
  <path
     d="m 779.67099,200.03 -0.132,0.696 h 2.076 l -1.368,7.104 h 0.84 l 1.38,-7.104 h 2.148 l 0.132,-0.696 z"
     id="path1262" />
  <path
     d="m 789.85898,207.134 h -1.704 l 0.996,-7.104 h -0.84 c -0.468,0.624 -1.2,1.08 -2.064,1.272 l -0.072,0.828 c 0.864,-0.084 1.584,-0.408 1.944,-0.816 l -0.816,5.82 h -1.728 l -0.096,0.696 h 4.332 c -0.06,-0.204 0,-0.444 0.036,-0.66 z"
     id="path1264" />
  <path
     d="m 796.51897,200.906 0.564,-0.624 c -0.384,-0.252 -0.984,-0.408 -1.596,-0.408 -1.68,0 -3.036,1.272 -3.288,3.132 l -0.312,2.22 c -0.228,1.68 0.612,2.76 2.208,2.76 1.548,0 2.712,-1.02 2.928,-2.58 0.216,-1.56 -0.624,-2.532 -2.184,-2.532 -0.768,0 -1.476,0.228 -1.872,0.636 l 0.072,-0.456 c 0.216,-1.428 1.176,-2.412 2.388,-2.412 0.372,0 0.828,0.096 1.092,0.264 z m -2.388,6.264 c -0.972,0 -1.536,-0.768 -1.404,-1.896 l 0.108,-0.72 c 0.408,-0.54 1.224,-0.948 1.98,-0.948 0.96,0 1.536,0.708 1.404,1.692 -0.156,1.068 -1.068,1.872 -2.088,1.872 z"
     id="path1266" />
</g>

    </g>
    <g
       transform="matrix(5.9019016,0,0,5.9019016,-4083.2352,-1648.1187)"
       id="g1044"
       style="clip-rule:evenodd;fill-rule:evenodd;stroke-linecap:round;stroke-linejoin:round;stroke-miterlimit:1.5">
        <g
   aria-label="3"
   id="text1042"
   style="font-style:italic;font-size:12px;font-family:DankMono-Italic, 'Dank Mono', monospace;fill:#ffffff">
  <path
     d="m 722.03101,340.055 0.48,0.528 c 0.288,-0.48 0.948,-0.636 1.392,-0.636 0.936,0 1.416,0.492 1.296,1.308 -0.144,0.996 -0.864,1.548 -1.992,1.548 h -0.42 l -0.108,0.696 h 0.468 c 1.176,0 1.776,0.576 1.632,1.62 -0.132,0.924 -0.756,1.416 -1.764,1.416 -0.84,0 -1.236,-0.204 -1.596,-0.912 l -0.636,0.36 c 0.336,0.888 1.008,1.32 2.1,1.32 1.572,0 2.592,-0.768 2.772,-2.1 0.132,-0.96 -0.228,-1.74 -0.876,-2.04 0.744,-0.372 1.176,-0.996 1.296,-1.8 0.192,-1.32 -0.72,-2.172 -2.028,-2.172 -0.744,0 -1.668,0.276 -2.016,0.864 z"
     id="path1304" />
</g>

    </g>
    <g
       transform="matrix(0.22001718,0,0,0.22001718,-39.394613,62.974534)"
       id="g1048"
       style="clip-rule:evenodd;fill-rule:evenodd;stroke-linecap:round;stroke-linejoin:round;stroke-miterlimit:1.5">
        <path
   d="M 1200,193.525 V 1606.48"
   style="fill:none;stroke:#ffffff;stroke-width:30.06px"
   id="path1046" />

    </g>
    <g
       transform="matrix(0.22001718,0,0,0.22001718,53.479432,68.35219)"
       id="g1052"
       style="clip-rule:evenodd;fill-rule:evenodd;stroke-linecap:round;stroke-linejoin:round;stroke-miterlimit:1.5">
        <path
   d="M 435.487,520.765 H 1964.51"
   style="fill:none;stroke:#ffffff;stroke-width:30.06px"
   id="path1050" />

    </g>
    <g
       transform="matrix(0.22001718,0,0,0.22001718,53.479432,226.33754)"
       id="g1056"
       style="clip-rule:evenodd;fill-rule:evenodd;stroke-linecap:round;stroke-linejoin:round;stroke-miterlimit:1.5">
        <path
   d="M 435.487,520.765 H 1964.51"
   style="fill:none;stroke:#ffffff;stroke-width:30.06px"
   id="path1054" />

    </g>
    <g
       transform="matrix(0.22001718,0,0,0.22001718,53.479432,146.41274)"
       id="g1060"
       style="clip-rule:evenodd;fill-rule:evenodd;stroke-linecap:round;stroke-linejoin:round;stroke-miterlimit:1.5">
        <path
   d="M 435.487,520.765 H 1964.51"
   style="fill:none;stroke:#ffffff;stroke-width:30.06px"
   id="path1058" />

    </g>
    <g
       transform="matrix(0.31998179,0,0,0.22001718,114.06293,66.213827)"
       id="g1064"
       style="clip-rule:evenodd;fill-rule:evenodd;stroke-linecap:round;stroke-linejoin:round;stroke-miterlimit:1.5">
        <rect
   x="110.103"
   y="178.80099"
   width="1051.34"
   height="1412.95"
   style="fill:none;stroke:#ffffff;stroke-width:24.09px"
   id="rect1062" />

    </g>
    <g
       transform="matrix(5.9019016,0,0,5.9019016,-4085.4312,-1881.46)"
       id="g1068"
       style="clip-rule:evenodd;fill-rule:evenodd;stroke-linecap:round;stroke-linejoin:round;stroke-miterlimit:1.5">
        <g
   aria-label="0"
   id="text1066"
   style="font-style:italic;font-size:12px;font-family:DankMono-Italic, 'Dank Mono', monospace;fill:#ffffff">
  <path
     d="m 724.08301,339.191 c -1.536,0 -2.892,1.68 -3.228,4.104 -0.324,2.268 0.576,4.008 2.172,4.008 1.56,0 2.904,-1.704 3.216,-3.924 0.336,-2.448 -0.576,-4.188 -2.16,-4.188 z m -2.244,4.188 c 0.3,-2.148 1.2,-3.54 2.232,-3.552 0.408,0 0.744,0.228 0.96,0.648 l -3.18,4.764 c -0.096,-0.516 -0.108,-1.14 -0.012,-1.86 z m 3.444,-0.084 c -0.264,1.908 -1.152,3.252 -2.232,3.252 -0.36,0 -0.66,-0.168 -0.864,-0.48 l 3.12,-4.764 c 0.084,0.54 0.084,1.212 -0.024,1.992 z"
     id="path1269" />
</g>

    </g>
    <g
       transform="matrix(5.9019016,0,0,5.9019016,-4011.0569,-1881.8225)"
       id="g1072"
       style="clip-rule:evenodd;fill-rule:evenodd;stroke-linecap:round;stroke-linejoin:round;stroke-miterlimit:1.5">
        <g
   aria-label="0x2004"
   id="text1070"
   style="font-style:italic;font-size:12px;font-family:DankMono-Italic, 'Dank Mono', monospace;fill:#ffffff">
  <path
     d="m 724.08301,339.191 c -1.536,0 -2.892,1.68 -3.228,4.104 -0.324,2.268 0.576,4.008 2.172,4.008 1.56,0 2.904,-1.704 3.216,-3.924 0.336,-2.448 -0.576,-4.188 -2.16,-4.188 z m -2.244,4.188 c 0.3,-2.148 1.2,-3.54 2.232,-3.552 0.408,0 0.744,0.228 0.96,0.648 l -3.18,4.764 c -0.096,-0.516 -0.108,-1.14 -0.012,-1.86 z m 3.444,-0.084 c -0.264,1.908 -1.152,3.252 -2.232,3.252 -0.36,0 -0.66,-0.168 -0.864,-0.48 l 3.12,-4.764 c 0.084,0.54 0.084,1.212 -0.024,1.992 z"
     id="path1245" />
  <path
     d="m 732.771,341.447 h -0.912 l -1.752,2.196 -1.128,-2.196 h -0.888 l 1.464,2.88 -2.256,2.82 h 0.936 l 1.68,-2.112 1.068,2.112 h 0.888 l -1.416,-2.784 z"
     id="path1247" />
  <path
     d="m 738.48299,340.943 c -0.24,1.632 -2.964,3.612 -4.704,5.4 l -0.096,0.804 h 5.112 l 0.108,-0.804 -3.936,0.024 c 1.728,-1.788 4.116,-3.672 4.344,-5.34 0.156,-1.104 -0.672,-1.86 -2.028,-1.86 -1.008,0 -1.812,0.42 -2.388,1.332 l 0.552,0.444 c 0.576,-0.756 1.188,-1.008 1.872,-1.008 0.84,0 1.26,0.384 1.164,1.008 z"
     id="path1249" />
  <path
     d="m 743.88298,339.191 c -1.536,0 -2.892,1.68 -3.228,4.104 -0.324,2.268 0.576,4.008 2.172,4.008 1.56,0 2.904,-1.704 3.216,-3.924 0.336,-2.448 -0.576,-4.188 -2.16,-4.188 z m -2.244,4.188 c 0.3,-2.148 1.2,-3.54 2.232,-3.552 0.408,0 0.744,0.228 0.96,0.648 l -3.18,4.764 c -0.096,-0.516 -0.108,-1.14 -0.012,-1.86 z m 3.444,-0.084 c -0.264,1.908 -1.152,3.252 -2.232,3.252 -0.36,0 -0.66,-0.168 -0.864,-0.48 l 3.12,-4.764 c 0.084,0.54 0.084,1.212 -0.024,1.992 z"
     id="path1251" />
  <path
     d="m 750.48297,339.191 c -1.536,0 -2.892,1.68 -3.228,4.104 -0.324,2.268 0.576,4.008 2.172,4.008 1.56,0 2.904,-1.704 3.216,-3.924 0.336,-2.448 -0.576,-4.188 -2.16,-4.188 z m -2.244,4.188 c 0.3,-2.148 1.2,-3.54 2.232,-3.552 0.408,0 0.744,0.228 0.96,0.648 l -3.18,4.764 c -0.096,-0.516 -0.108,-1.14 -0.012,-1.86 z m 3.444,-0.084 c -0.264,1.908 -1.152,3.252 -2.232,3.252 -0.36,0 -0.66,-0.168 -0.864,-0.48 l 3.12,-4.764 c 0.084,0.54 0.084,1.212 -0.024,1.992 z"
     id="path1253" />
  <path
     d="m 758.71496,344.159 h -1.092 l 0.108,-0.78 c 0.036,-0.216 0.096,-0.456 0.156,-0.648 h -0.912 l -0.204,1.428 h -1.752 l 3.18,-4.812 h -0.912 l -3.18,4.812 -0.108,0.804 h 2.664 l -0.312,2.184 h 0.852 l 0.312,-2.184 h 1.092 z"
     id="path1255" />
</g>

    </g>
    <g
       transform="matrix(5.9019016,0,0,5.9019016,-4011.0569,-1803.5879)"
       id="g1076"
       style="clip-rule:evenodd;fill-rule:evenodd;stroke-linecap:round;stroke-linejoin:round;stroke-miterlimit:1.5">
        <g
   aria-label="0xFFFF"
   id="text1074"
   style="font-style:italic;font-size:12px;font-family:DankMono-Italic, 'Dank Mono', monospace;fill:#ffffff">
  <path
     d="m 724.08301,339.191 c -1.536,0 -2.892,1.68 -3.228,4.104 -0.324,2.268 0.576,4.008 2.172,4.008 1.56,0 2.904,-1.704 3.216,-3.924 0.336,-2.448 -0.576,-4.188 -2.16,-4.188 z m -2.244,4.188 c 0.3,-2.148 1.2,-3.54 2.232,-3.552 0.408,0 0.744,0.228 0.96,0.648 l -3.18,4.764 c -0.096,-0.516 -0.108,-1.14 -0.012,-1.86 z m 3.444,-0.084 c -0.264,1.908 -1.152,3.252 -2.232,3.252 -0.36,0 -0.66,-0.168 -0.864,-0.48 l 3.12,-4.764 c 0.084,0.54 0.084,1.212 -0.024,1.992 z"
     id="path1275" />
  <path
     d="m 732.771,341.447 h -0.912 l -1.752,2.196 -1.128,-2.196 h -0.888 l 1.464,2.88 -2.256,2.82 h 0.936 l 1.68,-2.112 1.068,2.112 h 0.888 l -1.416,-2.784 z"
     id="path1277" />
  <path
     d="m 738.33899,344.027 0.156,-0.852 h -2.904 l 0.588,-2.976 h 3.492 l 0.168,-0.852 h -4.356 l -1.512,7.8 h 0.864 l 0.6,-3.12 z"
     id="path1279" />
  <path
     d="m 744.93898,344.027 0.156,-0.852 h -2.904 l 0.588,-2.976 h 3.492 l 0.168,-0.852 h -4.356 l -1.512,7.8 h 0.864 l 0.6,-3.12 z"
     id="path1281" />
  <path
     d="m 751.53897,344.027 0.156,-0.852 h -2.904 l 0.588,-2.976 h 3.492 l 0.168,-0.852 h -4.356 l -1.512,7.8 h 0.864 l 0.6,-3.12 z"
     id="path1283" />
  <path
     d="m 758.13896,344.027 0.156,-0.852 h -2.904 l 0.588,-2.976 h 3.492 l 0.168,-0.852 h -4.356 l -1.512,7.8 h 0.864 l 0.6,-3.12 z"
     id="path1285" />
</g>

    </g>
    <g
       transform="matrix(5.9019016,0,0,5.9019016,-4011.0569,-1725.5702)"
       id="g1080"
       style="clip-rule:evenodd;fill-rule:evenodd;stroke-linecap:round;stroke-linejoin:round;stroke-miterlimit:1.5">
        <g
   aria-label="0x0003"
   id="text1078"
   style="font-style:italic;font-size:12px;font-family:DankMono-Italic, 'Dank Mono', monospace;fill:#ffffff">
  <path
     d="m 724.08301,339.191 c -1.536,0 -2.892,1.68 -3.228,4.104 -0.324,2.268 0.576,4.008 2.172,4.008 1.56,0 2.904,-1.704 3.216,-3.924 0.336,-2.448 -0.576,-4.188 -2.16,-4.188 z m -2.244,4.188 c 0.3,-2.148 1.2,-3.54 2.232,-3.552 0.408,0 0.744,0.228 0.96,0.648 l -3.18,4.764 c -0.096,-0.516 -0.108,-1.14 -0.012,-1.86 z m 3.444,-0.084 c -0.264,1.908 -1.152,3.252 -2.232,3.252 -0.36,0 -0.66,-0.168 -0.864,-0.48 l 3.12,-4.764 c 0.084,0.54 0.084,1.212 -0.024,1.992 z"
     id="path1291" />
  <path
     d="m 732.771,341.447 h -0.912 l -1.752,2.196 -1.128,-2.196 h -0.888 l 1.464,2.88 -2.256,2.82 h 0.936 l 1.68,-2.112 1.068,2.112 h 0.888 l -1.416,-2.784 z"
     id="path1293" />
  <path
     d="m 737.28299,339.191 c -1.536,0 -2.892,1.68 -3.228,4.104 -0.324,2.268 0.576,4.008 2.172,4.008 1.56,0 2.904,-1.704 3.216,-3.924 0.336,-2.448 -0.576,-4.188 -2.16,-4.188 z m -2.244,4.188 c 0.3,-2.148 1.2,-3.54 2.232,-3.552 0.408,0 0.744,0.228 0.96,0.648 l -3.18,4.764 c -0.096,-0.516 -0.108,-1.14 -0.012,-1.86 z m 3.444,-0.084 c -0.264,1.908 -1.152,3.252 -2.232,3.252 -0.36,0 -0.66,-0.168 -0.864,-0.48 l 3.12,-4.764 c 0.084,0.54 0.084,1.212 -0.024,1.992 z"
     id="path1295" />
  <path
     d="m 743.88298,339.191 c -1.536,0 -2.892,1.68 -3.228,4.104 -0.324,2.268 0.576,4.008 2.172,4.008 1.56,0 2.904,-1.704 3.216,-3.924 0.336,-2.448 -0.576,-4.188 -2.16,-4.188 z m -2.244,4.188 c 0.3,-2.148 1.2,-3.54 2.232,-3.552 0.408,0 0.744,0.228 0.96,0.648 l -3.18,4.764 c -0.096,-0.516 -0.108,-1.14 -0.012,-1.86 z m 3.444,-0.084 c -0.264,1.908 -1.152,3.252 -2.232,3.252 -0.36,0 -0.66,-0.168 -0.864,-0.48 l 3.12,-4.764 c 0.084,0.54 0.084,1.212 -0.024,1.992 z"
     id="path1297" />
  <path
     d="m 750.48297,339.191 c -1.536,0 -2.892,1.68 -3.228,4.104 -0.324,2.268 0.576,4.008 2.172,4.008 1.56,0 2.904,-1.704 3.216,-3.924 0.336,-2.448 -0.576,-4.188 -2.16,-4.188 z m -2.244,4.188 c 0.3,-2.148 1.2,-3.54 2.232,-3.552 0.408,0 0.744,0.228 0.96,0.648 l -3.18,4.764 c -0.096,-0.516 -0.108,-1.14 -0.012,-1.86 z m 3.444,-0.084 c -0.264,1.908 -1.152,3.252 -2.232,3.252 -0.36,0 -0.66,-0.168 -0.864,-0.48 l 3.12,-4.764 c 0.084,0.54 0.084,1.212 -0.024,1.992 z"
     id="path1299" />
  <path
     d="m 755.03096,340.055 0.48,0.528 c 0.288,-0.48 0.948,-0.636 1.392,-0.636 0.936,0 1.416,0.492 1.296,1.308 -0.144,0.996 -0.864,1.548 -1.992,1.548 h -0.42 l -0.108,0.696 h 0.468 c 1.176,0 1.776,0.576 1.632,1.62 -0.132,0.924 -0.756,1.416 -1.764,1.416 -0.84,0 -1.236,-0.204 -1.596,-0.912 l -0.636,0.36 c 0.336,0.888 1.008,1.32 2.1,1.32 1.572,0 2.592,-0.768 2.772,-2.1 0.132,-0.96 -0.228,-1.74 -0.876,-2.04 0.744,-0.372 1.176,-0.996 1.296,-1.8 0.192,-1.32 -0.72,-2.172 -2.028,-2.172 -0.744,0 -1.668,0.276 -2.016,0.864 z"
     id="path1301" />
</g>

    </g>
    <g
       transform="matrix(5.9019016,0,0,5.9019016,-4011.0569,-1648.1187)"
       id="g1084"
       style="clip-rule:evenodd;fill-rule:evenodd;stroke-linecap:round;stroke-linejoin:round;stroke-miterlimit:1.5">
        <g
   aria-label="0xFFFF"
   id="text1082"
   style="font-style:italic;font-size:12px;font-family:DankMono-Italic, 'Dank Mono', monospace;fill:#ffffff">
  <path
     d="m 724.08301,339.191 c -1.536,0 -2.892,1.68 -3.228,4.104 -0.324,2.268 0.576,4.008 2.172,4.008 1.56,0 2.904,-1.704 3.216,-3.924 0.336,-2.448 -0.576,-4.188 -2.16,-4.188 z m -2.244,4.188 c 0.3,-2.148 1.2,-3.54 2.232,-3.552 0.408,0 0.744,0.228 0.96,0.648 l -3.18,4.764 c -0.096,-0.516 -0.108,-1.14 -0.012,-1.86 z m 3.444,-0.084 c -0.264,1.908 -1.152,3.252 -2.232,3.252 -0.36,0 -0.66,-0.168 -0.864,-0.48 l 3.12,-4.764 c 0.084,0.54 0.084,1.212 -0.024,1.992 z"
     id="path1307" />
  <path
     d="m 732.771,341.447 h -0.912 l -1.752,2.196 -1.128,-2.196 h -0.888 l 1.464,2.88 -2.256,2.82 h 0.936 l 1.68,-2.112 1.068,2.112 h 0.888 l -1.416,-2.784 z"
     id="path1309" />
  <path
     d="m 738.33899,344.027 0.156,-0.852 h -2.904 l 0.588,-2.976 h 3.492 l 0.168,-0.852 h -4.356 l -1.512,7.8 h 0.864 l 0.6,-3.12 z"
     id="path1311" />
  <path
     d="m 744.93898,344.027 0.156,-0.852 h -2.904 l 0.588,-2.976 h 3.492 l 0.168,-0.852 h -4.356 l -1.512,7.8 h 0.864 l 0.6,-3.12 z"
     id="path1313" />
  <path
     d="m 751.53897,344.027 0.156,-0.852 h -2.904 l 0.588,-2.976 h 3.492 l 0.168,-0.852 h -4.356 l -1.512,7.8 h 0.864 l 0.6,-3.12 z"
     id="path1315" />
  <path
     d="m 758.13896,344.027 0.156,-0.852 h -2.904 l 0.588,-2.976 h 3.492 l 0.168,-0.852 h -4.356 l -1.512,7.8 h 0.864 l 0.6,-3.12 z"
     id="path1317" />
</g>

    </g>
    <g
       transform="matrix(5.9019016,0,0,5.9019016,-4083.6056,-1805.0404)"
       id="g1088"
       style="clip-rule:evenodd;fill-rule:evenodd;stroke-linecap:round;stroke-linejoin:round;stroke-miterlimit:1.5">
        <g
   aria-label="1"
   id="text1086"
   style="font-style:italic;font-size:12px;font-family:DankMono-Italic, 'Dank Mono', monospace;fill:#ffffff">
  <path
     d="m 725.43901,346.451 h -1.704 l 0.996,-7.104 h -0.84 c -0.468,0.624 -1.2,1.08 -2.064,1.272 l -0.072,0.828 c 0.864,-0.084 1.584,-0.408 1.944,-0.816 l -0.816,5.82 h -1.728 l -0.096,0.696 h 4.332 c -0.06,-0.204 0,-0.444 0.036,-0.66 z"
     id="path1272" />
</g>

    </g>
    <g
       transform="matrix(5.9019016,0,0,5.9019016,-4082.4414,-1724.8293)"
       id="g1092"
       style="clip-rule:evenodd;fill-rule:evenodd;stroke-linecap:round;stroke-linejoin:round;stroke-miterlimit:1.5">
        <g
   aria-label="2"
   id="text1090"
   style="font-style:italic;font-size:12px;font-family:DankMono-Italic, 'Dank Mono', monospace;fill:#ffffff">
  <path
     d="m 725.28301,340.943 c -0.24,1.632 -2.964,3.612 -4.704,5.4 l -0.096,0.804 h 5.112 l 0.108,-0.804 -3.936,0.024 c 1.728,-1.788 4.116,-3.672 4.344,-5.34 0.156,-1.104 -0.672,-1.86 -2.028,-1.86 -1.008,0 -1.812,0.42 -2.388,1.332 l 0.552,0.444 c 0.576,-0.756 1.188,-1.008 1.872,-1.008 0.84,0 1.26,0.384 1.164,1.008 z"
     id="path1288" />
</g>

    </g>
  </g>
</svg>
