<svg xmlns="http://www.w3.org/2000/svg" id="Layer_1" data-name="Layer 1" version="1.1" viewBox="0 0 2400 1600"><defs id="defs217"><radialGradient id="_Radial1" cx="0" cy="0" r="1" gradientTransform="translate(19.868 .84)scale(23.5347)" gradientUnits="userSpaceOnUse"><stop id="stop138" offset="0" style="stop-color:#e44857;stop-opacity:1"/><stop id="stop140" offset="0" style="stop-color:#e44857;stop-opacity:1"/><stop id="stop142" offset=".47" style="stop-color:#c711e1;stop-opacity:1"/><stop id="stop144" offset="1" style="stop-color:#7f52ff;stop-opacity:1"/></radialGradient><style id="style215">.cls-2{fill:#f44336}.cls-3{fill:#1565c0}</style></defs><path id="rect219" d="M0 0h1196.731v1600H0z" style="fill:#86b1ce;stroke-width:.706143"/><g id="surface1" transform="translate(-241.777 239.899)scale(.70013)"><path id="path221" d="M1191.21 822.46c-24.9-40.23-43-73.63-68.07-136.42C1080.76 580 1381 484.18 1259.28 300c52.73 127.25-189.46 205.86-211.92 311.82-20.6 97.46 143.75 210.64 143.85 210.64" class="cls-2"/><path id="path223" d="M1197 631.74c-4.78 62.89 55.67 96.48 57.42 142.38 1.47 37.4-36.13 68.56-36.13 68.56s68.17-13.38 89.45-70.41c23.64-63.38-45.8-106.74-38.67-157.43 6.64-48.53 150.78-138.57 150.78-138.57S1207.81 490.23 1197 631.74" class="cls-2"/><path id="path225" d="M1402.15 826.37c43.85-9.87 80.76 18.06 80.76 50.29 0 72.46-100.49 141-100.49 141S1538 999.12 1538 880.08c0-78.71-76.38-98.44-135.85-53.71" class="cls-3"/><path id="path227" d="M1328.22 884.86s48.54-34.57 61.43-47.56c-119 25.3-390.92 28.72-390.92 6.74 0-20.21 87.7-40.91 87.7-40.91s-194.34-2.84-194.34 54.49c0 59.76 254.39 64.06 436.13 27.24" class="cls-3"/><path id="path229" d="M1298.34 939.26c-112.7 37.5-320.31 25.49-258.79-24.81-30 0-74.41 24-74.41 47.27 0 46.39 224.61 82.23 390.82 14.26z" class="cls-3"/><path id="path231" d="M1067.19 1018.46c-40.92 0-67.39 26.36-67.39 45.6 0 59.77 244 65.73 340.63 5.08l-61.43-40.82c-72.26 31.74-253.61 36.13-211.81-9.86" class="cls-3"/><path id="path233" d="M1507 1115.82c0-23.44-26.37-34.47-35.84-39.75 55.67 134.38-557.91 123.93-557.91 44.63 0-18.06 45.22-35.64 86.92-27.34l-35.45-21c-83.21-13-139.75 23.54-139.75 53C825 1263 1507 1256.35 1507 1115.82" class="cls-3"/><path id="path235" d="M1575 1165.14c-103.61 102.34-366.5 139.65-630.76 76.36 264.26 112.6 629.49 49.22 630.76-76.36" class="cls-3"/></g><path id="rect132" d="M1196.731 0H2400v1600H1196.731z" style="clip-rule:evenodd;fill:#aa87de;fill-rule:evenodd;stroke-width:.708069;stroke-linejoin:round;stroke-miterlimit:2"/><g id="g136" style="clip-rule:evenodd;fill-rule:evenodd;stroke-linejoin:round;stroke-miterlimit:2" transform="translate(1472.346 474.155)scale(31.72324)"><path id="path134" d="M20.554 20.543H0V0h20.554L10.065 10.119Z" style="fill:url(#_Radial1);fill-rule:nonzero"/></g></svg>