<svg xmlns="http://www.w3.org/2000/svg" data-name="Layer 1" viewBox="0 0 2400 1600"><path d="M0 0h2400v1600H0z" style="fill:#0b1728"/><path d="M1194.09 300a682.6 682.6 0 0 0-114 9.74c-100.94 17.84-119.28 55.16-119.28 124v90.92h238.56V555h-328c-69.34 0-130 41.68-149 121-22 90.86-22.88 147.57 0 242.45 17 70.62 57.46 120.94 126.78 120.94h82v-109c0-78.76 68.12-148.19 149-148.19h238.23c66.34 0 119.28-54.62 119.28-121.24V433.77c0-64.66-54.54-113.22-119.28-124a745.4 745.4 0 0 0-124.29-9.77m-129 73.14a45.46 45.46 0 1 1-44.78 46.13v-.53a45.26 45.26 0 0 1 44.76-45.59Z" style="fill:#5a9fd4"/><path d="M1467.4 555v106c0 82.14-69.64 151.25-149 151.25h-238.33c-65.26 0-119.28 55.86-119.28 121.24v227.1c0 64.66 56.22 102.68 119.28 121.24 75.52 22.2 148 26.2 238.29 0 60-17.4 119.28-52.4 119.28-121.24v-90.92h-238.27v-30.32h357.55c69.34 0 95.18-48.36 119.3-120.94 24.9-74.74 23.84-146.59 0-242.45-17.14-69-49.86-121-119.3-121Zm-134 575.29a45.46 45.46 0 1 1-44.77 46.14v-.82a45 45 0 0 1 44.72-45.32h.06Z" style="fill:#ffe873"/></svg>