<svg xmlns="http://www.w3.org/2000/svg" data-name="Layer 1" viewBox="0 0 2400 1600"><path d="M0 0h2400v1600H0z" style="fill:#c95757"/><path d="m1693.15 787.73-42-26q-.53-6.13-1.19-12.23l36.07-33.65a14.46 14.46 0 0 0-4.78-24.11l-46.12-17.24c-1.16-4-2.37-8-3.61-11.91l28.77-40a14.45 14.45 0 0 0-9.39-22.59l-48.63-8c-1.89-3.69-3.86-7.32-5.84-10.92l20.43-44.86a14.44 14.44 0 0 0-13.64-20.44l-49.36 1.72q-3.83-4.78-7.79-9.46l11.34-48.04a14.46 14.46 0 0 0-17.41-17.38L1492 454q-4.67-4-9.47-7.79l1.72-49.36a14.44 14.44 0 0 0-20.42-13.65l-44.85 20.44c-3.62-2-7.25-3.95-10.92-5.85l-7.93-48.64a14.45 14.45 0 0 0-22.7-9.41l-40 28.77a455 455 0 0 0-11.89-3.6l-17.24-46.13a14.44 14.44 0 0 0-24.1-4.8L1250.53 350c-4.06-.45-8.15-.86-12.23-1.19l-26-42a14.45 14.45 0 0 0-24.57 0l-26 42c-4.08.33-8.17.74-12.23 1.19l-33.66-36.1a14.44 14.44 0 0 0-24.1 4.8l-17.24 46.13c-4 1.15-8 2.36-11.9 3.6l-40-28.77a14.45 14.45 0 0 0-22.6 9.44l-8 48.64c-3.67 1.9-7.3 3.85-10.92 5.85l-44.85-20.44a14.44 14.44 0 0 0-20.43 13.65l1.72 49.36q-4.78 3.82-9.47 7.79L860 442.62A14.46 14.46 0 0 0 842.61 460l11.32 48.07q-3.95 4.68-7.77 9.46l-49.36-1.72a14.45 14.45 0 0 0-13.65 20.44l20.44 44.86c-2 3.6-4 7.23-5.86 10.92L749.1 600a14.46 14.46 0 0 0-9.4 22.71l28.77 40c-1.25 3.95-2.46 7.91-3.61 11.91l-46.13 17.24a14.46 14.46 0 0 0-4.73 24.01l36 33.65c-.45 4.06-.85 8.15-1.19 12.23l-42 26a14.45 14.45 0 0 0 0 24.57l42 26q.51 6.13 1.19 12.23l-36 33.62a14.45 14.45 0 0 0 4.78 24.1l46.13 17.24c1.15 4 2.36 8 3.61 11.91l-28.77 40a14.45 14.45 0 0 0 9.41 22.7l48.62 7.91c1.91 3.69 3.86 7.32 5.86 10.94l-20.44 44.84a14.45 14.45 0 0 0 13.65 20.44l49.34-1.73c2.57 3.21 5.16 6.35 7.79 9.47L842.61 1140a14.44 14.44 0 0 0 17.39 17.39l48.07-11.32c3.12 2.65 6.28 5.23 9.47 7.78l-1.72 49.36a14.42 14.42 0 0 0 20.43 13.64l44.85-20.43c3.61 2 7.24 3.95 10.92 5.85l7.93 48.62a14.46 14.46 0 0 0 22.71 9.42l39.95-28.79c4 1.25 7.91 2.47 11.91 3.62l17.24 46.11a14.46 14.46 0 0 0 24.1 4.79l33.66-36.09c4.06.47 8.15.86 12.24 1.22l26 42a14.45 14.45 0 0 0 24.57 0l26-42c4.09-.36 8.17-.75 12.23-1.22l33.65 36.09a14.46 14.46 0 0 0 24.1-4.79l17.24-46.11c4-1.15 8-2.37 11.91-3.62l40 28.79a14.46 14.46 0 0 0 22.7-9.42l7.93-48.62c3.67-1.9 7.3-3.87 10.92-5.85l44.85 20.43a14.43 14.43 0 0 0 20.43-13.64l-1.72-49.36c3.19-2.56 6.35-5.13 9.46-7.78l48.07 11.32a14.44 14.44 0 0 0 17.3-17.39l-11.32-48c2.63-3.12 5.23-6.26 7.77-9.47l49.36 1.73a14.44 14.44 0 0 0 13.64-20.44l-20.43-44.84c2-3.62 3.95-7.25 5.85-10.94l48.63-7.91a14.45 14.45 0 0 0 9.4-22.7l-28.77-40c1.24-3.95 2.45-7.91 3.61-11.91l46.12-17.24a14.45 14.45 0 0 0 4.78-24.1L1650 850.51c.44-4.06.84-8.15 1.19-12.23l42-26a14.46 14.46 0 0 0 0-24.57Zm-281 348.26a29.74 29.74 0 1 1 35.26-22.85 29.75 29.75 0 0 1-35.23 22.86Zm-14.27-96.48a27.07 27.07 0 0 0-32.15 20.83l-14.9 69.55a366.52 366.52 0 0 1-304.88-1.46l-14.9-69.55a27.06 27.06 0 0 0-32.14-20.82l-61.4 13.18a365 365 0 0 1-31.75-37.42h298.78c3.38 0 5.63-.61 5.63-3.69V904.45c0-3.08-2.25-3.69-5.63-3.69h-87.38v-67h94.5c8.63 0 46.13 2.47 58.12 50.4 3.76 14.74 12 62.7 17.64 78.05 5.62 17.22 28.49 51.61 52.86 51.61h148.88a31 31 0 0 0 5.4-.53 367.5 367.5 0 0 1-33.86 39.72zm-413.23 95a29.75 29.75 0 1 1 22.8-35.32 29.68 29.68 0 0 1-22.77 35.35ZM871.34 674.94a29.7 29.7 0 1 1-39.18-15.14 29.74 29.74 0 0 1 39.18 15.14m-34.83 82.57 64-28.42a27.13 27.13 0 0 0 13.77-35.77l-13.18-29.79h51.81v233.54H848.34a368 368 0 0 1-11.83-139.56m280.69-22.68V666h123.39c6.37 0 45 7.37 45 36.25 0 24-29.63 32.58-54 32.58zm448.4 62q0 13.69-1 27.14h-37.51c-3.75 0-5.26 2.47-5.26 6.15v17.18c0 40.55-22.86 49.37-42.9 51.61-19.08 2.15-40.23-8-42.84-19.66-11.25-63.3-30-76.82-59.63-100.18 36.76-23.34 75-57.78 75-103.87 0-49.76-34.11-81.11-57.37-96.48-32.63-21.51-68.75-25.82-78.49-25.82H927.66a365.12 365.12 0 0 1 204.53-115.43l45.73 48a27 27 0 0 0 38.27.88l51.17-48.94c107.2 20 198 86.7 250.27 178.26l-35 79.1a27.14 27.14 0 0 0 13.78 35.77l67.43 30q1.76 18 1.78 36.32Zm-387.66-400.16a29.71 29.71 0 1 1-1 42 29.65 29.65 0 0 1 1-42m347.58 279.71a29.69 29.69 0 1 1 15.09 39.25 29.66 29.66 0 0 1-15.09-39.25" style="fill:#681f1f"/></svg>