<?xml version="1.0" encoding="UTF-8" standalone="no"?>
<svg
   id="Layer_1"
   data-name="Layer 1"
   viewBox="0 0 2400 1600"
   version="1.1"
   sodipodi:docname="cpp.svg"
   inkscape:version="1.2.2 (b0a8486541, 2022-12-01, custom)"
   xmlns:inkscape="http://www.inkscape.org/namespaces/inkscape"
   xmlns:sodipodi="http://sodipodi.sourceforge.net/DTD/sodipodi-0.dtd"
   xmlns="http://www.w3.org/2000/svg"
   xmlns:svg="http://www.w3.org/2000/svg">
  <sodipodi:namedview
     id="namedview362"
     pagecolor="#ffffff"
     bordercolor="#000000"
     borderopacity="0.25"
     inkscape:showpageshadow="2"
     inkscape:pageopacity="0.0"
     inkscape:pagecheckerboard="0"
     inkscape:deskcolor="#d1d1d1"
     showgrid="false"
     inkscape:zoom="0.27291667"
     inkscape:cx="1194.5038"
     inkscape:cy="287.63359"
     inkscape:window-width="2048"
     inkscape:window-height="1088"
     inkscape:window-x="0"
     inkscape:window-y="27"
     inkscape:window-maximized="1"
     inkscape:current-layer="Layer_1" />
  <defs
     id="defs340">
    <style
       id="style338">.cls-1{fill:#3dabe2;}.cls-2{fill:#00549d;}.cls-2,.cls-3,.cls-4,.cls-5{fill-rule:evenodd;}.cls-3{fill:#0086d4;}.cls-4{fill:#fff;}.cls-5{fill:#0075c0;}</style>
  </defs>
  <rect
     class="cls-1"
     width="1209.67"
     height="1600"
     id="rect342"
     x="1190.33"
     y="0"
     style="stroke-width:0.70995" />
  <g
     id="surface1"
     transform="matrix(0.82891247,0,0,0.82891247,800.47001,136.85816)">
    <path
       class="cls-2"
       d="m 1173.86,306.77 a 53.87,53.87 0 0 1 52.27,0 c 79.81,44.83 320.24,179.79 400.13,224.62 a 50.57,50.57 0 0 1 26.14,44 v 449.24 a 50.57,50.57 0 0 1 -26.14,44 c -79.89,44.83 -320.23,179.79 -400.13,224.62 a 53.81,53.81 0 0 1 -52.27,0 c -79.89,-44.83 -320.23,-179.79 -400.13,-224.62 a 50.58,50.58 0 0 1 -26.13,-44 V 575.38 a 50.58,50.58 0 0 1 26.13,-44 c 79.81,-44.82 320.33,-179.78 400.13,-224.61 z"
       id="path344" />
    <path
       class="cls-3"
       d="m 754.85,1047.69 c -6.32,-8.47 -7.25,-16.47 -7.25,-27.35 V 573.71 a 50.25,50.25 0 0 1 26,-43.72 c 79.62,-44.55 319.21,-178.76 398.83,-223.32 16.09,-9 38,-8.83 54,0.19 79.61,44.55 318.37,177.56 398,222.11 a 49.93,49.93 0 0 1 15.72,13.76 z"
       id="path346" />
    <path
       class="cls-4"
       d="m 1200,466.65 c 184,0 333.35,149.38 333.35,333.35 0,183.97 -149.35,333.35 -333.35,333.35 C 1016,1133.35 866.65,984 866.65,800 866.65,616 1016,466.65 1200,466.65 Z m 0,166.68 c 92,0 166.67,74.68 166.67,166.67 0,91.99 -74.67,166.67 -166.67,166.67 -92,0 -166.68,-74.67 -166.68,-166.67 0,-92 74.68,-166.67 166.68,-166.67 z"
       id="path348" />
    <path
       class="cls-5"
       d="m 1640.12,542.92 c 12.28,11.53 12.09,28.83 12.09,42.51 0,90.4 -0.74,347.39 0.19,437.7 a 51.85,51.85 0 0 1 -7.72,26.88 L 1190.33,800 Z"
       id="path350" />
    <path
       class="cls-4"
       d="m 1366.67,728.57 h 47.62 v 142.86 h -47.62 z"
       id="path352" />
    <path
       class="cls-4"
       d="M 1533.35,728.57 H 1581 v 142.86 h -47.62 z"
       id="path354" />
    <path
       class="cls-4"
       d="m 1319.05,776.19 h 142.87 v 47.62 h -142.87 z"
       id="path356" />
    <path
       class="cls-4"
       d="m 1485.73,776.19 h 142.86 v 47.62 h -142.86 z"
       id="path358" />
  </g>
  <rect
     class="cls-1"
     width="1200"
     height="1600"
     id="rect384"
     style="fill:#8394c6;stroke-width:0.707107"
     x="0"
     y="0" />
  <g
     id="surface1-3"
     transform="matrix(0.82891247,0,0,0.82891247,-394.69496,136.85816)">
    <path
       class="cls-2"
       d="m 1173.86,306.77 a 53.87,53.87 0 0 1 52.27,0 c 79.81,44.83 320.24,179.79 400.13,224.62 a 50.57,50.57 0 0 1 26.14,44 v 449.24 a 50.57,50.57 0 0 1 -26.14,44 c -79.89,44.83 -320.23,179.79 -400.13,224.62 a 53.81,53.81 0 0 1 -52.27,0 c -79.89,-44.83 -320.23,-179.79 -400.13,-224.62 a 50.58,50.58 0 0 1 -26.13,-44 V 575.38 a 50.58,50.58 0 0 1 26.13,-44 c 79.81,-44.82 320.33,-179.78 400.13,-224.61 z"
       id="path386"
       style="fill:#283593;fill-rule:evenodd" />
    <path
       class="cls-3"
       d="m 754.85,1047.69 c -6.32,-8.47 -7.25,-16.47 -7.25,-27.35 V 573.71 a 50.25,50.25 0 0 1 26,-43.72 c 79.62,-44.55 319.21,-178.76 398.83,-223.32 16.09,-9 38,-8.83 54,0.19 79.61,44.55 318.37,177.56 398,222.11 a 49.93,49.93 0 0 1 15.72,13.76 z"
       id="path388"
       style="fill:#5c6bc0;fill-rule:evenodd" />
    <path
       class="cls-4"
       d="m 1200,466.65 c 184,0 333.35,149.38 333.35,333.35 0,183.97 -149.35,333.35 -333.35,333.35 C 1016,1133.35 866.65,984 866.65,800 866.65,616 1016,466.65 1200,466.65 Z m 0,166.68 c 92,0 166.67,74.68 166.67,166.67 0,91.99 -74.67,166.67 -166.67,166.67 -92,0 -166.68,-74.67 -166.68,-166.67 0,-92 74.68,-166.67 166.68,-166.67 z"
       id="path390"
       style="fill:#ffffff;fill-rule:evenodd" />
    <path
       class="cls-5"
       d="m 1640.12,542.92 c 12.28,11.53 12.09,28.83 12.09,42.51 0,90.4 -0.74,347.39 0.19,437.7 a 51.85,51.85 0 0 1 -7.72,26.88 L 1190.33,800 Z"
       id="path392"
       style="fill:#3949ab;fill-rule:evenodd" />
  </g>
</svg>
