<svg id="Layer_1" data-name="Layer 1" xmlns="http://www.w3.org/2000/svg" viewBox="0 0 2400 1600"><defs><style>.cls-1{fill:#86b1ce;}.cls-2{fill:#f44336;}.cls-3{fill:#1565c0;}</style></defs><rect class="cls-1" width="2400" height="1600"/><g id="surface1"><path class="cls-2" d="M1191.21,822.46c-24.9-40.23-43-73.63-68.07-136.42C1080.76,580,1381,484.18,1259.28,300c52.73,127.25-189.46,205.86-211.92,311.82C1026.76,709.28,1191.11,822.46,1191.21,822.46Z"/><path class="cls-2" d="M1197,631.74c-4.78,62.89,55.67,96.48,57.42,142.38,1.47,37.4-36.13,68.56-36.13,68.56s68.17-13.38,89.45-70.41c23.64-63.38-45.8-106.74-38.67-157.43,6.64-48.53,150.78-138.57,150.78-138.57S1207.81,490.23,1197,631.74Z"/><path class="cls-3" d="M1402.15,826.37c43.85-9.87,80.76,18.06,80.76,50.29,0,72.46-100.49,141-100.49,141S1538,999.12,1538,880.08C1538,801.37,1461.62,781.64,1402.15,826.37Z"/><path class="cls-3" d="M1328.22,884.86s48.54-34.57,61.43-47.56c-119,25.3-390.92,28.72-390.92,6.74,0-20.21,87.7-40.91,87.7-40.91s-194.34-2.84-194.34,54.49C892.09,917.38,1146.48,921.68,1328.22,884.86Z"/><path class="cls-3" d="M1298.34,939.26c-112.7,37.5-320.31,25.49-258.79-24.81-30,0-74.41,24-74.41,47.27,0,46.39,224.61,82.23,390.82,14.26Z"/><path class="cls-3" d="M1067.19,1018.46c-40.92,0-67.39,26.36-67.39,45.6,0,59.77,244,65.73,340.63,5.08L1279,1028.32C1206.74,1060.06,1025.39,1064.45,1067.19,1018.46Z"/><path class="cls-3" d="M1507,1115.82c0-23.44-26.37-34.47-35.84-39.75,55.67,134.38-557.91,123.93-557.91,44.63,0-18.06,45.22-35.64,86.92-27.34l-35.45-21c-83.21-13-139.75,23.54-139.75,53C825,1263,1507,1256.35,1507,1115.82Z"/><path class="cls-3" d="M1575,1165.14c-103.61,102.34-366.5,139.65-630.76,76.36C1208.5,1354.1,1573.73,1290.72,1575,1165.14Z"/></g></svg>