<svg xmlns="http://www.w3.org/2000/svg" xml:space="preserve" style="fill-rule:evenodd;clip-rule:evenodd;stroke-linejoin:round;stroke-miterlimit:2" viewBox="0 0 1200 900"><path d="M0 0h1200v900H0z" style="fill:#152c15"/><path d="M495.854 1039.26v135.39l-137.93-137.92v-135.4z" style="fill:#00701a" transform="translate(60.806 -528.541)scale(1.08727)"/><path d="m495.854 1039.26 138.055-137.931v135.401l-138.055 137.92z" style="fill:#004300" transform="translate(60.806 -528.541)scale(1.08727)"/><path d="M357.925 901.33v135.4L219.996 898.67V763.274zm413.913-138.056V898.67l-137.929 138.06v-135.4z" style="fill:#43a047" transform="translate(60.806 -528.541)scale(1.08727)"/><path d="m495.854 1039.26-137.93-137.931 137.93-138.055L633.909 901.33z" style="fill:#43a047" transform="translate(60.806 -528.541)scale(1.08727)"/><path d="M357.925 901.33 219.996 763.274l137.929-137.928 137.929 137.928z" style="fill:#76d275" transform="translate(60.806 -528.541)scale(1.08727)"/><path d="M633.91 901.33 495.853 763.274l138.055-137.928 137.929 137.928z" style="fill:#76d275" transform="translate(60.806 -528.541)scale(1.08727)"/></svg>