<svg xmlns="http://www.w3.org/2000/svg" id="Layer_1" data-name="Layer 1" version="1.1" viewBox="0 0 2400 1600"><defs id="defs340"><style id="style338">.cls-1{fill:#3dabe2}.cls-2{fill:#00549d}.cls-2,.cls-3,.cls-4,.cls-5{fill-rule:evenodd}.cls-3{fill:#0086d4}.cls-4{fill:#fff}.cls-5{fill:#0075c0}</style></defs><path id="rect342" d="M1190.33 0H2400v1600H1190.33z" class="cls-1" style="stroke-width:.70995"/><g id="surface1" transform="translate(800.47 136.858)scale(.82891)"><path id="path344" d="M1173.86 306.77a53.87 53.87 0 0 1 52.27 0c79.81 44.83 320.24 179.79 400.13 224.62a50.57 50.57 0 0 1 26.14 44v449.24a50.57 50.57 0 0 1-26.14 44c-79.89 44.83-320.23 179.79-400.13 224.62a53.81 53.81 0 0 1-52.27 0c-79.89-44.83-320.23-179.79-400.13-224.62a50.58 50.58 0 0 1-26.13-44V575.38a50.58 50.58 0 0 1 26.13-44c79.81-44.82 320.33-179.78 400.13-224.61" class="cls-2"/><path id="path346" d="M754.85 1047.69c-6.32-8.47-7.25-16.47-7.25-27.35V573.71a50.25 50.25 0 0 1 26-43.72c79.62-44.55 319.21-178.76 398.83-223.32 16.09-9 38-8.83 54 .19 79.61 44.55 318.37 177.56 398 222.11a49.9 49.9 0 0 1 15.72 13.76z" class="cls-3"/><path id="path348" d="M1200 466.65c184 0 333.35 149.38 333.35 333.35S1384 1133.35 1200 1133.35 866.65 984 866.65 800 1016 466.65 1200 466.65m0 166.68c92 0 166.67 74.68 166.67 166.67S1292 966.67 1200 966.67 1033.32 892 1033.32 800 1108 633.33 1200 633.33" class="cls-4"/><path id="path350" d="M1640.12 542.92c12.28 11.53 12.09 28.83 12.09 42.51 0 90.4-.74 347.39.19 437.7a51.85 51.85 0 0 1-7.72 26.88L1190.33 800Z" class="cls-5"/><path id="path352" d="M1366.67 728.57h47.62v142.86h-47.62z" class="cls-4"/><path id="path354" d="M1533.35 728.57H1581v142.86h-47.62z" class="cls-4"/><path id="path356" d="M1319.05 776.19h142.87v47.62h-142.87z" class="cls-4"/><path id="path358" d="M1485.73 776.19h142.86v47.62h-142.86z" class="cls-4"/></g><path id="rect384" d="M0 0h1200v1600H0z" class="cls-1" style="fill:#8394c6;stroke-width:.707107"/><g id="surface1-3" transform="translate(-394.695 136.858)scale(.82891)"><path id="path386" d="M1173.86 306.77a53.87 53.87 0 0 1 52.27 0c79.81 44.83 320.24 179.79 400.13 224.62a50.57 50.57 0 0 1 26.14 44v449.24a50.57 50.57 0 0 1-26.14 44c-79.89 44.83-320.23 179.79-400.13 224.62a53.81 53.81 0 0 1-52.27 0c-79.89-44.83-320.23-179.79-400.13-224.62a50.58 50.58 0 0 1-26.13-44V575.38a50.58 50.58 0 0 1 26.13-44c79.81-44.82 320.33-179.78 400.13-224.61" class="cls-2" style="fill:#283593;fill-rule:evenodd"/><path id="path388" d="M754.85 1047.69c-6.32-8.47-7.25-16.47-7.25-27.35V573.71a50.25 50.25 0 0 1 26-43.72c79.62-44.55 319.21-178.76 398.83-223.32 16.09-9 38-8.83 54 .19 79.61 44.55 318.37 177.56 398 222.11a49.9 49.9 0 0 1 15.72 13.76z" class="cls-3" style="fill:#5c6bc0;fill-rule:evenodd"/><path id="path390" d="M1200 466.65c184 0 333.35 149.38 333.35 333.35S1384 1133.35 1200 1133.35 866.65 984 866.65 800 1016 466.65 1200 466.65m0 166.68c92 0 166.67 74.68 166.67 166.67S1292 966.67 1200 966.67 1033.32 892 1033.32 800 1108 633.33 1200 633.33" class="cls-4" style="fill:#fff;fill-rule:evenodd"/><path id="path392" d="M1640.12 542.92c12.28 11.53 12.09 28.83 12.09 42.51 0 90.4-.74 347.39.19 437.7a51.85 51.85 0 0 1-7.72 26.88L1190.33 800Z" class="cls-5" style="fill:#3949ab;fill-rule:evenodd"/></g></svg>