<?xml version="1.0" encoding="UTF-8" standalone="no"?>
<!DOCTYPE svg PUBLIC "-//W3C//DTD SVG 1.1//EN" "http://www.w3.org/Graphics/SVG/1.1/DTD/svg11.dtd">
<svg width="100%" height="100%" viewBox="0 0 1200 900" version="1.1" xmlns="http://www.w3.org/2000/svg" xmlns:xlink="http://www.w3.org/1999/xlink" xml:space="preserve" xmlns:serif="http://www.serif.com/" style="fill-rule:evenodd;clip-rule:evenodd;stroke-linejoin:round;stroke-miterlimit:2;">
    <rect x="0" y="0" width="1200" height="900" style="fill:rgb(152,190,225);"/>
    <g transform="matrix(4.79233,0,0,4.79233,293.291,143.291)">
        <g transform="matrix(0.97998,0,0,0.97998,1.82666,1.40024)">
            <path d="M118.766,95.82C119.656,94.277 120.207,92.54 120.207,90.977L120.207,36.78C120.207,35.222 119.657,33.483 118.766,31.94L63.446,63.88L118.766,95.82Z" style="fill:rgb(0,89,156);fill-rule:nonzero;"/>
        </g>
        <g transform="matrix(0.97998,0,0,0.97998,1.82666,1.40024)">
            <path d="M68.36,126.586L115.293,99.492C116.645,98.711 117.875,97.363 118.766,95.82L63.446,63.88L8.12,95.82C9.01,97.363 10.241,98.71 11.593,99.492L58.526,126.586C61.229,128.148 65.656,128.148 68.358,126.586L68.36,126.586Z" style="fill:rgb(0,68,130);fill-rule:nonzero;"/>
        </g>
        <g transform="matrix(0.97998,0,0,0.97998,1.82666,1.40024)">
            <path d="M118.766,31.941C117.875,30.395 116.645,29.047 115.293,28.27L68.359,1.172C65.656,-0.391 61.23,-0.391 58.527,1.172L11.594,28.27C8.89,29.828 6.68,33.66 6.68,36.78L6.68,90.976C6.68,92.538 7.23,94.276 8.121,95.819L63.445,63.88L118.766,31.941Z" style="fill:rgb(101,154,210);fill-rule:nonzero;"/>
        </g>
        <g transform="matrix(0.97998,0,0,0.97998,1.82666,1.40024)">
            <path d="M63.445,26.035C42.578,26.035 25.602,43.012 25.602,63.879C25.602,84.746 42.578,101.723 63.445,101.723C76.91,101.723 89.469,94.476 96.215,82.813L79.84,73.335C76.46,79.175 70.18,82.8 63.445,82.8C53.012,82.8 44.523,74.312 44.523,63.878C44.523,53.444 53.013,44.956 63.445,44.956C70.175,44.956 76.462,48.585 79.835,54.421L96.215,44.944C89.465,33.28 76.91,26.034 63.445,26.034L63.445,26.035ZM92.88,57.57L92.88,61.777L88.673,61.777L88.673,65.98L92.88,65.98L92.88,70.187L97.083,70.187L97.083,65.98L101.286,65.98L101.286,61.777L97.083,61.777L97.083,57.57L92.88,57.57ZM108.646,57.57L108.646,61.777L104.442,61.777L104.442,65.98L108.646,65.98L108.646,70.187L112.853,70.187L112.853,65.98L117.056,65.98L117.056,61.777L112.853,61.777L112.853,57.57L108.646,57.57Z" style="fill:white;fill-rule:nonzero;"/>
        </g>
    </g>
</svg>
