<?xml version="1.0" encoding="UTF-8" standalone="no"?>
<!DOCTYPE svg PUBLIC "-//W3C//DTD SVG 1.1//EN" "http://www.w3.org/Graphics/SVG/1.1/DTD/svg11.dtd">
<svg width="100%" height="100%" viewBox="0 0 1200 900" version="1.1" xmlns="http://www.w3.org/2000/svg" xmlns:xlink="http://www.w3.org/1999/xlink" xml:space="preserve" xmlns:serif="http://www.serif.com/" style="fill-rule:evenodd;clip-rule:evenodd;stroke-linejoin:round;stroke-miterlimit:2;">
    <rect x="0" y="0" width="1200" height="900" style="fill:rgb(197,141,196);"/>
    <g transform="matrix(4.79233,0,0,4.79233,293.291,143.291)">
        <g transform="matrix(1.01294,0,0,1.01294,-0.777832,-0.828479)">
            <path d="M115.4,30.7L67.1,2.9C66.3,2.4 65.2,2.2 64,2.2C62.8,2.2 61.7,2.5 60.9,2.9L12.9,30.8C11.2,31.8 10,34.3 10,36.2L10,91.9C10,93 10.2,94.3 11,95.4L117.8,33.4C117.2,32.2 116.3,31.3 115.4,30.7Z" style="fill:rgb(155,79,150);fill-rule:nonzero;"/>
        </g>
        <g transform="matrix(1.01294,0,0,1.01294,-0.777832,-0.828479)">
            <path d="M10.7,95.3C11.2,96.1 11.9,96.8 12.6,97.2L60.8,125.1C61.6,125.6 62.7,125.8 63.9,125.8C65.1,125.8 66.2,125.5 67,125.1L115,97.2C116.7,96.2 117.9,93.7 117.9,91.8L117.9,36.1C117.9,35.2 117.8,34.2 117.3,33.3L10.7,95.3Z" style="fill:rgb(104,33,122);fill-rule:nonzero;"/>
        </g>
        <g transform="matrix(1.01294,0,0,1.01294,-0.777832,-0.828479)">
            <path d="M85.3,76.1C81.1,83.5 73.1,88.5 64,88.5C50.5,88.5 39.5,77.5 39.5,64C39.5,50.5 50.5,39.5 64,39.5C73.1,39.5 81.1,44.5 85.3,52L98.3,44.5C91.5,32.6 78.7,24.5 64,24.5C42.2,24.5 24.5,42.2 24.5,64C24.5,85.8 42.2,103.5 64,103.5C78.6,103.5 91.4,95.5 98.2,83.7L85.3,76.1ZM97,66.2L97.9,61.9L93.7,61.9L93.7,57.2L98.8,57.2L100,51L104.9,51L103.7,57.1L107.5,57.1L108.7,51L113.5,51L112.3,57.1L114.7,57.1L114.7,61.8L111.4,61.8L110.5,66.1L114.7,66.1L114.7,70.8L109.6,70.8L108.4,76.8L103.5,76.8L104.7,70.8L100.9,70.8L99.7,76.8L94.9,76.8L96.1,70.8L93.7,70.8L93.7,66.1L97,66.1L97,66.2ZM101.8,66.2L105.6,66.2L106.5,61.9L102.7,61.9L101.8,66.2Z" style="fill:white;fill-rule:nonzero;"/>
        </g>
    </g>
</svg>
