<?xml version="1.0" encoding="UTF-8" standalone="no"?>
<!DOCTYPE svg PUBLIC "-//W3C//DTD SVG 1.1//EN" "http://www.w3.org/Graphics/SVG/1.1/DTD/svg11.dtd">
<svg width="100%" height="100%" viewBox="0 0 1200 900" version="1.1" xmlns="http://www.w3.org/2000/svg" xmlns:xlink="http://www.w3.org/1999/xlink" xml:space="preserve" xmlns:serif="http://www.serif.com/" style="fill-rule:evenodd;clip-rule:evenodd;stroke-linejoin:round;stroke-miterlimit:2;">
    <rect x="0" y="0" width="1200" height="900" style="fill:rgb(0,54,87);"/>
    <g transform="matrix(4.79233,0,0,4.79233,293.291,143.291)">
        <g transform="matrix(0.979688,0,0,0.979688,1.33523,1.29794)">
            <path d="M109.6,109.3L26.9,26.6L26.9,86.3L27,89.1C27,90.4 27.2,91.9 27.7,93.4L93.3,116.5L109.6,109.3Z" style="fill:rgb(0,196,179);fill-rule:nonzero;"/>
        </g>
        <g transform="matrix(0.979688,0,0,0.979688,1.33523,1.29794)">
            <path d="M109.6,109.3L93.3,116.5L27.9,93.4C29.2,98.2 31.9,103.5 34.9,106.6L56.2,127.8L103.8,127.9L109.6,109.3Z" style="fill:rgb(34,211,197);fill-rule:nonzero;"/>
        </g>
        <g transform="matrix(0.979688,0,0,0.979688,1.33523,1.29794)">
            <path d="M1.7,65.1C-0.4,67.3 0.7,72 4,75.5L18.7,90.3L27.9,93.6C27.6,92.1 27.2,90.6 27.2,89.3L27.1,86.5L26.9,26.7M109.6,109.3L116.8,92.9L93.8,27.3C92.3,27 90.8,26.7 89.5,26.6L86.6,26.5L27,26.6" style="fill:rgb(0,117,201);fill-rule:nonzero;"/>
        </g>
        <g transform="matrix(0.979688,0,0,0.979688,1.33523,1.29794)">
            <path d="M93.6,27.3C93.8,27.3 93.8,27.3 93.6,27.3ZM109.6,109.3L127.3,103.5L127.3,54.8L106.9,34.3C103.9,31.3 98.6,28.5 93.7,27.3L116.8,92.9" style="fill:rgb(0,168,225);fill-rule:nonzero;"/>
        </g>
        <g transform="matrix(0.979688,0,0,0.979688,1.33523,1.29794)">
            <path d="M90.5,18.2L75.7,3.5C72.3,0.1 67.7,-0.9 65.3,1.2L26.9,26.6L86.4,26.6L89.3,26.7C90.6,26.7 92.1,26.9 93.6,27.4L90.5,18.2Z" style="fill:rgb(0,196,179);fill-rule:nonzero;"/>
        </g>
    </g>
</svg>
