<svg xmlns="http://www.w3.org/2000/svg" xml:space="preserve" style="fill-rule:evenodd;clip-rule:evenodd;stroke-linejoin:round;stroke-miterlimit:2" viewBox="0 0 1200 900"><path d="M0 0h1200v900H0z" style="fill:#0d2f4e"/><path d="M12.3 64.2 76.3 0h39.4L32.1 83.6zm64 63.8h39.4L81.6 93.9l34.1-34.8H76.3L42.2 93.5z" style="fill:#3fb6d3;fill-rule:nonzero" transform="translate(300 150)scale(4.6875)"/><path d="m81.6 93.9-20-20-19.4 19.6 19.4 19.6z" style="fill:#27aacd;fill-rule:nonzero" transform="translate(300 150)scale(4.6875)"/><path d="M115.7 128 81.6 93.9l-20 19.2L76.3 128z" style="fill:#19599a;fill-rule:nonzero" transform="translate(300 150)scale(4.6875)"/><path d="m61.6 113.1 30.8-8.4-10.8-10.8z" style="fill:url(#a);fill-rule:nonzero" transform="translate(300 150)scale(4.6875)"/><defs><linearGradient id="a" x1="0" x2="1" y1="0" y2="0" gradientTransform="rotate(-31.702 234.59 -46.36)scale(32.276)" gradientUnits="userSpaceOnUse"><stop offset="0" style="stop-color:#1b4e94;stop-opacity:1"/><stop offset=".63" style="stop-color:#1a5497;stop-opacity:1"/><stop offset="1" style="stop-color:#195a9b;stop-opacity:1"/></linearGradient></defs></svg>