<?xml version="1.0" encoding="UTF-8" standalone="no"?>
<!DOCTYPE svg PUBLIC "-//W3C//DTD SVG 1.1//EN" "http://www.w3.org/Graphics/SVG/1.1/DTD/svg11.dtd">
<svg width="100%" height="100%" viewBox="0 0 1200 900" version="1.1" xmlns="http://www.w3.org/2000/svg" xmlns:xlink="http://www.w3.org/1999/xlink" xml:space="preserve" xmlns:serif="http://www.serif.com/" style="fill-rule:evenodd;clip-rule:evenodd;stroke-linejoin:round;stroke-miterlimit:2;">
    <rect x="0" y="0" width="1200" height="900" style="fill:rgb(13,47,78);"/>
    <g transform="matrix(4.6875,0,0,4.6875,300,150)">
        <path d="M12.3,64.2L76.3,0L115.7,0L32.1,83.6L12.3,64.2ZM76.3,128L115.7,128L81.6,93.9L115.7,59.1L76.3,59.1L42.2,93.5L76.3,128Z" style="fill:rgb(63,182,211);fill-rule:nonzero;"/>
    </g>
    <g transform="matrix(4.6875,0,0,4.6875,300,150)">
        <path d="M81.6,93.9L61.6,73.9L42.2,93.5L61.6,113.1L81.6,93.9Z" style="fill:rgb(39,170,205);fill-rule:nonzero;"/>
    </g>
    <g transform="matrix(4.6875,0,0,4.6875,300,150)">
        <path d="M115.7,128L81.6,93.9L61.6,113.1L76.3,128L115.7,128Z" style="fill:rgb(25,89,154);fill-rule:nonzero;"/>
    </g>
    <g transform="matrix(4.6875,0,0,4.6875,300,150)">
        <path d="M61.6,113.1L92.4,104.7L81.6,93.9L61.6,113.1Z" style="fill:url(#_Linear1);fill-rule:nonzero;"/>
    </g>
    <defs>
        <linearGradient id="_Linear1" x1="0" y1="0" x2="1" y2="0" gradientUnits="userSpaceOnUse" gradientTransform="matrix(27.46,-16.961,16.961,27.46,59.365,116.36)"><stop offset="0" style="stop-color:rgb(27,78,148);stop-opacity:1"/><stop offset="0.63" style="stop-color:rgb(26,84,151);stop-opacity:1"/><stop offset="1" style="stop-color:rgb(25,90,155);stop-opacity:1"/></linearGradient>
    </defs>
</svg>
