<svg xmlns="http://www.w3.org/2000/svg" xml:space="preserve" style="fill-rule:evenodd;clip-rule:evenodd;stroke-linejoin:round;stroke-miterlimit:2" viewBox="0 0 1200 900"><path d="M0 0h1200v900H0z" style="fill:#f99e8a"/><path d="M124.737 58.378 69.621 3.264c-3.172-3.174-8.32-3.174-11.497 0L46.68 14.71l14.518 14.518c3.375-1.139 7.243-.375 9.932 2.314 2.703 2.706 3.461 6.607 2.294 9.993l13.992 13.993c3.385-1.167 7.292-.413 9.994 2.295 3.78 3.777 3.78 9.9 0 13.679a9.677 9.677 0 0 1-13.683 0 9.69 9.69 0 0 1-2.105-10.521L68.574 47.933l-.002 34.341a9.7 9.7 0 0 1 2.559 1.828c3.778 3.777 3.778 9.898 0 13.683-3.779 3.777-9.904 3.777-13.679 0-3.778-3.784-3.778-9.905 0-13.683a9.6 9.6 0 0 1 3.167-2.11V47.333a9.6 9.6 0 0 1-3.167-2.111c-2.862-2.86-3.551-7.06-2.083-10.576L41.056 20.333 3.264 58.123c-3.154 3.155-3.154 8.345 0 11.5l55.117 55.114c3.174 3.174 8.32 3.174 11.499 0l54.858-54.858c3.153-3.156 3.153-8.346-.001-11.501" style="fill:#f34f29;fill-rule:nonzero" transform="translate(295.8 145.801)scale(4.75308)"/></svg>