<svg xmlns="http://www.w3.org/2000/svg" xml:space="preserve" style="fill-rule:evenodd;clip-rule:evenodd;stroke-linejoin:round;stroke-miterlimit:2" viewBox="0 0 2400 1600"><path d="M0 0h2400v1600H0z"/><path d="M0-118.275c-33.347 0-60.388 27.035-60.388 60.388 0 26.68 17.303 49.316 41.297 57.301 3.018.559 4.126-1.31 4.126-2.905 0-1.439-.056-6.197-.082-11.243-16.8 3.653-20.345-7.125-20.345-7.125-2.747-6.979-6.705-8.836-6.705-8.836-5.479-3.748.413-3.671.413-3.671 6.064.426 9.257 6.224 9.257 6.224 5.386 9.231 14.127 6.562 17.573 5.019.543-3.902 2.107-6.567 3.834-8.075-13.413-1.526-27.513-6.705-27.513-29.844 0-6.592 2.359-11.979 6.222-16.208-.627-1.522-2.694-7.664.586-15.982 0 0 5.071-1.622 16.61 6.191C-10.298-88.379-5.132-89.05 0-89.074c5.132.024 10.302.695 15.128 2.033 11.526-7.813 16.59-6.191 16.59-6.191 3.287 8.318 1.22 14.46.593 15.982 3.872 4.229 6.214 9.616 6.214 16.208 0 23.195-14.127 28.301-27.574 29.796 2.166 1.874 4.096 5.549 4.096 11.183 0 8.08-.069 14.583-.069 16.572 0 1.608 1.086 3.491 4.147 2.898 23.982-7.994 41.263-30.622 41.263-57.294 0-33.353-27.037-60.388-60.388-60.388" style="fill:#fff" transform="translate(1200 1240.77)scale(7.42314)"/><path d="M-.787-.501c-.329-.004-.608.387-.599.864-.004.481.266.875.599.871.334.01.609-.383.604-.867.004-.48-.268-.88-.604-.868" style="fill:#fff;fill-rule:nonzero" transform="rotate(114.63 139.622 795.1)scale(-7.42313 7.42313)"/><path d="M-.704-.272c-.393-.001-.724.472-.719 1.04-.006.578.321 1.043.719 1.044.4-.005.717-.466.723-1.043C.022.187-.299-.277-.704-.272" style="fill:#fff;fill-rule:nonzero" transform="rotate(137.412 271.979 694.427)scale(-7.42314 7.42314)"/><path d="M-.671-.208c-.451-.004-.815.537-.82 1.192-.002.653.362 1.184.82 1.183.455.002.816-.528.828-1.181C.154.327-.21-.204-.671-.208" style="fill:#fff;fill-rule:nonzero" transform="rotate(145.621 318.13 672.77)scale(-7.42313 7.42313)"/><path d="M-.945-.403c-.493-.008-.903.574-.892 1.291-.005.718.399 1.297.892 1.305.497.005.906-.583.901-1.301C-.041.178-.441-.414-.945-.403" style="fill:#fff;fill-rule:nonzero" transform="rotate(133.096 259.94 748.598)scale(-7.42313 7.42313)"/><path d="M-1.255-.923c-.496.004-.896.592-.9 1.305.001.714.402 1.301.9 1.306.497.002.907-.587.9-1.309-.001-.712-.399-1.3-.9-1.302" style="fill:#fff;fill-rule:nonzero" transform="rotate(106.735 103.655 916.398)scale(-7.42313 7.42313)"/><path d="M-1.29-1.311c-.498-.008-.901.578-.899 1.296-.005.723.409 1.301.899 1.301.503-.009.902-.583.903-1.304.002-.719-.409-1.301-.903-1.293" style="fill:#fff;fill-rule:nonzero" transform="rotate(-90.949 1054.563 30.263)scale(7.42314 -7.42314)"/><path d="M-1.285-1.533c-.493.001-.895.581-.899 1.306-.002.713.41 1.298.899 1.3.505-.003.906-.591.908-1.303-.005-.725-.406-1.302-.908-1.303" style="fill:#fff;fill-rule:nonzero" transform="rotate(-100.254 988.116 92.596)scale(7.42313 -7.42313)"/></svg>