<svg xmlns="http://www.w3.org/2000/svg" xml:space="preserve" style="fill-rule:evenodd;clip-rule:evenodd;stroke-linejoin:round;stroke-miterlimit:2" viewBox="0 0 1200 900"><path d="M0 0h1200v900H0z" style="fill:#054340"/><path d="m33.092 41.594-5.184 5.222L33.131 52l5.183-5.223z" style="fill:url(#a);fill-rule:nonzero" transform="translate(300 150.002)scale(4.6875)"/><path d="M8.838 38.03 0 46.935l8.937 8.838 8.804-8.904z" style="fill:url(#b);fill-rule:nonzero" transform="translate(300 150.002)scale(4.6875)"/><path d="m13.788 41.52-4.56.018-5.352 5.392 5.391 5.352 4.561-.017-4.782-4.745 23.619-.088-2.07 2.084 2.28-.008 2.676-2.696-2.696-2.676-2.28.009 2.085 2.069-23.619.087zm101.703 2.324q-3.772 0-6.996 1.338-3.223 1.336-5.586 3.7t-3.7 5.61-1.337 7.114q-.001 3.869 1.336 7.116t3.701 5.61q2.363 2.364 5.586 3.7t6.996 1.337a16.26 16.26 0 0 0 7.496-1.79 13.4 13.4 0 0 0 2.889-1.982A13 13 0 0 0 128 73.162l-2.817-2.005q-.956 1.48-2.076 2.459a9.8 9.8 0 0 1-2.388 1.552q-1.266.573-2.578.811c-.874.159-1.761.239-2.65.239q-3.248 0-5.826-1.194-2.579-1.193-4.369-3.2-1.79-2.004-2.746-4.654a16.3 16.3 0 0 1-.954-5.564q0-2.911.954-5.562.956-2.65 2.746-4.656t4.369-3.199 5.826-1.193q1.335 0 2.674.382 1.335.383 2.506 1.003t2.077 1.432q.907.812 1.433 1.623l3.007-2.244q-2.244-2.864-5.395-4.107-3.15-1.24-6.302-1.24zm-71.527.86V78.51h3.438V62.8h5.73l9.263 15.71h4.202l-9.741-16.044q4.201-.382 6.423-2.793 2.22-2.41 2.22-5.944 0-4.536-2.984-6.781t-8.142-2.244zm28.553 0V78.51h3.439V62.8h6.398q5.156 0 8.14-2.268t2.984-6.803q0-4.536-2.983-6.781-2.985-2.244-8.141-2.244zm-25.115 3.152h6.112q2.291 0 3.891.452 1.6.455 2.555 1.266.955.813 1.384 1.886.43 1.075.43 2.269 0 1.241-.43 2.315a4.6 4.6 0 0 1-1.384 1.862q-.956.788-2.555 1.266-1.6.477-3.891.477h-6.112zm28.554 0h5.538q2.291 0 3.891.452 1.6.455 2.555 1.266.954.813 1.385 1.886c.288.722.434 1.492.43 2.269q0 1.241-.43 2.315a4.63 4.63 0 0 1-1.385 1.862q-.956.788-2.555 1.266-1.6.477-3.891.477h-5.538zM22.669 55.59q-2.483 0-4.56.884a10.65 10.65 0 0 0-3.581 2.46 11.7 11.7 0 0 0-2.364 3.675q-.86 2.101-.86 4.537t.908 4.536a10.9 10.9 0 0 0 2.482 3.605 11.6 11.6 0 0 0 3.701 2.363q2.125.86 4.56.86a11.5 11.5 0 0 0 4.632-.955q2.196-.955 3.724-3.247h.095v4.011q0 1.814-.452 3.414a7.3 7.3 0 0 1-1.481 2.793q-1.027 1.193-2.698 1.887-1.672.69-4.059.69-2.721 0-4.942-1.12-2.22-1.122-3.605-2.985l-2.34 2.483q2.15 2.291 4.776 3.39 2.625 1.098 5.968 1.098 3.771 0 6.112-1.145 2.34-1.147 3.653-2.865a9.55 9.55 0 0 0 1.766-3.772q.454-2.054.454-3.868V56.163h-3.152v3.725h-.095q-.955-1.29-2.053-2.125a10.054 10.054 0 0 0-4.465-1.982 12.7 12.7 0 0 0-2.124-.19zm.382 2.865q1.958 0 3.533.693 1.576.692 2.674 1.862a8 8 0 0 1 1.672 2.721 9.5 9.5 0 0 1 .573 3.32q.046 1.957-.598 3.532a7.6 7.6 0 0 1-1.838 2.699 8.7 8.7 0 0 1-2.745 1.742 8.7 8.7 0 0 1-3.271.62q-1.768 0-3.271-.69a8.5 8.5 0 0 1-2.626-1.863 8.7 8.7 0 0 1-1.767-2.722 8.55 8.55 0 0 1-.645-3.319q0-1.766.645-3.319a8.7 8.7 0 0 1 1.767-2.72 8.6 8.6 0 0 1 2.626-1.863q1.504-.692 3.27-.693z" style="fill:#fff;fill-rule:nonzero" transform="translate(300 150.002)scale(4.6875)"/><defs><linearGradient id="a" x1="0" x2="1" y1="0" y2="0" gradientTransform="rotate(-2.692 1120.394 -567.845)scale(10.4174)" gradientUnits="userSpaceOnUse"><stop offset="0" style="stop-color:#00b5b2;stop-opacity:1"/><stop offset=".13" style="stop-color:#00b9b6;stop-opacity:1"/><stop offset=".28" style="stop-color:#1cbcba;stop-opacity:1"/><stop offset=".49" style="stop-color:#44c1bf;stop-opacity:1"/><stop offset=".65" style="stop-color:#57c4c3;stop-opacity:1"/><stop offset=".79" style="stop-color:#63c7c6;stop-opacity:1"/><stop offset=".9" style="stop-color:#6cc9c8;stop-opacity:1"/><stop offset="1" style="stop-color:#72cbca;stop-opacity:1"/></linearGradient><linearGradient id="b" x1="0" x2="1" y1="0" y2="0" gradientTransform="rotate(5.87 -457.764 23.468)scale(17.8346)" gradientUnits="userSpaceOnUse"><stop offset="0" style="stop-color:#71caca;stop-opacity:1"/><stop offset=".12" style="stop-color:#66c7c7;stop-opacity:1"/><stop offset=".24" style="stop-color:#57c4c3;stop-opacity:1"/><stop offset=".4" style="stop-color:#34bebd;stop-opacity:1"/><stop offset=".52" style="stop-color:#00bab7;stop-opacity:1"/><stop offset=".59" style="stop-color:#00b6b3;stop-opacity:1"/><stop offset=".68" style="stop-color:#00b2ae;stop-opacity:1"/><stop offset="1" style="stop-color:#00b0ad;stop-opacity:1"/></linearGradient></defs></svg>