<svg xmlns="http://www.w3.org/2000/svg" xml:space="preserve" style="fill-rule:evenodd;clip-rule:evenodd;stroke-linejoin:round;stroke-miterlimit:2" viewBox="0 0 1200 900"><path d="M0 0h1200v900H0z" style="fill:#7c240e"/><path d="M19.037 113.876 9.032 1.661h109.936l-10.016 112.198-45.019 12.48z" style="fill:#e44d26;fill-rule:nonzero" transform="translate(292.007 142.007)scale(4.81241)"/><path d="m64 116.8 36.378-10.086 8.559-95.878H64z" style="fill:#f16529;fill-rule:nonzero" transform="translate(292.007 142.007)scale(4.81241)"/><path d="M64 52.455H45.788L44.53 38.361H64V24.599H29.489l.33 3.692 3.382 37.927H64zm0 35.743-.061.017-15.327-4.14-.979-10.975H33.816l1.928 21.609 28.193 7.826.063-.017z" style="fill:#ebebeb;fill-rule:nonzero" transform="translate(292.007 142.007)scale(4.81241)"/><path d="M63.952 52.455v13.763h16.947l-1.597 17.849-15.35 4.143v14.319l28.215-7.82.207-2.325 3.234-36.233.335-3.696zm0-27.856v13.762h33.244l.276-3.092.628-6.978.329-3.692z" style="fill:#fff;fill-rule:nonzero" transform="translate(292.007 142.007)scale(4.81241)"/></svg>