<svg xmlns="http://www.w3.org/2000/svg" xml:space="preserve" style="fill-rule:evenodd;clip-rule:evenodd;stroke-linejoin:round;stroke-miterlimit:2" viewBox="0 0 1200 900"><path d="M0 0h1200v900H0z" style="fill:#81b8ff"/><path d="M108.023 16H61.805c0 11.52 9.324 20.848 20.847 20.848h8.5v8.226c0 11.52 9.328 20.848 20.848 20.848V19.977c-.002-2.181-1.796-3.975-3.977-3.977" style="fill:#2684ff;fill-rule:nonzero" transform="translate(200.001 50.001)scale(6.24998)"/><path d="M85.121 39.04H38.902c0 11.519 9.325 20.847 20.844 20.847h8.504v8.226c0 11.52 9.328 20.848 20.848 20.848V43.016c-.003-2.18-1.797-3.974-3.977-3.977z" style="fill:url(#a);fill-rule:nonzero" transform="translate(200.001 50.001)scale(6.24998)"/><path d="M62.219 62.078H16c0 11.524 9.324 20.848 20.848 20.848h8.5v8.23c0 11.52 9.328 20.844 20.847 20.844V66.059c-.002-2.181-1.795-3.976-3.976-3.98z" style="fill:url(#b);fill-rule:nonzero" transform="translate(200.001 50.001)scale(6.24998)"/><defs><linearGradient id="a" x1="0" x2="1" y1="0" y2="0" gradientTransform="rotate(134.122 35.796 38.196)scale(28.245)" gradientUnits="userSpaceOnUse"><stop offset="0" style="stop-color:#0052cc;stop-opacity:1"/><stop offset=".18" style="stop-color:#0052cc;stop-opacity:1"/><stop offset="1" style="stop-color:#2684ff;stop-opacity:1"/></linearGradient><linearGradient id="b" x1="0" x2="1" y1="0" y2="0" gradientTransform="rotate(135.787 20.638 44.647)scale(31.721)" gradientUnits="userSpaceOnUse"><stop offset="0" style="stop-color:#0052cc;stop-opacity:1"/><stop offset=".18" style="stop-color:#0052cc;stop-opacity:1"/><stop offset="1" style="stop-color:#2684ff;stop-opacity:1"/></linearGradient></defs></svg>