<?xml version="1.0" encoding="UTF-8" standalone="no"?>
<!DOCTYPE svg PUBLIC "-//W3C//DTD SVG 1.1//EN" "http://www.w3.org/Graphics/SVG/1.1/DTD/svg11.dtd">
<svg width="100%" height="100%" viewBox="0 0 1200 900" version="1.1" xmlns="http://www.w3.org/2000/svg" xmlns:xlink="http://www.w3.org/1999/xlink" xml:space="preserve" xmlns:serif="http://www.serif.com/" style="fill-rule:evenodd;clip-rule:evenodd;stroke-linejoin:round;stroke-miterlimit:2;">
    <rect x="0" y="0" width="1200" height="900" style="fill:rgb(129,184,255);"/>
    <g transform="matrix(4.96783,0,0,4.96783,282.056,132.059)">
        <g transform="matrix(1.25809,0,0,1.25809,-16.5172,-16.5178)">
            <path d="M108.023,16L61.805,16C61.805,27.52 71.129,36.848 82.652,36.848L91.152,36.848L91.152,45.074C91.152,56.594 100.48,65.922 112,65.922L112,19.977C111.998,17.796 110.204,16.002 108.023,16Z" style="fill:rgb(38,132,255);fill-rule:nonzero;"/>
        </g>
        <g transform="matrix(1.25809,0,0,1.25809,-16.5172,-16.5178)">
            <path d="M85.121,39.04L38.902,39.04C38.902,50.559 48.227,59.887 59.746,59.887L68.25,59.887L68.25,68.113C68.25,79.633 77.578,88.961 89.098,88.961L89.098,43.016C89.095,40.836 87.301,39.042 85.121,39.039L85.121,39.04Z" style="fill:url(#_Linear1);fill-rule:nonzero;"/>
        </g>
        <g transform="matrix(1.25809,0,0,1.25809,-16.5172,-16.5178)">
            <path d="M62.219,62.078L16,62.078C16,73.602 25.324,82.926 36.848,82.926L45.348,82.926L45.348,91.156C45.348,102.676 54.676,112 66.195,112L66.195,66.059C66.193,63.878 64.4,62.083 62.219,62.079L62.219,62.078Z" style="fill:url(#_Linear2);fill-rule:nonzero;"/>
        </g>
    </g>
    <defs>
        <linearGradient id="_Linear1" x1="0" y1="0" x2="1" y2="0" gradientUnits="userSpaceOnUse" gradientTransform="matrix(-19.664,20.276,-20.276,-19.664,88.136,39.092)"><stop offset="0" style="stop-color:rgb(0,82,204);stop-opacity:1"/><stop offset="0.18" style="stop-color:rgb(0,82,204);stop-opacity:1"/><stop offset="1" style="stop-color:rgb(38,132,255);stop-opacity:1"/></linearGradient>
        <linearGradient id="_Linear2" x1="0" y1="0" x2="1" y2="0" gradientUnits="userSpaceOnUse" gradientTransform="matrix(-22.736,22.12,-22.12,-22.736,66.564,62.256)"><stop offset="0" style="stop-color:rgb(0,82,204);stop-opacity:1"/><stop offset="0.18" style="stop-color:rgb(0,82,204);stop-opacity:1"/><stop offset="1" style="stop-color:rgb(38,132,255);stop-opacity:1"/></linearGradient>
    </defs>
</svg>
