<svg xmlns="http://www.w3.org/2000/svg" xml:space="preserve" style="fill-rule:evenodd;clip-rule:evenodd;stroke-linejoin:round;stroke-miterlimit:2" viewBox="0 0 1200 900"><path d="M0 0h1200v900H0z" style="fill:#fac29f"/><path d="M6.648 67.352c0 3.91-.363 5.183-1.296 6.12-1.036.81-2.383 1.255-3.782 1.255l.364 2.234c2.164.023 4.265-.637 5.906-1.856.883-.93 1.539-2 1.93-3.152a7.8 7.8 0 0 0 .347-3.55V53.608H6.648zm25.883-1.762c0 1.676 0 3.172.153 4.469h-3.082l-.207-2.66c-.645.94-1.567 1.718-2.672 2.25a8.1 8.1 0 0 1-3.621.788c-3.004 0-6.579-1.406-6.579-7.148v-9.543h3.473v8.938c0 3.105 1.113 5.183 4.246 5.183a5.5 5.5 0 0 0 1.883-.308 5 5 0 0 0 1.594-.914c.445-.38.805-.848 1.058-1.375a3.64 3.64 0 0 0 .36-1.625V53.633h3.468V65.5zm6.579-6.527c0-2.079 0-3.778-.157-5.317h3.11l.152 2.793c.695-1.012 1.691-1.84 2.887-2.398A8.5 8.5 0 0 1 49 53.363c4.613 0 8.082 3.332 8.082 8.29 0 5.855-4.168 8.761-8.676 8.761a7.6 7.6 0 0 1-3.332-.621c-1.027-.45-1.906-1.121-2.547-1.95v8.938H39.11zm3.417 4.355c.008.406.063.812.157 1.207.293.992.96 1.871 1.898 2.5s2.094.965 3.281.965c3.653 0 5.801-2.57 5.801-6.3 0-3.263-2.02-6.056-5.672-6.056-1.445.102-2.797.653-3.804 1.555-1.004.902-1.598 2.086-1.66 3.336zm20.739-9.688 4.172 9.63a51 51 0 0 1 1.214 3.328c.364-.981.75-2.235 1.22-3.395l3.78-9.563h3.653l-5.18 11.618c-2.59 5.586-4.172 8.468-6.555 10.21-1.199.95-2.664 1.61-4.246 1.922l-.855-2.5a9.8 9.8 0 0 0 3.031-1.453c1.262-.89 2.266-2.023 2.926-3.308.139-.218.236-.461.285-.715a2.4 2.4 0 0 0-.234-.781l-7.043-15.04h3.78zm23.25-4.687v4.691h4.972v2.235h-4.972v8.804c0 2.012.675 3.172 2.59 3.172a9 9 0 0 0 2.019-.203l.156 2.238c-1 .295-2.04.43-3.082.399a5.5 5.5 0 0 1-2.035-.27 4.9 4.9 0 0 1-1.719-.98c-1.054-1.219-1.535-2.734-1.347-4.246v-8.938h-2.953v-2.234h3.003v-3.977zm11.367 13.375c-.07.758.05 1.52.355 2.23a5.2 5.2 0 0 0 1.407 1.899 6.3 6.3 0 0 0 2.203 1.215c.824.265 1.71.367 2.586.308 1.764.038 3.521-.25 5.18-.851l.597 2.234a17.7 17.7 0 0 1-6.344 1.008c-1.27.074-2.539-.09-3.726-.477a9.1 9.1 0 0 1-3.153-1.777c-.89-.781-1.578-1.719-2.008-2.75a6.66 6.66 0 0 1-.492-3.219c0-4.918 3.395-8.804 8.938-8.804 6.215 0 7.77 4.691 7.77 7.687q.045.691 0 1.383H97.804zm10.152-2.234a3.7 3.7 0 0 0-.144-1.79 4.1 4.1 0 0 0-.993-1.57 4.9 4.9 0 0 0-1.656-1.078 5.5 5.5 0 0 0-2.023-.39c-1.422.09-2.758.632-3.739 1.527-.984.89-1.543 2.066-1.57 3.3zm8.425-1.375c0-1.918 0-3.575-.155-5.094h3.11v3.195h.155c.325-.984 1-1.86 1.926-2.5.93-.64 2.067-1.015 3.254-1.074.324-.035.656-.035.984 0v2.793a6 6 0 0 0-1.191 0c-1.176.039-2.297.445-3.148 1.144-.856.7-1.383 1.645-1.489 2.653q-.145.69-.156 1.386v8.692h-3.418V58.832z" style="fill:#4e4e4e;fill-rule:nonzero" transform="translate(301.62 149.994)scale(4.68766)"/><path d="M109.766 7.281a7.7 7.7 0 0 1-1.09 4.282 7.6 7.6 0 0 1-3.262 2.949 7.5 7.5 0 0 1-4.34.62 7.53 7.53 0 0 1-3.953-1.913 7.656 7.656 0 0 1 .645-11.75 7.5 7.5 0 0 1 9.558.535 7.63 7.63 0 0 1 2.438 5.273z" style="fill:#767677;fill-rule:nonzero" transform="translate(301.62 149.994)scale(4.68766)"/><path d="M65.758 96.79c-20.098 0-37.649-7.364-46.766-18.267a49.95 49.95 0 0 0 18.102 24.254 49.26 49.26 0 0 0 28.676 9.215 49.3 49.3 0 0 0 28.675-9.215 49.92 49.92 0 0 0 18.094-24.254C103.406 89.426 85.855 96.79 65.758 96.79m-.008-70.907c20.098 0 37.652 7.367 46.766 18.265a49.95 49.95 0 0 0-18.102-24.253 49.27 49.27 0 0 0-28.672-9.22 49.27 49.27 0 0 0-28.672 9.22 49.9 49.9 0 0 0-18.1 24.253c9.132-10.878 26.682-18.265 46.78-18.265" style="fill:#f37726;fill-rule:nonzero" transform="translate(301.62 149.994)scale(4.68766)"/><path d="M38.164 117.984a9.67 9.67 0 0 1-1.371 5.399 9.52 9.52 0 0 1-9.59 4.504 9.4 9.4 0 0 1-4.98-2.418 9.68 9.68 0 0 1-2.809-4.797 9.73 9.73 0 0 1 .313-5.567 9.63 9.63 0 0 1 3.328-4.453c3.645-2.679 8.726-2.388 12.043.688a9.63 9.63 0 0 1 3.066 6.648z" style="fill:#9e9e9e;fill-rule:nonzero" transform="translate(301.62 149.994)scale(4.68766)"/><path d="M21.285 23.418a5.53 5.53 0 0 1-3.14-.816 5.64 5.64 0 0 1-2.618-5.672 5.6 5.6 0 0 1 1.407-2.95 5.6 5.6 0 0 1 2.789-1.664 5.46 5.46 0 0 1 3.238.184 5.54 5.54 0 0 1 2.586 1.969 5.68 5.68 0 0 1-.399 7.129 5.56 5.56 0 0 1-3.867 1.82z" style="fill:#616262;fill-rule:nonzero" transform="translate(301.62 149.994)scale(4.68766)"/></svg>