<?xml version="1.0" encoding="UTF-8" standalone="no"?>
<!DOCTYPE svg PUBLIC "-//W3C//DTD SVG 1.1//EN" "http://www.w3.org/Graphics/SVG/1.1/DTD/svg11.dtd">
<svg width="100%" height="100%" viewBox="0 0 1200 900" version="1.1" xmlns="http://www.w3.org/2000/svg" xmlns:xlink="http://www.w3.org/1999/xlink" xml:space="preserve" xmlns:serif="http://www.serif.com/" style="fill-rule:evenodd;clip-rule:evenodd;stroke-linejoin:round;stroke-miterlimit:2;">
    <rect x="0" y="0" width="1200" height="900" style="fill:rgb(48,51,92);"/>
    <g transform="matrix(4.79233,0,0,4.79233,293.291,143.291)">
        <g transform="matrix(0.978125,0,0,0.978125,1.4,1.4)">
            <path d="M0,64C0,82.593 28.654,97.667 64,97.667C99.346,97.667 128,82.593 128,64C128,45.407 99.345,30.333 64,30.333C28.654,30.333 0,45.407 0,64Z" style="fill:url(#_Radial1);fill-rule:nonzero;"/>
        </g>
        <g transform="matrix(0.978125,0,0,0.978125,1.4,1.4)">
            <path d="M64,95.167C97.965,95.167 125.5,81.212 125.5,64C125.5,46.786 97.965,32.833 64,32.833C30.035,32.833 2.5,46.786 2.5,64C2.5,81.212 30.035,95.167 64,95.167Z" style="fill:rgb(119,123,179);fill-rule:nonzero;"/>
        </g>
        <g transform="matrix(0.978125,0,0,0.978125,1.4,1.4)">
            <path d="M34.772,67.864C37.565,67.864 39.649,67.349 40.968,66.334C42.274,65.328 43.175,63.587 43.648,61.159C44.088,58.889 43.92,57.305 43.148,56.449C42.36,55.575 40.655,55.132 38.081,55.132L33.617,55.132L31.144,67.864L34.772,67.864ZM20.173,83.547C19.793,83.546 19.48,83.233 19.48,82.853C19.48,82.808 19.484,82.763 19.493,82.719L26.05,48.981C26.114,48.657 26.4,48.421 26.73,48.42L40.864,48.42C45.306,48.42 48.612,49.626 50.691,52.005C52.779,54.395 53.425,57.739 52.608,61.94C52.275,63.651 51.703,65.24 50.908,66.664C50.08,68.129 49.024,69.452 47.78,70.584C46.249,72.016 44.516,73.056 42.633,73.667C40.781,74.271 38.401,74.577 35.563,74.577L29.839,74.577L28.205,82.985C28.142,83.31 27.854,83.547 27.523,83.547L20.173,83.547Z" style="fill-rule:nonzero;"/>
        </g>
        <g transform="matrix(0.978125,0,0,0.978125,1.4,1.4)">
            <path d="M34.19,55.826L38.081,55.826C41.188,55.826 42.267,56.508 42.634,56.915C43.241,57.589 43.357,59.012 42.965,61.027C42.526,63.284 41.712,64.885 40.545,65.783C39.351,66.703 37.407,67.169 34.772,67.169L31.986,67.169L34.191,55.827L34.19,55.826ZM40.864,47.726L26.731,47.726C26.069,47.726 25.494,48.199 25.367,48.849L18.81,82.588C18.793,82.675 18.785,82.763 18.785,82.851C18.785,83.613 19.411,84.24 20.173,84.241L27.523,84.241C28.185,84.24 28.759,83.767 28.886,83.117L30.411,75.271L35.562,75.271C38.474,75.271 40.926,74.953 42.849,74.327C44.826,73.685 46.645,72.596 48.255,71.09C49.551,69.909 50.651,68.53 51.514,67.003C52.345,65.516 52.943,63.856 53.289,62.072C54.149,57.649 53.45,54.108 51.213,51.548C48.997,49.011 45.515,47.725 40.864,47.725L40.864,47.726ZM30.301,68.557L34.772,68.557C37.735,68.557 39.942,68 41.392,66.882C42.843,65.766 43.82,63.902 44.33,61.291C44.815,58.783 44.594,57.014 43.665,55.983C42.734,54.953 40.874,54.437 38.081,54.437L33.045,54.437L30.302,68.557M40.865,49.112C45.117,49.112 48.218,50.229 50.168,52.46C52.118,54.692 52.704,57.807 51.928,61.806C51.606,63.454 51.065,64.96 50.303,66.324C49.539,67.69 48.543,68.938 47.312,70.071C45.844,71.444 44.215,72.423 42.42,73.006C40.626,73.59 38.34,73.881 35.563,73.881L29.267,73.881L27.524,82.851L20.174,82.851L26.732,49.112L40.865,49.112" style="fill:white;fill-rule:nonzero;"/>
        </g>
        <g transform="matrix(0.978125,0,0,0.978125,1.4,1.4)">
            <path d="M69.459,74.577C69.459,74.577 69.458,74.577 69.458,74.577C69.077,74.577 68.764,74.264 68.764,73.883C68.764,73.838 68.768,73.794 68.777,73.75L71.677,58.822C71.954,57.402 71.886,56.384 71.487,55.952C71.242,55.689 70.508,55.248 68.337,55.248L63.081,55.248L59.435,74.016C59.371,74.341 59.083,74.577 58.752,74.576C58.752,74.576 51.462,74.576 51.462,74.576C51.08,74.576 50.767,74.262 50.767,73.881C50.767,73.837 50.771,73.793 50.779,73.75L57.337,40.011C57.401,39.686 57.688,39.45 58.019,39.45C58.019,39.45 65.309,39.45 65.309,39.45C65.691,39.45 66.004,39.764 66.004,40.145C66.004,40.189 66,40.233 65.992,40.276L64.41,48.42L70.063,48.42C74.37,48.42 77.29,49.178 78.991,50.741C80.724,52.334 81.266,54.881 80.599,58.314L77.548,74.016C77.484,74.34 77.197,74.576 76.866,74.576L69.459,74.576L69.459,74.577Z" style="fill-rule:nonzero;"/>
        </g>
        <g transform="matrix(0.978125,0,0,0.978125,1.4,1.4)">
            <path d="M65.31,38.755L58.019,38.755C57.357,38.755 56.782,39.229 56.655,39.879L50.098,73.617C50.081,73.704 50.073,73.792 50.073,73.881C50.073,74.643 50.699,75.27 51.461,75.271L58.752,75.271C59.414,75.271 59.989,74.797 60.116,74.147L63.653,55.942L68.335,55.942C70.503,55.942 70.959,56.405 70.976,56.426C71.108,56.566 71.281,57.221 70.995,58.69L68.095,73.617C68.078,73.704 68.07,73.792 68.07,73.881C68.07,74.643 68.697,75.271 69.459,75.271L76.867,75.271C77.529,75.27 78.103,74.797 78.23,74.147L81.281,58.447C81.996,54.761 81.384,51.997 79.461,50.23C77.625,48.544 74.551,47.725 70.063,47.725L65.253,47.725L66.674,40.41C66.691,40.323 66.699,40.234 66.699,40.145C66.699,39.383 66.072,38.755 65.31,38.755ZM65.31,40.145L63.567,49.113L70.063,49.113C74.15,49.113 76.97,49.827 78.52,51.253C80.073,52.679 80.537,54.988 79.918,58.183L76.866,73.882L69.459,73.882L72.36,58.954C72.69,57.256 72.568,56.098 71.995,55.48C71.422,54.863 70.202,54.554 68.337,54.554L62.508,54.554L58.752,73.881L51.46,73.881L58.018,40.142L65.31,40.142L65.31,40.145Z" style="fill:white;fill-rule:nonzero;"/>
        </g>
        <g transform="matrix(0.978125,0,0,0.978125,1.4,1.4)">
            <path d="M92.136,67.864C94.929,67.864 97.014,67.349 98.334,66.334C99.638,65.328 100.54,63.587 101.013,61.159C101.453,58.889 101.286,57.305 100.513,56.449C99.725,55.575 98.02,55.132 95.446,55.132L90.983,55.132L88.508,67.864L92.136,67.864ZM77.54,83.547C77.54,83.547 77.539,83.547 77.539,83.547C77.158,83.547 76.845,83.234 76.845,82.853C76.845,82.808 76.849,82.763 76.858,82.719L83.415,48.981C83.479,48.656 83.766,48.42 84.097,48.42L98.23,48.42C102.672,48.42 105.978,49.626 108.056,52.005C110.145,54.395 110.79,57.739 109.973,61.94C109.661,63.595 109.087,65.189 108.274,66.664C107.446,68.128 106.39,69.452 105.146,70.584C103.616,72.016 101.881,73.056 99.999,73.667C98.147,74.271 95.767,74.577 92.928,74.577L87.205,74.577L85.572,82.985C85.509,83.31 85.221,83.547 84.889,83.547L77.54,83.547Z" style="fill-rule:nonzero;"/>
        </g>
        <g transform="matrix(0.978125,0,0,0.978125,1.4,1.4)">
            <path d="M91.555,55.826L95.446,55.826C98.553,55.826 99.632,56.508 99.998,56.915C100.608,57.589 100.722,59.012 100.331,61.027C99.891,63.284 99.077,64.885 97.91,65.783C96.715,66.703 94.771,67.169 92.137,67.169L89.351,67.169L91.555,55.827L91.555,55.826ZM98.229,47.726L84.096,47.726C83.434,47.727 82.86,48.2 82.733,48.849L76.175,82.588C76.158,82.675 76.15,82.763 76.15,82.851C76.15,83.613 76.777,84.241 77.539,84.241L84.889,84.241C85.551,84.24 86.125,83.767 86.252,83.117L87.777,75.271L92.927,75.271C95.838,75.271 98.291,74.953 100.213,74.327C102.191,73.685 104.01,72.596 105.621,71.089C106.917,69.908 108.017,68.529 108.879,67.003C109.711,65.516 110.307,63.856 110.654,62.072C111.514,57.649 110.816,54.108 108.578,51.548C106.362,49.011 102.881,47.725 98.228,47.725L98.229,47.726ZM87.666,68.557L92.136,68.557C95.1,68.557 97.306,68 98.758,66.882C100.208,65.766 101.186,63.902 101.694,61.291C102.181,58.783 101.96,57.014 101.029,55.983C100.099,54.953 98.238,54.437 95.446,54.437L90.411,54.437L87.666,68.557ZM98.229,49.112C102.48,49.112 105.583,50.229 107.532,52.46C109.482,54.692 110.069,57.807 109.291,61.806C108.971,63.454 108.429,64.96 107.667,66.324C106.904,67.69 105.907,68.938 104.675,70.071C103.208,71.444 101.578,72.423 99.783,73.006C97.99,73.59 95.705,73.881 92.927,73.881L86.632,73.881L84.887,82.851L77.537,82.851L84.095,49.112L98.228,49.112" style="fill:white;fill-rule:nonzero;"/>
        </g>
    </g>
    <defs>
        <radialGradient id="_Radial1" cx="0" cy="0" r="1" gradientUnits="userSpaceOnUse" gradientTransform="matrix(84.0414,0,0,84.0414,38.426,42.169)"><stop offset="0" style="stop-color:rgb(174,178,213);stop-opacity:1"/><stop offset="0.3" style="stop-color:rgb(174,178,213);stop-opacity:1"/><stop offset="0.75" style="stop-color:rgb(72,76,137);stop-opacity:1"/><stop offset="1" style="stop-color:rgb(72,76,137);stop-opacity:1"/></radialGradient>
    </defs>
</svg>
