<svg xmlns="http://www.w3.org/2000/svg" xml:space="preserve" style="fill-rule:evenodd;clip-rule:evenodd;stroke-linejoin:round;stroke-miterlimit:2" viewBox="0 0 1200 900"><path d="M0 0h1200v900H0z" style="fill:#022846"/><path d="M63.391 1.988c-4.222.02-8.252.379-11.8 1.007-10.45 1.846-12.346 5.71-12.346 12.837v9.411h24.693v3.137H29.977c-7.176 0-13.46 4.313-15.426 12.521-2.268 9.405-2.368 15.275 0 25.096 1.755 7.311 5.947 12.519 13.124 12.519h8.491V67.234c0-8.151 7.051-15.34 15.426-15.34h24.665c6.866 0 12.346-5.654 12.346-12.548V15.833c0-6.693-5.646-11.72-12.346-12.837-4.244-.706-8.645-1.027-12.866-1.008M50.037 9.557c2.55 0 4.634 2.117 4.634 4.721 0 2.593-2.083 4.69-4.634 4.69-2.56 0-4.633-2.097-4.633-4.69-.001-2.604 2.073-4.721 4.633-4.721" style="fill:url(#a);fill-rule:nonzero" transform="translate(229.003 138.481)scale(5.7967)"/><path d="M91.682 28.379v10.967c0 8.5-7.208 15.655-15.426 15.655H51.591c-6.756 0-12.346 5.783-12.346 12.549v23.515c0 6.691 5.818 10.628 12.346 12.547 7.816 2.297 15.312 2.713 24.665 0 6.216-1.801 12.346-5.423 12.346-12.547v-9.412H63.938v-3.138h37.012c7.176 0 9.852-5.005 12.348-12.519 2.578-7.735 2.467-15.174 0-25.096-1.774-7.145-5.161-12.521-12.348-12.521zM77.809 87.927c2.561 0 4.634 2.097 4.634 4.692 0 2.602-2.074 4.719-4.634 4.719-2.55 0-4.633-2.117-4.633-4.719 0-2.595 2.083-4.692 4.633-4.692" style="fill:url(#b);fill-rule:nonzero" transform="translate(229.003 138.481)scale(5.7967)"/><defs><linearGradient id="a" x1="0" x2="1" y1="0" y2="0" gradientTransform="rotate(40.958 -1.433 16.304)scale(74.8544)" gradientUnits="userSpaceOnUse"><stop offset="0" style="stop-color:#5a9fd4;stop-opacity:1"/><stop offset="1" style="stop-color:#306998;stop-opacity:1"/></linearGradient><linearGradient id="b" x1="0" x2="1" y1="0" y2="0" gradientTransform="rotate(234.985 66.136 18.761)scale(35.1798)" gradientUnits="userSpaceOnUse"><stop offset="0" style="stop-color:#ffd43b;stop-opacity:1"/><stop offset="1" style="stop-color:#ffe873;stop-opacity:1"/></linearGradient></defs></svg>