<?xml version="1.0" encoding="UTF-8" standalone="no"?>
<!DOCTYPE svg PUBLIC "-//W3C//DTD SVG 1.1//EN" "http://www.w3.org/Graphics/SVG/1.1/DTD/svg11.dtd">
<svg width="100%" height="100%" viewBox="0 0 1200 900" version="1.1" xmlns="http://www.w3.org/2000/svg" xmlns:xlink="http://www.w3.org/1999/xlink" xml:space="preserve" xmlns:serif="http://www.serif.com/" style="fill-rule:evenodd;clip-rule:evenodd;stroke-linejoin:round;stroke-miterlimit:2;">
    <rect x="0" y="0" width="1200" height="900" style="fill:rgb(34,34,34);"/>
    <g transform="matrix(4.96783,0,0,4.96783,282.056,132.059)">
        <g transform="matrix(0.973125,0,0,0.973125,1.72657,1.66514)">
            <path d="M100.1,38.3L90.9,47.5C106,62.6 106,86.9 90.9,101.8C75.8,116.9 51.5,116.9 36.6,101.8C21.5,86.7 21.5,62.4 36.6,47.5L64,20.1L64,2L27.8,38.2C7.7,58.3 7.7,90.8 27.8,111C47.9,131.2 80.4,131.1 100.2,111C120.3,90.8 120.3,58.5 100.1,38.3Z" style="fill:rgb(238,76,44);fill-rule:nonzero;"/>
        </g>
        <g transform="matrix(0.0180187,-0.972929,0.972929,0.0180187,51.5081,109.593)">
            <circle cx="82.1" cy="29.4" r="6.7" style="fill:rgb(238,76,44);"/>
        </g>
    </g>
</svg>
