<?xml version="1.0" encoding="UTF-8" standalone="no"?>
<!DOCTYPE svg PUBLIC "-//W3C//DTD SVG 1.1//EN" "http://www.w3.org/Graphics/SVG/1.1/DTD/svg11.dtd">
<svg width="100%" height="100%" viewBox="0 0 1200 900" version="1.1" xmlns="http://www.w3.org/2000/svg" xmlns:xlink="http://www.w3.org/1999/xlink" xml:space="preserve" xmlns:serif="http://www.serif.com/" style="fill-rule:evenodd;clip-rule:evenodd;stroke-linejoin:round;stroke-miterlimit:2;">
    <rect x="0" y="0" width="1200" height="900" style="fill:rgb(11,46,15);"/>
    <g transform="matrix(4.67115,0,0,4.67115,301.13,151.247)">
        <path d="M17.576,17L-0.242,34.688L-0.242,110.914L110.39,110.914L128.206,93.227L128.206,17L17.576,17ZM47.566,33.426C55.926,33.426 61.794,35.773 65.121,40.512C68.491,45.202 70.154,52.462 70.154,62.285C70.154,68.758 69.454,73.973 68.1,77.93C66.697,81.926 64.466,84.969 61.313,87.055L68.143,97.965L59.779,101.832L52.557,90.055C51.507,90.402 49.842,90.531 47.567,90.531C39.117,90.531 33.207,88.273 29.881,83.754C26.554,79.234 24.891,72.064 24.891,62.328C24.891,52.551 26.597,45.293 29.967,40.555C33.337,35.815 39.247,33.425 47.567,33.425L47.566,33.426ZM81.492,36.598L90.297,36.598L90.297,48.289L101.504,48.289L101.504,55.766L90.297,55.766L90.297,73.539C90.297,76.844 90.555,79.016 91.037,80.102C91.519,81.188 92.787,81.711 94.76,81.711L101.412,81.449L101.809,88.489C98.175,89.183 95.416,89.531 93.492,89.531C88.893,89.531 85.739,88.488 84.033,86.402C82.326,84.316 81.449,80.363 81.449,74.539L81.449,55.811L75.279,55.811L75.279,48.289L81.492,48.289L81.492,36.598ZM47.612,41.293C42.532,41.293 39.031,42.945 37.102,46.289C35.222,49.637 34.258,54.939 34.258,62.285C34.258,69.585 35.178,74.844 37.016,77.973C38.853,81.102 42.4,82.711 47.611,82.711C52.818,82.711 56.322,81.145 58.161,78.059C59.957,74.973 60.873,69.715 60.873,62.371C60.873,54.984 59.956,49.637 58.073,46.289C56.193,42.945 52.731,41.293 47.611,41.293L47.612,41.293Z" style="fill:rgb(65,205,82);fill-rule:nonzero;"/>
    </g>
</svg>
