<svg xmlns="http://www.w3.org/2000/svg" xml:space="preserve" style="fill-rule:evenodd;clip-rule:evenodd;stroke-linejoin:round;stroke-miterlimit:2" viewBox="0 0 1200 900"><path d="M0 0h1200v900H0z" style="fill:#ff9676"/><path d="M110.431 16.936C98.552-.076 75.089-5.118 58.131 5.696l-29.793 19a34.2 34.2 0 0 0-15.48 22.897 36.6 36.6 0 0 0-.572 6.396 36.15 36.15 0 0 0 4.163 16.73 34.4 34.4 0 0 0-5.11 12.782 36.48 36.48 0 0 0 6.245 27.564c11.878 17.011 35.394 22.053 52.3 11.24l29.762-19.001a34.12 34.12 0 0 0 15.438-22.918c.383-2.107.575-4.244.572-6.386a36.2 36.2 0 0 0-4.112-16.709 34.4 34.4 0 0 0 5.112-12.771c.369-2.109.557-4.245.562-6.386a36.4 36.4 0 0 0-6.787-21.178z" style="fill:#ff3e00;fill-rule:nonzero" transform="translate(300.001 150.002)scale(4.68748)"/><path d="M55.219 112.662a24 24 0 0 1-5.954.76 23.63 23.63 0 0 1-19.434-10.187 21.9 21.9 0 0 1-4.081-12.74c.002-1.288.113-2.572.333-3.833.179-.949.419-1.879.719-2.782l.562-1.708 1.519 1.156a38.7 38.7 0 0 0 11.659 5.834l1.104.333-.104 1.104v.573a6.62 6.62 0 0 0 1.228 3.854 7.09 7.09 0 0 0 5.85 3.125 7 7 0 0 0 1.79-.229 6.5 6.5 0 0 0 1.833-.802l29.76-19.094a6.25 6.25 0 0 0 2.904-5.302 6.6 6.6 0 0 0-1.26-3.844 7.125 7.125 0 0 0-7.651-2.832 6.2 6.2 0 0 0-1.821.801l-11.346 7.25a21.9 21.9 0 0 1-6.048 2.656 23.642 23.642 0 0 1-16.921-1.938 23.66 23.66 0 0 1-8.468-7.478 21.95 21.95 0 0 1-4.08-12.74c.001-1.285.113-2.567.332-3.833a20.66 20.66 0 0 1 9.286-13.781l29.792-18.99a21.9 21.9 0 0 1 6.048-2.667 24 24 0 0 1 5.954-.75 23.676 23.676 0 0 1 19.497 10.167 21.94 21.94 0 0 1 4.029 12.75 22.6 22.6 0 0 1-.334 3.844 21 21 0 0 1-.718 2.781l-.562 1.708-1.52-1.114a38.4 38.4 0 0 0-11.658-5.834l-1.104-.343.104-1.105v-.572a6.7 6.7 0 0 0-1.228-3.865 7.13 7.13 0 0 0-5.851-3.063 7 7 0 0 0-1.769.271 6.1 6.1 0 0 0-1.831.802l-29.793 18.99a6.25 6.25 0 0 0-2.799 4.167 7 7 0 0 0-.136 1.104 6.6 6.6 0 0 0 1.228 3.844 7.12 7.12 0 0 0 7.64 2.832 6.2 6.2 0 0 0 1.833-.801l11.367-7.292a21.8 21.8 0 0 1 6.048-2.656 23.664 23.664 0 0 1 25.399 9.417 21.93 21.93 0 0 1 4.08 12.74 21.5 21.5 0 0 1-.343 3.874 20.601 20.601 0 0 1-9.286 13.781l-29.74 18.99a21.8 21.8 0 0 1-6.057 2.667z" style="fill:#fff;fill-rule:nonzero" transform="translate(300.001 150.002)scale(4.68748)"/></svg>