<svg xmlns="http://www.w3.org/2000/svg" xml:space="preserve" style="fill-rule:evenodd;clip-rule:evenodd;stroke-linejoin:round;stroke-miterlimit:2" viewBox="0 0 2400 1600"><path d="M0 0h2400v1600H0z" style="fill:#ff845f" transform="translate(0 .001)scale(1.00001)"/><path d="M94.157 22.819c-10.4-14.885-30.94-19.297-45.792-9.835L22.283 29.608A29.93 29.93 0 0 0 8.764 49.651a31.52 31.52 0 0 0 3.107 20.231 30 30 0 0 0-4.476 11.183 31.9 31.9 0 0 0 5.448 24.116c10.402 14.887 30.942 19.297 45.791 9.835l26.083-16.624a29.93 29.93 0 0 0 13.518-20.043 31.53 31.53 0 0 0-3.105-20.232 30 30 0 0 0 4.474-11.182 31.9 31.9 0 0 0-5.447-24.116" style="fill:#ff3e00;fill-rule:nonzero" transform="translate(699.76 201.582)scale(9.35028)"/><path d="M45.817 106.582c-8.388 2.18-17.297-1.122-22.237-8.243a19.18 19.18 0 0 1-3.277-14.503q.228-1.24.624-2.435l.491-1.498 1.336.981a33.6 33.6 0 0 0 10.203 5.098l.97.294-.09.968a5.86 5.86 0 0 0 1.052 3.878 6.25 6.25 0 0 0 6.696 2.485 5.8 5.8 0 0 0 1.602-.704L69.27 76.281a5.43 5.43 0 0 0 2.451-3.631 5.8 5.8 0 0 0-.988-4.371 6.255 6.255 0 0 0-6.698-2.487 5.8 5.8 0 0 0-1.6.704l-9.953 6.345a19 19 0 0 1-5.296 2.326c-8.388 2.181-17.297-1.122-22.237-8.243a19.18 19.18 0 0 1-3.277-14.502 18 18 0 0 1 8.13-12.052l26.081-16.623a19 19 0 0 1 5.3-2.329c8.388-2.18 17.297 1.122 22.237 8.243a19.18 19.18 0 0 1 3.277 14.503 18 18 0 0 1-.624 2.435l-.491 1.498-1.335-.98a33.6 33.6 0 0 0-10.204-5.1l-.97-.294.09-.968a5.87 5.87 0 0 0-1.052-3.878 6.25 6.25 0 0 0-6.696-2.485 5.8 5.8 0 0 0-1.602.704L37.73 51.719a5.43 5.43 0 0 0-2.449 3.63 5.8 5.8 0 0 0 .986 4.372 6.26 6.26 0 0 0 6.698 2.486 5.8 5.8 0 0 0 1.602-.704l9.952-6.342a19 19 0 0 1 5.295-2.328c8.388-2.181 17.298 1.121 22.237 8.242a19.18 19.18 0 0 1 3.277 14.503 18 18 0 0 1-8.13 12.053l-26.081 16.622a19 19 0 0 1-5.3 2.329" style="fill:#fff;fill-rule:nonzero" transform="translate(699.76 201.582)scale(9.35028)"/></svg>