<svg xmlns="http://www.w3.org/2000/svg" id="Layer_1" data-name="Layer 1" viewBox="0 0 2400 1600"><defs><style>.cls-2{fill:#f6bd3a}.cls-5{fill:#ef6639}</style></defs><path d="M0 0h2400v1600H0z" style="fill:#444"/><path d="m1167 674.63 88.33-51.1 87.07 51.1-87.07 50.27-88.33-49.07Z" class="cls-2"/><path d="m901.87 523.18 353.41-200.73 263 149.49-87.42 151.59-175.58-100.35-265 150.43Z" class="cls-2"/><path d="M1167 875.36V775.29l87.12-50.39 88.28-50.27v100.66l-87.07 50v100.14l-88.33 51.3Zm0-200.73-88.3-50-88.39 49V573.34l265-150.54v200.72Zm262.67-101.28v-50.17l88.62-51.24.89 100.35-88.31 51.24Z" style="fill:#eb8c23"/><path d="M1078.65 923.58v-299l87.09-49 1.21 99 88.33 49.42v101.3l-88.33-47v198.43ZM945.43 647.51l-43.56-26.08v-98.25l88.39 50.17v100.26Zm309.85-124.33V422.8l174.34 100.38 1.2 100.35Z" style="fill:#e35a2b"/><path d="M593.69 1082.4v191.36H560V1082.4h-65.43v-33h164.58v33Z" class="cls-5"/><path d="M770.6 1152.05c2.94 10.13 3 23.91 2.72 25.26l-108.7 32.43c.93 8.07.57 4.8 3.2 10.43 2.63 5.89 5.75 10.9 9.64 14.49a44.6 44.6 0 0 0 12.86 8.37 40.3 40.3 0 0 0 14.7 2.72 47.4 47.4 0 0 0 19.35-3.66 70.6 70.6 0 0 0 17.17-9.7l19.67 20.83a81.4 81.4 0 0 1-25.13 16.43c-9 4.11-20 5.74-33 5.74a65.7 65.7 0 0 1-28-5.74 68.6 68.6 0 0 1-23.2-16.78 82.2 82.2 0 0 1-15.71-27.61c-4-10.86-5.85-23.27-5.85-37.23 0-14.55 1.72-27.25 5.44-38.13a83.2 83.2 0 0 1 15-27.34 63.5 63.5 0 0 1 23.24-16.73 75.2 75.2 0 0 1 30.09-5.89c11.92 0 22.27 2.33 31.21 6.78a61.65 61.65 0 0 1 22.09 18.34 75 75 0 0 1 13.21 26.99m-31.6 7.39c-.32-5.53-4.38-12.5-7.76-17a26.65 26.65 0 0 0-11.88-9.2 45.2 45.2 0 0 0-17.59-2.47c-11 .43-23.27 4.11-29.47 12.73s-8 22.79-7.72 38.18Zm153.72 112.68v-95.4c0-17.29-3.11-29.15-9.23-36S869 1130.48 858 1130.48s-19.56 3.86-25.53 11.06c-6.12 7.73-9 18.13-9 31.79v98.79h-33.03v-168.61h33.07v16.13c4.13-6.21 10.21-11 17.81-14.43a59.1 59.1 0 0 1 24.44-5.27q29.63 0 44.76 19.07c10.14 12.52 15.27 31.35 15.27 56.47v96.64Zm168.78-44.37c0 9.32-1.72 17.1-5.2 23.65a47.2 47.2 0 0 1-14 15.28 66.1 66.1 0 0 1-20.09 8.37 124.3 124.3 0 0 1-23.81 2.5 102.7 102.7 0 0 1-34.51-6.35 115.1 115.1 0 0 1-30.16-15.32l15.16-24.8a93.1 93.1 0 0 0 24.62 12.37 79 79 0 0 0 24.44 4.16q30.81 0 30.85-18.61c0-6.23-3.42-11.7-10.32-15.51a246 246 0 0 0-28.9-12.72 163 163 0 0 1-22.78-10.47 60 60 0 0 1-15.47-11.55 36.5 36.5 0 0 1-8.6-13.57 56.9 56.9 0 0 1-2.49-17.31c0-7.72 1.4-14.26 4.19-19.86a36.3 36.3 0 0 1 11.93-14.43 50.25 50.25 0 0 1 18.17-8.82 91.4 91.4 0 0 1 23.25-2.87 96 96 0 0 1 31 5.18 98.5 98.5 0 0 1 26.14 13.43l-14.42 25.22a89.7 89.7 0 0 0-20.94-10.84 76.6 76.6 0 0 0-22.8-3.34c-8.07 0-14 1.4-17.54 4.34a13.32 13.32 0 0 0-5.52 11.12 11 11 0 0 0 1.29 5.6 12.2 12.2 0 0 0 4.81 5.66c2.18 2.16 5.5 3.92 9.38 6.11 3.89 1.91 9.23 4.41 15.53 6.91 9.52 3.43 17.74 7.2 24.8 10.19 6.91 3.54 13 7.12 17.84 11.3a40.1 40.1 0 0 1 10.64 14.85c2.45 5.51 3.54 12.35 3.54 20.12Zm153.74-38.93c0 14-1.87 26.45-5.89 37.46a81.6 81.6 0 0 1-15.92 28.06 71.2 71.2 0 0 1-24.13 17.08 76.7 76.7 0 0 1-30.22 6.12 69.7 69.7 0 0 1-29.47-6.54 64.5 64.5 0 0 1-23.43-17.79 78.8 78.8 0 0 1-15.45-27.61c-3.86-10.57-5.65-22.37-5.65-35.86 0-13.77 1.87-26 5.72-36.9a83.4 83.4 0 0 1 15.83-27.56 67.85 67.85 0 0 1 23.83-17.37 73.6 73.6 0 0 1 29.7-6 72.4 72.4 0 0 1 29.85 6.22 75 75 0 0 1 23.9 17.58 81.4 81.4 0 0 1 15.67 27.38 107.3 107.3 0 0 1 5.66 35.76Zm-33.5.92c0-17.21-3.66-30.94-11.26-41.31-7.6-9.81-18.21-15.1-31.57-15.1-12.71 0-22.64 5.29-29.7 15.1-7.28 10.37-10.85 23.65-10.85 40.39 0 18.81 3.95 32.66 11.69 42.44s17.85 14.93 30.32 14.93a33.2 33.2 0 0 0 17.16-4.63 48.9 48.9 0 0 0 13.15-11.9 67 67 0 0 0 8.27-17.88 78.3 78.3 0 0 0 2.82-22.04Zm140.12-49.46a120 120 0 0 0-11.32-4.28 49.7 49.7 0 0 0-14.17-1.64c-10.54 0-18.61 3.58-24.41 11-5.69 7.16-8.63 18.15-8.63 32.14v96.25h-33v-168.38h33v16.13c3.79-5.59 9.22-10.17 15.89-14a47.1 47.1 0 0 1 22.58-5.57 69.3 69.3 0 0 1 17 1.84 34.7 34.7 0 0 1 11.47 5.2Z" class="cls-5"/><path d="M1377.08 1082.4v58.78h64.7v33h-64.7v99.54h-33.38v-224.37h144.73v33.05Zm116.8 191.36v-216.48l33-17.37v233.85Zm201.53-84.94c0 14-1.59 26.45-5.63 37.46a87.4 87.4 0 0 1-16.09 28.06 70.4 70.4 0 0 1-23.83 17.08 78.3 78.3 0 0 1-30.31 6.12 68 68 0 0 1-29.48-6.54 62.56 62.56 0 0 1-23.43-17.79 83.4 83.4 0 0 1-15.73-27.61 110.6 110.6 0 0 1-5.65-35.86 112.9 112.9 0 0 1 5.87-36.9 78.1 78.1 0 0 1 16.06-27.56 68.1 68.1 0 0 1 23.44-17.37 76.2 76.2 0 0 1 30-6 70.8 70.8 0 0 1 29.65 6.22 72.2 72.2 0 0 1 24.1 17.58 78.7 78.7 0 0 1 15.42 27.38c4.12 10.72 5.63 22.9 5.63 35.76Zm-33.18.92c0-17.21-4-30.94-11.29-41.31-7.88-9.81-18.21-15.1-31.56-15.1-12.72 0-22.72 5.29-30 15.1-7.08 10.37-10.65 23.65-10.65 40.39 0 18.81 3.74 32.66 11.78 42.44a36.79 36.79 0 0 0 30.37 14.93 31.6 31.6 0 0 0 16.82-4.63 51.2 51.2 0 0 0 13.46-11.9 70.2 70.2 0 0 0 8.3-17.88 93.6 93.6 0 0 0 2.77-22.04m196.36 84h-28.27l-22.77-84.94c-1.9-6.41-3.37-12.87-4.79-19.77-1.66-6.82-2.83-12.18-4-16.21q-1.63 8.17-3.51 16.3c-1.63 6.82-3.41 13.65-4.82 20.14l-22.56 84.48h-28.45l-46-168.39H1726l20.13 81.76c1.55 6.72 3.07 13.63 4.53 20.5s2.64 12.42 3.85 16.53l4.18-16.53c1.42-6.87 3.13-13.78 5-20.5l22.59-81.76h26.3l23.08 82.21c1.63 6.57 3.07 13.19 4.75 20s3 12.43 4 16.54c1.19-4.11 2.53-9.69 3.94-16.67 1.34-6.73 2.76-13.64 4.44-20.37l20.14-81.76h32.58Z" style="fill:#a6a7a9"/></svg>