<svg xmlns="http://www.w3.org/2000/svg" xml:space="preserve" style="fill-rule:evenodd;clip-rule:evenodd;stroke-linejoin:round;stroke-miterlimit:2" viewBox="0 0 1200 900"><path d="M0 0h1200v900H0z" style="fill:#003556"/><path d="M22.67 47h99.67v73.67H22.67z" style="fill:#fff;fill-rule:nonzero" transform="matrix(4.8 0 0 4.8 292.8 143.232)"/><path d="M1.5 1.41v125h125v-125zm100.73 57.5a15.56 15.56 0 0 1 7.82 4.5 20.6 20.6 0 0 1 3 4c0 .16-5.4 3.81-8.69 5.85-.12.08-.6-.44-1.13-1.23a7.1 7.1 0 0 0-5.87-3.53c-3.79-.26-6.23 1.73-6.21 5a4.6 4.6 0 0 0 .54 2.34c.83 1.73 2.38 2.76 7.24 4.86 8.95 3.85 12.78 6.39 15.16 10 2.66 4 3.25 10.46 1.45 15.24-2 5.2-6.9 8.73-13.83 9.9a38.3 38.3 0 0 1-9.52-.1 23 23 0 0 1-12.72-6.63c-1.15-1.27-3.39-4.58-3.25-4.82a9 9 0 0 1 1.15-.73L82 101l3.59-2.08.75 1.11a16.8 16.8 0 0 0 4.74 4.54c4 2.1 9.46 1.81 12.16-.62a5.45 5.45 0 0 0 .69-6.92c-1-1.39-3-2.56-8.59-5-6.45-2.78-9.23-4.5-11.77-7.24a16.5 16.5 0 0 1-3.43-6.25 25 25 0 0 1-.22-8c1.33-6.23 6-10.58 12.82-11.87a31.7 31.7 0 0 1 9.49.26zm-29.34 5.24v5.12H56.66v46.23H45.15V69.26H28.88v-5a49 49 0 0 1 .12-5.17C29.08 59 39 59 51 59h21.83z" style="fill:#007acc;fill-rule:nonzero" transform="matrix(4.8 0 0 4.8 292.8 143.232)"/></svg>