<svg id="Layer_1" data-name="Layer 1" xmlns="http://www.w3.org/2000/svg" xmlns:xlink="http://www.w3.org/1999/xlink" viewBox="0 0 2400 1800"><defs><style>.cls-1{fill:url(#linear-gradient);}.cls-2{fill:none;}.cls-3{fill:#fff;}</style><linearGradient id="linear-gradient" x1="150" y1="-150" x2="2250" y2="1950" gradientUnits="userSpaceOnUse"><stop offset="0" stop-color="#fdb728"/><stop offset="1" stop-color="#ee253c"/></linearGradient></defs><rect class="cls-1" width="2400" height="1800"/><circle class="cls-2" cx="990.28" cy="879.37" r="108.46" transform="translate(-331.76 957.8) rotate(-45)"/><circle class="cls-2" cx="1409.72" cy="879.37" r="108.46"/><path class="cls-3" d="M1510.39,608.6H889.61a121.29,121.29,0,0,0-121.3,121.3v515.86a121.3,121.3,0,0,0,121.3,121.3h620.78a121.3,121.3,0,0,0,121.3-121.3V729.9A121.29,121.29,0,0,0,1510.39,608.6ZM1409.72,770.91a108.46,108.46,0,1,1-108.47,108.46A108.46,108.46,0,0,1,1409.72,770.91Zm-419.44,0A108.46,108.46,0,1,1,881.82,879.37,108.45,108.45,0,0,1,990.28,770.91Zm527.9,394.73a43.69,43.69,0,0,1-43.69,43.69h-549a43.69,43.69,0,0,1-43.69-43.69h0A43.69,43.69,0,0,1,925.51,1122h549a43.69,43.69,0,0,1,43.69,43.68Z"/><rect class="cls-3" x="1179.52" y="1121.96" width="40.96" height="87.37"/><rect class="cls-3" x="969.81" y="1121.96" width="40.96" height="87.37"/><rect class="cls-3" x="1389.24" y="1121.96" width="40.96" height="87.37"/><rect class="cls-3" x="1074.66" y="1121.96" width="40.96" height="87.37"/><rect class="cls-3" x="1284.38" y="1121.96" width="40.96" height="87.37"/><rect class="cls-3" x="610.71" y="816.64" width="132.54" height="342.37" rx="37.33"/><rect class="cls-3" x="1656.75" y="816.64" width="132.54" height="342.37" rx="37.33"/><circle class="cls-3" cx="1200" cy="445.79" r="125.97"/></svg>