<?xml version="1.0" encoding="UTF-8" standalone="no"?>
<!DOCTYPE svg PUBLIC "-//W3C//DTD SVG 1.1//EN" "http://www.w3.org/Graphics/SVG/1.1/DTD/svg11.dtd">
<svg width="100%" height="100%" viewBox="0 0 2400 1800" version="1.1" xmlns="http://www.w3.org/2000/svg" xmlns:xlink="http://www.w3.org/1999/xlink" xml:space="preserve" xmlns:serif="http://www.serif.com/" style="fill-rule:evenodd;clip-rule:evenodd;stroke-miterlimit:10;">
    <rect x="0" y="0" width="2400" height="1800" style="fill:url(#_Linear1);"/>
    <g transform="matrix(1,0,-2.18922,2.01903,1232.43,-732.325)">
        <rect x="913.404" y="647.449" width="505.102" height="62.796" style="fill:white;fill-opacity:0.76;"/>
    </g>
    <g transform="matrix(1.3238,0,-1.31156,1.2096,872.507,-46.8787)">
        <rect x="913.404" y="647.449" width="505.102" height="62.796" style="fill:white;fill-opacity:0.76;"/>
    </g>
    <g transform="matrix(0.581095,-0.53592,1.24432e-32,1,602.959,466.542)">
        <rect x="848.57" y="689.901" width="236.577" height="505.102" style="fill:white;fill-opacity:0.47;"/>
    </g>
    <g transform="matrix(0.348133,-0.321069,7.45471e-33,0.476583,1523.38,756.253)">
        <rect x="848.57" y="689.901" width="236.577" height="505.102" style="fill:white;fill-opacity:0.47;"/>
    </g>
    <g transform="matrix(1,0,0,1,4.90522,-15.8776)">
        <rect x="586.051" y="717.556" width="505.102" height="505.102" style="fill:white;"/>
    </g>
    <g transform="matrix(1.3238,0,0,0.477311,374.33,469.733)">
        <rect x="586.051" y="717.556" width="505.102" height="505.102" style="fill:white;"/>
    </g>
    <g transform="matrix(0.503041,0,-4.04624,3.73168,2631.96,-2075.51)">
        <rect x="913.404" y="647.449" width="505.102" height="62.796" style="fill:white;fill-opacity:0.76;"/>
    </g>
    <g transform="matrix(1.07401,-0.990518,-6.07709e-18,1.75123,-439.669,207.238)">
        <rect x="848.57" y="689.901" width="236.577" height="505.102" style="fill:white;fill-opacity:0.47;"/>
    </g>
    <g transform="matrix(0.503041,0,0,1.75123,-77.1885,-681.715)">
        <rect x="586.051" y="717.556" width="505.102" height="505.102" style="fill:white;"/>
    </g>
    <g transform="matrix(0.239791,0,0,0.23684,1852.7,681.641)">
        <path d="M1200,405.56L485.9,405.56L1200,900L485.9,900L1200,405.56Z" style="fill:none;fill-rule:nonzero;stroke:white;stroke-opacity:0.47;stroke-width:30px;"/>
    </g>
    <g transform="matrix(0.239791,0,0,0.23684,1852.7,681.641)">
        <path d="M1200,900L485.9,1394.44L1200,1394.44" style="fill:none;fill-rule:nonzero;stroke:white;stroke-opacity:0.51;stroke-width:30px;"/>
    </g>
    <g transform="matrix(0.239791,0,0,0.23684,1852.7,681.641)">
        <path d="M485.9,900L1200,1394.44L485.9,405.56" style="fill:none;fill-rule:nonzero;stroke:white;stroke-opacity:0.5;stroke-width:30px;"/>
    </g>
    <g transform="matrix(0.239791,0,0,0.23684,1852.7,681.641)">
        <path d="M1200,405.56L485.9,1394.44" style="fill:none;fill-rule:nonzero;stroke:white;stroke-opacity:0.48;stroke-width:30px;"/>
    </g>
    <g transform="matrix(0.239791,0,0,0.23684,1852.7,681.641)">
        <circle cx="485.9" cy="405.56" r="174.89" style="fill:white;"/>
    </g>
    <g transform="matrix(0.239791,0,0,0.23684,1852.7,681.641)">
        <circle cx="485.9" cy="900" r="174.89" style="fill:white;"/>
    </g>
    <g transform="matrix(0.239791,0,0,0.23684,1852.7,681.641)">
        <circle cx="485.9" cy="1394.44" r="174.89" style="fill:white;"/>
    </g>
    <g transform="matrix(0.239791,0,0,0.23684,1852.7,681.641)">
        <circle cx="1200" cy="405.56" r="174.89" style="fill:white;"/>
    </g>
    <g transform="matrix(0.239791,0,0,0.23684,1852.7,681.641)">
        <circle cx="1200" cy="900" r="174.89" style="fill:white;"/>
    </g>
    <g transform="matrix(0.239791,0,0,0.23684,1852.7,681.641)">
        <circle cx="1200" cy="1394.44" r="174.89" style="fill:white;"/>
    </g>
    <defs>
        <linearGradient id="_Linear1" x1="0" y1="0" x2="1" y2="0" gradientUnits="userSpaceOnUse" gradientTransform="matrix(2100,2100,-2100,2100,150,-150)"><stop offset="0" style="stop-color:rgb(21,202,255);stop-opacity:1"/><stop offset="1" style="stop-color:rgb(255,156,24);stop-opacity:1"/></linearGradient>
    </defs>
</svg>
