<svg id="Layer_1" data-name="Layer 1" xmlns="http://www.w3.org/2000/svg" xmlns:xlink="http://www.w3.org/1999/xlink" viewBox="0 0 2400 1800"><defs><style>.cls-1{fill:url(#linear-gradient);}.cls-2{fill:none;stroke:#86b4d1;stroke-miterlimit:10;stroke-width:30px;}.cls-3{fill:#fff;}</style><linearGradient id="linear-gradient" x1="150" y1="-150" x2="2250" y2="1950" gradientUnits="userSpaceOnUse"><stop offset="0" stop-color="#136cac"/><stop offset="1" stop-color="#4d4099"/></linearGradient></defs><rect class="cls-1" width="2400" height="1800"/><polygon class="cls-2" points="1200 405.56 485.9 405.56 1200 900 485.9 900 1200 405.56"/><polyline class="cls-2" points="1200 900 485.9 1394.44 1200 1394.44"/><polyline class="cls-2" points="485.9 900 1200 1394.44 485.9 405.56"/><line class="cls-2" x1="1200" y1="405.56" x2="485.9" y2="1394.44"/><polygon class="cls-2" points="1908.76 1147.22 1200 405.56 1908.76 652.78 1200 900 1908.76 1147.22"/><polyline class="cls-2" points="1908.76 652.78 1200 1394.44 1908.76 1147.22"/><circle class="cls-3" cx="485.9" cy="405.56" r="174.89"/><circle class="cls-3" cx="485.9" cy="900" r="174.89"/><circle class="cls-3" cx="485.9" cy="1394.44" r="174.89"/><circle class="cls-3" cx="1200" cy="405.56" r="174.89"/><circle class="cls-3" cx="1200" cy="900" r="174.89"/><circle class="cls-3" cx="1200" cy="1394.44" r="174.89"/><circle class="cls-3" cx="1908.76" cy="652.78" r="174.89"/><circle class="cls-3" cx="1908.76" cy="1147.22" r="174.89"/></svg>