<?xml version="1.0" encoding="UTF-8" standalone="no"?>
<!DOCTYPE svg PUBLIC "-//W3C//DTD SVG 1.1//EN" "http://www.w3.org/Graphics/SVG/1.1/DTD/svg11.dtd">
<svg width="100%" height="100%" viewBox="0 0 2400 1800" version="1.1" xmlns="http://www.w3.org/2000/svg" xmlns:xlink="http://www.w3.org/1999/xlink" xml:space="preserve" xmlns:serif="http://www.serif.com/" style="fill-rule:evenodd;clip-rule:evenodd;stroke-linecap:round;stroke-linejoin:round;stroke-miterlimit:1.5;">
    <rect x="0" y="0" width="2400" height="1800" style="fill:url(#_Linear1);"/>
    <g transform="matrix(1.63669,0,0,1.32469,95.1828,240.478)">
        <path d="M1200,235.201C1200,198.023 1175.57,167.839 1145.48,167.839L204.586,167.839C174.495,167.839 150.065,198.023 150.065,235.201L150.065,760.534C150.065,797.712 174.495,827.896 204.586,827.896L1145.48,827.896C1175.57,827.896 1200,797.712 1200,760.534L1200,235.201Z" style="fill:none;stroke:white;stroke-width:33.58px;"/>
    </g>
    <g transform="matrix(0.816668,0,0,0.816668,286.463,164.999)">
        <path d="M450.92,1435.33L450.92,364.67" style="fill:none;stroke:white;stroke-width:61.22px;"/>
    </g>
    <g transform="matrix(0.816668,0,0,0.816668,592.272,164.999)">
        <path d="M450.92,1435.33L450.92,364.67" style="fill:none;stroke:white;stroke-width:61.22px;"/>
    </g>
    <g transform="matrix(0.816668,0,0,0.816668,1315.7,164.999)">
        <path d="M450.92,1435.33L450.92,364.67" style="fill:none;stroke:white;stroke-width:61.22px;"/>
    </g>
    <g transform="matrix(8.18951,0,0,8.18951,-7239.02,-499.163)">
        <text x="931.644px" y="174.753px" style="font-family:'DankMono-Italic', 'Dank Mono', monospace;font-style:italic;font-size:12px;fill:white;">Code</text>
    </g>
    <g transform="matrix(8.18951,0,0,8.18951,-6927.67,-499.163)">
        <text x="931.644px" y="174.753px" style="font-family:'DankMono-Italic', 'Dank Mono', monospace;font-style:italic;font-size:12px;fill:white;">Heap</text>
    </g>
    <g transform="matrix(8.18951,0,0,8.18951,-6436.25,-558.127)">
        <text x="934.944px" y="174.753px" style="font-family:'DankMono-Italic', 'Dank Mono', monospace;font-style:italic;font-size:12px;fill:white;">Free</text>
        <text x="931.644px" y="189.153px" style="font-family:'DankMono-Italic', 'Dank Mono', monospace;font-style:italic;font-size:12px;fill:white;">Space</text>
    </g>
    <g transform="matrix(8.18951,0,0,8.18951,-5892.88,-490.728)">
        <text x="931.644px" y="174.753px" style="font-family:'DankMono-Italic', 'Dank Mono', monospace;font-style:italic;font-size:12px;fill:white;">Stack</text>
    </g>
    <g transform="matrix(0.464171,0,0,3.8981,539.63,-2543.92)">
        <path d="M906.765,894.312L906.765,877.008L1051.86,877.008L1051.86,860.941L1259.45,885.66L1051.86,910.379L1051.86,894.312L906.765,894.312Z" style="fill:white;"/>
    </g>
    <g transform="matrix(0.464171,0,0,3.8981,539.63,-2543.92)">
        <path d="M906.765,894.312L906.765,877.008L1051.86,877.008L1051.86,860.941L1259.45,885.66L1051.86,910.379L1051.86,894.312L906.765,894.312Z" style="fill:white;"/>
    </g>
    <g transform="matrix(-0.464171,5.68446e-17,-4.7738e-16,-3.8981,2105.13,4360.87)">
        <path d="M906.765,894.312L906.765,877.008L1051.86,877.008L1051.86,860.941L1259.45,885.66L1051.86,910.379L1051.86,894.312L906.765,894.312Z" style="fill:white;"/>
    </g>
    <defs>
        <linearGradient id="_Linear1" x1="0" y1="0" x2="1" y2="0" gradientUnits="userSpaceOnUse" gradientTransform="matrix(2192.6,2179.84,-2179.84,2192.6,179.943,-185.92)"><stop offset="0" style="stop-color:rgb(0,100,254);stop-opacity:1"/><stop offset="1" style="stop-color:rgb(249,255,96);stop-opacity:1"/></linearGradient>
    </defs>
</svg>
