<svg xmlns="http://www.w3.org/2000/svg" id="Layer_1" data-name="Layer 1" viewBox="0 0 2400 1800"><defs><linearGradient id="linear-gradient" x1="150" x2="2250" y1="-150" y2="1950" gradientUnits="userSpaceOnUse"><stop offset="0" stop-color="#fdb728"/><stop offset="1" stop-color="#ee253c"/></linearGradient><style>.cls-2{fill:none}.cls-3{fill:#fff}</style></defs><path d="M0 0h2400v1800H0z" style="fill:url(#linear-gradient)"/><circle cx="990.28" cy="879.37" r="108.46" class="cls-2" transform="rotate(-45 990.287 879.37)"/><circle cx="1409.72" cy="879.37" r="108.46" class="cls-2"/><path d="M1510.39 608.6H889.61a121.29 121.29 0 0 0-121.3 121.3v515.86a121.3 121.3 0 0 0 121.3 121.3h620.78a121.3 121.3 0 0 0 121.3-121.3V729.9a121.29 121.29 0 0 0-121.3-121.3m-100.67 162.31a108.46 108.46 0 1 1-108.47 108.46 108.46 108.46 0 0 1 108.47-108.46m-419.44 0a108.46 108.46 0 1 1-108.46 108.46 108.45 108.45 0 0 1 108.46-108.46m527.9 394.73a43.69 43.69 0 0 1-43.69 43.69h-549a43.69 43.69 0 0 1-43.69-43.69 43.69 43.69 0 0 1 43.71-43.64h549a43.69 43.69 0 0 1 43.69 43.68Z" class="cls-3"/><path d="M1179.52 1121.96h40.96v87.37h-40.96zm-209.71 0h40.96v87.37h-40.96zm419.43 0h40.96v87.37h-40.96zm-314.58 0h40.96v87.37h-40.96zm209.72 0h40.96v87.37h-40.96z" class="cls-3"/><rect width="132.54" height="342.37" x="610.71" y="816.64" class="cls-3" rx="37.33"/><rect width="132.54" height="342.37" x="1656.75" y="816.64" class="cls-3" rx="37.33"/><circle cx="1200" cy="445.79" r="125.97" class="cls-3"/></svg>