<svg xmlns="http://www.w3.org/2000/svg" xml:space="preserve" style="fill-rule:evenodd;clip-rule:evenodd;stroke-linejoin:round;stroke-miterlimit:2" viewBox="0 0 2400 1800"><path d="M0 0h2400v1800H0z" style="fill:url(#a)"/><path d="M708.542 461.709h982.918v142.202c0 78.483-220.22 142.201-491.46 142.201-271.243 0-491.458-63.718-491.458-142.201z" style="fill:#b3c8ff" transform="translate(-321.009 683.542)scale(.87139)"/><ellipse cx="1124.9" cy="392.181" rx="630.292" ry="142.202" style="fill:#fff" transform="matrix(.67945 0 0 .87139 -39.656 744.127)"/><path d="M708.542 461.709h982.918v142.202c0 78.483-220.22 142.201-491.46 142.201-271.243 0-491.458-63.718-491.458-142.201z" style="fill:#b3c8ff" transform="translate(-321.009 435.716)scale(.87139)"/><ellipse cx="1124.9" cy="392.181" rx="630.292" ry="142.202" style="fill:#fff" transform="matrix(.67945 0 0 .87139 -39.656 496.302)"/><path d="M708.542 461.709h982.918v142.202c0 78.483-220.22 142.201-491.46 142.201-271.243 0-491.458-63.718-491.458-142.201z" style="fill:#b3c8ff" transform="translate(-321.009 187.89)scale(.87139)"/><ellipse cx="1124.9" cy="392.181" rx="630.292" ry="142.202" style="fill:#fff" transform="matrix(.67945 0 0 .87139 -39.656 248.476)"/><path d="M1200 499.51v778.08c0 53.65 46.27 97.21 103.25 97.21h847.5c56.98 0 103.25-43.56 103.25-97.21V523.473H1200zm950.75-97.216h-847.5z" style="fill:#fff" transform="matrix(.83844 0 0 .8905 216.412 108.746)"/><path d="M2154.65 402.294H1339.2c-54.83 0-99.35 40.162-99.35 89.63v22.093H2254v-22.093c0-49.468-44.52-89.63-99.35-89.63" style="fill:#b3c8ff" transform="matrix(.87139 0 0 .96587 142.147 78.426)"/><path d="M1239.85 402.294H2254v111.723H1239.85z" style="fill:#b3c8ff" transform="matrix(.01775 0 0 7.75149 1327.76 -2651.38)"/><path d="M1239.85 402.294H2254v111.723H1239.85z" style="fill:#b3c8ff" transform="matrix(.01775 0 0 7.75149 1694.98 -2651.38)"/><path d="M1239.85 402.294H2254v111.723H1239.85z" style="fill:#b3c8ff" transform="matrix(.87139 0 0 .96587 142.147 294.246)"/><path d="M1239.85 402.294H2254v111.723H1239.85z" style="fill:#b3c8ff" transform="matrix(.87139 0 0 .96587 142.147 511.436)"/><path d="M1239.85 402.294H2254v111.723H1239.85z" style="fill:#b3c8ff" transform="matrix(.87139 0 0 .96587 142.147 727.257)"/><defs><linearGradient id="a" x1="0" x2="1" y1="0" y2="0" gradientTransform="matrix(2100 2100 -2100 2100 150 -150)" gradientUnits="userSpaceOnUse"><stop offset="0" style="stop-color:#b143ff;stop-opacity:1"/><stop offset="1" style="stop-color:#00c1ea;stop-opacity:1"/></linearGradient></defs></svg>