<svg xmlns="http://www.w3.org/2000/svg" xml:space="preserve" style="fill-rule:evenodd;clip-rule:evenodd;stroke-linecap:round;stroke-linejoin:round;stroke-miterlimit:1.5" viewBox="0 0 2400 1800"><path d="M0 0h2400v1800H0z" style="fill:url(#a)"/><path d="M1710.517 966.362h279.339v279.339h-279.339z" style="clip-rule:evenodd;fill:#008033;fill-rule:evenodd;stroke-width:.752967;stroke-linecap:round;stroke-linejoin:round;stroke-miterlimit:1.5" transform="scale(1.30263 .55062)rotate(45)"/><path d="M428.138 1151.007v67.828l257.297 108.763v-28.574l.018-39.254z" style="clip-rule:evenodd;fill:#052;fill-rule:evenodd;stroke-width:.980823;stroke-linecap:round;stroke-linejoin:round;stroke-miterlimit:1.5"/><path d="m942.73 1151.007-257.293 108.76-.018 39.257.018 28.574 257.294-108.763v-28.574z" style="clip-rule:evenodd;fill:#002b11;fill-rule:evenodd;stroke-width:.980823;stroke-linecap:round;stroke-linejoin:round;stroke-miterlimit:1.5"/><path d="m428.134 1218.835.001 243.98 257.296 108.762v-243.98z" style="clip-rule:evenodd;fill:#784421;fill-rule:evenodd;stroke-width:.980823;stroke-linecap:round;stroke-linejoin:round;stroke-miterlimit:1.5"/><path d="M942.731 1218.835v243.98l-257.296 108.762.018-243.98z" style="clip-rule:evenodd;fill:#502d16;fill-rule:evenodd;stroke-width:.980823;stroke-linecap:round;stroke-linejoin:round;stroke-miterlimit:1.5"/><path d="M2269.192 407.686h279.339v279.339h-279.339z" style="clip-rule:evenodd;fill:#008033;fill-rule:evenodd;stroke-width:.752967;stroke-linecap:round;stroke-linejoin:round;stroke-miterlimit:1.5" transform="scale(1.30263 .55062)rotate(45)"/><path d="M1457.317 1151.007v67.828l257.297 108.763v-28.574l.018-39.254z" style="clip-rule:evenodd;fill:#052;fill-rule:evenodd;stroke-width:.980823;stroke-linecap:round;stroke-linejoin:round;stroke-miterlimit:1.5"/><path d="m1971.909 1151.007-257.293 108.76-.018 39.257.018 28.574 257.295-108.763v-28.574z" style="clip-rule:evenodd;fill:#002b11;fill-rule:evenodd;stroke-width:.980823;stroke-linecap:round;stroke-linejoin:round;stroke-miterlimit:1.5"/><path d="M1457.314 1218.835v243.98l257.296 108.762v-243.98z" style="clip-rule:evenodd;fill:#784421;fill-rule:evenodd;stroke-width:.980823;stroke-linecap:round;stroke-linejoin:round;stroke-miterlimit:1.5"/><path d="M1971.91 1218.835v243.98l-257.296 108.762.018-243.98z" style="clip-rule:evenodd;fill:#502d16;fill-rule:evenodd;stroke-width:.980823;stroke-linecap:round;stroke-linejoin:round;stroke-miterlimit:1.5"/><path d="M1989.851 687.028h279.339v279.339h-279.339z" style="clip-rule:evenodd;fill:#008033;fill-rule:evenodd;stroke-width:.752967;stroke-linecap:round;stroke-linejoin:round;stroke-miterlimit:1.5" transform="scale(1.30263 .55062)rotate(45)"/><path d="M942.72 1151.007v67.828l257.297 108.763v-28.574l.018-39.254z" style="clip-rule:evenodd;fill:#052;fill-rule:evenodd;stroke-width:.980823;stroke-linecap:round;stroke-linejoin:round;stroke-miterlimit:1.5"/><path d="m1457.312 1151.007-257.293 108.76-.018 39.257.018 28.574 257.295-108.763v-28.574z" style="clip-rule:evenodd;fill:#002b11;fill-rule:evenodd;stroke-width:.980823;stroke-linecap:round;stroke-linejoin:round;stroke-miterlimit:1.5"/><path d="M942.717 1218.835v243.98l257.297 108.762v-243.98z" style="clip-rule:evenodd;fill:#784421;fill-rule:evenodd;stroke-width:.980823;stroke-linecap:round;stroke-linejoin:round;stroke-miterlimit:1.5"/><path d="M1457.314 1218.835v243.98l-257.296 108.762.018-243.979z" style="clip-rule:evenodd;fill:#502d16;fill-rule:evenodd;stroke-width:.980823;stroke-linecap:round;stroke-linejoin:round;stroke-miterlimit:1.5"/><path d="M909.671-393.151h279.339v279.339H909.671z" style="clip-rule:evenodd;fill:#008033;fill-rule:evenodd;stroke-width:.752967;stroke-linecap:round;stroke-linejoin:round;stroke-miterlimit:1.5" transform="scale(1.30263 .55062)rotate(45)"/><path d="M942.72 309.868v67.829l257.296 108.763v-28.577l.018-39.254z" style="clip-rule:evenodd;fill:#052;fill-rule:evenodd;stroke-width:.980823;stroke-linecap:round;stroke-linejoin:round;stroke-miterlimit:1.5"/><path d="M1457.31 309.868 1200.019 418.63l-.018 39.256.018 28.575 257.294-108.763v-28.574z" style="clip-rule:evenodd;fill:#002b11;fill-rule:evenodd;stroke-width:.980823;stroke-linecap:round;stroke-linejoin:round;stroke-miterlimit:1.5"/><path d="M942.715 377.697v243.98l257.297 108.761v-243.98Z" style="clip-rule:evenodd;fill:#784421;fill-rule:evenodd;stroke-width:.980823;stroke-linecap:round;stroke-linejoin:round;stroke-miterlimit:1.5"/><path d="M1457.312 377.697v243.98l-257.296 108.761.018-243.978z" style="clip-rule:evenodd;fill:#502d16;fill-rule:evenodd;stroke-width:.980823;stroke-linecap:round;stroke-linejoin:round;stroke-miterlimit:1.5"/><defs><linearGradient id="a" x1="0" x2="1" y1="0" y2="0" gradientTransform="matrix(2400 0 0 1800 0 900)" gradientUnits="userSpaceOnUse"><stop offset="0" style="stop-color:#008e76;stop-opacity:1"/><stop offset="1" style="stop-color:#83b057;stop-opacity:1"/></linearGradient></defs><path d="M1310.09 286.61h279.339v279.339H1310.09z" style="fill:#008033;stroke-width:.752967" transform="scale(1.30263 .55062)rotate(45)"/><path d="M685.42 730.438v67.828L942.718 907.03v-28.575l.018-39.254z" style="fill:#052;stroke-width:.980823"/><path d="m1200.012 730.438-257.293 108.76-.018 39.256.018 28.575 257.295-108.763v-28.574z" style="fill:#002b11;stroke-width:.980823"/><path d="M685.417 798.266v243.98l257.296 108.761v-243.98Z" style="fill:#784421;stroke-width:.980823"/><path d="M1200.014 798.266v243.98l-257.297 108.761.018-243.978z" style="fill:#502d16;stroke-width:.980823"/><path d="M1589.424 7.276h279.339v279.339h-279.339z" style="clip-rule:evenodd;fill:#008033;fill-rule:evenodd;stroke-width:.752967;stroke-linecap:round;stroke-linejoin:round;stroke-miterlimit:1.5" transform="scale(1.30263 .55062)rotate(45)"/><path d="M1200.004 730.438v67.828L1457.3 907.03v-28.575l.018-39.254z" style="clip-rule:evenodd;fill:#052;fill-rule:evenodd;stroke-width:.980823;stroke-linecap:round;stroke-linejoin:round;stroke-miterlimit:1.5"/><path d="m1714.595 730.438-257.293 108.76-.018 39.256.018 28.575 257.295-108.763v-28.574z" style="clip-rule:evenodd;fill:#002b11;fill-rule:evenodd;stroke-width:.980823;stroke-linecap:round;stroke-linejoin:round;stroke-miterlimit:1.5"/><path d="M1200 798.266v243.98l257.297 108.761v-243.98Z" style="clip-rule:evenodd;fill:#784421;fill-rule:evenodd;stroke-width:.980823;stroke-linecap:round;stroke-linejoin:round;stroke-miterlimit:1.5"/><path d="M1714.597 798.266v243.98L1457.3 1151.007l.018-243.978z" style="clip-rule:evenodd;fill:#502d16;fill-rule:evenodd;stroke-width:.980823;stroke-linecap:round;stroke-linejoin:round;stroke-miterlimit:1.5"/></svg>