<svg xmlns="http://www.w3.org/2000/svg" xml:space="preserve" style="fill-rule:evenodd;clip-rule:evenodd;stroke-linejoin:round;stroke-miterlimit:2" viewBox="0 0 2400 1800"><path d="M0 0h2400v1800H0z" style="fill:url(#a)"/><path d="M1176.2 474.295c0-65.244-52.97-118.214-118.21-118.214H506.325c-65.244 0-118.214 52.97-118.214 118.214V1325.7c0 65.25 52.97 118.22 118.214 118.22h551.665c65.24 0 118.21-52.97 118.21-118.22zm488.9-118.214h-323.09c-65.24 0-118.21 52.97-118.21 118.214V1325.7c0 65.25 52.97 118.22 118.21 118.22h551.66c65.25 0 118.22-52.97 118.22-118.22V474.295c0-65.244-52.97-118.214-118.22-118.214h-47.69v290.548l-90.44-52.703-90.44 52.703zM767.181 1275c-12.012.15-20.023 9.47-20.023 23.48q0 .135.011.36l.05.94c.006.14.011.27.011.35h11.45c.504-8.56 3.816-12.88 9.793-12.88 3.241 0 6.121 1.8 11.162 7.12 6.265 6.41 11.45 8.93 18.507 8.93 12.098 0 20.092-9.29 20.092-23.47v-1.59h-11.306c-.504 8.36-3.745 12.89-9.362 12.89-3.6 0-6.625-1.87-11.594-7.13-6.337-6.48-11.522-9-18.507-9zm-273.502 0c-12.012.15-20.023 9.47-20.023 23.48q.001.135.011.36l.05.94c.007.14.011.27.011.35h11.45c.504-8.56 3.817-12.88 9.794-12.88 3.24 0 6.121 1.8 11.162 7.12 6.265 6.41 11.45 8.93 18.507 8.93 12.098 0 20.091-9.29 20.091-23.47v-1.59h-11.306c-.504 8.36-3.744 12.89-9.361 12.89-3.601 0-6.625-1.87-11.594-7.13-6.337-6.48-11.522-9-18.507-9zm926.321 0c-12.02.15-20.03 9.47-20.03 23.48 0 .09.01.21.01.36l.05.94c.01.14.01.27.01.35h11.45c.51-8.56 3.82-12.88 9.8-12.88 3.24 0 6.12 1.8 11.16 7.12 6.26 6.41 11.45 8.93 18.51 8.93 12.09 0 20.09-9.29 20.09-23.47v-1.59h-11.31c-.5 8.36-3.74 12.89-9.36 12.89-3.6 0-6.62-1.87-11.59-7.13-6.34-6.48-11.53-9-18.51-9zm91.45 0c-12.17 0-20.31 9.36-20.31 23.48 0 .36.07 1.3.07 1.65h11.45c.5-8.56 3.82-12.88 9.79-12.88 3.24 0 6.13 1.8 11.17 7.12 6.26 6.41 11.45 8.93 18.5 8.93 12.1 0 20.1-9.29 20.1-23.47v-1.59h-11.31c-.51 8.36-3.75 12.89-9.36 12.89-3.6 0-6.63-1.87-11.6-7.13-6.33-6.48-11.52-9-18.5-9m-470.77 0c-12.01.15-20.02 9.47-20.02 23.48 0 .09 0 .21.01.36l.05.94c.01.14.01.27.01.35h11.45c.51-8.56 3.82-12.88 9.79-12.88 3.25 0 6.13 1.8 11.17 7.12 6.26 6.41 11.45 8.93 18.5 8.93 12.1 0 20.1-9.29 20.1-23.47v-1.59h-11.31c-.51 8.36-3.75 12.89-9.36 12.89-3.6 0-6.63-1.87-11.6-7.13-6.33-6.48-11.52-9-18.5-9zm288.43 0c-12.17 0-20.3 9.36-20.3 23.48 0 .36.07 1.3.07 1.65h11.45c.5-8.56 3.81-12.88 9.79-12.88 3.24 0 6.12 1.8 11.16 7.12 6.27 6.41 11.45 8.93 18.51 8.93 12.1 0 20.09-9.29 20.09-23.47v-1.59h-11.3c-.51 8.36-3.75 12.89-9.37 12.89-3.6 0-6.62-1.87-11.59-7.13-6.34-6.48-11.52-9-18.51-9m-652.812 0c-12.17 0-20.307 9.36-20.307 23.48 0 .36.072 1.3.072 1.65h11.45c.504-8.56 3.816-12.88 9.793-12.88 3.241 0 6.121 1.8 11.162 7.12 6.265 6.41 11.45 8.93 18.507 8.93 12.098 0 20.092-9.29 20.092-23.47v-1.59h-11.306c-.504 8.36-3.745 12.89-9.362 12.89-3.601 0-6.625-1.87-11.594-7.13-6.337-6.48-11.522-9-18.507-9m1199.532 0c-12.01.15-20.02 9.47-20.02 23.48 0 .09 0 .21.01.36l.05.94c.01.14.01.27.01.35h11.45c.5-8.56 3.82-12.88 9.79-12.88 3.24 0 6.13 1.8 11.17 7.12 6.26 6.41 11.45 8.93 18.5 8.93 12.1 0 20.09-9.29 20.09-23.47v-1.59h-11.3c-.51 8.36-3.75 12.89-9.36 12.89-3.6 0-6.63-1.87-11.6-7.13-6.33-6.48-11.52-9-18.5-9zm-273.5 0c-12.01.15-20.02 9.47-20.02 23.48 0 .09 0 .21.01.36l.05.94c0 .14.01.27.01.35h11.45c.5-8.56 3.81-12.88 9.79-12.88 3.24 0 6.12 1.8 11.16 7.12 6.27 6.41 11.45 8.93 18.51 8.93 12.1 0 20.09-9.29 20.09-23.47v-1.59h-11.3c-.51 8.36-3.75 12.89-9.36 12.89-3.61 0-6.63-1.87-11.6-7.13-6.34-6.48-11.52-9-18.51-9zm-743.697 0c-12.171 0-20.308 9.36-20.308 23.48 0 .36.072 1.3.072 1.65h11.45c.504-8.56 3.817-12.88 9.794-12.88 3.24 0 6.121 1.8 11.162 7.12 6.265 6.41 11.449 8.93 18.507 8.93 12.098 0 20.091-9.29 20.091-23.47v-1.59h-11.306c-.504 8.36-3.745 12.89-9.361 12.89-3.601 0-6.626-1.87-11.594-7.13-6.337-6.48-11.522-9-18.507-9m926.027 0c-12.01.15-20.02 9.47-20.02 23.48 0 .09 0 .21.01.36l.05.94c.01.14.01.27.01.35h11.45c.51-8.56 3.82-12.88 9.8-12.88 3.24 0 6.12 1.8 11.16 7.12 6.26 6.41 11.45 8.93 18.5 8.93 12.1 0 20.1-9.29 20.1-23.47v-1.59h-11.31c-.5 8.36-3.74 12.89-9.36 12.89-3.6 0-6.63-1.87-11.6-7.13-6.33-6.48-11.52-9-18.5-9zm-90.88 0c-12.17 0-20.31 9.36-20.31 23.48 0 .36.08 1.3.08 1.65H1685c.5-8.56 3.81-12.88 9.79-12.88 3.24 0 6.12 1.8 11.16 7.12 6.27 6.41 11.45 8.93 18.51 8.93 12.1 0 20.09-9.29 20.09-23.47v-1.59h-11.31c-.5 8.36-3.74 12.89-9.36 12.89-3.6 0-6.62-1.87-11.59-7.13-6.34-6.48-11.52-9-18.51-9m-1108.934 0c-12.012.15-20.023 9.47-20.023 23.48q0 .135.012.36l.049.94c.007.14.011.27.011.35h11.45c.504-8.56 3.817-12.88 9.794-12.88 3.241 0 6.121 1.8 11.162 7.12 6.265 6.41 11.45 8.93 18.507 8.93 12.098 0 20.091-9.29 20.091-23.47v-1.59h-11.306c-.504 8.36-3.744 12.89-9.361 12.89-3.601 0-6.625-1.87-11.594-7.13-6.337-6.48-11.522-9-18.507-9zm364.954 0c-12.17 0-20.308 9.36-20.308 23.48 0 .36.072 1.3.072 1.65h11.45c.504-8.56 3.817-12.88 9.794-12.88 3.24 0 6.121 1.8 11.162 7.12 6.265 6.41 11.45 8.93 18.507 8.93 12.098 0 20.093-9.29 20.093-23.47v-1.59h-11.308c-.504 8.36-3.744 12.89-9.361 12.89-3.601 0-6.625-1.87-11.594-7.13-6.337-6.48-11.522-9-18.507-9m0-147.48c-12.17 0-20.308 9.36-20.308 23.48 0 .36.072 1.29.072 1.65h11.45c.504-8.56 3.817-12.89 9.794-12.89 3.24 0 6.121 1.8 11.162 7.13 6.265 6.41 11.45 8.93 18.507 8.93 12.098 0 20.093-9.29 20.093-23.47v-1.59h-11.308c-.504 8.36-3.744 12.89-9.361 12.89-3.601 0-6.625-1.87-11.594-7.13-6.337-6.48-11.522-9-18.507-9m-364.954 0c-12.012.15-20.023 9.47-20.023 23.48q0 .135.012.36l.049.93q.01.225.011.36h11.45c.504-8.56 3.817-12.89 9.794-12.89 3.241 0 6.121 1.8 11.162 7.13 6.265 6.41 11.45 8.93 18.507 8.93 12.098 0 20.091-9.29 20.091-23.47v-1.59h-11.306c-.504 8.36-3.744 12.89-9.361 12.89-3.601 0-6.625-1.87-11.594-7.13-6.337-6.48-11.522-9-18.507-9zm-91.167 0c-12.012.15-20.023 9.47-20.023 23.48q.001.135.011.36l.05.93q.01.225.011.36h11.45c.504-8.56 3.817-12.89 9.794-12.89 3.24 0 6.121 1.8 11.162 7.13 6.265 6.41 11.45 8.93 18.507 8.93 12.098 0 20.091-9.29 20.091-23.47v-1.59h-11.306c-.504 8.36-3.744 12.89-9.361 12.89-3.601 0-6.625-1.87-11.594-7.13-6.337-6.48-11.522-9-18.507-9zm547.001 0c-12.01.15-20.02 9.47-20.02 23.48 0 .09 0 .21.01.36l.05.93c.01.15.01.27.01.36h11.45c.51-8.56 3.82-12.89 9.79-12.89 3.25 0 6.13 1.8 11.17 7.13 6.26 6.41 11.45 8.93 18.5 8.93 12.1 0 20.1-9.29 20.1-23.47v-1.59h-11.31c-.51 8.36-3.75 12.89-9.36 12.89-3.6 0-6.63-1.87-11.6-7.13-6.33-6.48-11.52-9-18.5-9zm288.43 0c-12.17 0-20.3 9.36-20.3 23.48 0 .36.07 1.29.07 1.65h11.45c.5-8.56 3.81-12.89 9.79-12.89 3.24 0 6.12 1.8 11.16 7.13 6.27 6.41 11.45 8.93 18.51 8.93 12.1 0 20.09-9.29 20.09-23.47v-1.59h-11.3c-.51 8.36-3.75 12.89-9.37 12.89-3.6 0-6.62-1.87-11.59-7.13-6.34-6.48-11.52-9-18.51-9m364.67 0c-12.17 0-20.31 9.36-20.31 23.48 0 .36.08 1.29.08 1.65H1685c.5-8.56 3.81-12.89 9.79-12.89 3.24 0 6.12 1.8 11.16 7.13 6.27 6.41 11.45 8.93 18.51 8.93 12.1 0 20.09-9.29 20.09-23.47v-1.59h-11.31c-.5 8.36-3.74 12.89-9.36 12.89-3.6 0-6.62-1.87-11.59-7.13-6.34-6.48-11.52-9-18.51-9m-91.45 0c-12.01.15-20.02 9.47-20.02 23.48 0 .09 0 .21.01.36l.05.93c0 .15.01.27.01.36h11.45c.5-8.56 3.81-12.89 9.79-12.89 3.24 0 6.12 1.8 11.16 7.13 6.27 6.41 11.45 8.93 18.51 8.93 12.1 0 20.09-9.29 20.09-23.47v-1.59h-11.3c-.51 8.36-3.75 12.89-9.36 12.89-3.61 0-6.63-1.87-11.6-7.13-6.34-6.48-11.52-9-18.51-9zm-835.149 0c-12.012.15-20.023 9.47-20.023 23.48q0 .135.011.36l.05.93q.01.225.011.36h11.45c.504-8.56 3.816-12.89 9.793-12.89 3.241 0 6.121 1.8 11.162 7.13 6.265 6.41 11.45 8.93 18.507 8.93 12.098 0 20.092-9.29 20.092-23.47v-1.59h-11.306c-.504 8.36-3.745 12.89-9.362 12.89-3.6 0-6.625-1.87-11.594-7.13-6.337-6.48-11.522-9-18.507-9zm744.269 0c-12.17 0-20.31 9.36-20.31 23.48 0 .36.07 1.29.07 1.65h11.45c.5-8.56 3.82-12.89 9.79-12.89 3.24 0 6.13 1.8 11.17 7.13 6.26 6.41 11.45 8.93 18.5 8.93 12.1 0 20.1-9.29 20.1-23.47v-1.59h-11.31c-.51 8.36-3.75 12.89-9.36 12.89-3.6 0-6.63-1.87-11.6-7.13-6.33-6.48-11.52-9-18.5-9m-652.817 0c-12.171 0-20.308 9.36-20.308 23.48 0 .36.072 1.29.072 1.65h11.45c.504-8.56 3.817-12.89 9.794-12.89 3.24 0 6.121 1.8 11.162 7.13 6.265 6.41 11.449 8.93 18.507 8.93 12.098 0 20.091-9.29 20.091-23.47v-1.59h-11.306c-.504 8.36-3.745 12.89-9.361 12.89-3.601 0-6.626-1.87-11.594-7.13-6.337-6.48-11.522-9-18.507-9m926.027 0c-12.01.15-20.02 9.47-20.02 23.48 0 .09 0 .21.01.36l.05.93c.01.15.01.27.01.36h11.45c.51-8.56 3.82-12.89 9.8-12.89 3.24 0 6.12 1.8 11.16 7.13 6.26 6.41 11.45 8.93 18.5 8.93 12.1 0 20.1-9.29 20.1-23.47v-1.59h-11.31c-.5 8.36-3.74 12.89-9.36 12.89-3.6 0-6.63-1.87-11.6-7.13-6.33-6.48-11.52-9-18.5-9zm91.17 0c-12.01.15-20.02 9.47-20.02 23.48 0 .09 0 .21.01.36l.05.93c.01.15.01.27.01.36h11.45c.5-8.56 3.82-12.89 9.79-12.89 3.24 0 6.13 1.8 11.17 7.13 6.26 6.41 11.45 8.93 18.5 8.93 12.1 0 20.09-9.29 20.09-23.47v-1.59h-11.3c-.51 8.36-3.75 12.89-9.36 12.89-3.6 0-6.63-1.87-11.6-7.13-6.33-6.48-11.52-9-18.5-9zm-1199.532 0c-12.17 0-20.307 9.36-20.307 23.48 0 .36.072 1.29.072 1.65h11.45c.504-8.56 3.816-12.89 9.793-12.89 3.241 0 6.121 1.8 11.162 7.13 6.265 6.41 11.45 8.93 18.507 8.93 12.098 0 20.092-9.29 20.092-23.47v-1.59h-11.306c-.504 8.36-3.745 12.89-9.362 12.89-3.601 0-6.625-1.87-11.594-7.13-6.337-6.48-11.522-9-18.507-9m743.702 0c-12.02.15-20.03 9.47-20.03 23.48 0 .09.01.21.01.36l.05.93c.01.15.01.27.01.36h11.45c.51-8.56 3.82-12.89 9.8-12.89 3.24 0 6.12 1.8 11.16 7.13 6.26 6.41 11.45 8.93 18.51 8.93 12.09 0 20.09-9.29 20.09-23.47v-1.59h-11.31c-.5 8.36-3.74 12.89-9.36 12.89-3.6 0-6.62-1.87-11.59-7.13-6.34-6.48-11.53-9-18.51-9zm456.12-147.479c-12.18 0-20.31 9.362-20.31 23.479 0 .36.07 1.29.07 1.65h11.45c.5-8.566 3.82-12.887 9.79-12.887 3.24 0 6.13 1.801 11.17 7.13 6.26 6.407 11.45 8.927 18.5 8.927 12.1 0 20.09-9.287 20.09-23.474v-1.584h-11.3c-.51 8.353-3.75 12.89-9.36 12.89-3.6 0-6.63-1.872-11.6-7.129-6.33-6.481-11.52-9.002-18.5-9.002m-835.15 0c-12.17 0-20.31 9.362-20.31 23.479 0 .36.07 1.29.07 1.65h11.45c.51-8.566 3.82-12.887 9.79-12.887 3.25 0 6.13 1.801 11.17 7.13 6.26 6.407 11.45 8.927 18.5 8.927 12.1 0 20.1-9.287 20.1-23.474v-1.584h-11.31c-.51 8.353-3.75 12.89-9.36 12.89-3.6 0-6.63-1.872-11.6-7.129-6.33-6.481-11.52-9.002-18.5-9.002m-182.337 0c-12.171 0-20.308 9.362-20.308 23.479 0 .36.072 1.29.072 1.65h11.45c.504-8.566 3.817-12.887 9.794-12.887 3.24 0 6.121 1.801 11.162 7.13 6.265 6.407 11.449 8.927 18.507 8.927 12.098 0 20.091-9.287 20.091-23.474v-1.584h-11.306c-.504 8.353-3.745 12.89-9.361 12.89-3.601 0-6.626-1.872-11.594-7.129-6.337-6.481-11.522-9.002-18.507-9.002m926.317 0c-12.17 0-20.31 9.362-20.31 23.479 0 .36.07 1.29.07 1.65h11.45c.51-8.566 3.82-12.887 9.8-12.887 3.24 0 6.12 1.801 11.16 7.13 6.26 6.407 11.45 8.927 18.5 8.927 12.1 0 20.1-9.287 20.1-23.474v-1.584h-11.31c-.5 8.353-3.74 12.89-9.36 12.89-3.6 0-6.63-1.872-11.6-7.129-6.33-6.481-11.52-9.002-18.5-9.002m-273.5 0c-12.17 0-20.31 9.362-20.31 23.479 0 .36.07 1.29.07 1.65h11.45c.5-8.566 3.82-12.887 9.79-12.887 3.24 0 6.13 1.801 11.17 7.13 6.26 6.407 11.45 8.927 18.5 8.927 12.1 0 20.1-9.287 20.1-23.474v-1.584h-11.31c-.51 8.353-3.75 12.89-9.36 12.89-3.6 0-6.63-1.872-11.6-7.129-6.33-6.481-11.52-9.002-18.5-9.002m-1017.486 0c-12.17 0-20.308 9.362-20.308 23.479 0 .36.072 1.29.072 1.65h11.45c.504-8.566 3.817-12.887 9.794-12.887 3.24 0 6.121 1.801 11.162 7.13 6.265 6.407 11.45 8.927 18.507 8.927 12.098 0 20.091-9.287 20.091-23.474v-1.584h-11.306c-.504 8.353-3.744 12.89-9.361 12.89-3.601 0-6.625-1.872-11.594-7.129-6.337-6.481-11.522-9.002-18.507-9.002m1199.816 0c-12.17 0-20.31 9.362-20.31 23.479 0 .36.08 1.29.08 1.65H1685c.5-8.566 3.81-12.887 9.79-12.887 3.24 0 6.12 1.801 11.16 7.13 6.27 6.407 11.45 8.927 18.51 8.927 12.1 0 20.09-9.287 20.09-23.474v-1.584h-11.31c-.5 8.353-3.74 12.89-9.36 12.89-3.6 0-6.62-1.872-11.59-7.129-6.34-6.481-11.52-9.002-18.51-9.002m-1017.482 0c-12.17 0-20.307 9.362-20.307 23.479 0 .36.072 1.29.072 1.65h11.45c.504-8.566 3.816-12.887 9.793-12.887 3.241 0 6.121 1.801 11.162 7.13 6.265 6.407 11.45 8.927 18.507 8.927 12.098 0 20.092-9.287 20.092-23.474v-1.584h-11.306c-.504 8.353-3.745 12.89-9.362 12.89-3.601 0-6.625-1.872-11.594-7.129-6.337-6.481-11.522-9.002-18.507-9.002m273.502 0c-12.17 0-20.308 9.362-20.308 23.479 0 .36.072 1.29.072 1.65h11.45c.504-8.566 3.817-12.887 9.794-12.887 3.24 0 6.121 1.801 11.162 7.13 6.265 6.407 11.45 8.927 18.507 8.927 12.098 0 20.093-9.287 20.093-23.474v-1.584h-11.308c-.504 8.353-3.744 12.89-9.361 12.89-3.601 0-6.625-1.872-11.594-7.129-6.337-6.481-11.522-9.002-18.507-9.002m-182.335 0c-12.17 0-20.307 9.362-20.307 23.479 0 .36.072 1.29.072 1.65h11.45c.504-8.566 3.816-12.887 9.793-12.887 3.241 0 6.121 1.801 11.162 7.13 6.265 6.407 11.45 8.927 18.507 8.927 12.098 0 20.092-9.287 20.092-23.474v-1.584h-11.306c-.504 8.353-3.745 12.89-9.362 12.89-3.6 0-6.625-1.872-11.594-7.129-6.337-6.481-11.522-9.002-18.507-9.002m652.815 0c-12.17 0-20.31 9.362-20.31 23.479 0 .36.07 1.29.07 1.65h11.45c.51-8.566 3.82-12.887 9.8-12.887 3.24 0 6.12 1.801 11.16 7.13 6.26 6.407 11.45 8.927 18.51 8.927 12.09 0 20.09-9.287 20.09-23.474v-1.584h-11.31c-.5 8.353-3.74 12.89-9.36 12.89-3.6 0-6.62-1.872-11.59-7.129-6.34-6.481-11.53-9.002-18.51-9.002m182.33 0c-12.17 0-20.3 9.362-20.3 23.479 0 .36.07 1.29.07 1.65h11.45c.5-8.566 3.81-12.887 9.79-12.887 3.24 0 6.12 1.801 11.16 7.13 6.27 6.407 11.45 8.927 18.51 8.927 12.1 0 20.09-9.287 20.09-23.474v-1.584h-11.3c-.51 8.353-3.75 12.89-9.36 12.89-3.61 0-6.63-1.872-11.6-7.129-6.34-6.481-11.52-9.002-18.51-9.002m-273.5 0c-12.17 0-20.3 9.362-20.3 23.479 0 .36.07 1.29.07 1.65h11.45c.5-8.566 3.81-12.887 9.79-12.887 3.24 0 6.12 1.801 11.16 7.13 6.27 6.407 11.45 8.927 18.51 8.927 12.1 0 20.09-9.287 20.09-23.474v-1.584h-11.3c-.51 8.353-3.75 12.89-9.37 12.89-3.6 0-6.62-1.872-11.59-7.129-6.34-6.481-11.52-9.002-18.51-9.002m-743.979 0c-12.17 0-20.308 9.362-20.308 23.479 0 .36.072 1.29.072 1.65h11.45c.504-8.566 3.817-12.887 9.794-12.887 3.241 0 6.121 1.801 11.162 7.13 6.265 6.407 11.45 8.927 18.507 8.927 12.098 0 20.091-9.287 20.091-23.474v-1.584h-11.306c-.504 8.353-3.744 12.89-9.361 12.89-3.601 0-6.625-1.872-11.594-7.129-6.337-6.481-11.522-9.002-18.507-9.002m1108.649-147.48c-12.17 0-20.31 9.361-20.31 23.476 0 .36.08 1.296.08 1.656H1685c.5-8.569 3.81-12.89 9.79-12.89 3.24 0 6.12 1.8 11.16 7.129 6.27 6.409 11.45 8.929 18.51 8.929 12.1 0 20.09-9.289 20.09-23.475v-1.585h-11.31c-.5 8.354-3.74 12.89-9.36 12.89-3.6 0-6.62-1.872-11.59-7.129-6.34-6.481-11.52-9.001-18.51-9.001m182.34 0c-12.18 0-20.31 9.361-20.31 23.476 0 .36.07 1.296.07 1.656h11.45c.5-8.569 3.82-12.89 9.79-12.89 3.24 0 6.13 1.8 11.17 7.129 6.26 6.409 11.45 8.929 18.5 8.929 12.1 0 20.09-9.289 20.09-23.475v-1.585h-11.3c-.51 8.354-3.75 12.89-9.36 12.89-3.6 0-6.63-1.872-11.6-7.129-6.33-6.481-11.52-9.001-18.5-9.001m-1382.156 0c-12.17 0-20.308 9.361-20.308 23.476 0 .36.072 1.296.072 1.656h11.45c.504-8.569 3.817-12.89 9.794-12.89 3.24 0 6.121 1.8 11.162 7.129 6.265 6.409 11.45 8.929 18.507 8.929 12.098 0 20.091-9.289 20.091-23.475v-1.585h-11.306c-.504 8.354-3.744 12.89-9.361 12.89-3.601 0-6.625-1.872-11.594-7.129-6.337-6.481-11.522-9.001-18.507-9.001m273.501 0c-12.17 0-20.307 9.361-20.307 23.476 0 .36.072 1.296.072 1.656h11.45c.504-8.569 3.816-12.89 9.793-12.89 3.241 0 6.121 1.8 11.162 7.129 6.265 6.409 11.45 8.929 18.507 8.929 12.098 0 20.092-9.289 20.092-23.475v-1.585h-11.306c-.504 8.354-3.745 12.89-9.362 12.89-3.6 0-6.625-1.872-11.594-7.129-6.337-6.481-11.522-9.001-18.507-9.001m91.168 0c-12.171 0-20.308 9.361-20.308 23.476 0 .36.072 1.296.072 1.656h11.45c.504-8.569 3.817-12.89 9.794-12.89 3.24 0 6.121 1.8 11.162 7.129 6.265 6.409 11.449 8.929 18.507 8.929 12.098 0 20.091-9.289 20.091-23.475v-1.585h-11.306c-.504 8.354-3.745 12.89-9.361 12.89-3.601 0-6.626-1.872-11.594-7.129-6.337-6.481-11.522-9.001-18.507-9.001m182.337 0c-12.17 0-20.31 9.361-20.31 23.476 0 .36.07 1.296.07 1.656h11.45c.51-8.569 3.82-12.89 9.79-12.89 3.25 0 6.13 1.8 11.17 7.129 6.26 6.409 11.45 8.929 18.5 8.929 12.1 0 20.1-9.289 20.1-23.475v-1.585h-11.31c-.51 8.354-3.75 12.89-9.36 12.89-3.6 0-6.63-1.872-11.6-7.129-6.33-6.481-11.52-9.001-18.5-9.001m379.31 0c-12.17 0-20.31 9.361-20.31 23.476 0 .36.07 1.296.07 1.656h11.45c.51-8.569 3.82-12.89 9.8-12.89 3.24 0 6.12 1.8 11.16 7.129 6.26 6.409 11.45 8.929 18.51 8.929 12.09 0 20.09-9.289 20.09-23.475v-1.585h-11.31c-.5 8.354-3.74 12.89-9.36 12.89-3.6 0-6.62-1.872-11.59-7.129-6.34-6.481-11.53-9.001-18.51-9.001m-470.48 0c-12.17 0-20.308 9.361-20.308 23.476 0 .36.072 1.296.072 1.656h11.45c.504-8.569 3.817-12.89 9.794-12.89 3.24 0 6.121 1.8 11.162 7.129 6.265 6.409 11.45 8.929 18.507 8.929 12.098 0 20.093-9.289 20.093-23.475v-1.585h-11.308c-.504 8.354-3.744 12.89-9.361 12.89-3.601 0-6.625-1.872-11.594-7.129-6.337-6.481-11.522-9.001-18.507-9.001m561.65 0c-12.17 0-20.31 9.361-20.31 23.476 0 .36.07 1.296.07 1.656h11.45c.5-8.569 3.82-12.89 9.79-12.89 3.24 0 6.13 1.8 11.17 7.129 6.26 6.409 11.45 8.929 18.5 8.929 12.1 0 20.1-9.289 20.1-23.475v-1.585h-11.31c-.51 8.354-3.75 12.89-9.36 12.89-3.6 0-6.63-1.872-11.6-7.129-6.33-6.481-11.52-9.001-18.5-9.001m-182.34 0c-12.17 0-20.3 9.361-20.3 23.476 0 .36.07 1.296.07 1.656h11.45c.5-8.569 3.81-12.89 9.79-12.89 3.24 0 6.12 1.8 11.16 7.129 6.27 6.409 11.45 8.929 18.51 8.929 12.1 0 20.09-9.289 20.09-23.475v-1.585h-11.3c-.51 8.354-3.75 12.89-9.37 12.89-3.6 0-6.62-1.872-11.59-7.129-6.34-6.481-11.52-9.001-18.51-9.001m-652.812 0c-12.17 0-20.307 9.361-20.307 23.476 0 .36.072 1.296.072 1.656h11.45c.504-8.569 3.816-12.89 9.793-12.89 3.241 0 6.121 1.8 11.162 7.129 6.265 6.409 11.45 8.929 18.507 8.929 12.098 0 20.092-9.289 20.092-23.475v-1.585h-11.306c-.504 8.354-3.745 12.89-9.362 12.89-3.601 0-6.625-1.872-11.594-7.129-6.337-6.481-11.522-9.001-18.507-9.001m1108.652 0c-12.17 0-20.31 9.361-20.31 23.476 0 .36.07 1.296.07 1.656h11.45c.51-8.569 3.82-12.89 9.8-12.89 3.24 0 6.12 1.8 11.16 7.129 6.26 6.409 11.45 8.929 18.5 8.929 12.1 0 20.1-9.289 20.1-23.475v-1.585h-11.31c-.5 8.354-3.74 12.89-9.36 12.89-3.6 0-6.63-1.872-11.6-7.129-6.33-6.481-11.52-9.001-18.5-9.001m-182.34 0c-12.17 0-20.3 9.361-20.3 23.476 0 .36.07 1.296.07 1.656h11.45c.5-8.569 3.81-12.89 9.79-12.89 3.24 0 6.12 1.8 11.16 7.129 6.27 6.409 11.45 8.929 18.51 8.929 12.1 0 20.09-9.289 20.09-23.475v-1.585h-11.3c-.51 8.354-3.75 12.89-9.36 12.89-3.61 0-6.63-1.872-11.6-7.129-6.34-6.481-11.52-9.001-18.51-9.001m-1017.479 0c-12.17 0-20.308 9.361-20.308 23.476 0 .36.072 1.296.072 1.656h11.45c.504-8.569 3.817-12.89 9.794-12.89 3.241 0 6.121 1.8 11.162 7.129 6.265 6.409 11.45 8.929 18.507 8.929 12.098 0 20.091-9.289 20.091-23.475v-1.585h-11.306c-.504 8.354-3.744 12.89-9.361 12.89-3.601 0-6.625-1.872-11.594-7.129-6.337-6.481-11.522-9.001-18.507-9.001M1511.45 685.08c-12.17 0-20.31 9.362-20.31 23.476 0 .36.07 1.296.07 1.656h11.45c.5-8.569 3.82-12.89 9.79-12.89 3.24 0 6.13 1.8 11.17 7.129 6.26 6.409 11.45 8.93 18.5 8.93 12.1 0 20.1-9.29 20.1-23.476v-1.584h-11.31c-.51 8.353-3.75 12.89-9.36 12.89-3.6 0-6.63-1.873-11.6-7.129-6.33-6.481-11.52-9.002-18.5-9.002m-652.817 0c-12.171 0-20.308 9.362-20.308 23.476 0 .36.072 1.296.072 1.656h11.45c.504-8.569 3.817-12.89 9.794-12.89 3.24 0 6.121 1.8 11.162 7.129 6.265 6.409 11.449 8.93 18.507 8.93 12.098 0 20.091-9.29 20.091-23.476v-1.584h-11.306c-.504 8.353-3.745 12.89-9.361 12.89-3.601 0-6.626-1.873-11.594-7.129-6.337-6.481-11.522-9.002-18.507-9.002m-182.335 0c-12.17 0-20.307 9.362-20.307 23.476 0 .36.072 1.296.072 1.656h11.45c.504-8.569 3.816-12.89 9.793-12.89 3.241 0 6.121 1.8 11.162 7.129 6.265 6.409 11.45 8.93 18.507 8.93 12.098 0 20.092-9.29 20.092-23.476v-1.584h-11.306c-.504 8.353-3.745 12.89-9.362 12.89-3.601 0-6.625-1.873-11.594-7.129-6.337-6.481-11.522-9.002-18.507-9.002m743.982 0c-12.17 0-20.31 9.362-20.31 23.476 0 .36.07 1.296.07 1.656h11.45c.51-8.569 3.82-12.89 9.8-12.89 3.24 0 6.12 1.8 11.16 7.129 6.26 6.409 11.45 8.93 18.51 8.93 12.09 0 20.09-9.29 20.09-23.476v-1.584h-11.31c-.5 8.353-3.74 12.89-9.36 12.89-3.6 0-6.62-1.873-11.59-7.129-6.34-6.481-11.53-9.002-18.51-9.002m455.84 0c-12.18 0-20.31 9.362-20.31 23.476 0 .36.07 1.296.07 1.656h11.45c.5-8.569 3.82-12.89 9.79-12.89 3.24 0 6.13 1.8 11.17 7.129 6.26 6.409 11.45 8.93 18.5 8.93 12.1 0 20.09-9.29 20.09-23.476v-1.584h-11.3c-.51 8.353-3.75 12.89-9.36 12.89-3.6 0-6.63-1.873-11.6-7.129-6.33-6.481-11.52-9.002-18.5-9.002m-273.51 0c-12.17 0-20.3 9.362-20.3 23.476 0 .36.07 1.296.07 1.656h11.45c.5-8.569 3.81-12.89 9.79-12.89 3.24 0 6.12 1.8 11.16 7.129 6.27 6.409 11.45 8.93 18.51 8.93 12.1 0 20.09-9.29 20.09-23.476v-1.584h-11.3c-.51 8.353-3.75 12.89-9.36 12.89-3.61 0-6.63-1.873-11.6-7.129-6.34-6.481-11.52-9.002-18.51-9.002m-273.5 0c-12.17 0-20.3 9.362-20.3 23.476 0 .36.07 1.296.07 1.656h11.45c.5-8.569 3.81-12.89 9.79-12.89 3.24 0 6.12 1.8 11.16 7.129 6.27 6.409 11.45 8.93 18.51 8.93 12.1 0 20.09-9.29 20.09-23.476v-1.584h-11.3c-.51 8.353-3.75 12.89-9.37 12.89-3.6 0-6.62-1.873-11.59-7.129-6.34-6.481-11.52-9.002-18.51-9.002m-379.31 0c-12.17 0-20.308 9.362-20.308 23.476 0 .36.072 1.296.072 1.656h11.45c.504-8.569 3.817-12.89 9.794-12.89 3.24 0 6.121 1.8 11.162 7.129 6.265 6.409 11.45 8.93 18.507 8.93 12.098 0 20.093-9.29 20.093-23.476v-1.584h-11.308c-.504 8.353-3.744 12.89-9.361 12.89-3.601 0-6.625-1.873-11.594-7.129-6.337-6.481-11.522-9.002-18.507-9.002m-364.669 0c-12.17 0-20.308 9.362-20.308 23.476 0 .36.072 1.296.072 1.656h11.45c.504-8.569 3.817-12.89 9.794-12.89 3.241 0 6.121 1.8 11.162 7.129 6.265 6.409 11.45 8.93 18.507 8.93 12.098 0 20.091-9.29 20.091-23.476v-1.584h-11.306c-.504 8.353-3.744 12.89-9.361 12.89-3.601 0-6.625-1.873-11.594-7.129-6.337-6.481-11.522-9.002-18.507-9.002m1108.649 0c-12.17 0-20.31 9.362-20.31 23.476 0 .36.08 1.296.08 1.656H1685c.5-8.569 3.81-12.89 9.79-12.89 3.24 0 6.12 1.8 11.16 7.129 6.27 6.409 11.45 8.93 18.51 8.93 12.1 0 20.09-9.29 20.09-23.476v-1.584h-11.31c-.5 8.353-3.74 12.89-9.36 12.89-3.6 0-6.62-1.873-11.59-7.129-6.34-6.481-11.52-9.002-18.51-9.002m-1199.816 0c-12.17 0-20.308 9.362-20.308 23.476 0 .36.072 1.296.072 1.656h11.45c.504-8.569 3.817-12.89 9.794-12.89 3.24 0 6.121 1.8 11.162 7.129 6.265 6.409 11.45 8.93 18.507 8.93 12.098 0 20.091-9.29 20.091-23.476v-1.584h-11.306c-.504 8.353-3.744 12.89-9.361 12.89-3.601 0-6.625-1.873-11.594-7.129-6.337-6.481-11.522-9.002-18.507-9.002m273.501 0c-12.17 0-20.307 9.362-20.307 23.476 0 .36.072 1.296.072 1.656h11.45c.504-8.569 3.816-12.89 9.793-12.89 3.241 0 6.121 1.8 11.162 7.129 6.265 6.409 11.45 8.93 18.507 8.93 12.098 0 20.092-9.29 20.092-23.476v-1.584h-11.306c-.504 8.353-3.745 12.89-9.362 12.89-3.6 0-6.625-1.873-11.594-7.129-6.337-6.481-11.522-9.002-18.507-9.002m273.505 0c-12.17 0-20.31 9.362-20.31 23.476 0 .36.07 1.296.07 1.656h11.45c.51-8.569 3.82-12.89 9.79-12.89 3.25 0 6.13 1.8 11.17 7.129 6.26 6.409 11.45 8.93 18.5 8.93 12.1 0 20.1-9.29 20.1-23.476v-1.584h-11.31c-.51 8.353-3.75 12.89-9.36 12.89-3.6 0-6.63-1.873-11.6-7.129-6.33-6.481-11.52-9.002-18.5-9.002m743.98 0c-12.17 0-20.31 9.362-20.31 23.476 0 .36.07 1.296.07 1.656h11.45c.51-8.569 3.82-12.89 9.8-12.89 3.24 0 6.12 1.8 11.16 7.129 6.26 6.409 11.45 8.93 18.5 8.93 12.1 0 20.1-9.29 20.1-23.476v-1.584h-11.31c-.5 8.353-3.74 12.89-9.36 12.89-3.6 0-6.63-1.873-11.6-7.129-6.33-6.481-11.52-9.002-18.5-9.002M861.225 554.594h11.882c14.402 0 23.548 7.706 23.548 19.804 0 11.738-8.858 19.083-23.116 19.083-12.962 0-22.18-7.201-23.332-18.291h-12.026c.936 17.931 15.195 29.741 35.718 29.741 20.74 0 35.574-12.602 35.574-30.245 0-14.187-8.209-23.908-22.036-25.709v-1.152c11.162-2.736 17.715-11.666 17.715-24.196 0-15.77-13.25-26.932-31.829-26.932-19.227 0-31.901 11.162-33.126 29.165h12.17c1.009-11.162 8.786-18.003 20.452-18.003 11.738 0 19.515 6.985 19.515 17.57 0 10.874-8.137 18.508-19.803 18.508h-11.306zM533.93 570.941c0 13.61-8.785 21.964-22.972 21.964-16.778 0-25.564-11.306-25.564-32.838V541.56c0-21.531 8.714-32.837 25.492-32.837 13.251 0 22.468 9.145 23.044 22.683h12.818c-.504-21.531-14.042-34.709-35.646-34.709-24.412 0-38.526 16.418-38.526 44.863v18.507c0 28.445 14.114 44.864 38.526 44.864 20.956 0 35.646-13.395 35.646-32.91v-22.107H509.95v10.873h23.98zm163.972 31.829v-92.247h31.397v-11.666H653.83v11.666h31.398v92.247zm-128.83-103.913V602.77h12.746v-37.302h21.532c20.307 0 33.629-13.178 33.629-33.269 0-20.164-13.178-33.342-33.341-33.342zm471.898 38.742c-12.17 0-20.31 9.362-20.31 23.476 0 .36.07 1.297.07 1.657h11.45c.51-8.57 3.82-12.89 9.79-12.89 3.25 0 6.13 1.8 11.17 7.129 6.26 6.409 11.45 8.929 18.5 8.929 12.1 0 20.1-9.289 20.1-23.476v-1.584h-11.31c-.51 8.353-3.75 12.89-9.36 12.89-3.6 0-6.63-1.872-11.6-7.129-6.33-6.481-11.52-9.002-18.5-9.002m835.15 0c-12.18 0-20.31 9.362-20.31 23.476 0 .36.07 1.297.07 1.657h11.45c.5-8.57 3.82-12.89 9.79-12.89 3.24 0 6.13 1.8 11.17 7.129 6.26 6.409 11.45 8.929 18.5 8.929 12.1 0 20.09-9.289 20.09-23.476v-1.584h-11.3c-.51 8.353-3.75 12.89-9.36 12.89-3.6 0-6.63-1.872-11.6-7.129-6.33-6.481-11.52-9.002-18.5-9.002m-926.32 0c-12.17 0-20.308 9.362-20.308 23.476 0 .36.072 1.297.072 1.657h11.45c.504-8.57 3.817-12.89 9.794-12.89 3.24 0 6.121 1.8 11.162 7.129 6.265 6.409 11.45 8.929 18.507 8.929 12.098 0 20.093-9.289 20.093-23.476v-1.584h-11.308c-.504 8.353-3.744 12.89-9.361 12.89-3.601 0-6.625-1.872-11.594-7.129-6.337-6.481-11.522-9.002-18.507-9.002m379.31 0c-12.17 0-20.3 9.362-20.3 23.476 0 .36.07 1.297.07 1.657h11.45c.5-8.57 3.81-12.89 9.79-12.89 3.24 0 6.12 1.8 11.16 7.129 6.27 6.409 11.45 8.929 18.51 8.929 12.1 0 20.09-9.289 20.09-23.476v-1.584h-11.3c-.51 8.353-3.75 12.89-9.37 12.89-3.6 0-6.62-1.872-11.59-7.129-6.34-6.481-11.52-9.002-18.51-9.002m91.17 0c-12.17 0-20.31 9.362-20.31 23.476 0 .36.07 1.297.07 1.657h11.45c.51-8.57 3.82-12.89 9.8-12.89 3.24 0 6.12 1.8 11.16 7.129 6.26 6.409 11.45 8.929 18.51 8.929 12.09 0 20.09-9.289 20.09-23.476v-1.584h-11.31c-.5 8.353-3.74 12.89-9.36 12.89-3.6 0-6.62-1.872-11.59-7.129-6.34-6.481-11.53-9.002-18.51-9.002m91.17 0c-12.17 0-20.31 9.362-20.31 23.476 0 .36.07 1.297.07 1.657h11.45c.5-8.57 3.82-12.89 9.79-12.89 3.24 0 6.13 1.8 11.17 7.129 6.26 6.409 11.45 8.929 18.5 8.929 12.1 0 20.1-9.289 20.1-23.476v-1.584h-11.31c-.51 8.353-3.75 12.89-9.36 12.89-3.6 0-6.63-1.872-11.6-7.129-6.33-6.481-11.52-9.002-18.5-9.002m91.16 0c-12.17 0-20.3 9.362-20.3 23.476 0 .36.07 1.297.07 1.657h11.45c.5-8.57 3.81-12.89 9.79-12.89 3.24 0 6.12 1.8 11.16 7.129 6.27 6.409 11.45 8.929 18.51 8.929 12.1 0 20.09-9.289 20.09-23.476v-1.584h-11.3c-.51 8.353-3.75 12.89-9.36 12.89-3.61 0-6.63-1.872-11.6-7.129-6.34-6.481-11.52-9.002-18.51-9.002m-781.784 24.773v-11.378h-76.189v11.378zm-239.008-52.209h18.651c15.123 0 23.62 7.849 23.62 22.036 0 14.114-8.497 21.963-23.62 21.963h-18.651z" style="fill:#fff"/><defs><linearGradient id="a" x1="0" x2="1" y1="0" y2="0" gradientTransform="matrix(2100 2100 -2100 2100 150 -150)" gradientUnits="userSpaceOnUse"><stop offset="0" style="stop-color:#35ff41;stop-opacity:1"/><stop offset="1" style="stop-color:#1d00ae;stop-opacity:1"/></linearGradient></defs></svg>