<svg xmlns="http://www.w3.org/2000/svg" xml:space="preserve" style="fill-rule:evenodd;clip-rule:evenodd;stroke-miterlimit:10" viewBox="0 0 2400 1800"><path d="M0 0h2400v1800H0z" style="fill:url(#a)"/><path d="M1200 405.56H485.9L1200 900H485.9zm0 494.44-714.1 494.44H1200" style="fill:none;fill-rule:nonzero;stroke:#86b4d1;stroke-width:30px"/><path d="m485.9 900 714.1 494.44-714.1-988.88m714.1 0-714.1 988.88m1422.86-247.22L1200 405.56l708.76 247.22L1200 900z" style="fill:none;fill-rule:nonzero;stroke:#86b4d1;stroke-width:30px"/><path d="M1908.76 652.78 1200 1394.44l708.76-247.22" style="fill:none;fill-rule:nonzero;stroke:#86b4d1;stroke-width:30px"/><circle cx="485.9" cy="405.56" r="174.89" style="fill:#fff"/><circle cx="485.9" cy="900" r="174.89" style="fill:#fff"/><circle cx="485.9" cy="1394.44" r="174.89" style="fill:#fff"/><circle cx="1200" cy="405.56" r="174.89" style="fill:#fff"/><circle cx="1200" cy="900" r="174.89" style="fill:#fff"/><circle cx="1200" cy="1394.44" r="174.89" style="fill:#fff"/><circle cx="1908.76" cy="652.78" r="174.89" style="fill:#fff"/><circle cx="1908.76" cy="1147.22" r="174.89" style="fill:#fff"/><defs><linearGradient id="a" x1="0" x2="1" y1="0" y2="0" gradientTransform="matrix(2100 2100 -2100 2100 150 -150)" gradientUnits="userSpaceOnUse"><stop offset="0" style="stop-color:#136cac;stop-opacity:1"/><stop offset="1" style="stop-color:#9300d3;stop-opacity:1"/></linearGradient></defs></svg>