<svg xmlns="http://www.w3.org/2000/svg" xml:space="preserve" style="fill-rule:evenodd;clip-rule:evenodd;stroke-linecap:round;stroke-linejoin:round;stroke-miterlimit:1.5" viewBox="0 0 2400 1800"><path d="M0 0h2400v1800H0z" style="fill:url(#a)"/><g style="font-style:italic;font-size:12px;font-family:DankMono-Italic,&quot;Dank Mono&quot;,monospace;fill:#fff"><path d="M937.931 174.442q-.451.24-.926.358-.474.123-1.007.123-1.682 0-2.614-1.19-.926-1.189-.926-3.345 0-2.145.932-3.34.938-1.201 2.608-1.201.533 0 1.007.123.475.117.926.357v1.213q-.433-.357-.932-.545-.498-.187-1.001-.187-1.155 0-1.729.89t-.574 2.69q0 1.793.574 2.683.574.891 1.729.891.515 0 1.007-.188.498-.187.926-.544zm4.547-5.496q-.82 0-1.242.639t-.422 1.893q0 1.248.422 1.892.422.639 1.242.639.826 0 1.248-.639.422-.644.422-1.892 0-1.254-.422-1.893t-1.248-.639m0-.914q1.365 0 2.086.885.726.885.726 2.56 0 1.682-.72 2.567-.72.879-2.092.879-1.365 0-2.086-.879-.72-.885-.72-2.566 0-1.676.72-2.56.72-.886 2.086-.886m8.642.996v-3.392h1.079v9.117h-1.078v-.826q-.27.486-.721.744-.445.252-1.031.252-1.19 0-1.875-.92-.68-.926-.68-2.549 0-1.6.685-2.508.686-.914 1.87-.914.591 0 1.043.258.45.252.709.738m-3.17 2.45q0 1.254.4 1.892.397.639 1.177.639t1.183-.645q.41-.644.41-1.886 0-1.248-.41-1.887-.404-.645-1.183-.645-.78 0-1.178.639t-.398 1.893m11.881-.276v.528h-4.67v.035q0 1.072.557 1.658.563.586 1.582.586.516 0 1.078-.164t1.201-.498v1.072q-.615.252-1.189.375-.568.129-1.102.129-1.529 0-2.39-.914-.861-.92-.861-2.531 0-1.57.843-2.508.844-.938 2.25-.938 1.254 0 1.975.85.726.85.726 2.32m-1.078-.316q-.023-.95-.45-1.442-.423-.498-1.22-.498-.779 0-1.283.516t-.597 1.43z" aria-label="Code" style="font-family:monospace;-inkscape-font-specification:&quot;monospace Italic&quot;" transform="translate(-7247.694 -502.983)scale(8.18951)"/></g><g style="font-style:italic;font-size:12px;font-family:DankMono-Italic,&quot;Dank Mono&quot;,monospace;fill:#fff"><path d="M931.24 166.26h1.19v3.586h3.24v-3.585h1.19v8.748h-1.19v-4.166h-3.24v4.166h-1.19zm12.938 5.198v.527h-4.67v.035q0 1.073.557 1.658.562.586 1.582.586.515 0 1.078-.164.562-.164 1.201-.498v1.073q-.615.251-1.19.375-.568.128-1.101.128-1.53 0-2.39-.914-.862-.92-.862-2.53 0-1.571.844-2.509t2.25-.937q1.254 0 1.974.85.727.849.727 2.32m-1.078-.317q-.024-.949-.451-1.441-.422-.498-1.22-.498-.778 0-1.282.516-.504.515-.598 1.43zm5.9.569h-.357q-.944 0-1.424.334-.475.328-.475.984 0 .592.358.92.357.328.99.328.89 0 1.4-.615.51-.621.516-1.711v-.24zm2.092-.446v3.745h-1.084v-.973q-.346.586-.873.867-.522.276-1.272.276-1.001 0-1.6-.563-.597-.568-.597-1.518 0-1.095.733-1.664.738-.568 2.162-.568h1.447v-.17q-.006-.785-.398-1.137-.393-.357-1.254-.357-.551 0-1.114.158-.562.158-1.095.463v-1.078q.597-.229 1.142-.34.551-.117 1.067-.117.814 0 1.388.24.58.24.938.72.222.294.316.727.094.428.094 1.29m3.217 2.917v3.323h-1.084v-9.059h1.084v.838q.27-.486.715-.738.45-.258 1.037-.258 1.19 0 1.863.92.68.92.68 2.549 0 1.6-.68 2.513-.68.908-1.863.908-.598 0-1.05-.251-.444-.258-.702-.745m3.164-2.449q0-1.254-.399-1.892-.392-.64-1.171-.64-.786 0-1.19.645-.404.64-.404 1.887 0 1.242.404 1.887.404.644 1.19.644.779 0 1.171-.638.399-.639.399-1.893" aria-label="Heap" style="font-family:monospace;-inkscape-font-specification:&quot;monospace Italic&quot;" transform="translate(-6920.77 -507.642)scale(8.18951)"/></g><g style="font-style:italic;font-size:12px;font-family:DankMono-Italic,&quot;Dank Mono&quot;,monospace;fill:#fff"><path d="M936.31 166.005h5.15v.996h-3.961v2.578h3.591v.996h-3.59v4.178h-1.19zm12.626 3.539q-.346-.27-.703-.393t-.785-.123q-1.008 0-1.541.633t-.533 1.828v3.264h-1.084v-6.562h1.084v1.283q.27-.698.826-1.067.562-.375 1.33-.375.398 0 .744.1t.662.31zm6.973 1.658v.528h-4.67v.035q0 1.072.557 1.658.562.586 1.582.586.515 0 1.078-.164.562-.164 1.2-.498v1.072q-.614.252-1.189.375-.568.129-1.101.129-1.53 0-2.39-.914-.862-.92-.862-2.531 0-1.57.844-2.508.843-.938 2.25-.938 1.254 0 1.974.85.727.85.727 2.32m-1.078-.316q-.024-.95-.451-1.442-.422-.498-1.22-.498-.779 0-1.282.516-.504.516-.598 1.43zm8.302.316v.528h-4.67v.035q0 1.072.557 1.658.563.586 1.582.586.516 0 1.078-.164t1.201-.498v1.072q-.615.252-1.189.375-.568.129-1.102.129-1.529 0-2.39-.914-.862-.92-.862-2.531 0-1.57.844-2.508t2.25-.938q1.254 0 1.975.85.726.85.726 2.32m-1.078-.316q-.023-.95-.45-1.442-.423-.498-1.22-.498-.779 0-1.283.516t-.597 1.43z" aria-label="Free" style="font-family:monospace;-inkscape-font-specification:&quot;monospace Italic&quot;" transform="translate(-6456.288 -564.506)scale(8.18951)"/></g><g style="font-style:italic;font-size:12px;font-family:DankMono-Italic,&quot;Dank Mono&quot;,monospace;fill:#fff"><path d="M937.574 180.704v1.2q-.54-.345-1.084-.52-.54-.176-1.09-.176-.838 0-1.324.392-.487.387-.487 1.05 0 .58.317.884.322.305 1.195.51l.621.14q1.23.287 1.793.903.563.615.563 1.675 0 1.248-.774 1.905-.773.656-2.25.656-.615 0-1.236-.135-.621-.129-1.248-.392v-1.26q.674.428 1.271.627.604.199 1.213.199.897 0 1.395-.398.498-.405.498-1.125 0-.657-.346-1.002-.34-.346-1.19-.534l-.632-.146q-1.219-.275-1.77-.832t-.55-1.494q0-1.172.785-1.875.79-.71 2.097-.71.504 0 1.06.118.557.111 1.173.34m3.492 7.623v3.322h-1.084v-9.058h1.084v.837q.27-.486.715-.738.45-.258 1.037-.258 1.19 0 1.863.92.68.92.68 2.549 0 1.6-.68 2.514-.68.908-1.863.908-.598 0-1.049-.252-.445-.258-.703-.744m3.164-2.45q0-1.253-.399-1.892-.392-.639-1.171-.639-.786 0-1.19.645-.404.639-.404 1.887 0 1.242.404 1.886.404.645 1.19.645.779 0 1.171-.639.399-.638.399-1.892m5.976-.024h-.357q-.943 0-1.424.334-.474.328-.474.985 0 .591.357.92.357.328.99.328.89 0 1.4-.616.51-.62.516-1.71v-.24zm2.092-.445v3.744h-1.084v-.973q-.345.586-.873.868-.521.275-1.271.275-1.002 0-1.6-.563-.597-.568-.597-1.517 0-1.096.732-1.664.738-.569 2.162-.569h1.447v-.17q-.006-.785-.398-1.136-.393-.358-1.254-.358-.55 0-1.113.159-.563.158-1.096.462v-1.078q.598-.228 1.143-.34.55-.117 1.066-.117.814 0 1.389.24.58.24.937.721.223.293.317.727.093.428.093 1.289m7.237 3.41q-.434.252-.897.375-.457.129-.937.129-1.524 0-2.385-.914-.856-.914-.856-2.531 0-1.618.856-2.532.861-.914 2.385-.914.474 0 .925.123t.909.381v1.131q-.428-.38-.862-.55-.427-.17-.972-.17-1.014 0-1.559.656t-.545 1.875q0 1.213.545 1.875.55.656 1.559.656.562 0 1.007-.17.446-.176.827-.54zm7.523-3.217v.528h-4.67v.035q0 1.072.557 1.658.562.586 1.582.586.515 0 1.078-.164.562-.164 1.201-.498v1.072q-.615.252-1.19.375-.568.129-1.1.129-1.53 0-2.392-.914-.86-.92-.86-2.531 0-1.57.843-2.508.844-.938 2.25-.938 1.254 0 1.974.85.727.85.727 2.32m-1.078-.316q-.023-.95-.451-1.442-.422-.498-1.219-.498-.78 0-1.283.516-.504.516-.598 1.43z" aria-label="Space" style="font-family:monospace;-inkscape-font-specification:&quot;monospace Italic&quot;" transform="translate(-6456.288 -564.506)scale(8.18951)"/></g><g style="font-style:italic;font-size:12px;font-family:DankMono-Italic,&quot;Dank Mono&quot;,monospace;fill:#fff"><path d="M937.574 166.304v1.201q-.54-.346-1.084-.522-.54-.175-1.09-.175-.838 0-1.324.392-.487.387-.487 1.05 0 .58.317.884.322.305 1.195.51l.621.14q1.23.287 1.793.903.563.615.563 1.675 0 1.248-.774 1.905-.773.656-2.25.656-.615 0-1.236-.135-.621-.129-1.248-.392v-1.26q.674.428 1.271.627.604.199 1.213.199.897 0 1.395-.398.498-.405.498-1.125 0-.657-.346-1.002-.34-.346-1.19-.534l-.632-.146q-1.219-.275-1.77-.832t-.55-1.494q0-1.172.785-1.875.79-.71 2.097-.71.504 0 1.06.118.557.111 1.173.34m4.892.023v1.864h2.45v.837h-2.45v3.563q0 .726.276 1.014.275.287.96.287h1.213v.861h-1.318q-1.213 0-1.71-.486-.499-.487-.499-1.676v-3.563h-1.752v-.837h1.752v-1.864zm7.74 5.127h-.357q-.943 0-1.424.334-.474.328-.474.985 0 .591.357.92.357.328.99.328.89 0 1.4-.616.51-.62.516-1.71v-.24zm2.092-.445v3.744h-1.084v-.973q-.345.586-.873.868-.521.275-1.271.275-1.002 0-1.6-.563-.597-.568-.597-1.517 0-1.096.732-1.664.738-.569 2.162-.569h1.447v-.17q-.006-.785-.398-1.136-.393-.358-1.254-.358-.55 0-1.113.159-.563.158-1.096.462v-1.078q.598-.228 1.143-.34.55-.117 1.066-.117.814 0 1.389.24.58.24.937.721.223.293.317.727.093.428.093 1.289m7.237 3.41q-.434.252-.897.375-.457.129-.937.129-1.524 0-2.385-.914-.856-.914-.856-2.531 0-1.618.856-2.532.861-.914 2.385-.914.474 0 .925.123t.909.381v1.131q-.428-.38-.862-.55-.427-.17-.972-.17-1.014 0-1.559.656t-.545 1.875q0 1.213.545 1.875.55.656 1.559.656.562 0 1.007-.17.446-.176.827-.54zm2.39-8.783h1.114v5.28l2.83-2.725h1.312l-2.584 2.472 2.988 4.09h-1.318l-2.426-3.387-.802.756v2.631h-1.114z" aria-label="Stack" style="font-family:monospace;-inkscape-font-specification:&quot;monospace Italic&quot;" transform="translate(-5910.557 -494.505)scale(8.18951)"/></g><path d="M906.765 894.312v-17.304h145.095v-16.067l207.59 24.719-207.59 24.719v-16.067z" style="fill:#fff" transform="matrix(.46417 0 0 3.8981 541.805 -2552.399)"/><path d="M906.765 894.312v-17.304h145.095v-16.067l207.59 24.719-207.59 24.719v-16.067z" style="fill:#fff" transform="matrix(.46417 0 0 3.8981 541.805 -2552.399)"/><path d="M906.765 894.312v-17.304h145.095v-16.067l207.59 24.719-207.59 24.719v-16.067z" style="fill:#fff" transform="matrix(-.46417 0 0 -3.8981 2101.727 4352.391)"/><defs><linearGradient id="a" x1="0" x2="1" y1="0" y2="0" gradientTransform="rotate(44.833 315.364 123.672)scale(3091.8)" gradientUnits="userSpaceOnUse"><stop offset="0" style="stop-color:#0064fe;stop-opacity:1"/><stop offset="1" style="stop-color:#f9ff60;stop-opacity:1"/></linearGradient></defs><path d="M642.658 464.176h30v871.633h-30zm320.041 0h30v871.633h-30zm692.176.007h30v871.633h-30z" style="fill:#fff;stroke-width:1.06507"/><path d="M427.948 455.215h1544.104a100 100 45 0 1 100 100v689.57a100 100 135 0 1-100 100H427.948a100 100 45 0 1-100-100v-689.57a100 100 135 0 1 100-100" style="fill:none;stroke:#fff;stroke-width:30;stroke-linejoin:round;stroke-dasharray:none;stroke-opacity:1"/></svg>