<svg xmlns="http://www.w3.org/2000/svg" xml:space="preserve" style="fill-rule:evenodd;clip-rule:evenodd" viewBox="0 0 2400 1800"><path d="M0 0h2400v1800H0z" style="fill:url(#a)" transform="translate(2.708 4.114)"/><path d="M270.506 278.559c154.834 0 280.54 125.706 280.54 280.54 0 154.835-125.706 280.54-280.54 280.54-154.835 0-280.54-125.705-280.54-280.54 0-154.834 125.705-280.54 280.54-280.54m0 48.482c128.076 0 232.058 103.982 232.058 232.058 0 128.077-103.982 232.058-232.058 232.058-128.077 0-232.058-103.981-232.058-232.058 0-128.076 103.981-232.058 232.058-232.058" style="fill:#58ffd4" transform="translate(400.481 440.112)"/><path d="M816.2 608.267c3.424-13.494 5.221-27.616 5.221-42.145 0-97.318-80.623-176.327-179.928-176.327s-179.927 79.009-179.927 176.327c0 56.658 27.328 107.11 69.757 139.377v35.01c-59.479-36.182-99.126-100.783-99.126-174.387 0-113.203 93.782-205.109 209.296-205.109S850.79 452.919 850.79 566.122c0 17.433-2.224 34.361-6.427 50.527z" style="fill:#58ffd4" transform="translate(21.366 99.13)"/><path d="M289.51 900.08H120.48" style="fill:none;fill-rule:nonzero;stroke:#58ffd4;stroke-width:30px" transform="translate(14.816 99.136)"/><path d="m272 840.24 103.63 59.84L272 959.91z" style="fill:#58ffd4;fill-rule:nonzero" transform="translate(14.816 99.136)"/><path d="M1466.46 720.83c-57.25-34.88-142-72.39-248.74-77.37-196.88-9.19-332.6 98.71-366.93 127.77" style="fill:none;fill-rule:nonzero;stroke:#58ffd4;stroke-width:30px" transform="matrix(1.01692 0 0 1 6.969 99.13)"/><path d="m1485.9 662.7 50.39 108.53-119.19-10.61z" style="fill:#58ffd4;fill-rule:nonzero" transform="matrix(1.01692 0 0 1 6.969 99.13)"/><path d="M1466.46 720.83c-57.25-34.88-142-72.39-248.74-77.37-196.88-9.19-332.6 98.71-366.93 127.77" style="fill:none;fill-rule:nonzero;stroke:#58ffd4;stroke-width:30px" transform="matrix(-1.01692 0 0 -1 2477.71 1907.59)"/><path d="m1485.9 662.7 50.39 108.53-119.19-10.61z" style="fill:#58ffd4;fill-rule:nonzero" transform="matrix(-1.01692 0 0 -1 2477.71 1907.59)"/><path d="M788.059 668.282c12.999-17.815 22.681-38.106 28.141-60.015l28.163 8.382c-7.786 30.097-22.373 57.55-42.066 80.685 19.694-23.135 34.285-50.583 42.066-80.685l44.096 13.123-89.657 81.474zm28.141-60.015c-5.48 21.9-15.141 42.196-28.141 60.015l-18.476-73.888z" style="fill:#58ffd4" transform="translate(29.787 55.498)"/><path d="M816.2 608.267c3.424-13.494 5.221-27.616 5.221-42.145 0-97.318-80.623-176.327-179.928-176.327s-179.927 79.009-179.927 176.327c0 56.658 27.328 107.11 69.757 139.377v35.01c-59.479-36.182-99.126-100.783-99.126-174.387 0-113.203 93.782-205.109 209.296-205.109S850.79 452.919 850.79 566.122c0 17.433-2.224 34.361-6.427 50.527z" style="fill:#58ffd4" transform="matrix(-1 0 0 1 2419.46 99.13)"/><path d="M788.059 668.282c12.999-17.815 22.681-38.106 28.141-60.015l28.163 8.382c-7.786 30.097-22.373 57.55-42.066 80.685 19.694-23.135 34.285-50.583 42.066-80.685l44.096 13.123-89.657 81.474zm28.141-60.015c-5.48 21.9-15.141 42.196-28.141 60.015l-18.476-73.888z" style="fill:#58ffd4" transform="matrix(-1 0 0 1 2419.46 99.13)"/><path d="M1441.46 477.33a11.4 11.4 0 0 0-8.67-3.7c-1.01.018-2.02.169-3 .45-.82.218-1.63.486-2.42.8l-29.9 10.29a11 11 0 0 0-6.21 5 13.1 13.1 0 0 0-1.63 6.45 11.66 11.66 0 0 0 3.45 8.42 11.9 11.9 0 0 0 8.63 3.47c1.92-.041 3.82-.48 5.56-1.29l13.27-4.65v120a11.76 11.76 0 0 0 3.62 8.69 12 12 0 0 0 8.55 3.583c6.59 0 12-5.417 12-12V485.71c.02-3.103-1.14-6.1-3.25-8.38m-432.81 691.9A11.61 11.61 0 0 0 997 1166c-.83.23-1.64.5-2.42.8l-29.9 10.29a11 11 0 0 0-6.22 5 13.2 13.2 0 0 0-1.62 6.44 11.64 11.64 0 0 0 3.45 8.43 11.95 11.95 0 0 0 8.63 3.46 13.8 13.8 0 0 0 5.55-1.29l13.28-4.64v120a11.74 11.74 0 0 0 3.62 8.7 11.98 11.98 0 0 0 8.543 3.57c6.587 0 11.997-5.41 11.997-12v-137.15c.02-3.1-1.15-6.1-3.26-8.38" style="fill:#58ffd4;fill-rule:nonzero" transform="translate(21.366 99.13)"/><path d="M649.62 652.82c136.467 0 247.26 110.793 247.26 247.26 0 136.47-110.793 247.26-247.26 247.26s-247.26-110.79-247.26-247.26c0-136.467 110.793-247.26 247.26-247.26ZM462.846 904.638q.77 8.043 4.441 14.552 4.645 8.24 12.711 12.974 8.064 4.733 18.584 4.733 6.31 0 12.71-2.191 6.4-2.192 10.257-5.523 1.928-1.578 4.383-1.665 2.454-.088 4.207 1.314 2.28 2.104 2.367 4.559t-2.016 4.207q-5.785 4.91-14.727 8.153t-17.181 3.243q-14.202 0-25.159-6.224-10.957-6.223-17.181-17.269-6.224-11.044-6.224-25.246 0-14.376 5.873-25.333 5.874-10.958 16.217-17.269 10.344-6.312 23.844-6.312 13.324 0 23.23 6.049 9.906 6.048 15.34 16.743 5.436 10.693 5.435 24.369 0 2.805-1.753 4.471t-4.558 1.665zm197.586 0q.77 8.043 4.441 14.552 4.645 8.24 12.711 12.974 8.065 4.733 18.583 4.733 6.312 0 12.711-2.191 6.4-2.192 10.256-5.523 1.929-1.578 4.383-1.665 2.455-.088 4.208 1.314 2.28 2.104 2.367 4.559t-2.016 4.207q-5.785 4.91-14.727 8.153t-17.182 3.243q-14.2 0-25.158-6.224-10.957-6.223-17.181-17.269-6.224-11.044-6.224-25.246 0-14.376 5.873-25.333 5.874-10.958 16.217-17.269 10.344-6.312 23.844-6.312 13.324 0 23.23 6.049 9.905 6.048 15.34 16.743 5.435 10.693 5.435 24.369 0 2.805-1.753 4.471t-4.559 1.665zm113.402-39.658s-.295.333 0 0v-5.925q0-3.156-1.841-4.997t-4.821-1.84q-3.156 0-4.997 1.84t-1.84 4.997v82.401q0 2.98 1.84 4.821t4.997 1.841q2.98 0 4.821-1.841 1.842-1.841 1.841-4.821v-51.895q0-7.364 4.033-13.149 4.032-5.785 10.957-9.117 6.925-3.331 15.516-3.331 8.941 0 16.042 3.506 7.1 3.506 11.22 10.52t4.12 17.882v45.584q0 2.804 1.929 4.733 1.928 1.929 4.909 1.929 2.805 0 4.733-1.929 1.929-1.929 1.929-4.733v-45.584q0-14.376-5.698-24.369t-15.516-15.165-22.265-5.172q-11.397 0-20.688 4.996-6.516 3.504-11.221 8.818ZM592.09 928.713l33.248-72.989q1.052-2.454 3.594-3.243 2.543-.79 4.997.263 2.454 1.227 3.331 3.594t-.175 4.47l-38.395 82.751q-2.105 4.559-6.663 4.559-4.208 0-6.311-4.559l-38.921-82.575q-1.052-2.28-.176-4.559t3.507-3.506q2.454-1.227 4.734-.351t3.506 3.156zm-96.1-65.275q9.794.01 16.88 4.558 7.101 4.559 10.958 12.623 2.796 5.847 3.473 12.799h-64.206q.914-6.621 3.666-12.185 4.12-8.328 11.659-13.061t17.532-4.734zm197.586 0q9.794.01 16.88 4.558 7.1 4.559 10.958 12.623 2.796 5.847 3.472 12.799h-64.205q.913-6.621 3.666-12.185 4.12-8.328 11.659-13.061t17.532-4.734z" style="fill:#fff;stroke:#5eff59;stroke-width:1px" transform="translate(21.366 99.13)"/><path d="M1756.59 652.74c136.47 0 247.26 110.793 247.26 247.26 0 136.47-110.79 247.26-247.26 247.26S1509.33 1036.47 1509.33 900c0-136.467 110.79-247.26 247.26-247.26m-121.32 316.241c-9.35 0-17.71-2.104-25.07-6.312-7.37-4.207-13.15-9.993-17.36-17.356s-6.31-15.721-6.31-25.071c0-9.467 2.1-17.883 6.31-25.246 4.21-7.364 9.99-13.149 17.36-17.357 7.36-4.208 15.72-6.311 25.07-6.311s17.68 2.103 24.98 6.311c7.31 4.208 13.06 9.993 17.27 17.357s6.37 15.779 6.49 25.246c0 9.35-2.14 17.707-6.4 25.071-4.27 7.363-10.05 13.149-17.36 17.356-7.3 4.208-15.63 6.312-24.98 6.312m118.69 0c-9.23 0-17.53-2.133-24.89-6.399-7.37-4.267-13.18-10.081-17.45-17.445-4.27-7.363-6.4-15.72-6.4-25.071 0-9.233 2.08-17.532 6.22-24.895q6.225-11.045 16.92-17.444c7.13-4.266 15.2-6.399 24.2-6.399q11.745 0 21.21 4.996c6.31 3.331 11.4 7.743 15.25 13.237v-51.544c0-2.104.65-3.77 1.93-4.997 1.29-1.227 2.93-1.841 4.91-1.841 1.99 0 3.63.614 4.91 1.841 1.29 1.227 1.93 2.893 1.93 4.997v82.751q-.345 13.674-6.75 24.632c-4.27 7.305-10.05 13.062-17.36 17.269q-10.95 6.312-24.63 6.312m123.95 0c-9.23 0-17.53-2.133-24.89-6.399-7.37-4.267-13.18-10.081-17.45-17.445-4.26-7.363-6.4-15.72-6.4-25.071 0-9.233 2.08-17.532 6.23-24.895s9.78-13.178 16.92-17.444c7.12-4.266 15.19-6.399 24.19-6.399q11.745 0 21.21 4.996c6.31 3.331 11.4 7.743 15.26 13.237v-51.544q0-3.156 1.92-4.997c1.29-1.227 2.93-1.841 4.91-1.841 1.99 0 3.63.614 4.91 1.841 1.29 1.227 1.93 2.893 1.93 4.997v82.751q-.345 13.674-6.75 24.632c-4.27 7.305-10.05 13.062-17.36 17.269q-10.95 6.312-24.63 6.312m-242.64-12.273c6.78 0 12.85-1.578 18.23-4.733 5.38-3.156 9.59-7.481 12.62-12.974q4.56-8.24 4.56-18.759t-4.56-18.847c-3.03-5.552-7.24-9.906-12.62-13.061-5.38-3.156-11.45-4.734-18.23-4.734s-12.86 1.578-18.23 4.734c-5.38 3.155-9.62 7.509-12.71 13.061q-4.65 8.328-4.65 18.847t4.65 18.759c3.09 5.493 7.33 9.818 12.71 12.974 5.37 3.155 11.45 4.733 18.23 4.733m118.69 0q10.17 0 18.15-4.821c5.31-3.214 9.52-7.568 12.62-13.061q4.65-8.24 4.65-18.76 0-10.343-4.65-18.671c-3.1-5.552-7.31-9.906-12.62-13.061q-7.98-4.734-18.15-4.734-9.99 0-18.06 4.734c-5.37 3.155-9.64 7.509-12.8 13.061-3.15 5.552-4.73 11.776-4.73 18.671 0 7.013 1.58 13.266 4.73 18.76 3.16 5.493 7.43 9.847 12.8 13.061q8.07 4.821 18.06 4.821m123.95 0q10.17 0 18.15-4.821c5.32-3.214 9.52-7.568 12.62-13.061q4.65-8.24 4.65-18.76 0-10.343-4.65-18.671c-3.1-5.552-7.3-9.906-12.62-13.061q-7.98-4.734-18.15-4.734-9.99 0-18.06 4.734c-5.37 3.155-9.64 7.509-12.79 13.061q-4.74 8.328-4.74 18.671 0 10.52 4.74 18.76c3.15 5.493 7.42 9.847 12.79 13.061q8.07 4.821 18.06 4.821" style="fill:#fff" transform="translate(21.366 99.13)"/><text x="137.128" y="1263.84" style="font-family:&quot;Comfortaa-Regular_Bold&quot;,&quot;Comfortaa&quot;;font-size:12px;fill:#58ffd4" transform="translate(-1748.65 -21255.5)scale(17.1572)">0</text><text x="137.128" y="1263.84" style="font-family:&quot;Comfortaa-Regular_Bold&quot;,&quot;Comfortaa&quot;;font-size:12px;fill:#58ffd4" transform="translate(-640.297 -21255.5)scale(17.1572)">0</text><defs><linearGradient id="a" x1="0" x2="1" y1="0" y2="0" gradientTransform="matrix(2100 2100 -2100 2100 150 -150)" gradientUnits="userSpaceOnUse"><stop offset="0" style="stop-color:#1db92d;stop-opacity:1"/><stop offset="1" style="stop-color:#31bbff;stop-opacity:1"/></linearGradient></defs></svg>