<?xml version="1.0" encoding="UTF-8" standalone="no"?>
<!DOCTYPE svg PUBLIC "-//W3C//DTD SVG 1.1//EN" "http://www.w3.org/Graphics/SVG/1.1/DTD/svg11.dtd">
<svg width="100%" height="100%" viewBox="0 0 2400 1600" version="1.1" xmlns="http://www.w3.org/2000/svg" xmlns:xlink="http://www.w3.org/1999/xlink" xml:space="preserve" xmlns:serif="http://www.serif.com/" style="fill-rule:evenodd;clip-rule:evenodd;stroke-linejoin:round;stroke-miterlimit:2;">
    <rect x="0" y="0" width="2400" height="1600" style="fill:rgb(255,200,160);"/>
    <g transform="matrix(18.9349,0,0,18.9349,348.259,-195.034)">
        <path d="M9.135,43.975L18.2,48.946L18.2,51.843L9.135,46.871L9.135,43.975Z" style="fill:rgb(255,124,0);fill-opacity:0.75;fill-rule:nonzero;"/>
    </g>
    <g transform="matrix(18.9349,0,0,18.9349,348.259,-195.034)">
        <path d="M18.197,48.946L9.099,53.937L9.099,56.852L18.197,51.862L18.197,48.946Z" style="fill:rgb(255,124,0);fill-rule:nonzero;"/>
    </g>
    <g transform="matrix(18.9349,0,0,18.9349,348.259,-195.034)">
        <path d="M-0,48.946L9.099,53.937L9.099,56.852L-0,51.862L-0,48.946Z" style="fill:rgb(255,124,0);fill-opacity:0.75;fill-rule:nonzero;"/>
    </g>
    <g transform="matrix(18.9349,0,0,18.9349,348.259,-195.034)">
        <path d="M9.134,43.956L0.001,48.946L0.001,51.862L9.134,46.871L9.134,43.956Z" style="fill:rgb(255,124,0);fill-rule:nonzero;"/>
    </g>
    <g transform="matrix(18.9349,0,0,18.9349,348.259,-195.034)">
        <path d="M9.135,49.002L18.2,53.974L18.2,56.87L9.135,51.899L9.135,49.002Z" style="fill:rgb(255,124,0);fill-opacity:0.75;fill-rule:nonzero;"/>
    </g>
    <g transform="matrix(18.9349,0,0,18.9349,348.259,-195.034)">
        <path d="M18.197,53.974L9.099,58.964L9.099,61.879L18.197,56.889L18.197,53.974Z" style="fill:rgb(255,124,0);fill-rule:nonzero;"/>
    </g>
    <g transform="matrix(18.9349,0,0,18.9349,348.259,-195.034)">
        <path d="M-0,53.974L9.099,58.964L9.099,61.879L-0,56.889L-0,53.974Z" style="fill:rgb(255,124,0);fill-opacity:0.75;fill-rule:nonzero;"/>
    </g>
    <g transform="matrix(18.9349,0,0,18.9349,348.259,-195.034)">
        <path d="M9.134,48.983L0.001,53.974L0.001,56.889L9.134,51.899L9.134,48.983Z" style="fill:rgb(255,124,0);fill-rule:nonzero;"/>
    </g>
    <g transform="matrix(18.9349,0,0,18.9349,348.259,-195.034)">
        <path d="M27.883,61.378L29.564,59.304C30.493,60.155 31.528,60.58 32.67,60.58C33.435,60.58 34.066,60.467 34.563,60.24C35.059,60.013 35.307,59.701 35.307,59.304C35.307,58.63 34.758,58.294 33.659,58.294C33.361,58.294 32.918,58.329 32.329,58.4C31.741,58.471 31.298,58.506 31,58.506C29.17,58.506 28.256,57.851 28.256,56.539C28.256,56.163 28.408,55.794 28.713,55.433C29.018,55.071 29.373,54.805 29.777,54.635C28.479,53.791 27.83,52.596 27.83,51.051C27.83,49.831 28.277,48.824 29.17,48.03C30.064,47.229 31.163,46.828 32.468,46.828C33.489,46.828 34.343,47.02 35.031,47.402L36.073,46.19L37.913,47.86L36.648,48.785C37.087,49.452 37.307,50.239 37.307,51.146C37.307,52.444 36.91,53.483 36.116,54.263C35.329,55.036 34.333,55.422 33.127,55.422C32.936,55.422 32.68,55.404 32.361,55.369L31.925,55.305C31.876,55.305 31.684,55.383 31.351,55.539C31.025,55.688 30.862,55.844 30.862,56.007C30.862,56.291 31.106,56.432 31.595,56.432C31.815,56.432 32.184,56.379 32.702,56.273C33.219,56.166 33.662,56.113 34.031,56.113C36.619,56.113 37.913,57.152 37.913,59.23C37.913,60.378 37.395,61.279 36.36,61.931C35.325,62.591 34.077,62.92 32.617,62.92C30.872,62.92 29.295,62.406 27.883,61.378ZM30.543,51.061C30.543,51.735 30.727,52.277 31.095,52.689C31.471,53.093 31.975,53.295 32.606,53.295C33.237,53.295 33.723,53.096 34.063,52.699C34.403,52.302 34.574,51.756 34.574,51.061C34.574,50.487 34.389,50.001 34.02,49.604C33.659,49.207 33.187,49.009 32.606,49.009C31.996,49.009 31.5,49.2 31.117,49.583C30.734,49.966 30.543,50.459 30.543,51.061Z" style="fill:rgb(255,124,0);fill-rule:nonzero;"/>
    </g>
    <g transform="matrix(18.9349,0,0,18.9349,348.259,-195.034)">
        <path d="M46.252,49.54C45.777,49.228 45.255,49.072 44.688,49.072C44.071,49.072 43.522,49.352 43.04,49.913C42.565,50.473 42.327,51.157 42.327,51.965L42.327,58.453L39.668,58.453L39.668,47.062L42.327,47.062L42.327,48.104C43.072,47.268 44.061,46.849 45.295,46.849C46.202,46.849 46.897,46.988 47.379,47.264L46.252,49.54Z" style="fill:rgb(255,124,0);fill-rule:nonzero;"/>
    </g>
    <g transform="matrix(18.9349,0,0,18.9349,348.259,-195.034)">
        <path d="M55.324,57.315C55.083,57.712 54.661,58.038 54.058,58.294C53.463,58.542 52.839,58.666 52.187,58.666C50.96,58.666 49.995,58.361 49.294,57.751C48.592,57.134 48.241,56.262 48.241,55.135C48.241,53.816 48.734,52.784 49.719,52.04C50.712,51.295 52.119,50.923 53.942,50.923C54.253,50.923 54.622,50.976 55.048,51.083C55.048,49.742 54.2,49.072 52.506,49.072C51.506,49.072 50.669,49.239 49.995,49.572L49.421,47.509C50.336,47.069 51.424,46.849 52.687,46.849C54.424,46.849 55.696,47.246 56.505,48.041C57.313,48.828 57.717,50.324 57.717,52.529L57.717,54.965C57.717,56.482 58.022,57.436 58.632,57.826C58.412,58.209 58.168,58.443 57.898,58.528C57.629,58.62 57.32,58.666 56.973,58.666C56.59,58.666 56.246,58.524 55.941,58.24C55.636,57.957 55.431,57.648 55.324,57.315ZM55.069,53.093C54.615,53.001 54.275,52.954 54.048,52.954C51.949,52.954 50.9,53.642 50.9,55.018C50.9,56.039 51.492,56.549 52.676,56.549C54.271,56.549 55.069,55.752 55.069,54.156L55.069,53.093Z" style="fill:rgb(255,124,0);fill-rule:nonzero;"/>
    </g>
    <g transform="matrix(18.9349,0,0,18.9349,348.259,-195.034)">
        <path d="M67.928,58.453L67.928,57.762C67.708,58.003 67.336,58.216 66.811,58.4C66.286,58.577 65.744,58.666 65.184,58.666C63.595,58.666 62.344,58.162 61.429,57.156C60.522,56.149 60.068,54.745 60.068,52.944C60.068,51.143 60.589,49.679 61.631,48.551C62.681,47.417 63.992,46.849 65.566,46.849C66.432,46.849 67.219,47.027 67.928,47.381L67.928,42.818L70.587,42.18L70.587,58.453L67.928,58.453ZM67.928,49.785C67.361,49.331 66.768,49.104 66.152,49.104C65.088,49.104 64.269,49.43 63.695,50.083C63.12,50.728 62.833,51.657 62.833,52.869C62.833,55.238 63.975,56.422 66.258,56.422C66.513,56.422 66.825,56.347 67.194,56.198C67.57,56.042 67.814,55.886 67.928,55.73L67.928,49.785Z" style="fill:rgb(255,124,0);fill-rule:nonzero;"/>
    </g>
    <g transform="matrix(18.9349,0,0,18.9349,348.259,-195.034)">
        <path d="M75.341,42.648C75.766,42.648 76.128,42.801 76.426,43.106C76.731,43.403 76.883,43.765 76.883,44.19C76.883,44.616 76.731,44.981 76.426,45.286C76.128,45.584 75.766,45.733 75.341,45.733C74.916,45.733 74.55,45.584 74.245,45.286C73.948,44.981 73.799,44.616 73.799,44.19C73.799,43.765 73.948,43.403 74.245,43.106C74.55,42.801 74.916,42.648 75.341,42.648ZM73.969,58.453L73.969,49.242L72.512,49.242L72.512,47.062L76.66,47.062L76.66,58.453L73.969,58.453Z" style="fill:rgb(255,124,0);fill-rule:nonzero;"/>
    </g>
    <g transform="matrix(18.9349,0,0,18.9349,348.259,-195.034)">
        <path d="M79.021,52.731C79.021,50.994 79.521,49.579 80.521,48.487C81.528,47.395 82.853,46.849 84.498,46.849C86.229,46.849 87.572,47.374 88.529,48.424C89.487,49.473 89.965,50.909 89.965,52.731C89.965,54.546 89.476,55.989 88.498,57.06C87.526,58.131 86.193,58.666 84.498,58.666C82.768,58.666 81.421,58.127 80.457,57.049C79.5,55.964 79.021,54.525 79.021,52.731ZM81.786,52.731C81.786,55.241 82.69,56.496 84.498,56.496C85.328,56.496 85.984,56.17 86.466,55.518C86.955,54.865 87.2,53.936 87.2,52.731C87.2,50.256 86.299,49.019 84.498,49.019C83.669,49.019 83.01,49.345 82.52,49.998C82.031,50.65 81.786,51.561 81.786,52.731Z" style="fill:rgb(255,124,0);fill-rule:nonzero;"/>
    </g>
</svg>
