<svg id="Layer_1" data-name="Layer 1" xmlns="http://www.w3.org/2000/svg" xmlns:xlink="http://www.w3.org/1999/xlink" viewBox="0 0 2400 1600"><defs><style>.cls-1{fill:#2c87c4;}.cls-2{opacity:0.54;}.cls-3{fill:#01579b;}.cls-4{fill:#40c4ff;}.cls-5{fill:#29b6f6;}.cls-6{fill:#fff;}.cls-6,.cls-7,.cls-8{opacity:0.2;isolation:isolate;}.cls-7{fill:#263238;}.cls-8{fill:url(#radial-gradient);}</style><radialGradient id="radial-gradient" cx="584.72" cy="1870.47" r="280.04" gradientTransform="translate(0 -1070.47)" gradientUnits="userSpaceOnUse"><stop offset="0" stop-color="#fff" stop-opacity="0.1"/><stop offset="1" stop-color="#fff" stop-opacity="0"/></radialGradient></defs><rect class="cls-1" width="2400" height="1600"/><g class="cls-2"><path d="M1148.88,600.66h113.35q57.7,0,100.76,23.86t66.12,66.37q23.07,42.52,23.08,97.59t-23.08,97.59Q1406,928.59,1363,952.44T1262.23,976.3H1148.88V600.66Zm113.35,333.22q66.64,0,105.74-38.3t39.08-107.06q0-68.74-39.08-107t-105.74-38.31H1193V933.84h69.25Z"/><path d="M1520.86,973.21q-23.08-11.54-35.68-31.76t-12.59-45.92q0-42.51,32-66.36t80.81-23.86a182.79,182.79,0,0,1,44.85,5.26q20.73,5.25,31.76,12.06V806.38q0-29.94-21-48t-53-18.1a89.62,89.62,0,0,0-41.47,9.71,75.67,75.67,0,0,0-29.91,27l-33.57-25.18q15.73-24.14,43.28-37.77t61.14-13.66q54.56,0,85.78,28.6t31.23,77.92V976.38H1662v-38.3h-2.1q-11.54,19.44-34.64,33t-52,13.66Q1544,984.77,1520.86,973.21Zm98.66-39.33a87.75,87.75,0,0,0,30.94-30.94,81.65,81.65,0,0,0,11.56-42.5q-12.6-8.4-30.94-13.66a140.7,140.7,0,0,0-38.84-5.27q-36.72,0-55.34,15.23t-18.64,39.33q0,22,16.79,35.67t42.5,13.66A80.7,80.7,0,0,0,1619.52,933.88Z"/><path d="M1751.59,713h42.5v42.5h2.1q9.43-23.62,32-36.74a96.53,96.53,0,0,1,49.33-13.12,103.07,103.07,0,0,1,19.42,1.56v45.67c-6-1.4-14-2.1-24.16-2.1q-34.12,0-55.33,22.55t-21.27,58.75V980.54h-44.6V713Zm277,266.45A68.66,68.66,0,0,1,2005.19,965a65.73,65.73,0,0,1-15.75-23.49q-5.25-13.34-5.27-32.58V749.19h-46.7v-40.4h46.7V633.25h44.6v75.54h65.05v40.4h-65.05v149.1q0,22.53,8.39,33.25,9.94,11.78,28.84,11.8a54.28,54.28,0,0,0,29.38-8.92V978a71.2,71.2,0,0,1-16,5.26,110.88,110.88,0,0,1-20.74,1.57A85.26,85.26,0,0,1,2028.56,979.43Z"/></g><path class="cls-3" d="M418.83,965.77,323.05,870c-11.35-11.68-18.43-28.14-18.43-44.22,0-7.45,4.2-19.09,7.36-25.8l88.42-184.2Z"/><path class="cls-4" d="M746.75,634.19,651,538.41C642.61,530,625.17,520,610.44,520c-12.67,0-25.1,2.55-33.16,7.36L400.44,615.76Z"/><polygon class="cls-4" points="533.05 1079.98 765.18 1079.98 765.18 980.5 592.01 925.24 433.6 980.5 533.05 1079.98"/><path class="cls-5" d="M400.44,914.21c0,29.54,3.71,36.83,18.43,51.6l14.73,14.73H765.18L603.07,796.34,400.44,615.8Z"/><path class="cls-3" d="M695.15,615.76H400.4L765.14,980.5h99.48V752.07L746.75,634.19C730.21,617.57,715.48,615.76,695.15,615.76Z"/><path class="cls-6" d="M422.54,969.47c-14.73-14.81-18.44-29.38-18.44-55.26V619.46l-3.7-3.7V914.17c0,25.92,0,33.08,22.14,55.3l11.06,11.07h0Z"/><polygon class="cls-7" points="860.96 748.41 860.96 976.83 761.48 976.83 765.18 980.5 864.66 980.5 864.66 752.11 860.96 748.41"/><path class="cls-6" d="M746.75,634.19c-18.27-18.26-33.25-18.43-55.26-18.43h-291l3.71,3.7H691.53c11,0,38.72-1.85,55.22,14.73Z"/><path class="cls-8" d="M861,748.41,746.75,634.19,651,538.41C642.61,530,625.17,520,610.44,520c-12.67,0-25.1,2.55-33.16,7.36L400.44,615.76,312,800c-3.17,6.71-7.37,18.35-7.37,25.8,0,16.08,7.08,32.54,18.43,44.22l88.3,87.64a98.5,98.5,0,0,0,7.53,8.15l3.7,3.7,11.07,11.07,95.78,95.78,3.7,3.7H765.3V980.54h99.49V752.11Z"/></svg>