<svg xmlns="http://www.w3.org/2000/svg" id="Layer_1" data-name="Layer 1" viewBox="0 0 2400 1600"><defs><linearGradient id="linear-gradient" x2="2400" y1="800" y2="800" gradientUnits="userSpaceOnUse"><stop offset="0" stop-color="#00a99d"/><stop offset="1" stop-color="#15adff"/></linearGradient><style>.cls-2{fill:#fff}</style></defs><path d="M0 0h2400v1600H0z" style="fill:url(#linear-gradient)"/><path d="m142.94 855.67 20.2-15.67a132 132 0 0 0 15.63 2q13.83-5.28 19.48-18.33t5.65-39.62l.48-18.64q0-36 24.53-56.27 20.44-16.83 43.17-16.84a49.6 49.6 0 0 1 20 4.48l-17.76 17.53q-10.93-7.1-21.61-7.1-26.76 0-26.76 43.85l-.48 16.58q0 34-6.5 49.8T194 843.65l24.89 2 11.06.84 13.32.85q5.28.36 11.89.36 29.78 0 46.46-17.32c1.28 1.61 1.92 2.77 1.92 3.49q0 4-11.54 13.59-19.73 16.23-42.33 16.23-9.26 0-22.72-1l-35.71-2.68q-27.86-2.01-48.3-4.34" class="cls-2"/><path d="M300.28 777.39h22.12l49.84 61.15v-47c0-5-.56-8.13-1.68-9.38-1.49-1.68-3.83-2.52-7-2.52h-2.86v-2.23h28.37v2.23h-2.88c-3.45 0-5.89 1-7.34 3.13q-1.32 1.92-1.32 8.77v68.72h-2.16l-53.75-65.65v50.2q0 7.51 1.62 9.38 2.28 2.52 7 2.52h2.88v2.23h-28.34v-2.23h2.83c3.49 0 5.95-1 7.4-3.12q1.32-1.92 1.32-8.78V788.1a38 38 0 0 0-5.38-5.48 20 20 0 0 0-5.38-2.46 19.3 19.3 0 0 0-5.29-.54Zm161.78 0 .9 19.12h-2.28a22.8 22.8 0 0 0-1.81-7.21 12 12 0 0 0-5-5.14 17.3 17.3 0 0 0-8.14-1.66h-11.45v62.29c0 5 .55 8.14 1.63 9.38 1.52 1.68 3.87 2.52 7 2.52h2.83v2.23H411.2v-2.23h2.88q5.18 0 7.34-3.12 1.32-1.92 1.32-8.78V782.5h-9.8a27.2 27.2 0 0 0-8.11.85 11.13 11.13 0 0 0-5.36 4.39 17.77 17.77 0 0 0-2.64 8.77h-2.28l1-19.12ZM499 752.75h129.77v9.86H499Zm0 39.19h129.77v9.86H499Zm235.59 115.92v4.2q-20.08-2.76-32.65-16.29t-12.56-30a87.7 87.7 0 0 1 2.76-20.14q2.76-11.48 2.77-17.85 0-8.67-7.28-16.18t-20.14-9.19v-4.94q12.87-1.68 20.14-9.13t7.28-16.24q0-6.36-2.77-17.79a87.3 87.3 0 0 1-2.76-20.2q0-16.35 12.56-29.94t32.65-16.23v4.2q-14.07 3.38-20.62 11a25.2 25.2 0 0 0-6.56 16.77q0 7.1 2.71 18.7a89.5 89.5 0 0 1 2.7 19.78q0 12.14-8.89 23.56t-26.58 17.68q17.32 6.38 26.39 18t9.08 23.8a89.5 89.5 0 0 1-2.7 19.78q-2.72 11.61-2.71 18.7a25.2 25.2 0 0 0 6.59 16.82q6.51 7.64 20.59 11.13m25.97-129.5q0-27.9 8.42-48t22.36-30q10.81-7.82 22.37-7.82 18.75 0 33.66 19.12Q866 735.32 866 775.83q0 28.38-8.18 48.22T837 852.85q-12.69 9-24.47 8.95-23.32 0-38.84-27.53-13.12-23.2-13.13-55.91m23.57 3q0 33.67 8.29 54.95 6.86 17.93 20.44 17.92 6.5 0 13.47-5.83t10.58-19.54q5.54-20.68 5.53-58.32 0-27.88-5.77-46.53-4.32-13.83-11.18-19.6a18.38 18.38 0 0 0-11.9-4q-8.19 0-14.55 7.34-8.67 10-11.79 31.38a292 292 0 0 0-3.12 42.23M888 899.92v-5.29q12.39-4.1 19.18-12.69t6.8-18.21a6.53 6.53 0 0 0-1.09-3.85 2.27 2.27 0 0 0-1.68-1.08c-.88 0-2.81.8-5.77 2.4a10.1 10.1 0 0 1-4.57 1.09 12.7 12.7 0 0 1-9.38-3.49q-3.48-3.49-3.49-9.62a13.34 13.34 0 0 1 4.51-10.1 15.54 15.54 0 0 1 11-4.21q7.94 0 14.12 6.91t6.2 18.34q0 12.39-8.6 23T888 899.92m222.82-207.78v56.4h-4.45q-2.16-16.24-7.75-25.85a40.34 40.34 0 0 0-15.94-15.28 44.1 44.1 0 0 0-21.4-5.65q-12.51 0-20.68 7.64t-8.18 17.37a20.63 20.63 0 0 0 5.17 13.59q7.46 9 35.48 24 22.83 12.26 31.2 18.82a45.85 45.85 0 0 1 12.86 15.45 40.6 40.6 0 0 1 4.51 18.63q0 18.53-14.37 31.93t-37 13.41a77.4 77.4 0 0 1-13.35-1.09q-3.72-.6-15.45-4.39t-14.85-3.78a6.3 6.3 0 0 0-4.75 1.8q-1.74 1.8-2.58 7.46h-4.45v-55.87h4.45q3.12 17.57 8.41 26.28t16.18 14.49a50.2 50.2 0 0 0 23.86 5.77q15 0 23.75-7.94t8.72-18.76a25.4 25.4 0 0 0-3.31-12.14 36 36 0 0 0-10.25-11.43q-4.65-3.6-25.65-15.32T1031.28 769a50.5 50.5 0 0 1-13.41-15.39 38.26 38.26 0 0 1-4.56-18.52q0-17.55 13.46-30.24t34.23-12.71q13 0 27.54 6.38 6.72 3 9.5 3a7.2 7.2 0 0 0 5.11-1.86q2-1.86 3.18-7.52Zm37.28 207.78v-5.29q12.38-4.1 19.17-12.69t6.8-18.21a6.6 6.6 0 0 0-1.08-3.85 2.3 2.3 0 0 0-1.69-1.08q-1.32 0-5.77 2.4a10.1 10.1 0 0 1-4.57 1.09 12.7 12.7 0 0 1-9.38-3.49q-3.48-3.49-3.48-9.62a13.33 13.33 0 0 1 4.5-10.1 15.54 15.54 0 0 1 11-4.21q7.94 0 14.13 6.91t6.19 18.34q0 12.39-8.6 23t-27.22 16.8M1322.33 842v-60h-59.88v-9.9h59.88v-59.76h9.67v59.76h60.11v9.9H1332v60Zm87.77 57.92v-5.29q12.39-4.1 19.18-12.69t6.79-18.21a6.6 6.6 0 0 0-1.08-3.85 2.27 2.27 0 0 0-1.68-1.08q-1.33 0-5.77 2.4a10.15 10.15 0 0 1-4.57 1.09 12.7 12.7 0 0 1-9.38-3.49q-3.49-3.49-3.49-9.62a13.3 13.3 0 0 1 4.51-10.1 15.5 15.5 0 0 1 11-4.21q7.94 0 14.13 6.91t6.19 18.34q0 12.39-8.59 23t-27.24 16.8m169.3-166.53a59.6 59.6 0 0 0-3.37-16.48q-4.08-11.77-4.08-16.23 0-6.25 2.94-9.5a9.46 9.46 0 0 1 7.28-3.24 8.32 8.32 0 0 1 6.49 3.24q2.76 3.26 2.76 9.26 0 5.41-3.18 15.09a79.7 79.7 0 0 0-3.91 17.86 55.3 55.3 0 0 0 11.9-10.22q8.19-9.51 12.15-11.79a16 16 0 0 1 8.06-2.28 9.1 9.1 0 0 1 6.67 2.7 8.8 8.8 0 0 1 2.7 6.44 10.36 10.36 0 0 1-4 7.93q-4 3.5-19.84 7a86 86 0 0 0-15.4 4.69 55.5 55.5 0 0 0 15.28 4.93q14.53 2.64 19 6.61t4.51 8.66a8.46 8.46 0 0 1-2.7 6.25 8.77 8.77 0 0 1-6.31 2.64 16.33 16.33 0 0 1-8-2.52q-4.39-2.52-11.84-11.3a64 64 0 0 0-12.18-11.13 56.5 56.5 0 0 0 2.77 15q4.32 14.19 4.32 19.36a11.92 11.92 0 0 1-2.88 8.12c-1.93 2.2-4 3.31-6.13 3.31a11.36 11.36 0 0 1-8.06-3.49q-2.52-2.52-2.52-8.06a44.4 44.4 0 0 1 2.76-13.89q2.76-8.12 3.49-11.18a76 76 0 0 0 1.32-9.08 66.4 66.4 0 0 0-12.4 10.41q-8.79 9.87-13.23 12.51a12.25 12.25 0 0 1-6.49 1.92 9.74 9.74 0 0 1-7-2.76 8.35 8.35 0 0 1-2.88-6.13 10.73 10.73 0 0 1 2.46-6.32 18 18 0 0 1 7.4-5.47q3.24-1.44 14.79-3.85a79 79 0 0 0 14.55-4.56 61.5 61.5 0 0 0-15.52-5.05q-14.79-3.13-18.27-5.66-5.41-4-5.41-9.62a8.3 8.3 0 0 1 2.7-6 8.67 8.67 0 0 1 6.31-2.7 17.15 17.15 0 0 1 8.42 2.52q4.45 2.54 11.06 10.16a59.2 59.2 0 0 0 13.51 11.9m76.96 166.53v-5.29q12.38-4.1 19.17-12.69t6.8-18.21a6.53 6.53 0 0 0-1.09-3.85 2.27 2.27 0 0 0-1.68-1.08c-.88 0-2.81.8-5.77 2.4a10.1 10.1 0 0 1-4.57 1.09 12.7 12.7 0 0 1-9.38-3.49q-3.48-3.49-3.48-9.62a13.33 13.33 0 0 1 4.5-10.1 15.54 15.54 0 0 1 11-4.21q7.94 0 14.12 6.91t6.2 18.34q0 12.39-8.6 23t-27.22 16.8m161.36-195.15v64.45h35.83q14 0 18.64-4.21 6.25-5.53 7-19.48h4.45v56.76h-4.45q-1.68-11.91-3.36-15.28a15.1 15.1 0 0 0-7.1-6.61q-4.93-2.4-15.15-2.4h-35.83v53.74q0 10.83 1 13.17a7.54 7.54 0 0 0 3.37 3.73q2.4 1.38 9.14 1.38h27.65q13.83 0 20.08-1.92a29.9 29.9 0 0 0 12-7.58q7.44-7.46 15.27-22.48h4.74l-14 40.88h-125.69v-4.45h5.77a22.8 22.8 0 0 0 10.92-2.77 10.1 10.1 0 0 0 5.23-5.77q1.38-3.84 1.38-15.75V724.25q0-15.51-3.12-19.12-4.34-4.82-14.43-4.81h-5.77v-4.45H1897l1.8 35.71h-4.69q-2.52-12.86-5.59-17.67a19.2 19.2 0 0 0-9.08-7.34q-4.8-1.8-17-1.8Zm112.18 195.15v-5.29q12.39-4.1 19.18-12.69t6.8-18.21a6.53 6.53 0 0 0-1.09-3.85 2.27 2.27 0 0 0-1.68-1.08c-.88 0-2.81.8-5.77 2.4a10.1 10.1 0 0 1-4.57 1.09 12.7 12.7 0 0 1-9.38-3.49q-3.48-3.49-3.49-9.62a13.34 13.34 0 0 1 4.51-10.1 15.53 15.53 0 0 1 11-4.21q8 0 14.13 6.91t6.2 18.34q0 12.39-8.6 23t-27.24 16.8M2044.25 774l129.38-56v10.46l-111.34 48.33 111.34 48.82v10.82l-129.38-56.51ZM2200 692.14v-4.2q20.09 2.64 32.65 16.17t12.57 30.12a87 87 0 0 1-2.77 20.08q-2.76 11.41-2.77 17.79 0 8.67 7.28 16.18t20.14 9.19v4.94q-12.87 1.68-20.14 9.19t-7.28 16.18q0 6.38 2.77 17.85a87.8 87.8 0 0 1 2.77 20.14q0 16.35-12.57 29.94T2200 912.06v-4.2q14.07-3.5 20.63-11.07a25.15 25.15 0 0 0 6.55-16.83q0-7.1-2.77-18.7a87.4 87.4 0 0 1-2.76-19.66q0-12.26 9-23.68t26.63-17.68q-17.31-6.37-26.45-18t-9.14-23.8a87.7 87.7 0 0 1 2.76-19.78q2.77-11.61 2.77-18.7a25.23 25.23 0 0 0-6.55-16.77q-6.67-7.68-20.67-11.05" class="cls-2"/></svg>