<svg xmlns="http://www.w3.org/2000/svg" xml:space="preserve" style="fill-rule:evenodd;clip-rule:evenodd;stroke-linejoin:round;stroke-miterlimit:2" viewBox="0 0 2400 1800"><path d="M0 0h2400v1800H0z" style="fill:url(#a)" transform="translate(2.708)"/><path d="M708.542 461.709h982.918v142.202c0 78.483-220.22 142.201-491.46 142.201-271.243 0-491.458-63.718-491.458-142.201z" style="fill:#8ce8ff" transform="translate(368.198 378.033)scale(.40958)"/><ellipse cx="1124.9" cy="392.181" rx="630.292" ry="142.202" style="fill:#0082a5" transform="matrix(.31936 0 0 .40958 500.442 406.51)"/><path d="M708.542 461.709h982.918v142.202c0 78.483-220.22 142.201-491.46 142.201-271.243 0-491.458-63.718-491.458-142.201z" style="fill:#8ce8ff" transform="translate(368.198 261.548)scale(.40958)"/><ellipse cx="1124.9" cy="392.181" rx="630.292" ry="142.202" style="fill:#0082a5" transform="matrix(.31936 0 0 .40958 500.442 290.025)"/><path d="M708.542 461.709h982.918v142.202c0 78.483-220.22 142.201-491.46 142.201-271.243 0-491.458-63.718-491.458-142.201z" style="fill:#8ce8ff" transform="translate(368.198 145.063)scale(.40958)"/><ellipse cx="1124.9" cy="392.181" rx="630.292" ry="142.202" style="fill:#0082a5" transform="matrix(.31936 0 0 .40958 500.442 173.54)"/><path d="M708.542 461.709h982.918v142.202c0 78.483-220.22 142.201-491.46 142.201-271.243 0-491.458-63.718-491.458-142.201z" style="fill:#8ce8ff" transform="translate(708.508 895.288)scale(.40958)"/><ellipse cx="1124.9" cy="392.181" rx="630.292" ry="142.202" style="fill:#0082a5" transform="matrix(.31936 0 0 .40958 840.752 923.765)"/><path d="M708.542 461.709h982.918v142.202c0 78.483-220.22 142.201-491.46 142.201-271.243 0-491.458-63.718-491.458-142.201z" style="fill:#8ce8ff" transform="translate(708.508 778.803)scale(.40958)"/><ellipse cx="1124.9" cy="392.181" rx="630.292" ry="142.202" style="fill:#0082a5" transform="matrix(.31936 0 0 .40958 840.752 807.28)"/><path d="M708.542 461.709h982.918v142.202c0 78.483-220.22 142.201-491.46 142.201-271.243 0-491.458-63.718-491.458-142.201z" style="fill:#8ce8ff" transform="translate(708.508 662.318)scale(.40958)"/><ellipse cx="1124.9" cy="392.181" rx="630.292" ry="142.202" style="fill:#0082a5" transform="matrix(.31936 0 0 .40958 840.752 690.795)"/><path d="M708.542 461.709h982.918v142.202c0 78.483-220.22 142.201-491.46 142.201-271.243 0-491.458-63.718-491.458-142.201z" style="fill:#8ce8ff" transform="translate(1048.82 370.223)scale(.40958)"/><ellipse cx="1124.9" cy="392.181" rx="630.292" ry="142.202" style="fill:#0082a5" transform="matrix(.31936 0 0 .40958 1181.06 398.7)"/><path d="M708.542 461.709h982.918v142.202c0 78.483-220.22 142.201-491.46 142.201-271.243 0-491.458-63.718-491.458-142.201z" style="fill:#8ce8ff" transform="translate(1048.82 253.738)scale(.40958)"/><ellipse cx="1124.9" cy="392.181" rx="630.292" ry="142.202" style="fill:#0082a5" transform="matrix(.31936 0 0 .40958 1181.06 282.215)"/><path d="M708.542 461.709h982.918v142.202c0 78.483-220.22 142.201-491.46 142.201-271.243 0-491.458-63.718-491.458-142.201z" style="fill:#8ce8ff" transform="translate(1048.82 137.253)scale(.40958)"/><ellipse cx="1124.9" cy="392.181" rx="630.292" ry="142.202" style="fill:#0082a5" transform="matrix(.31936 0 0 .40958 1181.06 165.73)"/><path d="M216.705 929.421v14.166l-50.785-21.794L216.705 900v14.166h404.952V900l50.785 21.793-50.785 21.794v-14.166z" style="fill:#6bffe1" transform="matrix(.2578 .37362 -.87063 .60076 1591.61 92.887)"/><path d="M216.705 929.421v14.166l-50.785-21.794L216.705 900v14.166h404.952V900l50.785 21.793-50.785 21.794v-14.166z" style="fill:#6bffe1" transform="matrix(.2578 .37362 -.87063 .60076 2209.55 578.949)"/><path d="M216.705 929.421v14.166l-50.785-21.794L216.705 900v14.166h404.952V900l50.785 21.793-50.785 21.794v-14.166z" style="fill:#6bffe1" transform="matrix(.45393 0 0 1.05778 1012.7 -473.973)"/><path d="M216.705 929.421v14.166l-50.785-21.794L216.705 900v14.166h404.952V900l50.785 21.793-50.785 21.794v-14.166z" style="fill:#6bffe1" transform="matrix(.45393 0 0 1.05778 321.794 -473.973)"/><path d="M216.705 929.421v14.166l-50.785-21.794L216.705 900v14.166h404.952V900l50.785 21.793-50.785 21.794v-14.166z" style="fill:#6bffe1" transform="matrix(.45393 0 0 1.05778 1692.62 -473.973)"/><path d="M216.705 929.421v14.166l-50.785-21.794L216.705 900v14.166h404.952V900l50.785 21.793-50.785 21.794v-14.166z" style="fill:#6bffe1" transform="matrix(-.2578 .37362 .87063 .60076 814.344 92.887)"/><path d="M216.705 929.421v14.166l-50.785-21.794L216.705 900v14.166h404.952V900l50.785 21.793-50.785 21.794v-14.166z" style="fill:#6bffe1" transform="matrix(-.2578 .37362 .87063 .60076 202.658 578.949)"/><circle cx="350.515" cy="326.696" r="69.786" style="fill:#fff" transform="translate(1830.55 113.703)scale(.84233)"/><circle cx="350.515" cy="326.696" r="69.786" style="fill:#fff" transform="translate(1729.95 178.197)scale(1.12934)"/><path d="M256.951 490.046h187.128v93.564H256.951z" style="fill:#fff" transform="translate(1830.55 134.365)scale(.84233)"/><circle cx="350.515" cy="326.696" r="69.786" style="fill:#fff" transform="translate(-21.056 113.703)scale(.84233)"/><circle cx="350.515" cy="326.696" r="69.786" style="fill:#fff" transform="translate(-121.656 178.197)scale(1.12934)"/><path d="M256.951 490.046h187.128v93.564H256.951z" style="fill:#fff" transform="translate(-21.056 134.365)scale(.84233)"/><circle cx="350.515" cy="326.696" r="69.786" style="fill:#fff" transform="translate(1408.17 1019.622)scale(.84233)"/><circle cx="350.515" cy="326.696" r="69.786" style="fill:#fff" transform="translate(1307.57 1084.116)scale(1.12934)"/><path d="M256.951 490.046h187.128v93.564H256.951z" style="fill:#fff" transform="translate(1408.17 1040.284)scale(.84233)"/><circle cx="350.515" cy="326.696" r="69.786" style="fill:#fff" transform="translate(407.287 1019.622)scale(.84233)"/><circle cx="350.515" cy="326.696" r="69.786" style="fill:#fff" transform="translate(306.687 1084.116)scale(1.12934)"/><path d="M256.951 490.046h187.128v93.564H256.951z" style="fill:#fff" transform="translate(407.287 1040.284)scale(.84233)"/><defs><linearGradient id="a" x1="0" x2="1" y1="0" y2="0" gradientTransform="matrix(2100 2100 -2100 2100 150 -150)" gradientUnits="userSpaceOnUse"><stop offset="0" style="stop-color:black;stop-opacity:1"/><stop offset="1" style="stop-color:#008eb5;stop-opacity:1"/></linearGradient></defs></svg>