<?xml version="1.0" encoding="UTF-8" standalone="no"?>
<!DOCTYPE svg PUBLIC "-//W3C//DTD SVG 1.1//EN" "http://www.w3.org/Graphics/SVG/1.1/DTD/svg11.dtd">
<svg width="100%" height="100%" viewBox="0 0 2400 1800" version="1.1" xmlns="http://www.w3.org/2000/svg" xmlns:xlink="http://www.w3.org/1999/xlink" xml:space="preserve" xmlns:serif="http://www.serif.com/" style="fill-rule:evenodd;clip-rule:evenodd;stroke-linejoin:round;stroke-miterlimit:2;">
    <rect x="0" y="0" width="2400" height="1800" style="fill:url(#_Linear1);"/>
    <path d="M1176.2,474.295C1176.2,409.051 1123.23,356.081 1057.99,356.081L506.325,356.081C441.081,356.081 388.111,409.051 388.111,474.295L388.111,1325.7C388.111,1390.95 441.081,1443.92 506.325,1443.92L1057.99,1443.92C1123.23,1443.92 1176.2,1390.95 1176.2,1325.7L1176.2,474.295ZM1665.1,356.081L1342.01,356.081C1276.77,356.081 1223.8,409.051 1223.8,474.295L1223.8,1325.7C1223.8,1390.95 1276.77,1443.92 1342.01,1443.92L1893.67,1443.92C1958.92,1443.92 2011.89,1390.95 2011.89,1325.7L2011.89,474.295C2011.89,409.051 1958.92,356.081 1893.67,356.081L1845.98,356.081L1845.98,646.629L1755.54,593.926L1665.1,646.629L1665.1,356.081ZM767.181,1275C755.169,1275.15 747.158,1284.47 747.158,1298.48C747.158,1298.57 747.162,1298.69 747.169,1298.84L747.219,1299.78C747.225,1299.92 747.23,1300.05 747.23,1300.13L758.68,1300.13C759.184,1291.57 762.496,1287.25 768.473,1287.25C771.714,1287.25 774.594,1289.05 779.635,1294.37C785.9,1300.78 791.085,1303.3 798.142,1303.3C810.24,1303.3 818.234,1294.01 818.234,1279.83L818.234,1278.24L806.928,1278.24C806.424,1286.6 803.183,1291.13 797.566,1291.13C793.966,1291.13 790.941,1289.26 785.972,1284C779.635,1277.52 774.45,1275 767.465,1275L767.181,1275ZM493.679,1275C481.667,1275.15 473.656,1284.47 473.656,1298.48C473.656,1298.57 473.661,1298.69 473.667,1298.84L473.717,1299.78C473.724,1299.92 473.728,1300.05 473.728,1300.13L485.178,1300.13C485.682,1291.57 488.995,1287.25 494.972,1287.25C498.212,1287.25 501.093,1289.05 506.134,1294.37C512.399,1300.78 517.584,1303.3 524.641,1303.3C536.739,1303.3 544.732,1294.01 544.732,1279.83L544.732,1278.24L533.426,1278.24C532.922,1286.6 529.682,1291.13 524.065,1291.13C520.464,1291.13 517.44,1289.26 512.471,1284C506.134,1277.52 500.949,1275 493.964,1275L493.679,1275ZM1420,1275C1407.98,1275.15 1399.97,1284.47 1399.97,1298.48C1399.97,1298.57 1399.98,1298.69 1399.98,1298.84L1400.03,1299.78C1400.04,1299.92 1400.04,1300.05 1400.04,1300.13L1411.49,1300.13C1412,1291.57 1415.31,1287.25 1421.29,1287.25C1424.53,1287.25 1427.41,1289.05 1432.45,1294.37C1438.71,1300.78 1443.9,1303.3 1450.96,1303.3C1463.05,1303.3 1471.05,1294.01 1471.05,1279.83L1471.05,1278.24L1459.74,1278.24C1459.24,1286.6 1456,1291.13 1450.38,1291.13C1446.78,1291.13 1443.76,1289.26 1438.79,1284C1432.45,1277.52 1427.26,1275 1420.28,1275L1420,1275ZM1511.45,1275C1499.28,1275 1491.14,1284.36 1491.14,1298.48C1491.14,1298.84 1491.21,1299.78 1491.21,1300.13L1502.66,1300.13C1503.16,1291.57 1506.48,1287.25 1512.45,1287.25C1515.69,1287.25 1518.58,1289.05 1523.62,1294.37C1529.88,1300.78 1535.07,1303.3 1542.12,1303.3C1554.22,1303.3 1562.22,1294.01 1562.22,1279.83L1562.22,1278.24L1550.91,1278.24C1550.4,1286.6 1547.16,1291.13 1541.55,1291.13C1537.95,1291.13 1534.92,1289.26 1529.95,1284C1523.62,1277.52 1518.43,1275 1511.45,1275ZM1040.68,1275C1028.67,1275.15 1020.66,1284.47 1020.66,1298.48C1020.66,1298.57 1020.66,1298.69 1020.67,1298.84L1020.72,1299.78C1020.73,1299.92 1020.73,1300.05 1020.73,1300.13L1032.18,1300.13C1032.69,1291.57 1036,1287.25 1041.97,1287.25C1045.22,1287.25 1048.1,1289.05 1053.14,1294.37C1059.4,1300.78 1064.59,1303.3 1071.64,1303.3C1083.74,1303.3 1091.74,1294.01 1091.74,1279.83L1091.74,1278.24L1080.43,1278.24C1079.92,1286.6 1076.68,1291.13 1071.07,1291.13C1067.47,1291.13 1064.44,1289.26 1059.47,1284C1053.14,1277.52 1047.95,1275 1040.97,1275L1040.68,1275ZM1329.11,1275C1316.94,1275 1308.81,1284.36 1308.81,1298.48C1308.81,1298.84 1308.88,1299.78 1308.88,1300.13L1320.33,1300.13C1320.83,1291.57 1324.14,1287.25 1330.12,1287.25C1333.36,1287.25 1336.24,1289.05 1341.28,1294.37C1347.55,1300.78 1352.73,1303.3 1359.79,1303.3C1371.89,1303.3 1379.88,1294.01 1379.88,1279.83L1379.88,1278.24L1368.58,1278.24C1368.07,1286.6 1364.83,1291.13 1359.21,1291.13C1355.61,1291.13 1352.59,1289.26 1347.62,1284C1341.28,1277.52 1336.1,1275 1329.11,1275ZM676.298,1275C664.128,1275 655.991,1284.36 655.991,1298.48C655.991,1298.84 656.063,1299.78 656.063,1300.13L667.513,1300.13C668.017,1291.57 671.329,1287.25 677.306,1287.25C680.547,1287.25 683.427,1289.05 688.468,1294.37C694.733,1300.78 699.918,1303.3 706.975,1303.3C719.073,1303.3 727.067,1294.01 727.067,1279.83L727.067,1278.24L715.761,1278.24C715.257,1286.6 712.016,1291.13 706.399,1291.13C702.798,1291.13 699.774,1289.26 694.805,1284C688.468,1277.52 683.283,1275 676.298,1275ZM1875.83,1275C1863.82,1275.15 1855.81,1284.47 1855.81,1298.48C1855.81,1298.57 1855.81,1298.69 1855.82,1298.84L1855.87,1299.78C1855.88,1299.92 1855.88,1300.05 1855.88,1300.13L1867.33,1300.13C1867.83,1291.57 1871.15,1287.25 1877.12,1287.25C1880.36,1287.25 1883.25,1289.05 1888.29,1294.37C1894.55,1300.78 1899.74,1303.3 1906.79,1303.3C1918.89,1303.3 1926.88,1294.01 1926.88,1279.83L1926.88,1278.24L1915.58,1278.24C1915.07,1286.6 1911.83,1291.13 1906.22,1291.13C1902.62,1291.13 1899.59,1289.26 1894.62,1284C1888.29,1277.52 1883.1,1275 1876.12,1275L1875.83,1275ZM1602.33,1275C1590.32,1275.15 1582.31,1284.47 1582.31,1298.48C1582.31,1298.57 1582.31,1298.69 1582.32,1298.84L1582.37,1299.78C1582.37,1299.92 1582.38,1300.05 1582.38,1300.13L1593.83,1300.13C1594.33,1291.57 1597.64,1287.25 1603.62,1287.25C1606.86,1287.25 1609.74,1289.05 1614.78,1294.37C1621.05,1300.78 1626.23,1303.3 1633.29,1303.3C1645.39,1303.3 1653.38,1294.01 1653.38,1279.83L1653.38,1278.24L1642.08,1278.24C1641.57,1286.6 1638.33,1291.13 1632.72,1291.13C1629.11,1291.13 1626.09,1289.26 1621.12,1284C1614.78,1277.52 1609.6,1275 1602.61,1275L1602.33,1275ZM858.633,1275C846.462,1275 838.325,1284.36 838.325,1298.48C838.325,1298.84 838.397,1299.78 838.397,1300.13L849.847,1300.13C850.351,1291.57 853.664,1287.25 859.641,1287.25C862.881,1287.25 865.762,1289.05 870.803,1294.37C877.068,1300.78 882.252,1303.3 889.31,1303.3C901.408,1303.3 909.401,1294.01 909.401,1279.83L909.401,1278.24L898.095,1278.24C897.591,1286.6 894.35,1291.13 888.734,1291.13C885.133,1291.13 882.108,1289.26 877.14,1284C870.803,1277.52 865.618,1275 858.633,1275ZM1784.66,1275C1772.65,1275.15 1764.64,1284.47 1764.64,1298.48C1764.64,1298.57 1764.64,1298.69 1764.65,1298.84L1764.7,1299.78C1764.71,1299.92 1764.71,1300.05 1764.71,1300.13L1776.16,1300.13C1776.67,1291.57 1779.98,1287.25 1785.96,1287.25C1789.2,1287.25 1792.08,1289.05 1797.12,1294.37C1803.38,1300.78 1808.57,1303.3 1815.62,1303.3C1827.72,1303.3 1835.72,1294.01 1835.72,1279.83L1835.72,1278.24L1824.41,1278.24C1823.91,1286.6 1820.67,1291.13 1815.05,1291.13C1811.45,1291.13 1808.42,1289.26 1803.45,1284C1797.12,1277.52 1791.93,1275 1784.95,1275L1784.66,1275ZM1693.78,1275C1681.61,1275 1673.47,1284.36 1673.47,1298.48C1673.47,1298.84 1673.55,1299.78 1673.55,1300.13L1685,1300.13C1685.5,1291.57 1688.81,1287.25 1694.79,1287.25C1698.03,1287.25 1700.91,1289.05 1705.95,1294.37C1712.22,1300.78 1717.4,1303.3 1724.46,1303.3C1736.56,1303.3 1744.55,1294.01 1744.55,1279.83L1744.55,1278.24L1733.24,1278.24C1732.74,1286.6 1729.5,1291.13 1723.88,1291.13C1720.28,1291.13 1717.26,1289.26 1712.29,1284C1705.95,1277.52 1700.77,1275 1693.78,1275ZM584.846,1275C572.834,1275.15 564.823,1284.47 564.823,1298.48C564.823,1298.57 564.828,1298.69 564.835,1298.84L564.884,1299.78C564.891,1299.92 564.895,1300.05 564.895,1300.13L576.345,1300.13C576.849,1291.57 580.162,1287.25 586.139,1287.25C589.38,1287.25 592.26,1289.05 597.301,1294.37C603.566,1300.78 608.751,1303.3 615.808,1303.3C627.906,1303.3 635.899,1294.01 635.899,1279.83L635.899,1278.24L624.593,1278.24C624.089,1286.6 620.849,1291.13 615.232,1291.13C611.631,1291.13 608.607,1289.26 603.638,1284C597.301,1277.52 592.116,1275 585.131,1275L584.846,1275ZM949.8,1275C937.63,1275 929.492,1284.36 929.492,1298.48C929.492,1298.84 929.564,1299.78 929.564,1300.13L941.014,1300.13C941.518,1291.57 944.831,1287.25 950.808,1287.25C954.048,1287.25 956.929,1289.05 961.97,1294.37C968.235,1300.78 973.42,1303.3 980.477,1303.3C992.575,1303.3 1000.57,1294.01 1000.57,1279.83L1000.57,1278.24L989.262,1278.24C988.758,1286.6 985.518,1291.13 979.901,1291.13C976.3,1291.13 973.276,1289.26 968.307,1284C961.97,1277.52 956.785,1275 949.8,1275ZM949.8,1127.52C937.63,1127.52 929.492,1136.88 929.492,1151C929.492,1151.36 929.564,1152.29 929.564,1152.65L941.014,1152.65C941.518,1144.09 944.831,1139.76 950.808,1139.76C954.048,1139.76 956.929,1141.56 961.97,1146.89C968.235,1153.3 973.42,1155.82 980.477,1155.82C992.575,1155.82 1000.57,1146.53 1000.57,1132.35L1000.57,1130.76L989.262,1130.76C988.758,1139.12 985.518,1143.65 979.901,1143.65C976.3,1143.65 973.276,1141.78 968.307,1136.52C961.97,1130.04 956.785,1127.52 949.8,1127.52ZM584.846,1127.52C572.834,1127.67 564.823,1136.99 564.823,1151C564.823,1151.09 564.828,1151.21 564.835,1151.36L564.884,1152.29C564.891,1152.44 564.895,1152.56 564.895,1152.65L576.345,1152.65C576.849,1144.09 580.162,1139.76 586.139,1139.76C589.38,1139.76 592.26,1141.56 597.301,1146.89C603.566,1153.3 608.751,1155.82 615.808,1155.82C627.906,1155.82 635.899,1146.53 635.899,1132.35L635.899,1130.76L624.593,1130.76C624.089,1139.12 620.849,1143.65 615.232,1143.65C611.631,1143.65 608.607,1141.78 603.638,1136.52C597.301,1130.04 592.116,1127.52 585.131,1127.52L584.846,1127.52ZM493.679,1127.52C481.667,1127.67 473.656,1136.99 473.656,1151C473.656,1151.09 473.661,1151.21 473.667,1151.36L473.717,1152.29C473.724,1152.44 473.728,1152.56 473.728,1152.65L485.178,1152.65C485.682,1144.09 488.995,1139.76 494.972,1139.76C498.212,1139.76 501.093,1141.56 506.134,1146.89C512.399,1153.3 517.584,1155.82 524.641,1155.82C536.739,1155.82 544.732,1146.53 544.732,1132.35L544.732,1130.76L533.426,1130.76C532.922,1139.12 529.682,1143.65 524.065,1143.65C520.464,1143.65 517.44,1141.78 512.471,1136.52C506.134,1130.04 500.949,1127.52 493.964,1127.52L493.679,1127.52ZM1040.68,1127.52C1028.67,1127.67 1020.66,1136.99 1020.66,1151C1020.66,1151.09 1020.66,1151.21 1020.67,1151.36L1020.72,1152.29C1020.73,1152.44 1020.73,1152.56 1020.73,1152.65L1032.18,1152.65C1032.69,1144.09 1036,1139.76 1041.97,1139.76C1045.22,1139.76 1048.1,1141.56 1053.14,1146.89C1059.4,1153.3 1064.59,1155.82 1071.64,1155.82C1083.74,1155.82 1091.74,1146.53 1091.74,1132.35L1091.74,1130.76L1080.43,1130.76C1079.92,1139.12 1076.68,1143.65 1071.07,1143.65C1067.47,1143.65 1064.44,1141.78 1059.47,1136.52C1053.14,1130.04 1047.95,1127.52 1040.97,1127.52L1040.68,1127.52ZM1329.11,1127.52C1316.94,1127.52 1308.81,1136.88 1308.81,1151C1308.81,1151.36 1308.88,1152.29 1308.88,1152.65L1320.33,1152.65C1320.83,1144.09 1324.14,1139.76 1330.12,1139.76C1333.36,1139.76 1336.24,1141.56 1341.28,1146.89C1347.55,1153.3 1352.73,1155.82 1359.79,1155.82C1371.89,1155.82 1379.88,1146.53 1379.88,1132.35L1379.88,1130.76L1368.58,1130.76C1368.07,1139.12 1364.83,1143.65 1359.21,1143.65C1355.61,1143.65 1352.59,1141.78 1347.62,1136.52C1341.28,1130.04 1336.1,1127.52 1329.11,1127.52ZM1693.78,1127.52C1681.61,1127.52 1673.47,1136.88 1673.47,1151C1673.47,1151.36 1673.55,1152.29 1673.55,1152.65L1685,1152.65C1685.5,1144.09 1688.81,1139.76 1694.79,1139.76C1698.03,1139.76 1700.91,1141.56 1705.95,1146.89C1712.22,1153.3 1717.4,1155.82 1724.46,1155.82C1736.56,1155.82 1744.55,1146.53 1744.55,1132.35L1744.55,1130.76L1733.24,1130.76C1732.74,1139.12 1729.5,1143.65 1723.88,1143.65C1720.28,1143.65 1717.26,1141.78 1712.29,1136.52C1705.95,1130.04 1700.77,1127.52 1693.78,1127.52ZM1602.33,1127.52C1590.32,1127.67 1582.31,1136.99 1582.31,1151C1582.31,1151.09 1582.31,1151.21 1582.32,1151.36L1582.37,1152.29C1582.37,1152.44 1582.38,1152.56 1582.38,1152.65L1593.83,1152.65C1594.33,1144.09 1597.64,1139.76 1603.62,1139.76C1606.86,1139.76 1609.74,1141.56 1614.78,1146.89C1621.05,1153.3 1626.23,1155.82 1633.29,1155.82C1645.39,1155.82 1653.38,1146.53 1653.38,1132.35L1653.38,1130.76L1642.08,1130.76C1641.57,1139.12 1638.33,1143.65 1632.72,1143.65C1629.11,1143.65 1626.09,1141.78 1621.12,1136.52C1614.78,1130.04 1609.6,1127.52 1602.61,1127.52L1602.33,1127.52ZM767.181,1127.52C755.169,1127.67 747.158,1136.99 747.158,1151C747.158,1151.09 747.162,1151.21 747.169,1151.36L747.219,1152.29C747.225,1152.44 747.23,1152.56 747.23,1152.65L758.68,1152.65C759.184,1144.09 762.496,1139.76 768.473,1139.76C771.714,1139.76 774.594,1141.56 779.635,1146.89C785.9,1153.3 791.085,1155.82 798.142,1155.82C810.24,1155.82 818.234,1146.53 818.234,1132.35L818.234,1130.76L806.928,1130.76C806.424,1139.12 803.183,1143.65 797.566,1143.65C793.966,1143.65 790.941,1141.78 785.972,1136.52C779.635,1130.04 774.45,1127.52 767.465,1127.52L767.181,1127.52ZM1511.45,1127.52C1499.28,1127.52 1491.14,1136.88 1491.14,1151C1491.14,1151.36 1491.21,1152.29 1491.21,1152.65L1502.66,1152.65C1503.16,1144.09 1506.48,1139.76 1512.45,1139.76C1515.69,1139.76 1518.58,1141.56 1523.62,1146.89C1529.88,1153.3 1535.07,1155.82 1542.12,1155.82C1554.22,1155.82 1562.22,1146.53 1562.22,1132.35L1562.22,1130.76L1550.91,1130.76C1550.4,1139.12 1547.16,1143.65 1541.55,1143.65C1537.95,1143.65 1534.92,1141.78 1529.95,1136.52C1523.62,1130.04 1518.43,1127.52 1511.45,1127.52ZM858.633,1127.52C846.462,1127.52 838.325,1136.88 838.325,1151C838.325,1151.36 838.397,1152.29 838.397,1152.65L849.847,1152.65C850.351,1144.09 853.664,1139.76 859.641,1139.76C862.881,1139.76 865.762,1141.56 870.803,1146.89C877.068,1153.3 882.252,1155.82 889.31,1155.82C901.408,1155.82 909.401,1146.53 909.401,1132.35L909.401,1130.76L898.095,1130.76C897.591,1139.12 894.35,1143.65 888.734,1143.65C885.133,1143.65 882.108,1141.78 877.14,1136.52C870.803,1130.04 865.618,1127.52 858.633,1127.52ZM1784.66,1127.52C1772.65,1127.67 1764.64,1136.99 1764.64,1151C1764.64,1151.09 1764.64,1151.21 1764.65,1151.36L1764.7,1152.29C1764.71,1152.44 1764.71,1152.56 1764.71,1152.65L1776.16,1152.65C1776.67,1144.09 1779.98,1139.76 1785.96,1139.76C1789.2,1139.76 1792.08,1141.56 1797.12,1146.89C1803.38,1153.3 1808.57,1155.82 1815.62,1155.82C1827.72,1155.82 1835.72,1146.53 1835.72,1132.35L1835.72,1130.76L1824.41,1130.76C1823.91,1139.12 1820.67,1143.65 1815.05,1143.65C1811.45,1143.65 1808.42,1141.78 1803.45,1136.52C1797.12,1130.04 1791.93,1127.52 1784.95,1127.52L1784.66,1127.52ZM1875.83,1127.52C1863.82,1127.67 1855.81,1136.99 1855.81,1151C1855.81,1151.09 1855.81,1151.21 1855.82,1151.36L1855.87,1152.29C1855.88,1152.44 1855.88,1152.56 1855.88,1152.65L1867.33,1152.65C1867.83,1144.09 1871.15,1139.76 1877.12,1139.76C1880.36,1139.76 1883.25,1141.56 1888.29,1146.89C1894.55,1153.3 1899.74,1155.82 1906.79,1155.82C1918.89,1155.82 1926.88,1146.53 1926.88,1132.35L1926.88,1130.76L1915.58,1130.76C1915.07,1139.12 1911.83,1143.65 1906.22,1143.65C1902.62,1143.65 1899.59,1141.78 1894.62,1136.52C1888.29,1130.04 1883.1,1127.52 1876.12,1127.52L1875.83,1127.52ZM676.298,1127.52C664.128,1127.52 655.991,1136.88 655.991,1151C655.991,1151.36 656.063,1152.29 656.063,1152.65L667.513,1152.65C668.017,1144.09 671.329,1139.76 677.306,1139.76C680.547,1139.76 683.427,1141.56 688.468,1146.89C694.733,1153.3 699.918,1155.82 706.975,1155.82C719.073,1155.82 727.067,1146.53 727.067,1132.35L727.067,1130.76L715.761,1130.76C715.257,1139.12 712.016,1143.65 706.399,1143.65C702.798,1143.65 699.774,1141.78 694.805,1136.52C688.468,1130.04 683.283,1127.52 676.298,1127.52ZM1420,1127.52C1407.98,1127.67 1399.97,1136.99 1399.97,1151C1399.97,1151.09 1399.98,1151.21 1399.98,1151.36L1400.03,1152.29C1400.04,1152.44 1400.04,1152.56 1400.04,1152.65L1411.49,1152.65C1412,1144.09 1415.31,1139.76 1421.29,1139.76C1424.53,1139.76 1427.41,1141.56 1432.45,1146.89C1438.71,1153.3 1443.9,1155.82 1450.96,1155.82C1463.05,1155.82 1471.05,1146.53 1471.05,1132.35L1471.05,1130.76L1459.74,1130.76C1459.24,1139.12 1456,1143.65 1450.38,1143.65C1446.78,1143.65 1443.76,1141.78 1438.79,1136.52C1432.45,1130.04 1427.26,1127.52 1420.28,1127.52L1420,1127.52ZM1876.12,980.041C1863.94,980.041 1855.81,989.403 1855.81,1003.52C1855.81,1003.88 1855.88,1004.81 1855.88,1005.17L1867.33,1005.17C1867.83,996.604 1871.15,992.283 1877.12,992.283C1880.36,992.283 1883.25,994.084 1888.29,999.413C1894.55,1005.82 1899.74,1008.34 1906.79,1008.34C1918.89,1008.34 1926.88,999.053 1926.88,984.866L1926.88,983.282L1915.58,983.282C1915.07,991.635 1911.83,996.172 1906.22,996.172C1902.62,996.172 1899.59,994.3 1894.62,989.043C1888.29,982.562 1883.1,980.041 1876.12,980.041ZM1040.97,980.041C1028.8,980.041 1020.66,989.403 1020.66,1003.52C1020.66,1003.88 1020.73,1004.81 1020.73,1005.17L1032.18,1005.17C1032.69,996.604 1036,992.283 1041.97,992.283C1045.22,992.283 1048.1,994.084 1053.14,999.413C1059.4,1005.82 1064.59,1008.34 1071.64,1008.34C1083.74,1008.34 1091.74,999.053 1091.74,984.866L1091.74,983.282L1080.43,983.282C1079.92,991.635 1076.68,996.172 1071.07,996.172C1067.47,996.172 1064.44,994.3 1059.47,989.043C1053.14,982.562 1047.95,980.041 1040.97,980.041ZM858.633,980.041C846.462,980.041 838.325,989.403 838.325,1003.52C838.325,1003.88 838.397,1004.81 838.397,1005.17L849.847,1005.17C850.351,996.604 853.664,992.283 859.641,992.283C862.881,992.283 865.762,994.084 870.803,999.413C877.068,1005.82 882.252,1008.34 889.31,1008.34C901.408,1008.34 909.401,999.053 909.401,984.866L909.401,983.282L898.095,983.282C897.591,991.635 894.35,996.172 888.734,996.172C885.133,996.172 882.108,994.3 877.14,989.043C870.803,982.562 865.618,980.041 858.633,980.041ZM1784.95,980.041C1772.78,980.041 1764.64,989.403 1764.64,1003.52C1764.64,1003.88 1764.71,1004.81 1764.71,1005.17L1776.16,1005.17C1776.67,996.604 1779.98,992.283 1785.96,992.283C1789.2,992.283 1792.08,994.084 1797.12,999.413C1803.38,1005.82 1808.57,1008.34 1815.62,1008.34C1827.72,1008.34 1835.72,999.053 1835.72,984.866L1835.72,983.282L1824.41,983.282C1823.91,991.635 1820.67,996.172 1815.05,996.172C1811.45,996.172 1808.42,994.3 1803.45,989.043C1797.12,982.562 1791.93,980.041 1784.95,980.041ZM1511.45,980.041C1499.28,980.041 1491.14,989.403 1491.14,1003.52C1491.14,1003.88 1491.21,1004.81 1491.21,1005.17L1502.66,1005.17C1503.16,996.604 1506.48,992.283 1512.45,992.283C1515.69,992.283 1518.58,994.084 1523.62,999.413C1529.88,1005.82 1535.07,1008.34 1542.12,1008.34C1554.22,1008.34 1562.22,999.053 1562.22,984.866L1562.22,983.282L1550.91,983.282C1550.4,991.635 1547.16,996.172 1541.55,996.172C1537.95,996.172 1534.92,994.3 1529.95,989.043C1523.62,982.562 1518.43,980.041 1511.45,980.041ZM493.964,980.041C481.794,980.041 473.656,989.403 473.656,1003.52C473.656,1003.88 473.728,1004.81 473.728,1005.17L485.178,1005.17C485.682,996.604 488.995,992.283 494.972,992.283C498.212,992.283 501.093,994.084 506.134,999.413C512.399,1005.82 517.584,1008.34 524.641,1008.34C536.739,1008.34 544.732,999.053 544.732,984.866L544.732,983.282L533.426,983.282C532.922,991.635 529.682,996.172 524.065,996.172C520.464,996.172 517.44,994.3 512.471,989.043C506.134,982.562 500.949,980.041 493.964,980.041ZM1693.78,980.041C1681.61,980.041 1673.47,989.403 1673.47,1003.52C1673.47,1003.88 1673.55,1004.81 1673.55,1005.17L1685,1005.17C1685.5,996.604 1688.81,992.283 1694.79,992.283C1698.03,992.283 1700.91,994.084 1705.95,999.413C1712.22,1005.82 1717.4,1008.34 1724.46,1008.34C1736.56,1008.34 1744.55,999.053 1744.55,984.866L1744.55,983.282L1733.24,983.282C1732.74,991.635 1729.5,996.172 1723.88,996.172C1720.28,996.172 1717.26,994.3 1712.29,989.043C1705.95,982.562 1700.77,980.041 1693.78,980.041ZM676.298,980.041C664.128,980.041 655.991,989.403 655.991,1003.52C655.991,1003.88 656.063,1004.81 656.063,1005.17L667.513,1005.17C668.017,996.604 671.329,992.283 677.306,992.283C680.547,992.283 683.427,994.084 688.468,999.413C694.733,1005.82 699.918,1008.34 706.975,1008.34C719.073,1008.34 727.067,999.053 727.067,984.866L727.067,983.282L715.761,983.282C715.257,991.635 712.016,996.172 706.399,996.172C702.798,996.172 699.774,994.3 694.805,989.043C688.468,982.562 683.283,980.041 676.298,980.041ZM949.8,980.041C937.63,980.041 929.492,989.403 929.492,1003.52C929.492,1003.88 929.564,1004.81 929.564,1005.17L941.014,1005.17C941.518,996.604 944.831,992.283 950.808,992.283C954.048,992.283 956.929,994.084 961.97,999.413C968.235,1005.82 973.42,1008.34 980.477,1008.34C992.575,1008.34 1000.57,999.053 1000.57,984.866L1000.57,983.282L989.262,983.282C988.758,991.635 985.518,996.172 979.901,996.172C976.3,996.172 973.276,994.3 968.307,989.043C961.97,982.562 956.785,980.041 949.8,980.041ZM767.465,980.041C755.295,980.041 747.158,989.403 747.158,1003.52C747.158,1003.88 747.23,1004.81 747.23,1005.17L758.68,1005.17C759.184,996.604 762.496,992.283 768.473,992.283C771.714,992.283 774.594,994.084 779.635,999.413C785.9,1005.82 791.085,1008.34 798.142,1008.34C810.24,1008.34 818.234,999.053 818.234,984.866L818.234,983.282L806.928,983.282C806.424,991.635 803.183,996.172 797.566,996.172C793.966,996.172 790.941,994.3 785.972,989.043C779.635,982.562 774.45,980.041 767.465,980.041ZM1420.28,980.041C1408.11,980.041 1399.97,989.403 1399.97,1003.52C1399.97,1003.88 1400.04,1004.81 1400.04,1005.17L1411.49,1005.17C1412,996.604 1415.31,992.283 1421.29,992.283C1424.53,992.283 1427.41,994.084 1432.45,999.413C1438.71,1005.82 1443.9,1008.34 1450.96,1008.34C1463.05,1008.34 1471.05,999.053 1471.05,984.866L1471.05,983.282L1459.74,983.282C1459.24,991.635 1456,996.172 1450.38,996.172C1446.78,996.172 1443.76,994.3 1438.79,989.043C1432.45,982.562 1427.26,980.041 1420.28,980.041ZM1602.61,980.041C1590.44,980.041 1582.31,989.403 1582.31,1003.52C1582.31,1003.88 1582.38,1004.81 1582.38,1005.17L1593.83,1005.17C1594.33,996.604 1597.64,992.283 1603.62,992.283C1606.86,992.283 1609.74,994.084 1614.78,999.413C1621.05,1005.82 1626.23,1008.34 1633.29,1008.34C1645.39,1008.34 1653.38,999.053 1653.38,984.866L1653.38,983.282L1642.08,983.282C1641.57,991.635 1638.33,996.172 1632.72,996.172C1629.11,996.172 1626.09,994.3 1621.12,989.043C1614.78,982.562 1609.6,980.041 1602.61,980.041ZM1329.11,980.041C1316.94,980.041 1308.81,989.403 1308.81,1003.52C1308.81,1003.88 1308.88,1004.81 1308.88,1005.17L1320.33,1005.17C1320.83,996.604 1324.14,992.283 1330.12,992.283C1333.36,992.283 1336.24,994.084 1341.28,999.413C1347.55,1005.82 1352.73,1008.34 1359.79,1008.34C1371.89,1008.34 1379.88,999.053 1379.88,984.866L1379.88,983.282L1368.58,983.282C1368.07,991.635 1364.83,996.172 1359.21,996.172C1355.61,996.172 1352.59,994.3 1347.62,989.043C1341.28,982.562 1336.1,980.041 1329.11,980.041ZM585.131,980.041C572.961,980.041 564.823,989.403 564.823,1003.52C564.823,1003.88 564.895,1004.81 564.895,1005.17L576.345,1005.17C576.849,996.604 580.162,992.283 586.139,992.283C589.38,992.283 592.26,994.084 597.301,999.413C603.566,1005.82 608.751,1008.34 615.808,1008.34C627.906,1008.34 635.899,999.053 635.899,984.866L635.899,983.282L624.593,983.282C624.089,991.635 620.849,996.172 615.232,996.172C611.631,996.172 608.607,994.3 603.638,989.043C597.301,982.562 592.116,980.041 585.131,980.041ZM1693.78,832.561C1681.61,832.561 1673.47,841.922 1673.47,856.037C1673.47,856.397 1673.55,857.333 1673.55,857.693L1685,857.693C1685.5,849.124 1688.81,844.803 1694.79,844.803C1698.03,844.803 1700.91,846.603 1705.95,851.932C1712.22,858.341 1717.4,860.861 1724.46,860.861C1736.56,860.861 1744.55,851.572 1744.55,837.386L1744.55,835.801L1733.24,835.801C1732.74,844.155 1729.5,848.691 1723.88,848.691C1720.28,848.691 1717.26,846.819 1712.29,841.562C1705.95,835.081 1700.77,832.561 1693.78,832.561ZM1876.12,832.561C1863.94,832.561 1855.81,841.922 1855.81,856.037C1855.81,856.397 1855.88,857.333 1855.88,857.693L1867.33,857.693C1867.83,849.124 1871.15,844.803 1877.12,844.803C1880.36,844.803 1883.25,846.603 1888.29,851.932C1894.55,858.341 1899.74,860.861 1906.79,860.861C1918.89,860.861 1926.88,851.572 1926.88,837.386L1926.88,835.801L1915.58,835.801C1915.07,844.155 1911.83,848.691 1906.22,848.691C1902.62,848.691 1899.59,846.819 1894.62,841.562C1888.29,835.081 1883.1,832.561 1876.12,832.561ZM493.964,832.561C481.794,832.561 473.656,841.922 473.656,856.037C473.656,856.397 473.728,857.333 473.728,857.693L485.178,857.693C485.682,849.124 488.995,844.803 494.972,844.803C498.212,844.803 501.093,846.603 506.134,851.932C512.399,858.341 517.584,860.861 524.641,860.861C536.739,860.861 544.732,851.572 544.732,837.386L544.732,835.801L533.426,835.801C532.922,844.155 529.682,848.691 524.065,848.691C520.464,848.691 517.44,846.819 512.471,841.562C506.134,835.081 500.949,832.561 493.964,832.561ZM767.465,832.561C755.295,832.561 747.158,841.922 747.158,856.037C747.158,856.397 747.23,857.333 747.23,857.693L758.68,857.693C759.184,849.124 762.496,844.803 768.473,844.803C771.714,844.803 774.594,846.603 779.635,851.932C785.9,858.341 791.085,860.861 798.142,860.861C810.24,860.861 818.234,851.572 818.234,837.386L818.234,835.801L806.928,835.801C806.424,844.155 803.183,848.691 797.566,848.691C793.966,848.691 790.941,846.819 785.972,841.562C779.635,835.081 774.45,832.561 767.465,832.561ZM858.633,832.561C846.462,832.561 838.325,841.922 838.325,856.037C838.325,856.397 838.397,857.333 838.397,857.693L849.847,857.693C850.351,849.124 853.664,844.803 859.641,844.803C862.881,844.803 865.762,846.603 870.803,851.932C877.068,858.341 882.252,860.861 889.31,860.861C901.408,860.861 909.401,851.572 909.401,837.386L909.401,835.801L898.095,835.801C897.591,844.155 894.35,848.691 888.734,848.691C885.133,848.691 882.108,846.819 877.14,841.562C870.803,835.081 865.618,832.561 858.633,832.561ZM1040.97,832.561C1028.8,832.561 1020.66,841.922 1020.66,856.037C1020.66,856.397 1020.73,857.333 1020.73,857.693L1032.18,857.693C1032.69,849.124 1036,844.803 1041.97,844.803C1045.22,844.803 1048.1,846.603 1053.14,851.932C1059.4,858.341 1064.59,860.861 1071.64,860.861C1083.74,860.861 1091.74,851.572 1091.74,837.386L1091.74,835.801L1080.43,835.801C1079.92,844.155 1076.68,848.691 1071.07,848.691C1067.47,848.691 1064.44,846.819 1059.47,841.562C1053.14,835.081 1047.95,832.561 1040.97,832.561ZM1420.28,832.561C1408.11,832.561 1399.97,841.922 1399.97,856.037C1399.97,856.397 1400.04,857.333 1400.04,857.693L1411.49,857.693C1412,849.124 1415.31,844.803 1421.29,844.803C1424.53,844.803 1427.41,846.603 1432.45,851.932C1438.71,858.341 1443.9,860.861 1450.96,860.861C1463.05,860.861 1471.05,851.572 1471.05,837.386L1471.05,835.801L1459.74,835.801C1459.24,844.155 1456,848.691 1450.38,848.691C1446.78,848.691 1443.76,846.819 1438.79,841.562C1432.45,835.081 1427.26,832.561 1420.28,832.561ZM949.8,832.561C937.63,832.561 929.492,841.922 929.492,856.037C929.492,856.397 929.564,857.333 929.564,857.693L941.014,857.693C941.518,849.124 944.831,844.803 950.808,844.803C954.048,844.803 956.929,846.603 961.97,851.932C968.235,858.341 973.42,860.861 980.477,860.861C992.575,860.861 1000.57,851.572 1000.57,837.386L1000.57,835.801L989.262,835.801C988.758,844.155 985.518,848.691 979.901,848.691C976.3,848.691 973.276,846.819 968.307,841.562C961.97,835.081 956.785,832.561 949.8,832.561ZM1511.45,832.561C1499.28,832.561 1491.14,841.922 1491.14,856.037C1491.14,856.397 1491.21,857.333 1491.21,857.693L1502.66,857.693C1503.16,849.124 1506.48,844.803 1512.45,844.803C1515.69,844.803 1518.58,846.603 1523.62,851.932C1529.88,858.341 1535.07,860.861 1542.12,860.861C1554.22,860.861 1562.22,851.572 1562.22,837.386L1562.22,835.801L1550.91,835.801C1550.4,844.155 1547.16,848.691 1541.55,848.691C1537.95,848.691 1534.92,846.819 1529.95,841.562C1523.62,835.081 1518.43,832.561 1511.45,832.561ZM1329.11,832.561C1316.94,832.561 1308.81,841.922 1308.81,856.037C1308.81,856.397 1308.88,857.333 1308.88,857.693L1320.33,857.693C1320.83,849.124 1324.14,844.803 1330.12,844.803C1333.36,844.803 1336.24,846.603 1341.28,851.932C1347.55,858.341 1352.73,860.861 1359.79,860.861C1371.89,860.861 1379.88,851.572 1379.88,837.386L1379.88,835.801L1368.58,835.801C1368.07,844.155 1364.83,848.691 1359.21,848.691C1355.61,848.691 1352.59,846.819 1347.62,841.562C1341.28,835.081 1336.1,832.561 1329.11,832.561ZM676.298,832.561C664.128,832.561 655.991,841.922 655.991,856.037C655.991,856.397 656.063,857.333 656.063,857.693L667.513,857.693C668.017,849.124 671.329,844.803 677.306,844.803C680.547,844.803 683.427,846.603 688.468,851.932C694.733,858.341 699.918,860.861 706.975,860.861C719.073,860.861 727.067,851.572 727.067,837.386L727.067,835.801L715.761,835.801C715.257,844.155 712.016,848.691 706.399,848.691C702.798,848.691 699.774,846.819 694.805,841.562C688.468,835.081 683.283,832.561 676.298,832.561ZM1784.95,832.561C1772.78,832.561 1764.64,841.922 1764.64,856.037C1764.64,856.397 1764.71,857.333 1764.71,857.693L1776.16,857.693C1776.67,849.124 1779.98,844.803 1785.96,844.803C1789.2,844.803 1792.08,846.603 1797.12,851.932C1803.38,858.341 1808.57,860.861 1815.62,860.861C1827.72,860.861 1835.72,851.572 1835.72,837.386L1835.72,835.801L1824.41,835.801C1823.91,844.155 1820.67,848.691 1815.05,848.691C1811.45,848.691 1808.42,846.819 1803.45,841.562C1797.12,835.081 1791.93,832.561 1784.95,832.561ZM1602.61,832.561C1590.44,832.561 1582.31,841.922 1582.31,856.037C1582.31,856.397 1582.38,857.333 1582.38,857.693L1593.83,857.693C1594.33,849.124 1597.64,844.803 1603.62,844.803C1606.86,844.803 1609.74,846.603 1614.78,851.932C1621.05,858.341 1626.23,860.861 1633.29,860.861C1645.39,860.861 1653.38,851.572 1653.38,837.386L1653.38,835.801L1642.08,835.801C1641.57,844.155 1638.33,848.691 1632.72,848.691C1629.11,848.691 1626.09,846.819 1621.12,841.562C1614.78,835.081 1609.6,832.561 1602.61,832.561ZM585.131,832.561C572.961,832.561 564.823,841.922 564.823,856.037C564.823,856.397 564.895,857.333 564.895,857.693L576.345,857.693C576.849,849.124 580.162,844.803 586.139,844.803C589.38,844.803 592.26,846.603 597.301,851.932C603.566,858.341 608.751,860.861 615.808,860.861C627.906,860.861 635.899,851.572 635.899,837.386L635.899,835.801L624.593,835.801C624.089,844.155 620.849,848.691 615.232,848.691C611.631,848.691 608.607,846.819 603.638,841.562C597.301,835.081 592.116,832.561 585.131,832.561ZM1511.45,685.08C1499.28,685.08 1491.14,694.442 1491.14,708.556C1491.14,708.916 1491.21,709.852 1491.21,710.212L1502.66,710.212C1503.16,701.643 1506.48,697.322 1512.45,697.322C1515.69,697.322 1518.58,699.122 1523.62,704.451C1529.88,710.86 1535.07,713.381 1542.12,713.381C1554.22,713.381 1562.22,704.091 1562.22,689.905L1562.22,688.321L1550.91,688.321C1550.4,696.674 1547.16,701.211 1541.55,701.211C1537.95,701.211 1534.92,699.338 1529.95,694.082C1523.62,687.601 1518.43,685.08 1511.45,685.08ZM858.633,685.08C846.462,685.08 838.325,694.442 838.325,708.556C838.325,708.916 838.397,709.852 838.397,710.212L849.847,710.212C850.351,701.643 853.664,697.322 859.641,697.322C862.881,697.322 865.762,699.122 870.803,704.451C877.068,710.86 882.252,713.381 889.31,713.381C901.408,713.381 909.401,704.091 909.401,689.905L909.401,688.321L898.095,688.321C897.591,696.674 894.35,701.211 888.734,701.211C885.133,701.211 882.108,699.338 877.14,694.082C870.803,687.601 865.618,685.08 858.633,685.08ZM676.298,685.08C664.128,685.08 655.991,694.442 655.991,708.556C655.991,708.916 656.063,709.852 656.063,710.212L667.513,710.212C668.017,701.643 671.329,697.322 677.306,697.322C680.547,697.322 683.427,699.122 688.468,704.451C694.733,710.86 699.918,713.381 706.975,713.381C719.073,713.381 727.067,704.091 727.067,689.905L727.067,688.321L715.761,688.321C715.257,696.674 712.016,701.211 706.399,701.211C702.798,701.211 699.774,699.338 694.805,694.082C688.468,687.601 683.283,685.08 676.298,685.08ZM1420.28,685.08C1408.11,685.08 1399.97,694.442 1399.97,708.556C1399.97,708.916 1400.04,709.852 1400.04,710.212L1411.49,710.212C1412,701.643 1415.31,697.322 1421.29,697.322C1424.53,697.322 1427.41,699.122 1432.45,704.451C1438.71,710.86 1443.9,713.381 1450.96,713.381C1463.05,713.381 1471.05,704.091 1471.05,689.905L1471.05,688.321L1459.74,688.321C1459.24,696.674 1456,701.211 1450.38,701.211C1446.78,701.211 1443.76,699.338 1438.79,694.082C1432.45,687.601 1427.26,685.08 1420.28,685.08ZM1876.12,685.08C1863.94,685.08 1855.81,694.442 1855.81,708.556C1855.81,708.916 1855.88,709.852 1855.88,710.212L1867.33,710.212C1867.83,701.643 1871.15,697.322 1877.12,697.322C1880.36,697.322 1883.25,699.122 1888.29,704.451C1894.55,710.86 1899.74,713.381 1906.79,713.381C1918.89,713.381 1926.88,704.091 1926.88,689.905L1926.88,688.321L1915.58,688.321C1915.07,696.674 1911.83,701.211 1906.22,701.211C1902.62,701.211 1899.59,699.338 1894.62,694.082C1888.29,687.601 1883.1,685.08 1876.12,685.08ZM1602.61,685.08C1590.44,685.08 1582.31,694.442 1582.31,708.556C1582.31,708.916 1582.38,709.852 1582.38,710.212L1593.83,710.212C1594.33,701.643 1597.64,697.322 1603.62,697.322C1606.86,697.322 1609.74,699.122 1614.78,704.451C1621.05,710.86 1626.23,713.381 1633.29,713.381C1645.39,713.381 1653.38,704.091 1653.38,689.905L1653.38,688.321L1642.08,688.321C1641.57,696.674 1638.33,701.211 1632.72,701.211C1629.11,701.211 1626.09,699.338 1621.12,694.082C1614.78,687.601 1609.6,685.08 1602.61,685.08ZM1329.11,685.08C1316.94,685.08 1308.81,694.442 1308.81,708.556C1308.81,708.916 1308.88,709.852 1308.88,710.212L1320.33,710.212C1320.83,701.643 1324.14,697.322 1330.12,697.322C1333.36,697.322 1336.24,699.122 1341.28,704.451C1347.55,710.86 1352.73,713.381 1359.79,713.381C1371.89,713.381 1379.88,704.091 1379.88,689.905L1379.88,688.321L1368.58,688.321C1368.07,696.674 1364.83,701.211 1359.21,701.211C1355.61,701.211 1352.59,699.338 1347.62,694.082C1341.28,687.601 1336.1,685.08 1329.11,685.08ZM949.8,685.08C937.63,685.08 929.492,694.442 929.492,708.556C929.492,708.916 929.564,709.852 929.564,710.212L941.014,710.212C941.518,701.643 944.831,697.322 950.808,697.322C954.048,697.322 956.929,699.122 961.97,704.451C968.235,710.86 973.42,713.381 980.477,713.381C992.575,713.381 1000.57,704.091 1000.57,689.905L1000.57,688.321L989.262,688.321C988.758,696.674 985.518,701.211 979.901,701.211C976.3,701.211 973.276,699.338 968.307,694.082C961.97,687.601 956.785,685.08 949.8,685.08ZM585.131,685.08C572.961,685.08 564.823,694.442 564.823,708.556C564.823,708.916 564.895,709.852 564.895,710.212L576.345,710.212C576.849,701.643 580.162,697.322 586.139,697.322C589.38,697.322 592.26,699.122 597.301,704.451C603.566,710.86 608.751,713.381 615.808,713.381C627.906,713.381 635.899,704.091 635.899,689.905L635.899,688.321L624.593,688.321C624.089,696.674 620.849,701.211 615.232,701.211C611.631,701.211 608.607,699.338 603.638,694.082C597.301,687.601 592.116,685.08 585.131,685.08ZM1693.78,685.08C1681.61,685.08 1673.47,694.442 1673.47,708.556C1673.47,708.916 1673.55,709.852 1673.55,710.212L1685,710.212C1685.5,701.643 1688.81,697.322 1694.79,697.322C1698.03,697.322 1700.91,699.122 1705.95,704.451C1712.22,710.86 1717.4,713.381 1724.46,713.381C1736.56,713.381 1744.55,704.091 1744.55,689.905L1744.55,688.321L1733.24,688.321C1732.74,696.674 1729.5,701.211 1723.88,701.211C1720.28,701.211 1717.26,699.338 1712.29,694.082C1705.95,687.601 1700.77,685.08 1693.78,685.08ZM493.964,685.08C481.794,685.08 473.656,694.442 473.656,708.556C473.656,708.916 473.728,709.852 473.728,710.212L485.178,710.212C485.682,701.643 488.995,697.322 494.972,697.322C498.212,697.322 501.093,699.122 506.134,704.451C512.399,710.86 517.584,713.381 524.641,713.381C536.739,713.381 544.732,704.091 544.732,689.905L544.732,688.321L533.426,688.321C532.922,696.674 529.682,701.211 524.065,701.211C520.464,701.211 517.44,699.338 512.471,694.082C506.134,687.601 500.949,685.08 493.964,685.08ZM767.465,685.08C755.295,685.08 747.158,694.442 747.158,708.556C747.158,708.916 747.23,709.852 747.23,710.212L758.68,710.212C759.184,701.643 762.496,697.322 768.473,697.322C771.714,697.322 774.594,699.122 779.635,704.451C785.9,710.86 791.085,713.381 798.142,713.381C810.24,713.381 818.234,704.091 818.234,689.905L818.234,688.321L806.928,688.321C806.424,696.674 803.183,701.211 797.566,701.211C793.966,701.211 790.941,699.338 785.972,694.082C779.635,687.601 774.45,685.08 767.465,685.08ZM1040.97,685.08C1028.8,685.08 1020.66,694.442 1020.66,708.556C1020.66,708.916 1020.73,709.852 1020.73,710.212L1032.18,710.212C1032.69,701.643 1036,697.322 1041.97,697.322C1045.22,697.322 1048.1,699.122 1053.14,704.451C1059.4,710.86 1064.59,713.381 1071.64,713.381C1083.74,713.381 1091.74,704.091 1091.74,689.905L1091.74,688.321L1080.43,688.321C1079.92,696.674 1076.68,701.211 1071.07,701.211C1067.47,701.211 1064.44,699.338 1059.47,694.082C1053.14,687.601 1047.95,685.08 1040.97,685.08ZM1784.95,685.08C1772.78,685.08 1764.64,694.442 1764.64,708.556C1764.64,708.916 1764.71,709.852 1764.71,710.212L1776.16,710.212C1776.67,701.643 1779.98,697.322 1785.96,697.322C1789.2,697.322 1792.08,699.122 1797.12,704.451C1803.38,710.86 1808.57,713.381 1815.62,713.381C1827.72,713.381 1835.72,704.091 1835.72,689.905L1835.72,688.321L1824.41,688.321C1823.91,696.674 1820.67,701.211 1815.05,701.211C1811.45,701.211 1808.42,699.338 1803.45,694.082C1797.12,687.601 1791.93,685.08 1784.95,685.08ZM861.225,554.594L873.107,554.594C887.509,554.594 896.655,562.3 896.655,574.398C896.655,586.136 887.797,593.481 873.539,593.481C860.577,593.481 851.359,586.28 850.207,575.19L838.181,575.19C839.117,593.121 853.376,604.931 873.899,604.931C894.639,604.931 909.473,592.329 909.473,574.686C909.473,560.499 901.264,550.778 887.437,548.977L887.437,547.825C898.599,545.089 905.152,536.159 905.152,523.629C905.152,507.859 891.902,496.697 873.323,496.697C854.096,496.697 841.422,507.859 840.197,525.862L852.367,525.862C853.376,514.7 861.153,507.859 872.819,507.859C884.557,507.859 892.334,514.844 892.334,525.429C892.334,536.303 884.197,543.937 872.531,543.937L861.225,543.937L861.225,554.594ZM533.93,570.941C533.93,584.551 525.145,592.905 510.958,592.905C494.18,592.905 485.394,581.599 485.394,560.067L485.394,541.56C485.394,520.029 494.108,508.723 510.886,508.723C524.137,508.723 533.354,517.868 533.93,531.406L546.748,531.406C546.244,509.875 532.706,496.697 511.102,496.697C486.69,496.697 472.576,513.115 472.576,541.56L472.576,560.067C472.576,588.512 486.69,604.931 511.102,604.931C532.058,604.931 546.748,591.536 546.748,572.021L546.748,549.914L509.95,549.914L509.95,560.787L533.93,560.787L533.93,570.941ZM697.902,602.77L697.902,510.523L729.299,510.523L729.299,498.857L653.83,498.857L653.83,510.523L685.228,510.523L685.228,602.77L697.902,602.77ZM569.072,498.857L569.072,602.77L581.818,602.77L581.818,565.468L603.35,565.468C623.657,565.468 636.979,552.29 636.979,532.199C636.979,512.035 623.801,498.857 603.638,498.857L569.072,498.857ZM1040.97,537.599C1028.8,537.599 1020.66,546.961 1020.66,561.075C1020.66,561.435 1020.73,562.372 1020.73,562.732L1032.18,562.732C1032.69,554.162 1036,549.842 1041.97,549.842C1045.22,549.842 1048.1,551.642 1053.14,556.971C1059.4,563.38 1064.59,565.9 1071.64,565.9C1083.74,565.9 1091.74,556.611 1091.74,542.424L1091.74,540.84L1080.43,540.84C1079.92,549.193 1076.68,553.73 1071.07,553.73C1067.47,553.73 1064.44,551.858 1059.47,546.601C1053.14,540.12 1047.95,537.599 1040.97,537.599ZM1876.12,537.599C1863.94,537.599 1855.81,546.961 1855.81,561.075C1855.81,561.435 1855.88,562.372 1855.88,562.732L1867.33,562.732C1867.83,554.162 1871.15,549.842 1877.12,549.842C1880.36,549.842 1883.25,551.642 1888.29,556.971C1894.55,563.38 1899.74,565.9 1906.79,565.9C1918.89,565.9 1926.88,556.611 1926.88,542.424L1926.88,540.84L1915.58,540.84C1915.07,549.193 1911.83,553.73 1906.22,553.73C1902.62,553.73 1899.59,551.858 1894.62,546.601C1888.29,540.12 1883.1,537.599 1876.12,537.599ZM949.8,537.599C937.63,537.599 929.492,546.961 929.492,561.075C929.492,561.435 929.564,562.372 929.564,562.732L941.014,562.732C941.518,554.162 944.831,549.842 950.808,549.842C954.048,549.842 956.929,551.642 961.97,556.971C968.235,563.38 973.42,565.9 980.477,565.9C992.575,565.9 1000.57,556.611 1000.57,542.424L1000.57,540.84L989.262,540.84C988.758,549.193 985.518,553.73 979.901,553.73C976.3,553.73 973.276,551.858 968.307,546.601C961.97,540.12 956.785,537.599 949.8,537.599ZM1329.11,537.599C1316.94,537.599 1308.81,546.961 1308.81,561.075C1308.81,561.435 1308.88,562.372 1308.88,562.732L1320.33,562.732C1320.83,554.162 1324.14,549.842 1330.12,549.842C1333.36,549.842 1336.24,551.642 1341.28,556.971C1347.55,563.38 1352.73,565.9 1359.79,565.9C1371.89,565.9 1379.88,556.611 1379.88,542.424L1379.88,540.84L1368.58,540.84C1368.07,549.193 1364.83,553.73 1359.21,553.73C1355.61,553.73 1352.59,551.858 1347.62,546.601C1341.28,540.12 1336.1,537.599 1329.11,537.599ZM1420.28,537.599C1408.11,537.599 1399.97,546.961 1399.97,561.075C1399.97,561.435 1400.04,562.372 1400.04,562.732L1411.49,562.732C1412,554.162 1415.31,549.842 1421.29,549.842C1424.53,549.842 1427.41,551.642 1432.45,556.971C1438.71,563.38 1443.9,565.9 1450.96,565.9C1463.05,565.9 1471.05,556.611 1471.05,542.424L1471.05,540.84L1459.74,540.84C1459.24,549.193 1456,553.73 1450.38,553.73C1446.78,553.73 1443.76,551.858 1438.79,546.601C1432.45,540.12 1427.26,537.599 1420.28,537.599ZM1511.45,537.599C1499.28,537.599 1491.14,546.961 1491.14,561.075C1491.14,561.435 1491.21,562.372 1491.21,562.732L1502.66,562.732C1503.16,554.162 1506.48,549.842 1512.45,549.842C1515.69,549.842 1518.58,551.642 1523.62,556.971C1529.88,563.38 1535.07,565.9 1542.12,565.9C1554.22,565.9 1562.22,556.611 1562.22,542.424L1562.22,540.84L1550.91,540.84C1550.4,549.193 1547.16,553.73 1541.55,553.73C1537.95,553.73 1534.92,551.858 1529.95,546.601C1523.62,540.12 1518.43,537.599 1511.45,537.599ZM1602.61,537.599C1590.44,537.599 1582.31,546.961 1582.31,561.075C1582.31,561.435 1582.38,562.372 1582.38,562.732L1593.83,562.732C1594.33,554.162 1597.64,549.842 1603.62,549.842C1606.86,549.842 1609.74,551.642 1614.78,556.971C1621.05,563.38 1626.23,565.9 1633.29,565.9C1645.39,565.9 1653.38,556.611 1653.38,542.424L1653.38,540.84L1642.08,540.84C1641.57,549.193 1638.33,553.73 1632.72,553.73C1629.11,553.73 1626.09,551.858 1621.12,546.601C1614.78,540.12 1609.6,537.599 1602.61,537.599ZM820.826,562.372L820.826,550.994L744.637,550.994L744.637,562.372L820.826,562.372ZM581.818,510.163L600.469,510.163C615.592,510.163 624.089,518.012 624.089,532.199C624.089,546.313 615.592,554.162 600.469,554.162L581.818,554.162L581.818,510.163Z" style="fill:white;"/>
    <defs>
        <linearGradient id="_Linear1" x1="0" y1="0" x2="1" y2="0" gradientUnits="userSpaceOnUse" gradientTransform="matrix(2100,2100,-2100,2100,150,-150)"><stop offset="0" style="stop-color:rgb(53,255,65);stop-opacity:1"/><stop offset="1" style="stop-color:rgb(29,0,174);stop-opacity:1"/></linearGradient>
    </defs>
</svg>
