<svg id="Layer_1" data-name="Layer 1" xmlns="http://www.w3.org/2000/svg" viewBox="0 0 2400 1600"><defs><style>.cls-1{fill:#ea5c5c;}.cls-2{fill:#dd0031;}.cls-3{fill:#c3002f;}.cls-4{fill:#fff;}</style></defs><title>Artboard 1</title><rect class="cls-1" width="2400" height="1600"/><polygon class="cls-2" points="1200 300 1200 300 1200 300 734.5 466 805.5 1081.5 1200 1300 1200 1300 1200 1300 1594.5 1081.5 1665.5 466 1200 300"/><polygon class="cls-3" points="1200 300 1200 411 1200 410.5 1200 917 1200 917 1200 1300 1200 1300 1594.5 1081.5 1665.5 466 1200 300"/><path class="cls-4" d="M1200,410.5,909,1063h108.5L1076,917h247l58.5,146H1490L1200,410.5ZM1285,827H1115l85-204.5Z"/></svg>