<svg id="Layer_1" data-name="Layer 1" xmlns="http://www.w3.org/2000/svg" viewBox="0 0 2400 1600"><defs><style>.cls-1{fill:#363f3f;}.cls-2{fill:#61dafb;}</style></defs><rect class="cls-1" width="2400" height="1600"/><path class="cls-2" d="M1760,800.11c0-74.19-92.91-144.5-235.36-188.1,32.87-145.19,18.26-260.7-46.11-297.68-14.84-8.68-32.19-12.79-51.14-12.79v50.91c10.5,0,19,2.06,26,5.94,31,17.8,44.52,85.6,34,172.81-2.51,21.46-6.62,44.06-11.64,67.11a1106.42,1106.42,0,0,0-145-24.88c-30.82-42.23-62.78-80.58-95-114.14,74.42-69.17,144.28-107.07,191.76-107.07v-50.9h0c-62.78,0-145,44.74-228.06,122.36-83.09-77.16-165.27-121.45-228-121.45v50.91c47.25,0,117.34,37.66,191.76,106.38A1077.38,1077.38,0,0,0,1069,573.43c-51.6,5.48-100.45,13.92-145.19,25.11-5.25-22.83-9.13-45-11.87-66.2-10.73-87.21,2.51-155,33.33-173,6.84-4.11,15.75-5.94,26.25-5.94v-50.9h0c-19.18,0-36.53,4.11-51.59,12.78-64.15,37-78.53,152.27-45.43,297C732.48,656.07,640,726.15,640,800.11c0,74.2,92.91,144.51,235.36,188.11-32.87,145.19-18.26,260.7,46.11,297.68,14.84,8.67,32.19,12.78,51.37,12.78,62.78,0,145-44.74,228.05-122.36,83.1,77.16,165.28,121.45,228.06,121.45,19.17,0,36.52-4.11,51.59-12.78,64.15-37,78.53-152.27,45.43-297C1667.52,944.39,1760,874.08,1760,800.11ZM1462.75,647.85c-8.44,29.45-18.94,59.81-30.81,90.17-9.36-18.26-19.18-36.52-29.91-54.79-10.5-18.26-21.69-36.07-32.87-53.41C1401.57,634.61,1432.85,640.54,1462.75,647.85ZM1358.2,891c-17.81,30.82-36.07,60-55,87.2-34,3-68.48,4.57-103.18,4.57-34.47,0-68.94-1.6-102.73-4.34-18.94-27.16-37.44-56.15-55.24-86.74q-26-44.86-47.48-90.86c14.15-30.59,30.13-61.18,47.25-91.09,17.81-30.81,36.07-60,55-87.2,34-3,68.48-4.57,103.18-4.57,34.47,0,68.94,1.6,102.73,4.34,18.94,27.17,37.44,56.16,55.24,86.75,17.35,29.9,33.1,60.27,47.48,90.86C1391.07,830.48,1375.32,861.07,1358.2,891Zm73.74-29.68c12.32,30.59,22.82,61.18,31.5,90.86-29.91,7.31-61.41,13.47-94,18.26,11.18-17.57,22.37-35.61,32.87-54.1C1412.76,898.05,1422.58,879.56,1431.94,861.29Zm-231.48,243.58a941.8,941.8,0,0,1-63.47-73c20.55.91,41.55,1.6,62.78,1.6,21.46,0,42.69-.46,63.46-1.6A889.32,889.32,0,0,1,1200.46,1104.87ZM1030.61,970.41c-32.41-4.79-63.69-10.73-93.59-18,8.44-29.45,19-59.81,30.82-90.17,9.36,18.26,19.17,36.52,29.9,54.79S1019.43,953.06,1030.61,970.41Zm168.71-475a939.61,939.61,0,0,1,63.46,73c-20.55-.92-41.55-1.6-62.78-1.6-21.46,0-42.69.46-63.46,1.6A887.44,887.44,0,0,1,1199.32,495.36ZM1030.39,629.82c-11.19,17.57-22.38,35.61-32.88,54.1-10.5,18.26-20.31,36.52-29.67,54.79-12.33-30.59-22.83-61.18-31.51-90.86C966.24,640.77,997.74,634.61,1030.39,629.82ZM823.79,915.63C743,881.15,690.7,836,690.7,800.11S743,718.85,823.79,684.6c19.63-8.44,41.09-16,63.23-23.05a1097.82,1097.82,0,0,0,51.37,139,1080.27,1080.27,0,0,0-50.68,138.34C865.11,931.83,843.65,924.07,823.79,915.63Zm122.82,326.21c-31.05-17.8-44.52-85.6-34-172.81,2.51-21.46,6.62-44.06,11.64-67.11a1108.09,1108.09,0,0,0,145,24.88c30.82,42.23,62.78,80.58,95,114.14C1089.74,1210.11,1019.88,1248,972.4,1248,962.13,1247.78,953.45,1245.72,946.61,1241.84Zm541.48-173.95c10.73,87.2-2.51,155-33.33,173-6.84,4.11-15.75,5.93-26.25,5.93-47.25,0-117.34-37.66-191.76-106.38A1077.38,1077.38,0,0,0,1331,1026.57c51.6-5.48,100.45-13.92,145.19-25.11A639.07,639.07,0,0,1,1488.09,1067.89ZM1576,915.63c-19.63,8.44-41.09,16-63.23,23a1096.28,1096.28,0,0,0-51.37-139,1079.86,1079.86,0,0,0,50.68-138.34c22.6,7.07,44.06,14.84,64.15,23.28,80.81,34.47,133.09,79.67,133.09,115.51C1709.07,836,1656.79,881.38,1576,915.63Z"/><circle class="cls-2" cx="1199.77" cy="800.11" r="104.33"/></svg>