<svg xmlns="http://www.w3.org/2000/svg" xml:space="preserve" style="fill-rule:evenodd;clip-rule:evenodd;stroke-miterlimit:10" viewBox="0 0 2400 1800"><path d="M0 0h2400v1800H0z" style="fill:url(#a)"/><path d="M913.404 647.449h505.102v62.796H913.404z" style="fill:#fff;fill-opacity:.76" transform="matrix(1 0 -2.18922 2.01903 1232.43 -732.325)"/><path d="M913.404 647.449h505.102v62.796H913.404z" style="fill:#fff;fill-opacity:.76" transform="matrix(1.3238 0 -1.31156 1.2096 872.507 -46.879)"/><path d="M848.57 689.901h236.577v505.102H848.57z" style="fill:#fff;fill-opacity:.47" transform="matrix(.5811 -.53592 0 1 602.959 466.542)"/><path d="M848.57 689.901h236.577v505.102H848.57z" style="fill:#fff;fill-opacity:.47" transform="matrix(.34813 -.32107 0 .47658 1523.38 756.253)"/><path d="M586.051 717.556h505.102v505.102H586.051z" style="fill:#fff" transform="translate(4.905 -15.878)"/><path d="M586.051 717.556h505.102v505.102H586.051z" style="fill:#fff" transform="matrix(1.3238 0 0 .47731 374.33 469.733)"/><path d="M913.404 647.449h505.102v62.796H913.404z" style="fill:#fff;fill-opacity:.76" transform="matrix(.50304 0 -4.04624 3.73168 2631.96 -2075.51)"/><path d="M848.57 689.901h236.577v505.102H848.57z" style="fill:#fff;fill-opacity:.47" transform="matrix(1.07401 -.99052 0 1.75123 -439.669 207.238)"/><path d="M586.051 717.556h505.102v505.102H586.051z" style="fill:#fff" transform="matrix(.50304 0 0 1.75123 -77.189 -681.715)"/><path d="M1200 405.56H485.9L1200 900H485.9z" style="fill:none;fill-rule:nonzero;stroke:#fff;stroke-opacity:.47;stroke-width:30px" transform="matrix(.2398 0 0 .23684 1852.7 681.641)"/><path d="m1200 900-714.1 494.44H1200" style="fill:none;fill-rule:nonzero;stroke:#fff;stroke-opacity:.51;stroke-width:30px" transform="matrix(.2398 0 0 .23684 1852.7 681.641)"/><path d="m485.9 900 714.1 494.44-714.1-988.88" style="fill:none;fill-rule:nonzero;stroke:#fff;stroke-opacity:.5;stroke-width:30px" transform="matrix(.2398 0 0 .23684 1852.7 681.641)"/><path d="m1200 405.56-714.1 988.88" style="fill:none;fill-rule:nonzero;stroke:#fff;stroke-opacity:.48;stroke-width:30px" transform="matrix(.2398 0 0 .23684 1852.7 681.641)"/><circle cx="485.9" cy="405.56" r="174.89" style="fill:#fff" transform="matrix(.2398 0 0 .23684 1852.7 681.641)"/><circle cx="485.9" cy="900" r="174.89" style="fill:#fff" transform="matrix(.2398 0 0 .23684 1852.7 681.641)"/><circle cx="485.9" cy="1394.44" r="174.89" style="fill:#fff" transform="matrix(.2398 0 0 .23684 1852.7 681.641)"/><circle cx="1200" cy="405.56" r="174.89" style="fill:#fff" transform="matrix(.2398 0 0 .23684 1852.7 681.641)"/><circle cx="1200" cy="900" r="174.89" style="fill:#fff" transform="matrix(.2398 0 0 .23684 1852.7 681.641)"/><circle cx="1200" cy="1394.44" r="174.89" style="fill:#fff" transform="matrix(.2398 0 0 .23684 1852.7 681.641)"/><defs><linearGradient id="a" x1="0" x2="1" y1="0" y2="0" gradientTransform="matrix(2100 2100 -2100 2100 150 -150)" gradientUnits="userSpaceOnUse"><stop offset="0" style="stop-color:#15caff;stop-opacity:1"/><stop offset="1" style="stop-color:#ff9c18;stop-opacity:1"/></linearGradient></defs></svg>