<?xml version="1.0" encoding="UTF-8" standalone="no"?>
<!DOCTYPE svg PUBLIC "-//W3C//DTD SVG 1.1//EN" "http://www.w3.org/Graphics/SVG/1.1/DTD/svg11.dtd">
<svg width="100%" height="100%" viewBox="0 0 2400 1800" version="1.1" xmlns="http://www.w3.org/2000/svg" xmlns:xlink="http://www.w3.org/1999/xlink" xml:space="preserve" xmlns:serif="http://www.serif.com/" style="fill-rule:evenodd;clip-rule:evenodd;">
    <g transform="matrix(1,0,0,1,2.70819,4.11436)">
        <rect x="0" y="0" width="2400" height="1800" style="fill:url(#_Linear1);"/>
    </g>
    <g transform="matrix(1,0,0,1,400.481,440.112)">
        <path d="M270.506,278.559C425.34,278.559 551.046,404.265 551.046,559.099C551.046,713.934 425.34,839.639 270.506,839.639C115.671,839.639 -10.034,713.934 -10.034,559.099C-10.034,404.265 115.671,278.559 270.506,278.559ZM270.506,327.041C398.582,327.041 502.564,431.023 502.564,559.099C502.564,687.176 398.582,791.157 270.506,791.157C142.429,791.157 38.448,687.176 38.448,559.099C38.448,431.023 142.429,327.041 270.506,327.041Z" style="fill:rgb(88,255,212);"/>
    </g>
    <g transform="matrix(1,0,0,1,21.3664,99.1308)">
        <path d="M816.2,608.267C819.624,594.773 821.421,580.651 821.421,566.122C821.421,468.804 740.798,389.795 641.493,389.795C542.189,389.795 461.566,468.804 461.566,566.122C461.566,622.78 488.894,673.232 531.323,705.499L531.323,740.509C471.844,704.327 432.197,639.726 432.197,566.122C432.197,452.919 525.979,361.013 641.493,361.013C757.007,361.013 850.79,452.919 850.79,566.122C850.79,583.555 848.566,600.483 844.363,616.649L816.2,608.267Z" style="fill:rgb(88,255,212);"/>
    </g>
    <g transform="matrix(1,0,0,1,14.8162,99.1358)">
        <path d="M289.51,900.08L120.48,900.08" style="fill:none;fill-rule:nonzero;stroke:rgb(88,255,212);stroke-width:30px;"/>
    </g>
    <g transform="matrix(1,0,0,1,14.8162,99.1358)">
        <path d="M272,840.24L375.63,900.08L272,959.91L272,840.24Z" style="fill:rgb(88,255,212);fill-rule:nonzero;"/>
    </g>
    <g transform="matrix(1.01692,0,0,1,6.96876,99.1308)">
        <path d="M1466.46,720.83C1409.21,685.95 1324.46,648.44 1217.72,643.46C1020.84,634.27 885.12,742.17 850.79,771.23" style="fill:none;fill-rule:nonzero;stroke:rgb(88,255,212);stroke-width:30px;"/>
    </g>
    <g transform="matrix(1.01692,0,0,1,6.96876,99.1308)">
        <path d="M1485.9,662.7L1536.29,771.23L1417.1,760.62L1485.9,662.7Z" style="fill:rgb(88,255,212);fill-rule:nonzero;"/>
    </g>
    <g transform="matrix(-1.01692,1.24537e-16,-1.22465e-16,-1,2477.71,1907.59)">
        <path d="M1466.46,720.83C1409.21,685.95 1324.46,648.44 1217.72,643.46C1020.84,634.27 885.12,742.17 850.79,771.23" style="fill:none;fill-rule:nonzero;stroke:rgb(88,255,212);stroke-width:30px;"/>
    </g>
    <g transform="matrix(-1.01692,1.24537e-16,-1.22465e-16,-1,2477.71,1907.59)">
        <path d="M1485.9,662.7L1536.29,771.23L1417.1,760.62L1485.9,662.7Z" style="fill:rgb(88,255,212);fill-rule:nonzero;"/>
    </g>
    <g transform="matrix(1,0,0,1,29.787,55.4978)">
        <path d="M788.059,668.282C801.058,650.467 810.74,630.176 816.2,608.267L844.363,616.649C836.577,646.746 821.99,674.199 802.297,697.334C821.991,674.199 836.582,646.751 844.363,616.649L888.459,629.772L798.802,711.246L788.059,668.282ZM816.2,608.267C810.72,630.167 801.059,650.463 788.059,668.282L769.583,594.394L816.2,608.267Z" style="fill:rgb(88,255,212);"/>
    </g>
    <g transform="matrix(-1,0,0,1,2419.46,99.1308)">
        <path d="M816.2,608.267C819.624,594.773 821.421,580.651 821.421,566.122C821.421,468.804 740.798,389.795 641.493,389.795C542.189,389.795 461.566,468.804 461.566,566.122C461.566,622.78 488.894,673.232 531.323,705.499L531.323,740.509C471.844,704.327 432.197,639.726 432.197,566.122C432.197,452.919 525.979,361.013 641.493,361.013C757.007,361.013 850.79,452.919 850.79,566.122C850.79,583.555 848.566,600.483 844.363,616.649L816.2,608.267Z" style="fill:rgb(88,255,212);"/>
    </g>
    <g transform="matrix(-1,0,0,1,2419.46,99.1308)">
        <path d="M788.059,668.282C801.058,650.467 810.74,630.176 816.2,608.267L844.363,616.649C836.577,646.746 821.99,674.199 802.297,697.334C821.991,674.199 836.582,646.751 844.363,616.649L888.459,629.772L798.802,711.246L788.059,668.282ZM816.2,608.267C810.72,630.167 801.059,650.463 788.059,668.282L769.583,594.394L816.2,608.267Z" style="fill:rgb(88,255,212);"/>
    </g>
    <g transform="matrix(1,0,0,1,21.3664,99.1308)">
        <path d="M1441.46,477.33C1439.24,474.906 1436.08,473.556 1432.79,473.63C1431.78,473.648 1430.77,473.799 1429.79,474.08C1428.97,474.298 1428.16,474.566 1427.37,474.88L1397.47,485.17C1394.85,486.001 1392.63,487.786 1391.26,490.17C1390.17,492.146 1389.61,494.366 1389.63,496.62C1389.59,499.777 1390.84,502.817 1393.08,505.04C1395.37,507.319 1398.48,508.572 1401.71,508.51C1403.63,508.469 1405.53,508.03 1407.27,507.22L1420.54,502.57L1420.54,622.57C1420.48,625.843 1421.8,628.995 1424.16,631.26C1426.41,633.551 1429.5,634.843 1432.71,634.843C1439.3,634.843 1444.71,629.426 1444.71,622.843C1444.71,622.752 1444.71,622.661 1444.71,622.57L1444.71,485.71C1444.73,482.607 1443.57,479.61 1441.46,477.33Z" style="fill:rgb(88,255,212);fill-rule:nonzero;"/>
    </g>
    <g transform="matrix(1,0,0,1,21.3664,99.1308)">
        <path d="M1008.65,1169.23C1005.69,1166.06 1001.18,1164.81 997,1166C996.17,1166.23 995.36,1166.5 994.58,1166.8L964.68,1177.09C962.055,1177.92 959.834,1179.7 958.46,1182.09C957.38,1184.06 956.822,1186.28 956.84,1188.53C956.797,1191.69 958.044,1194.74 960.29,1196.96C962.578,1199.23 965.695,1200.48 968.92,1200.42C970.84,1200.38 972.731,1199.94 974.47,1199.13L987.75,1194.49L987.75,1314.49C987.688,1317.77 989.001,1320.92 991.37,1323.19C993.624,1325.48 996.703,1326.76 999.913,1326.76C1006.5,1326.76 1011.91,1321.35 1011.91,1314.76C1011.91,1314.67 1011.91,1314.58 1011.91,1314.49L1011.91,1177.61C1011.93,1174.51 1010.76,1171.51 1008.65,1169.23Z" style="fill:rgb(88,255,212);fill-rule:nonzero;"/>
    </g>
    <g transform="matrix(1,0,0,1,21.3664,99.1308)">
        <path d="M649.62,652.82C786.087,652.82 896.88,763.613 896.88,900.08C896.88,1036.55 786.087,1147.34 649.62,1147.34C513.153,1147.34 402.36,1036.55 402.36,900.08C402.36,763.613 513.153,652.82 649.62,652.82ZM462.846,904.638C463.36,910 464.84,914.85 467.287,919.19C470.384,924.683 474.621,929.008 479.998,932.164C485.374,935.319 491.569,936.897 498.582,936.897C502.789,936.897 507.026,936.167 511.292,934.706C515.559,933.245 518.977,931.404 521.549,929.183C522.834,928.131 524.295,927.576 525.932,927.518C527.568,927.459 528.971,927.897 530.139,928.832C531.659,930.235 532.448,931.754 532.506,933.391C532.565,935.027 531.893,936.43 530.49,937.598C526.633,940.871 521.724,943.589 515.763,945.751C509.802,947.913 504.075,948.994 498.582,948.994C489.114,948.994 480.728,946.92 473.423,942.77C466.118,938.621 460.391,932.865 456.242,925.501C452.093,918.138 450.018,909.723 450.018,900.255C450.018,890.671 451.976,882.227 455.891,874.922C459.807,867.617 465.213,861.86 472.108,857.653C479.004,853.445 486.952,851.341 495.952,851.341C504.835,851.341 512.578,853.357 519.182,857.39C525.786,861.422 530.899,867.003 534.522,874.133C538.146,881.262 539.957,889.385 539.957,898.502C539.957,900.372 539.373,901.862 538.204,902.973C537.035,904.083 535.516,904.638 533.646,904.638L462.846,904.638ZM660.432,904.638C660.946,910 662.426,914.85 664.873,919.19C667.97,924.683 672.207,929.008 677.584,932.164C682.96,935.319 689.155,936.897 696.167,936.897C700.375,936.897 704.612,936.167 708.878,934.706C713.144,933.245 716.563,931.404 719.134,929.183C720.42,928.131 721.881,927.576 723.517,927.518C725.154,927.459 726.556,927.897 727.725,928.832C729.245,930.235 730.033,931.754 730.092,933.391C730.15,935.027 729.478,936.43 728.076,937.598C724.219,940.871 719.31,943.589 713.349,945.751C707.388,947.913 701.661,948.994 696.167,948.994C686.7,948.994 678.314,946.92 671.009,942.77C663.704,938.621 657.977,932.865 653.828,925.501C649.678,918.138 647.604,909.723 647.604,900.255C647.604,890.671 649.562,882.227 653.477,874.922C657.393,867.617 662.798,861.86 669.694,857.653C676.59,853.445 684.538,851.341 693.538,851.341C702.421,851.341 710.164,853.357 716.768,857.39C723.371,861.422 728.485,867.003 732.108,874.133C735.731,881.262 737.543,889.385 737.543,898.502C737.543,900.372 736.959,901.862 735.79,902.973C734.621,904.083 733.102,904.638 731.231,904.638L660.432,904.638ZM773.834,864.98C773.834,864.98 773.539,865.313 773.834,864.98L773.834,859.055C773.834,856.951 773.221,855.286 771.993,854.058C770.766,852.831 769.159,852.218 767.172,852.218C765.068,852.218 763.403,852.831 762.175,854.058C760.948,855.286 760.335,856.951 760.335,859.055L760.335,941.456C760.335,943.442 760.948,945.05 762.175,946.277C763.403,947.504 765.068,948.118 767.172,948.118C769.159,948.118 770.766,947.504 771.993,946.277C773.221,945.05 773.834,943.442 773.834,941.456L773.834,889.561C773.834,884.652 775.178,880.269 777.867,876.412C780.555,872.555 784.207,869.516 788.824,867.295C793.441,865.074 798.613,863.964 804.34,863.964C810.301,863.964 815.648,865.133 820.382,867.47C825.115,869.808 828.856,873.314 831.602,877.99C834.349,882.665 835.722,888.626 835.722,895.872L835.722,941.456C835.722,943.326 836.365,944.903 837.651,946.189C838.936,947.475 840.573,948.118 842.56,948.118C844.43,948.118 846.008,947.475 847.293,946.189C848.579,944.903 849.222,943.326 849.222,941.456L849.222,895.872C849.222,886.288 847.323,878.165 843.524,871.503C839.725,864.841 834.553,859.786 828.008,856.338C821.463,852.89 814.041,851.166 805.743,851.166C798.145,851.166 791.249,852.831 785.055,856.162C780.711,858.498 776.971,861.437 773.834,864.98ZM592.09,928.713L625.338,855.724C626.039,854.088 627.237,853.007 628.932,852.481C630.627,851.955 632.293,852.042 633.929,852.744C635.565,853.562 636.676,854.76 637.26,856.338C637.844,857.916 637.786,859.406 637.085,860.808L598.69,943.559C597.287,946.598 595.066,948.118 592.027,948.118C589.222,948.118 587.118,946.598 585.716,943.559L546.795,860.984C546.094,859.464 546.035,857.945 546.619,856.425C547.204,854.906 548.373,853.737 550.126,852.919C551.762,852.101 553.34,851.984 554.86,852.568C556.379,853.153 557.548,854.205 558.366,855.724L592.09,928.713ZM495.99,863.438C502.52,863.444 508.146,864.964 512.87,867.996C517.604,871.035 521.257,875.243 523.828,880.619C525.692,884.517 526.85,888.783 527.301,893.418L463.095,893.418C463.704,889.004 464.926,884.942 466.761,881.233C469.508,875.681 473.394,871.328 478.42,868.172C483.446,865.016 489.29,863.438 495.952,863.438L495.99,863.438ZM693.576,863.438C700.106,863.444 705.732,864.964 710.456,867.996C715.19,871.035 718.842,875.243 721.414,880.619C723.278,884.517 724.435,888.783 724.886,893.418L660.681,893.418C661.29,889.004 662.512,884.942 664.347,881.233C667.094,875.681 670.98,871.328 676.006,868.172C681.032,865.016 686.876,863.438 693.538,863.438L693.576,863.438Z" style="fill:white;stroke:rgb(94,255,89);stroke-width:1px;"/>
    </g>
    <g transform="matrix(1,0,0,1,21.3664,99.1308)">
        <path d="M1756.59,652.74C1893.06,652.74 2003.85,763.533 2003.85,900C2003.85,1036.47 1893.06,1147.26 1756.59,1147.26C1620.12,1147.26 1509.33,1036.47 1509.33,900C1509.33,763.533 1620.12,652.74 1756.59,652.74ZM1635.27,968.981C1625.92,968.981 1617.56,966.877 1610.2,962.669C1602.83,958.462 1597.05,952.676 1592.84,945.313C1588.63,937.949 1586.53,929.592 1586.53,920.242C1586.53,910.775 1588.63,902.359 1592.84,894.996C1597.05,887.632 1602.83,881.847 1610.2,877.639C1617.56,873.431 1625.92,871.328 1635.27,871.328C1644.62,871.328 1652.95,873.431 1660.25,877.639C1667.56,881.847 1673.31,887.632 1677.52,894.996C1681.73,902.359 1683.89,910.775 1684.01,920.242C1684.01,929.592 1681.87,937.949 1677.61,945.313C1673.34,952.676 1667.56,958.462 1660.25,962.669C1652.95,966.877 1644.62,968.981 1635.27,968.981ZM1753.96,968.981C1744.73,968.981 1736.43,966.848 1729.07,962.582C1721.7,958.315 1715.89,952.501 1711.62,945.137C1707.35,937.774 1705.22,929.417 1705.22,920.066C1705.22,910.833 1707.3,902.534 1711.44,895.171C1715.59,887.808 1721.23,881.993 1728.36,877.727C1735.49,873.461 1743.56,871.328 1752.56,871.328C1760.39,871.328 1767.46,872.993 1773.77,876.324C1780.08,879.655 1785.17,884.067 1789.02,889.561L1789.02,838.017C1789.02,835.913 1789.67,834.247 1790.95,833.02C1792.24,831.793 1793.88,831.179 1795.86,831.179C1797.85,831.179 1799.49,831.793 1800.77,833.02C1802.06,834.247 1802.7,835.913 1802.7,838.017L1802.7,920.768C1802.47,929.884 1800.22,938.095 1795.95,945.4C1791.68,952.705 1785.9,958.462 1778.59,962.669C1771.29,966.877 1763.08,968.981 1753.96,968.981ZM1877.91,968.981C1868.68,968.981 1860.38,966.848 1853.02,962.582C1845.65,958.315 1839.84,952.501 1835.57,945.137C1831.31,937.774 1829.17,929.417 1829.17,920.066C1829.17,910.833 1831.25,902.534 1835.4,895.171C1839.55,887.808 1845.18,881.993 1852.32,877.727C1859.44,873.461 1867.51,871.328 1876.51,871.328C1884.34,871.328 1891.41,872.993 1897.72,876.324C1904.03,879.655 1909.12,884.067 1912.98,889.561L1912.98,838.017C1912.98,835.913 1913.62,834.247 1914.9,833.02C1916.19,831.793 1917.83,831.179 1919.81,831.179C1921.8,831.179 1923.44,831.793 1924.72,833.02C1926.01,834.247 1926.65,835.913 1926.65,838.017L1926.65,920.768C1926.42,929.884 1924.17,938.095 1919.9,945.4C1915.63,952.705 1909.85,958.462 1902.54,962.669C1895.24,966.877 1887.03,968.981 1877.91,968.981ZM1635.27,956.708C1642.05,956.708 1648.12,955.13 1653.5,951.975C1658.88,948.819 1663.09,944.494 1666.12,939.001C1669.16,933.508 1670.68,927.255 1670.68,920.242C1670.68,913.229 1669.16,906.947 1666.12,901.395C1663.09,895.843 1658.88,891.489 1653.5,888.334C1648.12,885.178 1642.05,883.6 1635.27,883.6C1628.49,883.6 1622.41,885.178 1617.04,888.334C1611.66,891.489 1607.42,895.843 1604.33,901.395C1601.23,906.947 1599.68,913.229 1599.68,920.242C1599.68,927.255 1601.23,933.508 1604.33,939.001C1607.42,944.494 1611.66,948.819 1617.04,951.975C1622.41,955.13 1628.49,956.708 1635.27,956.708ZM1753.96,956.708C1760.74,956.708 1766.79,955.101 1772.11,951.887C1777.42,948.673 1781.63,944.319 1784.73,938.826C1787.83,933.332 1789.38,927.079 1789.38,920.066C1789.38,913.171 1787.83,906.947 1784.73,901.395C1781.63,895.843 1777.42,891.489 1772.11,888.334C1766.79,885.178 1760.74,883.6 1753.96,883.6C1747.3,883.6 1741.28,885.178 1735.9,888.334C1730.53,891.489 1726.26,895.843 1723.1,901.395C1719.95,906.947 1718.37,913.171 1718.37,920.066C1718.37,927.079 1719.95,933.332 1723.1,938.826C1726.26,944.319 1730.53,948.673 1735.9,951.887C1741.28,955.101 1747.3,956.708 1753.96,956.708ZM1877.91,956.708C1884.69,956.708 1890.74,955.101 1896.06,951.887C1901.38,948.673 1905.58,944.319 1908.68,938.826C1911.78,933.332 1913.33,927.079 1913.33,920.066C1913.33,913.171 1911.78,906.947 1908.68,901.395C1905.58,895.843 1901.38,891.489 1896.06,888.334C1890.74,885.178 1884.69,883.6 1877.91,883.6C1871.25,883.6 1865.23,885.178 1859.85,888.334C1854.48,891.489 1850.21,895.843 1847.06,901.395C1843.9,906.947 1842.32,913.171 1842.32,920.066C1842.32,927.079 1843.9,933.332 1847.06,938.826C1850.21,944.319 1854.48,948.673 1859.85,951.887C1865.23,955.101 1871.25,956.708 1877.91,956.708Z" style="fill:white;"/>
    </g>
    <g transform="matrix(17.1572,0,0,17.1572,-1748.65,-21255.5)">
        <text x="137.128px" y="1263.84px" style="font-family:'Comfortaa-Regular_Bold', 'Comfortaa';font-size:12px;fill:rgb(88,255,212);">0</text>
    </g>
    <g transform="matrix(17.1572,0,0,17.1572,-640.297,-21255.5)">
        <text x="137.128px" y="1263.84px" style="font-family:'Comfortaa-Regular_Bold', 'Comfortaa';font-size:12px;fill:rgb(88,255,212);">0</text>
    </g>
    <defs>
        <linearGradient id="_Linear1" x1="0" y1="0" x2="1" y2="0" gradientUnits="userSpaceOnUse" gradientTransform="matrix(2100,2100,-2100,2100,150,-150)"><stop offset="0" style="stop-color:rgb(29,185,45);stop-opacity:1"/><stop offset="1" style="stop-color:rgb(49,187,255);stop-opacity:1"/></linearGradient>
    </defs>
</svg>
