<svg id="Layer_1" data-name="Layer 1" xmlns="http://www.w3.org/2000/svg" viewBox="0 0 2400 1600"><defs><style>.cls-1{fill:#297c4b;}.cls-2{fill:#00c853;}.cls-3{fill:#69f0ae;}.cls-4{fill:#fff;}.cls-5{fill:#00e676;}</style></defs><rect class="cls-1" width="2400" height="1600"/><path class="cls-2" d="M1173.88,306.82a53.44,53.44,0,0,1,52.21,0c79.89,44.83,320.27,179.78,400.17,224.62a50.44,50.44,0,0,1,26.12,43.95V1024.6a50.53,50.53,0,0,1-26.12,44c-79.88,44.83-320.26,179.78-400.17,224.62a53.49,53.49,0,0,1-52.21,0c-79.88-44.84-320.26-179.79-400.17-224.62a50.51,50.51,0,0,1-26.09-43.95V575.41a50.51,50.51,0,0,1,26.12-44C853.59,486.6,1094,351.65,1173.88,306.82Z"/><path class="cls-3" d="M754.86,1047.72c-6.34-8.48-7.24-16.52-7.24-27.36V573.72a50.16,50.16,0,0,1,26-43.71c79.59-44.57,319.16-178.74,398.76-223.34,16.12-9,38-8.83,54.07.19,79.59,44.58,318.36,177.6,398,222.17a50,50,0,0,1,15.72,13.71Z"/><path class="cls-4" d="M1200,466.67C1016,466.67,866.67,616,866.67,800S1016,1133.34,1200,1133.34,1533.33,984.05,1533.33,800,1384.05,466.67,1200,466.67Zm0,500c-91.91,0-166.67-74.76-166.67-166.66S1108.09,633.34,1200,633.34,1366.67,708.1,1366.67,800,1291.9,966.67,1200,966.67Z"/><path class="cls-5" d="M1640.12,543c12.28,11.5,12.05,28.84,12.05,42.48,0,90.36-.77,347.36.21,437.71a51.77,51.77,0,0,1-7.69,26.84L1190.31,800Z"/><path class="cls-4" d="M1438.09,704.77h23.81V895.24h-23.81Zm71.43,0h23.81V895.24h-23.81Z"/><path class="cls-4" d="M1390.47,823.82H1581v23.81H1390.47Zm0-71.43H1581V776.2H1390.47Z"/></svg>