<svg id="Layer_1" data-name="Layer 1" xmlns="http://www.w3.org/2000/svg" viewBox="0 0 500 500">
    <defs>
        <style>.cls-1{fill:none;}.cls-2{fill:#EEE}</style>
    </defs>
    <title>Artboard 1</title>
    <rect class="cls-2" x="240.84" y="-140.24" width="14" height="777.18"
          transform="translate(-103.02 247.99) rotate(-45)"/>
    <rect class="cls-2" x="58.55" y="66.06" width="14" height="433.94"/>
    <rect class="cls-2" x="131.1" y="135.99" width="14" height="364.01"/>
    <rect class="cls-2" x="203.65" y="210.98" width="14" height="289.02"/>
    <rect class="cls-2" x="276.2" y="283.82" width="14" height="216.18"/>
    <rect class="cls-2" x="348.74" y="356.04" width="14" height="143.96"/>
    <rect class="cls-2" x="421.29" y="429.03" width="14" height="70.97"/>
    <rect class="cls-2" y="427.45" width="435.29" height="14"/>
    <rect class="cls-2" y="354.9" width="352.93" height="14"/>
    <rect class="cls-2" y="283.82" width="290.2" height="14"/>
    <rect class="cls-2" y="212.74" width="217.67" height="14"/>
    <rect class="cls-2" y="141.65" width="144.89" height="14"/>
    <rect class="cls-2" y="70.57" width="73.73" height="14"/>
    <path class="cls-2"
          d="M218.75,190.87,128.88,101l57.56-57.55,89.87,89.87ZM148.68,101l70.07,70.08,37.76-37.76L186.44,63.23Z"/>
    <path class="cls-2"
          d="M314.22,286.62l-89.87-89.87,57.56-57.56,89.87,89.87Zm-70.07-89.87,70.07,70.07L352,229.06,281.91,159Z"/>
    <path class="cls-2"
          d="M418.79,353.37l3.52-54.26,1.2-18.6-6.58-6.58-39.32-39.32-57.56,57.55,83.28,83.29,6.59,6.59,7.5-7.5Zm-78.94-61.21,37.76-37.76,31.52,31.53-4.59,70.93Z"/>
</svg>