<svg id="Layer_1" data-name="Layer 1" xmlns="http://www.w3.org/2000/svg" viewBox="0 0 2400 1600"><defs><style>.cls-1{fill:#020a21;}.cls-2{fill:#86f2ef;}.cls-3{fill:#3db6f9;}.cls-4{fill:#fff;}</style></defs><rect class="cls-1" width="2400" height="1600"/><path class="cls-2" d="M1625.2,846.18V1066.8a20.61,20.61,0,0,1-10.39,17.94c-16.25,8.85-32.29,17.7-48.55,26.55-55.77,30.52-111.55,61.27-167.09,91.79q.33-187.65.67-375.53c0-27.26,0-54.52.23-81.77,0-10.95,11.29-17.94,20.77-12.81l77.91,42.86,1.8,148.63v120.67c13.33-7.45,26.65-14.67,40-22.13V818.69a11.48,11.48,0,0,1,16.71-10.48c22.36,13,45.16,25.39,68,38"/><path class="cls-2" d="M1359.2,1016.71a20.63,20.63,0,0,0-10.39-17.94Q1248.9,943.92,1149,889.28c0-17-.23-34-.23-51,0-29.58-.22-59.17-.22-89,18.74-11.41,37.48-22.59,56.45-33.78,24.61,14.68,30.93,18.41,55.32,32.85l.23,68.49-1.81,20.73a20.6,20.6,0,0,0,10.39,17.94c29.58,16.54,59.16,32.85,88.52,49.16V726.21a20.23,20.23,0,0,0-10.39-17.7l-133.68-74.09a18.76,18.76,0,0,0-18.52,0c-44.93,25.16-89.87,50.56-134.81,75.72a20,20,0,0,0-10.16,17.7l.45,137.45-1.8,73.15a20.58,20.58,0,0,0,10.39,17.93c72.93,40.31,201,111.13,201,111.13l.45,110.42-31.84,17.94-25.07,14.21-55.77-31.68v-44.5h0v-41.7a20.6,20.6,0,0,0-10.16-17.71l-87.39-48.68v89.45h0v98.54a20.86,20.86,0,0,0,10.39,17.94c44.93,25.16,89.87,50.09,134.8,75.25a18.76,18.76,0,0,0,18.52,0c18.52-10.25,37-20.5,55.32-30.52,26.65-14.68,53.3-29.35,79.72-44a20.6,20.6,0,0,0,10.38-17.94c0-66.16,0-131.85-.22-197.78"/><path class="cls-2" d="M782.48,870.18a18.32,18.32,0,0,0-.45,3.73c0,68.25.22,136.51.22,204.77,23.71,13.28,47.65,26.56,71.36,39.83a8.49,8.49,0,0,0,12.42-7.68V965.69q57.91,31.8,116.06,64.07c10.84-6.76,13.78-8.62,24.84-15.38,0-45.19.23-90.62.23-135.81.22-46.83.22-93.89.22-140.94Q900,796.69,792.41,856a20.73,20.73,0,0,0-9.93,14.21m83.77,3.73,53.52-30.06a11.13,11.13,0,0,1,16.48,10.25c0,13,0,26.33-.22,39.38-.23,17.47-.23,34.94-.23,52.41-23.26-12.81-46.51-25.62-69.55-38.2V873.91Z"/><path class="cls-3" d="M782.7,618.12l-.22-93.19a17.47,17.47,0,0,1,8.8-15.37c25.07-13.75,49.91-27.49,75-41,0,43.09-.22,86.42-.22,129.52l18.51-10a17.65,17.65,0,0,0,9-15.37v-109a17.35,17.35,0,0,1,8.8-15.14c25.07-13.74,50.13-27.49,75-41.23.23,80.6.45,161,.68,241.58,0,16.54,0,33.08.23,49.85a17.47,17.47,0,0,1-8.81,15.38c-25.07,13.74-50.36,27.72-75.42,41.46l1.8-102V624.17l-19.41,10.72a17.09,17.09,0,0,0-8.59,11.65,27.1,27.1,0,0,0-.45,4.19V763a18.15,18.15,0,0,1-9.26,15.84c-25.51,14-51.25,27.95-76.77,41.93Z"/><path class="cls-3" d="M1399.84,678.92a8.49,8.49,0,0,1-12.42,7.69Q1303.09,639.78,1219,593q-.35-93.3-.23-186.6c0-33.55,0-67.1-.22-100.88,0-6.52,6.77-10.71,12.19-7.68,56.23,30.75,112.45,61.73,168.68,92.48V491.15l-70-38.9c.23-14.21.45-28.42.68-42.4-9.94-5.36-19.65-10.48-29.58-15.84-5.65-3-12.2,1.16-12.2,7.69l.23,165.63a11.67,11.67,0,0,0,6.1,10.25c11.74,6.52,23.71,12.81,35.45,19.34,0-14.45-.23-28.66-.23-43.1,23.26,12.81,46.52,25.39,70,38.21-.22,29.12,0,58,0,86.89"/><path class="cls-3" d="M1625.2,686.84l.23,116.95c0,6.52-6.78,10.71-12.2,7.68-23.71-13-47.64-26.09-71.35-39.13l.9-129.53c-5.87-3.26-11.74-6.52-17.61-10-5.87-3.26-12.87.93-12.87,7.92V742.52s-6.33,10.71-12,7.68c-23.94-13.27-48.1-26.79-72-40.06q.35-145,.68-289.81a8.49,8.49,0,0,1,12.42-7.68c24.16,13.27,71.13,39.83,71.13,39.83l-.22,130,16.25,9.32a8.51,8.51,0,0,0,12.65-7.69c-.23-34-.23-68.25-.45-102.5,0-6.75,6.77-11,12.42-7.69,24.16,13.28,48.32,26.56,72.26,39.84,0,52.18,0,63.13.22,115.08l-40.87,22.83L1615,668.9a20.7,20.7,0,0,1,10.16,17.94"/><path class="cls-3" d="M1078.29,644.44c0-21.2,0-42.4-.23-63.83V538.44a17.36,17.36,0,0,1,8.81-15.14c11.06-6.06,22.13-12.34,33-18.63V632.09c20.32-11.18,40.87-22.36,61.19-33.54a17.36,17.36,0,0,0,8.81-15.14V290.58l-173.42,96.21a17.36,17.36,0,0,0-8.81,15.14c-.23,79.21-.45,158.18-.68,237.39v55c20.78-11.41,41.78-23.06,62.78-34.47a18.35,18.35,0,0,0,8.58-15.38m8.13-254.62c11.06-6.06,22.35-12.12,33.42-18.17l-.23,77.8a17.38,17.38,0,0,1-9,15.38c-11.06,5.82-21.9,11.65-33,17.47,0-25.86-.22-51.48-.22-77.11a17.19,17.19,0,0,1,9-15.37"/><path class="cls-4" d="M852.25,476.24h.46l-61,33.55a17.46,17.46,0,0,0-8.81,15.38v9.55a2,2,0,0,1-1.13.23c-.45.23-1.13.23-1.58.47s-1.13.23-1.58.46-1.13.23-1.58.47-1.13.23-1.58.46-1.13.24-1.58.47-1.13.23-1.58.47-1.13.23-1.58.46-1.13.23-1.58.47-1.13.23-1.59.46-1.12.24-1.58.47a4.08,4.08,0,0,1-1.58.46,4,4,0,0,1-1.58.47,16,16,0,0,1-1.58.47,4.13,4.13,0,0,1-1.58.46c-.45.24-1.13.24-1.58.47a3.2,3.2,0,0,1-1.58.46,3.11,3.11,0,0,1-1.58.47,282.77,282.77,0,0,1-3.16.93,3.14,3.14,0,0,1-1.58.47,3.19,3.19,0,0,1-1.36.46,3.11,3.11,0,0,1-1.58.47c-.22,0-.45.23-.68.23a3,3,0,0,1-1.35.47,3.15,3.15,0,0,1-1.36.46,3,3,0,0,1-1.35.47,3.17,3.17,0,0,1-1.35.47,3.23,3.23,0,0,1-1.36.46,3,3,0,0,1-1.35.47,3.23,3.23,0,0,1-1.36.46,3,3,0,0,1-1.35.47,3.26,3.26,0,0,1-1.36.47,3.15,3.15,0,0,1-1.35.46l-1.36.7a3.17,3.17,0,0,1-1.35.47L729,552a3.15,3.15,0,0,1-1.35.46l-1.36.7-1.35.7-1.36.7-1.35.7-1.36.7c-.22,0-.22.23-.45.23l-1.35.7-1.36.7-1.35.7a4.63,4.63,0,0,0-1.13.69,14053692116392.72,14053692116392.72,0,0,0-2.26,1.4,5.44,5.44,0,0,0-1.13.7c-.45.23-.68.47-1.13.7a5,5,0,0,0-1.13.7c-.45.23-.68.46-1.13.7s-.68.46-1.13.7-.67.46-1.13.7-.67.46-1.12.69-.68.47-1.13.7-.68.47-1.13.7-.68.47-1.13.7-.68.47-1.13.7a.23.23,0,0,0-.23.23c-.45.24-.67.47-1.13.7a4.43,4.43,0,0,1-1.12.7c-.46.23-.68.47-1.13.7s-.68.47-1.13.7-.68.46-1.13.7-.68.46-1.13.7a5.44,5.44,0,0,1-1.13.7c-.45.23-.68.46-1.13.69s-.68.47-1.13.7c-.22.24-.68.47-.9.7s-.68.47-.9.7c-.46.23-.68.47-1.13.7-.23.23-.68.47-.91.7h0c-.22.23-.67.46-.9.7s-.68.46-.9.7-.68.46-.91.7-.67.46-.9.69-.68.47-.9.7-.68.47-.91.7-.67.47-.9.7-.68.47-.9.7-.68.47-.91.7a3.23,3.23,0,0,1-.9.7,3.38,3.38,0,0,1-.9.7,3.3,3.3,0,0,1-.91.7,3,3,0,0,1-.9.69,2.9,2.9,0,0,1-.9.7,3,3,0,0,1-.91.7l-.67.7a3.12,3.12,0,0,1-.91.7l-.9.93a3.24,3.24,0,0,0-.68.93l-.67.7a3.19,3.19,0,0,0-.68.93,3.31,3.31,0,0,0-.68.94l-.68.69a3.3,3.3,0,0,0-.67.94,2.94,2.94,0,0,0-.68.93,3.1,3.1,0,0,0-.68.93,3.44,3.44,0,0,0-.68.93,3.38,3.38,0,0,0-.67.93,227.25,227.25,0,0,1-1.36,1.87,3.28,3.28,0,0,0-.68.93,3.23,3.23,0,0,0-.67.93c-.23.23-.23.47-.46.7A163.17,163.17,0,0,1,659,605.3c-.23.24-.45.7-.68.94s-.45.69-.68.93a1.83,1.83,0,0,0-.45.93,1.24,1.24,0,0,0-.45.93,1.83,1.83,0,0,0-.45.93c-.23.24-.23.47-.45.7s-.23.47-.45.93a1.78,1.78,0,0,0-.45.94c-.23.23-.23.69-.46.93s-.22.7-.45.93l-.45.93c-.23.23-.23.7-.45.93s-.23.7-.45.93-.23.7-.45.94a.8.8,0,0,1-.23.46,1.79,1.79,0,0,1-.45.93c-.23.24-.23.7-.45.94a1.81,1.81,0,0,1-.46.93c-.22.23-.22.7-.45.93s-.22.7-.45.93-.22.7-.45.93-.23.7-.45.94c0,.23,0,.23-.23.46a1.75,1.75,0,0,1-.45.93c0,.24-.22.7-.22.93s-.23.7-.23.94-.23.7-.23.93-.22.7-.22.93-.23.7-.23.93-.22.7-.22.93,0,.24-.23.47c0,.47-.23.7-.23.93s-.22.7-.22.93-.23.7-.23.94-.22.69-.22.93a1.41,1.41,0,0,1-.23.93,1.46,1.46,0,0,1-.22.93,1.41,1.41,0,0,1-.23.93v.47a1.41,1.41,0,0,1-.23.93l-.22,1.17a2.12,2.12,0,0,1-.23,1.16v17.7a4.64,4.64,0,0,0,.23,1.64,4.81,4.81,0,0,0,.22,1.63,4.62,4.62,0,0,0,.23,1.63c0,.46.23.93.23,1.63,0,.46.22.93.22,1.63v.7a3,3,0,0,0,.23,1.39v.47a2.22,2.22,0,0,0,.22,1.17.84.84,0,0,0,.23.69,1.49,1.49,0,0,0,.22.94c0,.23.23.46.23.93v.7c0,.46.23.7.23,1.16v.47c0,.46.22.93.22,1.4v.23a4.59,4.59,0,0,0,.45,1.63c0,.23,0,.47.23.47.23.46.23,1.16.45,1.63s.23,1.16.45,1.63.23,1.16.45,1.63a4.31,4.31,0,0,1,.46,1.63,4.48,4.48,0,0,1,.45,1.63,4.48,4.48,0,0,1,.45,1.63,4.53,4.53,0,0,1,.45,1.63c0,.23.23.47.23.7a4.48,4.48,0,0,1,.45,1.63c.22.47.45,1.16.68,1.63s.45,1.17.67,1.63.45,1.17.68,1.63.45,1.17.68,1.63.45,1.17.68,1.63.45,1.17.67,1.63.45,1.17.68,1.63.45,1.17.68,1.64l.45.93a27.72,27.72,0,0,1,2.93,8.62,29.81,29.81,0,0,1-22.8,34.94c-13.78,2.8-27.1-5.12-32.29-18.17-.23-.7-.68-1.4-.91-2.1s-.67-1.39-.9-2.09-.68-1.4-.9-2.1a8.31,8.31,0,0,0-.91-2.1c-.22-.7-.45-1.39-.67-2.09a8.31,8.31,0,0,0-.91-2.1c-.22-.7-.45-1.4-.67-2.1-.46-.93-.68-1.86-1.13-3-.23-.7-.45-1.4-.68-2.1s-.45-1.4-.68-2.1-.45-1.4-.68-2.09-.45-1.4-.67-2.1-.45-1.4-.68-2.1a6579.06,6579.06,0,0,1-1.35-6.29c-.23-.93-.46-1.86-.68-3h0c-.23-.46-.23-1.16-.45-1.63v-.46c-.23-.47-.23-.93-.46-1.4v-.47c0-.46-.22-.7-.22-1.16v-.7c0-.47-.23-.7-.23-.93,0-.47,0-.7-.22-.93,0-.24-.23-.47-.23-.7a1.85,1.85,0,0,0-.22-1.17c0-.23,0-.46-.23-.46,0-.47-.23-.94-.23-1.4v-.47c0-.46-.22-1.16-.22-1.63h0c-.23-.93-.23-2.09-.45-3,0-.7-.23-1.39-.23-2.09s-.23-1.4-.23-2.1-.22-1.4-.22-2.1-.23-1.39-.23-2.09a6.83,6.83,0,0,0-.22-2.1,6.55,6.55,0,0,0-.23-2.1c0-1.16-.22-2.09-.22-3.26V653.06a14.06,14.06,0,0,1,.22-3v-4.19a3,3,0,0,1,.23-1.4,3.12,3.12,0,0,1,.22-1.4,3,3,0,0,1,.23-1.4,3.08,3.08,0,0,1,.22-1.39c0-.47.23-.93.23-1.4a10.48,10.48,0,0,1,.23-1.17,11.77,11.77,0,0,1,.45-2.79,10.9,10.9,0,0,1,.22-1.17,10.22,10.22,0,0,1,.23-1.16c0-.47.23-.93.23-1.4A10.63,10.63,0,0,1,591,630a10.48,10.48,0,0,1,.23-1.17,10.63,10.63,0,0,1,.22-1.16,10.48,10.48,0,0,1,.23-1.17,10.63,10.63,0,0,1,.22-1.16c.23-.93.46-1.87.68-2.8a1.83,1.83,0,0,1,.45-1.16,10.48,10.48,0,0,1,.23-1.17,1.83,1.83,0,0,1,.45-1.16,1.86,1.86,0,0,1,.45-1.17,1.83,1.83,0,0,1,.45-1.16c.23-.47.23-.7.46-1.17s.22-.7.45-1.16a1.81,1.81,0,0,1,.45-1.17c.22-.93.68-1.86.9-2.56.23-.46.23-.7.45-1.16s.23-.7.46-1.17.22-.7.45-1.16.22-.7.45-1.17.22-.7.45-1.16.23-.7.45-1.17a2.44,2.44,0,0,0,.45-1.16c.23-.47.46-.7.46-1.17a12.38,12.38,0,0,1,1.12-2.56c.23-.47.46-.7.46-1.16.22-.47.45-.7.45-1.17.22-.47.45-.7.67-1.16s.46-.7.68-1.17.45-.7.68-1.16.45-.7.68-1.17.45-.7.67-1.16.46-.7.68-1.17c.45-.7.91-1.63,1.36-2.33.22-.46.45-.7.67-1.16a4.88,4.88,0,0,0,.68-1.17c.23-.46.45-.7.68-1.16s.45-.7.68-1.17.45-.7.67-1.16.46-.7.68-1.17.45-.7.68-1.16.45-.7.68-1.17.45-.69.67-1.16a13.73,13.73,0,0,1,1.58-2.1,4.79,4.79,0,0,0,.68-1.16c.23-.24.45-.7.68-.93s.45-.7.9-.94c.23-.23.45-.69.91-.93.22-.23.45-.7.9-.93.22-.23.45-.7.9-.93a1.76,1.76,0,0,1,.91-.93,3.4,3.4,0,0,1,.9-.94,3.52,3.52,0,0,1,.9-.93,7,7,0,0,1,1.81-1.86l.9-.93.9-.93.91-.94.9-.93.9-.93.91-.93.9-.93c.23-.24.68-.7.9-.94l.91-.93.9-.93,1.81-1.86c.45-.24.67-.7.9-.93a3.4,3.4,0,0,0,.9-.94c.46-.23.68-.7,1.13-.93a25502471728170.46,25502471728170.46,0,0,1,2.26-1.86c.45-.23.68-.7,1.13-.93a4.08,4.08,0,0,0,1.13-.94c.22-.23.68-.46,1.13-.93a3.86,3.86,0,0,0,1.13-.93,4,4,0,0,0,1.13-.93c.22-.23.67-.47,1.13-.93a4.18,4.18,0,0,0,1.12-.93c.68-.47,1.36-1.17,2-1.64a4,4,0,0,0,1.13-.93c.45-.46.67-.46,1.12-.93s.68-.46,1.13-.93a3.9,3.9,0,0,0,1.13-.93,2.91,2.91,0,0,1,1.13-.7,4,4,0,0,0,1.13-.93c.45-.24.68-.47,1.13-.7a5.44,5.44,0,0,0,1.13-.7c.45-.23.68-.47,1.13-.7a5,5,0,0,0,1.13-.7c.45-.23.67-.46,1.13-.7a4.71,4.71,0,0,0,1.13-.7,4.43,4.43,0,0,0,1.12-.7,20.32,20.32,0,0,1,2.26-1.39,5.18,5.18,0,0,0,1.13-.7l1.36-.7,1.35-.7,1.36-.7,1.35-.7,1.36-.7,1.35-.7,1.36-.69,1.35-.7,1.36-.7,1.35-.7L684,520l1.36-.7,1.35-.7,1.36-.7,1.35-.7c.68-.46,1.58-.69,2.26-1.16l1.36-.7,1.35-.7,1.36-.7,1.35-.7,1.36-.69,1.35-.7,1.36-.7,1.35-.7a10.61,10.61,0,0,1,1.58-.7l1.36-.7a46321829450009.42,46321829450009.42,0,0,1,3.16-1.4,11.76,11.76,0,0,1,1.58-.7,10.69,10.69,0,0,1,1.58-.69c.45-.24,1.13-.47,1.58-.7s1.13-.47,1.58-.7a3.11,3.11,0,0,1,1.58-.47,4.13,4.13,0,0,1,1.58-.46c.68-.24,1.58-.7,2.26-.94a282.77,282.77,0,0,0,3.16-.93,4.13,4.13,0,0,1,1.58-.46,4,4,0,0,1,1.58-.47,282.77,282.77,0,0,1,3.16-.93,219.85,219.85,0,0,1,3.17-.93,3.93,3.93,0,0,1,1.58-.47,849.27,849.27,0,0,0,4.74-1.4c.45-.23,1.13-.23,1.58-.46a4,4,0,0,1,1.58-.47,4.13,4.13,0,0,1,1.58-.46c.45-.24,1.13-.24,1.58-.47a4.15,4.15,0,0,1,1.58-.47,4.19,4.19,0,0,1,1.81-.46,17.56,17.56,0,0,1,1.8-.47c.46-.23,1.13-.23,1.81-.46a17.15,17.15,0,0,1,1.81-.47c.45-.23,1.13-.23,1.8-.47.46-.23,1.13-.23,1.81-.46a7.93,7.93,0,0,1,2.26-.47h0c.45-.23,1.13-.23,1.58-.46h0c.45-.24,1.13-.24,1.58-.47h.23c.45-.23,1.12-.23,1.58-.47h.22a14.55,14.55,0,0,1,1.58-.46h.23c.45-.23.9-.23,1.35-.47h.46c.45,0,.9-.23,1.35-.23H771c.45,0,.9-.23,1.36-.23h.45a9.55,9.55,0,0,0,1.13-.24h.45a9.91,9.91,0,0,0,1.13-.23h.68c.45,0,.67-.23,1.12-.23H778c.45,0,.68-.24,1.13-.24a.83.83,0,0,0,.68-.23c.45,0,.68-.23,1.13-.23h.9c.23,0,.68-.23.9-.23a1.31,1.31,0,0,0,.91-.24c.22,0,.67-.23.9-.23a1.32,1.32,0,0,0,.9-.23c.23,0,.45-.24.91-.24l1.13-.23c.22,0,.45-.23.67-.23a2,2,0,0,0,1.13-.23c.23,0,.45-.24.68-.24a2,2,0,0,0,1.13-.23c.22,0,.45-.23.68-.23a2,2,0,0,0,1.13-.24.81.81,0,0,0,.67-.23c.45,0,.91-.23,1.36-.23.22,0,.45,0,.45-.24.45,0,.9-.23,1.35-.23h.46c.45,0,.9-.23,1.35-.23H799c.45,0,.91-.23,1.58-.23H801c.46,0,1.13-.24,1.58-.24h.23c.45,0,1.13-.23,1.58-.23h.23c.45,0,1.13-.23,1.58-.23h.22c.68,0,1.13-.24,1.81-.24h.23c.67,0,1.13-.23,1.8-.23h0c.68,0,1.13-.23,1.81-.23a8,8,0,0,1,2.26-.24,6.1,6.1,0,0,1,2-.23c.68,0,1.35-.23,2-.23s1.36-.23,2-.23,1.36-.24,2-.24,1.35-.23,2-.23a6.13,6.13,0,0,1,2-.23c.68,0,1.36-.24,2-.24s1.36-.23,2-.23,1.35-.23,2-.23,1.35-.23,2-.23,1.35-.24,2-.24,1.36-.23,2-.23,1.36-.23,2-.23,1.35-.24,2-.24,1.35-.23,2-.23,1.36-.23,2-.23,1.36-.24,2-.24,1.35-.23,2-.23c0-1.4.68-1.4,1.35-1.4"/><path class="cls-4" d="M893.8,517.71h-1.13a6.16,6.16,0,0,0-2,.23,5.89,5.89,0,0,0-2,.24,6.1,6.1,0,0,0-2,.23,6.19,6.19,0,0,0-2,.23c-.67,0-1.35.24-2,.24s-1.35.23-2,.23-1.36.23-2,.23-1.36.23-2,.23-1.36.24-2,.24-1.35.23-2,.23-1.35.23-2,.23-1.36.24-2,.24-1.13.23-1.81.23V476h.23c.67,0,1.35-.23,2-.23s1.35-.23,2-.23,1.35-.24,2.26-.24h21c-.23,13.05-.23,27.72-.23,42.4"/><path class="cls-4" d="M1007.16,476.94c0,13.75,0,27.49-.23,41.24h-.9a7.26,7.26,0,0,1-2.26-.24,9.07,9.07,0,0,1-2.48-.23,7.56,7.56,0,0,1-2.26-.23,6.6,6.6,0,0,1-2.26-.24H978.48V475.31a7.26,7.26,0,0,1,2.26.24,60914661724697.78,60914661724697.78,0,0,1,4.52.46,9.07,9.07,0,0,1,2.48.23,8.71,8.71,0,0,1,2.48.24,6757.82,6757.82,0,0,1,5,.46,8.81,8.81,0,0,1,2.49.24,160564058100169.2,160564058100169.2,0,0,0,5,.46,9.14,9.14,0,0,1,2.49.23,8.71,8.71,0,0,1,2.48.24c-.9-1.17-.68-1.17-.45-1.17"/><path class="cls-4" d="M1086.87,523.07c11.06-6.06,22.13-12.35,33-18.64v26.33a7.93,7.93,0,0,1-2.26-.47,7.65,7.65,0,0,1-2.48-.47,8,8,0,0,1-2.49-.46,7.71,7.71,0,0,1-2.48-.47,547.74,547.74,0,0,1-5-.93,799.92,799.92,0,0,1-5-.93,7.71,7.71,0,0,1-2.48-.47,547.74,547.74,0,0,1-5-.93c-.9,0-1.81-.23-2.48-.23a7.72,7.72,0,0,1-2.49-.47c-.9,0-1.8-.23-2.48-.23h-.9a16.06,16.06,0,0,1,2.48-1.63"/><path class="cls-4" d="M1218.74,550.56c-.22,0-.45-.23-.9-.23a7.93,7.93,0,0,1-2.26-.47c-.9-.23-1.58-.23-2.26-.47-.9-.23-1.58-.23-2.25-.46a543.54,543.54,0,0,0-4.52-.93c-.68-.24-1.58-.24-2.26-.47-.9-.23-1.58-.23-2.26-.47-.9-.23-1.8-.23-2.48-.46a12.3,12.3,0,0,1-2.71-.7,10.71,10.71,0,0,1-2.71-.47,11.15,11.15,0,0,1-2.71-.46,9.55,9.55,0,0,1-1.13-.24v-38c.23,0,.45.23.9.23l2.71.7,2.71.7a12.16,12.16,0,0,1,2.71.7l2.71.7a11.16,11.16,0,0,1,2.71.7l2.71.7c.91.23,1.81.46,2.49.7a9.62,9.62,0,0,1,2.48.7c.9.23,1.58.23,2.48.46s1.59.47,2.49.7a16.9,16.9,0,0,1,1.8.47c-.45,11.41-.45,24-.45,36.34"/><path class="cls-4" d="M1428.52,583.64v33.54c-.45-.23-.9-.23-1.13-.46a8,8,0,0,1-2-.93,8.17,8.17,0,0,1-2-.93,8.08,8.08,0,0,1-2-.94,7.79,7.79,0,0,1-2-.93l-2-.7a7.65,7.65,0,0,1-2-.93,7.83,7.83,0,0,1-2-.93,8,8,0,0,1-2-.93l-2-.7a8,8,0,0,1-2-.93l-2-.7-2-.7a8.14,8.14,0,0,1-2-.93h-.45V591.33c-23.26-12.82-46.52-25.4-70-38.21,0,9.32.22,18.4.22,27.72v.24a12,12,0,0,0-1.58-.47c-.67-.23-1.58-.47-2.25-.7s-1.58-.46-2.26-.7-1.58-.46-2.26-.7-1.58-.46-2.26-.7-1.58-.46-2.26-.69-1.58-.47-2.25-.7-1.59-.47-2.26-.7-1.58-.47-2.26-.7-1.58-.47-2.26-.7-1.58-.47-2.26-.7-1.58-.46-2.25-.7-1.59-.46-2.26-.7-1.58-.46-2.26-.7-1.58-.46-2.26-.69c-.9-.24-1.58-.47-2.26-.7s-1.58-.47-2.26-.7-1.58-.47-2.25-.7a3,3,0,0,1-1.36-.47V531.92a5.44,5.44,0,0,1,1.58.47c.68.23,1.58.46,2.26.7.9.23,1.58.46,2.26.7.9.23,1.58.46,2.26.69s1.58.47,2.25.7,1.59.47,2.26.7c.91.23,1.58.47,2.26.7s1.58.47,2.26.7,1.58.47,2.26.7c.9.23,1.58.46,2.26.7s1.58.46,2.25.7c.91.23,1.58.46,2.26.7s1.58.46,2.26.69c.9.24,1.58.47,2.26.7s1.58.47,2.26.7,1.58.47,2.25.7c.91.23,1.58.47,2.26.7s1.58.47,2.26.7,1.58.46,2.26.7,1.58.46,2.26.7,1.58.46,2.25.7c.91.23,1.58.46,2.26.69s1.58.47,2.26.7,1.58.47,2.26.7,1.58.47,2.26.7,1.58.47,2.25.7,1.59.47,2.26.7,1.58.46,2.26.7,1.58.46,2.26.7,1.58.46,2.26.7,1.58.46,2.26.69,1.58.47,2.25.7,1.58.47,2.26.7a647.36,647.36,0,0,1,4.52,1.87c.68.23,1.58.46,2.26.69s1.58.47,2.25.7a9.82,9.82,0,0,1,2.26.93,9.44,9.44,0,0,1,2.26.94c.68.23,1.58.46,2.26.7a1560.57,1560.57,0,0,1,4.51,1.86,9.23,9.23,0,0,1,2.26.93,15.34,15.34,0,0,1,2.26.93,9.82,9.82,0,0,1,2.26.93,9.44,9.44,0,0,1,2.26.94,1560.57,1560.57,0,0,0,4.51,1.86,9.39,9.39,0,0,1,2.26.93,8.17,8.17,0,0,1,2,.93,9.44,9.44,0,0,1,2.26.94,14.31,14.31,0,0,1,2.26.93,5.34,5.34,0,0,1,2,.93,15.34,15.34,0,0,1,2.26.93,8,8,0,0,1,2,.93,5.67,5.67,0,0,1,2,.93,15.52,15.52,0,0,1,2.26.94,7.51,7.51,0,0,1,2,.93,7.71,7.71,0,0,1,2,.93,8.14,8.14,0,0,1,2,.93,8.34,8.34,0,0,1,2,.93,7.87,7.87,0,0,1,2,.94,7.71,7.71,0,0,1,2,.93c-.68,1.63-.46,1.63-.23,1.63"/><path class="cls-4" d="M1531,664.71a13.08,13.08,0,0,1-1.81-.93,12.86,12.86,0,0,1-1.8-.94,12.06,12.06,0,0,1-1.81-.93,13.08,13.08,0,0,1-1.81-.93,12.91,12.91,0,0,1-1.8-.93,4.51,4.51,0,0,1-1.81-.93,4.64,4.64,0,0,1-1.81-.93,4.55,4.55,0,0,1-1.8-.94,4.39,4.39,0,0,1-1.81-.93,4.45,4.45,0,0,1-1.81-.93h0V641a8.81,8.81,0,0,1,12.87-7.92l17.62,9.78-.23,28c-.22,0-.22-.24-.45-.24a13.68,13.68,0,0,1-1.81-.93c-.67-.23-1.13-.7-1.8-.93s-1.13-.7-1.81-.93a15,15,0,0,1-1.81-.93,13.45,13.45,0,0,1-1.8-.94c-1.36-.46-2-.93-2.71-1.16"/><path class="cls-4" d="M1811.72,941v8.15a4,4,0,0,1-.23,1.63,4.15,4.15,0,0,1-.22,1.63A4,4,0,0,1,1811,954a4.23,4.23,0,0,1-.22,1.64,4,4,0,0,1-.23,1.63,4.2,4.2,0,0,1-.22,1.63,4,4,0,0,1-.23,1.63c0,.46-.23.93-.23,1.63,0,.46-.22,1.16-.22,1.63s-.23,1.16-.23,1.63a4.29,4.29,0,0,1-.45,1.63,6.25,6.25,0,0,1-.45,1.63,4.48,4.48,0,0,1-.45,1.63,3.48,3.48,0,0,1-.45,1.4,227.86,227.86,0,0,0-.91,2.8,3.29,3.29,0,0,1-.45,1.39,3.43,3.43,0,0,1-.45,1.4c-.23.47-.23.93-.45,1.4s-.23.93-.45,1.4-.23.93-.46,1.39a3.29,3.29,0,0,1-.45,1.4c-.22.47-.22.93-.45,1.4s-.45.93-.68,1.4-.45.93-.67,1.4-.23.93-.68,1.39c-.23.47-.45.94-.68,1.4s-.45.93-.68,1.4-.45.93-.67,1.4-.46.93-.68,1.39-.45.94-.68,1.4-.45.93-.68,1.4-.45.93-.67,1.4-.45.93-.68,1.4-.45.93-.68,1.39a4.67,4.67,0,0,1-.9,1.4,5,5,0,0,1-.9,1.4,5.21,5.21,0,0,1-.91,1.4,4.76,4.76,0,0,1-.9,1.39,2.32,2.32,0,0,1-.9,1.17,5.06,5.06,0,0,1-.91,1.4,2.29,2.29,0,0,1-.9,1.16,155.1,155.1,0,0,1-1.81,2.33,2.31,2.31,0,0,1-.9,1.17,2.34,2.34,0,0,1-.9,1.16,5.17,5.17,0,0,1-.91,1.17,4.82,4.82,0,0,1-.9,1.16,5.46,5.46,0,0,1-.9,1.17,2.81,2.81,0,0,1-1.13,1.16,5.17,5.17,0,0,1-.91,1.17c-.22.46-.67.69-1.13,1.16-.22.47-.67.7-1.12,1.16a1138.36,1138.36,0,0,0-3.39,3.5,2.75,2.75,0,0,1-1.13,1.16c-.23.47-.68.7-1.13,1.17a2.81,2.81,0,0,1-1.13,1.16c-.22.47-.68.7-1.13,1.17-.22.46-.68.7-1.13,1.16l-1.13,1.17-1.13,1.16a7.05,7.05,0,0,1-1.35,1.17l-1.13,1.16a7.37,7.37,0,0,1-1.35,1.17,7.45,7.45,0,0,1-1.36,1.16,4.55,4.55,0,0,1-1.35.93c-.45.47-.91.7-1.36,1.17a4.75,4.75,0,0,1-1.35.93,477.29,477.29,0,0,0-2.71,1.86,4.83,4.83,0,0,1-1.36.94,5,5,0,0,1-1.35.93,4.79,4.79,0,0,1-1.36.93,1427.1,1427.1,0,0,0-4.06,2.79,4.7,4.7,0,0,1-1.36.94,10445604526633.34,10445604526633.34,0,0,1-3.16,1.86,3.52,3.52,0,0,1-1.58.93,3.52,3.52,0,0,1-1.58.93,3.63,3.63,0,0,1-1.58.94,3.71,3.71,0,0,1-1.58.93,3.61,3.61,0,0,1-1.58.93,3.52,3.52,0,0,1-1.58.93,3.58,3.58,0,0,1-1.58.93,3.69,3.69,0,0,1-1.58.94,3.77,3.77,0,0,1-1.58.93,3.73,3.73,0,0,1-1.58.93,5.72,5.72,0,0,1-1.59.93,3.52,3.52,0,0,1-1.58.93,5.32,5.32,0,0,1-1.58.93,2,2,0,0,1-1.58.7h0a2,2,0,0,1-1.58.7h0a2,2,0,0,1-1.58.7h0a2,2,0,0,1-1.58.7h-.23a2,2,0,0,1-1.58.7h-.22a2,2,0,0,1-1.58.7h-.23a3.33,3.33,0,0,1-1.58.7h-.22a3.4,3.4,0,0,1-1.59.69h-.22a2,2,0,0,1-1.58.7h-.23a2,2,0,0,1-1.58.7h-.22a10.51,10.51,0,0,1-1.58.7h-.46l-1.35.7h-.45l-1.36.7H1699l-1.35.7h-.46l-1.35.7h-.45l-1.36.7h-.45l-1.35.69h-.45l-1.36.7H1690l-1.36.7H1688l-1.36.7h-.68l-1.35.7h-.68a2.4,2.4,0,0,1-1.35.47h-.68a2.4,2.4,0,0,1-1.36.46h-.67a2.4,2.4,0,0,1-1.36.47h-.67c-.46.23-.68.46-1.13.46H1676c-.45.24-.68.47-1.13.47h-.68c-.45.23-.67.47-1.13.47h-.9c-.45.23-.68.46-1.13.46h-.9c-.45.23-.68.47-1.13.47h-.9c-.46.23-.68.46-1.13.46h-.91a1.64,1.64,0,0,1-1.13.47h-.9c-.45.23-.68.47-1.13.47h-.9c-.45.23-.68.46-1.13.46h-.9a1.73,1.73,0,0,1-1.13.47h-.91a1.68,1.68,0,0,1-1.13.46h-.9a1.66,1.66,0,0,1-1.13.47h-.9a1.73,1.73,0,0,1-1.13.47h-1.13a1.7,1.7,0,0,1-1.13.46h-1.13a1.69,1.69,0,0,1-1.13.47h-1.13a1.68,1.68,0,0,1-1.12.46h-1.13a1.68,1.68,0,0,1-1.13.47h-1.13a1.72,1.72,0,0,1-1.13.46h-1.13a1.68,1.68,0,0,1-1.13.47h-1.13a1.71,1.71,0,0,1-1.13.47h-1.13a1.68,1.68,0,0,1-1.12.46h-1.13a1.68,1.68,0,0,1-1.13.47h-1.13a1.72,1.72,0,0,1-1.13.46H1629a2,2,0,0,1-2.26.24,1.7,1.7,0,0,1-1.13.46h-1.13a1.64,1.64,0,0,1-1.13.47H1622a1.73,1.73,0,0,1-1.13.47,1.62,1.62,0,0,1-1.13-.24,1.66,1.66,0,0,1-1.13.47,2.8,2.8,0,0,1-1.35-.23,1.72,1.72,0,0,1-1.13.46,2.86,2.86,0,0,1-1.36-.23,1.66,1.66,0,0,1-.9.46,2.8,2.8,0,0,1-1.35-.23,1.73,1.73,0,0,1-1.13.47,2.73,2.73,0,0,1-1.36-.24,1.64,1.64,0,0,1-.9.47,2.86,2.86,0,0,1-1.36-.23,1.68,1.68,0,0,1-1.13.46,2.8,2.8,0,0,1-1.35-.23,1.75,1.75,0,0,1-.9.47,2.73,2.73,0,0,1-1.36-.24,1.64,1.64,0,0,1-.9.47,2.86,2.86,0,0,1-1.36-.23,1.68,1.68,0,0,1-1.13.46,2.8,2.8,0,0,1-1.35-.23,1.73,1.73,0,0,1-1.13.47,2.7,2.7,0,0,1-1.35-.24,1.67,1.67,0,0,1-.91.47,2.8,2.8,0,0,1-1.35-.23,1.72,1.72,0,0,1-.91.46c-.45,0-1.12,0-1.35-.23a1.73,1.73,0,0,1-.9.46c-.45,0-1.13,0-1.36-.23a1.71,1.71,0,0,1-.9.47c-.45,0-1.13,0-1.36-.24-.22.24-.67.47-.9.7a3.78,3.78,0,0,1-1.58-.23c-.23.23-.68.47-.9.7a3.75,3.75,0,0,1-1.58-.23c-.23.23-.68.46-.91.69a2.12,2.12,0,0,1-1.58-.46c-.22.23-.68.46-.9.7a2.09,2.09,0,0,1-1.58-.47c-.23.23-.68.47-.91.7a1.47,1.47,0,0,1-1.58-.47c-.22.24-.67.47-.9.7a2.12,2.12,0,0,1-1.58-.46,5.44,5.44,0,0,1-1.13.7,2.09,2.09,0,0,1-1.58-.47,5,5,0,0,1-1.13.7,1.37,1.37,0,0,1-1.58-.47,4.71,4.71,0,0,1-1.13.7,2.12,2.12,0,0,1-1.58-.46,1.26,1.26,0,0,1-1.13.7,1.47,1.47,0,0,1-1.58-.47c-.22.23-.68.7-1.13.7a1.85,1.85,0,0,1-1.58-.47,1.87,1.87,0,0,1-1.13.7,3.11,3.11,0,0,1-1.58-.47,1.23,1.23,0,0,1-1.13.7,3.24,3.24,0,0,1-1.58-.46,1.25,1.25,0,0,1-1.13.7,2.09,2.09,0,0,1-1.58-.47c-.22.23-.45.7-.9.7a1.68,1.68,0,0,1-1.13-.23c-.23.23-.45.23-.68.46a1.68,1.68,0,0,1-1.13-.23.81.81,0,0,1-.67.23c-.46,0-.91,0-1.13-.23-.23.23-.45.23-.68.47a1.62,1.62,0,0,1-1.13-.24c-.23.24-.45.24-.68.47a1.68,1.68,0,0,1-1.13-.23c-.22.23-.45.23-.67.46-.46,0-.91,0-1.13-.23-.23.23-.45.23-.68.46a1.68,1.68,0,0,1-1.13-.23c-.22.23-.45.23-.68.47a1.62,1.62,0,0,1-1.13-.24c-.22.24-.45.47-.67.47-.45,0-.91,0-1.13-.47-.23.24-.45.47-.68.47-.45,0-.9,0-1.13-.47-.22.24-.45.47-.68.47-.67.23-1.35-.23-1.58-1.16a1.33,1.33,0,0,1,1.13-1.64c.45,0,.91,0,1.13.47.23-.23.45-.47.68-.47a1.62,1.62,0,0,1,1.13.24c.22-.24.45-.47.68-.47.45,0,.9,0,1.12.23.23-.23.46-.46.68-.46a2,2,0,0,1,1.13.23c.23-.23.45-.46.68-.46a2,2,0,0,1,1.13.23c.22-.23.45-.47.67-.47a1.92,1.92,0,0,1,1.13.24c.23-.24.46-.24.68-.47a1.68,1.68,0,0,1,1.13.23c.23-.23.45-.23.68-.46a2,2,0,0,1,1.13.23c.22-.23.45-.23.67-.47a1.92,1.92,0,0,1,1.13.24c.23-.24.45-.24.68-.47a2,2,0,0,1,1.13.23c.23-.23.45-.23.68-.46.45,0,1.13,0,1.35.46a1.25,1.25,0,0,1,1.13-.69,4.13,4.13,0,0,1,1.58.46,1.26,1.26,0,0,1,1.13-.7,2.09,2.09,0,0,1,1.58.47,1.24,1.24,0,0,1,1.13-.7,2.09,2.09,0,0,1,1.58.47,1.24,1.24,0,0,1,1.13-.7,1.46,1.46,0,0,1,1.58.46c.23-.23.68-.7,1.13-.7a2.09,2.09,0,0,1,1.58.47c.23-.23.68-.7,1.13-.7a2.09,2.09,0,0,1,1.58.47,1.24,1.24,0,0,1,1.13-.7,2.12,2.12,0,0,1,1.58.46c.23-.23.68-.7,1.13-.7s1.13,0,1.35.47a5,5,0,0,1,1.13-.7c.45,0,1.13,0,1.36.47a4.52,4.52,0,0,1,1.13-.7c.45,0,1.13,0,1.35.47a4.71,4.71,0,0,1,1.13-.7c.45,0,1.13,0,1.36.23a4.73,4.73,0,0,1,1.12-.7,1.37,1.37,0,0,1,1.36.23,5.44,5.44,0,0,1,1.13-.7,2.7,2.7,0,0,1,1.35.24c.23-.24.68-.47.91-.7.45,0,1.13,0,1.35.23a5.44,5.44,0,0,1,1.13-.7c.45-.23.9,0,1.36.24a4.43,4.43,0,0,1,1.12-.7,2.82,2.82,0,0,1,1.36.23,4.83,4.83,0,0,1,1.13-.7,2.8,2.8,0,0,1,1.35.23,5.06,5.06,0,0,1,1.13-.69,2.84,2.84,0,0,1,1.36.23,4.62,4.62,0,0,1,1.13-.7c.45-.23.9,0,1.35.23a5.44,5.44,0,0,1,1.13-.7,2.7,2.7,0,0,1,1.35.24,4.71,4.71,0,0,1,1.13-.7,2.82,2.82,0,0,1,1.36.23,4.83,4.83,0,0,1,1.13-.7,2.8,2.8,0,0,1,1.35.23,5.06,5.06,0,0,1,1.13-.69,2.86,2.86,0,0,1,1.36.23,1.69,1.69,0,0,1,1.13-.47,2.7,2.7,0,0,1,1.35.24,4.71,4.71,0,0,1,1.13-.7,2.8,2.8,0,0,1,1.35.23,5,5,0,0,1,1.13-.7c.45,0,.91,0,1.13.23a5.06,5.06,0,0,1,1.13-.69,1.68,1.68,0,0,1,1.13.23,1.73,1.73,0,0,1,1.13-.47h1.13a1.7,1.7,0,0,1,1.13-.46h1.13a4.34,4.34,0,0,1,1.13-.7,2,2,0,0,1,1.12.23,1.73,1.73,0,0,1,1.13-.47h1.13a1.72,1.72,0,0,1,1.13-.46h1.13a1.73,1.73,0,0,1,1.13-.47h1.13a1.7,1.7,0,0,1,1.13-.46H1634a1.64,1.64,0,0,1,1.13-.47h1.12a1.73,1.73,0,0,1,1.13-.47h1.13c.45-.23.68-.46,1.13-.46h1.13a1.73,1.73,0,0,1,1.13-.47H1643a1.7,1.7,0,0,1,1.13-.46h1.13a1.64,1.64,0,0,1,1.13-.47h.9c.45-.23.68-.47,1.13-.47h.9c.45-.23.68-.46,1.13-.46h.9a1.73,1.73,0,0,1,1.13-.47h.91c.45-.23.67-.46,1.13-.7h.9c.45-.23.68-.46,1.13-.69h.9c.45-.24.68-.47,1.13-.7h.9c.46-.24.68-.47,1.13-.7h.91c.45-.24.67-.47,1.12-.7h.91c.45-.23.68-.47,1.13-.7h.67a7.69,7.69,0,0,1,1.36-.7h.68a7.88,7.88,0,0,1,1.35-.7h.68a8.28,8.28,0,0,1,1.35-.7h.68a8,8,0,0,1,1.36-.7h.67l1.36-.69h.68l1.35-.7h.68l1.35-.7h.68l1.35-.7h.68l1.36-.7h.45l1.35-.7h.46l1.35-.7h.45l1.36-.7h.45l1.35-.7h.45l1.36-.69h.45c.45-.24.9-.7,1.36-.7h.45a1.91,1.91,0,0,1,1.35-.7h.45a2,2,0,0,1,1.58-.7h.23a2,2,0,0,1,1.58-.7h.23a2,2,0,0,1,1.58-.7h.22a2.06,2.06,0,0,1,1.58-.7h.23a2,2,0,0,1,1.58-.7h.23a2,2,0,0,1,1.58-.69h.22a2,2,0,0,1,1.58-.7h.23a2,2,0,0,1,1.58-.7h0a3.52,3.52,0,0,1,1.58-.93h0a2,2,0,0,1,1.58-.7h0a2,2,0,0,1,1.58-.7,3.58,3.58,0,0,1,1.58-.93,3.69,3.69,0,0,1,1.58-.94,3.77,3.77,0,0,1,1.58-.93,3.73,3.73,0,0,1,1.58-.93,3.61,3.61,0,0,1,1.59-.93,31336813580403.88,31336813580403.88,0,0,0,3.16-1.86,1172.81,1172.81,0,0,1,4.74-2.8,3.52,3.52,0,0,1,1.58-.93,3.52,3.52,0,0,1,1.58-.93,4.7,4.7,0,0,1,1.36-.94,5,5,0,0,1,1.35-.93,477.29,477.29,0,0,1,2.71-1.86,4.55,4.55,0,0,1,1.35-.93,4.72,4.72,0,0,1,1.36-.93,4.8,4.8,0,0,1,1.35-.94,4.93,4.93,0,0,1,1.36-.93,477.29,477.29,0,0,1,2.71-1.86,2.84,2.84,0,0,1,1.35-.93,2.91,2.91,0,0,1,1.36-.94,2.11,2.11,0,0,1,1.35-.93,2.89,2.89,0,0,1,1.36-.93,2.79,2.79,0,0,1,1.35-.93,2.82,2.82,0,0,1,1.36-.93,2.24,2.24,0,0,1,1.13-.94,2.27,2.27,0,0,1,1.13-.93l1.12-1.16a2.26,2.26,0,0,1,1.13-.93l1.13-1.17,1.13-1.16c.23-.47.68-.7,1.13-1.17.23-.46.68-.7,1.13-1.16.23-.47.68-.7,1.13-1.17a2.27,2.27,0,0,1,1.13-.93c.22-.47.68-.7,1.13-1.16.22-.47.67-.7.9-1.17s.68-.7.9-1.16.68-.7.91-1.17.67-.7.9-1.16.68-.7.9-1.17.68-.7.91-1.16.67-.7.9-1.17a4.15,4.15,0,0,1,.9-1.16,4,4,0,0,1,.91-1.17,4,4,0,0,1,.9-1.16,2.37,2.37,0,0,1,.9-1.17,2.3,2.3,0,0,1,.91-1.16,4,4,0,0,1,.9-1.17,2.34,2.34,0,0,1,.9-1.16c.23-.47.45-.7.68-1.17s.45-.69.68-1.16.45-.7.68-1.17.45-.69.67-1.16.45-.7.68-1.17.45-.69.68-1.16a4.94,4.94,0,0,1,.67-1.16,5.4,5.4,0,0,1,.68-1.17,4.92,4.92,0,0,1,.68-1.16,5,5,0,0,1,.68-1.17,4.94,4.94,0,0,1,.67-1.16,5.4,5.4,0,0,1,.68-1.17,5.14,5.14,0,0,1,.68-1.16,4.69,4.69,0,0,1,.68-1.17c.22-.46.22-.93.45-1.16.22-.47.22-.94.45-1.17.23-.46.23-.93.45-1.16.23-.47.23-.93.45-1.17a1.83,1.83,0,0,1,.45-1.16,1.81,1.81,0,0,1,.46-1.17,1.78,1.78,0,0,1,.45-1.16,3.33,3.33,0,0,1,.45-1.4,3.48,3.48,0,0,1,.45-1.4,3.53,3.53,0,0,1,.45-1.4,3.43,3.43,0,0,1,.45-1.39,227.86,227.86,0,0,0,.91-2.8,3.37,3.37,0,0,1,.45-1.4c0-.46.23-.93.23-1.39s.22-.94.22-1.4.23-.93.23-1.4.22-.93.22-1.4.23-.93.23-1.4.22-.93.22-1.39.23-.93.23-1.4a3,3,0,0,1,.23-1.4,3.14,3.14,0,0,1,.22-1.4,3,3,0,0,1,.23-1.39,3.1,3.1,0,0,1,.22-1.4,3,3,0,0,1,.23-1.4v-1.4a3.14,3.14,0,0,1,.22-1.4v-17.7h0v-.93h0v-.93h0v-7.46c0-.23-.22-.23-.22-.46V921c0-.24-.23-.24-.23-.47V920c0-.23-.22-.23-.22-.46v-.47a.8.8,0,0,0-.23-.46v-.47a.86.86,0,0,0-.22-.47v-.46c0-.23-.23-.47-.23-.7v-.47c0-.23-.23-.46-.23-.69v-.47c0-.23-.22-.47-.22-.7V914c0-.24-.23-.47-.23-.7v-.23c0-.24-.22-.47-.22-.7v-.24c0-.23-.23-.46-.23-.93V911c0-.23-.22-.47-.22-.93v-.24c0-.23-.23-.69-.23-.93v-.23c0-.23-.23-.7-.23-.93h0a2.22,2.22,0,0,1-.22-1.17h0c0-.23-.23-.46-.23-.7a2.17,2.17,0,0,1-.22-1.16,1.77,1.77,0,0,1-.23-1.17,2.17,2.17,0,0,1-.22-1.16,2.14,2.14,0,0,1-.23-1.17c-.23-.23-.23-.69-.45-1.16s-.23-.7-.45-1.16-.23-.7-.46-1.17c-.22-.23-.22-.7-.45-1.16-.22-.24-.22-.7-.45-1.17-.22-.23-.22-.7-.45-1.16s-.23-.7-.45-1.17-.23-.7-.45-1.16c-.23-.24-.23-.7-.46-1.17s-.22-.7-.45-1.16c-.22-.24-.22-.7-.45-1.17a1.83,1.83,0,0,1-.45-1.16,2.47,2.47,0,0,1-.45-1.17,1.78,1.78,0,0,1-.45-1.16c-.23-.47-.46-.7-.46-1.17a1.83,1.83,0,0,1-.45-1.16c-.22-.47-.45-.7-.45-1.17a1.83,1.83,0,0,1-.45-1.16,2.47,2.47,0,0,1-.45-1.17,1.78,1.78,0,0,1-.45-1.16c-.23-.47-.46-.7-.46-1.17-.22-.46-.45-.69-.45-1.16-.22-.47-.45-.7-.45-1.17-.22-.46-.45-.69-.45-1.16a1.79,1.79,0,0,1-.45-1.17,2.4,2.4,0,0,1-.45-1.16c-.23-.23-.23-.47-.46-.7a5.16,5.16,0,0,1-.67-1.16,1.81,1.81,0,0,1-.45-1.17,4.79,4.79,0,0,1-.68-1.16,5.24,5.24,0,0,1-.68-1.17,5.55,5.55,0,0,1-.68-1.16c-.22-.47-.45-.7-.67-1.17a4.79,4.79,0,0,1-.68-1.16,5.24,5.24,0,0,1-.68-1.17,5.55,5.55,0,0,1-.68-1.16,5.26,5.26,0,0,1-.67-1.17,4.79,4.79,0,0,1-.68-1.16,5,5,0,0,1-.68-1.17c-.22-.46-.45-.7-.68-1.16a5,5,0,0,1-.67-1.17c-.23-.46-.45-.69-.68-1.16a5,5,0,0,1-.68-1.17c-.22-.46-.45-.69-.68-1.16a5,5,0,0,1-.67-1.17,4.92,4.92,0,0,1-.68-1.16c-.23-.47-.45-.7-.68-1.16a5.26,5.26,0,0,1-.67-1.17c-.23-.47-.46-.7-.68-1.16a5.24,5.24,0,0,1-.68-1.17c-.23-.47-.45-.7-.68-1.16a5.26,5.26,0,0,1-.67-1.17c-.23-.46-.46-.7-.68-1.16s-.45-.7-.68-1.17c-.23-.23-.45-.7-.9-1.16-.23-.47-.45-.7-.68-1.17-.23-.23-.45-.7-.9-1.16a4,4,0,0,0-.91-1.17c-.22-.23-.45-.7-.9-1.16-.23-.47-.68-.7-.9-1.17s-.68-.7-.91-1.16a5.46,5.46,0,0,1-.9-1.17c-.23-.46-.68-.7-.9-1.16a5,5,0,0,1-.91-1.17c-.22-.46-.67-.7-.9-1.16a4.7,4.7,0,0,1-.9-1.17l-.68-.69a4.89,4.89,0,0,1-.9-1.17c-.23-.47-.68-.7-.91-1.16a5.46,5.46,0,0,1-.9-1.17,4.82,4.82,0,0,1-.9-1.16,465.66,465.66,0,0,1-2.71-3.5,4,4,0,0,1-.91-1.16,5.46,5.46,0,0,1-.9-1.17,2.29,2.29,0,0,1-.9-1.16,2.38,2.38,0,0,1-.91-1.17,2.34,2.34,0,0,1-.9-1.16,4,4,0,0,1-.9-1.17,2.36,2.36,0,0,1-.91-1.16,4.18,4.18,0,0,1-.9-1.17,2.29,2.29,0,0,1-.9-1.16c-.45-.23-.68-.7-1.13-1.17a2.36,2.36,0,0,1-.91-1.16c-.45-.23-.67-.7-1.12-1.17a4,4,0,0,1-.91-1.16c-.45-.23-.68-.7-1.13-1.17-.45-.23-.67-.69-1.13-1.16-.45-.23-.67-.7-1.12-1.17s-.68-.69-1.13-1.16c-.46-.23-.68-.7-1.13-1.16l-1.13-1.17-1.13-1.16c-.45-.24-.68-.7-1.13-1.17-.45-.23-.68-.7-1.13-1.16-.45-.24-.68-.7-1.13-1.17l-1.13-1.16c-.45-.24-.67-.7-1.13-1.17-.45-.23-.67-.7-1.13-1.16a2.75,2.75,0,0,1-1.12-1.17c-.46-.46-.91-.7-1.13-1.16-.46-.47-.91-.7-1.13-1.17l-1.13-1.16-1.13-1.17c-.45-.23-.68-.7-1.13-1.16a378.33,378.33,0,0,0-2.26-2.33,2.77,2.77,0,0,1-1.13-1.17A2.81,2.81,0,0,1,1709,774a2.7,2.7,0,0,1-1.12-1.17,378.33,378.33,0,0,1-2.26-2.33,2.69,2.69,0,0,1-1.13-1.16c-.45-.47-.91-.7-1.36-1.17A2.75,2.75,0,0,1,1702,767c-.45-.47-.9-.7-1.13-1.16a6.13,6.13,0,0,1-1.35-1.17,2.81,2.81,0,0,1-1.13-1.16,6.13,6.13,0,0,1-1.35-1.17c-.46-.47-.91-.7-1.36-1.16a226.44,226.44,0,0,0-2.71-2.33,1.8,1.8,0,0,1-.9-.94,6.05,6.05,0,0,1-1.36-1.16,5.87,5.87,0,0,1-1.35-1.17,489.23,489.23,0,0,1-2.71-2.32,6.4,6.4,0,0,1-1.36-1.17,6.06,6.06,0,0,1-1.35-1.16,6.4,6.4,0,0,1-1.36-1.17,6.06,6.06,0,0,1-1.35-1.16,6.13,6.13,0,0,1-1.35-1.17,5.88,5.88,0,0,1-1.36-1.16,6.13,6.13,0,0,1-1.35-1.17,5.88,5.88,0,0,1-1.36-1.16,6.13,6.13,0,0,1-1.35-1.17,5.88,5.88,0,0,1-1.36-1.16,6.13,6.13,0,0,1-1.35-1.17,5.88,5.88,0,0,1-1.36-1.16,226.44,226.44,0,0,0-2.71-2.33,5.87,5.87,0,0,1-1.35-1.17,6.1,6.1,0,0,1-1.36-1.16,5.87,5.87,0,0,1-1.35-1.17,6.1,6.1,0,0,1-1.36-1.16,226.44,226.44,0,0,0-2.71-2.33,5.87,5.87,0,0,1-1.35-1.17,6.05,6.05,0,0,1-1.36-1.16,5.87,5.87,0,0,1-1.35-1.17c-.45-.23-.9-.69-1.58-1.16a6.1,6.1,0,0,1-1.36-1.16c-.45-.24-1.13-.7-1.58-.94s-.9-.7-1.58-1.16a5.87,5.87,0,0,1-1.35-1.17c-.45-.23-.91-.7-1.58-1.16a18.72,18.72,0,0,1-1.58-1.17,6.44,6.44,0,0,1-1.58-1.16c-.46-.23-.91-.7-1.59-1.17a4.55,4.55,0,0,1-1.35-.93,8,8,0,0,1-1.81-1.16,6.7,6.7,0,0,1-1.58-1.17c-.45-.23-1.13-.7-1.58-.93a6.92,6.92,0,0,1-1.58-1.16c-.45-.24-1.13-.7-1.58-.94a6.64,6.64,0,0,1-1.58-1.16,6.92,6.92,0,0,1-1.58-1.16c-.45-.24-.68-.47-1.13-.7V676.82a.23.23,0,0,1,.23.24,7.15,7.15,0,0,1,1.58,1.16,478.79,478.79,0,0,0,3.16,2.33,6.7,6.7,0,0,1,1.58,1.17,6.92,6.92,0,0,1,1.58,1.16,6.7,6.7,0,0,1,1.58,1.17c.45.46,1.13.7,1.58,1.16a478.79,478.79,0,0,0,3.16,2.33,478.79,478.79,0,0,0,3.16,2.33,478.79,478.79,0,0,0,3.16,2.33c.46.47,1.13.7,1.59,1.16a7.21,7.21,0,0,1,1.58,1.17,6.92,6.92,0,0,1,1.58,1.16c.45.24.9.7,1.35.94a10,10,0,0,0,1.58,1.16,6.7,6.7,0,0,1,1.58,1.17,10.46,10.46,0,0,0,1.58,1.16,6.5,6.5,0,0,1,1.58,1.17,10.59,10.59,0,0,0,1.59,1.16c.45.23.9.7,1.58,1.16.45.24.9.7,1.58,1.17a8.87,8.87,0,0,0,1.58,1.16c.45.47.9.7,1.35,1.17.45.23.91.7,1.58,1.16a6.16,6.16,0,0,1,1.36,1.17,6.06,6.06,0,0,1,1.35,1.16,6.16,6.16,0,0,1,1.36,1.17,6.06,6.06,0,0,1,1.35,1.16,6.16,6.16,0,0,1,1.36,1.17,6.06,6.06,0,0,1,1.35,1.16,6.4,6.4,0,0,1,1.36,1.17,6.06,6.06,0,0,1,1.35,1.16,6.4,6.4,0,0,1,1.36,1.17,6.06,6.06,0,0,1,1.35,1.16,6.4,6.4,0,0,1,1.36,1.17c.45.46.9.7,1.35,1.16a3003.23,3003.23,0,0,0,2.71,2.33,9.73,9.73,0,0,1,1.58,1.4c.45.46.9.7,1.36,1.16a6.13,6.13,0,0,1,1.35,1.17,6.33,6.33,0,0,1,1.36,1.16c.45.47.9.7,1.35,1.17s.9.7,1.35,1.16A5.94,5.94,0,0,1,1699,733a6.06,6.06,0,0,1,1.35,1.16,5.94,5.94,0,0,1,1.36,1.17c.45.46.9.7,1.35,1.16s.91.7,1.36,1.17.9.7,1.35,1.16.91.7,1.36,1.17.9.7,1.35,1.16.91.7,1.36,1.17.9.7,1.35,1.16.91.7,1.13,1.17a2.69,2.69,0,0,1,1.13,1.16,6.12,6.12,0,0,1,1.36,1.17,2.67,2.67,0,0,1,1.12,1.16,5.71,5.71,0,0,1,1.36,1.17c.45.46.9.69,1.13,1.16a378.33,378.33,0,0,1,2.26,2.33c.45.47.9.7,1.13,1.16.45.47.9.7,1.12,1.17a2.69,2.69,0,0,1,1.13,1.16c.46.47.91.7,1.13,1.17.45.46.91.7,1.13,1.16.45.47.91.7,1.13,1.17l1.13,1.16c.45.47.9.7,1.13,1.17l1.13,1.16,1.13,1.17c.45.46.67.7,1.13,1.16l1.13,1.17,1.12,1.16,1.13,1.17c.45.23.68.7,1.13,1.16l1.13,1.17,1.13,1.16,1.13,1.17,1.13,1.16,1.13,1.17,1.13,1.16,1.13,1.17,1.12,1.16c.46.23.68.7,1.13,1.16.46.24.68.7,1.13,1.17a4.35,4.35,0,0,1,.91,1.16l1.13,1.17a4.15,4.15,0,0,1,.9,1.16l1.13,1.17a4.15,4.15,0,0,1,.9,1.16,155.1,155.1,0,0,0,1.81,2.33,2.37,2.37,0,0,1,.9,1.17,4,4,0,0,1,.9,1.16,4,4,0,0,1,.91,1.17,32.16,32.16,0,0,0,2,2.79c.23.47.68.7.9,1.17a155.1,155.1,0,0,1,1.81,2.33c.23.46.68.7.9,1.16s.68.7.91,1.17.67.7.9,1.16.68.7.9,1.17.68.7.91,1.16.67.7.9,1.17.68.7.9,1.16.68.7.91,1.17.67.69.9,1.16.68.7.9,1.17.68.69.91,1.16.67.7.9,1.16.68.7.9,1.17.68.7.91,1.16.67.7.9,1.17.45.7.68,1.16.45.7.67,1.17.46.7.68,1.16.45.7.68,1.17.45.7.68,1.16.45.7.67,1.17.46.7.68,1.16.45.7.68,1.17.45.7.68,1.16.45.7.67,1.17.45.7.68,1.16.45.7.68,1.17.45.7.68,1.16.45.7.67,1.17.45.7.68,1.16.45.7.68,1.17.45.69.67,1.16.46.7.68,1.17.45.69.68,1.16.45.7.68,1.17.45.69.67,1.16.46.7.68,1.16a3.54,3.54,0,0,1,.68,1.64c.23.46.45.69.68,1.16s.45.7.67,1.17.46.69.68,1.16.45.7.68,1.16.45.7.45,1.17c.23.47.45.7.45,1.16a2.47,2.47,0,0,1,.45,1.17c.23.47.46.7.46,1.16.22.47.45.7.45,1.17.22.46.45.7.45,1.16.22.47.45.7.45,1.17a2.44,2.44,0,0,1,.45,1.16,2.47,2.47,0,0,1,.45,1.17c.23.46.46.7.46,1.16.22.47.45.7.45,1.17.22.46.45.7.45,1.16.22.47.45.7.45,1.17a2.44,2.44,0,0,1,.45,1.16,2.47,2.47,0,0,1,.45,1.17c.23.46.46.7.46,1.16.22.47.45.7.45,1.17.22.46.22.7.45,1.16s.22.7.45,1.17.23.69.45,1.16.23.7.45,1.17.23.69.46,1.16.22.7.45,1.17.22.69.45,1.16.22.7.45,1.16.23.7.45,1.17.23.7.45,1.16a13.56,13.56,0,0,1,.45,1.64h0a2.09,2.09,0,0,1,.23,1.16h0a2.12,2.12,0,0,1,.23,1.16h0a1.49,1.49,0,0,1,.22.94v.23a1.41,1.41,0,0,1,.23.93V887c0,.24.22.7.22.94v.23c0,.23.23.47.23.93v.23c0,.24.23.47.23.94v.23c0,.23.22.46.22.93v.23c0,.24.23.47.23.7v.47c0,.23.22.46.22.7v.46c0,.24.23.47.23.7v.47c0,.23.22.46.22.7v.46a.81.81,0,0,0,.23.47v.46a.81.81,0,0,0,.23.47v.7c0,.23,0,.23.22.47v.69c0,.24,0,.24.23.47v.7c0,.23,0,.23.22.46v.7a.73.73,0,0,0,.23.47v6.52h0v.93h0V911c0,.47.22.93.22,1.4v13c-.22,14.44-.22,14.91-.22,15.61"/></svg>