<svg id="Layer_1" data-name="Layer 1" xmlns="http://www.w3.org/2000/svg" viewBox="0 0 500 500">
  <defs>
    <style>
      .cls-1 {
        fill: #e0f0ff;
      }
    </style>
  </defs>
  <path class="cls-1" d="M29.23,132.63l-.9,1.7-.25.5c.45-.87.91-1.74,1.37-2.61Z" />
  <path class="cls-1" d="M6.52,193.08l-.27,1.17c.35-1.5.71-3,1.08-4.49C7.05,190.86,6.78,192,6.52,193.08Z" />
  <path class="cls-1"
    d="M1.38,223.69c0,.34-.08.68-.11,1-.1,1-.17,1.92-.26,2.88.13-1.42.26-2.84.41-4.25C1.41,223.46,1.39,223.58,1.38,223.69Z" />
  <path class="cls-1"
    d="M11.63,174.47c-.23.74-.47,1.48-.69,2.22-.07.2-.12.41-.18.61.4-1.34.82-2.68,1.25-4C11.88,173.68,11.75,174.07,11.63,174.47Z" />
  <path class="cls-1"
    d="M.78,230.18c0,.45-.06.91-.1,1.36l-.12,2c.09-1.36.18-2.73.29-4.09C.83,229.66.81,229.92.78,230.18Z" />
  <path class="cls-1" d="M21.19,149.17c-.2.45-.39.9-.59,1.34l1.09-2.46C21.53,148.43,21.35,148.8,21.19,149.17Z" />
  <path class="cls-1" d="M20.14,151.57l-1.08,2.57-.6,1.45c.57-1.37,1.13-2.74,1.72-4.11Z" />
  <path class="cls-1" d="M32.58,126.54h0c-.1.18-.2.37-.31.55s-.26.49-.4.73c.24-.42.47-.85.71-1.28Z" />
  <path class="cls-1" d="M16.67,160.11l-.29.75c.34-.89.69-1.77,1-2.65C17.17,158.85,16.91,159.48,16.67,160.11Z" />
  <path class="cls-1"
    d="M5.32,198.53,5,200.24q-.5,2.49-1,5c-.09.5-.17,1-.26,1.5-.24,1.4-.48,2.81-.7,4.22l-.06.42Q4.29,203,6.14,194.74C5.86,196,5.58,197.26,5.32,198.53Z" />
  <path class="cls-1"
    d="M2.82,212.37c-.22,1.45-.41,2.9-.61,4.35.24-1.74.48-3.47.74-5.19C2.91,211.81,2.86,212.09,2.82,212.37Z" />
  <path class="cls-1"
    d="M2.09,217.62,1.91,219c-.12,1-.22,1.9-.32,2.85.17-1.52.34-3,.54-4.57C2.12,217.42,2.1,217.52,2.09,217.62Z" />
  <path class="cls-1" d="M13.7,168.22c-.36,1-.71,2.09-1.06,3.14l-.12.37c.43-1.32.88-2.64,1.34-4Z" />
  <path class="cls-1" d="M15.62,162.86c-.3.81-.59,1.61-.88,2.42-.12.32-.23.65-.34,1,.47-1.33.95-2.64,1.44-4Z" />
  <path class="cls-1" d="M127.3,467.84c-1.18-.65-2.33-1.33-3.49-2C125,466.52,126.13,467.18,127.3,467.84Z" />
  <path class="cls-1" d="M0,250c0,.38,0,.76,0,1.15,0-.55,0-1.1,0-1.64C0,249.67,0,249.83,0,250Z" />
  <path class="cls-1" d="M.11,242.91l0,1.34c0,.57,0,1.14,0,1.71,0-1.2,0-2.4.07-3.6C.13,242.54.11,242.73.11,242.91Z" />
  <path class="cls-1" d="M26.13,138.65l-1,1.93a1.24,1.24,0,0,1-.1.2c.48-1,1-1.94,1.46-2.91Z" />
  <path class="cls-1" d="M23.89,143.25l-.9,1.93-.06.15c.56-1.22,1.13-2.44,1.71-3.64Z" />
  <path class="cls-1"
    d="M9.74,180.7c-.21.73-.41,1.47-.62,2.2v0c.39-1.38.79-2.75,1.19-4.12C10.12,179.45,9.92,180.07,9.74,180.7Z" />
  <path class="cls-1" d="M250,500h1.59a255.08,255.08,0,0,1-124.24-32.13A248.76,248.76,0,0,0,250,500Z" />
  <path class="cls-1" d="M467.42,126.54h0l.28.47Z" />
  <path class="cls-1" d="M8.19,186.36c-.17.66-.35,1.32-.52,2,0,.09,0,.19-.07.29.36-1.44.75-2.87,1.13-4.3Z" />
  <path class="cls-1"
    d="M.36,236.71c0,.18,0,.36,0,.55,0,1-.07,1.94-.11,2.91.07-1.57.14-3.14.23-4.72C.41,235.87.38,236.29.36,236.71Z" />
  <path class="cls-1"
    d="M500,250v0c0-1.9,0-3.79-.08-5.68l0-1.4c-.05-1.87-.12-3.74-.21-5.6,0-.22,0-.43,0-.64-.09-1.69-.2-3.38-.32-5.07,0-.47-.07-.94-.11-1.41q-.21-2.72-.48-5.43c0-.36-.08-.72-.12-1.09-.16-1.52-.33-3-.52-4.56l-.18-1.49c-.23-1.74-.47-3.47-.73-5.2-.07-.49-.15-1-.23-1.46-.22-1.38-.45-2.76-.68-4.13-.1-.53-.18-1.05-.28-1.58-.3-1.66-.62-3.31-.95-4.95-.12-.6-.24-1.19-.37-1.78-.26-1.25-.53-2.5-.81-3.74-.13-.56-.25-1.13-.38-1.69-.37-1.57-.75-3.13-1.15-4.69-.17-.68-.35-1.37-.53-2.05-.29-1.12-.6-2.24-.91-3.36-.22-.8-.44-1.6-.67-2.4-.38-1.28-.76-2.57-1.15-3.84-.23-.77-.47-1.53-.71-2.29-.32-1-.64-2-1-3s-.74-2.21-1.12-3.31c-.33-.94-.66-1.88-1-2.82s-.6-1.65-.9-2.48-.66-1.74-1-2.61c-.49-1.28-1-2.56-1.51-3.83-.3-.74-.6-1.48-.91-2.22s-.73-1.76-1.1-2.63l-1-2.2c-.63-1.41-1.26-2.81-1.91-4.21-.28-.62-.57-1.23-.86-1.84-.43-.91-.86-1.83-1.3-2.73L474,139q-1.17-2.35-2.38-4.68l-.86-1.63c-.78-1.45-1.58-2.88-2.38-4.32A255.07,255.07,0,0,1,500,251.61Z" />
  <path class="cls-1" d="M111,42.18l-1.5,1-1.58,1.1q1.83-1.26,3.67-2.49Z" />
  <path class="cls-1" d="M116.15,38.83l-1.27.8-2.32,1.53q1.91-1.26,3.85-2.49Z" />
  <path class="cls-1" d="M120.74,36l-1.24.76-2.36,1.47q2.07-1.3,4.17-2.57Z" />
  <path class="cls-1" d="M105.75,45.8l-1.39,1-1,.76c1.18-.86,2.36-1.7,3.55-2.54Z" />
  <path class="cls-1" d="M54,94.81c-.46.57-.91,1.15-1.36,1.72l-.92,1.2c.9-1.16,1.8-2.32,2.72-3.47Z" />
  <path class="cls-1"
    d="M58,89.91c-.44.53-.88,1-1.31,1.58s-1,1.23-1.48,1.84c.94-1.17,1.9-2.35,2.87-3.5A.6.6,0,0,0,58,89.91Z" />
  <path class="cls-1" d="M61.68,85.59,60,87.49,58.68,89.1c1-1.22,2.06-2.43,3.11-3.63Z" />
  <path class="cls-1"
    d="M68.53,78.06q-1.47,1.56-2.92,3.13l-1.44,1.59L62.1,85.12q3.5-4,7.16-7.82C69,77.55,68.77,77.8,68.53,78.06Z" />
  <path class="cls-1" d="M101.34,49l-1.5,1.12c-.37.27-.72.55-1.08.83,1.15-.88,2.32-1.75,3.49-2.61Z" />
  <path class="cls-1" d="M50.06,99.91h0L51,98.75C50.65,99.14,50.35,99.52,50.06,99.91Z" />
  <path class="cls-1"
    d="M142.22,24.38l-1.36.65q-2.22,1.08-4.41,2.19l-1,.53c-1.26.65-2.51,1.31-3.76,2l-1.27.68q-2.08,1.14-4.15,2.33l-1.44.83c-1.13.65-2.24,1.31-3.35,2a248.21,248.21,0,0,1,24.38-12.87C144.63,23.24,143.42,23.8,142.22,24.38Z" />
  <path class="cls-1" d="M72.28,74.19c-.78.79-1.55,1.59-2.32,2.39-.17.16-.33.33-.49.5,1.15-1.19,2.3-2.37,3.47-3.54Z" />
  <path class="cls-1"
    d="M91.54,56.64l-1.47,1.22-.24.2c1.16-1,2.33-1.92,3.5-2.86C92.73,55.68,92.13,56.15,91.54,56.64Z" />
  <path class="cls-1" d="M96.51,52.67,95,53.85l-.74.6c1.15-.91,2.3-1.82,3.47-2.72Z" />
  <path class="cls-1" d="M82.81,64.15c-.5.45-1,.89-1.49,1.35-1.07,1-2.13,2-3.18,3l-.83.8q3.82-3.66,7.81-7.15Z" />
  <path class="cls-1" d="M87.31,60.19l-1.78,1.54-.06.06q1.8-1.57,3.62-3.1Z" />
  <path class="cls-1" d="M76.66,69.88c-.87.83-1.73,1.67-2.58,2.51L73.5,73c1.19-1.18,2.38-2.35,3.59-3.51Z" />
  <path class="cls-1" d="M153,19.52l-.82.35-.72.31c1.37-.59,2.76-1.16,4.14-1.72Z" />
  <path class="cls-1" d="M182.22,9.31l-1.2.34c-.74.21-1.47.44-2.21.66,1.38-.41,2.75-.81,4.14-1.2Z" />
  <path class="cls-1" d="M188,7.75l-.7.18c-1,.26-2,.54-3,.81,1.44-.39,2.88-.77,4.33-1.14Z" />
  <path class="cls-1" d="M218.69,2l-1.13.15-.25,0c1.53-.2,3.07-.38,4.61-.55Z" />
  <path class="cls-1" d="M237.6.31l-1.08.06-1.08.07c1.58-.09,3.17-.16,4.75-.23Z" />
  <path class="cls-1" d="M225,1.24l-.92.09-.79.09c1.43-.15,2.86-.28,4.29-.41Z" />
  <path class="cls-1" d="M250,0h1.15Z" />
  <path class="cls-1"
    d="M212.12,2.86l-.68.11c-1.72.26-3.42.54-5.13.84l-.82.15q-2.66.46-5.28,1L199,5.21c-1.45.3-2.9.62-4.35.94Q205.57,3.7,216.78,2.2C215.23,2.41,213.67,2.62,212.12,2.86Z" />
  <path class="cls-1" d="M244.17.08l-1,0-.8,0c1.21,0,2.42,0,3.63-.08C245.38.07,244.77.06,244.17.08Z" />
  <path class="cls-1" d="M193.84,6.34l-.92.22-3.18.77c1.55-.38,3.11-.76,4.68-1.11Z" />
  <path class="cls-1"
    d="M230.86.73l-.39,0c-.36,0-.72.07-1.08.09,1.37-.11,2.75-.2,4.13-.29C232.63.61,231.74.66,230.86.73Z" />
  <path class="cls-1" d="M158.83,17.15l-1.24.5-.74.3c1.34-.54,2.68-1.06,4-1.57Z" />
  <path class="cls-1" d="M147.91,21.74l-1.26.57-.5.23c1.46-.67,2.92-1.31,4.39-1.95Z" />
  <path class="cls-1" d="M164.76,14.92l-1.23.45-1.24.47c1.31-.49,2.64-1,4-1.45Z" />
  <path class="cls-1" d="M170.25,13l-.56.18-1.92.68c1.32-.46,2.64-.91,4-1.35Z" />
  <path class="cls-1" d="M176.06,11.13l-1.1.34-1.68.55c1.34-.43,2.68-.86,4-1.27Z" />
  <path class="cls-1" d="M.47,234.78c0,.23,0,.45,0,.67,0-.65.08-1.31.12-2C.53,233.92.49,234.35.47,234.78Z" />
  <path class="cls-1" d="M21.69,148.05c.41-.91.82-1.82,1.24-2.72C22.51,146.23,22.1,147.14,21.69,148.05Z" />
  <path class="cls-1" d="M.13,242.36c0-.73.06-1.46.08-2.19C.19,240.9.15,241.63.13,242.36Z" />
  <path class="cls-1" d="M26.53,137.87c.51-1,1-2,1.55-3C27.56,135.84,27,136.85,26.53,137.87Z" />
  <path class="cls-1" d="M252.2,500h0Z" />
  <path class="cls-1" d="M0,249.51c0-1.19,0-2.37,0-3.55C0,247.14,0,248.33,0,249.51Z" />
  <path class="cls-1" d="M24.64,141.69c.15-.3.29-.61.43-.91C24.93,141.08,24.79,141.39,24.64,141.69Z" />
  <path class="cls-1" d="M127.35,467.87l0,0Z" />
  <path class="cls-1" d="M20.18,151.48l.42-1Z" />
  <path class="cls-1" d="M.85,229.4c.05-.6.11-1.2.16-1.81C1,228.2.9,228.8.85,229.4Z" />
  <path class="cls-1" d="M3,211.53l0-.14Z" />
  <path class="cls-1" d="M7.33,189.76l.27-1.12Z" />
  <path class="cls-1" d="M13.86,167.77l.54-1.52Z" />
  <path class="cls-1" d="M10.3,178.82c.15-.5.3-1,.46-1.52C10.6,177.81,10.45,178.32,10.3,178.82Z" />
  <path class="cls-1" d="M12,173.29l.51-1.56Z" />
  <path class="cls-1" d="M8.73,184.34c.13-.46.25-.93.38-1.4C9,183.41,8.86,183.88,8.73,184.34Z" />
  <path class="cls-1" d="M2.13,217.32c0-.2.06-.4.08-.6C2.19,216.92,2.16,217.12,2.13,217.32Z" />
  <path class="cls-1" d="M1.42,223.34c.05-.48.11-1,.17-1.45C1.53,222.38,1.47,222.86,1.42,223.34Z" />
  <path class="cls-1" d="M15.84,162.29l.54-1.43Z" />
  <path class="cls-1" d="M166.25,14.39l1.52-.53Z" />
  <path class="cls-1" d="M216.78,2.2l.53-.07Z" />
  <path class="cls-1" d="M227.62,1l1.77-.16Z" />
  <path class="cls-1" d="M188.65,7.6l1.09-.27Z" />
  <path class="cls-1" d="M221.92,1.58l1.41-.16Z" />
  <path class="cls-1" d="M155.61,18.46l1.24-.51Z" />
  <path class="cls-1" d="M160.87,16.38l1.42-.54Z" />
  <path class="cls-1" d="M183,9.11l1.37-.37Z" />
  <path class="cls-1" d="M171.74,12.51l1.54-.49Z" />
  <path class="cls-1" d="M177.31,10.75l1.5-.44Z" />
  <path class="cls-1" d="M194.42,6.22l.27-.07Z" />
  <path class="cls-1" d="M0,251.15A247.78,247.78,0,0,0,123.81,465.84,249.87,249.87,0,0,1,0,251.15Z" />
  <path class="cls-1" d="M6.25,194.25c0,.17-.07.33-.11.49v0C6.19,194.55,6.22,194.4,6.25,194.25Z" />
  <path class="cls-1" d="M500,252.2v0Z" />
  <path class="cls-1" d="M234.78.47l-1.26.09,1.92-.12Z" />
  <path class="cls-1" d="M18.46,155.59c-.35.88-.7,1.75-1,2.62l.69-1.75C18.23,156.17,18.35,155.88,18.46,155.59Z" />
  <path class="cls-1" d="M246,.05c1.17,0,2.35,0,3.52,0C248.33,0,247.15,0,246,.05Z" />
  <path class="cls-1" d="M29.45,132.22q1.18-2.21,2.42-4.4Q30.64,130,29.45,132.22Z" />
  <path class="cls-1" d="M240.19.21l2.16-.08Z" />
  <path class="cls-1" d="M467.69,127l.72,1.32Z" />
  <path class="cls-1" d="M72.94,73.54,73.5,73Z" />
  <path class="cls-1" d="M69.26,77.3l.21-.22Z" />
  <path class="cls-1" d="M77.09,69.46l.22-.21Z" />
  <path class="cls-1" d="M85.12,62.1l.35-.31Z" />
  <path class="cls-1" d="M54.45,94.26l.75-.93Z" />
  <path class="cls-1" d="M150.54,20.59l.93-.41Z" />
  <path class="cls-1" d="M89.09,58.69l.74-.63Z" />
  <path class="cls-1" d="M58.07,89.83c.2-.25.41-.49.61-.73C58.48,89.34,58.27,89.58,58.07,89.83Z" />
  <path class="cls-1" d="M61.79,85.47l.31-.35Z" />
  <path class="cls-1" d="M51,98.75l.78-1Z" />
  <path class="cls-1" d="M121.31,35.64l.16-.09Z" />
  <path class="cls-1" d="M93.33,55.2l.93-.75Z" />
  <path class="cls-1" d="M111.6,41.8c.31-.22.64-.42,1-.64C112.24,41.38,111.91,41.58,111.6,41.8Z" />
  <path class="cls-1" d="M145.85,22.68l.3-.14Z" />
  <path class="cls-1" d="M116.41,38.67l.73-.46Z" />
  <path class="cls-1" d="M106.87,45l1.06-.73Z" />
  <path class="cls-1" d="M102.25,48.34l1.07-.78Z" />
  <path class="cls-1" d="M97.73,51.73l1-.78Z" />
  <path class="cls-1"
    d="M468.41,128.34l-.72-1.32-.28-.47L271.09,320.67a30,30,0,0,1-42.18,0L32.58,126.54c-.24.43-.47.86-.71,1.28q-1.23,2.19-2.42,4.4c-.46.87-.92,1.74-1.37,2.61s-1,2-1.55,3-1,1.94-1.46,2.91c-.14.3-.28.61-.43.91-.58,1.2-1.15,2.42-1.71,3.64-.42.9-.83,1.81-1.24,2.72l-1.09,2.46-.42,1c-.59,1.37-1.15,2.74-1.72,4.11-.11.29-.23.58-.35.87l-.69,1.75c-.35.88-.7,1.76-1,2.65l-.54,1.43c-.49,1.32-1,2.63-1.44,4l-.54,1.52c-.46,1.32-.91,2.64-1.34,4L12,173.29c-.43,1.33-.85,2.67-1.25,4-.16.51-.31,1-.46,1.52-.4,1.37-.8,2.74-1.19,4.12-.13.47-.25.94-.38,1.4-.38,1.43-.77,2.86-1.13,4.3l-.27,1.12c-.37,1.49-.73,3-1.08,4.49,0,.15-.06.3-.1.45v0Q4.3,203,3,211.39l0,.14c-.26,1.72-.5,3.45-.74,5.19,0,.2,0,.4-.08.6-.2,1.52-.37,3.05-.54,4.57-.06.49-.12,1-.17,1.45-.15,1.41-.28,2.83-.41,4.25C1,228.2.9,228.8.85,229.4c-.11,1.36-.2,2.73-.29,4.09,0,.65-.09,1.31-.12,2C.35,237,.28,238.6.21,240.17c0,.73-.06,1.46-.08,2.19,0,1.2,0,2.4-.07,3.6s0,2.36,0,3.55c0,.54,0,1.09,0,1.64A249.87,249.87,0,0,0,123.81,465.84c1.16.67,2.31,1.35,3.49,2l0,0A255.08,255.08,0,0,0,251.59,500H420.31A80,80,0,0,0,500,420.3V251.61A255.07,255.07,0,0,0,468.41,128.34Z" />
  <path class="cls-1"
    d="M257,290.66,449.94,99.91l0,0c-.84-1.11-1.69-2.21-2.54-3.31L446,94.79c-.87-1.1-1.75-2.2-2.65-3.28-.44-.55-.9-1.09-1.35-1.63-.66-.79-1.33-1.58-2-2.36s-1.13-1.33-1.71-2c-.8-.92-1.61-1.83-2.43-2.74q-.72-.81-1.47-1.62c-.95-1-1.91-2.08-2.89-3.11-.48-.51-1-1-1.46-1.52-.75-.78-1.51-1.55-2.27-2.32l-1.87-1.88c-.84-.83-1.68-1.64-2.52-2.46l-1.51-1.45q-1.58-1.47-3.16-2.93l-1.52-1.38-2.67-2.37-1.85-1.6Q411.32,59,410,57.88l-1.5-1.25c-1.14-.93-2.28-1.85-3.44-2.77l-1.53-1.2c-1.08-.84-2.17-1.68-3.27-2.51L398.63,49c-1-.73-2-1.45-3-2.17l-1.42-1c-1.24-.87-2.49-1.74-3.74-2.59l-1.52-1c-1.28-.86-2.56-1.71-3.86-2.54-.42-.28-.85-.55-1.28-.82-1.1-.7-2.21-1.39-3.32-2.07L379.25,36c-1.34-.81-2.7-1.61-4.06-2.4l-1.46-.84c-1.37-.78-2.75-1.56-4.14-2.31-.42-.24-.86-.47-1.29-.7-1.23-.66-2.48-1.32-3.73-2l-1-.54q-2.19-1.11-4.4-2.18l-1.38-.67q-2.19-1.05-4.41-2.06l-1.28-.57c-1.41-.63-2.82-1.26-4.25-1.86l-.86-.37c-1.51-.64-3-1.25-4.55-1.86l-1.26-.5c-1.55-.61-3.12-1.2-4.69-1.78l-1.24-.45c-1.63-.59-3.27-1.18-4.91-1.73l-.59-.2c-1.55-.52-3.11-1-4.68-1.52l-1.11-.35q-2.46-.75-4.95-1.47l-1.21-.34q-2.55-.72-5.11-1.38L312,7.75c-1.62-.42-3.24-.81-4.87-1.19l-.93-.22c-1.73-.4-3.46-.77-5.2-1.13L299.79,5c-1.76-.36-3.51-.69-5.28-1l-.83-.15c-1.7-.3-3.4-.58-5.11-.84l-.69-.11q-2.72-.42-5.44-.76L281.31,2q-2.7-.33-5.42-.62L275,1.24c-1.81-.18-3.61-.34-5.43-.48l-.39,0c-1.88-.15-3.77-.26-5.66-.36L262.4.31Q259.64.18,256.85.1l-1,0c-1.56,0-3.12,0-4.68-.06H249.5c-1.17,0-2.35,0-3.52,0s-2.42,0-3.63.08l-2.16.08c-1.58.07-3.17.14-4.75.23l-1.92.12c-1.38.09-2.76.18-4.13.29L227.62,1c-1.43.13-2.86.26-4.29.41l-1.41.16c-1.54.17-3.08.35-4.61.55l-.53.07q-11.21,1.5-22.09,4l-.27.07c-1.57.35-3.13.73-4.68,1.11l-1.09.27c-1.45.37-2.89.75-4.33,1.14L183,9.11c-1.39.39-2.76.79-4.14,1.2l-1.5.44c-1.35.41-2.69.84-4,1.27l-1.54.49c-1.33.44-2.65.89-4,1.35l-1.52.53c-1.32.48-2.65,1-4,1.45l-1.42.54c-1.34.51-2.68,1-4,1.57l-1.24.51c-1.38.56-2.77,1.13-4.14,1.72l-.93.41c-1.47.64-2.93,1.28-4.39,1.95l-.3.14a248.21,248.21,0,0,0-24.38,12.87l-.16.09q-2.1,1.26-4.17,2.57l-.73.46q-1.95,1.23-3.85,2.49c-.32.22-.65.42-1,.64q-1.84,1.23-3.67,2.49l-1.06.73c-1.19.84-2.37,1.68-3.55,2.54l-1.07.78c-1.17.86-2.34,1.73-3.49,2.61l-1,.78c-1.17.9-2.32,1.81-3.47,2.72l-.93.75c-1.17.94-2.34,1.9-3.5,2.86l-.74.63q-1.82,1.53-3.62,3.1l-.35.31q-4,3.5-7.81,7.15l-.22.21c-1.21,1.16-2.4,2.33-3.59,3.51l-.56.57c-1.17,1.17-2.32,2.35-3.47,3.54l-.21.22q-3.66,3.83-7.16,7.82l-.31.35c-1,1.2-2.08,2.41-3.11,3.63-.2.24-.41.48-.61.73-1,1.15-1.93,2.33-2.87,3.5l-.75.93c-.92,1.15-1.82,2.31-2.72,3.47l-.78,1-.87,1.17L243,290.66A10,10,0,0,0,257,290.66Z" />
</svg>