<svg id="Layer_1" data-name="Layer 1" xmlns="http://www.w3.org/2000/svg" xmlns:xlink="http://www.w3.org/1999/xlink" viewBox="0 0 512 512"><defs><style>.cls-1{fill:url(#linear-gradient);}.cls-2{fill:#fff;}</style><linearGradient id="linear-gradient" x1="29.29" y1="29.29" x2="482.71" y2="482.71" gradientUnits="userSpaceOnUse"><stop offset="0" stop-color="#0082d9"/><stop offset="1" stop-color="#00c58f"/></linearGradient></defs><rect class="cls-1" width="512" height="512" rx="100"/><path class="cls-2" d="M237.59,111.81a87.47,87.47,0,0,0-33.41-33.6C190,70.15,173.67,66.07,155.52,66.07H87.75A21.36,21.36,0,0,0,65.91,87.91V326.12a21.85,21.85,0,1,0,43.69,0V254.44h45.92c18.16,0,34.53-4.09,48.66-12.14a87.78,87.78,0,0,0,33.4-33.41c7.93-14,12-30.21,12-48.13C249.54,142.41,245.52,125.94,237.59,111.81Zm-82.07,100H109.6v-103h45.92c10.08,0,18.76,2.17,26.53,6.64a46.9,46.9,0,0,1,18,18.1c4.33,7.69,6.52,16.87,6.52,27.28A53.53,53.53,0,0,1,200,187.37a45.61,45.61,0,0,1-17.88,17.88A53.53,53.53,0,0,1,155.52,211.77Z"/><path class="cls-2" d="M423.16,306.6c-14.58-14.1-36.8-23.38-66-27.59-14.49-2.07-26-5.2-34.36-9.31-7.69-3.8-13.18-8.22-16.29-13.16a29.43,29.43,0,0,1-4.65-16.18c0-11.29,4-19.58,12.27-25.35,9.09-6.34,21.57-9.55,37.11-9.57,8.89.21,16.5,1.48,22.61,3.77a47,47,0,0,1,15.32,9.09A67.32,67.32,0,0,1,400,230.89a22.23,22.23,0,0,0,28.61,8.83l.61-.31a19.91,19.91,0,0,0,9.82-13c.89-3.82,1.05-9.8-3.19-16.6a96.51,96.51,0,0,0-19.74-22.67,98.25,98.25,0,0,0-64.52-23c-17.4,0-33.1,3-46.68,8.8-13.94,6-25.09,14.67-33.12,25.8-8.19,11.35-12.35,24.81-12.35,40,0,21.18,8.31,39.27,24.68,53.79,15.8,14,37.72,22.77,65.1,26,19.21,2.4,33.27,7.85,41.81,16.19,8.31,8.14,12.35,17.53,12.35,28.72,0,8.9-2,16.14-6.25,22.13a40.07,40.07,0,0,1-17.75,14c-7.95,3.39-17.3,5.11-27.79,5.11A89.26,89.26,0,0,1,325,400.91a61.69,61.69,0,0,1-20.11-10.31,45.11,45.11,0,0,1-12.29-14.43,23.65,23.65,0,0,0-10.42-10.6A20.44,20.44,0,0,0,267,363.94c-7.73,2.15-11.63,6.71-13.54,10.15-3,5.36-3,11.57-.06,17.51a85.22,85.22,0,0,0,22.32,28.9,103.18,103.18,0,0,0,34,18.93A130.21,130.21,0,0,0,351.63,446a119.63,119.63,0,0,0,36.12-5.36A92.18,92.18,0,0,0,418,424.79a72.85,72.85,0,0,0,20.57-26.35c4.8-10.34,7.23-22.23,7.23-35.32C445.75,340.12,438.15,321.1,423.16,306.6Z"/></svg>