<svg id="Layer_1" data-name="Layer 1" xmlns="http://www.w3.org/2000/svg" viewBox="0 0 500 500"><defs><style>.cls-1{fill:#fff;}</style></defs><path class="cls-1" d="M465.7,123.58A250.12,250.12,0,1,0,500,250,251.08,251.08,0,0,0,465.7,123.58ZM132.92,106.72c22.29,0,36,14.54,36.43,33.65,0,18.7-14.14,33.66-36.86,33.66h-.43c-21.86,0-36-15-36-33.66C96.06,121.26,110.63,106.72,132.92,106.72Zm-33,288.71V200.62h65.16V395.43Zm300.12,0H334.87V291.21c0-26.18-9.43-44-33-44-18,0-28.72,12-33.43,23.68-1.72,4.16-2.15,10-2.15,15.8V395.43H201.13s.85-176.53,0-194.81h65.16v27.6c8.65-13.28,24.13-32.17,58.72-32.17,42.87,0,75,27.85,75,87.68Z"/></svg>