<svg id="Layer_1" data-name="Layer 1" xmlns="http://www.w3.org/2000/svg" viewBox="0 0 500 500"><defs><style>.cls-1{fill:#fff;}</style></defs><path class="cls-1" d="M450,0H50A50,50,0,0,0,0,50V450a50,50,0,0,0,50,50H450a50,50,0,0,0,50-50V50A50,50,0,0,0,450,0ZM425,373.8a15,15,0,0,1-15,15H90a15,15,0,0,1-15-15h0a15,15,0,0,1,15-15H410a15,15,0,0,1,15,15Zm0-82.53a15,15,0,0,1-15,15H90a15,15,0,0,1-15-15h0a15,15,0,0,1,15-15H410a15,15,0,0,1,15,15Zm-15-67.54H90a15,15,0,0,1,0-30H410a15,15,0,0,1,0,30Zm0-82.53H90a15,15,0,0,1,0-30H410a15,15,0,1,1,0,30Z"/></svg>