<?xml version="1.0" encoding="UTF-8" standalone="no"?>
<!DOCTYPE svg PUBLIC "-//W3C//DTD SVG 1.1//EN" "http://www.w3.org/Graphics/SVG/1.1/DTD/svg11.dtd">
<svg width="100%" height="100%" viewBox="0 0 2400 1800" version="1.1" xmlns="http://www.w3.org/2000/svg" xmlns:xlink="http://www.w3.org/1999/xlink" xml:space="preserve" xmlns:serif="http://www.serif.com/" style="fill-rule:evenodd;clip-rule:evenodd;stroke-linecap:round;stroke-linejoin:round;stroke-miterlimit:1.5;">
    <rect x="0" y="0" width="2400" height="1800" style="fill:url(#_Linear1);"/>
    <g transform="matrix(14.9702,0,0,14.9702,-10495.3,-2765.99)">
        <text x="764.755px" y="207.83px" style="font-family:'DankMono-Italic', 'Dank Mono', monospace;font-style:italic;font-size:12px;fill:white;">FAT16</text>
    </g>
    <g transform="matrix(22.3064,0,0,22.3064,-15432.7,-6229.11)">
        <text x="720.135px" y="347.147px" style="font-family:'DankMono-Italic', 'Dank Mono', monospace;font-style:italic;font-size:12px;fill:white;">3</text>
    </g>
    <g transform="matrix(0.831561,0,0,0.831561,-148.893,238.014)">
        <path d="M1200,193.525L1200,1606.48" style="fill:none;stroke:white;stroke-width:30.06px;"/>
    </g>
    <g transform="matrix(0.831561,0,0,0.831561,202.127,258.339)">
        <path d="M435.487,520.765L1964.51,520.765" style="fill:none;stroke:white;stroke-width:30.06px;"/>
    </g>
    <g transform="matrix(0.831561,0,0,0.831561,202.127,855.449)">
        <path d="M435.487,520.765L1964.51,520.765" style="fill:none;stroke:white;stroke-width:30.06px;"/>
    </g>
    <g transform="matrix(0.831561,0,0,0.831561,202.127,553.371)">
        <path d="M435.487,520.765L1964.51,520.765" style="fill:none;stroke:white;stroke-width:30.06px;"/>
    </g>
    <g transform="matrix(1.20938,0,0,0.831561,431.104,250.257)">
        <rect x="110.103" y="178.801" width="1051.34" height="1412.95" style="fill:none;stroke:white;stroke-width:24.09px;"/>
    </g>
    <g transform="matrix(22.3064,0,0,22.3064,-15441,-7111.03)">
        <text x="720.135px" y="347.147px" style="font-family:'DankMono-Italic', 'Dank Mono', monospace;font-style:italic;font-size:12px;fill:white;">0</text>
    </g>
    <g transform="matrix(22.3064,0,0,22.3064,-15159.9,-7112.4)">
        <text x="720.135px" y="347.147px" style="font-family:'DankMono-Italic', 'Dank Mono', monospace;font-style:italic;font-size:12px;fill:white;">0x2004</text>
    </g>
    <g transform="matrix(22.3064,0,0,22.3064,-15159.9,-6816.71)">
        <text x="720.135px" y="347.147px" style="font-family:'DankMono-Italic', 'Dank Mono', monospace;font-style:italic;font-size:12px;fill:white;">0xFFFF</text>
    </g>
    <g transform="matrix(22.3064,0,0,22.3064,-15159.9,-6521.84)">
        <text x="720.135px" y="347.147px" style="font-family:'DankMono-Italic', 'Dank Mono', monospace;font-style:italic;font-size:12px;fill:white;">0x0003</text>
    </g>
    <g transform="matrix(22.3064,0,0,22.3064,-15159.9,-6229.11)">
        <text x="720.135px" y="347.147px" style="font-family:'DankMono-Italic', 'Dank Mono', monospace;font-style:italic;font-size:12px;fill:white;">0xFFFF</text>
    </g>
    <g transform="matrix(22.3064,0,0,22.3064,-15434.1,-6822.2)">
        <text x="720.135px" y="347.147px" style="font-family:'DankMono-Italic', 'Dank Mono', monospace;font-style:italic;font-size:12px;fill:white;">1</text>
    </g>
    <g transform="matrix(22.3064,0,0,22.3064,-15429.7,-6519.04)">
        <text x="720.135px" y="347.147px" style="font-family:'DankMono-Italic', 'Dank Mono', monospace;font-style:italic;font-size:12px;fill:white;">2</text>
    </g>
    <defs>
        <linearGradient id="_Linear1" x1="0" y1="0" x2="1" y2="0" gradientUnits="userSpaceOnUse" gradientTransform="matrix(2192.6,2179.84,-2179.84,2192.6,179.943,-185.92)"><stop offset="0" style="stop-color:rgb(231,100,254);stop-opacity:1"/><stop offset="1" style="stop-color:rgb(255,250,95);stop-opacity:1"/></linearGradient>
    </defs>
</svg>
